<svg xmlns="http://www.w3.org/2000/svg" viewBox="0 0 63.57 74.16"><defs><style>.cls-1{fill:#16110d;}.cls-2{fill:#ffbe2e;}.cls-3{fill:#fec;}</style></defs><g id="Layer_2" data-name="Layer 2"><g id="content"><g id="_6" data-name="6"><ellipse class="cls-1" cx="10.75" cy="73.79" rx="0.64" ry="0.37"/><path class="cls-1" d="M13.57,72.16c.25.15.25.38,0,.52a1,1,0,0,1-.9,0c-.25-.14-.25-.37,0-.52A1,1,0,0,1,13.57,72.16Z"/><path class="cls-1" d="M15.94,70.79a.28.28,0,0,1,0,.53,1,1,0,0,1-.9,0,.28.28,0,0,1,0-.53A1,1,0,0,1,15.94,70.79Z"/><ellipse class="cls-1" cx="17.86" cy="69.68" rx="0.64" ry="0.37"/><path class="cls-1" d="M6.46,73.53a.27.27,0,0,1,0,.52,1,1,0,0,1-.91,0,.27.27,0,0,1,0-.52A1,1,0,0,1,6.46,73.53Z"/><path class="cls-1" d="M8.83,72.16c.25.15.25.38,0,.52a1,1,0,0,1-.91,0c-.25-.14-.25-.37,0-.52A1,1,0,0,1,8.83,72.16Z"/><path class="cls-1" d="M11.2,70.79a.28.28,0,0,1,0,.53,1,1,0,0,1-.91,0,.28.28,0,0,1,0-.53A1,1,0,0,1,11.2,70.79Z"/><path class="cls-1" d="M13.57,69.42a.28.28,0,0,1,0,.53,1,1,0,0,1-.9,0,.28.28,0,0,1,0-.53A1,1,0,0,1,13.57,69.42Z"/><path class="cls-1" d="M15.94,68.05a.28.28,0,0,1,0,.53,1,1,0,0,1-.9,0,.28.28,0,0,1,0-.53A1,1,0,0,1,15.94,68.05Z"/><path class="cls-1" d="M4.07,72.15a.27.27,0,0,1,0,.52,1,1,0,0,1-.91,0,.27.27,0,0,1,0-.52A1,1,0,0,1,4.07,72.15Z"/><ellipse class="cls-1" cx="5.99" cy="71.04" rx="0.64" ry="0.37"/><path class="cls-1" d="M8.81,69.41a.27.27,0,0,1,0,.52,1,1,0,0,1-.91,0,.27.27,0,0,1,0-.52A1,1,0,0,1,8.81,69.41Z"/><path class="cls-1" d="M11.18,68a.27.27,0,0,1,0,.52,1,1,0,0,1-.91,0,.27.27,0,0,1,0-.52A1,1,0,0,1,11.18,68Z"/><path class="cls-1" d="M13.55,66.67c.25.15.25.38,0,.52a1,1,0,0,1-.9,0c-.25-.14-.25-.37,0-.52A1,1,0,0,1,13.55,66.67Z"/><ellipse class="cls-1" cx="1.24" cy="71.04" rx="0.64" ry="0.37"/><path class="cls-1" d="M4.07,69.41a.27.27,0,0,1,0,.52,1,1,0,0,1-.91,0,.27.27,0,0,1,0-.52A1,1,0,0,1,4.07,69.41Z"/><path class="cls-1" d="M6.44,68a.27.27,0,0,1,0,.52,1,1,0,0,1-.91,0,.27.27,0,0,1,0-.52A1,1,0,0,1,6.44,68Z"/><ellipse class="cls-1" cx="8.36" cy="66.93" rx="0.64" ry="0.37"/><path class="cls-1" d="M11.18,65.3a.28.28,0,0,1,0,.53,1,1,0,0,1-.91,0,.28.28,0,0,1,0-.53A1,1,0,0,1,11.18,65.3Z"/><ellipse class="cls-1" cx="1.24" cy="68.3" rx="0.64" ry="0.37"/><path class="cls-1" d="M4.07,66.67c.25.15.25.38,0,.52a1,1,0,0,1-.91,0c-.25-.14-.25-.37,0-.52A1,1,0,0,1,4.07,66.67Z"/><path class="cls-1" d="M6.44,65.3a.28.28,0,0,1,0,.53,1,1,0,0,1-.91,0,.28.28,0,0,1,0-.53A1,1,0,0,1,6.44,65.3Z"/><path class="cls-1" d="M.79,65.3a1,1,0,0,1,.91,0,.28.28,0,0,1,0,.53,1,1,0,0,1-.91,0,.28.28,0,0,1,0-.53C1,65.16.54,65.45.79,65.3Z"/><path class="cls-1" d="M19.79,68.07a1,1,0,0,1,.91,0c.25.14.25.37,0,.52a1,1,0,0,1-.9,0A.28.28,0,0,1,19.79,68.07Z"/><path class="cls-1" d="M23.08,66.7a.27.27,0,0,1,0,.52,1,1,0,0,1-.91,0,.27.27,0,0,1,0-.52A1,1,0,0,1,23.08,66.7Z"/><path class="cls-1" d="M25.45,65.33a.27.27,0,0,1,0,.52,1,1,0,0,1-.91,0,.27.27,0,0,1,0-.52A1,1,0,0,1,25.45,65.33Z"/><path class="cls-1" d="M27.82,64a.27.27,0,0,1,0,.52,1,1,0,0,1-.91,0,.27.27,0,0,1,0-.52A1,1,0,0,1,27.82,64Z"/><path class="cls-1" d="M30.19,62.59a.27.27,0,0,1,0,.52,1,1,0,0,1-.91,0,.27.27,0,0,1,0-.52A1,1,0,0,1,30.19,62.59Z"/><path class="cls-1" d="M32.56,61.22c.25.15.25.38,0,.52a1,1,0,0,1-.91,0c-.25-.14-.25-.37,0-.52A1,1,0,0,1,32.56,61.22Z"/><path class="cls-1" d="M34.93,59.85a.28.28,0,0,1,0,.53,1,1,0,0,1-.91,0,.28.28,0,0,1,0-.53A1,1,0,0,1,34.93,59.85Z"/><path class="cls-1" d="M37.3,58.48a.28.28,0,0,1,0,.53,1,1,0,0,1-.91,0,.28.28,0,0,1,0-.53A1,1,0,0,1,37.3,58.48Z"/><path class="cls-1" d="M39.67,57.11a.28.28,0,0,1,0,.53,1,1,0,0,1-.9,0,.28.28,0,0,1,0-.53A1,1,0,0,1,39.67,57.11Z"/><path class="cls-1" d="M42,55.75c.25.14.25.37,0,.52a1,1,0,0,1-.9,0c-.25-.15-.25-.38,0-.52A1,1,0,0,1,42,55.75Z"/><path class="cls-1" d="M44.41,54.38c.26.14.26.38,0,.52a1,1,0,0,1-.9,0,.27.27,0,0,1,0-.52A1,1,0,0,1,44.41,54.38Z"/><path class="cls-1" d="M46.79,53a.27.27,0,0,1,0,.52,1,1,0,0,1-.91,0,.27.27,0,0,1,0-.52A1,1,0,0,1,46.79,53Z"/><path class="cls-1" d="M49.16,51.64a.27.27,0,0,1,0,.52,1,1,0,0,1-.91,0,.27.27,0,0,1,0-.52A1,1,0,0,1,49.16,51.64Z"/><path class="cls-1" d="M51.53,50.27a.27.27,0,0,1,0,.52,1,1,0,0,1-.91,0,.27.27,0,0,1,0-.52A1,1,0,0,1,51.53,50.27Z"/><ellipse class="cls-1" cx="53.45" cy="49.16" rx="0.64" ry="0.37"/><path class="cls-1" d="M56.27,47.53a.28.28,0,0,1,0,.53,1,1,0,0,1-.91,0,.28.28,0,0,1,0-.53A1,1,0,0,1,56.27,47.53Z"/><path class="cls-1" d="M17.42,66.7a1,1,0,0,1,.91,0,.27.27,0,0,1,0,.52,1,1,0,0,1-.9,0C17.17,67.08,17.17,66.84,17.42,66.7Z"/><path class="cls-1" d="M20.7,65.33c.26.14.26.38,0,.52a1,1,0,0,1-.9,0,.27.27,0,0,1,0-.52A1,1,0,0,1,20.7,65.33Z"/><path class="cls-1" d="M23.08,64a.27.27,0,0,1,0,.52,1,1,0,0,1-.91,0,.27.27,0,0,1,0-.52A1,1,0,0,1,23.08,64Z"/><path class="cls-1" d="M25.45,62.59a.27.27,0,0,1,0,.52,1,1,0,0,1-.91,0,.27.27,0,0,1,0-.52A1,1,0,0,1,25.45,62.59Z"/><path class="cls-1" d="M27.82,61.22c.25.15.25.38,0,.52a1,1,0,0,1-.91,0c-.25-.14-.25-.37,0-.52A1,1,0,0,1,27.82,61.22Z"/><path class="cls-1" d="M30.19,59.85a.28.28,0,0,1,0,.53,1,1,0,0,1-.91,0,.28.28,0,0,1,0-.53A1,1,0,0,1,30.19,59.85Z"/><path class="cls-1" d="M32.56,58.48a.28.28,0,0,1,0,.53,1,1,0,0,1-.91,0,.28.28,0,0,1,0-.53A1,1,0,0,1,32.56,58.48Z"/><ellipse class="cls-1" cx="34.48" cy="57.38" rx="0.64" ry="0.37"/><path class="cls-1" d="M37.3,55.75c.25.14.25.37,0,.52a1,1,0,0,1-.9,0c-.26-.15-.26-.38,0-.52A1,1,0,0,1,37.3,55.75Z"/><path class="cls-1" d="M39.67,54.38a.27.27,0,0,1,0,.52,1,1,0,0,1-.9,0,.27.27,0,0,1,0-.52A1,1,0,0,1,39.67,54.38Z"/><path class="cls-1" d="M42,53a.27.27,0,0,1,0,.52,1,1,0,0,1-.9,0,.27.27,0,0,1,0-.52A1,1,0,0,1,42,53Z"/><path class="cls-1" d="M44.41,51.64c.26.14.26.38,0,.52a1,1,0,0,1-.9,0,.27.27,0,0,1,0-.52A1,1,0,0,1,44.41,51.64Z"/><path class="cls-1" d="M46.79,50.27a.27.27,0,0,1,0,.52,1,1,0,0,1-.91,0,.27.27,0,0,1,0-.52A1,1,0,0,1,46.79,50.27Z"/><path class="cls-1" d="M49.16,48.9c.25.15.25.38,0,.52a1,1,0,0,1-.91,0c-.25-.14-.25-.37,0-.52A1,1,0,0,1,49.16,48.9Z"/><path class="cls-1" d="M51.53,47.53a.28.28,0,0,1,0,.53,1,1,0,0,1-.91,0,.28.28,0,0,1,0-.53A1,1,0,0,1,51.53,47.53Z"/><path class="cls-1" d="M53.9,46.16a.28.28,0,0,1,0,.53,1,1,0,0,1-.91,0,.28.28,0,0,1,0-.53A1,1,0,0,1,53.9,46.16Z"/><path class="cls-1" d="M15,65.32a1,1,0,0,1,.91,0,.28.28,0,0,1,0,.53,1,1,0,0,1-.91,0C14.78,65.69,14.78,65.46,15,65.32Z"/><path class="cls-1" d="M18.31,63.94a.28.28,0,0,1,0,.53,1,1,0,0,1-.9,0,.28.28,0,0,1,0-.53A1,1,0,0,1,18.31,63.94Z"/><path class="cls-1" d="M20.68,62.58c.25.14.25.37,0,.52a1,1,0,0,1-.9,0c-.25-.15-.25-.38,0-.52A1,1,0,0,1,20.68,62.58Z"/><path class="cls-1" d="M23.06,61.21a.27.27,0,0,1,0,.52,1,1,0,0,1-.91,0,.27.27,0,0,1,0-.52A1,1,0,0,1,23.06,61.21Z"/><path class="cls-1" d="M25.43,59.84a.27.27,0,0,1,0,.52,1,1,0,0,1-.91,0,.27.27,0,0,1,0-.52A1,1,0,0,1,25.43,59.84Z"/><ellipse class="cls-1" cx="27.34" cy="58.73" rx="0.64" ry="0.37"/><path class="cls-1" d="M30.17,57.1a.27.27,0,0,1,0,.52,1,1,0,0,1-.91,0,.27.27,0,0,1,0-.52A1,1,0,0,1,30.17,57.1Z"/><path class="cls-1" d="M32.54,55.73c.25.15.25.38,0,.52a1,1,0,0,1-.91,0c-.25-.14-.25-.37,0-.52A1,1,0,0,1,32.54,55.73Z"/><ellipse class="cls-1" cx="34.46" cy="54.62" rx="0.64" ry="0.37"/><path class="cls-1" d="M37.28,53a.28.28,0,0,1,0,.53,1,1,0,0,1-.91,0,.28.28,0,0,1,0-.53A1,1,0,0,1,37.28,53Z"/><ellipse class="cls-1" cx="39.2" cy="51.89" rx="0.64" ry="0.37"/><ellipse class="cls-1" cx="41.57" cy="50.52" rx="0.64" ry="0.37"/><ellipse class="cls-1" cx="43.94" cy="49.15" rx="0.64" ry="0.37"/><path class="cls-1" d="M46.77,47.52a.27.27,0,0,1,0,.52,1,1,0,0,1-.91,0,.27.27,0,0,1,0-.52A1,1,0,0,1,46.77,47.52Z"/><path class="cls-1" d="M49.14,46.15a.27.27,0,0,1,0,.52,1,1,0,0,1-.91,0,.27.27,0,0,1,0-.52A1,1,0,0,1,49.14,46.15Z"/><path class="cls-1" d="M51.51,44.78a.27.27,0,0,1,0,.52,1,1,0,0,1-.91,0,.27.27,0,0,1,0-.52A1,1,0,0,1,51.51,44.78Z"/><path class="cls-1" d="M12.66,64a1,1,0,0,1,.91,0c.25.14.25.37,0,.52a1,1,0,0,1-.91,0A.27.27,0,0,1,12.66,64Z"/><path class="cls-1" d="M15.94,62.58c.25.14.25.37,0,.52a1,1,0,0,1-.9,0c-.25-.15-.25-.38,0-.52A1,1,0,0,1,15.94,62.58Z"/><path class="cls-1" d="M18.31,61.21a.27.27,0,0,1,0,.52,1,1,0,0,1-.9,0,.27.27,0,0,1,0-.52A1,1,0,0,1,18.31,61.21Z"/><path class="cls-1" d="M20.68,59.84a.27.27,0,0,1,0,.52,1,1,0,0,1-.9,0,.27.27,0,0,1,0-.52A1,1,0,0,1,20.68,59.84Z"/><path class="cls-1" d="M23.06,58.47a.27.27,0,0,1,0,.52,1,1,0,0,1-.91,0,.27.27,0,0,1,0-.52A1,1,0,0,1,23.06,58.47Z"/><path class="cls-1" d="M25.43,57.1a.27.27,0,0,1,0,.52,1,1,0,0,1-.91,0,.27.27,0,0,1,0-.52A1,1,0,0,1,25.43,57.1Z"/><path class="cls-1" d="M27.8,55.73c.25.15.25.38,0,.52a1,1,0,0,1-.91,0c-.25-.14-.25-.37,0-.52A1,1,0,0,1,27.8,55.73Z"/><ellipse class="cls-1" cx="29.71" cy="54.62" rx="0.64" ry="0.37"/><path class="cls-1" d="M32.54,53a.28.28,0,0,1,0,.53,1,1,0,0,1-.91,0,.28.28,0,0,1,0-.53A1,1,0,0,1,32.54,53Z"/><ellipse class="cls-1" cx="34.46" cy="51.89" rx="0.64" ry="0.37"/><path class="cls-1" d="M37.28,50.26c.25.14.25.37,0,.52a1,1,0,0,1-.91,0c-.25-.15-.25-.38,0-.52A1,1,0,0,1,37.28,50.26Z"/><path class="cls-1" d="M39.65,48.89a.27.27,0,0,1,0,.52,1,1,0,0,1-.9,0,.27.27,0,0,1,0-.52A1,1,0,0,1,39.65,48.89Z"/><path class="cls-1" d="M42,47.52A.27.27,0,0,1,42,48a1,1,0,0,1-.9,0,.27.27,0,0,1,0-.52A1,1,0,0,1,42,47.52Z"/><ellipse class="cls-1" cx="43.94" cy="46.41" rx="0.64" ry="0.37"/><path class="cls-1" d="M46.77,44.78a.27.27,0,0,1,0,.52,1,1,0,0,1-.91,0,.27.27,0,0,1,0-.52A1,1,0,0,1,46.77,44.78Z"/><path class="cls-1" d="M49.14,43.41c.25.15.25.38,0,.52a1,1,0,0,1-.91,0c-.25-.14-.25-.37,0-.52A1,1,0,0,1,49.14,43.41Z"/><path class="cls-1" d="M11.2,62.58c.25.14.25.37,0,.52a1,1,0,0,1-.91,0C10,63,11,62.43,11.2,62.58Z"/><path class="cls-1" d="M12.66,61.21a1,1,0,0,1,.91,0,.27.27,0,0,1,0,.52,1,1,0,0,1-.91,0,.27.27,0,0,1,0-.52Z"/><path class="cls-1" d="M15.94,59.84a.27.27,0,0,1,0,.52,1,1,0,0,1-.9,0,.27.27,0,0,1,0-.52A1,1,0,0,1,15.94,59.84Z"/><path class="cls-1" d="M18.31,58.47a.27.27,0,0,1,0,.52,1,1,0,0,1-.9,0,.27.27,0,0,1,0-.52A1,1,0,0,1,18.31,58.47Z"/><path class="cls-1" d="M20.68,57.1a.27.27,0,0,1,0,.52,1,1,0,0,1-.9,0,.27.27,0,0,1,0-.52A1,1,0,0,1,20.68,57.1Z"/><path class="cls-1" d="M23.06,55.73c.25.15.25.38,0,.52a1,1,0,0,1-.91,0c-.25-.14-.25-.37,0-.52A1,1,0,0,1,23.06,55.73Z"/><ellipse class="cls-1" cx="24.97" cy="54.62" rx="0.64" ry="0.37"/><path class="cls-1" d="M27.8,53a.28.28,0,0,1,0,.53,1,1,0,0,1-.91,0,.28.28,0,0,1,0-.53A1,1,0,0,1,27.8,53Z"/><ellipse class="cls-1" cx="29.72" cy="51.89" rx="0.64" ry="0.37"/><ellipse class="cls-1" cx="32.09" cy="50.52" rx="0.64" ry="0.37"/><path class="cls-1" d="M34.91,48.89a.27.27,0,0,1,0,.52,1,1,0,0,1-.91,0,.27.27,0,0,1,0-.52A1,1,0,0,1,34.91,48.89Z"/><path class="cls-1" d="M37.28,47.52a.27.27,0,0,1,0,.52,1,1,0,0,1-.91,0,.27.27,0,0,1,0-.52A1,1,0,0,1,37.28,47.52Z"/><ellipse class="cls-1" cx="39.2" cy="46.41" rx="0.64" ry="0.37"/><ellipse class="cls-1" cx="41.57" cy="45.04" rx="0.64" ry="0.37"/><path class="cls-1" d="M44.39,43.41c.25.15.25.38,0,.52a1,1,0,0,1-.9,0c-.25-.14-.25-.37,0-.52A1,1,0,0,1,44.39,43.41Z"/><path class="cls-1" d="M46.77,42a.28.28,0,0,1,0,.53,1,1,0,0,1-.91,0,.28.28,0,0,1,0-.53A1,1,0,0,1,46.77,42Z"/><path class="cls-1" d="M37.28,44.78a.27.27,0,0,1,0,.52,1,1,0,0,1-.91,0C36.12,45.16,37,44.64,37.28,44.78Z"/><ellipse class="cls-1" cx="39.2" cy="43.67" rx="0.64" ry="0.37"/><path class="cls-1" d="M41.12,42a1,1,0,0,1,.9,0,.28.28,0,0,1,0,.53,1,1,0,0,1-.9,0,.28.28,0,0,1,0-.53Z"/><path class="cls-1" d="M44.39,40.67a.28.28,0,0,1,0,.53,1,1,0,0,1-.9,0,.28.28,0,0,1,0-.53A1,1,0,0,1,44.39,40.67Z"/><path class="cls-1" d="M58.64,46.16c.25.14.25.37,0,.52a1,1,0,0,1-.91,0c-.25-.15-.25-.38,0-.52A1,1,0,0,1,58.64,46.16Z"/><ellipse class="cls-1" cx="60.56" cy="45.05" rx="0.64" ry="0.37"/><path class="cls-1" d="M63.38,43.42a.27.27,0,0,1,0,.52,1,1,0,0,1-.91,0,.27.27,0,0,1,0-.52A1,1,0,0,1,63.38,43.42Z"/><path class="cls-1" d="M56.27,44.79a.27.27,0,0,1,0,.52,1,1,0,0,1-.91,0,.27.27,0,0,1,0-.52A1,1,0,0,1,56.27,44.79Z"/><path class="cls-1" d="M58.64,43.42a.27.27,0,0,1,0,.52,1,1,0,0,1-.91,0,.27.27,0,0,1,0-.52A1,1,0,0,1,58.64,43.42Z"/><ellipse class="cls-1" cx="60.56" cy="42.31" rx="0.64" ry="0.37"/><ellipse class="cls-1" cx="62.93" cy="40.94" rx="0.64" ry="0.37"/><path class="cls-1" d="M53.88,43.4a.28.28,0,0,1,0,.53,1,1,0,0,1-.91,0,.28.28,0,0,1,0-.53A1,1,0,0,1,53.88,43.4Z"/><path class="cls-1" d="M56.25,42a.28.28,0,0,1,0,.53,1,1,0,0,1-.91,0,.28.28,0,0,1,0-.53A1,1,0,0,1,56.25,42Z"/><ellipse class="cls-1" cx="58.17" cy="40.93" rx="0.64" ry="0.37"/><ellipse class="cls-1" cx="60.54" cy="39.56" rx="0.64" ry="0.37"/><path class="cls-1" d="M51.51,42a.28.28,0,0,1,0,.53,1,1,0,0,1-.91,0,.28.28,0,0,1,0-.53A1,1,0,0,1,51.51,42Z"/><path class="cls-1" d="M53.88,40.67c.25.14.25.37,0,.52a1,1,0,0,1-.91,0c-.25-.15-.25-.38,0-.52A1,1,0,0,1,53.88,40.67Z"/><path class="cls-1" d="M56.25,39.3a.27.27,0,0,1,0,.52,1,1,0,0,1-.91,0,.27.27,0,0,1,0-.52A1,1,0,0,1,56.25,39.3Z"/><ellipse class="cls-1" cx="58.17" cy="38.19" rx="0.64" ry="0.37"/><path class="cls-1" d="M49.13,40.67c.26.14.26.37,0,.52a1,1,0,0,1-.9,0c-.25-.15-.25-.38,0-.52A1,1,0,0,1,49.13,40.67Z"/><ellipse class="cls-1" cx="51.05" cy="39.56" rx="0.64" ry="0.37"/><path class="cls-1" d="M53.88,37.93a.27.27,0,0,1,0,.52,1,1,0,0,1-.91,0,.27.27,0,0,1,0-.52A1,1,0,0,1,53.88,37.93Z"/><path class="cls-1" d="M46.76,39.3a.27.27,0,0,1,0,.52,1,1,0,0,1-.9,0,.27.27,0,0,1,0-.52A1,1,0,0,1,46.76,39.3Z"/><path class="cls-1" d="M49.13,37.93c.26.14.26.38,0,.52a1,1,0,0,1-.9,0,.27.27,0,0,1,0-.52A1,1,0,0,1,49.13,37.93Z"/><polygon class="cls-2" points="59.73 3.41 59.73 38.81 5.71 69 10.7 56.87 16.54 56.94 29.65 28.54 36.91 36.18 43.51 25.22 48.06 29.42 59.73 3.41"/><polygon class="cls-2" points="5.71 69 0.49 66.13 5.49 54 10.7 56.87 5.71 69"/><polygon class="cls-3" points="5.21 69.17 1.62 67.08 6.62 54.95 11.83 57.82 7.59 68.12 5.21 69.17"/><polygon class="cls-2" points="11.33 54.07 16.54 56.94 10.7 56.87 5.49 54 11.33 54.07"/><polygon class="cls-3" points="12.56 55 17.89 57.91 11.83 57.82 6.73 54.95 12.56 55"/><polygon class="cls-2" points="24.44 25.67 29.65 28.54 16.54 56.94 11.33 54.07 24.44 25.67"/><polygon class="cls-3" points="25.79 26.64 31 29.51 17.89 57.91 12.67 55.04 25.79 26.64"/><polygon class="cls-2" points="38.3 22.35 43.51 25.22 36.91 36.18 32.55 31.59 38.3 22.35"/><polygon class="cls-3" points="39.43 23.33 44.64 26.2 38.05 37.16 33.68 32.57 39.43 23.33"/><polygon class="cls-2" points="54.51 0.54 59.73 3.41 48.06 29.42 43.51 25.22 54.51 0.54"/><polygon class="cls-3" points="55.64 1.51 59.73 3.76 59.73 6.84 49.19 30.39 44.64 26.19 55.64 1.51"/><path class="cls-1" d="M60.12,3.49h0v-.3l-.58-.32h0L54.32,0l-11,24.68-5.16-2.85L32.49,31l-2.37-2.49h0l-.22-.23L29.47,28h0l-5.21-2.87L11.07,53.68,5.6,53.62H5.22L5,54.16H5L0,66.3l5.22,2.87h0l.49.27L6,69.26H6L60.12,39ZM54.7,1.08l4.52,2.49-11.3,25.2L44,25.15l0-.07,0,0ZM33,31.54l5.4-8.67L43,25.36,36.84,35.54Zm-8.42-5.33,4.53,2.49L24,40,16.36,56.4l-1.71-.94-2.82-1.55ZM7,54.4l4.21.05,2.21,1.22,1.59.87-2,0-2.18,0-3.1-1.71Zm-1.32.14,1.15.64L10.21,57,5.51,68.45,1,66Zm.8,13.58L11,57.25l5.47.07h.36l.25-.54h0l7.41-16.05,5.31-11.51,2.29,2.42h0L37,36.82l6.61-11,4.6,4.25L59.33,5.25V38.59Z"/></g></g></g></svg>