<svg xmlns="http://www.w3.org/2000/svg" viewBox="0 0 62.05 57.47"><defs><style>.cls-1{fill:#16110d;}.cls-2{fill:#ffbe2e;}.cls-3{fill:#fec;}.cls-4{fill:#febd2e;}</style></defs><g id="Layer_2" data-name="Layer 2"><g id="content"><g id="_3" data-name="3"><path class="cls-1" d="M29.24,56.85a.27.27,0,0,1,0,.51,1,1,0,0,1-.88,0,.27.27,0,0,1,0-.51A1,1,0,0,1,29.24,56.85Z"/><path class="cls-1" d="M27,55.54c.25.14.25.36,0,.5a1,1,0,0,1-.87,0,.26.26,0,0,1,0-.5A1,1,0,0,1,27,55.54Z"/><path class="cls-1" d="M24.67,54.22a.26.26,0,0,1,0,.5,1,1,0,0,1-.87,0,.26.26,0,0,1,0-.5A1,1,0,0,1,24.67,54.22Z"/><path class="cls-1" d="M22.37,52.89a.26.26,0,0,1,0,.5,1,1,0,0,1-.87,0,.26.26,0,0,1,0-.5A1,1,0,0,1,22.37,52.89Z"/><path class="cls-1" d="M20.09,51.57c.24.14.24.37,0,.5a1,1,0,0,1-.87,0c-.24-.13-.24-.36,0-.5A1,1,0,0,1,20.09,51.57Z"/><path class="cls-1" d="M17.81,50.25a.27.27,0,0,1,0,.51,1,1,0,0,1-.87,0,.27.27,0,0,1,0-.51A1,1,0,0,1,17.81,50.25Z"/><path class="cls-1" d="M15.53,48.94a.26.26,0,0,1,0,.5,1,1,0,0,1-.88,0,.26.26,0,0,1,0-.5A1,1,0,0,1,15.53,48.94Z"/><path class="cls-1" d="M13.25,47.62a.26.26,0,0,1,0,.5,1,1,0,0,1-.88,0,.26.26,0,0,1,0-.5A1,1,0,0,1,13.25,47.62Z"/><path class="cls-1" d="M11,46.3c.25.14.25.37,0,.51a1,1,0,0,1-.87,0,.27.27,0,0,1,0-.51A1,1,0,0,1,11,46.3Z"/><path class="cls-1" d="M32.94,56.87a1,1,0,0,1,.88,0c.24.13.24.36,0,.5a1,1,0,0,1-.88,0A.26.26,0,0,1,32.94,56.87Z"/><path class="cls-1" d="M36.1,56.05a1,1,0,0,1-.87,0,.26.26,0,0,1,0-.5,1,1,0,0,1,.87,0,.26.26,0,0,1,0,.5Z"/><path class="cls-1" d="M38.38,54.23a.26.26,0,0,1,0,.5,1,1,0,0,1-.87,0,.26.26,0,0,1,0-.5A1,1,0,0,1,38.38,54.23Z"/><path class="cls-1" d="M40.66,52.91a.27.27,0,0,1,0,.51,1,1,0,0,1-.87,0,.27.27,0,0,1,0-.51A1,1,0,0,1,40.66,52.91Z"/><ellipse class="cls-1" cx="42.51" cy="51.85" rx="0.62" ry="0.36"/><path class="cls-1" d="M45.23,50.28a.26.26,0,0,1,0,.5,1,1,0,0,1-.88,0,.26.26,0,0,1,0-.5A1,1,0,0,1,45.23,50.28Z"/><path class="cls-1" d="M47.51,49c.24.14.24.37,0,.5a1,1,0,0,1-.88,0c-.24-.13-.24-.36,0-.5A1,1,0,0,1,47.51,49Z"/><path class="cls-1" d="M49.79,47.64a.27.27,0,0,1,0,.51,1,1,0,0,1-.87,0,.27.27,0,0,1,0-.51A1,1,0,0,1,49.79,47.64Z"/><path class="cls-1" d="M52.07,46.33a.26.26,0,0,1,0,.5,1,1,0,0,1-.87,0,.26.26,0,0,1,0-.5A1,1,0,0,1,52.07,46.33Z"/><path class="cls-1" d="M30.66,55.55a1,1,0,0,1,.87,0c.25.14.25.36,0,.5a1,1,0,0,1-.88,0A.26.26,0,0,1,30.66,55.55Z"/><path class="cls-1" d="M33.82,54.23a.26.26,0,0,1,0,.5,1,1,0,0,1-.87,0c-.25-.14-.25-.36,0-.5A1,1,0,0,1,33.82,54.23Z"/><path class="cls-1" d="M36.1,52.91a.27.27,0,0,1,0,.51,1,1,0,0,1-.87,0,.27.27,0,0,1,0-.51A1,1,0,0,1,36.1,52.91Z"/><path class="cls-1" d="M38.38,51.6c.24.13.24.36,0,.5a1,1,0,0,1-.87,0c-.24-.14-.24-.37,0-.5A1,1,0,0,1,38.38,51.6Z"/><path class="cls-1" d="M40.66,50.28a.26.26,0,0,1,0,.5,1,1,0,0,1-.87,0,.26.26,0,0,1,0-.5A1,1,0,0,1,40.66,50.28Z"/><path class="cls-1" d="M42.94,49c.25.14.25.37,0,.5a1,1,0,0,1-.87,0c-.24-.13-.24-.36,0-.5A1,1,0,0,1,42.94,49Z"/><path class="cls-1" d="M45.23,47.64a.27.27,0,0,1,0,.51,1,1,0,0,1-.88,0,.27.27,0,0,1,0-.51A1,1,0,0,1,45.23,47.64Z"/><path class="cls-1" d="M47.51,46.33a.26.26,0,0,1,0,.5,1,1,0,0,1-.88,0,.26.26,0,0,1,0-.5A1,1,0,0,1,47.51,46.33Z"/><path class="cls-1" d="M49.79,45a.26.26,0,0,1,0,.5,1,1,0,0,1-.87,0,.26.26,0,0,1,0-.5A1,1,0,0,1,49.79,45Z"/><path class="cls-1" d="M52.07,43.69a.27.27,0,0,1,0,.51,1,1,0,0,1-.87,0,.27.27,0,0,1,0-.51A1,1,0,0,1,52.07,43.69Z"/><path class="cls-1" d="M28.38,54.23a1,1,0,0,1,.87,0c.24.14.24.37,0,.5a1,1,0,0,1-.87,0A.27.27,0,0,1,28.38,54.23Z"/><path class="cls-1" d="M31.54,52.91a.27.27,0,0,1,0,.51,1,1,0,0,1-.88,0,.27.27,0,0,1,0-.51A1,1,0,0,1,31.54,52.91Z"/><path class="cls-1" d="M33.82,51.6c.24.13.24.36,0,.5a1,1,0,0,1-.87,0c-.25-.14-.25-.37,0-.5A1,1,0,0,1,33.82,51.6Z"/><path class="cls-1" d="M36.1,50.28a.26.26,0,0,1,0,.5,1,1,0,0,1-.87,0,.26.26,0,0,1,0-.5A1,1,0,0,1,36.1,50.28Z"/><path class="cls-1" d="M38.38,49c.24.14.24.37,0,.5a1,1,0,0,1-.87,0c-.24-.13-.24-.36,0-.5A1,1,0,0,1,38.38,49Z"/><path class="cls-1" d="M40.66,47.64a.27.27,0,0,1,0,.51,1,1,0,0,1-.87,0,.27.27,0,0,1,0-.51A1,1,0,0,1,40.66,47.64Z"/><ellipse class="cls-1" cx="42.51" cy="46.58" rx="0.62" ry="0.36"/><path class="cls-1" d="M45.23,45a.26.26,0,0,1,0,.5,1,1,0,0,1-.88,0,.26.26,0,0,1,0-.5A1,1,0,0,1,45.23,45Z"/><path class="cls-1" d="M47.51,43.69a.27.27,0,0,1,0,.51,1,1,0,0,1-.88,0,.27.27,0,0,1,0-.51A1,1,0,0,1,47.51,43.69Z"/><path class="cls-1" d="M49.79,42.37a.27.27,0,0,1,0,.51,1,1,0,0,1-.87,0,.27.27,0,0,1,0-.51A1,1,0,0,1,49.79,42.37Z"/><path class="cls-1" d="M26.1,52.91a1,1,0,0,1,.87,0,.27.27,0,0,1,0,.51,1,1,0,0,1-.87,0A.27.27,0,0,1,26.1,52.91Z"/><path class="cls-1" d="M29.26,51.6c.24.13.24.36,0,.5a1,1,0,0,1-.88,0c-.24-.14-.24-.37,0-.5A1,1,0,0,1,29.26,51.6Z"/><path class="cls-1" d="M23.8,51.58a1,1,0,0,1,.87,0,.27.27,0,0,1,0,.51,1,1,0,0,1-.87,0A.27.27,0,0,1,23.8,51.58Z"/><ellipse class="cls-1" cx="26.52" cy="50.52" rx="0.62" ry="0.36"/><path class="cls-1" d="M21.51,50.27a1,1,0,0,1,.88,0c.24.13.24.36,0,.5a1,1,0,0,1-.87,0C21.28,50.63,21.27,50.41,21.51,50.27Z"/><path class="cls-1" d="M24.67,49a.26.26,0,0,1,0,.5,1,1,0,0,1-.87,0,.26.26,0,0,1,0-.5A1,1,0,0,1,24.67,49Z"/><path class="cls-1" d="M19.23,49a1,1,0,0,1,.88,0,.26.26,0,0,1,0,.5,1,1,0,0,1-.87,0C19,49.31,19,49.09,19.23,49Z"/><path class="cls-1" d="M22.39,47.63a.26.26,0,0,1,0,.5,1,1,0,0,1-.87,0,.26.26,0,0,1,0-.5A1,1,0,0,1,22.39,47.63Z"/><path class="cls-1" d="M17,47.63a1,1,0,0,1,.87,0c.25.14.25.37,0,.5a1,1,0,0,1-.88,0A.27.27,0,0,1,17,47.63Z"/><path class="cls-1" d="M20.11,46.31a.27.27,0,0,1,0,.51,1,1,0,0,1-.87,0,.27.27,0,0,1,0-.51A1,1,0,0,1,20.11,46.31Z"/><path class="cls-1" d="M14.67,46.31a1,1,0,0,1,.87,0c.24.14.25.37,0,.51a1,1,0,0,1-.87,0A.27.27,0,0,1,14.67,46.31Z"/><path class="cls-1" d="M17.83,45c.24.13.24.36,0,.5a1,1,0,0,1-.88,0c-.24-.14-.24-.37,0-.5A1,1,0,0,1,17.83,45Z"/><path class="cls-1" d="M12.39,45a1,1,0,0,1,.87,0,.26.26,0,0,1,0,.5,1,1,0,0,1-.87,0A.26.26,0,0,1,12.39,45Z"/><ellipse class="cls-1" cx="15.11" cy="43.93" rx="0.62" ry="0.36"/><path class="cls-1" d="M10.11,43.68a1,1,0,0,1,.87,0,.26.26,0,0,1,0,.5,1,1,0,0,1-.87,0A.26.26,0,0,1,10.11,43.68Z"/><path class="cls-1" d="M13.26,42.36c.25.14.25.37,0,.5a1,1,0,0,1-.87,0c-.24-.13-.24-.36,0-.5A1,1,0,0,1,13.26,42.36Z"/><polygon class="cls-2" points="12.76 21.67 5.53 10.66 23.7 0.16 30.94 11.17 12.76 21.67"/><polygon class="cls-3" points="12.38 23.77 5.15 12.76 23.32 2.26 30.56 13.27 12.38 23.77"/><path class="cls-1" d="M12.72,21.83,5.36,10.62,23.74,0l7.37,11.21ZM5.7,10.7l7.09,10.8,18-10.37L23.67.33Z"/><polygon class="cls-2" points="49.21 21.73 56.43 10.72 38.26 0.23 31.02 11.23 49.21 21.73"/><polygon class="cls-3" points="49.56 23.77 56.79 12.76 38.62 2.26 31.38 13.27 49.56 23.77"/><path class="cls-1" d="M49.25,21.89,30.85,11.27,38.22.06,56.61,10.68l-.07.11Zm-18-10.7,18,10.38,7.09-10.81L38.3.39Z"/><polygon class="cls-2" points="12.85 21.73 12.85 41.16 31.03 51.66 31.03 32.23 12.85 21.73"/><path class="cls-1" d="M31,32.09,12.72,21.52V41.23L31,51.8,49.27,41.27l.06,0V21.52ZM13,41.09V21.94L30.91,32.3V51.45Z"/><polygon class="cls-2" points="49.21 21.73 31.03 32.23 12.85 21.73 31.03 11.23 49.21 21.73"/><path class="cls-1" d="M31,32.37,12.6,21.73,31,11.09l.06,0L49.46,21.73ZM13.1,21.73,31,32.08,49,21.73,31,11.38Z"/><path class="cls-2" d="M34.91,46.79V43.35l-1.71,1,3-6.66,3,3.15-1.62.93v3.45Zm.32-4v3.44L37.34,45V41.58l1.43-.82-2.44-2.53L33.9,43.57Z"/><polygon class="cls-1" points="31.02 11.23 12.6 21.73 30.97 32.33 31.16 32.23 31.02 32.35 31.02 11.23"/><polygon class="cls-2" points="31.02 32.23 18.98 32.63 0.44 22.11 12.84 21.73 31.02 32.23"/><polygon class="cls-3" points="30.91 33.88 18.86 34.28 0.32 23.77 12.72 23.38 30.91 33.88"/><path class="cls-1" d="M19,32.75l0,0L0,22l12.87-.4h0L31.46,32.33ZM.88,22.22,19,32.5l11.58-.38L12.81,21.85Z"/><polygon class="cls-2" points="46.32 42.97 46 43.15 46 32.55 46.32 32.37 46.32 42.97"/><polygon class="cls-2" points="31.03 32.23 43.08 32.63 61.61 22.11 49.21 21.73 31.03 32.23"/><polygon class="cls-3" points="30.91 33.88 42.95 34.28 61.49 23.77 49.09 23.38 30.91 33.88"/><path class="cls-1" d="M43.11,32.75h0L30.6,32.33,49.18,21.61h0l12.84.4Zm-11.65-.63,11.59.38L61.17,22.22l-11.93-.37Z"/><polygon class="cls-4" points="21.32 26.7 30.93 21.28 40.25 26.75 30.93 32.25 21.32 26.7"/><polygon class="cls-3" points="22.64 27.44 31.39 22.5 39.4 27.17 30.93 32.17 22.64 27.44"/><path class="cls-1" d="M30.93,32.41l-.07,0-9.68-5.75,9.75-5.5.07,0,9.52,5.6ZM21.61,26.7l9.32,5.38,9-5.32-9-5.32Z"/></g></g></g></svg>