<svg xmlns="http://www.w3.org/2000/svg" viewBox="0 0 129.5 158.63"><defs><style>.cls-1{fill:#16110d;}.cls-2{fill:#ffbe2e;}.cls-3{fill:#fec;}.cls-4{fill:#febd33;}</style></defs><g id="Layer_2" data-name="Layer 2"><g id="content"><path class="cls-1" d="M75.67,157.66a.42.42,0,0,1,0,.8,1.49,1.49,0,0,1-1.39,0,.42.42,0,0,1,0-.8A1.55,1.55,0,0,1,75.67,157.66Z"/><path class="cls-1" d="M79.31,155.56a.42.42,0,0,1,0,.8,1.55,1.55,0,0,1-1.39,0,.42.42,0,0,1,0-.8A1.49,1.49,0,0,1,79.31,155.56Z"/><path class="cls-1" d="M83,153.45a.43.43,0,0,1,0,.81,1.57,1.57,0,0,1-1.4,0,.43.43,0,0,1,0-.81A1.57,1.57,0,0,1,83,153.45Z"/><path class="cls-1" d="M86.6,151.35a.43.43,0,0,1,0,.81,1.57,1.57,0,0,1-1.4,0,.43.43,0,0,1,0-.81A1.57,1.57,0,0,1,86.6,151.35Z"/><path class="cls-1" d="M90.24,149.25a.42.42,0,0,1,0,.8,1.49,1.49,0,0,1-1.39,0,.42.42,0,0,1,0-.8A1.55,1.55,0,0,1,90.24,149.25Z"/><path class="cls-1" d="M68.39,157.66a.42.42,0,0,1,0,.8,1.49,1.49,0,0,1-1.39,0,.42.42,0,0,1,0-.8A1.55,1.55,0,0,1,68.39,157.66Z"/><path class="cls-1" d="M72,155.56a.42.42,0,0,1,0,.8,1.55,1.55,0,0,1-1.39,0,.42.42,0,0,1,0-.8A1.49,1.49,0,0,1,72,155.56Z"/><path class="cls-1" d="M75.67,153.45c.39.23.39.59,0,.81a1.55,1.55,0,0,1-1.39,0,.43.43,0,0,1,0-.81A1.55,1.55,0,0,1,75.67,153.45Z"/><path class="cls-1" d="M79.31,151.35c.39.22.39.58,0,.81a1.55,1.55,0,0,1-1.39,0,.43.43,0,0,1,0-.81A1.55,1.55,0,0,1,79.31,151.35Z"/><ellipse class="cls-1" cx="82.26" cy="149.65" rx="0.98" ry="0.57"/><path class="cls-1" d="M86.6,147.15a.42.42,0,0,1,0,.8,1.57,1.57,0,0,1-1.4,0,.42.42,0,0,1,0-.8A1.57,1.57,0,0,1,86.6,147.15Z"/><path class="cls-1" d="M90.24,145a.43.43,0,0,1,0,.81,1.55,1.55,0,0,1-1.39,0c-.39-.22-.39-.58,0-.81A1.55,1.55,0,0,1,90.24,145Z"/><path class="cls-1" d="M64.75,155.56a.42.42,0,0,1,0,.8,1.55,1.55,0,0,1-1.39,0,.42.42,0,0,1,0-.8A1.49,1.49,0,0,1,64.75,155.56Z"/><ellipse class="cls-1" cx="67.69" cy="153.86" rx="0.98" ry="0.57"/><path class="cls-1" d="M61.11,153.45a.43.43,0,0,1,0,.81,1.57,1.57,0,0,1-1.4,0,.43.43,0,0,1,0-.81A1.57,1.57,0,0,1,61.11,153.45Z"/><path class="cls-1" d="M64.75,151.35a.43.43,0,0,1,0,.81,1.55,1.55,0,0,1-1.39,0c-.39-.23-.39-.59,0-.81A1.55,1.55,0,0,1,64.75,151.35Z"/><path class="cls-1" d="M57.47,151.35a.43.43,0,0,1,0,.81,1.57,1.57,0,0,1-1.4,0,.43.43,0,0,1,0-.81A1.57,1.57,0,0,1,57.47,151.35Z"/><path class="cls-1" d="M61.11,149.25a.42.42,0,0,1,0,.8,1.51,1.51,0,0,1-1.4,0,.42.42,0,0,1,0-.8A1.57,1.57,0,0,1,61.11,149.25Z"/><path class="cls-1" d="M53.82,149.25a.42.42,0,0,1,0,.8,1.49,1.49,0,0,1-1.39,0,.42.42,0,0,1,0-.8A1.55,1.55,0,0,1,53.82,149.25Z"/><path class="cls-1" d="M57.47,147.15a.42.42,0,0,1,0,.8,1.57,1.57,0,0,1-1.4,0,.42.42,0,0,1,0-.8A1.57,1.57,0,0,1,57.47,147.15Z"/><path class="cls-1" d="M50.15,147.13a.42.42,0,0,1,0,.8,1.55,1.55,0,0,1-1.39,0,.42.42,0,0,1,0-.8A1.49,1.49,0,0,1,50.15,147.13Z"/><path class="cls-1" d="M53.79,145c.39.22.39.58,0,.81a1.55,1.55,0,0,1-1.39,0,.43.43,0,0,1,0-.81A1.55,1.55,0,0,1,53.79,145Z"/><path class="cls-1" d="M46.51,145a.43.43,0,0,1,0,.81,1.55,1.55,0,0,1-1.39,0c-.39-.23-.39-.59,0-.81A1.55,1.55,0,0,1,46.51,145Z"/><path class="cls-1" d="M50.15,142.92a.42.42,0,0,1,0,.8,1.49,1.49,0,0,1-1.39,0,.42.42,0,0,1,0-.8A1.55,1.55,0,0,1,50.15,142.92Z"/><path class="cls-1" d="M46.51,140.82a.42.42,0,0,1,0,.8,1.55,1.55,0,0,1-1.39,0,.42.42,0,0,1,0-.8A1.55,1.55,0,0,1,46.51,140.82Z"/><path class="cls-1" d="M81.86,126.15a.42.42,0,0,1,0,.8,1.55,1.55,0,0,1-1.39,0,.42.42,0,0,1,0-.8A1.55,1.55,0,0,1,81.86,126.15Z"/><path class="cls-1" d="M69.55,129.05a.42.42,0,0,1,0-.8,1.55,1.55,0,0,1,1.39,0,.42.42,0,0,1,0,.8A1.49,1.49,0,0,1,69.55,129.05Z"/><path class="cls-1" d="M74.58,126.15a.42.42,0,0,1,0,.8,1.55,1.55,0,0,1-1.39,0,.42.42,0,0,1,0-.8A1.55,1.55,0,0,1,74.58,126.15Z"/><ellipse class="cls-1" cx="77.52" cy="124.45" rx="0.98" ry="0.57"/><path class="cls-1" d="M62.26,129.05a.42.42,0,0,1,0-.8,1.57,1.57,0,0,1,1.4,0,.42.42,0,0,1,0,.8A1.51,1.51,0,0,1,62.26,129.05Z"/><path class="cls-1" d="M67.3,126.15a.42.42,0,0,1,0,.8,1.57,1.57,0,0,1-1.4,0,.42.42,0,0,1,0-.8A1.57,1.57,0,0,1,67.3,126.15Z"/><ellipse class="cls-1" cx="70.24" cy="124.45" rx="0.98" ry="0.57"/><ellipse class="cls-1" cx="73.88" cy="122.34" rx="0.98" ry="0.57"/><path class="cls-1" d="M60,126.13a.42.42,0,0,1,0,.8,1.55,1.55,0,0,1-1.39,0,.42.42,0,0,1,0-.8A1.49,1.49,0,0,1,60,126.13Z"/><path class="cls-1" d="M63.62,124c.39.23.39.59,0,.81a1.55,1.55,0,0,1-1.39,0,.43.43,0,0,1,0-.81A1.55,1.55,0,0,1,63.62,124Z"/><ellipse class="cls-1" cx="66.57" cy="122.32" rx="0.98" ry="0.57"/><path class="cls-1" d="M70.91,119.82a.42.42,0,0,1,0,.8,1.57,1.57,0,0,1-1.4,0,.42.42,0,0,1,0-.8A1.57,1.57,0,0,1,70.91,119.82Z"/><path class="cls-1" d="M55,124a1.55,1.55,0,0,1,1.39,0c.39.23.39.59,0,.81a1.55,1.55,0,0,1-1.39,0C54.56,124.61,54.56,124.25,55,124Z"/><path class="cls-1" d="M60,121.92a.42.42,0,0,1,0,.8,1.49,1.49,0,0,1-1.39,0,.42.42,0,0,1,0-.8A1.55,1.55,0,0,1,60,121.92Z"/><path class="cls-1" d="M63.62,119.82a.42.42,0,0,1,0,.8,1.55,1.55,0,0,1-1.39,0,.42.42,0,0,1,0-.8A1.55,1.55,0,0,1,63.62,119.82Z"/><path class="cls-1" d="M67.27,117.72a.42.42,0,0,1,0,.8,1.57,1.57,0,0,1-1.4,0,.42.42,0,0,1,0-.8A1.51,1.51,0,0,1,67.27,117.72Z"/><path class="cls-1" d="M47.67,124a1.55,1.55,0,0,1,1.39,0,.43.43,0,0,1,0,.81C48.67,125.05,47.28,124.25,47.67,124Z"/><path class="cls-1" d="M52.7,121.92a.42.42,0,0,1,0,.8,1.49,1.49,0,0,1-1.39,0,.42.42,0,0,1,0-.8A1.55,1.55,0,0,1,52.7,121.92Z"/><path class="cls-1" d="M56.34,119.82a.42.42,0,0,1,0,.8,1.55,1.55,0,0,1-1.39,0,.42.42,0,0,1,0-.8A1.55,1.55,0,0,1,56.34,119.82Z"/><path class="cls-1" d="M60,117.72a.42.42,0,0,1,0,.8,1.55,1.55,0,0,1-1.39,0,.42.42,0,0,1,0-.8A1.49,1.49,0,0,1,60,117.72Z"/><path class="cls-1" d="M63.62,115.61c.39.23.39.59,0,.81a1.55,1.55,0,0,1-1.39,0,.43.43,0,0,1,0-.81A1.55,1.55,0,0,1,63.62,115.61Z"/><path class="cls-1" d="M49.06,119.82a.42.42,0,0,1,0,.8,1.55,1.55,0,0,1-1.39,0,.42.42,0,0,1,0-.8A1.55,1.55,0,0,1,49.06,119.82Z"/><path class="cls-1" d="M52.7,117.72a.42.42,0,0,1,0,.8,1.55,1.55,0,0,1-1.39,0,.42.42,0,0,1,0-.8A1.49,1.49,0,0,1,52.7,117.72Z"/><path class="cls-1" d="M56.34,115.61c.39.23.39.59,0,.81a1.55,1.55,0,0,1-1.39,0c-.39-.22-.39-.58,0-.81A1.55,1.55,0,0,1,56.34,115.61Z"/><path class="cls-1" d="M60,113.51c.39.22.39.58,0,.81a1.55,1.55,0,0,1-1.39,0,.43.43,0,0,1,0-.81A1.55,1.55,0,0,1,60,113.51Z"/><path class="cls-1" d="M45.42,117.72a.42.42,0,0,1,0,.8,1.57,1.57,0,0,1-1.4,0,.42.42,0,0,1,0-.8A1.51,1.51,0,0,1,45.42,117.72Z"/><path class="cls-1" d="M49.06,115.61a.43.43,0,0,1,0,.81,1.55,1.55,0,0,1-1.39,0c-.39-.22-.39-.58,0-.81A1.55,1.55,0,0,1,49.06,115.61Z"/><path class="cls-1" d="M52.7,113.51a.43.43,0,0,1,0,.81,1.55,1.55,0,0,1-1.39,0c-.39-.23-.39-.59,0-.81A1.55,1.55,0,0,1,52.7,113.51Z"/><path class="cls-1" d="M56.34,111.41a.42.42,0,0,1,0,.8,1.55,1.55,0,0,1-1.39,0,.42.42,0,0,1,0-.8A1.55,1.55,0,0,1,56.34,111.41Z"/><path class="cls-1" d="M41.78,115.61a.43.43,0,0,1,0,.81,1.57,1.57,0,0,1-1.4,0,.43.43,0,0,1,0-.81A1.57,1.57,0,0,1,41.78,115.61Z"/><path class="cls-1" d="M45.42,113.51a.43.43,0,0,1,0,.81,1.57,1.57,0,0,1-1.4,0,.43.43,0,0,1,0-.81A1.57,1.57,0,0,1,45.42,113.51Z"/><path class="cls-1" d="M49.06,111.41a.42.42,0,0,1,0,.8,1.55,1.55,0,0,1-1.39,0,.42.42,0,0,1,0-.8A1.55,1.55,0,0,1,49.06,111.41Z"/><path class="cls-1" d="M52.7,109.31a.42.42,0,0,1,0,.8,1.55,1.55,0,0,1-1.39,0,.42.42,0,0,1,0-.8A1.49,1.49,0,0,1,52.7,109.31Z"/><path class="cls-1" d="M38.13,113.51c.39.22.39.58,0,.81a1.55,1.55,0,0,1-1.39,0,.43.43,0,0,1,0-.81A1.55,1.55,0,0,1,38.13,113.51Z"/><path class="cls-1" d="M41.78,111.41a.42.42,0,0,1,0,.8,1.57,1.57,0,0,1-1.4,0,.42.42,0,0,1,0-.8A1.57,1.57,0,0,1,41.78,111.41Z"/><path class="cls-1" d="M45.42,109.31a.42.42,0,0,1,0,.8,1.57,1.57,0,0,1-1.4,0,.42.42,0,0,1,0-.8A1.51,1.51,0,0,1,45.42,109.31Z"/><path class="cls-1" d="M49.06,107.2a.43.43,0,0,1,0,.81,1.55,1.55,0,0,1-1.39,0c-.39-.22-.39-.58,0-.81A1.55,1.55,0,0,1,49.06,107.2Z"/><path class="cls-1" d="M34.49,111.41a.42.42,0,0,1,0,.8,1.55,1.55,0,0,1-1.39,0,.42.42,0,0,1,0-.8A1.55,1.55,0,0,1,34.49,111.41Z"/><path class="cls-1" d="M38.13,109.31a.42.42,0,0,1,0,.8,1.55,1.55,0,0,1-1.39,0,.42.42,0,0,1,0-.8A1.49,1.49,0,0,1,38.13,109.31Z"/><path class="cls-1" d="M41.78,107.2a.43.43,0,0,1,0,.81,1.57,1.57,0,0,1-1.4,0,.43.43,0,0,1,0-.81A1.57,1.57,0,0,1,41.78,107.2Z"/><path class="cls-1" d="M45.42,105.1a.43.43,0,0,1,0,.81,1.57,1.57,0,0,1-1.4,0,.43.43,0,0,1,0-.81A1.57,1.57,0,0,1,45.42,105.1Z"/><path class="cls-1" d="M30.82,109.28a.43.43,0,0,1,0,.81,1.55,1.55,0,0,1-1.39,0c-.39-.22-.39-.58,0-.81A1.55,1.55,0,0,1,30.82,109.28Z"/><path class="cls-1" d="M34.46,107.18c.39.22.39.58,0,.81a1.55,1.55,0,0,1-1.39,0c-.39-.23-.39-.59,0-.81A1.55,1.55,0,0,1,34.46,107.18Z"/><path class="cls-1" d="M38.1,105.08a.42.42,0,0,1,0,.8,1.49,1.49,0,0,1-1.39,0,.42.42,0,0,1,0-.8A1.55,1.55,0,0,1,38.1,105.08Z"/><path class="cls-1" d="M41.74,103a.42.42,0,0,1,0,.8,1.55,1.55,0,0,1-1.39,0,.42.42,0,0,1,0-.8A1.55,1.55,0,0,1,41.74,103Z"/><path class="cls-1" d="M27.18,107.18a.43.43,0,0,1,0,.81,1.55,1.55,0,0,1-1.39,0c-.39-.23-.39-.59,0-.81A1.55,1.55,0,0,1,27.18,107.18Z"/><path class="cls-1" d="M30.82,105.08a.42.42,0,0,1,0,.8,1.49,1.49,0,0,1-1.39,0,.42.42,0,0,1,0-.8A1.55,1.55,0,0,1,30.82,105.08Z"/><path class="cls-1" d="M34.46,103a.42.42,0,0,1,0,.8,1.55,1.55,0,0,1-1.39,0,.42.42,0,0,1,0-.8A1.55,1.55,0,0,1,34.46,103Z"/><ellipse class="cls-1" cx="26.48" cy="103.38" rx="0.98" ry="0.57"/><path class="cls-1" d="M30.82,100.87a.43.43,0,0,1,0,.81,1.55,1.55,0,0,1-1.39,0c-.39-.22-.39-.58,0-.81A1.55,1.55,0,0,1,30.82,100.87Z"/><path class="cls-1" d="M27.18,98.77a.43.43,0,0,1,0,.81,1.55,1.55,0,0,1-1.39,0c-.39-.23-.39-.59,0-.81A1.55,1.55,0,0,1,27.18,98.77Z"/><path class="cls-1" d="M87.76,126.18a1.49,1.49,0,0,1,1.39,0,.42.42,0,0,1,0,.8,1.55,1.55,0,0,1-1.39,0A.42.42,0,0,1,87.76,126.18Z"/><path class="cls-1" d="M92.8,124.07a.43.43,0,0,1,0,.81,1.55,1.55,0,0,1-1.39,0c-.39-.23-.39-.59,0-.81A1.55,1.55,0,0,1,92.8,124.07Z"/><path class="cls-1" d="M96.44,122a.42.42,0,0,1,0,.8,1.49,1.49,0,0,1-1.39,0,.42.42,0,0,1,0-.8A1.55,1.55,0,0,1,96.44,122Z"/><path class="cls-1" d="M100.08,119.87a.42.42,0,0,1,0,.8,1.55,1.55,0,0,1-1.39,0,.42.42,0,0,1,0-.8A1.55,1.55,0,0,1,100.08,119.87Z"/><path class="cls-1" d="M103.72,117.77a.42.42,0,0,1,0,.8,1.55,1.55,0,0,1-1.39,0,.42.42,0,0,1,0-.8A1.49,1.49,0,0,1,103.72,117.77Z"/><path class="cls-1" d="M107.36,115.66c.39.22.39.58,0,.81a1.55,1.55,0,0,1-1.39,0,.43.43,0,0,1,0-.81A1.55,1.55,0,0,1,107.36,115.66Z"/><path class="cls-1" d="M111,113.56a.42.42,0,0,1,0,.8,1.51,1.51,0,0,1-1.4,0,.42.42,0,0,1,0-.8A1.57,1.57,0,0,1,111,113.56Z"/><ellipse class="cls-1" cx="113.95" cy="111.86" rx="0.98" ry="0.57"/><path class="cls-1" d="M118.29,109.36a.42.42,0,0,1,0,.8,1.55,1.55,0,0,1-1.39,0,.42.42,0,0,1,0-.8A1.49,1.49,0,0,1,118.29,109.36Z"/><path class="cls-1" d="M121.93,107.25a.43.43,0,0,1,0,.81,1.55,1.55,0,0,1-1.39,0c-.39-.22-.39-.58,0-.81A1.55,1.55,0,0,1,121.93,107.25Z"/><path class="cls-1" d="M125.57,105.15a.42.42,0,0,1,0,.8,1.49,1.49,0,0,1-1.39,0,.42.42,0,0,1,0-.8A1.55,1.55,0,0,1,125.57,105.15Z"/><path class="cls-1" d="M129.21,103.05a.42.42,0,0,1,0,.8,1.55,1.55,0,0,1-1.39,0,.42.42,0,0,1,0-.8A1.55,1.55,0,0,1,129.21,103.05Z"/><path class="cls-1" d="M84.12,124.08a1.52,1.52,0,0,1,1.39,0c.39.23.39.59,0,.81a1.55,1.55,0,0,1-1.39,0C83.74,124.66,83.73,124.3,84.12,124.08Z"/><path class="cls-1" d="M89.16,122a.42.42,0,0,1,0,.8,1.51,1.51,0,0,1-1.4,0,.42.42,0,0,1,0-.8A1.57,1.57,0,0,1,89.16,122Z"/><ellipse class="cls-1" cx="92.1" cy="120.27" rx="0.98" ry="0.57"/><path class="cls-1" d="M96.44,117.77a.42.42,0,0,1,0,.8,1.55,1.55,0,0,1-1.39,0,.42.42,0,0,1,0-.8A1.49,1.49,0,0,1,96.44,117.77Z"/><path class="cls-1" d="M100.08,115.66c.39.22.39.58,0,.81a1.55,1.55,0,0,1-1.39,0c-.39-.23-.39-.59,0-.81A1.55,1.55,0,0,1,100.08,115.66Z"/><path class="cls-1" d="M103.72,113.56a.42.42,0,0,1,0,.8,1.49,1.49,0,0,1-1.39,0,.42.42,0,0,1,0-.8A1.55,1.55,0,0,1,103.72,113.56Z"/><path class="cls-1" d="M107.36,111.46a.42.42,0,0,1,0,.8,1.55,1.55,0,0,1-1.39,0,.42.42,0,0,1,0-.8A1.55,1.55,0,0,1,107.36,111.46Z"/><path class="cls-1" d="M111,109.36a.42.42,0,0,1,0,.8,1.57,1.57,0,0,1-1.4,0,.42.42,0,0,1,0-.8A1.51,1.51,0,0,1,111,109.36Z"/><path class="cls-1" d="M114.65,107.25a.43.43,0,0,1,0,.81,1.57,1.57,0,0,1-1.4,0,.43.43,0,0,1,0-.81A1.57,1.57,0,0,1,114.65,107.25Z"/><path class="cls-1" d="M118.29,105.15a.42.42,0,0,1,0,.8,1.49,1.49,0,0,1-1.39,0,.42.42,0,0,1,0-.8A1.55,1.55,0,0,1,118.29,105.15Z"/><path class="cls-1" d="M121.93,103.05a.42.42,0,0,1,0,.8,1.55,1.55,0,0,1-1.39,0,.42.42,0,0,1,0-.8A1.55,1.55,0,0,1,121.93,103.05Z"/><path class="cls-1" d="M125.57,101a.42.42,0,0,1,0,.8,1.55,1.55,0,0,1-1.39,0,.42.42,0,0,1,0-.8A1.49,1.49,0,0,1,125.57,101Z"/><ellipse class="cls-1" cx="128.52" cy="99.25" rx="0.98" ry="0.57"/><path class="cls-1" d="M80.48,122a1.55,1.55,0,0,1,1.39,0,.43.43,0,0,1,0,.81,1.55,1.55,0,0,1-1.39,0C80.09,122.56,80.09,122.2,80.48,122Z"/><path class="cls-1" d="M85.52,119.87a.42.42,0,0,1,0,.8,1.57,1.57,0,0,1-1.4,0,.42.42,0,0,1,0-.8A1.57,1.57,0,0,1,85.52,119.87Z"/><path class="cls-1" d="M89.16,117.77a.42.42,0,0,1,0,.8,1.57,1.57,0,0,1-1.4,0,.42.42,0,0,1,0-.8A1.51,1.51,0,0,1,89.16,117.77Z"/><path class="cls-1" d="M92.8,115.66a.43.43,0,0,1,0,.81,1.55,1.55,0,0,1-1.39,0c-.39-.23-.39-.59,0-.81A1.55,1.55,0,0,1,92.8,115.66Z"/><path class="cls-1" d="M96.44,113.56a.42.42,0,0,1,0,.8,1.49,1.49,0,0,1-1.39,0,.42.42,0,0,1,0-.8A1.55,1.55,0,0,1,96.44,113.56Z"/><path class="cls-1" d="M100.08,111.46a.42.42,0,0,1,0,.8,1.55,1.55,0,0,1-1.39,0,.42.42,0,0,1,0-.8A1.55,1.55,0,0,1,100.08,111.46Z"/><path class="cls-1" d="M103.72,109.36a.42.42,0,0,1,0,.8,1.55,1.55,0,0,1-1.39,0,.42.42,0,0,1,0-.8A1.49,1.49,0,0,1,103.72,109.36Z"/><path class="cls-1" d="M107.36,107.25c.39.23.39.59,0,.81a1.55,1.55,0,0,1-1.39,0,.43.43,0,0,1,0-.81A1.55,1.55,0,0,1,107.36,107.25Z"/><path class="cls-1" d="M111,105.15a.42.42,0,0,1,0,.8,1.51,1.51,0,0,1-1.4,0,.42.42,0,0,1,0-.8A1.57,1.57,0,0,1,111,105.15Z"/><path class="cls-1" d="M114.65,103.05a.42.42,0,0,1,0,.8,1.57,1.57,0,0,1-1.4,0,.42.42,0,0,1,0-.8A1.57,1.57,0,0,1,114.65,103.05Z"/><path class="cls-1" d="M118.29,101a.42.42,0,0,1,0,.8,1.55,1.55,0,0,1-1.39,0,.42.42,0,0,1,0-.8A1.49,1.49,0,0,1,118.29,101Z"/><path class="cls-1" d="M121.93,98.84a.43.43,0,0,1,0,.81,1.55,1.55,0,0,1-1.39,0c-.39-.22-.39-.58,0-.81A1.55,1.55,0,0,1,121.93,98.84Z"/><path class="cls-1" d="M125.57,96.74c.39.22.39.58,0,.81a1.55,1.55,0,0,1-1.39,0c-.39-.23-.39-.59,0-.81A1.55,1.55,0,0,1,125.57,96.74Z"/><path class="cls-1" d="M76.84,119.87a1.55,1.55,0,0,1,1.39,0,.42.42,0,0,1,0,.8,1.49,1.49,0,0,1-1.39,0A.42.42,0,0,1,76.84,119.87Z"/><path class="cls-1" d="M81.87,117.77a.42.42,0,0,1,0,.8,1.55,1.55,0,0,1-1.39,0,.42.42,0,0,1,0-.8A1.49,1.49,0,0,1,81.87,117.77Z"/><path class="cls-1" d="M85.52,115.66a.43.43,0,0,1,0,.81,1.57,1.57,0,0,1-1.4,0,.43.43,0,0,1,0-.81A1.57,1.57,0,0,1,85.52,115.66Z"/><path class="cls-1" d="M89.16,113.56a.42.42,0,0,1,0,.8,1.51,1.51,0,0,1-1.4,0,.42.42,0,0,1,0-.8A1.57,1.57,0,0,1,89.16,113.56Z"/><path class="cls-1" d="M92.8,111.46a.42.42,0,0,1,0,.8,1.55,1.55,0,0,1-1.39,0,.42.42,0,0,1,0-.8A1.55,1.55,0,0,1,92.8,111.46Z"/><path class="cls-1" d="M96.44,109.36a.42.42,0,0,1,0,.8,1.55,1.55,0,0,1-1.39,0,.42.42,0,0,1,0-.8A1.49,1.49,0,0,1,96.44,109.36Z"/><path class="cls-1" d="M100.08,107.25c.39.23.39.59,0,.81a1.55,1.55,0,0,1-1.39,0c-.39-.22-.39-.58,0-.81A1.55,1.55,0,0,1,100.08,107.25Z"/><path class="cls-1" d="M103.72,105.15a.42.42,0,0,1,0,.8,1.49,1.49,0,0,1-1.39,0,.42.42,0,0,1,0-.8A1.55,1.55,0,0,1,103.72,105.15Z"/><path class="cls-1" d="M107.36,103.05a.42.42,0,0,1,0,.8,1.55,1.55,0,0,1-1.39,0,.42.42,0,0,1,0-.8A1.55,1.55,0,0,1,107.36,103.05Z"/><path class="cls-1" d="M111,101a.42.42,0,0,1,0,.8,1.57,1.57,0,0,1-1.4,0,.42.42,0,0,1,0-.8A1.51,1.51,0,0,1,111,101Z"/><path class="cls-1" d="M114.65,98.84a.43.43,0,0,1,0,.81,1.57,1.57,0,0,1-1.4,0,.43.43,0,0,1,0-.81A1.57,1.57,0,0,1,114.65,98.84Z"/><path class="cls-1" d="M118.29,96.74a.43.43,0,0,1,0,.81,1.55,1.55,0,0,1-1.39,0c-.39-.23-.39-.59,0-.81A1.55,1.55,0,0,1,118.29,96.74Z"/><ellipse class="cls-1" cx="121.23" cy="95.04" rx="0.98" ry="0.57"/><path class="cls-1" d="M73.16,117.75a1.52,1.52,0,0,1,1.39,0c.39.23.39.59,0,.81a1.57,1.57,0,0,1-1.4,0A.42.42,0,0,1,73.16,117.75Z"/><path class="cls-1" d="M78.2,115.64a.42.42,0,0,1,0,.8,1.49,1.49,0,0,1-1.39,0,.42.42,0,0,1,0-.8A1.55,1.55,0,0,1,78.2,115.64Z"/><ellipse class="cls-1" cx="81.15" cy="113.94" rx="0.98" ry="0.57"/><path class="cls-1" d="M85.48,111.44a.42.42,0,0,1,0,.8,1.55,1.55,0,0,1-1.39,0,.42.42,0,0,1,0-.8A1.49,1.49,0,0,1,85.48,111.44Z"/><path class="cls-1" d="M89.13,109.33a.43.43,0,0,1,0,.81,1.57,1.57,0,0,1-1.4,0,.43.43,0,0,1,0-.81A1.57,1.57,0,0,1,89.13,109.33Z"/><path class="cls-1" d="M92.77,107.23a.43.43,0,0,1,0,.81,1.57,1.57,0,0,1-1.4,0,.43.43,0,0,1,0-.81A1.57,1.57,0,0,1,92.77,107.23Z"/><path class="cls-1" d="M96.41,105.13a.42.42,0,0,1,0,.8,1.55,1.55,0,0,1-1.39,0,.42.42,0,0,1,0-.8A1.55,1.55,0,0,1,96.41,105.13Z"/><path class="cls-1" d="M100.05,103a.42.42,0,0,1,0,.8,1.55,1.55,0,0,1-1.39,0,.42.42,0,0,1,0-.8A1.49,1.49,0,0,1,100.05,103Z"/><path class="cls-1" d="M103.69,100.92c.39.23.39.59,0,.81a1.55,1.55,0,0,1-1.39,0c-.39-.22-.39-.58,0-.81A1.55,1.55,0,0,1,103.69,100.92Z"/><ellipse class="cls-1" cx="106.64" cy="99.22" rx="0.98" ry="0.57"/><path class="cls-1" d="M109.58,96.72a1.55,1.55,0,0,1,1.39,0,.42.42,0,0,1,0,.8,1.49,1.49,0,0,1-1.39,0,.42.42,0,0,1,0-.8Z"/><path class="cls-1" d="M69.52,115.64a1.55,1.55,0,0,1,1.39,0,.43.43,0,0,1,0,.81,1.57,1.57,0,0,1-1.4,0A.43.43,0,0,1,69.52,115.64Z"/><path class="cls-1" d="M74.56,113.54a.42.42,0,0,1,0,.8,1.55,1.55,0,0,1-1.39,0,.42.42,0,0,1,0-.8A1.55,1.55,0,0,1,74.56,113.54Z"/><path class="cls-1" d="M78.2,111.44a.42.42,0,0,1,0,.8,1.55,1.55,0,0,1-1.39,0,.42.42,0,0,1,0-.8A1.49,1.49,0,0,1,78.2,111.44Z"/><path class="cls-1" d="M81.84,109.33c.39.23.39.59,0,.81a1.55,1.55,0,0,1-1.39,0,.43.43,0,0,1,0-.81A1.55,1.55,0,0,1,81.84,109.33Z"/><path class="cls-1" d="M85.48,107.23c.39.22.39.58,0,.81a1.55,1.55,0,0,1-1.39,0,.43.43,0,0,1,0-.81A1.55,1.55,0,0,1,85.48,107.23Z"/><path class="cls-1" d="M89.13,105.13a.42.42,0,0,1,0,.8,1.57,1.57,0,0,1-1.4,0,.42.42,0,0,1,0-.8A1.57,1.57,0,0,1,89.13,105.13Z"/><path class="cls-1" d="M92.77,103a.42.42,0,0,1,0,.8,1.57,1.57,0,0,1-1.4,0C91,103.61,92.38,102.8,92.77,103Z"/><path class="cls-1" d="M96.41,100.92a.43.43,0,0,1,0,.81,1.55,1.55,0,0,1-1.39,0C94.63,101.51,96,100.7,96.41,100.92Z"/><path class="cls-1" d="M65.88,113.54a1.55,1.55,0,0,1,1.39,0,.42.42,0,0,1,0,.8,1.52,1.52,0,0,1-1.39,0A.43.43,0,0,1,65.88,113.54Z"/><path class="cls-1" d="M70.92,111.44a.42.42,0,0,1,0,.8,1.55,1.55,0,0,1-1.39,0,.42.42,0,0,1,0-.8A1.49,1.49,0,0,1,70.92,111.44Z"/><path class="cls-1" d="M74.56,109.33a.43.43,0,0,1,0,.81,1.55,1.55,0,0,1-1.39,0c-.39-.22-.39-.58,0-.81A1.55,1.55,0,0,1,74.56,109.33Z"/><path class="cls-1" d="M78.2,107.23c.39.22.39.58,0,.81a1.55,1.55,0,0,1-1.39,0c-.39-.23-.39-.59,0-.81A1.55,1.55,0,0,1,78.2,107.23Z"/><path class="cls-1" d="M62.24,111.44a1.55,1.55,0,0,1,1.39,0,.42.42,0,0,1,0,.8,1.55,1.55,0,0,1-1.39,0C61.86,112,61.85,111.66,62.24,111.44Z"/><path class="cls-1" d="M67.28,109.33a.43.43,0,0,1,0,.81,1.57,1.57,0,0,1-1.4,0,.43.43,0,0,1,0-.81A1.57,1.57,0,0,1,67.28,109.33Z"/><path class="cls-1" d="M70.92,107.23a.43.43,0,0,1,0,.81,1.55,1.55,0,0,1-1.39,0c-.39-.23-.39-.59,0-.81A1.55,1.55,0,0,1,70.92,107.23Z"/><path class="cls-1" d="M58.6,109.34a1.52,1.52,0,0,1,1.39,0c.38.23.39.59,0,.81a1.55,1.55,0,0,1-1.39,0A.42.42,0,0,1,58.6,109.34Z"/><path class="cls-1" d="M63.64,107.23a.43.43,0,0,1,0,.81,1.57,1.57,0,0,1-1.4,0,.43.43,0,0,1,0-.81A1.57,1.57,0,0,1,63.64,107.23Z"/><path class="cls-1" d="M55,107.23a1.57,1.57,0,0,1,1.4,0,.43.43,0,0,1,0,.81A1.55,1.55,0,0,1,55,108,.43.43,0,0,1,55,107.23Z"/><polygon class="cls-2" points="70.45 71.25 0.56 30.9 52.96 0.65 122.85 41 70.45 71.25"/><polygon class="cls-2" points="0.56 30.9 0.56 84.78 70.45 125.13 70.45 71.25 0.56 30.9"/><polygon class="cls-3" points="70.45 77.94 0.56 37.59 52.96 7.33 122.85 47.68 70.45 77.94"/><path class="cls-1" d="M53.24.16,53,0,0,30.58V85.1l70.45,40.68,52.68-30.41.28-.17V40.68Zm16.65,124L1.12,84.46V31.87L34.94,51.4l35,20.18ZM1.68,30.9,53,1.29,121.73,41,70.45,70.61Z"/><path class="cls-3" d="M16,89.68l-6.85-4a6.11,6.11,0,0,1-2.55-4.88v-7c0-1.88,1.14-2.74,2.55-1.93l6.85,4a6.11,6.11,0,0,1,2.55,4.88v7C18.54,89.63,17.4,90.5,16,89.68Z"/><path class="cls-1" d="M14.57,88,8.1,84.3A6.87,6.87,0,0,1,5,78.93V71.46c0-2,1.39-2.77,3.1-1.79l6.47,3.74a6.87,6.87,0,0,1,3.1,5.37v7.46C17.67,88.22,16.27,89,14.57,88ZM8.1,70.49c-1.32-.76-2.39-.14-2.39,1.38v7.47A5.29,5.29,0,0,0,8.1,83.48l6.47,3.73c1.31.76,2.39.14,2.39-1.38V78.37a5.33,5.33,0,0,0-2.39-4.15Z"/><path class="cls-2" d="M14.82,80.52c.2.12.36,0,.3-.27a7.49,7.49,0,0,0-3.2-4.61c-1.51-.87-2.79-.45-3.2.91a.65.65,0,0,0,.31.63Z"/><path class="cls-1" d="M14.23,79.82,8.44,76.47a1.43,1.43,0,0,1-.55-.63,1,1,0,0,1-.1-.71c.46-1.53,1.92-1.95,3.54-1a8.3,8.3,0,0,1,3.54,5.1.62.62,0,0,1-.1.59A.43.43,0,0,1,14.23,79.82ZM8.49,75.69,14.2,79a6.82,6.82,0,0,0-2.87-4C10,74.19,8.89,74.5,8.49,75.69Z"/><path class="cls-1" d="M10.56,83.14a2.49,2.49,0,0,1-1.13-2v-.46l.7.41v.46a.93.93,0,0,0,.43.73c.23.13.42,0,.42-.25V77.53l.71.41v4.54C11.69,83.2,11.18,83.5,10.56,83.14Z"/><path class="cls-3" d="M31.12,98.42l-6.85-4a6.12,6.12,0,0,1-2.56-4.88v-7c0-1.88,1.15-2.75,2.56-1.93l6.85,4a6.12,6.12,0,0,1,2.55,4.88v7C33.67,98.37,32.53,99.23,31.12,98.42Z"/><path class="cls-1" d="M29.69,96.77,23.23,93a6.84,6.84,0,0,1-3.1-5.37V80.2c0-2,1.39-2.78,3.1-1.79l6.46,3.73a6.87,6.87,0,0,1,3.1,5.37V95C32.79,97,31.4,97.75,29.69,96.77ZM23.23,79.23c-1.32-.77-2.39-.15-2.39,1.38v7.46a5.29,5.29,0,0,0,2.39,4.14L29.69,96c1.32.76,2.4.14,2.4-1.38V87.1A5.3,5.3,0,0,0,29.69,83Z"/><path class="cls-2" d="M30.53,90l-3-5.53c-.2-.36-.54-.56-.74-.42l-3,2c-.13.08,0,.39.15.5l1.38.79a.76.76,0,0,1,.34.6v4.22a.74.74,0,0,0,.34.58l2.36,1.36c.18.11.33,0,.33-.19V89.71c0-.22.16-.31.35-.2l1.38.79C30.56,90.41,30.66,90.21,30.53,90Z"/><path class="cls-1" d="M27.64,93.36,25.28,92a1.52,1.52,0,0,1-.69-1.19V86.6l-1.37-.79a1.26,1.26,0,0,1-.51-.69c-.09-.29-.05-.54.1-.64l3-2a.61.61,0,0,1,.63,0h0a1.81,1.81,0,0,1,.63.68l3,5.52a.89.89,0,0,1,.11.77c-.09.18-.3.22-.52.09l-1.38-.79V93C28.33,93.4,28,93.58,27.64,93.36Zm-4.09-8.18,1.05.61A1.54,1.54,0,0,1,25.3,87v4.22l2.34,1.33,0-4.21c0-.44.32-.63.7-.4l1.05.6-2.8-5.11a.26.26,0,0,0-.11-.12h0a.09.09,0,0,0-.11,0Z"/><path class="cls-4" d="M104.93,72.47V65a6.87,6.87,0,0,1,3.1-5.37l6.47-3.73c1.7-1,3.1-.18,3.1,1.79v7.47a6.9,6.9,0,0,1-3.1,5.37L108,74.26C106.32,75.25,104.93,74.44,104.93,72.47Zm3.1-12a5.29,5.29,0,0,0-2.39,4.14v7.47c0,1.52,1.07,2.14,2.39,1.38l6.47-3.73a5.31,5.31,0,0,0,2.39-4.14V58.1c0-1.52-1.08-2.14-2.39-1.38Z"/><path class="cls-4" d="M109.39,70.46V66.25L108,67c-.23.13-.43.1-.52-.09a.9.9,0,0,1,.1-.76l3-5.52a1.77,1.77,0,0,1,.63-.69h0a.6.6,0,0,1,.63,0l3,2c.16.1.2.36.11.65a1.28,1.28,0,0,1-.52.69l-1.37.78V68.3a1.54,1.54,0,0,1-.69,1.2l-2.36,1.36C109.7,71.08,109.39,70.9,109.39,70.46Zm2-9.67a.14.14,0,0,0-.11,0h0a.44.44,0,0,0-.11.12L108.35,66l1.05-.61c.39-.22.7,0,.7.41l0,4.2,2.34-1.33V64.5a1.55,1.55,0,0,1,.71-1.22l1-.6Z"/><path class="cls-2" d="M47.89,19.25l-10.46,6,12.43,7.18,10.46-6Zm1.82,10.17-7-4L48,22.3l7,4Z"/><path class="cls-1" d="M49.71,30.05l-8.1-4.67L48,21.67l8.1,4.67Zm-5.9-4.67,5.9,3.41L54,26.34,48,22.93Z"/><path class="cls-1" d="M49.86,33.1,36.33,25.29l11.56-6.67,13.53,7.81ZM38.52,25.29l11.34,6.55,9.37-5.41L47.89,19.88Z"/><path class="cls-1" d="M30.79,33.32a14.55,14.55,0,0,1-7.13-1.71c-2-1.16-3.12-2.73-3.12-4.43s1.11-3.28,3.12-4.44a15.8,15.8,0,0,1,14.27,0c2,1.16,3.12,2.74,3.12,4.44s-1.11,3.27-3.12,4.43A14.56,14.56,0,0,1,30.79,33.32Zm0-11.2a13.42,13.42,0,0,0-6.58,1.57c-1.66,1-2.57,2.19-2.57,3.49s.91,2.53,2.57,3.48a14.55,14.55,0,0,0,13.17,0C39,29.71,40,28.47,40,27.18s-.91-2.53-2.57-3.49A13.44,13.44,0,0,0,30.79,22.12Z"/><path class="cls-1" d="M30.79,31.62a10.36,10.36,0,0,1-5.05-1.2,3.89,3.89,0,0,1-2.26-3.24,3.87,3.87,0,0,1,2.26-3.24,11.18,11.18,0,0,1,10.11,0,3.87,3.87,0,0,1,2.26,3.24,3.89,3.89,0,0,1-2.26,3.24A10.37,10.37,0,0,1,30.79,31.62Zm0-7.81a9.23,9.23,0,0,0-4.51,1.08,2.85,2.85,0,0,0-1.7,2.29,2.85,2.85,0,0,0,1.7,2.29,10,10,0,0,0,9,0A2.85,2.85,0,0,0,37,27.18a2.85,2.85,0,0,0-1.7-2.29A9.24,9.24,0,0,0,30.79,23.81Z"/><polygon class="cls-2" points="100.13 28.56 48.83 58.01 34.27 49.6 85.56 20.15 100.13 28.56"/><path class="cls-1" d="M44.67,56.9,29,47.84,82.5,17.11l15.69,9.06Zm-13.44-9,13.44,7.76L95.94,26.17,82.5,18.41Z"/><polygon class="cls-2" points="33.44 50.56 33.44 71.97 48.01 80.73 48.01 58.97 33.44 50.56"/><path class="cls-1" d="M45.23,79,29.55,69.57V46.87l15.68,9.06ZM30.67,68.93,44.11,77V56.58L30.67,48.82Z"/><polygon class="cls-2" points="55.66 101.27 41.25 92.95 41.25 70.77 55.66 79.09 55.66 101.27"/><path class="cls-1" d="M56.11,102,40.81,93.2V70l15.3,8.84ZM41.7,92.69l13.52,7.81V79.35L41.7,71.54Z"/><polygon class="cls-3" points="54.19 98.36 44.71 92.89 44.71 77.04 54.19 82.52 54.19 98.36"/><path class="cls-1" d="M53.64,97.45l-10.36-6V74.59l10.36,6ZM44.17,91l8.58,5V81.09l-8.58-5Z"/><path class="cls-1" d="M56.36,105.42a15.26,15.26,0,0,1-6.91-12c0-4.4,3.1-6.19,6.91-4a15.3,15.3,0,0,1,6.9,12C63.26,105.84,60.16,107.62,56.36,105.42Zm0-15c-3.39-2-6.14-.36-6.14,3.54a13.54,13.54,0,0,0,6.14,10.62c3.38,2,6.13.37,6.13-3.54A13.58,13.58,0,0,0,56.36,90.37Z"/><path class="cls-1" d="M56.36,103.41a11.28,11.28,0,0,1-5.11-8.84c0-3.24,2.29-4.57,5.11-2.94a11.3,11.3,0,0,1,5.1,8.84C61.46,103.72,59.17,105,56.36,103.41Zm0-10.89C54,91.14,52,92.26,52,95a9.59,9.59,0,0,0,4.34,7.5c2.38,1.38,4.33.26,4.33-2.5A9.6,9.6,0,0,0,56.36,92.52Z"/><polygon class="cls-1" points="97.08 55.55 27.41 15.07 28.25 14.27 98.19 54.91 97.08 55.55"/><polygon class="cls-2" points="98.07 109.42 96.95 110.05 96.95 55.48 98.07 54.84 98.07 109.42"/><polygon class="cls-2" points="44.63 115.7 44.63 129.64 71.33 145.06 71.33 131.11 44.63 115.7"/><polygon class="cls-2" points="91.42 119.39 71.33 131.11 44.63 115.7 64.72 103.97 91.42 119.39"/><polygon class="cls-3" points="91.42 124.21 71.33 135.93 44.63 120.51 64.72 108.79 91.42 124.21"/><path class="cls-1" d="M64.72,103.34l-20.64,12V130L71.33,145.7l20.64-12V119.07Zm6.06,40.77-25.6-14.78V116.65l25.6,14.78ZM45.73,115.7l19-11.09,25.6,14.78-19,11.09Z"/><polygon class="cls-2" points="71.33 145.06 71.45 152.72 46.07 138.07 46.07 130.48 71.33 145.06"/><path class="cls-1" d="M71.33,144.43l-25.81-14.9v8.86l25.93,15,18-10.5v-9Zm-24.71-6.68v-6.32l24.16,13.95.1,6.38Z"/><polygon class="cls-2" points="71.05 145.28 71.05 144.03 89.14 133.46 89.15 134.73 71.05 145.28"/><polygon class="cls-1" points="78.79 126.17 52.92 111.22 53.47 110.27 79.9 125.53 78.79 126.17"/><polygon class="cls-2" points="78.06 149.54 76.79 150.27 78.8 139.62 78.79 126.18 79.9 125.52 79.9 139.72 78.06 149.54"/></g></g></svg>