<svg xmlns="http://www.w3.org/2000/svg" viewBox="0 0 60.36 47.58"><defs><style>.cls-1{fill:#16110d;}.cls-2{fill:#fec;}.cls-3{fill:#ffbe2e;}</style></defs><g id="Layer_2" data-name="Layer 2"><g id="content"><path class="cls-1" d="M1,39.6a.25.25,0,0,1,0,.48.89.89,0,0,1-.84,0,.25.25,0,0,1,0-.48A1,1,0,0,1,1,39.6Z"/><path class="cls-1" d="M3.2,38.34a.25.25,0,0,1,0,.48,1,1,0,0,1-.84,0,.25.25,0,0,1,0-.48A.89.89,0,0,1,3.2,38.34Z"/><path class="cls-1" d="M1,37.07a.26.26,0,0,1,0,.49,1,1,0,0,1-.84,0,.26.26,0,0,1,0-.49A1,1,0,0,1,1,37.07Z"/><path class="cls-1" d="M44.88,47a.25.25,0,0,1,0,.48.89.89,0,0,1-.84,0A.25.25,0,0,1,44,47,1,1,0,0,1,44.88,47Z"/><path class="cls-1" d="M47.06,45.74c.24.13.24.35,0,.48a.93.93,0,0,1-.83,0,.25.25,0,0,1,0-.48A.93.93,0,0,1,47.06,45.74Z"/><path class="cls-1" d="M49.25,44.48a.25.25,0,0,1,0,.48,1,1,0,0,1-.84,0,.25.25,0,0,1,0-.48A.89.89,0,0,1,49.25,44.48Z"/><ellipse class="cls-1" cx="51.02" cy="43.45" rx="0.59" ry="0.34"/><path class="cls-1" d="M53.63,42a.25.25,0,0,1,0,.48.89.89,0,0,1-.84,0,.25.25,0,0,1,0-.48A1,1,0,0,1,53.63,42Z"/><path class="cls-1" d="M55.81,40.69a.25.25,0,0,1,0,.48.93.93,0,0,1-.83,0,.25.25,0,0,1,0-.48A.87.87,0,0,1,55.81,40.69Z"/><path class="cls-1" d="M58,39.42a.26.26,0,0,1,0,.49,1,1,0,0,1-.84,0,.26.26,0,0,1,0-.49A1,1,0,0,1,58,39.42Z"/><path class="cls-1" d="M60.19,38.16a.26.26,0,0,1,0,.49,1,1,0,0,1-.84,0,.26.26,0,0,1,0-.49A1,1,0,0,1,60.19,38.16Z"/><path class="cls-1" d="M40.48,47a.25.25,0,0,1,0,.48.93.93,0,0,1-.83,0,.25.25,0,0,1,0-.48A.87.87,0,0,1,40.48,47Z"/><path class="cls-1" d="M42.67,45.73c.23.13.23.34,0,.48a1,1,0,0,1-.84,0c-.23-.14-.23-.35,0-.48A.89.89,0,0,1,42.67,45.73Z"/><path class="cls-1" d="M44.86,44.46a.26.26,0,0,1,0,.49A1,1,0,0,1,44,45a.26.26,0,0,1,0-.49A1,1,0,0,1,44.86,44.46Z"/><path class="cls-1" d="M47.05,43.2a.25.25,0,0,1,0,.48.89.89,0,0,1-.84,0,.25.25,0,0,1,0-.48A1,1,0,0,1,47.05,43.2Z"/><path class="cls-1" d="M49.23,41.94a.25.25,0,0,1,0,.48.93.93,0,0,1-.83,0c-.24-.13-.24-.35,0-.48A.87.87,0,0,1,49.23,41.94Z"/><path class="cls-1" d="M51.42,40.67a.26.26,0,0,1,0,.49,1,1,0,0,1-.84,0,.26.26,0,0,1,0-.49A1,1,0,0,1,51.42,40.67Z"/><path class="cls-1" d="M53.61,39.41a.25.25,0,0,1,0,.48.89.89,0,0,1-.84,0,.25.25,0,0,1,0-.48A1,1,0,0,1,53.61,39.41Z"/><path class="cls-1" d="M55.79,38.15a.25.25,0,0,1,0,.48.93.93,0,0,1-.83,0,.25.25,0,0,1,0-.48A.93.93,0,0,1,55.79,38.15Z"/><ellipse class="cls-1" cx="57.56" cy="37.13" rx="0.59" ry="0.34"/><path class="cls-1" d="M60.17,35.62a.26.26,0,0,1,0,.49,1,1,0,0,1-.84,0,.26.26,0,0,1,0-.49A1,1,0,0,1,60.17,35.62Z"/><path class="cls-1" d="M38.3,45.73c.23.13.23.34,0,.48a1,1,0,0,1-.84,0,.25.25,0,0,1,0-.48A.89.89,0,0,1,38.3,45.73Z"/><path class="cls-1" d="M40.48,44.46a.26.26,0,0,1,0,.49.93.93,0,0,1-.83,0,.26.26,0,0,1,0-.49A.93.93,0,0,1,40.48,44.46Z"/><path class="cls-1" d="M42.67,43.2a.25.25,0,0,1,0,.48.89.89,0,0,1-.84,0,.25.25,0,0,1,0-.48A1,1,0,0,1,42.67,43.2Z"/><path class="cls-1" d="M44.86,41.94a.25.25,0,0,1,0,.48,1,1,0,0,1-.84,0,.25.25,0,0,1,0-.48A.89.89,0,0,1,44.86,41.94Z"/><ellipse class="cls-1" cx="46.63" cy="40.92" rx="0.59" ry="0.34"/><ellipse class="cls-1" cx="48.81" cy="39.65" rx="0.59" ry="0.34"/><path class="cls-1" d="M51.42,38.15a.25.25,0,0,1,0,.48,1,1,0,0,1-.84,0,.25.25,0,0,1,0-.48A1,1,0,0,1,51.42,38.15Z"/><path class="cls-1" d="M53.61,36.89a.25.25,0,0,1,0,.48,1,1,0,0,1-.84,0,.25.25,0,0,1,0-.48A.89.89,0,0,1,53.61,36.89Z"/><path class="cls-1" d="M55.79,35.62a.26.26,0,0,1,0,.49.93.93,0,0,1-.83,0,.26.26,0,0,1,0-.49A.93.93,0,0,1,55.79,35.62Z"/><path class="cls-1" d="M58,34.36a.25.25,0,0,1,0,.48.89.89,0,0,1-.84,0,.25.25,0,0,1,0-.48A1,1,0,0,1,58,34.36Z"/><path class="cls-1" d="M36.11,44.46a.26.26,0,0,1,0,.49,1,1,0,0,1-.84,0,.26.26,0,0,1,0-.49A1,1,0,0,1,36.11,44.46Z"/><ellipse class="cls-1" cx="37.88" cy="43.44" rx="0.59" ry="0.34"/><path class="cls-1" d="M40.48,41.94a.25.25,0,0,1,0,.48.93.93,0,0,1-.83,0,.25.25,0,0,1,0-.48A.87.87,0,0,1,40.48,41.94Z"/><ellipse class="cls-1" cx="42.25" cy="40.92" rx="0.59" ry="0.34"/><ellipse class="cls-1" cx="44.44" cy="39.65" rx="0.59" ry="0.34"/><path class="cls-1" d="M47.05,38.15a.25.25,0,0,1,0,.48,1,1,0,0,1-.84,0,.25.25,0,0,1,0-.48A1,1,0,0,1,47.05,38.15Z"/><ellipse class="cls-1" cx="48.81" cy="37.13" rx="0.59" ry="0.34"/><path class="cls-1" d="M51.42,35.62a.26.26,0,0,1,0,.49,1,1,0,0,1-.84,0,.26.26,0,0,1,0-.49A1,1,0,0,1,51.42,35.62Z"/><path class="cls-1" d="M53.61,34.36a.25.25,0,0,1,0,.48.89.89,0,0,1-.84,0,.25.25,0,0,1,0-.48A1,1,0,0,1,53.61,34.36Z"/><path class="cls-1" d="M55.79,33.1a.25.25,0,0,1,0,.48.93.93,0,0,1-.83,0,.25.25,0,0,1,0-.48A.87.87,0,0,1,55.79,33.1Z"/><path class="cls-1" d="M33.92,43.2a.25.25,0,0,1,0,.48.87.87,0,0,1-.83,0c-.24-.13-.24-.35,0-.48A.93.93,0,0,1,33.92,43.2Z"/><path class="cls-1" d="M36.11,41.94a.25.25,0,0,1,0,.48,1,1,0,0,1-.84,0,.25.25,0,0,1,0-.48A.89.89,0,0,1,36.11,41.94Z"/><path class="cls-1" d="M38.3,40.67a.26.26,0,0,1,0,.49,1,1,0,0,1-.84,0,.26.26,0,0,1,0-.49A1,1,0,0,1,38.3,40.67Z"/><ellipse class="cls-1" cx="40.07" cy="39.65" rx="0.59" ry="0.34"/><path class="cls-1" d="M42.67,38.15a.25.25,0,0,1,0,.48,1,1,0,0,1-.84,0,.25.25,0,0,1,0-.48A1,1,0,0,1,42.67,38.15Z"/><path class="cls-1" d="M44.86,36.89a.25.25,0,0,1,0,.48,1,1,0,0,1-.84,0,.25.25,0,0,1,0-.48A.89.89,0,0,1,44.86,36.89Z"/><path class="cls-1" d="M46.21,35.62a1,1,0,0,1,.84,0,.26.26,0,0,1,0,.49,1,1,0,0,1-.84,0,.26.26,0,0,1,0-.49Z"/><path class="cls-1" d="M48.4,34.36a.93.93,0,0,1,.83,0,.25.25,0,0,1,0,.48.87.87,0,0,1-.83,0c-.24-.13-.24-.35,0-.48Z"/><path class="cls-1" d="M51.42,33.1a.25.25,0,0,1,0,.48,1,1,0,0,1-.84,0C50.35,33.45,51.19,33,51.42,33.1Z"/><ellipse class="cls-1" cx="31.32" cy="42.18" rx="0.59" ry="0.34"/><path class="cls-1" d="M33.92,40.67a.26.26,0,0,1,0,.49.93.93,0,0,1-.83,0c-.24-.14-.24-.35,0-.49A.93.93,0,0,1,33.92,40.67Z"/><ellipse class="cls-1" cx="35.69" cy="39.65" rx="0.59" ry="0.34"/><path class="cls-1" d="M38.3,38.15a.25.25,0,0,1,0,.48,1,1,0,0,1-.84,0,.25.25,0,0,1,0-.48A1,1,0,0,1,38.3,38.15Z"/><path class="cls-1" d="M29.55,40.67a.26.26,0,0,1,0,.49,1,1,0,0,1-.84,0,.26.26,0,0,1,0-.49A1,1,0,0,1,29.55,40.67Z"/><path class="cls-1" d="M31.73,39.41c.24.13.24.35,0,.48a.87.87,0,0,1-.83,0,.25.25,0,0,1,0-.48A.93.93,0,0,1,31.73,39.41Z"/><path class="cls-1" d="M33.92,38.15a.25.25,0,0,1,0,.48.87.87,0,0,1-.83,0c-.24-.13-.24-.35,0-.48A.93.93,0,0,1,33.92,38.15Z"/><path class="cls-1" d="M36.11,36.89a.25.25,0,0,1,0,.48,1,1,0,0,1-.84,0,.25.25,0,0,1,0-.48A.89.89,0,0,1,36.11,36.89Z"/><ellipse class="cls-1" cx="26.94" cy="39.65" rx="0.59" ry="0.34"/><ellipse class="cls-1" cx="29.13" cy="38.39" rx="0.59" ry="0.34"/><ellipse class="cls-1" cx="31.32" cy="37.13" rx="0.59" ry="0.34"/><path class="cls-1" d="M33.92,35.62a.26.26,0,0,1,0,.49.93.93,0,0,1-.83,0c-.24-.14-.24-.35,0-.49A.93.93,0,0,1,33.92,35.62Z"/><ellipse class="cls-1" cx="13.82" cy="44.7" rx="0.59" ry="0.34"/><path class="cls-1" d="M16.42,43.2c.24.13.24.35,0,.48a.87.87,0,0,1-.83,0,.25.25,0,0,1,0-.48A.93.93,0,0,1,16.42,43.2Z"/><ellipse class="cls-1" cx="18.19" cy="42.18" rx="0.59" ry="0.34"/><path class="cls-1" d="M20.8,40.67a.26.26,0,0,1,0,.49,1,1,0,0,1-.84,0,.26.26,0,0,1,0-.49A1,1,0,0,1,20.8,40.67Z"/><path class="cls-1" d="M23,39.41a.25.25,0,0,1,0,.48.89.89,0,0,1-.84,0,.25.25,0,0,1,0-.48A1,1,0,0,1,23,39.41Z"/><path class="cls-1" d="M25.17,38.15a.25.25,0,0,1,0,.48.87.87,0,0,1-.83,0,.25.25,0,0,1,0-.48A.93.93,0,0,1,25.17,38.15Z"/><path class="cls-1" d="M27.36,36.89a.25.25,0,0,1,0,.48,1,1,0,0,1-.84,0,.25.25,0,0,1,0-.48A.89.89,0,0,1,27.36,36.89Z"/><path class="cls-1" d="M29.55,35.62a.26.26,0,0,1,0,.49,1,1,0,0,1-.84,0,.26.26,0,0,1,0-.49A1,1,0,0,1,29.55,35.62Z"/><path class="cls-1" d="M31.73,34.36c.24.13.24.35,0,.48a.87.87,0,0,1-.83,0,.25.25,0,0,1,0-.48A.93.93,0,0,1,31.73,34.36Z"/><path class="cls-1" d="M9,44.45a1,1,0,0,1,.84,0,.25.25,0,0,1,0,.48.87.87,0,0,1-.83,0C8.77,44.8,8.77,44.58,9,44.45Z"/><path class="cls-1" d="M12,43.19a.25.25,0,0,1,0,.48,1,1,0,0,1-.84,0,.25.25,0,0,1,0-.48A.89.89,0,0,1,12,43.19Z"/><path class="cls-1" d="M14.22,41.92a.26.26,0,0,1,0,.49,1,1,0,0,1-.84,0,.26.26,0,0,1,0-.49A1,1,0,0,1,14.22,41.92Z"/><path class="cls-1" d="M16.41,40.66a.25.25,0,0,1,0,.48.89.89,0,0,1-.84,0,.25.25,0,0,1,0-.48A1,1,0,0,1,16.41,40.66Z"/><path class="cls-1" d="M18.59,39.4a.25.25,0,0,1,0,.48.93.93,0,0,1-.83,0,.25.25,0,0,1,0-.48A.87.87,0,0,1,18.59,39.4Z"/><path class="cls-1" d="M20.78,38.14a.25.25,0,0,1,0,.48,1,1,0,0,1-.84,0,.25.25,0,0,1,0-.48A.89.89,0,0,1,20.78,38.14Z"/><path class="cls-1" d="M23,36.87a.26.26,0,0,1,0,.49,1,1,0,0,1-.84,0,.26.26,0,0,1,0-.49A1,1,0,0,1,23,36.87Z"/><path class="cls-1" d="M25.15,35.61c.24.13.24.35,0,.48a.87.87,0,0,1-.83,0,.25.25,0,0,1,0-.48A.93.93,0,0,1,25.15,35.61Z"/><ellipse class="cls-1" cx="26.92" cy="34.59" rx="0.59" ry="0.34"/><path class="cls-1" d="M29.53,33.57a1,1,0,0,1-.84,0,.26.26,0,0,1,0-.49C28.92,33,29.76,33.43,29.53,33.57Z"/><path class="cls-1" d="M6.82,43.19a.87.87,0,0,1,.83,0c.24.13.24.35,0,.48a1,1,0,0,1-.84,0A.25.25,0,0,1,6.82,43.19Z"/><path class="cls-1" d="M9.84,41.92c.24.14.24.35,0,.49a.93.93,0,0,1-.83,0,.26.26,0,0,1,0-.49A.93.93,0,0,1,9.84,41.92Z"/><path class="cls-1" d="M23,34.35a.25.25,0,0,1,0,.48,1,1,0,0,1-.84,0,.25.25,0,0,1,0-.48A.89.89,0,0,1,23,34.35Z"/><path class="cls-1" d="M25.15,33.08c.24.14.24.35,0,.49a.93.93,0,0,1-.83,0,.26.26,0,0,1,0-.49A.93.93,0,0,1,25.15,33.08Z"/><path class="cls-1" d="M4.63,41.93a.92.92,0,0,1,.84,0,.26.26,0,0,1,0,.49,1,1,0,0,1-.84,0A.25.25,0,0,1,4.63,41.93Z"/><path class="cls-1" d="M7.66,40.66a.25.25,0,0,1,0,.48.89.89,0,0,1-.84,0,.25.25,0,0,1,0-.48A1,1,0,0,1,7.66,40.66Z"/><path class="cls-1" d="M23,31.82a.25.25,0,0,1,0,.48.89.89,0,0,1-.84,0c-.23-.13-.23-.34,0-.48A1,1,0,0,1,23,31.82Z"/><path class="cls-1" d="M25.15,31a.87.87,0,0,1-.83,0,.25.25,0,0,1,0-.48C24.55,30.43,25.39,30.91,25.15,31Z"/><path class="cls-1" d="M2.44,40.66a1,1,0,0,1,.84,0,.25.25,0,0,1,0,.48.92.92,0,0,1-.84,0A.26.26,0,0,1,2.44,40.66Z"/><path class="cls-1" d="M5.47,39.4a.25.25,0,0,1,0,.48,1,1,0,0,1-.84,0,.25.25,0,0,1,0-.48A.89.89,0,0,1,5.47,39.4Z"/><path class="cls-1" d="M23,29.78a1,1,0,0,1-.84,0,.25.25,0,0,1,0-.48.89.89,0,0,1,.84,0A.25.25,0,0,1,23,29.78Z"/><polygon class="cls-2" points="57.07 15.76 30.09 0.34 15.2 8.94 15.2 8.94 15.2 26.13 42.18 41.54 42.18 24.4 57.07 15.76"/><polygon class="cls-3" points="15.2 26.07 42.18 41.49 42.18 24.34 15.2 8.88 15.2 8.88 15.2 26.07"/><path class="cls-1" d="M57.37,15.59,30.09,0,15,8.74l0,0h0v.34h0V26.3l27,15.42h0l.3.17.3-.17h0l14.74-8.51.15-.09V15.93h0ZM30.09.69,49.18,11.55,34.89,19.8,15.79,8.94ZM41.88,41,15.5,26V9.46L41.88,24.53Zm7.59-29.31,7,4-8.23,4.75L42.18,24l-7-4Z"/><path class="cls-1" d="M36.27,24.37l-2.76-1.59a.86.86,0,0,0-.87-.05,1.07,1.07,0,0,0-.46,1,2.38,2.38,0,0,0,1,1.93L36,27.22a1,1,0,0,0,.5.15.71.71,0,0,0,.37-.1,1.06,1.06,0,0,0,.45-1A2.41,2.41,0,0,0,36.27,24.37Zm.27,2.38a.29.29,0,0,1-.27,0l-2.76-1.6a1.76,1.76,0,0,1-.73-1.41c0-.27.08-.41.15-.45s.21,0,.28.05l.19.11a2.23,2.23,0,0,0,.93,1.6l2.36,1.36C36.68,26.59,36.61,26.72,36.54,26.75Z"/><path class="cls-3" d="M54.92,27.93a.46.46,0,0,0-.48,0l-2.2,1.27a1.35,1.35,0,0,0-.58,1.1v2.36a.6.6,0,0,0,.25.54.46.46,0,0,0,.2.05.63.63,0,0,0,.28-.08l2.19-1.27h0a1.36,1.36,0,0,0,.59-1.1V28.47A.6.6,0,0,0,54.92,27.93Z"/><polygon class="cls-3" points="10.42 41.31 0.42 35.54 0.42 23.99 10.42 29.76 10.42 41.31"/><polygon class="cls-3" points="20.42 23.99 10.42 29.76 0.42 23.99 10.42 18.21 20.42 23.99"/><polygon class="cls-2" points="20.42 25.14 11.43 30.27 1.43 24.5 10.42 19.37 20.42 25.14"/><path class="cls-1" d="M10.42,17.88l-10,5.77-.3.18V35.71l10,5.77h0l.3.17.29-.17h0l10-5.77V23.82Zm0,.67L19.83,24l-4.72,2.73-4.69,2.7-1.48-.85L1,24ZM.71,35.37V24.5l9.41,5.43V40.8Z"/><path class="cls-1" d="M8,37.85,6.48,37A1.07,1.07,0,0,1,6,36.13V34.52c0-.32.2-.47.44-.33L8,35.07a1.07,1.07,0,0,1,.44.84v1.61C8.45,37.84,8.25,38,8,37.85Z"/></g></g></svg>