<svg xmlns="http://www.w3.org/2000/svg" viewBox="0 0 29.77 36.06"><defs><style>.cls-1{fill:#16110d;}.cls-2{fill:#fec;}.cls-3{fill:#ffbe2e;}</style></defs><g id="Layer_2" data-name="Layer 2"><g id="content"><g id="_10" data-name="10"><path class="cls-1" d="M3.31,29.21a.25.25,0,0,1,0,.48.89.89,0,0,1-.84,0,.25.25,0,0,1,0-.48A1,1,0,0,1,3.31,29.21Z"/><path class="cls-1" d="M5.5,28a.25.25,0,0,1,0,.48,1,1,0,0,1-.84,0,.25.25,0,0,1,0-.48A.89.89,0,0,1,5.5,28Z"/><path class="cls-1" d="M1.12,28a.25.25,0,0,1,0,.48,1,1,0,0,1-.84,0,.25.25,0,0,1,0-.48A.89.89,0,0,1,1.12,28Z"/><path class="cls-1" d="M3.31,26.68a.26.26,0,0,1,0,.49,1,1,0,0,1-.84,0,.26.26,0,0,1,0-.49A1,1,0,0,1,3.31,26.68Z"/><path class="cls-1" d="M1.12,25.42a.25.25,0,0,1,0,.48.89.89,0,0,1-.84,0,.25.25,0,0,1,0-.48A1,1,0,0,1,1.12,25.42Z"/><path class="cls-1" d="M18.66,35.48a.25.25,0,0,1,0,.48,1,1,0,0,1-.84,0,.25.25,0,0,1,0-.48A.89.89,0,0,1,18.66,35.48Z"/><path class="cls-1" d="M20.85,34.21a.26.26,0,0,1,0,.49,1,1,0,0,1-.84,0,.26.26,0,0,1,0-.49A1,1,0,0,1,20.85,34.21Z"/><ellipse class="cls-1" cx="22.62" cy="33.19" rx="0.59" ry="0.34"/><path class="cls-1" d="M25.22,31.69a.25.25,0,0,1,0,.48.93.93,0,0,1-.83,0,.25.25,0,0,1,0-.48A.87.87,0,0,1,25.22,31.69Z"/><path class="cls-1" d="M27.41,30.43c.23.13.23.34,0,.48a1,1,0,0,1-.84,0c-.23-.14-.23-.35,0-.48A.89.89,0,0,1,27.41,30.43Z"/><ellipse class="cls-1" cx="29.18" cy="29.4" rx="0.59" ry="0.34"/><path class="cls-1" d="M14.29,35.48a.25.25,0,0,1,0,.48,1,1,0,0,1-.84,0,.25.25,0,0,1,0-.48A.89.89,0,0,1,14.29,35.48Z"/><ellipse class="cls-1" cx="16.06" cy="34.46" rx="0.59" ry="0.34"/><ellipse class="cls-1" cx="18.24" cy="33.19" rx="0.59" ry="0.34"/><path class="cls-1" d="M20.85,31.69a.25.25,0,0,1,0,.48,1,1,0,0,1-.84,0,.25.25,0,0,1,0-.48A.89.89,0,0,1,20.85,31.69Z"/><path class="cls-1" d="M23,30.43c.23.13.23.34,0,.48a1,1,0,0,1-.84,0c-.23-.14-.23-.35,0-.48A.89.89,0,0,1,23,30.43Z"/><path class="cls-1" d="M25.22,29.16a.26.26,0,0,1,0,.49.93.93,0,0,1-.83,0,.26.26,0,0,1,0-.49A.93.93,0,0,1,25.22,29.16Z"/><ellipse class="cls-1" cx="26.99" cy="28.14" rx="0.59" ry="0.34"/><path class="cls-1" d="M29.6,26.64a.25.25,0,0,1,0,.48,1,1,0,0,1-.84,0,.25.25,0,0,1,0-.48A.89.89,0,0,1,29.6,26.64Z"/><path class="cls-1" d="M12.08,34.2a.25.25,0,0,1,0,.48.89.89,0,0,1-.84,0,.25.25,0,0,1,0-.48A1,1,0,0,1,12.08,34.2Z"/><path class="cls-1" d="M14.27,32.94a.25.25,0,0,1,0,.48,1,1,0,0,1-.84,0,.25.25,0,0,1,0-.48A.89.89,0,0,1,14.27,32.94Z"/><path class="cls-1" d="M16.46,31.67a.26.26,0,0,1,0,.49,1,1,0,0,1-.84,0,.26.26,0,0,1,0-.49A1,1,0,0,1,16.46,31.67Z"/><path class="cls-1" d="M18.64,30.41a.26.26,0,0,1,0,.49.93.93,0,0,1-.83,0c-.24-.14-.24-.35,0-.49A.93.93,0,0,1,18.64,30.41Z"/><ellipse class="cls-1" cx="20.41" cy="29.39" rx="0.59" ry="0.34"/><ellipse class="cls-1" cx="22.6" cy="28.13" rx="0.59" ry="0.34"/><path class="cls-1" d="M25.2,26.62c.24.14.24.35,0,.49a.93.93,0,0,1-.83,0,.26.26,0,0,1,0-.49A.93.93,0,0,1,25.2,26.62Z"/><ellipse class="cls-1" cx="26.97" cy="25.6" rx="0.59" ry="0.34"/><path class="cls-1" d="M9.89,32.94a.25.25,0,0,1,0,.48.93.93,0,0,1-.83,0,.25.25,0,0,1,0-.48A.87.87,0,0,1,9.89,32.94Z"/><path class="cls-1" d="M12.08,31.67a.26.26,0,0,1,0,.49,1,1,0,0,1-.84,0,.26.26,0,0,1,0-.49A1,1,0,0,1,12.08,31.67Z"/><path class="cls-1" d="M14.27,30.9a1,1,0,0,1-.84,0,.26.26,0,0,1,0-.49C13.66,30.28,14.5,30.76,14.27,30.9Z"/><path class="cls-1" d="M7.71,31.67a.26.26,0,0,1,0,.49,1,1,0,0,1-.84,0,.26.26,0,0,1,0-.49A1,1,0,0,1,7.71,31.67Z"/><ellipse class="cls-1" cx="9.48" cy="30.65" rx="0.59" ry="0.34"/><path class="cls-1" d="M5.52,30.41a.26.26,0,0,1,0,.49,1,1,0,0,1-.84,0,.26.26,0,0,1,0-.49A1,1,0,0,1,5.52,30.41Z"/><path class="cls-1" d="M7.71,29.15a.25.25,0,0,1,0,.48.89.89,0,0,1-.84,0,.25.25,0,0,1,0-.48A1,1,0,0,1,7.71,29.15Z"/><polygon class="cls-2" points="27.08 8.05 13.68 0.31 0.27 8.05 0.27 8.05 0.27 23.53 13.68 31.27 13.68 15.83 27.08 8.05"/><polygon class="cls-3" points="0.27 23.48 13.68 31.22 13.68 15.78 0.27 8 0.27 8 0.27 23.48"/><path class="cls-1" d="M27.35,7.9,13.68,0,0,7.87l0,0H0v.3H0V23.69l13.41,7.74h0l.27.15.27-.15h0l13.27-7.67.13-.07V8.21h0ZM13.68.62,20,4.26,7.11,11.69.81,8.05Zm-.27,30.19L.54,23.38V8.52L13.41,16Zm5.72-18.48-5.45,3.15-6.3-3.64L20.25,4.41l6.3,3.64Z"/><path class="cls-1" d="M8.35,15.81,5.87,14.37a.8.8,0,0,0-.79,0,1,1,0,0,0-.41.87,2.15,2.15,0,0,0,.93,1.74l2.48,1.44a1,1,0,0,0,.45.13.69.69,0,0,0,.34-.09,1,1,0,0,0,.41-.87A2.15,2.15,0,0,0,8.35,15.81ZM8.6,18a.31.31,0,0,1-.25,0L5.87,16.48a1.62,1.62,0,0,1-.66-1.28c0-.24.08-.37.14-.4a.25.25,0,0,1,.25,0l.17.1a2,2,0,0,0,.84,1.44l2.12,1.23C8.72,17.81,8.66,17.92,8.6,18Z"/></g></g></g></svg>