<svg xmlns="http://www.w3.org/2000/svg" viewBox="0 0 99.29 111.35"><defs><style>.cls-1{fill:#16110d;}.cls-2{fill:#fec;}.cls-3{fill:#ffbe2e;}</style></defs><g id="Layer_2" data-name="Layer 2"><g id="content"><g id="_16" data-name="16"><path class="cls-1" d="M18.44,102.14c.23.14.23.35,0,.48a.87.87,0,0,1-.83,0c-.23-.13-.23-.34,0-.48A.93.93,0,0,1,18.44,102.14Z"/><ellipse class="cls-1" cx="20.2" cy="101.13" rx="0.59" ry="0.34"/><path class="cls-1" d="M16.26,100.89c.23.13.23.34,0,.48a.93.93,0,0,1-.83,0c-.23-.14-.23-.35,0-.48A.87.87,0,0,1,16.26,100.89Z"/><ellipse class="cls-1" cx="18.02" cy="99.87" rx="0.59" ry="0.34"/><path class="cls-1" d="M14.09,99.63a.25.25,0,0,1,0,.48,1,1,0,0,1-.84,0,.25.25,0,0,1,0-.48A1,1,0,0,1,14.09,99.63Z"/><path class="cls-1" d="M16.26,98.37a.25.25,0,0,1,0,.48.87.87,0,0,1-.83,0,.25.25,0,0,1,0-.48A.93.93,0,0,1,16.26,98.37Z"/><path class="cls-1" d="M11.91,98.37a.25.25,0,0,1,0,.48.87.87,0,0,1-.83,0,.25.25,0,0,1,0-.48A.93.93,0,0,1,11.91,98.37Z"/><ellipse class="cls-1" cx="13.67" cy="97.36" rx="0.59" ry="0.34"/><path class="cls-1" d="M9.73,97.12c.23.13.23.34,0,.48a.93.93,0,0,1-.83,0c-.23-.14-.23-.35,0-.48A.87.87,0,0,1,9.73,97.12Z"/><path class="cls-1" d="M11.91,95.86a.25.25,0,0,1,0,.48.93.93,0,0,1-.83,0,.25.25,0,0,1,0-.48A.93.93,0,0,1,11.91,95.86Z"/><path class="cls-1" d="M7.54,95.85c.23.13.23.34,0,.48a1,1,0,0,1-.84,0c-.23-.14-.23-.35,0-.48A.89.89,0,0,1,7.54,95.85Z"/><path class="cls-1" d="M9.71,94.59a.25.25,0,0,1,0,.48.93.93,0,0,1-.83,0,.25.25,0,0,1,0-.48A.93.93,0,0,1,9.71,94.59Z"/><ellipse class="cls-1" cx="4.94" cy="94.83" rx="0.59" ry="0.34"/><path class="cls-1" d="M7.54,93.33a.25.25,0,0,1,0,.48,1,1,0,0,1-.84,0,.25.25,0,0,1,0-.48A1,1,0,0,1,7.54,93.33Z"/><path class="cls-1" d="M3.18,93.33a.25.25,0,0,1,0,.48.93.93,0,0,1-.83,0,.25.25,0,0,1,0-.48A.93.93,0,0,1,3.18,93.33Z"/><path class="cls-1" d="M5.36,92.07a.26.26,0,0,1,0,.49.93.93,0,0,1-.83,0,.26.26,0,0,1,0-.49A.93.93,0,0,1,5.36,92.07Z"/><ellipse class="cls-1" cx="0.59" cy="92.31" rx="0.59" ry="0.34"/><ellipse class="cls-1" cx="2.77" cy="91.06" rx="0.59" ry="0.34"/><path class="cls-1" d="M1,89.56A.25.25,0,0,1,1,90a1,1,0,0,1-.84,0,.25.25,0,0,1,0-.48A1,1,0,0,1,1,89.56Z"/><path class="cls-1" d="M38.14,110.75c.23.14.23.35,0,.48a.89.89,0,0,1-.84,0c-.23-.13-.23-.34,0-.48A1,1,0,0,1,38.14,110.75Z"/><ellipse class="cls-1" cx="33.37" cy="110.99" rx="0.59" ry="0.34"/><ellipse class="cls-1" cx="35.54" cy="109.74" rx="0.59" ry="0.34"/><path class="cls-1" d="M31.61,109.5c.23.13.23.34,0,.48a1,1,0,0,1-.84,0c-.23-.14-.23-.35,0-.48A.89.89,0,0,1,31.61,109.5Z"/><ellipse class="cls-1" cx="33.37" cy="108.48" rx="0.59" ry="0.34"/><path class="cls-1" d="M29.43,108.24a.25.25,0,0,1,0,.48.93.93,0,0,1-.83,0,.25.25,0,0,1,0-.48A.93.93,0,0,1,29.43,108.24Z"/><ellipse class="cls-1" cx="31.19" cy="107.22" rx="0.59" ry="0.34"/><path class="cls-1" d="M27.23,107a.25.25,0,0,1,0,.48.93.93,0,0,1-.83,0,.25.25,0,0,1,0-.48A.93.93,0,0,1,27.23,107Z"/><ellipse class="cls-1" cx="28.99" cy="105.95" rx="0.59" ry="0.34"/><path class="cls-1" d="M25.06,105.71c.23.14.23.35,0,.48a.89.89,0,0,1-.84,0c-.23-.13-.23-.34,0-.48A1,1,0,0,1,25.06,105.71Z"/><ellipse class="cls-1" cx="26.82" cy="104.7" rx="0.59" ry="0.34"/><ellipse class="cls-1" cx="22.46" cy="104.7" rx="0.59" ry="0.34"/><path class="cls-1" d="M25.06,103.2a.25.25,0,0,1,0,.48,1,1,0,0,1-.84,0,.25.25,0,0,1,0-.48A1,1,0,0,1,25.06,103.2Z"/><path class="cls-1" d="M20.7,103.2a.25.25,0,0,1,0,.48.93.93,0,0,1-.83,0,.25.25,0,0,1,0-.48A.93.93,0,0,1,20.7,103.2Z"/><ellipse class="cls-1" cx="22.46" cy="102.18" rx="0.59" ry="0.34"/><path class="cls-1" d="M22.8,99.65c.23.13.23.34,0,.48a.93.93,0,0,1-.83,0c-.23-.14-.23-.35,0-.48A.87.87,0,0,1,22.8,99.65Z"/><path class="cls-1" d="M25,98.39a.25.25,0,0,1,0,.48.93.93,0,0,1-.83,0,.25.25,0,0,1,0-.48A.93.93,0,0,1,25,98.39Z"/><path class="cls-1" d="M27.16,97.13a.26.26,0,0,1,0,.48.89.89,0,0,1-.84,0,.25.25,0,0,1,0-.48A1,1,0,0,1,27.16,97.13Z"/><path class="cls-1" d="M29.33,95.87a.26.26,0,0,1,0,.49.93.93,0,0,1-.83,0,.26.26,0,0,1,0-.49A.93.93,0,0,1,29.33,95.87Z"/><path class="cls-1" d="M31.51,94.62a.25.25,0,0,1,0,.48.93.93,0,0,1-.83,0,.25.25,0,0,1,0-.48A.87.87,0,0,1,31.51,94.62Z"/><path class="cls-1" d="M33.69,93.36a.25.25,0,0,1,0,.48,1,1,0,0,1-.84,0,.25.25,0,0,1,0-.48A1,1,0,0,1,33.69,93.36Z"/><path class="cls-1" d="M35.86,92.1c.23.14.23.35,0,.48a.87.87,0,0,1-.83,0c-.23-.13-.23-.34,0-.48A.93.93,0,0,1,35.86,92.1Z"/><path class="cls-1" d="M37.21,90.85a.87.87,0,0,1,.83,0c.23.13.23.34,0,.48a.93.93,0,0,1-.83,0c-.23-.14-.23-.35,0-.48Z"/><ellipse class="cls-1" cx="39.8" cy="89.83" rx="0.59" ry="0.34"/><path class="cls-1" d="M42.39,88.33c.23.14.23.35,0,.48a.87.87,0,0,1-.83,0c-.23-.13-.23-.34,0-.48A.93.93,0,0,1,42.39,88.33Z"/><ellipse class="cls-1" cx="44.15" cy="87.32" rx="0.59" ry="0.34"/><ellipse class="cls-1" cx="46.33" cy="86.06" rx="0.59" ry="0.34"/><ellipse class="cls-1" cx="48.51" cy="84.8" rx="0.59" ry="0.34"/><path class="cls-1" d="M51.1,83.31c.23.13.23.34,0,.48a.93.93,0,0,1-.83,0c-.23-.14-.23-.35,0-.48A.87.87,0,0,1,51.1,83.31Z"/><path class="cls-1" d="M53.28,82.05a.25.25,0,0,1,0,.48.93.93,0,0,1-.83,0,.25.25,0,0,1,0-.48A.93.93,0,0,1,53.28,82.05Z"/><path class="cls-1" d="M55.46,80.79a.25.25,0,0,1,0,.48.89.89,0,0,1-.84,0,.25.25,0,0,1,0-.48A1,1,0,0,1,55.46,80.79Z"/><path class="cls-1" d="M57.63,79.53a.26.26,0,0,1,0,.49.93.93,0,0,1-.83,0,.26.26,0,0,1,0-.49A.93.93,0,0,1,57.63,79.53Z"/><path class="cls-1" d="M19.79,98.39a.93.93,0,0,1,.83,0,.25.25,0,0,1,0,.48.93.93,0,0,1-.83,0A.25.25,0,0,1,19.79,98.39Z"/><path class="cls-1" d="M22.8,97.13a.25.25,0,0,1,0,.48.87.87,0,0,1-.83,0,.25.25,0,0,1,0-.48A.93.93,0,0,1,22.8,97.13Z"/><path class="cls-1" d="M25,95.87a.26.26,0,0,1,0,.49.93.93,0,0,1-.83,0,.26.26,0,0,1,0-.49A.93.93,0,0,1,25,95.87Z"/><path class="cls-1" d="M27.16,94.62a.25.25,0,0,1,0,.48,1,1,0,0,1-.84,0,.25.25,0,0,1,0-.48A.89.89,0,0,1,27.16,94.62Z"/><path class="cls-1" d="M29.33,93.36a.25.25,0,0,1,0,.48.93.93,0,0,1-.83,0,.25.25,0,0,1,0-.48A.93.93,0,0,1,29.33,93.36Z"/><path class="cls-1" d="M40.22,87.08c.23.13.23.34,0,.48a1,1,0,0,1-.84,0C39.15,87.42,40,86.94,40.22,87.08Z"/><path class="cls-1" d="M42.39,85.82a.25.25,0,0,1,0,.48.93.93,0,0,1-.83,0,.25.25,0,0,1,0-.48A.93.93,0,0,1,42.39,85.82Z"/><path class="cls-1" d="M44.57,84.56c.23.14.23.35,0,.48a.87.87,0,0,1-.83,0c-.23-.13-.23-.34,0-.48A.93.93,0,0,1,44.57,84.56Z"/><path class="cls-1" d="M46.75,83.31c.23.13.23.34,0,.48a.93.93,0,0,1-.83,0c-.23-.14-.23-.35,0-.48A.87.87,0,0,1,46.75,83.31Z"/><path class="cls-1" d="M48.93,82.05a.25.25,0,0,1,0,.48,1,1,0,0,1-.84,0,.25.25,0,0,1,0-.48A1,1,0,0,1,48.93,82.05Z"/><ellipse class="cls-1" cx="50.69" cy="81.03" rx="0.59" ry="0.34"/><path class="cls-1" d="M53.28,79.53a.26.26,0,0,1,0,.49.93.93,0,0,1-.83,0,.26.26,0,0,1,0-.49A.93.93,0,0,1,53.28,79.53Z"/><ellipse class="cls-1" cx="55.04" cy="78.52" rx="0.59" ry="0.34"/><path class="cls-1" d="M17.61,97.13a.93.93,0,0,1,.83,0c.23.13.24.35,0,.48a.89.89,0,0,1-.84,0C17.38,97.48,17.38,97.27,17.61,97.13Z"/><path class="cls-1" d="M20.62,95.87a.26.26,0,0,1,0,.49.93.93,0,0,1-.83,0,.26.26,0,0,1,0-.49A.93.93,0,0,1,20.62,95.87Z"/><path class="cls-1" d="M22.8,94.62a.25.25,0,0,1,0,.48.93.93,0,0,1-.83,0,.25.25,0,0,1,0-.48A.87.87,0,0,1,22.8,94.62Z"/><path class="cls-1" d="M25,93.36a.25.25,0,0,1,0,.48.93.93,0,0,1-.83,0,.25.25,0,0,1,0-.48A.93.93,0,0,1,25,93.36Z"/><path class="cls-1" d="M41.56,83.31a.87.87,0,0,1,.83,0c.23.13.23.34,0,.48a.93.93,0,0,1-.83,0C41.33,83.65,41.33,83.44,41.56,83.31Z"/><ellipse class="cls-1" cx="44.15" cy="82.29" rx="0.59" ry="0.34"/><ellipse class="cls-1" cx="46.33" cy="81.03" rx="0.59" ry="0.34"/><ellipse class="cls-1" cx="48.51" cy="79.78" rx="0.59" ry="0.34"/><path class="cls-1" d="M51.1,78.28a.25.25,0,0,1,0,.48.93.93,0,0,1-.83,0,.25.25,0,0,1,0-.48A.93.93,0,0,1,51.1,78.28Z"/><ellipse class="cls-1" cx="52.86" cy="77.26" rx="0.59" ry="0.34"/><path class="cls-1" d="M15.43,95.88a.89.89,0,0,1,.84,0c.23.13.23.34,0,.48a.93.93,0,0,1-.83,0C15.21,96.22,15.2,96,15.43,95.88Z"/><path class="cls-1" d="M18.45,94.62a.25.25,0,0,1,0,.48,1,1,0,0,1-.84,0,.25.25,0,0,1,0-.48A.89.89,0,0,1,18.45,94.62Z"/><path class="cls-1" d="M20.62,93.36a.25.25,0,0,1,0,.48.93.93,0,0,1-.83,0,.25.25,0,0,1,0-.48A.93.93,0,0,1,20.62,93.36Z"/><path class="cls-1" d="M22.8,92.1c.23.14.23.35,0,.48a.87.87,0,0,1-.83,0c-.23-.13-.23-.34,0-.48A.93.93,0,0,1,22.8,92.1Z"/><path class="cls-1" d="M45.92,78.28a.93.93,0,0,1,.83,0,.25.25,0,0,1,0,.48.93.93,0,0,1-.83,0,.25.25,0,0,1,0-.48Z"/><path class="cls-1" d="M48.93,77a.25.25,0,0,1,0,.48,1,1,0,0,1-.84,0,.25.25,0,0,1,0-.48A1,1,0,0,1,48.93,77Z"/><ellipse class="cls-1" cx="50.69" cy="76" rx="0.59" ry="0.34"/><path class="cls-1" d="M13.26,94.62a.93.93,0,0,1,.83,0,.25.25,0,0,1,0,.48.93.93,0,0,1-.83,0A.25.25,0,0,1,13.26,94.62Z"/><path class="cls-1" d="M16.27,93.36a.25.25,0,0,1,0,.48.93.93,0,0,1-.83,0,.25.25,0,0,1,0-.48A.93.93,0,0,1,16.27,93.36Z"/><path class="cls-1" d="M18.45,92.1c.23.14.23.35,0,.48a.89.89,0,0,1-.84,0c-.23-.13-.23-.34,0-.48A1,1,0,0,1,18.45,92.1Z"/><path class="cls-1" d="M20.62,90.85a.25.25,0,0,1,0,.48.93.93,0,0,1-.83,0,.25.25,0,0,1,0-.48A.87.87,0,0,1,20.62,90.85Z"/><path class="cls-1" d="M11.06,93.35a.93.93,0,0,1,.83,0c.23.13.24.35,0,.48a1,1,0,0,1-.84,0A.25.25,0,0,1,11.06,93.35Z"/><path class="cls-1" d="M14.07,92.09a.25.25,0,0,1,0,.48.93.93,0,0,1-.83,0,.25.25,0,0,1,0-.48A.93.93,0,0,1,14.07,92.09Z"/><ellipse class="cls-1" cx="15.83" cy="91.07" rx="0.59" ry="0.34"/><path class="cls-1" d="M18.43,89.58c.23.13.23.34,0,.48a.93.93,0,0,1-.83,0c-.23-.14-.23-.35,0-.48a.87.87,0,0,1,.83,0C18.66,89.71,18.2,89.44,18.43,89.58Z"/><path class="cls-1" d="M8.88,92.09a1,1,0,0,1,.84,0,.25.25,0,0,1,0,.48.87.87,0,0,1-.83,0A.26.26,0,0,1,8.88,92.09Z"/><path class="cls-1" d="M11.9,90.83c.23.14.23.35,0,.48a.89.89,0,0,1-.84,0c-.23-.13-.23-.34,0-.48A1,1,0,0,1,11.9,90.83Z"/><path class="cls-1" d="M14.07,89.58c.23.13.23.34,0,.48a.93.93,0,0,1-.83,0c-.23-.14-.23-.35,0-.48A.87.87,0,0,1,14.07,89.58Z"/><path class="cls-1" d="M16.25,88.32a.25.25,0,0,1,0,.48.93.93,0,0,1-.83,0,.25.25,0,0,1,0-.48A.93.93,0,0,1,16.25,88.32Z"/><path class="cls-1" d="M6.71,90.84a.9.9,0,0,1,.83,0,.26.26,0,0,1,0,.49.93.93,0,0,1-.83,0C6.48,91.18,6.48,91,6.71,90.84Z"/><path class="cls-1" d="M9.72,89.58c.23.13.23.34,0,.48a.93.93,0,0,1-.83,0c-.23-.14-.23-.35,0-.48A.87.87,0,0,1,9.72,89.58Z"/><path class="cls-1" d="M11.9,88.32a.25.25,0,0,1,0,.48,1,1,0,0,1-.84,0,.25.25,0,0,1,0-.48A1,1,0,0,1,11.9,88.32Z"/><path class="cls-1" d="M14.07,87.06c.23.14.23.35,0,.48a.87.87,0,0,1-.83,0c-.23-.13-.23-.34,0-.48A.93.93,0,0,1,14.07,87.06Z"/><path class="cls-1" d="M4.53,89.58a.93.93,0,0,1,.83,0,.25.25,0,0,1,0,.48.93.93,0,0,1-.83,0A.25.25,0,0,1,4.53,89.58Z"/><path class="cls-1" d="M7.54,88.32a.25.25,0,0,1,0,.48.93.93,0,0,1-.83,0,.25.25,0,0,1,0-.48A.93.93,0,0,1,7.54,88.32Z"/><path class="cls-1" d="M9.72,87.06c.23.14.23.35,0,.48a.87.87,0,0,1-.83,0c-.23-.13-.23-.34,0-.48A.93.93,0,0,1,9.72,87.06Z"/><path class="cls-1" d="M2.35,88.32a1,1,0,0,1,.84,0,.25.25,0,0,1,0,.48.93.93,0,0,1-.83,0C2.12,88.67,2.12,88.45,2.35,88.32Z"/><path class="cls-1" d="M5.37,87.06c.23.14.23.35,0,.48a.89.89,0,0,1-.84,0c-.23-.13-.23-.34,0-.48A1,1,0,0,1,5.37,87.06Z"/><path class="cls-1" d="M7.54,85.81c.23.13.23.34,0,.48a.93.93,0,0,1-.83,0c-.23-.14-.23-.35,0-.48A.87.87,0,0,1,7.54,85.81Z"/><path class="cls-1" d="M.18,87.06a.93.93,0,0,1,.83,0c.23.14.23.35,0,.48a.9.9,0,0,1-.83,0A.26.26,0,0,1,.18,87.06Z"/><path class="cls-1" d="M3.19,85.81c.23.13.23.34,0,.48a.93.93,0,0,1-.83,0c-.23-.14-.23-.35,0-.48A.87.87,0,0,1,3.19,85.81Z"/><path class="cls-1" d="M1,84.55A.25.25,0,0,1,1,85a.93.93,0,0,1-.83,0,.25.25,0,0,1,0-.48A.93.93,0,0,1,1,84.55Z"/><path class="cls-1" d="M41.66,110.77a1,1,0,0,1,.84,0,.25.25,0,0,1,0,.48,1,1,0,0,1-.84,0A.25.25,0,0,1,41.66,110.77Z"/><ellipse class="cls-1" cx="44.26" cy="109.75" rx="0.59" ry="0.34"/><path class="cls-1" d="M46.85,108.26c.23.13.23.34,0,.48a.93.93,0,0,1-.83,0c-.23-.14-.23-.35,0-.48A.87.87,0,0,1,46.85,108.26Z"/><path class="cls-1" d="M49,107a.25.25,0,0,1,0,.48.93.93,0,0,1-.83,0,.25.25,0,0,1,0-.48A.93.93,0,0,1,49,107Z"/><ellipse class="cls-1" cx="50.79" cy="105.98" rx="0.59" ry="0.34"/><ellipse class="cls-1" cx="52.97" cy="104.73" rx="0.59" ry="0.34"/><ellipse class="cls-1" cx="55.14" cy="103.47" rx="0.59" ry="0.34"/><path class="cls-1" d="M57.74,102a.25.25,0,0,1,0,.48,1,1,0,0,1-.84,0,.25.25,0,0,1,0-.48A1,1,0,0,1,57.74,102Z"/><path class="cls-1" d="M59.91,100.71a.26.26,0,0,1,0,.49.93.93,0,0,1-.83,0,.26.26,0,0,1,0-.49A.93.93,0,0,1,59.91,100.71Z"/><path class="cls-1" d="M62.09,99.46a.25.25,0,0,1,0,.48.93.93,0,0,1-.83,0,.25.25,0,0,1,0-.48A.87.87,0,0,1,62.09,99.46Z"/><path class="cls-1" d="M64.27,98.2a.25.25,0,0,1,0,.48.93.93,0,0,1-.83,0,.25.25,0,0,1,0-.48A.93.93,0,0,1,64.27,98.2Z"/><path class="cls-1" d="M66.45,96.94c.23.14.23.35,0,.48a.89.89,0,0,1-.84,0c-.23-.13-.23-.34,0-.48A1,1,0,0,1,66.45,96.94Z"/><path class="cls-1" d="M68.62,95.69c.23.13.23.34,0,.48a.93.93,0,0,1-.83,0c-.23-.14-.23-.35,0-.48A.87.87,0,0,1,68.62,95.69Z"/><path class="cls-1" d="M70.8,94.43a.25.25,0,0,1,0,.48.93.93,0,0,1-.83,0,.25.25,0,0,1,0-.48A.93.93,0,0,1,70.8,94.43Z"/><path class="cls-1" d="M73,93.17c.23.14.23.35,0,.48a.89.89,0,0,1-.84,0c-.23-.13-.23-.34,0-.48A1,1,0,0,1,73,93.17Z"/><path class="cls-1" d="M75.15,91.92c.23.13.23.34,0,.48a.93.93,0,0,1-.83,0c-.23-.14-.23-.35,0-.48A.87.87,0,0,1,75.15,91.92Z"/><path class="cls-1" d="M77.33,90.66a.25.25,0,0,1,0,.48.93.93,0,0,1-.83,0,.25.25,0,0,1,0-.48A.93.93,0,0,1,77.33,90.66Z"/><path class="cls-1" d="M39.49,109.51a.93.93,0,0,1,.83,0c.23.14.23.35,0,.48a.9.9,0,0,1-.83,0A.26.26,0,0,1,39.49,109.51Z"/><ellipse class="cls-1" cx="42.08" cy="108.5" rx="0.59" ry="0.34"/><path class="cls-1" d="M44.68,107a.25.25,0,0,1,0,.48,1,1,0,0,1-.84,0,.25.25,0,0,1,0-.48A1,1,0,0,1,44.68,107Z"/><path class="cls-1" d="M46.85,105.74a.25.25,0,0,1,0,.48.87.87,0,0,1-.83,0,.25.25,0,0,1,0-.48A.93.93,0,0,1,46.85,105.74Z"/><path class="cls-1" d="M49,104.49c.23.13.23.34,0,.48a.93.93,0,0,1-.83,0c-.23-.14-.23-.35,0-.48A.87.87,0,0,1,49,104.49Z"/><path class="cls-1" d="M51.21,103.23a.25.25,0,0,1,0,.48,1,1,0,0,1-.84,0,.25.25,0,0,1,0-.48A1,1,0,0,1,51.21,103.23Z"/><ellipse class="cls-1" cx="52.97" cy="102.21" rx="0.59" ry="0.34"/><path class="cls-1" d="M55.56,100.71a.26.26,0,0,1,0,.49.93.93,0,0,1-.83,0,.26.26,0,0,1,0-.49A.93.93,0,0,1,55.56,100.71Z"/><path class="cls-1" d="M57.74,99.46a.25.25,0,0,1,0,.48,1,1,0,0,1-.84,0,.25.25,0,0,1,0-.48A.89.89,0,0,1,57.74,99.46Z"/><ellipse class="cls-1" cx="59.5" cy="98.44" rx="0.59" ry="0.34"/><ellipse class="cls-1" cx="61.68" cy="97.18" rx="0.59" ry="0.34"/><path class="cls-1" d="M64.27,95.69c.23.13.23.34,0,.48a.93.93,0,0,1-.83,0c-.23-.14-.23-.35,0-.48A.87.87,0,0,1,64.27,95.69Z"/><path class="cls-1" d="M66.45,94.43a.25.25,0,0,1,0,.48,1,1,0,0,1-.84,0,.25.25,0,0,1,0-.48A1,1,0,0,1,66.45,94.43Z"/><path class="cls-1" d="M68.62,93.17c.23.14.23.35,0,.48a.87.87,0,0,1-.83,0c-.23-.13-.23-.34,0-.48A.93.93,0,0,1,68.62,93.17Z"/><path class="cls-1" d="M70.8,91.92c.23.13.23.34,0,.48a.93.93,0,0,1-.83,0c-.23-.14-.23-.35,0-.48A.87.87,0,0,1,70.8,91.92Z"/><path class="cls-1" d="M73,90.66a.25.25,0,0,1,0,.48,1,1,0,0,1-.84,0,.25.25,0,0,1,0-.48A1,1,0,0,1,73,90.66Z"/><path class="cls-1" d="M75.15,89.4a.25.25,0,0,1,0,.48.87.87,0,0,1-.83,0,.25.25,0,0,1,0-.48A.93.93,0,0,1,75.15,89.4Z"/><path class="cls-1" d="M37.31,108.26a.87.87,0,0,1,.83,0c.23.13.23.34,0,.48a.93.93,0,0,1-.83,0A.25.25,0,0,1,37.31,108.26Z"/><path class="cls-1" d="M40.32,107a.25.25,0,0,1,0,.48.93.93,0,0,1-.83,0,.25.25,0,0,1,0-.48A.93.93,0,0,1,40.32,107Z"/><path class="cls-1" d="M42.5,105.74a.25.25,0,0,1,0,.48.87.87,0,0,1-.83,0,.25.25,0,0,1,0-.48A.93.93,0,0,1,42.5,105.74Z"/><ellipse class="cls-1" cx="44.26" cy="104.73" rx="0.59" ry="0.34"/><ellipse class="cls-1" cx="46.44" cy="103.47" rx="0.59" ry="0.34"/><path class="cls-1" d="M49,102a.25.25,0,0,1,0,.48.93.93,0,0,1-.83,0,.25.25,0,0,1,0-.48A.93.93,0,0,1,49,102Z"/><path class="cls-1" d="M51.21,100.71a.26.26,0,0,1,0,.49,1,1,0,0,1-.84,0,.26.26,0,0,1,0-.49A1,1,0,0,1,51.21,100.71Z"/><path class="cls-1" d="M53.38,99.46a.25.25,0,0,1,0,.48.93.93,0,0,1-.83,0,.25.25,0,0,1,0-.48A.87.87,0,0,1,53.38,99.46Z"/><path class="cls-1" d="M55.56,98.2a.25.25,0,0,1,0,.48.93.93,0,0,1-.83,0,.25.25,0,0,1,0-.48A.93.93,0,0,1,55.56,98.2Z"/><path class="cls-1" d="M57.74,96.94c.23.14.23.35,0,.48a.89.89,0,0,1-.84,0c-.23-.13-.23-.34,0-.48A1,1,0,0,1,57.74,96.94Z"/><path class="cls-1" d="M59.91,95.69c.23.13.23.34,0,.48a.93.93,0,0,1-.83,0c-.23-.14-.23-.35,0-.48A.87.87,0,0,1,59.91,95.69Z"/><path class="cls-1" d="M62.09,94.43a.25.25,0,0,1,0,.48.93.93,0,0,1-.83,0,.25.25,0,0,1,0-.48A.93.93,0,0,1,62.09,94.43Z"/><path class="cls-1" d="M64.27,93.17c.23.14.23.35,0,.48a.87.87,0,0,1-.83,0c-.23-.13-.23-.34,0-.48A.93.93,0,0,1,64.27,93.17Z"/><ellipse class="cls-1" cx="66.03" cy="92.16" rx="0.59" ry="0.34"/><path class="cls-1" d="M68.62,90.66a.25.25,0,0,1,0,.48.93.93,0,0,1-.83,0,.25.25,0,0,1,0-.48A.93.93,0,0,1,68.62,90.66Z"/><path class="cls-1" d="M70.8,89.4a.25.25,0,0,1,0,.48.87.87,0,0,1-.83,0,.25.25,0,0,1,0-.48A.93.93,0,0,1,70.8,89.4Z"/><path class="cls-1" d="M73,88.15c.23.13.23.34,0,.48a1,1,0,0,1-.84,0c-.23-.14-.23-.35,0-.48A.89.89,0,0,1,73,88.15Z"/><path class="cls-1" d="M35.13,107a.93.93,0,0,1,.83,0c.23.13.24.35,0,.48a1,1,0,0,1-.84,0A.25.25,0,0,1,35.13,107Z"/><path class="cls-1" d="M38.14,105.74a.25.25,0,0,1,0,.48.87.87,0,0,1-.83,0,.25.25,0,0,1,0-.48A.93.93,0,0,1,38.14,105.74Z"/><ellipse class="cls-1" cx="39.9" cy="104.73" rx="0.59" ry="0.34"/><path class="cls-1" d="M42.5,103.23a.25.25,0,0,1,0,.48.93.93,0,0,1-.83,0,.25.25,0,0,1,0-.48A.93.93,0,0,1,42.5,103.23Z"/><ellipse class="cls-1" cx="44.26" cy="102.21" rx="0.59" ry="0.34"/><path class="cls-1" d="M46.85,100.71a.26.26,0,0,1,0,.49.93.93,0,0,1-.83,0,.26.26,0,0,1,0-.49A.93.93,0,0,1,46.85,100.71Z"/><path class="cls-1" d="M49,99.46a.25.25,0,0,1,0,.48.93.93,0,0,1-.83,0,.25.25,0,0,1,0-.48A.87.87,0,0,1,49,99.46Z"/><ellipse class="cls-1" cx="50.79" cy="98.44" rx="0.59" ry="0.34"/><ellipse class="cls-1" cx="52.97" cy="97.18" rx="0.59" ry="0.34"/><path class="cls-1" d="M55.56,95.69c.23.13.23.34,0,.48a.93.93,0,0,1-.83,0c-.23-.14-.23-.35,0-.48A.87.87,0,0,1,55.56,95.69Z"/><ellipse class="cls-1" cx="57.32" cy="94.67" rx="0.59" ry="0.34"/><path class="cls-1" d="M59.91,93.17c.23.14.23.35,0,.48a.87.87,0,0,1-.83,0c-.23-.13-.23-.34,0-.48A.93.93,0,0,1,59.91,93.17Z"/><path class="cls-1" d="M62.09,91.92c.23.13.23.34,0,.48a.93.93,0,0,1-.83,0c-.23-.14-.23-.35,0-.48A.87.87,0,0,1,62.09,91.92Z"/><path class="cls-1" d="M64.27,90.66a.25.25,0,0,1,0,.48.93.93,0,0,1-.83,0,.25.25,0,0,1,0-.48A.93.93,0,0,1,64.27,90.66Z"/><path class="cls-1" d="M66.45,89.4a.25.25,0,0,1,0,.48.89.89,0,0,1-.84,0,.25.25,0,0,1,0-.48A1,1,0,0,1,66.45,89.4Z"/><ellipse class="cls-1" cx="68.21" cy="88.39" rx="0.59" ry="0.34"/><path class="cls-1" d="M70.8,86.89a.25.25,0,0,1,0,.48.93.93,0,0,1-.83,0,.25.25,0,0,1,0-.48A.93.93,0,0,1,70.8,86.89Z"/><path class="cls-1" d="M33,105.74a1,1,0,0,1,.84,0c.23.14.23.35,0,.48a.87.87,0,0,1-.83,0A.26.26,0,0,1,33,105.74Z"/><path class="cls-1" d="M36,104.49c.23.13.23.34,0,.48a1,1,0,0,1-.84,0c-.23-.14-.23-.35,0-.48A.89.89,0,0,1,36,104.49Z"/><ellipse class="cls-1" cx="37.73" cy="103.47" rx="0.59" ry="0.34"/><ellipse class="cls-1" cx="39.9" cy="102.21" rx="0.59" ry="0.34"/><path class="cls-1" d="M42.5,100.71a.26.26,0,0,1,0,.49.93.93,0,0,1-.83,0,.26.26,0,0,1,0-.49A.93.93,0,0,1,42.5,100.71Z"/><path class="cls-1" d="M44.68,99.46a.25.25,0,0,1,0,.48,1,1,0,0,1-.84,0,.25.25,0,0,1,0-.48A.89.89,0,0,1,44.68,99.46Z"/><path class="cls-1" d="M46.85,98.2a.25.25,0,0,1,0,.48.93.93,0,0,1-.83,0,.25.25,0,0,1,0-.48A.93.93,0,0,1,46.85,98.2Z"/><path class="cls-1" d="M49,96.94c.23.14.23.35,0,.48a.87.87,0,0,1-.83,0c-.23-.13-.23-.34,0-.48A.93.93,0,0,1,49,96.94Z"/><path class="cls-1" d="M51.21,95.69c.23.13.23.34,0,.48a1,1,0,0,1-.84,0c-.23-.14-.23-.35,0-.48A.89.89,0,0,1,51.21,95.69Z"/><ellipse class="cls-1" cx="52.97" cy="94.67" rx="0.59" ry="0.34"/><path class="cls-1" d="M55.56,93.17c.23.14.23.35,0,.48a.87.87,0,0,1-.83,0c-.23-.13-.23-.34,0-.48A.93.93,0,0,1,55.56,93.17Z"/><ellipse class="cls-1" cx="57.32" cy="92.16" rx="0.59" ry="0.34"/><path class="cls-1" d="M59.91,90.66a.25.25,0,0,1,0,.48.93.93,0,0,1-.83,0,.25.25,0,0,1,0-.48A.93.93,0,0,1,59.91,90.66Z"/><path class="cls-1" d="M62.09,89.4a.25.25,0,0,1,0,.48.87.87,0,0,1-.83,0,.25.25,0,0,1,0-.48A.93.93,0,0,1,62.09,89.4Z"/><path class="cls-1" d="M64.27,88.15c.23.13.23.34,0,.48a.93.93,0,0,1-.83,0c-.23-.14-.23-.35,0-.48A.87.87,0,0,1,64.27,88.15Z"/><path class="cls-1" d="M66.45,86.89a.25.25,0,0,1,0,.48,1,1,0,0,1-.84,0,.25.25,0,0,1,0-.48A1,1,0,0,1,66.45,86.89Z"/><path class="cls-1" d="M68.62,85.63a.25.25,0,0,1,0,.48.93.93,0,0,1-.83,0,.25.25,0,0,1,0-.48A.93.93,0,0,1,68.62,85.63Z"/><path class="cls-1" d="M30.76,104.47a.93.93,0,0,1,.83,0c.23.14.23.35,0,.48a.87.87,0,0,1-.83,0C30.53,104.82,30.53,104.61,30.76,104.47Z"/><path class="cls-1" d="M33.77,103.21a.26.26,0,0,1,0,.49.93.93,0,0,1-.83,0,.26.26,0,0,1,0-.49A.93.93,0,0,1,33.77,103.21Z"/><path class="cls-1" d="M36,102a.25.25,0,0,1,0,.48.93.93,0,0,1-.83,0,.25.25,0,0,1,0-.48A.93.93,0,0,1,36,102Z"/><ellipse class="cls-1" cx="37.71" cy="100.94" rx="0.59" ry="0.34"/><ellipse class="cls-1" cx="39.89" cy="99.68" rx="0.59" ry="0.34"/><path class="cls-1" d="M42.48,98.19a.25.25,0,0,1,0,.48.93.93,0,0,1-.83,0,.25.25,0,0,1,0-.48A.87.87,0,0,1,42.48,98.19Z"/><path class="cls-1" d="M44.66,96.93a.25.25,0,0,1,0,.48,1,1,0,0,1-.84,0,.25.25,0,0,1,0-.48A1,1,0,0,1,44.66,96.93Z"/><path class="cls-1" d="M46.83,95.67c.23.14.23.35,0,.48a.87.87,0,0,1-.83,0c-.23-.13-.23-.34,0-.48A.93.93,0,0,1,46.83,95.67Z"/><ellipse class="cls-1" cx="48.59" cy="94.66" rx="0.59" ry="0.34"/><path class="cls-1" d="M51.19,93.16a.25.25,0,0,1,0,.48,1,1,0,0,1-.84,0,.26.26,0,0,1,0-.48A1,1,0,0,1,51.19,93.16Z"/><path class="cls-1" d="M53.36,91.9c.23.14.23.35,0,.48a.87.87,0,0,1-.83,0c-.23-.13-.23-.34,0-.48A.93.93,0,0,1,53.36,91.9Z"/><path class="cls-1" d="M55.54,90.65c.23.13.23.34,0,.48a.93.93,0,0,1-.83,0c-.23-.14-.23-.35,0-.48A.87.87,0,0,1,55.54,90.65Z"/><path class="cls-1" d="M57.72,89.39a.25.25,0,0,1,0,.48.93.93,0,0,1-.83,0,.25.25,0,0,1,0-.48A.93.93,0,0,1,57.72,89.39Z"/><ellipse class="cls-1" cx="59.48" cy="88.37" rx="0.59" ry="0.34"/><path class="cls-1" d="M62.07,86.88c.23.13.23.34,0,.48a.93.93,0,0,1-.83,0c-.23-.14-.23-.35,0-.48A.87.87,0,0,1,62.07,86.88Z"/><path class="cls-1" d="M64.25,85.62a.25.25,0,0,1,0,.48.93.93,0,0,1-.83,0,.25.25,0,0,1,0-.48A.93.93,0,0,1,64.25,85.62Z"/><path class="cls-1" d="M66.43,84.36a.25.25,0,0,1,0,.48,1,1,0,0,1-.84,0,.25.25,0,0,1,0-.48A1,1,0,0,1,66.43,84.36Z"/><path class="cls-1" d="M28.58,103.22a.87.87,0,0,1,.83,0c.23.13.24.34,0,.48a1,1,0,0,1-.84,0C28.35,103.56,28.35,103.35,28.58,103.22Z"/><path class="cls-1" d="M31.59,102a.25.25,0,0,1,0,.48.93.93,0,0,1-.83,0,.25.25,0,0,1,0-.48A.93.93,0,0,1,31.59,102Z"/><path class="cls-1" d="M33.77,100.7a.25.25,0,0,1,0,.48.93.93,0,0,1-.83,0,.25.25,0,0,1,0-.48A.93.93,0,0,1,33.77,100.7Z"/><path class="cls-1" d="M36,99.44c.23.14.23.35,0,.48a.87.87,0,0,1-.83,0c-.23-.13-.23-.34,0-.48A.93.93,0,0,1,36,99.44Z"/><path class="cls-1" d="M38.13,98.19a.25.25,0,0,1,0,.48,1,1,0,0,1-.84,0,.25.25,0,0,1,0-.48A.89.89,0,0,1,38.13,98.19Z"/><ellipse class="cls-1" cx="39.89" cy="97.17" rx="0.59" ry="0.34"/><ellipse class="cls-1" cx="42.06" cy="95.91" rx="0.59" ry="0.34"/><ellipse class="cls-1" cx="44.24" cy="94.66" rx="0.59" ry="0.34"/><ellipse class="cls-1" cx="46.42" cy="93.4" rx="0.59" ry="0.34"/><ellipse class="cls-1" cx="48.59" cy="92.14" rx="0.59" ry="0.34"/><path class="cls-1" d="M51.19,90.65c.23.13.23.34,0,.48a1,1,0,0,1-.84,0,.26.26,0,0,1,0-.48A.87.87,0,0,1,51.19,90.65Z"/><path class="cls-1" d="M53.36,89.39a.25.25,0,0,1,0,.48.93.93,0,0,1-.83,0,.25.25,0,0,1,0-.48A.93.93,0,0,1,53.36,89.39Z"/><path class="cls-1" d="M55.54,88.13a.25.25,0,0,1,0,.48.87.87,0,0,1-.83,0,.25.25,0,0,1,0-.48A.93.93,0,0,1,55.54,88.13Z"/><path class="cls-1" d="M57.72,86.88c.23.13.23.34,0,.48a.93.93,0,0,1-.83,0c-.23-.14-.23-.35,0-.48A.87.87,0,0,1,57.72,86.88Z"/><path class="cls-1" d="M59.9,85.62a.25.25,0,0,1,0,.48,1,1,0,0,1-.84,0,.25.25,0,0,1,0-.48A1,1,0,0,1,59.9,85.62Z"/><path class="cls-1" d="M62.07,84.36a.25.25,0,0,1,0,.48.93.93,0,0,1-.83,0,.25.25,0,0,1,0-.48A.93.93,0,0,1,62.07,84.36Z"/><ellipse class="cls-1" cx="63.83" cy="83.34" rx="0.59" ry="0.34"/><path class="cls-1" d="M26.4,102a1,1,0,0,1,.84,0,.25.25,0,0,1,0,.48.93.93,0,0,1-.83,0A.26.26,0,0,1,26.4,102Z"/><path class="cls-1" d="M29.42,100.7a.25.25,0,0,1,0,.48,1,1,0,0,1-.84,0,.25.25,0,0,1,0-.48A1,1,0,0,1,29.42,100.7Z"/><ellipse class="cls-1" cx="31.18" cy="99.68" rx="0.59" ry="0.34"/><path class="cls-1" d="M33.77,98.19a.25.25,0,0,1,0,.48.93.93,0,0,1-.83,0,.25.25,0,0,1,0-.48A.87.87,0,0,1,33.77,98.19Z"/><ellipse class="cls-1" cx="35.53" cy="97.17" rx="0.59" ry="0.34"/><path class="cls-1" d="M38.13,95.67c.23.14.23.35,0,.48a.89.89,0,0,1-.84,0c-.23-.13-.23-.34,0-.48A1,1,0,0,1,38.13,95.67Z"/><ellipse class="cls-1" cx="39.89" cy="94.66" rx="0.59" ry="0.34"/><path class="cls-1" d="M42.48,93.16a.25.25,0,0,1,0,.48.93.93,0,0,1-.83,0,.25.25,0,0,1,0-.48A.93.93,0,0,1,42.48,93.16Z"/><ellipse class="cls-1" cx="44.24" cy="92.14" rx="0.59" ry="0.34"/><path class="cls-1" d="M46.83,90.65c.23.13.23.34,0,.48a.93.93,0,0,1-.83,0c-.23-.14-.23-.35,0-.48A.87.87,0,0,1,46.83,90.65Z"/><path class="cls-1" d="M49,89.39a.25.25,0,0,1,0,.48.93.93,0,0,1-.83,0,.25.25,0,0,1,0-.48A.93.93,0,0,1,49,89.39Z"/><path class="cls-1" d="M51.19,88.13a.25.25,0,0,1,0,.48.87.87,0,0,1-.83,0,.25.25,0,0,1,0-.48A.93.93,0,0,1,51.19,88.13Z"/><path class="cls-1" d="M53.36,86.88c.23.13.23.34,0,.48a.93.93,0,0,1-.83,0c-.23-.14-.23-.35,0-.48A.87.87,0,0,1,53.36,86.88Z"/><path class="cls-1" d="M55.54,85.62a.25.25,0,0,1,0,.48.93.93,0,0,1-.83,0,.25.25,0,0,1,0-.48A.93.93,0,0,1,55.54,85.62Z"/><path class="cls-1" d="M57.72,84.36a.25.25,0,0,1,0,.48.93.93,0,0,1-.83,0,.25.25,0,0,1,0-.48A.93.93,0,0,1,57.72,84.36Z"/><path class="cls-1" d="M59.9,83.1a.26.26,0,0,1,0,.49,1,1,0,0,1-.84,0,.26.26,0,0,1,0-.49A1,1,0,0,1,59.9,83.1Z"/><path class="cls-1" d="M62.07,81.85a.25.25,0,0,1,0,.48.93.93,0,0,1-.83,0,.25.25,0,0,1,0-.48A.87.87,0,0,1,62.07,81.85Z"/><path class="cls-1" d="M24.23,100.7a.93.93,0,0,1,.83,0,.25.25,0,0,1,0,.48.87.87,0,0,1-.83,0C24,101.05,24,100.84,24.23,100.7Z"/><path class="cls-1" d="M27.24,99.44c.23.14.23.35,0,.48a.87.87,0,0,1-.83,0c-.23-.13-.23-.34,0-.48A.93.93,0,0,1,27.24,99.44Z"/><path class="cls-1" d="M29.42,98.19a.25.25,0,0,1,0,.48,1,1,0,0,1-.84,0,.25.25,0,0,1,0-.48A.89.89,0,0,1,29.42,98.19Z"/><ellipse class="cls-1" cx="31.18" cy="97.17" rx="0.59" ry="0.34"/><path class="cls-1" d="M33.77,95.67c.23.14.23.35,0,.48a.87.87,0,0,1-.83,0c-.23-.13-.23-.34,0-.48A.93.93,0,0,1,33.77,95.67Z"/><path class="cls-1" d="M36,94.42c.23.13.23.34,0,.48a.93.93,0,0,1-.83,0c-.23-.14-.23-.35,0-.48A.87.87,0,0,1,36,94.42Z"/><ellipse class="cls-1" cx="37.71" cy="93.4" rx="0.59" ry="0.34"/><path class="cls-1" d="M40.3,91.9c.23.14.23.35,0,.48a.87.87,0,0,1-.83,0c-.23-.13-.23-.34,0-.48A.93.93,0,0,1,40.3,91.9Z"/><ellipse class="cls-1" cx="42.06" cy="90.89" rx="0.59" ry="0.34"/><ellipse class="cls-1" cx="44.24" cy="89.63" rx="0.59" ry="0.34"/><path class="cls-1" d="M46.83,88.13a.25.25,0,0,1,0,.48.87.87,0,0,1-.83,0,.25.25,0,0,1,0-.48A.93.93,0,0,1,46.83,88.13Z"/><path class="cls-1" d="M49,86.88c.23.13.23.34,0,.48a.93.93,0,0,1-.83,0c-.23-.14-.23-.35,0-.48A.87.87,0,0,1,49,86.88Z"/><path class="cls-1" d="M51.19,85.62a.25.25,0,0,1,0,.48.93.93,0,0,1-.83,0,.25.25,0,0,1,0-.48A.93.93,0,0,1,51.19,85.62Z"/><path class="cls-1" d="M53.36,84.36a.25.25,0,0,1,0,.48.93.93,0,0,1-.83,0,.25.25,0,0,1,0-.48A.93.93,0,0,1,53.36,84.36Z"/><path class="cls-1" d="M55.54,83.1a.26.26,0,0,1,0,.49.93.93,0,0,1-.83,0,.26.26,0,0,1,0-.49A.93.93,0,0,1,55.54,83.1Z"/><path class="cls-1" d="M57.72,81.85a.25.25,0,0,1,0,.48.93.93,0,0,1-.83,0,.25.25,0,0,1,0-.48A.87.87,0,0,1,57.72,81.85Z"/><path class="cls-1" d="M59.9,80.59a.25.25,0,0,1,0,.48,1,1,0,0,1-.84,0,.25.25,0,0,1,0-.48A1,1,0,0,1,59.9,80.59Z"/><path class="cls-1" d="M59.83,78.29a.25.25,0,0,1,0,.48.93.93,0,0,1-.83,0,.25.25,0,0,1,0-.48A.93.93,0,0,1,59.83,78.29Z"/><path class="cls-1" d="M62,77a.25.25,0,0,1,0,.48.89.89,0,0,1-.84,0,.25.25,0,0,1,0-.48A1,1,0,0,1,62,77Z"/><ellipse class="cls-1" cx="63.77" cy="76.02" rx="0.59" ry="0.34"/><path class="cls-1" d="M66.36,74.52a.25.25,0,0,1,0,.48.93.93,0,0,1-.83,0,.25.25,0,0,1,0-.48A.93.93,0,0,1,66.36,74.52Z"/><ellipse class="cls-1" cx="68.12" cy="73.5" rx="0.59" ry="0.34"/><path class="cls-1" d="M70.71,72c.23.14.23.35,0,.48a.87.87,0,0,1-.83,0c-.23-.13-.23-.34,0-.48A.93.93,0,0,1,70.71,72Z"/><path class="cls-1" d="M72.89,70.75a.25.25,0,0,1,0,.48.93.93,0,0,1-.83,0,.25.25,0,0,1,0-.48A.87.87,0,0,1,72.89,70.75Z"/><path class="cls-1" d="M75.07,69.49a.25.25,0,0,1,0,.48,1,1,0,0,1-.84,0,.25.25,0,0,1,0-.48A1,1,0,0,1,75.07,69.49Z"/><ellipse class="cls-1" cx="76.83" cy="68.47" rx="0.59" ry="0.34"/><ellipse class="cls-1" cx="79.01" cy="67.22" rx="0.59" ry="0.34"/><path class="cls-1" d="M56.82,77a.93.93,0,0,1,.83,0,.25.25,0,0,1,0,.48.87.87,0,0,1-.83,0C56.59,77.38,56.59,77.17,56.82,77Z"/><path class="cls-1" d="M59.83,75.77a.26.26,0,0,1,0,.49.93.93,0,0,1-.83,0,.26.26,0,0,1,0-.49A.93.93,0,0,1,59.83,75.77Z"/><path class="cls-1" d="M62,74.52A.25.25,0,0,1,62,75a1,1,0,0,1-.84,0,.25.25,0,0,1,0-.48A1,1,0,0,1,62,74.52Z"/><ellipse class="cls-1" cx="63.77" cy="73.5" rx="0.59" ry="0.34"/><ellipse class="cls-1" cx="65.94" cy="72.24" rx="0.59" ry="0.34"/><ellipse class="cls-1" cx="68.12" cy="70.99" rx="0.59" ry="0.34"/><path class="cls-1" d="M70.71,69.49a.25.25,0,0,1,0,.48.93.93,0,0,1-.83,0,.25.25,0,0,1,0-.48A.93.93,0,0,1,70.71,69.49Z"/><ellipse class="cls-1" cx="72.47" cy="68.47" rx="0.59" ry="0.34"/><path class="cls-1" d="M54.64,75.78a.87.87,0,0,1,.83,0c.23.13.23.34,0,.48a.93.93,0,0,1-.83,0C54.41,76.12,54.41,75.91,54.64,75.78Z"/><path class="cls-1" d="M57.65,74.52a.25.25,0,0,1,0,.48.93.93,0,0,1-.83,0,.25.25,0,0,1,0-.48A.93.93,0,0,1,57.65,74.52Z"/><ellipse class="cls-1" cx="59.41" cy="73.5" rx="0.59" ry="0.34"/><path class="cls-1" d="M62,72c.23.14.23.35,0,.48a.89.89,0,0,1-.84,0c-.23-.13-.23-.34,0-.48A1,1,0,0,1,62,72Z"/><ellipse class="cls-1" cx="63.77" cy="70.99" rx="0.59" ry="0.34"/><path class="cls-1" d="M66.36,69.49a.25.25,0,0,1,0,.48.93.93,0,0,1-.83,0,.25.25,0,0,1,0-.48A.93.93,0,0,1,66.36,69.49Z"/><path class="cls-1" d="M68.54,68.23c.23.14.23.35,0,.48a.89.89,0,0,1-.84,0c-.23-.13-.23-.34,0-.48A1,1,0,0,1,68.54,68.23Z"/><path class="cls-1" d="M52.46,74.52a.93.93,0,0,1,.83,0c.23.13.24.35,0,.48a1,1,0,0,1-.84,0A.25.25,0,0,1,52.46,74.52Z"/><path class="cls-1" d="M55.47,73.26a.25.25,0,0,1,0,.48.93.93,0,0,1-.83,0,.25.25,0,0,1,0-.48A.93.93,0,0,1,55.47,73.26Z"/><path class="cls-1" d="M57.65,72c.23.14.23.35,0,.48a.87.87,0,0,1-.83,0c-.23-.13-.23-.34,0-.48A.93.93,0,0,1,57.65,72Z"/><path class="cls-1" d="M59.83,70.75a.25.25,0,0,1,0,.48.93.93,0,0,1-.83,0,.25.25,0,0,1,0-.48A.87.87,0,0,1,59.83,70.75Z"/><ellipse class="cls-1" cx="61.59" cy="69.73" rx="0.59" ry="0.34"/><path class="cls-1" d="M50.28,73.26a1,1,0,0,1,.84,0,.25.25,0,0,1,0,.48.87.87,0,0,1-.83,0A.26.26,0,0,1,50.28,73.26Z"/><path class="cls-1" d="M52.46,72a1,1,0,0,1,.84,0c.23.14.23.35,0,.48a.89.89,0,0,1-.84,0c-.23-.13-.23-.34,0-.48S52.23,72.14,52.46,72Z"/><path class="cls-1" d="M54.64,70.75a.87.87,0,0,1,.83,0,.25.25,0,0,1,0,.48.93.93,0,0,1-.83,0,.25.25,0,0,1,0-.48C54.87,70.61,54.41,70.88,54.64,70.75Z"/><path class="cls-1" d="M57.65,69.49a.25.25,0,0,1,0,.48.93.93,0,0,1-.83,0C56.59,69.84,57.42,69.36,57.65,69.49Z"/><path class="cls-1" d="M78.69,89.41a.93.93,0,0,1,.83,0c.23.14.23.35,0,.48a.9.9,0,0,1-.83,0A.26.26,0,0,1,78.69,89.41Z"/><path class="cls-1" d="M81.7,88.16c.23.13.23.34,0,.48a.93.93,0,0,1-.83,0c-.23-.14-.23-.35,0-.48A.87.87,0,0,1,81.7,88.16Z"/><ellipse class="cls-1" cx="83.46" cy="87.14" rx="0.59" ry="0.34"/><ellipse class="cls-1" cx="85.64" cy="85.88" rx="0.59" ry="0.34"/><path class="cls-1" d="M88.23,84.39c.23.13.23.34,0,.48a.93.93,0,0,1-.83,0c-.23-.14-.23-.35,0-.48A.87.87,0,0,1,88.23,84.39Z"/><ellipse class="cls-1" cx="89.99" cy="83.37" rx="0.59" ry="0.34"/><path class="cls-1" d="M92.59,81.87a.25.25,0,0,1,0,.48,1,1,0,0,1-.84,0,.26.26,0,0,1,0-.48A.93.93,0,0,1,92.59,81.87Z"/><path class="cls-1" d="M94.76,80.61a.26.26,0,0,1,0,.49.93.93,0,0,1-.83,0,.26.26,0,0,1,0-.49A.93.93,0,0,1,94.76,80.61Z"/><path class="cls-1" d="M96.94,79.36a.25.25,0,0,1,0,.48.93.93,0,0,1-.83,0,.25.25,0,0,1,0-.48A.87.87,0,0,1,96.94,79.36Z"/><path class="cls-1" d="M99.12,78.1a.25.25,0,0,1,0,.48.93.93,0,0,1-.83,0,.25.25,0,0,1,0-.48A.93.93,0,0,1,99.12,78.1Z"/><path class="cls-1" d="M76.51,88.16a.89.89,0,0,1,.84,0c.23.13.23.34,0,.48a1,1,0,0,1-.84,0A.25.25,0,0,1,76.51,88.16Z"/><path class="cls-1" d="M79.53,86.9a.25.25,0,0,1,0,.48,1,1,0,0,1-.84,0,.25.25,0,0,1,0-.48A1,1,0,0,1,79.53,86.9Z"/><path class="cls-1" d="M81.7,85.64a.25.25,0,0,1,0,.48.87.87,0,0,1-.83,0,.25.25,0,0,1,0-.48A.93.93,0,0,1,81.7,85.64Z"/><ellipse class="cls-1" cx="83.46" cy="84.63" rx="0.59" ry="0.34"/><ellipse class="cls-1" cx="85.64" cy="83.37" rx="0.59" ry="0.34"/><path class="cls-1" d="M88.23,81.87a.25.25,0,0,1,0,.48.93.93,0,0,1-.83,0,.25.25,0,0,1,0-.48A.93.93,0,0,1,88.23,81.87Z"/><path class="cls-1" d="M90.41,80.61a.26.26,0,0,1,0,.49.93.93,0,0,1-.83,0,.26.26,0,0,1,0-.49A.93.93,0,0,1,90.41,80.61Z"/><path class="cls-1" d="M92.59,79.36a.25.25,0,0,1,0,.48.93.93,0,0,1-.83,0,.25.25,0,0,1,0-.48A.87.87,0,0,1,92.59,79.36Z"/><path class="cls-1" d="M94.76,78.1a.25.25,0,0,1,0,.48.93.93,0,0,1-.83,0,.25.25,0,0,1,0-.48A.93.93,0,0,1,94.76,78.1Z"/><path class="cls-1" d="M96.94,76.84c.23.14.23.35,0,.48a.87.87,0,0,1-.83,0c-.23-.13-.23-.34,0-.48A.93.93,0,0,1,96.94,76.84Z"/><path class="cls-1" d="M99.12,75.59c.23.13.23.34,0,.48a.93.93,0,0,1-.83,0c-.23-.14-.23-.35,0-.48A.87.87,0,0,1,99.12,75.59Z"/><path class="cls-1" d="M74.34,86.9a.93.93,0,0,1,.83,0,.25.25,0,0,1,0,.48.93.93,0,0,1-.83,0A.25.25,0,0,1,74.34,86.9Z"/><ellipse class="cls-1" cx="76.93" cy="85.88" rx="0.59" ry="0.34"/><ellipse class="cls-1" cx="79.11" cy="84.63" rx="0.59" ry="0.34"/><path class="cls-1" d="M81.7,83.13a.25.25,0,0,1,0,.48.93.93,0,0,1-.83,0,.25.25,0,0,1,0-.48A.93.93,0,0,1,81.7,83.13Z"/><path class="cls-1" d="M83.88,81.87a.25.25,0,0,1,0,.48.93.93,0,0,1-.83,0,.25.25,0,0,1,0-.48A.93.93,0,0,1,83.88,81.87Z"/><path class="cls-1" d="M86.06,80.61a.26.26,0,0,1,0,.49,1,1,0,0,1-.84,0,.26.26,0,0,1,0-.49A1,1,0,0,1,86.06,80.61Z"/><path class="cls-1" d="M88.23,79.36a.25.25,0,0,1,0,.48.93.93,0,0,1-.83,0,.25.25,0,0,1,0-.48A.87.87,0,0,1,88.23,79.36Z"/><path class="cls-1" d="M90.41,78.1a.25.25,0,0,1,0,.48.93.93,0,0,1-.83,0,.25.25,0,0,1,0-.48A.93.93,0,0,1,90.41,78.1Z"/><ellipse class="cls-1" cx="92.17" cy="77.08" rx="0.59" ry="0.34"/><path class="cls-1" d="M94.76,75.59c.23.13.23.34,0,.48a.93.93,0,0,1-.83,0c-.23-.14-.23-.35,0-.48A.87.87,0,0,1,94.76,75.59Z"/><path class="cls-1" d="M96.94,74.33a.25.25,0,0,1,0,.48.93.93,0,0,1-.83,0,.25.25,0,0,1,0-.48A.93.93,0,0,1,96.94,74.33Z"/><path class="cls-1" d="M99.12,73.07c.23.14.23.35,0,.48a.87.87,0,0,1-.83,0c-.23-.13-.23-.34,0-.48A.93.93,0,0,1,99.12,73.07Z"/><path class="cls-1" d="M72.16,85.64a.93.93,0,0,1,.83,0c.23.14.23.35,0,.48a.87.87,0,0,1-.83,0C71.93,86,71.93,85.78,72.16,85.64Z"/><path class="cls-1" d="M75.17,84.39c.23.13.23.34,0,.48a.93.93,0,0,1-.83,0c-.23-.14-.23-.35,0-.48A.87.87,0,0,1,75.17,84.39Z"/><path class="cls-1" d="M77.35,83.13a.25.25,0,0,1,0,.48.93.93,0,0,1-.83,0,.25.25,0,0,1,0-.48A.93.93,0,0,1,77.35,83.13Z"/><path class="cls-1" d="M79.53,81.87a.25.25,0,0,1,0,.48,1,1,0,0,1-.84,0,.25.25,0,0,1,0-.48A1,1,0,0,1,79.53,81.87Z"/><path class="cls-1" d="M81.7,80.61a.26.26,0,0,1,0,.49.93.93,0,0,1-.83,0,.26.26,0,0,1,0-.49A.93.93,0,0,1,81.7,80.61Z"/><ellipse class="cls-1" cx="83.46" cy="79.6" rx="0.59" ry="0.34"/><path class="cls-1" d="M86.06,78.1a.25.25,0,0,1,0,.48,1,1,0,0,1-.84,0,.25.25,0,0,1,0-.48A1,1,0,0,1,86.06,78.1Z"/><path class="cls-1" d="M88.23,76.84c.23.14.23.35,0,.48a.87.87,0,0,1-.83,0c-.23-.13-.23-.34,0-.48A.93.93,0,0,1,88.23,76.84Z"/><path class="cls-1" d="M90.41,75.59c.23.13.23.34,0,.48a.93.93,0,0,1-.83,0c-.23-.14-.23-.35,0-.48A.87.87,0,0,1,90.41,75.59Z"/><ellipse class="cls-1" cx="92.17" cy="74.57" rx="0.59" ry="0.34"/><path class="cls-1" d="M94.76,73.07c.23.14.23.35,0,.48a.87.87,0,0,1-.83,0c-.23-.13-.23-.34,0-.48A.93.93,0,0,1,94.76,73.07Z"/><path class="cls-1" d="M96.94,71.82c.23.13.23.34,0,.48a.93.93,0,0,1-.83,0c-.23-.14-.23-.35,0-.48A.87.87,0,0,1,96.94,71.82Z"/><path class="cls-1" d="M70,84.39a.87.87,0,0,1,.83,0c.23.13.24.34,0,.48a1,1,0,0,1-.84,0C69.75,84.73,69.75,84.52,70,84.39Z"/><ellipse class="cls-1" cx="72.58" cy="83.37" rx="0.59" ry="0.34"/><path class="cls-1" d="M75.17,81.87a.25.25,0,0,1,0,.48.93.93,0,0,1-.83,0,.25.25,0,0,1,0-.48A.93.93,0,0,1,75.17,81.87Z"/><ellipse class="cls-1" cx="76.93" cy="80.85" rx="0.59" ry="0.34"/><ellipse class="cls-1" cx="79.11" cy="79.6" rx="0.59" ry="0.34"/><path class="cls-1" d="M81.7,78.1a.25.25,0,0,1,0,.48.93.93,0,0,1-.83,0,.25.25,0,0,1,0-.48A.93.93,0,0,1,81.7,78.1Z"/><path class="cls-1" d="M83.88,76.84c.23.14.23.35,0,.48a.87.87,0,0,1-.83,0c-.23-.13-.23-.34,0-.48A.93.93,0,0,1,83.88,76.84Z"/><path class="cls-1" d="M86.06,75.59c.23.13.23.34,0,.48a1,1,0,0,1-.84,0c-.23-.14-.23-.35,0-.48A.89.89,0,0,1,86.06,75.59Z"/><path class="cls-1" d="M88.23,74.33a.25.25,0,0,1,0,.48.93.93,0,0,1-.83,0,.25.25,0,0,1,0-.48A.93.93,0,0,1,88.23,74.33Z"/><path class="cls-1" d="M90.41,73.07c.23.14.23.35,0,.48a.87.87,0,0,1-.83,0c-.23-.13-.23-.34,0-.48A.93.93,0,0,1,90.41,73.07Z"/><path class="cls-1" d="M92.59,71.82c.23.13.23.34,0,.48a.93.93,0,0,1-.83,0c-.23-.14-.23-.35,0-.48A.87.87,0,0,1,92.59,71.82Z"/><ellipse class="cls-1" cx="94.35" cy="70.8" rx="0.59" ry="0.34"/><path class="cls-1" d="M67.79,83.12a.87.87,0,0,1,.83,0c.23.13.23.34,0,.48a.93.93,0,0,1-.83,0C67.56,83.46,67.56,83.25,67.79,83.12Z"/><ellipse class="cls-1" cx="70.38" cy="82.1" rx="0.59" ry="0.34"/><ellipse class="cls-1" cx="72.56" cy="80.84" rx="0.59" ry="0.34"/><ellipse class="cls-1" cx="74.74" cy="79.58" rx="0.59" ry="0.34"/><path class="cls-1" d="M77.33,78.09a.25.25,0,0,1,0,.48.93.93,0,0,1-.83,0,.25.25,0,0,1,0-.48A.87.87,0,0,1,77.33,78.09Z"/><path class="cls-1" d="M79.51,76.83a.25.25,0,0,1,0,.48,1,1,0,0,1-.84,0,.25.25,0,0,1,0-.48A1,1,0,0,1,79.51,76.83Z"/><path class="cls-1" d="M81.68,75.57c.23.14.23.35,0,.48a.87.87,0,0,1-.83,0c-.23-.13-.23-.34,0-.48A.93.93,0,0,1,81.68,75.57Z"/><path class="cls-1" d="M83.86,74.32c.23.13.23.34,0,.48a.93.93,0,0,1-.83,0c-.23-.14-.23-.35,0-.48A.87.87,0,0,1,83.86,74.32Z"/><ellipse class="cls-1" cx="85.62" cy="73.3" rx="0.59" ry="0.34"/><path class="cls-1" d="M88.21,71.8c.23.14.23.35,0,.48a.87.87,0,0,1-.83,0c-.23-.13-.23-.34,0-.48A.93.93,0,0,1,88.21,71.8Z"/><path class="cls-1" d="M90.39,70.55c.23.13.23.34,0,.48a.93.93,0,0,1-.83,0c-.23-.14-.23-.35,0-.48A.87.87,0,0,1,90.39,70.55Z"/><path class="cls-1" d="M92.57,69.29a.25.25,0,0,1,0,.48.93.93,0,0,1-.83,0,.25.25,0,0,1,0-.48A.93.93,0,0,1,92.57,69.29Z"/><path class="cls-1" d="M65.61,81.86a.93.93,0,0,1,.83,0,.25.25,0,0,1,0,.48.93.93,0,0,1-.83,0A.25.25,0,0,1,65.61,81.86Z"/><path class="cls-1" d="M68.62,80.6a.25.25,0,0,1,0,.48.93.93,0,0,1-.83,0,.25.25,0,0,1,0-.48A.93.93,0,0,1,68.62,80.6Z"/><path class="cls-1" d="M70.8,79.34c.23.14.23.35,0,.48a.87.87,0,0,1-.83,0c-.23-.13-.23-.34,0-.48A.93.93,0,0,1,70.8,79.34Z"/><path class="cls-1" d="M73,78.09a.25.25,0,0,1,0,.48,1,1,0,0,1-.84,0,.25.25,0,0,1,0-.48A.89.89,0,0,1,73,78.09Z"/><path class="cls-1" d="M75.15,76.83a.25.25,0,0,1,0,.48.93.93,0,0,1-.83,0,.25.25,0,0,1,0-.48A.93.93,0,0,1,75.15,76.83Z"/><path class="cls-1" d="M77.33,75.57c.23.14.23.35,0,.48a.87.87,0,0,1-.83,0c-.23-.13-.23-.34,0-.48A.93.93,0,0,1,77.33,75.57Z"/><path class="cls-1" d="M79.51,74.32c.23.13.23.34,0,.48a1,1,0,0,1-.84,0c-.23-.14-.23-.35,0-.48A.89.89,0,0,1,79.51,74.32Z"/><path class="cls-1" d="M81.68,73.06a.25.25,0,0,1,0,.48.93.93,0,0,1-.83,0,.25.25,0,0,1,0-.48A.93.93,0,0,1,81.68,73.06Z"/><path class="cls-1" d="M83.86,71.8c.23.14.23.35,0,.48a.87.87,0,0,1-.83,0c-.23-.13-.23-.34,0-.48A.93.93,0,0,1,83.86,71.8Z"/><path class="cls-1" d="M86,70.55c.23.13.23.34,0,.48a.93.93,0,0,1-.83,0c-.23-.14-.23-.35,0-.48A.87.87,0,0,1,86,70.55Z"/><path class="cls-1" d="M88.21,69.29a.25.25,0,0,1,0,.48.93.93,0,0,1-.83,0,.25.25,0,0,1,0-.48A.93.93,0,0,1,88.21,69.29Z"/><path class="cls-1" d="M90.39,68a.25.25,0,0,1,0,.48.87.87,0,0,1-.83,0,.25.25,0,0,1,0-.48A.93.93,0,0,1,90.39,68Z"/><path class="cls-1" d="M63.43,80.6a.93.93,0,0,1,.83,0c.23.13.24.35,0,.48a.89.89,0,0,1-.84,0C63.2,81,63.2,80.74,63.43,80.6Z"/><path class="cls-1" d="M66.44,79.34c.23.14.23.35,0,.48a.87.87,0,0,1-.83,0c-.23-.13-.23-.34,0-.48A.93.93,0,0,1,66.44,79.34Z"/><ellipse class="cls-1" cx="68.21" cy="78.33" rx="0.59" ry="0.34"/><path class="cls-1" d="M70.8,76.83a.25.25,0,0,1,0,.48.93.93,0,0,1-.83,0,.25.25,0,0,1,0-.48A.93.93,0,0,1,70.8,76.83Z"/><path class="cls-1" d="M73,75.57c.23.14.23.35,0,.48a.89.89,0,0,1-.84,0c-.23-.13-.23-.34,0-.48A1,1,0,0,1,73,75.57Z"/><path class="cls-1" d="M75.15,74.32c.23.13.23.34,0,.48a.93.93,0,0,1-.83,0c-.23-.14-.23-.35,0-.48A.87.87,0,0,1,75.15,74.32Z"/><path class="cls-1" d="M77.33,73.06a.25.25,0,0,1,0,.48.93.93,0,0,1-.83,0,.25.25,0,0,1,0-.48A.93.93,0,0,1,77.33,73.06Z"/><path class="cls-1" d="M79.51,71.8c.23.14.23.35,0,.48a.89.89,0,0,1-.84,0c-.23-.13-.23-.34,0-.48A1,1,0,0,1,79.51,71.8Z"/><path class="cls-1" d="M81.68,70.55c.23.13.23.34,0,.48a.93.93,0,0,1-.83,0c-.23-.14-.23-.35,0-.48A.87.87,0,0,1,81.68,70.55Z"/><path class="cls-1" d="M83.86,69.29a.25.25,0,0,1,0,.48.93.93,0,0,1-.83,0,.25.25,0,0,1,0-.48A.93.93,0,0,1,83.86,69.29Z"/><path class="cls-1" d="M86,68a.25.25,0,0,1,0,.48.87.87,0,0,1-.83,0,.25.25,0,0,1,0-.48A.93.93,0,0,1,86,68Z"/><path class="cls-1" d="M61.26,79.35a.87.87,0,0,1,.83,0c.23.13.23.34,0,.48a.93.93,0,0,1-.83,0C61,79.69,61,79.48,61.26,79.35Z"/><ellipse class="cls-1" cx="63.85" cy="78.33" rx="0.59" ry="0.34"/><path class="cls-1" d="M66.44,76.83a.25.25,0,0,1,0,.48.93.93,0,0,1-.83,0,.25.25,0,0,1,0-.48A.93.93,0,0,1,66.44,76.83Z"/><path class="cls-1" d="M68.62,75.57c.23.14.23.35,0,.48a.87.87,0,0,1-.83,0c-.23-.13-.23-.34,0-.48A.93.93,0,0,1,68.62,75.57Z"/><ellipse class="cls-1" cx="70.38" cy="74.56" rx="0.59" ry="0.34"/><path class="cls-1" d="M73,73.06a.25.25,0,0,1,0,.48,1,1,0,0,1-.84,0,.25.25,0,0,1,0-.48A1,1,0,0,1,73,73.06Z"/><path class="cls-1" d="M75.15,71.8c.23.14.23.35,0,.48a.87.87,0,0,1-.83,0c-.23-.13-.23-.34,0-.48A.93.93,0,0,1,75.15,71.8Z"/><path class="cls-1" d="M77.33,70.55c.23.13.23.34,0,.48a.93.93,0,0,1-.83,0c-.23-.14-.23-.35,0-.48A.87.87,0,0,1,77.33,70.55Z"/><path class="cls-1" d="M79.51,69.29a.25.25,0,0,1,0,.48,1,1,0,0,1-.84,0,.25.25,0,0,1,0-.48A1,1,0,0,1,79.51,69.29Z"/><path class="cls-1" d="M81.68,68a.25.25,0,0,1,0,.48.87.87,0,0,1-.83,0,.25.25,0,0,1,0-.48A.93.93,0,0,1,81.68,68Z"/><path class="cls-1" d="M83.86,66.78c.23.13.23.34,0,.48a.93.93,0,0,1-.83,0c-.23-.14-.23-.35,0-.48A.87.87,0,0,1,83.86,66.78Z"/><path class="cls-2" d="M65.55,54.93,91.29,31.16l-25-14.47-.71-.4c-1.32-.74-1.85-1-2.92-.41L20.06,40.59a3,3,0,0,0-1.29,1.83l-3.11,17L8.08,67.31a3.81,3.81,0,0,0-.84,2.2L9.5,78.29l.75,2.77-1,.87.13,1.2L13,81.88l0-2.47c.28-1.93.91-5.6,3.82-7.42,5.18-3.23,5.44,4.77,5.59,6.35.05.49.43.67.88.41l6-3.36.69.79,13-1,20.6-18.6,1.88-1.06Z"/><path class="cls-1" d="M9.18,82.41,9,80.86,10,80l-.71-2.65L7,68.52a4,4,0,0,1,.88-2.33l7.56-7.85,3.09-17a3.26,3.26,0,0,1,1.4-2L62.49,14.71c1.17-.63,1.77-.35,3.12.41l.71.41,25.23,14.6L65.68,54v.67l-2,1.12L43.08,74.43l1.65,8L29.89,75.39l-.65-.74-5.86,3.28a.81.81,0,0,1-.79.07.76.76,0,0,1-.39-.64c0-.1,0-.23,0-.39-.12-1.47-.43-5.4-2.28-6.33-.79-.39-1.78-.22-3,.53-2.61,1.63-3.36,4.74-3.72,7.27l0,2.59ZM9.43,81l.09.85,3.24-1.13,0-2.33c.38-2.64,1.16-5.86,3.91-7.58,1.32-.82,2.45-1,3.36-.55,2.06,1,2.37,5,2.51,6.66,0,.15,0,.28,0,.38a.41.41,0,0,0,.17.33.46.46,0,0,0,.42-.07l6.13-3.44.74.84,14.31,6.57L63.46,55.49l1.82-1v-.61l.07-.06L90.89,30.21,65.42,15.47c-1.33-.75-1.76-.94-2.73-.41L20.1,39.77a2.85,2.85,0,0,0-1.21,1.7L15.78,58.53,8.15,66.45A5.22,5.22,0,0,0,7.37,69l2.26,8.28.77,2.88Z"/><path class="cls-2" d="M7.23,85h0l27.4,15.8,8.49-25.63L36.44,71.4h0l-20.71-12L8.14,67.26a3.78,3.78,0,0,0-.84,2.2Z"/><path class="cls-1" d="M34.61,100.16,6.9,84.18,7,68.52a4,4,0,0,1,.88-2.33l7.71-8,20.85,12.1,6.82,3.86ZM7.3,84,34.39,99.57l8.36-25.24-6.54-3.7L15.63,58.68,8.15,66.45a3.6,3.6,0,0,0-.78,2.07Z"/><rect class="cls-1" x="20.9" y="59.49" width="0.4" height="31.63" transform="translate(-54.67 55.93) rotate(-60.01)"/><rect class="cls-1" x="32.48" y="32.79" width="0.4" height="31.63" transform="translate(-25.75 52.61) rotate(-60)"/><path class="cls-1" d="M30.8,80.75a1.74,1.74,0,0,1-.88-.24L11.22,69.72a1,1,0,0,1-.51-.76,1.06,1.06,0,0,1,.27-.88l5.1-5.43a1.46,1.46,0,0,1,1.79-.28L36.46,72.89a1.49,1.49,0,0,1,.75,1.1,1.54,1.54,0,0,1-.4,1.28L32.08,80.2A1.76,1.76,0,0,1,30.8,80.75ZM17.15,62.38a1.3,1.3,0,0,0-.93.4l-5.09,5.44a.85.85,0,0,0,.19,1.33L30,80.34a1.57,1.57,0,0,0,1.92-.28l4.72-4.93A1.31,1.31,0,0,0,37,74a1.34,1.34,0,0,0-.66-1L17.77,62.55A1.16,1.16,0,0,0,17.15,62.38Z"/><path class="cls-1" d="M35.45,50.16,28,45.86l.15-.08L73.31,19.7,80.76,24l-.15.08Zm-7.05-4.3,7.05,4.07L80.36,24l-7-4.07Z"/><path class="cls-3" d="M43.9,48.79,31.22,41.48c-.66-.39-.58-1.06.19-1.5L36,37.34a2.84,2.84,0,0,1,2.59-.11l12.68,7.32c.66.38.58,1.05-.19,1.49l-4.58,2.65A2.86,2.86,0,0,1,43.9,48.79Z"/><path class="cls-1" d="M51.52,43.5,38.84,36.18a3,3,0,0,0-2.79.1l-4.58,2.65a1.25,1.25,0,0,0-.73,1,1,1,0,0,0,.54.82L44,48.09a2.51,2.51,0,0,0,1.23.29,3.2,3.2,0,0,0,1.56-.4l4.58-2.64a1.26,1.26,0,0,0,.74-1A1,1,0,0,0,51.52,43.5ZM51.13,45l-4.57,2.65a2.72,2.72,0,0,1-2.4.1L31.63,40.51l4.57-2.64a2.75,2.75,0,0,1,2.49-.11L51.17,45Zm.22-.14L38.79,37.59a3,3,0,0,0-2.69.11l-4.58,2.64-.08,0a.55.55,0,0,1-.31-.44c0-.24.2-.48.54-.68l4.58-2.64a2.73,2.73,0,0,1,2.39-.11l12.68,7.32a.59.59,0,0,1,.35.48A.75.75,0,0,1,51.35,44.85Z"/><path class="cls-1" d="M37.51,41.53a.75.75,0,0,0-.43.61.61.61,0,0,0,.33.52l3.28,1.89a1.41,1.41,0,0,0,.69.16,1.73,1.73,0,0,0,.87-.22.75.75,0,0,0,.43-.61.59.59,0,0,0-.33-.51l-3.28-1.9A1.72,1.72,0,0,0,37.51,41.53Z"/><path class="cls-3" d="M12.54,74.47l-2.46-1.41a.54.54,0,0,0-.57,0,.68.68,0,0,0-.3.63v4.68a1.57,1.57,0,0,0,.67,1.26L12.34,81a.6.6,0,0,0,.32.1.45.45,0,0,0,.25-.07.69.69,0,0,0,.29-.63V75.73A1.57,1.57,0,0,0,12.54,74.47Zm-.13,5.83a.32.32,0,0,1-.09.25l-2.15-1.24a1,1,0,0,1-.16-.5v-.07a.32.32,0,0,1,.1-.27l.07,0a.25.25,0,0,1,.12,0l1.72,1a1,1,0,0,1,.39.75Z"/><path class="cls-3" d="M12.78,81.84,9.84,80.15a.4.4,0,0,0-.41,0,.48.48,0,0,0-.22.44v.58a1,1,0,0,0,.43.8l2.94,1.69a.41.41,0,0,0,.23.07.37.37,0,0,0,.18,0,.48.48,0,0,0,.21-.44v-.58A1,1,0,0,0,12.78,81.84Z"/><path class="cls-3" d="M32.89,86.22,30.43,84.8a.58.58,0,0,0-.57,0,.7.7,0,0,0-.3.64v4.68a1.57,1.57,0,0,0,.67,1.26l2.46,1.42a.7.7,0,0,0,.32.1.45.45,0,0,0,.25-.07.69.69,0,0,0,.29-.63V87.48A1.57,1.57,0,0,0,32.89,86.22Zm-.13,5.83a.32.32,0,0,1-.09.25l-2.15-1.24a1.05,1.05,0,0,1-.16-.51v-.06c0-.14,0-.24.1-.27a.18.18,0,0,1,.19,0l1.72,1a1,1,0,0,1,.39.75Z"/><path class="cls-3" d="M33.13,93.59,30.19,91.9a.38.38,0,0,0-.41,0,.48.48,0,0,0-.22.44v.58a1,1,0,0,0,.43.8l2.94,1.69a.39.39,0,0,0,.23.07.37.37,0,0,0,.18,0,.48.48,0,0,0,.21-.44v-.58A1,1,0,0,0,33.13,93.59Z"/><path class="cls-3" d="M27.59,83.23l-12.17-7a.59.59,0,0,0-.61,0,.75.75,0,0,0-.33.69v7a1.76,1.76,0,0,0,.74,1.4l12.17,7a.69.69,0,0,0,.35.1.52.52,0,0,0,.27-.07.76.76,0,0,0,.32-.69v-7A1.74,1.74,0,0,0,27.59,83.23Z"/><path class="cls-3" d="M53.14,92.55S51.5,93.73,48,90.25,42.44,86,42.44,86l6.44-3.11,2,.17Z"/><path class="cls-1" d="M52.32,92.94c-.87,0-2.35-.44-4.48-2.55-3.44-3.41-5.45-4.17-5.47-4.18l-.44-.16,6.92-3.33,2.21.18,2.3,9.73-.11.08A1.64,1.64,0,0,1,52.32,92.94ZM42.91,86a22,22,0,0,1,5.21,4.09c2.85,2.82,4.38,2.5,4.79,2.33l-2.17-9.17-1.82-.15Z"/><path class="cls-3" d="M85.78,73.08s-1.64,1.19-5.15-2.29-5.55-4.23-5.55-4.23l6.45-3.1,2,.16Z"/><path class="cls-1" d="M85,73.48c-.87,0-2.35-.45-4.47-2.55C77.06,67.53,75,66.76,75,66.75l-.43-.16,6.91-3.33,2.21.18L86,73.12l-.09.13A1.69,1.69,0,0,1,85,73.48Zm-9.41-6.92a22,22,0,0,1,5.22,4.09c2.81,2.78,4.37,2.49,4.78,2.33l-2.17-9.17-1.81-.15Z"/><path class="cls-3" d="M47.27,93.06l1.61-3.84-3.25-2a2.91,2.91,0,0,0-.42-.25h0a3,3,0,0,0-.84-.27c-2.42-.42-4.68,2.08-5.32,5.48-.5,2.6-.78,4.47,1.06,5.44h0l.71.49,3.1,2L46,96.18a8,8,0,0,0,1.25-2.83C47.25,93.25,47.25,93.16,47.27,93.06Z"/><path class="cls-1" d="M50.18,90.22a3.87,3.87,0,0,0-1-1.08h0l-3.38-2.08a3.78,3.78,0,0,0-.46-.28,3.16,3.16,0,0,0-.9-.29c-2.47-.42-4.86,2-5.55,5.64-.47,2.46-.87,4.59,1.15,5.64l.27.19.45.31L43.49,100a3.19,3.19,0,0,0,1.81.81l.36,0c2.25,0,4.49-2.25,5.21-5.31A6.91,6.91,0,0,0,50.18,90.22Zm-9.69,7.42-.3-.21c-1.69-.88-1.46-2.56-1-5.23.59-3.12,2.56-5.36,4.62-5.36a3.88,3.88,0,0,1,.48,0,3,3,0,0,1,.79.27,3.08,3.08,0,0,1,.41.24l2,1.21c-2.43-.14-4.83,2.3-5.47,5.67a6.8,6.8,0,0,0,.68,4.78l-1.78-1.12Z"/><path class="cls-3" d="M46.12,99l-.24,0a2.1,2.1,0,0,1-1.46-.9,4.43,4.43,0,0,1-.54-3.4c.45-2.27,2.1-3.91,3.67-3.66A2.16,2.16,0,0,1,49,92a4.55,4.55,0,0,1,.46,3.49h0C49,97.48,47.56,99,46.12,99Zm1.12-7.7c-1.32,0-2.68,1.49-3.07,3.44a4.18,4.18,0,0,0,.49,3.17,1.77,1.77,0,0,0,1.25.77c1.33.17,2.8-1.3,3.25-3.27a4.28,4.28,0,0,0-.42-3.26,1.8,1.8,0,0,0-1.23-.83A1.23,1.23,0,0,0,47.24,91.27Z"/><path class="cls-3" d="M45.88,97.51h-.16a1.36,1.36,0,0,1-.94-.59,2.82,2.82,0,0,1-.35-2.15c.28-1.44,1.34-2.48,2.35-2.32a1.38,1.38,0,0,1,.92.62,2.86,2.86,0,0,1,.3,2.21h0C47.71,96.56,46.8,97.51,45.88,97.51Zm.69-4.78c-.79,0-1.61.91-1.85,2.09a2.47,2.47,0,0,0,.3,1.92,1,1,0,0,0,.74.46c.81.1,1.68-.8,2-2a2.6,2.6,0,0,0-.25-2,1.06,1.06,0,0,0-.73-.49Z"/><path class="cls-3" d="M46.23,96.92l-.44-.25-.15-.08-.11-.07v0a1.76,1.76,0,0,1-.37-1.72c.23-1,1-1.72,1.71-1.58H47l.13.07a.42.42,0,0,1,.13.07l.44.25.22,1.83-.56.59a1.88,1.88,0,0,1-.42.46Zm-.5-.51h0l.13.08.34.19.55-.38a1.51,1.51,0,0,0,.38-.41h0l.5-.54-.19-1.64-.36-.2L47,93.44l-.07,0-.08,0c-.59-.11-1.27.54-1.48,1.43a1.58,1.58,0,0,0,.36,1.58Z"/><path class="cls-1" d="M48,95.43c-.23.9-.92,1.54-1.55,1.45s-1-.92-.76-1.85.94-1.63,1.6-1.5S48.23,94.51,48,95.43Z"/><path class="cls-3" d="M46.56,97h-.14a.94.94,0,0,1-.65-.44,2,2,0,0,1-.2-1.53c.24-1,1-1.72,1.71-1.58a.93.93,0,0,1,.64.46,2,2,0,0,1,.16,1.57A1.84,1.84,0,0,1,46.56,97Zm.55-3.38c-.56,0-1.15.62-1.34,1.45a1.77,1.77,0,0,0,.16,1.37.74.74,0,0,0,.52.35c.57.09,1.22-.53,1.44-1.37h0A1.87,1.87,0,0,0,47.76,94a.81.81,0,0,0-.51-.37Z"/><path class="cls-3" d="M80.41,74.55,82,70.71l-3.26-2a3.54,3.54,0,0,0-.41-.26h0a3,3,0,0,0-.84-.28c-2.42-.41-4.68,2.09-5.32,5.48-.49,2.6-.78,4.48,1.06,5.44h0l.72.5,3.1,1.94,2.07-3.86a8.23,8.23,0,0,0,1.24-2.84C80.39,74.74,80.39,74.64,80.41,74.55Z"/><path class="cls-1" d="M83.32,71.7a3.83,3.83,0,0,0-1-1.07h0l-3.39-2.08a3.14,3.14,0,0,0-.46-.28,3.1,3.1,0,0,0-.89-.29c-2.48-.43-4.87,2-5.56,5.64-.46,2.46-.87,4.58,1.15,5.64l.28.19.44.3,2.79,1.76a3.33,3.33,0,0,0,1.8.81l.37,0c2.24,0,4.48-2.26,5.2-5.32A6.91,6.91,0,0,0,83.32,71.7Zm-9.69,7.42-.3-.2c-1.68-.89-1.46-2.57-1-5.23.59-3.12,2.57-5.36,4.62-5.36a2.59,2.59,0,0,1,.48,0,3,3,0,0,1,.8.26,4.1,4.1,0,0,1,.4.25l2,1.2c-2.43-.14-4.83,2.31-5.47,5.68a6.77,6.77,0,0,0,.68,4.77l-1.78-1.11Z"/><path class="cls-3" d="M79.26,80.45H79a2.08,2.08,0,0,1-1.45-.9A4.41,4.41,0,0,1,77,76.13c.45-2.26,2.1-3.9,3.68-3.65a2.11,2.11,0,0,1,1.43,1,4.55,4.55,0,0,1,.46,3.49h0C82.13,79,80.7,80.45,79.26,80.45Zm1.12-7.7c-1.32,0-2.68,1.5-3.07,3.44a4.12,4.12,0,0,0,.5,3.17,1.8,1.8,0,0,0,1.25.78c1.33.16,2.79-1.31,3.24-3.28a4.21,4.21,0,0,0-.42-3.25,1.82,1.82,0,0,0-1.23-.84Z"/><path class="cls-3" d="M79,79h-.16a1.32,1.32,0,0,1-.94-.58,2.84,2.84,0,0,1-.35-2.16c.29-1.43,1.34-2.47,2.35-2.31a1.39,1.39,0,0,1,.93.62,2.9,2.9,0,0,1,.29,2.21h0C80.85,78.05,79.94,79,79,79Zm.69-4.78c-.79,0-1.61.91-1.85,2.09a2.6,2.6,0,0,0,.3,1.93,1.12,1.12,0,0,0,.74.46c.81.09,1.68-.8,1.95-2a2.57,2.57,0,0,0-.25-2,1.1,1.1,0,0,0-.73-.5Z"/><path class="cls-3" d="M79.37,78.41l-.43-.25a.75.75,0,0,1-.15-.09L78.67,78v0a1.81,1.81,0,0,1-.37-1.73c.24-1,1-1.71,1.71-1.58l.06,0v0l.14.07.12.08.45.24L81,76.9l-.55.6A1.91,1.91,0,0,1,80,78Zm-.5-.52h0L79,78l.33.19.55-.37a2,2,0,0,0,.39-.42h0l.49-.54-.19-1.63-.36-.2-.11-.07-.07,0-.08,0c-.6-.12-1.28.54-1.49,1.43a1.56,1.56,0,0,0,.36,1.57Z"/><path class="cls-1" d="M81.13,76.92c-.24.9-.93,1.54-1.55,1.44s-1-.91-.77-1.84.94-1.63,1.6-1.51S81.37,76,81.13,76.92Z"/><path class="cls-3" d="M79.7,78.47h-.14a1,1,0,0,1-.65-.43,2,2,0,0,1-.2-1.53c.24-1,1-1.72,1.72-1.59a1,1,0,0,1,.64.46,2,2,0,0,1,.15,1.57A1.84,1.84,0,0,1,79.7,78.47Zm.55-3.37c-.56,0-1.15.62-1.34,1.44a1.8,1.8,0,0,0,.17,1.38.81.81,0,0,0,.51.35c.57.08,1.22-.53,1.44-1.38h0a1.84,1.84,0,0,0-.13-1.41.81.81,0,0,0-.51-.37Z"/><path class="cls-2" d="M48.49,95.81c-.24.9-.93,1.54-1.55,1.44s-1-.91-.77-1.84.94-1.63,1.6-1.51S48.73,94.89,48.49,95.81Z"/><path class="cls-2" d="M81.63,77.29c-.24.91-.93,1.55-1.55,1.45s-1-.92-.77-1.85,1-1.63,1.6-1.5S81.87,76.37,81.63,77.29Z"/><path class="cls-1" d="M90.61,30.33,47.39,55.4a3,3,0,0,0-1.29,1.82L43,74.23l-7.58,7.89a3.78,3.78,0,0,0-.84,2.2l-.06,11.36v4.19l5.9-3.07a.86.86,0,0,0,.44-.75l.24-1.79c.27-1.94,1.49-5.72,4.39-7.53,5.19-3.24,6.89,3.35,6.76,5.28v.23a.61.61,0,0,0,.91.52L73.59,81a.57.57,0,0,0,.28-.45L74,79.37h0c0-.24,0-.4,0-.67,0-2,.48-8,4.6-10.35,5.56-3.17,5.9,3.42,6.16,4.63.09.45.47.59.92.33l4.89-2.81a2.84,2.84,0,0,0,1.27-2.21V31C91.81,30.26,91.27,29.94,90.61,30.33Z"/><path class="cls-2" d="M40.32,97.47l-1.81-1.1a1.22,1.22,0,0,0-1.25,0l-2.53,1.46a1.85,1.85,0,0,1-1.85,0L7.12,82.89V81h0v-2.5A.51.51,0,0,0,6.34,78l-5.07,3a1,1,0,0,0-.61,1.07h0V84a.76.76,0,0,0,0,.3h0a2.28,2.28,0,0,0,1.21,1.37l30.58,17.61a3.35,3.35,0,0,0,3.3,0l4.56-2.59a.6.6,0,0,0,.3-.47h0a.56.56,0,0,0,0-.13v-2h0A.63.63,0,0,0,40.32,97.47Z"/><path class="cls-1" d="M40.81,98.09a.83.83,0,0,0-.39-.79l-1.81-1.1a1.42,1.42,0,0,0-1.45,0l-2.53,1.47a1.67,1.67,0,0,1-1.65,0L7.31,82.77V81.2h0V78.46A.71.71,0,0,0,7,77.85a.7.7,0,0,0-.71,0l-5.07,3a1.23,1.23,0,0,0-.71,1.24v1.78a1.15,1.15,0,0,0,0,.37,2.46,2.46,0,0,0,1.31,1.5L32.35,103.4a3.54,3.54,0,0,0,1.76.47,3.59,3.59,0,0,0,1.74-.46l4.55-2.59a.8.8,0,0,0,.41-.62V98.09Zm-40-16a.86.86,0,0,1,.52-.87l5.08-3a.28.28,0,0,1,.15,0,.26.26,0,0,1,.15,0,.29.29,0,0,1,.16.26v2.26h0V81L6,81.56A.45.45,0,0,0,5.8,82a.45.45,0,0,0,.24.4l.88.51V83L32.78,98a2,2,0,0,0,2,0l2.52-1.46a1,1,0,0,1,1,0l1.82,1.1h0a.43.43,0,0,1,.19.43v.24a.4.4,0,0,1-.15.14L35.7,101a3.23,3.23,0,0,1-3.2,0L1.92,83.42a2.59,2.59,0,0,1-1.06-1Z"/><path class="cls-2" d="M96.49,65.66l-4.67-2.84v5l-2.46,1.43a.41.41,0,0,0-.2.35h0v2.3a.39.39,0,0,0,.19.34l1.29.79a1.11,1.11,0,0,0,1.15,0l4.68-2.91a1.22,1.22,0,0,0,.61-1h0v0a0,0,0,0,0,0,0V66.79h0A1.22,1.22,0,0,0,96.49,65.66Z"/><path class="cls-1" d="M97.29,66.57h0a1.41,1.41,0,0,0-.68-1.08l-5-3v5.19L89.26,69a.6.6,0,0,0-.29.52v2.3a.59.59,0,0,0,.28.51l1.29.79a1.32,1.32,0,0,0,.69.2,1.36,1.36,0,0,0,.67-.19l4.68-2.91a1.4,1.4,0,0,0,.7-1.07V66.57Zm-7.76,2.85,3.34-2a.76.76,0,0,0,.39-.65.78.78,0,0,0-.36-.67L92,65.55V63.17l4.38,2.66h0a1,1,0,0,1,.5,1V67h0v.16a1.17,1.17,0,0,1-.47.54l-4.69,2.91a1,1,0,0,1-1,0l-1.17-.67a.28.28,0,0,1-.15-.26A.3.3,0,0,1,89.53,69.42Z"/><path class="cls-3" d="M71.44,79.49l-1.86,1.08c-.24.13-.43,0-.43-.33v-2a1,1,0,0,1,.43-.82l1.86-1.08c.24-.14.43,0,.43.33v2A1,1,0,0,1,71.44,79.49Z"/><path class="cls-3" d="M89.9,60.94l-1.65,1a.89.89,0,0,0-.38.73v.46a.45.45,0,0,0,.19.4.29.29,0,0,0,.16,0,.42.42,0,0,0,.21-.06l1.64-1a.87.87,0,0,0,.39-.72v-.47a.43.43,0,0,0-.19-.39A.35.35,0,0,0,89.9,60.94Z"/><path class="cls-3" d="M56.74,72.28a.35.35,0,0,0,.17,0,.43.43,0,0,0,.22-.06l2.8-1.62h0a1,1,0,0,0,.41-.77v-.93a.44.44,0,0,0-.2-.41.39.39,0,0,0-.39,0L57,70.16a.93.93,0,0,0-.42.77v.93A.49.49,0,0,0,56.74,72.28Zm.76-.64v-.56a.36.36,0,0,1,.15-.29l1.69-1h0a.1.1,0,0,1,0,.07v.56a.58.58,0,0,1,0,.14L57.5,71.65Zm-.61-.71a.6.6,0,0,1,.24-.47l2.8-1.61,0,0a.27.27,0,0,1,0,.11v.93a.59.59,0,0,1-.24.47l-.16.1h0v-.56a.3.3,0,0,0-.12-.25.24.24,0,0,0-.23,0l-1.69,1a.59.59,0,0,0-.25.47v.56a.43.43,0,0,0,0,.11L57,72h0s0,0,0-.11Z"/><path class="cls-3" d="M91.82,50.71v-.23L62.44,67.18c0-.2,0-.4,0-.6V63.36l29.37-16.7v-.24L62.45,63.13V51.72a.89.89,0,0,0-.45-.79.9.9,0,0,0-.9,0L54,55A2.14,2.14,0,0,0,53,56.83V68.48l-1.79,1V58a.9.9,0,0,0-1.34-.78l-1.63.91a2.24,2.24,0,0,0-1.1,1.54l-2.31,13a1.16,1.16,0,0,0,0,.37l-1.9,1.08-.15.3,2.1-1.18a1.11,1.11,0,0,0,.57.67l1.62.84L50.2,73a2,2,0,0,0,1-1.7v-1.6l0,0,1.77-1v3.85L35,82.78l-.15.33L53,72.79v1.26L34.57,84.47v.23L53,74.28v1.85L39.55,83.75a.43.43,0,0,0-.19-.37.38.38,0,0,0-.37,0l-1.65,1a.89.89,0,0,0-.38.73v.15l-2.41,1.36v.24L37,85.45v.08a.45.45,0,0,0,.19.4.29.29,0,0,0,.16,0,.42.42,0,0,0,.21-.06l1.64-1a.85.85,0,0,0,.39-.72V84L53,76.36V86.65a1.07,1.07,0,0,0,.53.93,1.14,1.14,0,0,0,.54.14,1,1,0,0,0,.53-.14l5-2.83a2.41,2.41,0,0,0,1.2-1.81l1.4-11.72L91.82,54.3v-.23L62.19,71v-.11c.08-.64.13-1.29.17-1.94l29.45-16.7V52L62.39,68.69c0-.43,0-.86,0-1.28Zm-42,6.93.15-.09a.54.54,0,0,1,.27-.07.54.54,0,0,1,.28.08.56.56,0,0,1,.28.47V71.29a1.61,1.61,0,0,1-.81,1.4l-3,1.74-1-.53,2.93-1.7a1.89,1.89,0,0,0,1-1.63ZM45.14,72.82l2.31-13.06a1.85,1.85,0,0,1,.93-1.29l1.28-.72V70.57A1.7,1.7,0,0,1,48.81,72l-3,1.76-.2-.11A.81.81,0,0,1,45.14,72.82Zm16-21.5.15-.09a.55.55,0,0,1,.28-.07.5.5,0,0,1,.28.08.56.56,0,0,1,.28.48V66.58a35.39,35.39,0,0,1-.26,4.25L60.42,82.9a2.06,2.06,0,0,1-1,1.55l-5,2.83a.69.69,0,0,1-.72,0,.7.7,0,0,1-.34-.51L58.27,84a2.35,2.35,0,0,0,1.17-1.75l1.43-12.07a36.13,36.13,0,0,0,.25-4.28Zm-6.9,4,6.71-3.85V65.86a35.65,35.65,0,0,1-.26,4.25L59.24,82.19a2.13,2.13,0,0,1-1.07,1.6l-4.85,2.75V56.83A1.78,1.78,0,0,1,54.22,55.28Z"/><polygon class="cls-3" points="91.82 67.84 91.82 52.34 92.06 52.21 92.07 67.71 91.82 67.84"/><path class="cls-3" d="M31.32,51.51l-9.95-5.72a1,1,0,0,0-1.51.7L18,56.76a1.74,1.74,0,0,0,.83,1.81l9.58,5.57a1.15,1.15,0,0,0,.56.15,1.11,1.11,0,0,0,1.1-.9l2-10.22A1.56,1.56,0,0,0,31.32,51.51Z"/><path class="cls-3" d="M44.16,58.93l-9.95-5.71a1,1,0,0,0-1.5.69L30.83,64.19a1.73,1.73,0,0,0,.83,1.8l9.58,5.57a1.15,1.15,0,0,0,.56.15,1.11,1.11,0,0,0,1.1-.9l2-10.21A1.58,1.58,0,0,0,44.16,58.93Z"/><path class="cls-1" d="M43.59,57.82l-10-5.72a1,1,0,0,0-1.51.7L30.26,63.07a1.75,1.75,0,0,0,.82,1.81l9.59,5.57a1.15,1.15,0,0,0,.56.15,1,1,0,0,0,.46-.1,1.09,1.09,0,0,0,.64-.8l2-10.22A1.56,1.56,0,0,0,43.59,57.82Zm-.2.34A1.17,1.17,0,0,1,44,59.4l-2,10L32.64,64a1.45,1.45,0,0,1-.69-1.5l1.8-9.87Zm-1.86,12a.73.73,0,0,1-.66,0l-9.59-5.57a1.33,1.33,0,0,1-.63-1.39l1.88-10.27a.6.6,0,0,1,.34-.45.66.66,0,0,1,.27-.06.61.61,0,0,1,.31.09l.12.07-1.82,9.94a1.65,1.65,0,0,0,.79,1.7l9.4,5.46A.72.72,0,0,1,41.53,70.14Z"/><path class="cls-1" d="M30.75,50.39,20.8,44.68a1,1,0,0,0-.93,0,1,1,0,0,0-.58.74L17.42,55.65a1.72,1.72,0,0,0,.82,1.8L27.83,63a1.06,1.06,0,0,0,.56.16,1.19,1.19,0,0,0,.46-.1,1.1,1.1,0,0,0,.64-.81l2-10.21A1.58,1.58,0,0,0,30.75,50.39Zm-.2.35A1.17,1.17,0,0,1,31.11,52l-2,10-9.35-5.43a1.43,1.43,0,0,1-.68-1.49l1.8-9.87Zm-1.86,12a.7.7,0,0,1-.66,0l-9.59-5.57a1.33,1.33,0,0,1-.63-1.39l1.87-10.27A.62.62,0,0,1,20,45a.6.6,0,0,1,.57,0l.13.07L18.91,55a1.63,1.63,0,0,0,.78,1.7L29.1,62.2A.69.69,0,0,1,28.69,62.71Z"/><path class="cls-1" d="M27,82.15l-12.17-7a.59.59,0,0,0-.61,0,.75.75,0,0,0-.32.69v7a1.73,1.73,0,0,0,.74,1.4l12.16,7a.69.69,0,0,0,.35.1.5.5,0,0,0,.27-.07.76.76,0,0,0,.32-.69v-7A1.74,1.74,0,0,0,27,82.15Zm.34,8.37c0,.21-.06.32-.12.35a.24.24,0,0,1-.22,0l-12.17-7a1.35,1.35,0,0,1-.54-1v-7c0-.2.07-.31.13-.34a.25.25,0,0,1,.22,0l12.16,7a1.35,1.35,0,0,1,.54,1.05Z"/><path class="cls-1" d="M22.51,86l-3.35-1.94c-.22-.12-.39,0-.39.3a.93.93,0,0,0,.39.75L22.51,87c.22.13.4,0,.4-.29A.93.93,0,0,0,22.51,86Z"/><path class="cls-1" d="M12,73.47,9.53,72.05A.58.58,0,0,0,9,72a.7.7,0,0,0-.3.64v4.68a1.57,1.57,0,0,0,.67,1.26L11.79,80a.7.7,0,0,0,.32.1.55.55,0,0,0,.25-.07.69.69,0,0,0,.3-.63V74.73A1.58,1.58,0,0,0,12,73.47Zm-.13,5.83a.32.32,0,0,1-.09.25L9.62,78.31a1.05,1.05,0,0,1-.16-.51v-.06c0-.14,0-.24.11-.27a.07.07,0,0,1,.06,0,.25.25,0,0,1,.12,0l1.72,1a1,1,0,0,1,.39.75Zm.4.12c0,.17,0,.26-.1.29s-.13,0-.17,0l0,0a.52.52,0,0,0,.11-.35v-.07a1.14,1.14,0,0,0-.49-.92l-1.72-1a.38.38,0,0,0-.38,0,.5.5,0,0,0-.21.45v.06a1.52,1.52,0,0,0,0,.21,1.26,1.26,0,0,1-.23-.67V72.66c0-.17,0-.27.1-.29a.17.17,0,0,1,.17,0l2.46,1.42a1.15,1.15,0,0,1,.47.91Z"/><path class="cls-1" d="M11.57,74.1l-1.72-1a.38.38,0,0,0-.38,0,.5.5,0,0,0-.21.44v2.3a1.15,1.15,0,0,0,.49.92l1.72,1a.51.51,0,0,0,.22.07.34.34,0,0,0,.17,0,.49.49,0,0,0,.2-.44V75A1.14,1.14,0,0,0,11.57,74.1Zm.29,3.21a.31.31,0,0,1-.1.27.18.18,0,0,1-.19,0l-1.72-1a1,1,0,0,1-.39-.75v-2.3a.3.3,0,0,1,.11-.27.19.19,0,0,1,.18,0l1.72,1a1,1,0,0,1,.39.75Z"/><path class="cls-1" d="M12.23,80.84l-2.94-1.7a.4.4,0,0,0-.41,0,.48.48,0,0,0-.22.43v.59a1,1,0,0,0,.43.79L12,82.64a.55.55,0,0,0,.23.07.35.35,0,0,0,.18,0,.48.48,0,0,0,.22-.44v-.58A1,1,0,0,0,12.23,80.84Zm0,1.38a.55.55,0,0,1,0,.09h0L9.29,80.6a.58.58,0,0,1-.23-.45v-.59c0-.06,0-.09,0-.07L12,81.19a.58.58,0,0,1,.23.45Z"/><path class="cls-1" d="M32.34,85.22,29.88,83.8a.58.58,0,0,0-.57,0,.7.7,0,0,0-.3.64v4.68a1.58,1.58,0,0,0,.67,1.26l2.46,1.42a.68.68,0,0,0,.32.09.54.54,0,0,0,.25-.06.69.69,0,0,0,.3-.63V86.48A1.58,1.58,0,0,0,32.34,85.22Zm-.13,5.83a.34.34,0,0,1-.09.25L30,90.06a1.05,1.05,0,0,1-.16-.51v-.07a.3.3,0,0,1,.11-.27.19.19,0,0,1,.18,0l1.72,1a1,1,0,0,1,.39.75Zm.4.12c0,.17,0,.26-.1.28s-.13,0-.17,0l0,0a.52.52,0,0,0,.11-.35V91a1.14,1.14,0,0,0-.49-.92l-1.72-1a.38.38,0,0,0-.38,0,.5.5,0,0,0-.21.44v.07a1.52,1.52,0,0,0,0,.21,1.26,1.26,0,0,1-.23-.67V84.41c0-.18.05-.27.1-.29a.17.17,0,0,1,.17,0l2.46,1.42a1.15,1.15,0,0,1,.47.91Z"/><path class="cls-1" d="M31.92,85.85l-1.72-1a.4.4,0,0,0-.38,0,.49.49,0,0,0-.21.44v2.29a1.17,1.17,0,0,0,.49.93l1.72,1a.51.51,0,0,0,.22.07.34.34,0,0,0,.17,0,.49.49,0,0,0,.2-.44V86.77A1.14,1.14,0,0,0,31.92,85.85Zm.29,3.21a.32.32,0,0,1-.1.27.19.19,0,0,1-.19,0l-1.72-1a1,1,0,0,1-.39-.76V85.27a.32.32,0,0,1,.1-.27.21.21,0,0,1,.19,0l1.72,1a1,1,0,0,1,.39.75Z"/><path class="cls-1" d="M32.58,92.59l-2.94-1.7a.4.4,0,0,0-.41,0,.46.46,0,0,0-.22.43v.58a1,1,0,0,0,.43.8l2.94,1.7a.51.51,0,0,0,.23.07.35.35,0,0,0,.18,0A.48.48,0,0,0,33,94v-.58A1,1,0,0,0,32.58,92.59Zm0,1.38a.55.55,0,0,1,0,.09h0l-2.94-1.7a.59.59,0,0,1-.23-.46v-.58s0-.08,0-.08h0l2.94,1.7a.57.57,0,0,1,.23.45Z"/><path class="cls-2" d="M57.28,1.24c-4,1.83-7.54,7.37-7.87,12.49a7.47,7.47,0,0,0,1.07,4.84L55.9,29l3,1.29c.24-.56,4.32-19.11,4.51-19.68h0c.43-1.34,3.35-2.18,3.38-3.49C66.84,2.31,61.15-.55,57.28,1.24Zm-.51,12.22c-1.56.78-2.76-.18-2.66-2.12a6.07,6.07,0,0,1,3-4.79c1.51-.72,2.68.2,2.62,2.07A6.08,6.08,0,0,1,56.77,13.46Z"/><path class="cls-1" d="M58.81,30.38,55.9,29l0,0L50.15,18.07a7.64,7.64,0,0,1-1.09-4.91C49.4,8.07,53,2.41,57,.54h0a7.15,7.15,0,0,1,6.71.7,6.13,6.13,0,0,1,3,5.28c0,.76-.84,1.33-1.72,1.93s-1.48,1-1.66,1.6c-.08.22-.83,3.73-1.62,7.43-1.52,7-2.68,12.45-2.82,12.77ZM56.1,28.75,58.66,30c.29-1.07,1.7-7.67,2.75-12.57C62.28,13.39,63,10.2,63,10c.22-.68,1-1.22,1.77-1.74s1.59-1.09,1.6-1.7a5.89,5.89,0,0,0-2.83-5A6.85,6.85,0,0,0,57.13.8c-4,1.82-7.46,7.38-7.79,12.37a7.29,7.29,0,0,0,1,4.75Zm-.57-15.44a1.59,1.59,0,0,1-.88-.26,2.43,2.43,0,0,1-.88-2.28,6.22,6.22,0,0,1,3-4.91,2,2,0,0,1,1.94,0,2.45,2.45,0,0,1,.88,2.2,6.23,6.23,0,0,1-3,5h0A2.48,2.48,0,0,1,55.53,13.31Zm2.31-7.43a2.27,2.27,0,0,0-.93.23,5.93,5.93,0,0,0-2.86,4.67,2.21,2.21,0,0,0,.75,2,1.69,1.69,0,0,0,1.71-.05h0a5.92,5.92,0,0,0,2.82-4.72,2.16,2.16,0,0,0-.76-2A1.3,1.3,0,0,0,57.84,5.88Z"/><path class="cls-1" d="M64.51,1.91a4.81,4.81,0,0,0-4.75,0c-4,1.87-7.62,7.53-7.95,12.62a7.52,7.52,0,0,0,1.09,4.91l5.91,11L65.4,13.1a16.34,16.34,0,0,0,.65-1.72,13.84,13.84,0,0,0,.7-4C66.8,4.85,66,2.87,64.51,1.91ZM55,13.09c.17-3.07,2.3-6.5,4.75-7.66a3.56,3.56,0,0,1,1.52-.37,2.27,2.27,0,0,1,1.24.35,3.62,3.62,0,0,1,1.29,3.23c-.08,3-2.16,6.55-4.63,7.81a2.85,2.85,0,0,1-2.9.08A3.69,3.69,0,0,1,55,13.09Z"/><path class="cls-1" d="M59.58,5.17c-2.54,1.19-4.77,4.73-4.95,8s1.83,4.92,4.47,3.58,4.74-5,4.82-8.12S62.07,4,59.58,5.17Zm-.38,9.09c-1.56.79-2.76-.17-2.66-2.12a6,6,0,0,1,3-4.78c1.51-.73,2.67.19,2.61,2.06A6.05,6.05,0,0,1,59.2,14.26Z"/><path class="cls-3" d="M57.34,17.32a2.6,2.6,0,0,1-1.43-.41,4.08,4.08,0,0,1-1.42-3.79c.18-3.24,2.44-6.86,5-8.08l.06.13L59.52,5a3.1,3.1,0,0,1,3.1,0,4,4,0,0,1,1.44,3.55c-.08,3.22-2.28,6.91-4.9,8.24A4.08,4.08,0,0,1,57.34,17.32ZM61.19,4.91a3.79,3.79,0,0,0-1.56.38c-2.5,1.18-4.69,4.7-4.87,7.85-.09,1.64.38,2.93,1.3,3.53a2.9,2.9,0,0,0,3-.09c2.53-1.28,4.66-4.87,4.74-8a3.68,3.68,0,0,0-1.31-3.3A2.28,2.28,0,0,0,61.19,4.91Zm-3,9.77a1.59,1.59,0,0,1-.88-.26,2.48,2.48,0,0,1-.88-2.29,6.2,6.2,0,0,1,3-4.9,1.94,1.94,0,0,1,1.93,0,2.45,2.45,0,0,1,.88,2.2,6.24,6.24,0,0,1-3,5h0A2.48,2.48,0,0,1,58.16,14.68Zm2.31-7.43a2.19,2.19,0,0,0-.92.23,5.91,5.91,0,0,0-2.87,4.67,2.21,2.21,0,0,0,.75,2,1.69,1.69,0,0,0,1.71,0A5.91,5.91,0,0,0,62,9.42a2.15,2.15,0,0,0-.76-2A1.3,1.3,0,0,0,60.47,7.25Z"/></g></g></g></svg>