<svg xmlns="http://www.w3.org/2000/svg" viewBox="0 0 59.84 64.76"><defs><style>.cls-1{fill:#16110d;}.cls-2{fill:#ffbe2e;}.cls-3{fill:#fec;}</style></defs><g id="Layer_2" data-name="Layer 2"><g id="content"><g id="_2" data-name="2"><path class="cls-1" d="M15.13,60.3a.28.28,0,0,1,0,.52,1,1,0,0,1-.9,0,.28.28,0,0,1,0-.52A1,1,0,0,1,15.13,60.3Z"/><ellipse class="cls-1" cx="17.02" cy="59.21" rx="0.63" ry="0.37"/><path class="cls-1" d="M19.8,57.6c.25.14.25.37,0,.52a1,1,0,0,1-.89,0c-.25-.15-.25-.38,0-.52A1,1,0,0,1,19.8,57.6Z"/><path class="cls-1" d="M22.14,56.25c.25.14.25.37,0,.52a1,1,0,0,1-.89,0c-.25-.15-.25-.38,0-.52A1,1,0,0,1,22.14,56.25Z"/><path class="cls-1" d="M24.48,54.9c.25.14.25.37,0,.52a1,1,0,0,1-.9,0,.28.28,0,0,1,0-.52A1,1,0,0,1,24.48,54.9Z"/><path class="cls-1" d="M26.82,53.55a.28.28,0,0,1,0,.52,1,1,0,0,1-.9,0,.28.28,0,0,1,0-.52A1,1,0,0,1,26.82,53.55Z"/><path class="cls-1" d="M29.15,52.2a.27.27,0,0,1,0,.52,1,1,0,0,1-.89,0,.27.27,0,0,1,0-.52A1,1,0,0,1,29.15,52.2Z"/><path class="cls-1" d="M31.49,50.85a.27.27,0,0,1,0,.52,1,1,0,0,1-.89,0,.27.27,0,0,1,0-.52A1,1,0,0,1,31.49,50.85Z"/><path class="cls-1" d="M33.83,49.5a.27.27,0,0,1,0,.52,1,1,0,0,1-.89,0,.27.27,0,0,1,0-.52A1,1,0,0,1,33.83,49.5Z"/><path class="cls-1" d="M42.29,44.1a1,1,0,0,1,.89,0c.25.15.25.38,0,.52a1,1,0,0,1-.89,0c-.25-.14-.25-.37,0-.52Z"/><path class="cls-1" d="M12.79,59c.25.14.25.37,0,.52a1,1,0,0,1-.9,0,.28.28,0,0,1,0-.52A1,1,0,0,1,12.79,59Z"/><path class="cls-1" d="M15.13,57.6a.28.28,0,0,1,0,.52,1,1,0,0,1-.9,0,.28.28,0,0,1,0-.52A1,1,0,0,1,15.13,57.6Z"/><path class="cls-1" d="M17.46,56.25c.25.14.25.37,0,.52a1,1,0,0,1-.89,0c-.25-.15-.25-.38,0-.52a1,1,0,0,1,.89,0Z"/><path class="cls-1" d="M10.45,57.6c.25.14.25.37,0,.52a1,1,0,0,1-.89,0c-.25-.15-.25-.38,0-.52A1,1,0,0,1,10.45,57.6Z"/><path class="cls-1" d="M12.79,56.25c.25.14.25.37,0,.52a1,1,0,0,1-.9,0,.28.28,0,0,1,0-.52A1,1,0,0,1,12.79,56.25Z"/><path class="cls-1" d="M15.13,54.9a.28.28,0,0,1,0,.52,1,1,0,0,1-.9,0,.28.28,0,0,1,0-.52A1,1,0,0,1,15.13,54.9Z"/><path class="cls-1" d="M8.11,56.25c.25.14.25.37,0,.52a1,1,0,0,1-.89,0c-.25-.15-.25-.38,0-.52A1,1,0,0,1,8.11,56.25Z"/><path class="cls-1" d="M10.45,54.9c.25.14.25.37,0,.52a1,1,0,0,1-.89,0c-.25-.15-.25-.38,0-.52A1,1,0,0,1,10.45,54.9Z"/><path class="cls-1" d="M12.79,53.55a.27.27,0,0,1,0,.52,1,1,0,0,1-.9,0,.28.28,0,0,1,0-.52,1,1,0,0,1,.9,0Z"/><path class="cls-1" d="M5.78,54.9a.28.28,0,0,1,0,.52,1,1,0,0,1-.9,0c-.25-.15-.25-.38,0-.52A1,1,0,0,1,5.78,54.9Z"/><path class="cls-1" d="M8.11,53.55a.27.27,0,0,1,0,.52,1,1,0,0,1-.89,0,.27.27,0,0,1,0-.52A1,1,0,0,1,8.11,53.55Z"/><path class="cls-1" d="M10.45,52.2a.27.27,0,0,1,0,.52,1,1,0,0,1-.89,0,.27.27,0,0,1,0-.52,1,1,0,0,1,.89,0Z"/><path class="cls-1" d="M3.42,53.54a.27.27,0,0,1,0,.51,1,1,0,0,1-.9,0,.27.27,0,0,1,0-.51A1,1,0,0,1,3.42,53.54Z"/><path class="cls-1" d="M5.76,52.19a.27.27,0,0,1,0,.51,1,1,0,0,1-.9,0c-.25-.14-.25-.37,0-.51A1,1,0,0,1,5.76,52.19Z"/><path class="cls-1" d="M8.09,50.84c.25.14.25.37,0,.51a.94.94,0,0,1-.89,0C7,51.21,7,51,7.2,50.84a1,1,0,0,1,.89,0Z"/><path class="cls-1" d="M1.08,52.19c.25.14.25.37,0,.51a.94.94,0,0,1-.89,0c-.25-.14-.25-.37,0-.51A.94.94,0,0,1,1.08,52.19Z"/><path class="cls-1" d="M3.42,50.84a.27.27,0,0,1,0,.51,1,1,0,0,1-.9,0,.27.27,0,0,1,0-.51A1,1,0,0,1,3.42,50.84Z"/><path class="cls-1" d="M5.76,49.49a.27.27,0,0,1,0,.51,1,1,0,0,1-.9,0c-.25-.14-.25-.37,0-.51a1,1,0,0,1,.9,0Z"/><path class="cls-1" d="M1.08,49.49c.25.14.25.37,0,.51a.94.94,0,0,1-.89,0c-.25-.14-.25-.37,0-.51A1,1,0,0,1,1.08,49.49Z"/><path class="cls-1" d="M3.42,48.14a.27.27,0,0,1,0,.51,1,1,0,0,1-.9,0,.27.27,0,0,1,0-.51,1,1,0,0,1,.9,0Z"/><path class="cls-1" d="M26.91,64.13a.28.28,0,0,1,0,.52,1,1,0,0,1-.9,0,.28.28,0,0,1,0-.52A1,1,0,0,1,26.91,64.13Z"/><path class="cls-1" d="M29.25,62.78a.28.28,0,0,1,0,.52,1,1,0,0,1-.9,0c-.25-.14-.25-.37,0-.52A1,1,0,0,1,29.25,62.78Z"/><path class="cls-1" d="M31.58,61.43c.25.15.25.38,0,.52a1,1,0,0,1-.89,0c-.25-.14-.25-.37,0-.52A1,1,0,0,1,31.58,61.43Z"/><path class="cls-1" d="M33.92,60.08c.25.15.25.38,0,.52a1,1,0,0,1-.89,0c-.25-.14-.25-.37,0-.52A1,1,0,0,1,33.92,60.08Z"/><path class="cls-1" d="M36.26,58.73c.25.15.25.38,0,.52a1,1,0,0,1-.9,0,.28.28,0,0,1,0-.52A1,1,0,0,1,36.26,58.73Z"/><path class="cls-1" d="M38.6,57.38a.28.28,0,0,1,0,.52,1,1,0,0,1-.9,0,.28.28,0,0,1,0-.52A1,1,0,0,1,38.6,57.38Z"/><path class="cls-1" d="M40.93,56c.25.14.25.37,0,.51a1,1,0,0,1-.89,0c-.25-.14-.25-.37,0-.51A.94.94,0,0,1,40.93,56Z"/><path class="cls-1" d="M43.27,54.69c.25.14.25.37,0,.51a1,1,0,0,1-.89,0c-.25-.14-.25-.37,0-.51A.94.94,0,0,1,43.27,54.69Z"/><path class="cls-1" d="M45.61,53.34c.25.14.25.37,0,.51a1,1,0,0,1-.89,0c-.25-.14-.25-.37,0-.51A.94.94,0,0,1,45.61,53.34Z"/><path class="cls-1" d="M48,52c.25.14.25.37,0,.51a1,1,0,0,1-.9,0,.27.27,0,0,1,0-.51A1,1,0,0,1,48,52Z"/><path class="cls-1" d="M50.29,50.64a.27.27,0,0,1,0,.51,1,1,0,0,1-.9,0,.27.27,0,0,1,0-.51A1,1,0,0,1,50.29,50.64Z"/><path class="cls-1" d="M52.62,49.29c.25.14.25.37,0,.51a1,1,0,0,1-.89,0c-.25-.14-.25-.37,0-.51A.94.94,0,0,1,52.62,49.29Z"/><path class="cls-1" d="M22.23,64.13c.25.15.25.38,0,.52a1,1,0,0,1-.89,0c-.25-.14-.25-.37,0-.52A1,1,0,0,1,22.23,64.13Z"/><path class="cls-1" d="M24.57,62.78c.25.15.25.38,0,.52a1,1,0,0,1-.89,0c-.25-.14-.25-.37,0-.52A1,1,0,0,1,24.57,62.78Z"/><path class="cls-1" d="M26.91,61.43a.28.28,0,0,1,0,.52,1,1,0,0,1-.9,0,.28.28,0,0,1,0-.52A1,1,0,0,1,26.91,61.43Z"/><path class="cls-1" d="M29.25,60.08a.28.28,0,0,1,0,.52,1,1,0,0,1-.9,0c-.25-.14-.25-.37,0-.52A1,1,0,0,1,29.25,60.08Z"/><path class="cls-1" d="M31.58,58.73c.25.15.25.38,0,.52a1,1,0,0,1-.89,0c-.25-.14-.25-.37,0-.52A1,1,0,0,1,31.58,58.73Z"/><path class="cls-1" d="M33.92,57.38c.25.15.25.38,0,.52a1,1,0,0,1-.89,0c-.25-.14-.25-.37,0-.52A1,1,0,0,1,33.92,57.38Z"/><path class="cls-1" d="M36.26,56c.25.14.25.37,0,.51a1,1,0,0,1-.9,0,.27.27,0,0,1,0-.51A1,1,0,0,1,36.26,56Z"/><path class="cls-1" d="M38.6,54.69a.27.27,0,0,1,0,.51,1,1,0,0,1-.9,0,.27.27,0,0,1,0-.51A1,1,0,0,1,38.6,54.69Z"/><path class="cls-1" d="M40.93,53.34c.25.14.25.37,0,.51a1,1,0,0,1-.89,0c-.25-.14-.25-.37,0-.51A.94.94,0,0,1,40.93,53.34Z"/><path class="cls-1" d="M43.27,52c.25.14.25.37,0,.51a1,1,0,0,1-.89,0c-.25-.14-.25-.37,0-.51A.94.94,0,0,1,43.27,52Z"/><path class="cls-1" d="M45.61,50.64c.25.14.25.37,0,.51a1,1,0,0,1-.89,0c-.25-.14-.25-.37,0-.51A.94.94,0,0,1,45.61,50.64Z"/><path class="cls-1" d="M48,49.29c.25.14.25.37,0,.51a1,1,0,0,1-.9,0,.27.27,0,0,1,0-.51A1,1,0,0,1,48,49.29Z"/><path class="cls-1" d="M50.29,47.94a.27.27,0,0,1,0,.51,1,1,0,0,1-.9,0,.27.27,0,0,1,0-.51A1,1,0,0,1,50.29,47.94Z"/><path class="cls-1" d="M19.89,62.78c.25.15.25.38,0,.52a1,1,0,0,1-.89,0c-.25-.14-.25-.37,0-.52A1,1,0,0,1,19.89,62.78Z"/><path class="cls-1" d="M22.23,61.43c.25.15.25.38,0,.52a1,1,0,0,1-.89,0c-.25-.14-.25-.37,0-.52A1,1,0,0,1,22.23,61.43Z"/><path class="cls-1" d="M24.57,60.08c.25.15.25.38,0,.52a1,1,0,0,1-.89,0c-.25-.14-.25-.37,0-.52A1,1,0,0,1,24.57,60.08Z"/><path class="cls-1" d="M26.91,58.73a.28.28,0,0,1,0,.52,1,1,0,0,1-.9,0,.28.28,0,0,1,0-.52A1,1,0,0,1,26.91,58.73Z"/><path class="cls-1" d="M29.25,57.38a.28.28,0,0,1,0,.52,1,1,0,0,1-.9,0c-.25-.14-.25-.37,0-.52A1,1,0,0,1,29.25,57.38Z"/><path class="cls-1" d="M31.58,56c.25.14.25.37,0,.51a1,1,0,0,1-.89,0c-.25-.14-.25-.37,0-.51A.94.94,0,0,1,31.58,56Z"/><path class="cls-1" d="M33.92,54.69c.25.14.25.37,0,.51a1,1,0,0,1-.89,0c-.25-.14-.25-.37,0-.51A.94.94,0,0,1,33.92,54.69Z"/><path class="cls-1" d="M36.26,53.34c.25.14.25.37,0,.51a1,1,0,0,1-.9,0,.27.27,0,0,1,0-.51A1,1,0,0,1,36.26,53.34Z"/><path class="cls-1" d="M38.6,52a.27.27,0,0,1,0,.51,1,1,0,0,1-.9,0,.27.27,0,0,1,0-.51A1,1,0,0,1,38.6,52Z"/><path class="cls-1" d="M40.93,50.64c.25.14.25.37,0,.51a1,1,0,0,1-.89,0c-.25-.14-.25-.37,0-.51A.94.94,0,0,1,40.93,50.64Z"/><path class="cls-1" d="M43.27,49.29c.25.14.25.37,0,.51a1,1,0,0,1-.89,0c-.25-.14-.25-.37,0-.51A.94.94,0,0,1,43.27,49.29Z"/><path class="cls-1" d="M45.61,47.94c.25.14.25.37,0,.51a.94.94,0,0,1-.89,0c-.25-.14-.25-.37,0-.51A.94.94,0,0,1,45.61,47.94Z"/><path class="cls-1" d="M48,46.59c.25.14.25.37,0,.51a1,1,0,0,1-.9,0,.27.27,0,0,1,0-.51A1,1,0,0,1,48,46.59Z"/><path class="cls-1" d="M17.56,61.43a.28.28,0,0,1,0,.52,1,1,0,0,1-.9,0,.28.28,0,0,1,0-.52A1,1,0,0,1,17.56,61.43Z"/><path class="cls-1" d="M19.89,60.08c.25.15.25.38,0,.52a1,1,0,0,1-.89,0c-.25-.14-.25-.37,0-.52A1,1,0,0,1,19.89,60.08Z"/><path class="cls-1" d="M22.23,58.73c.25.15.25.38,0,.52a1,1,0,0,1-.89,0c-.25-.14-.25-.37,0-.52A1,1,0,0,1,22.23,58.73Z"/><path class="cls-1" d="M24.57,57.38c.25.15.25.38,0,.52a1,1,0,0,1-.89,0c-.25-.14-.25-.37,0-.52A1,1,0,0,1,24.57,57.38Z"/><ellipse class="cls-1" cx="26.46" cy="56.29" rx="0.63" ry="0.37"/><path class="cls-1" d="M29.25,54.69a.27.27,0,0,1,0,.51,1,1,0,0,1-.9,0c-.25-.14-.25-.37,0-.51A1,1,0,0,1,29.25,54.69Z"/><path class="cls-1" d="M31.58,53.34c.25.14.25.37,0,.51a1,1,0,0,1-.89,0c-.25-.14-.25-.37,0-.51A.94.94,0,0,1,31.58,53.34Z"/><path class="cls-1" d="M33.92,52c.25.14.25.37,0,.51a1,1,0,0,1-.89,0c-.25-.14-.25-.37,0-.51A.94.94,0,0,1,33.92,52Z"/><path class="cls-1" d="M36.26,50.64c.25.14.25.37,0,.51a1,1,0,0,1-.9,0,.27.27,0,0,1,0-.51A1,1,0,0,1,36.26,50.64Z"/><path class="cls-1" d="M38.6,49.29a.27.27,0,0,1,0,.51,1,1,0,0,1-.9,0,.27.27,0,0,1,0-.51A1,1,0,0,1,38.6,49.29Z"/><path class="cls-1" d="M40.93,47.94c.25.14.25.37,0,.51a.94.94,0,0,1-.89,0c-.25-.14-.25-.37,0-.51A.94.94,0,0,1,40.93,47.94Z"/><path class="cls-1" d="M43.27,46.59c.25.14.25.37,0,.51a.94.94,0,0,1-.89,0c-.25-.14-.25-.37,0-.51A.94.94,0,0,1,43.27,46.59Z"/><path class="cls-1" d="M45.61,45.24c.25.14.25.37,0,.51a.94.94,0,0,1-.89,0c-.25-.14-.25-.37,0-.51A.94.94,0,0,1,45.61,45.24Z"/><path class="cls-1" d="M45.54,42.76a.28.28,0,0,1,0,.52,1,1,0,0,1-.9,0,.28.28,0,0,1,0-.52A1,1,0,0,1,45.54,42.76Z"/><path class="cls-1" d="M47.88,41.41a.28.28,0,0,1,0,.52,1,1,0,0,1-.9,0c-.25-.14-.25-.37,0-.52A1,1,0,0,1,47.88,41.41Z"/><path class="cls-1" d="M50.21,40.07c.25.14.25.37,0,.51a1,1,0,0,1-.89,0c-.25-.14-.25-.37,0-.51A.94.94,0,0,1,50.21,40.07Z"/><ellipse class="cls-1" cx="52.1" cy="38.97" rx="0.63" ry="0.37"/><path class="cls-1" d="M54.08,48a1,1,0,0,1,.9,0c.25.14.25.37,0,.51a1,1,0,0,1-.89,0C53.84,48.32,53.84,48.09,54.08,48Z"/><path class="cls-1" d="M57.32,46.6c.25.14.25.37,0,.51a1,1,0,0,1-.9,0,.27.27,0,0,1,0-.51A1,1,0,0,1,57.32,46.6Z"/><path class="cls-1" d="M59.66,45.25a.27.27,0,0,1,0,.51,1,1,0,0,1-.9,0,.27.27,0,0,1,0-.51A1,1,0,0,1,59.66,45.25Z"/><path class="cls-1" d="M51.75,46.6a1,1,0,0,1,.89,0c.25.14.25.37,0,.52a1,1,0,0,1-.89,0C51.5,47,51.5,46.74,51.75,46.6Z"/><path class="cls-1" d="M55,45.25c.25.14.25.37,0,.51a.94.94,0,0,1-.89,0c-.25-.14-.25-.37,0-.51A1,1,0,0,1,55,45.25Z"/><path class="cls-1" d="M57.32,43.9c.25.14.25.37,0,.51a1,1,0,0,1-.9,0,.27.27,0,0,1,0-.51A1,1,0,0,1,57.32,43.9Z"/><ellipse class="cls-1" cx="59.21" cy="42.81" rx="0.63" ry="0.37"/><path class="cls-1" d="M49.41,45.25a1,1,0,0,1,.89,0c.25.14.25.37,0,.52a1,1,0,0,1-.89,0C49.16,45.62,49.16,45.39,49.41,45.25Z"/><path class="cls-1" d="M52.64,43.9c.25.14.25.37,0,.51a.94.94,0,0,1-.89,0c-.25-.14-.25-.37,0-.51A1,1,0,0,1,52.64,43.9Z"/><path class="cls-1" d="M55,42.55c.25.14.25.37,0,.51a.94.94,0,0,1-.89,0c-.25-.14-.25-.37,0-.51A1,1,0,0,1,55,42.55Z"/><path class="cls-1" d="M57.32,41.2c.25.14.25.37,0,.52a1,1,0,0,1-.9,0,.28.28,0,0,1,0-.52A1,1,0,0,1,57.32,41.2Z"/><path class="cls-1" d="M47.07,43.9a1,1,0,0,1,.89,0,.28.28,0,0,1,0,.52,1,1,0,0,1-.9,0C46.82,44.27,46.82,44,47.07,43.9Z"/><path class="cls-1" d="M50.31,42.55a.27.27,0,0,1,0,.51,1,1,0,0,1-.9,0c-.25-.14-.25-.37,0-.51A1,1,0,0,1,50.31,42.55Z"/><path class="cls-1" d="M52.64,41.2c.25.14.25.37,0,.52a1,1,0,0,1-.89,0c-.25-.15-.25-.38,0-.52A1,1,0,0,1,52.64,41.2Z"/><polygon class="cls-2" points="53.44 40.29 45.62 35.87 54.35 31.49 53.87 37.37 53.44 40.29"/><path class="cls-1" d="M53.26,40.5l-8.21-4.64L54.66,31l-.52,6.37-.42,2.88A.31.31,0,0,1,53.26,40.5ZM46.2,35.89l7,4,.37-2.53L54,32Z"/><path class="cls-2" d="M49.07,37.37h0a2.23,2.23,0,0,0-2.33.63,7.28,7.28,0,0,0-2.1,6.24,2.51,2.51,0,0,0,1,1.72v0l2.7,1.45,3.44-8.59Z"/><path class="cls-1" d="M48.79,47.11a.7.7,0,0,1-1,.35l-2.5-1.35v0a2.92,2.92,0,0,1-1-1.76,7.59,7.59,0,0,1,2.19-6.5,2.61,2.61,0,0,1,2.37-.76l0,0,.26.13,2.63,1.42a.42.42,0,0,1,.18.5ZM46,45.84l2.26,1.22L51.45,39,49,37.63a2,2,0,0,0-2.05.59,7,7,0,0,0-2,6,2.23,2.23,0,0,0,.91,1.54Z"/><path class="cls-1" d="M53.05,40.5a2.26,2.26,0,0,0-4-1.36,7.59,7.59,0,0,0-2.19,6.5,2.57,2.57,0,0,0,1.54,2.1,2.11,2.11,0,0,0,.61.1,3,3,0,0,0,1.9-.84A7.61,7.61,0,0,0,53.05,40.5Z"/><polygon class="cls-2" points="31.43 53.48 23.61 49.07 32.34 44.69 31.86 50.57 31.43 53.48"/><path class="cls-1" d="M31,53.55,23,49.05l9.61-4.82-.51,6.36-.38,2.58A.53.53,0,0,1,31,53.55Zm-6.8-4.47,7,4,.37-2.53L32,45.14Z"/><path class="cls-2" d="M26.51,49.69h0a2.23,2.23,0,0,0-2.33.64,7.25,7.25,0,0,0-2.1,6.24,2.53,2.53,0,0,0,1,1.72h0l2.7,1.46,3.43-8.6Z"/><path class="cls-1" d="M26.19,59.51a.61.61,0,0,1-.85.31l-2.59-1.39h0a3.13,3.13,0,0,1-.95-1.81A7.6,7.6,0,0,1,24,50.12a2.63,2.63,0,0,1,2.36-.76v0l.27.14,2.44,1.32a.63.63,0,0,1,.29.8ZM23.4,58.16l2.26,1.22,3.23-8.09L26.4,49.94a2,2,0,0,0-2,.59,7,7,0,0,0-2,6,2.29,2.29,0,0,0,.92,1.55Z"/><path class="cls-1" d="M30.49,52.82A2.59,2.59,0,0,0,29,50.71a2.6,2.6,0,0,0-2.51.74A7.62,7.62,0,0,0,24.26,58a2.56,2.56,0,0,0,1.54,2.1,1.81,1.81,0,0,0,.61.1,2.88,2.88,0,0,0,1.89-.84A7.57,7.57,0,0,0,30.49,52.82Z"/><path class="cls-2" d="M40.14,27.08,57.63,10.92l-17-9.84L40.16.81c-.9-.51-1.26-.67-2-.28L9.22,17.33a2,2,0,0,0-.88,1.24L6.23,30.13,1.07,35.49c-.36.45.44,1.23.44,1.71L2,43l.5,1.89-.64.59.08.82,2.45-.85,0-1.68c.19-1.32.62-3.81,2.59-5,3.52-2.21,3.7,3.23,3.8,4.31,0,.33.29.46.6.28L15.53,41l.47.54,8.85-.65,14-12.64,1.28-.72Z"/><path class="cls-3" d="M40.24,28.29l16.7-15.7-17-9.84-.47-.28c-.9-.5-1.26-.67-2-.27L10.61,17.81a2,2,0,0,0-.88,1.24L7.62,30.62,1.17,36.7c-.35.46.45,1.24.45,1.71l.52,5.76.51,1.88L2,46.64l.08.82,2.46-.85,0-1.68c.19-1.32.62-3.81,2.59-5,3.53-2.2,3.7,3.24,3.81,4.31,0,.34.29.46.6.28l4.07-2.28.47.53L25,42.09,39,29.45l1.28-.73Z"/><path class="cls-1" d="M1.71,46.67l-.14-1.36.62-.57L1.73,43,1.2,37.23A1.5,1.5,0,0,0,1,36.68c-.22-.42-.5-1-.16-1.38L5.94,30,8,18.51a2.35,2.35,0,0,1,1-1.45L38,.26c.87-.48,1.36-.25,2.29.28l.49.27,17.36,10L40.45,27.21v.49L39,28.51,25,41.18l-9.11.66-.41-.46-3.85,2.16a.73.73,0,0,1-.71.05.67.67,0,0,1-.36-.57l0-.27c-.08-1-.29-3.57-1.46-4.16a1.89,1.89,0,0,0-1.84.35C5.5,40,5,42.08,4.77,43.76l0,1.86Zm.51-1.11,0,.26,1.87-.65,0-1.46c.16-1.1.57-3.94,2.74-5.3A2.49,2.49,0,0,1,9.34,38c1.49.75,1.71,3.5,1.8,4.67l0,.26a.15.15,0,0,0,0,.08.25.25,0,0,0,.11,0l4.3-2.41.53.61,8.59-.63L38.64,28l1.18-.67v-.39L57.11,11,40,1.08C39.13.59,38.91.49,38.32.81L9.37,17.6a1.82,1.82,0,0,0-.73,1L6.52,30.28,1.29,35.71c-.07.09.11.43.25.68a2,2,0,0,1,.28.81l.53,5.73.54,2Z"/><path class="cls-2" d="M.51,47.48h0L19.13,58.22,24.9,40.8l-4.54-2.57h0L6.28,30.06,1.12,35.42a2.6,2.6,0,0,0-.57,1.49Z"/><path class="cls-3" d="M1.44,48.13h0L19.1,58.31,24,41.77,6.31,31.59,2.05,36.06a2.62,2.62,0,0,0-.57,1.5Z"/><path class="cls-1" d="M18.93,58.47.19,47.66l0-10.75a2.92,2.92,0,0,1,.63-1.69l5.35-5.56L20.52,38l4.76,2.69ZM.82,47.3,19,57.76,24.53,41,20.2,38.5l-13.87-8-5,5.18a2.28,2.28,0,0,0-.48,1.28Z"/><path class="cls-2" d="M24.94,23.38l-8.61-5c-.46-.26-.4-.71.12-1l3.11-1.79a2,2,0,0,1,1.77-.08l8.61,5c.46.26.4.72-.12,1L26.71,23.3A2,2,0,0,1,24.94,23.38Z"/><path class="cls-1" d="M25.71,23.87a1.92,1.92,0,0,1-.92-.22l-8.62-5a.84.84,0,0,1-.46-.71,1,1,0,0,1,.59-.85l3.11-1.79a2.29,2.29,0,0,1,2.08-.08l8.61,5a.84.84,0,0,1,.46.71,1,1,0,0,1-.59.85l-3.11,1.8A2.37,2.37,0,0,1,25.71,23.87Zm-.61-.76A1.66,1.66,0,0,0,26.55,23l3.11-1.79c.19-.11.28-.24.28-.31s-.11-.14-.15-.17l-8.62-5a1.62,1.62,0,0,0-1.45.07l-3.11,1.8c-.2.11-.28.23-.28.3s.11.15.15.17Z"/><path class="cls-3" d="M22.66,21.06l-2-1.17c-.1-.06-.09-.16,0-.23l.73-.43a.48.48,0,0,1,.42,0l2,1.16c.1.06.09.17,0,.24l-.73.42A.48.48,0,0,1,22.66,21.06Z"/><path class="cls-1" d="M22.55,20.68a.69.69,0,0,1-.32-.08l-2-1.16a.39.39,0,0,1-.2-.34.43.43,0,0,1,.23-.37l.73-.42a.74.74,0,0,1,.69,0l2,1.17a.38.38,0,0,1,.2.33.42.42,0,0,1-.23.37l-.73.43A.78.78,0,0,1,22.55,20.68Zm-.05-.55a.27.27,0,0,0,.15,0l.54-.32-1.8-1a.21.21,0,0,0-.15,0l-.54.31Z"/><path class="cls-2" d="M17.34,48.83,16,48a.31.31,0,0,0-.32,0,.39.39,0,0,0-.17.36V51a.89.89,0,0,0,.38.71l1.39.8a.31.31,0,0,0,.18,0,.32.32,0,0,0,.14,0,.39.39,0,0,0,.17-.36V49.54A.89.89,0,0,0,17.34,48.83Z"/><path class="cls-1" d="M17.41,52.86a.63.63,0,0,1-.32-.1L15.7,52a1.15,1.15,0,0,1-.51-.94V48.37a.65.65,0,0,1,.3-.59.59.59,0,0,1,.6,0l1.38.81a1.14,1.14,0,0,1,.52.94v2.65a.65.65,0,0,1-.31.59A.5.5,0,0,1,17.41,52.86Zm-1.61-4.6c-.05,0-.07,0-.07.11V51a.6.6,0,0,0,.24.47l1.39.81c.06,0,.09,0,.09-.11V49.54a.58.58,0,0,0-.25-.47l-1.38-.81Z"/><path class="cls-2" d="M17.48,54l-1.67-1a.24.24,0,0,0-.23,0,.28.28,0,0,0-.12.25v.33a.54.54,0,0,0,.24.45l1.66,1,.13,0,.11,0a.3.3,0,0,0,.12-.25v-.33A.57.57,0,0,0,17.48,54Z"/><path class="cls-1" d="M17.49,55.34a.5.5,0,0,1-.26-.08l-1.66-1a.79.79,0,0,1-.38-.68v-.33a.54.54,0,0,1,.26-.48.47.47,0,0,1,.5,0l1.66,1a.81.81,0,0,1,.38.68v.33a.54.54,0,0,1-.26.48A.48.48,0,0,1,17.49,55.34Zm-1.81-2.05.05.33a.27.27,0,0,0,.11.21l1.66,1-.05-.33a.27.27,0,0,0-.11-.21Z"/><path class="cls-2" d="M3.5,40.93l-1.39-.8a.34.34,0,0,0-.32,0,.41.41,0,0,0-.17.36v2.65a.85.85,0,0,0,.38.71l1.38.8a.38.38,0,0,0,.19.06.37.37,0,0,0,.14,0,.4.4,0,0,0,.16-.36V41.64A.88.88,0,0,0,3.5,40.93Z"/><path class="cls-1" d="M3.57,45a.62.62,0,0,1-.32-.09l-1.39-.8a1.16,1.16,0,0,1-.51-1V40.47a.66.66,0,0,1,.3-.59.55.55,0,0,1,.59,0l1.39.8a1.13,1.13,0,0,1,.51.94v2.65a.65.65,0,0,1-.3.59A.53.53,0,0,1,3.57,45ZM2,40.36s-.06,0-.06.11v2.65a.64.64,0,0,0,.24.48l1.39.8c.06,0,.08,0,.08-.11V41.64a.62.62,0,0,0-.24-.47L2,40.37Z"/><path class="cls-2" d="M3.63,46.11,2,45.15a.24.24,0,0,0-.23,0,.28.28,0,0,0-.12.25v.33a.54.54,0,0,0,.24.45l1.66,1a.31.31,0,0,0,.13,0,.16.16,0,0,0,.1,0,.28.28,0,0,0,.12-.25v-.33A.54.54,0,0,0,3.63,46.11Z"/><path class="cls-1" d="M3.65,47.44a.5.5,0,0,1-.26-.08l-1.67-1a.8.8,0,0,1-.37-.68v-.33a.53.53,0,0,1,.25-.48.49.49,0,0,1,.51,0l1.66,1a.82.82,0,0,1,.37.68v.33a.53.53,0,0,1-.25.48A.55.55,0,0,1,3.65,47.44Zm-1.81-2,0,.33a.3.3,0,0,0,.1.21l1.67,1-.06-.33a.3.3,0,0,0-.1-.21Z"/><path class="cls-2" d="M13.89,46.65,5.62,41.88a.4.4,0,0,0-.42,0,.51.51,0,0,0-.22.46v4.75a1.19,1.19,0,0,0,.5,1l8.27,4.77a.49.49,0,0,0,.24.07.27.27,0,0,0,.18,0,.51.51,0,0,0,.22-.46V47.6A1.19,1.19,0,0,0,13.89,46.65Z"/><path class="cls-3" d="M11,48.92,9.11,47.83a.09.09,0,0,0-.1,0,.13.13,0,0,0,0,.11V49a.24.24,0,0,0,.12.21L11,50.32l.06,0h0a.13.13,0,0,0,0-.11V49.14A.27.27,0,0,0,11,48.92Z"/><path class="cls-1" d="M10.5,49.74a.36.36,0,0,1-.2-.06L8.42,48.59a.53.53,0,0,1-.25-.45V47.06a.4.4,0,0,1,.18-.34.38.38,0,0,1,.37,0l1.89,1.08a.58.58,0,0,1,.25.45v1.09a.38.38,0,0,1-.19.34l-.06,0ZM8.71,47.35v.79l1.6.92v-.79Z"/><path class="cls-1" d="M14,53.13a.74.74,0,0,1-.37-.1L5.35,48.25a1.46,1.46,0,0,1-.64-1.18V42.32a.79.79,0,0,1,.35-.7.68.68,0,0,1,.69,0L14,46.42a1.43,1.43,0,0,1,.64,1.18v4.75a.79.79,0,0,1-.35.7A.69.69,0,0,1,14,53.13ZM5.38,42.08h0a.31.31,0,0,0-.08.23v4.75a.9.9,0,0,0,.37.71l8.27,4.78.1,0a.23.23,0,0,0,.13-.24V47.6a.9.9,0,0,0-.37-.71L5.48,42.11A.29.29,0,0,0,5.38,42.08Z"/><path class="cls-1" d="M58,10.7a.92.92,0,0,0-.9.06l-29.37,17a2.37,2.37,0,0,0-1,1.46l-2.1,11.47L19.5,46a2.86,2.86,0,0,0-.63,1.69l-.05,10.68.38.21.16-.08,3.93-2a.88.88,0,0,0,.46-.74l.16-1.22a7.3,7.3,0,0,1,2.85-4.89,2.32,2.32,0,0,1,2.5-.31c1.15.69,1.67,2.74,1.61,3.63v.16a.72.72,0,0,0,.36.62.73.73,0,0,0,.73,0l13.9-8a.71.71,0,0,0,.35-.56l0-.85c0-.07,0-.13,0-.19a2.09,2.09,0,0,0,0-.26c0-1.87.57-5.39,3-6.76a2.47,2.47,0,0,1,2.27-.4c1,.49,1.27,2.17,1.39,3q0,.23.06.36a.68.68,0,0,0,.38.51.77.77,0,0,0,.71-.08l3.32-1.91a2.22,2.22,0,0,0,1-1.77V11.51A.9.9,0,0,0,58,10.7Z"/><path class="cls-2" d="M16,24.92l-5.74-3.3a.57.57,0,0,0-.54,0,.61.61,0,0,0-.33.43L8.33,28a1,1,0,0,0,.48,1l5.53,3.22a.62.62,0,0,0,.32.09.6.6,0,0,0,.27-.06.66.66,0,0,0,.37-.46l1.16-5.9A.89.89,0,0,0,16,24.92Z"/><path class="cls-1" d="M14.66,32.57a.84.84,0,0,1-.46-.13L8.67,29.23a1.27,1.27,0,0,1-.61-1.33L9.14,22a.86.86,0,0,1,.49-.62.85.85,0,0,1,.79,0l5.74,3.3a1.2,1.2,0,0,1,.57,1.25l-1.16,5.9a.91.91,0,0,1-.53.66A1,1,0,0,1,14.66,32.57ZM10,21.81a.31.31,0,0,0-.13,0,.3.3,0,0,0-.18.23L8.59,28a.74.74,0,0,0,.35.76L14.48,32a.34.34,0,0,0,.34,0,.35.35,0,0,0,.21-.27l1.16-5.89a.64.64,0,0,0-.3-.68l-5.74-3.3A.32.32,0,0,0,10,21.81Z"/><path class="cls-2" d="M24.52,29.87l-5.74-3.3a.59.59,0,0,0-.87.41l-1.08,5.93a1,1,0,0,0,.48,1l5.53,3.22a.62.62,0,0,0,.33.08.58.58,0,0,0,.26,0,.63.63,0,0,0,.37-.47L25,30.83A.9.9,0,0,0,24.52,29.87Z"/><path class="cls-1" d="M23.17,37.53a.94.94,0,0,1-.46-.13l-5.54-3.22a1.27,1.27,0,0,1-.61-1.32l1.09-5.93a.84.84,0,0,1,.48-.63.88.88,0,0,1,.79,0l5.74,3.3a1.18,1.18,0,0,1,.57,1.25l-1.16,5.9a.9.9,0,0,1-.53.65A.81.81,0,0,1,23.17,37.53ZM18.49,26.77a.31.31,0,0,0-.13,0,.29.29,0,0,0-.18.23L17.09,33a.75.75,0,0,0,.35.76L23,36.93a.37.37,0,0,0,.34,0,.36.36,0,0,0,.21-.27l1.17-5.9a.64.64,0,0,0-.31-.67l-5.74-3.3A.29.29,0,0,0,18.49,26.77Z"/><path class="cls-2" d="M27.86,39.72a.65.65,0,0,1-.4-.14,1,1,0,0,1-.25-1.09l1.49-7.81a2.4,2.4,0,0,1,1-1.41l1.06-.65a.67.67,0,0,1,1.08.62v6.85a2.72,2.72,0,0,1-1.26,2.18l-2.24,1.3A.93.93,0,0,1,27.86,39.72Zm1.36-8.91-1.48,7.8c-.08.29,0,.48.05.54s.16,0,.29,0l2.24-1.3a2.21,2.21,0,0,0,1-1.71V29.24c0-.12,0-.18-.06-.2a.24.24,0,0,0-.2,0L30,29.74A1.87,1.87,0,0,0,29.22,30.81Z"/><path class="cls-2" d="M34.07,49.49a1,1,0,0,1-.46-.12.9.9,0,0,1-.45-.79V28.46a1.41,1.41,0,0,1,.71-1.22l4.67-2.65a.75.75,0,0,1,1.11.65V45.56a1.47,1.47,0,0,1-.73,1.27l-4.4,2.54A.92.92,0,0,1,34.07,49.49ZM38.9,25a.2.2,0,0,0-.1,0l-4.66,2.66a.86.86,0,0,0-.44.74V48.58a.37.37,0,0,0,.18.32.35.35,0,0,0,.37,0l4.4-2.54a.94.94,0,0,0,.46-.8V25.24a.22.22,0,0,0-.1-.18Z"/><path class="cls-2" d="M34.75,40.23a.46.46,0,0,1-.23-.06.61.61,0,0,1-.27-.55v-.74a1.16,1.16,0,0,1,.52-1l1.92-1.12a.51.51,0,0,1,.52,0,.61.61,0,0,1,.27.55v.74A1.15,1.15,0,0,1,37,39L35,40.15A.67.67,0,0,1,34.75,40.23Zm2.18-2.94L35,38.39a.62.62,0,0,0-.25.49v.74c0,.06,0,.09,0,.09l1.88-1.15a.62.62,0,0,0,.25-.49v-.74S36.94,37.3,36.93,37.29Z"/><path class="cls-2" d="M26.82,58.23a1.21,1.21,0,0,1-.38-.06,1.58,1.58,0,0,1-1-1.29,4.43,4.43,0,0,1,1.29-3.83,1.41,1.41,0,0,1,2.51.84h0A4.38,4.38,0,0,1,28,57.72,1.77,1.77,0,0,1,26.82,58.23Zm1.11-5.15a1.31,1.31,0,0,0-.81.37A3.9,3.9,0,0,0,26,56.77a1.08,1.08,0,0,0,.6.89,1.1,1.1,0,0,0,1-.34A3.9,3.9,0,0,0,28.74,54h0a1.08,1.08,0,0,0-.6-.89Z"/><path class="cls-2" d="M49.43,45.92a1,1,0,0,1-.38-.07,1.55,1.55,0,0,1-1-1.29,4.39,4.39,0,0,1,1.29-3.83,1.41,1.41,0,0,1,2.5.85,4.41,4.41,0,0,1-1.28,3.83A1.86,1.86,0,0,1,49.43,45.92Zm1.11-5.16a1.27,1.27,0,0,0-.81.38,3.89,3.89,0,0,0-1.11,3.32.89.89,0,0,0,1.62.54,3.9,3.9,0,0,0,1.11-3.32,1.07,1.07,0,0,0-.6-.88A.78.78,0,0,0,50.54,40.76Z"/></g></g></g></svg>