<svg xmlns="http://www.w3.org/2000/svg" viewBox="0 0 82.06 95.67"><defs><style>.cls-1{fill:#16110d;}.cls-2{fill:#ffbe2e;}.cls-3{fill:#fec;}</style></defs><g id="Layer_2" data-name="Layer 2"><g id="content"><g id="_15" data-name="15"><path class="cls-1" d="M37.08,94a.25.25,0,0,1,0,.48.93.93,0,0,1-.83,0,.25.25,0,0,1,0-.48A.93.93,0,0,1,37.08,94Z"/><path class="cls-1" d="M39.26,92.77c.22.14.22.35,0,.48a.89.89,0,0,1-.84,0c-.23-.13-.23-.34,0-.48A1,1,0,0,1,39.26,92.77Z"/><path class="cls-1" d="M41.43,91.52c.23.13.23.34,0,.48a.93.93,0,0,1-.83,0c-.23-.14-.23-.35,0-.48A.87.87,0,0,1,41.43,91.52Z"/><path class="cls-1" d="M43.61,90.26a.25.25,0,0,1,0,.48.93.93,0,0,1-.83,0,.25.25,0,0,1,0-.48A.93.93,0,0,1,43.61,90.26Z"/><path class="cls-1" d="M45.79,89c.23.14.23.35,0,.48a.89.89,0,0,1-.84,0c-.23-.13-.23-.34,0-.48A1,1,0,0,1,45.79,89Z"/><path class="cls-1" d="M48,87.75c.23.13.23.34,0,.48a.93.93,0,0,1-.83,0c-.23-.14-.23-.35,0-.48A.87.87,0,0,1,48,87.75Z"/><path class="cls-1" d="M50.14,86.49a.25.25,0,0,1,0,.48.93.93,0,0,1-.83,0,.25.25,0,0,1,0-.48A.93.93,0,0,1,50.14,86.49Z"/><path class="cls-1" d="M52.32,85.23a.25.25,0,0,1,0,.48.89.89,0,0,1-.84,0,.25.25,0,0,1,0-.48A1,1,0,0,1,52.32,85.23Z"/><path class="cls-1" d="M34.9,92.77c.23.14.23.35,0,.48a.87.87,0,0,1-.83,0c-.23-.13-.23-.34,0-.48A.93.93,0,0,1,34.9,92.77Z"/><path class="cls-1" d="M37.08,91.52c.23.13.23.34,0,.48a.93.93,0,0,1-.83,0c-.23-.14-.23-.35,0-.48A.87.87,0,0,1,37.08,91.52Z"/><path class="cls-1" d="M39.26,90.26a.25.25,0,0,1,0,.48,1,1,0,0,1-.84,0,.25.25,0,0,1,0-.48A1,1,0,0,1,39.26,90.26Z"/><path class="cls-1" d="M41.43,89c.23.14.23.35,0,.48a.87.87,0,0,1-.83,0c-.23-.13-.23-.34,0-.48A.93.93,0,0,1,41.43,89Z"/><path class="cls-1" d="M43.61,87.75c.23.13.23.34,0,.48a.93.93,0,0,1-.83,0c-.23-.14-.23-.35,0-.48A.87.87,0,0,1,43.61,87.75Z"/><path class="cls-1" d="M45.79,86.49a.25.25,0,0,1,0,.48A1,1,0,0,1,45,87a.25.25,0,0,1,0-.48A1,1,0,0,1,45.79,86.49Z"/><ellipse class="cls-1" cx="47.55" cy="85.47" rx="0.59" ry="0.34"/><path class="cls-1" d="M32.72,91.52c.23.13.23.34,0,.48a.93.93,0,0,1-.83,0c-.23-.14-.23-.35,0-.48A.87.87,0,0,1,32.72,91.52Z"/><path class="cls-1" d="M34.9,90.26a.25.25,0,0,1,0,.48.93.93,0,0,1-.83,0,.25.25,0,0,1,0-.48A.93.93,0,0,1,34.9,90.26Z"/><ellipse class="cls-1" cx="36.66" cy="89.24" rx="0.59" ry="0.34"/><path class="cls-1" d="M50.14,84c.23.13.23.34,0,.48a.93.93,0,0,1-.83,0c-.23-.14-.23-.35,0-.48A.87.87,0,0,1,50.14,84Z"/><path class="cls-1" d="M39.26,87.75c.23.13.23.34,0,.48a1,1,0,0,1-.84,0c-.23-.14-.23-.35,0-.48A.89.89,0,0,1,39.26,87.75Z"/><path class="cls-1" d="M41.43,86.49a.25.25,0,0,1,0,.48.93.93,0,0,1-.83,0,.25.25,0,0,1,0-.48A.93.93,0,0,1,41.43,86.49Z"/><path class="cls-1" d="M43.61,85.23a.25.25,0,0,1,0,.48.87.87,0,0,1-.83,0,.25.25,0,0,1,0-.48A.93.93,0,0,1,43.61,85.23Z"/><path class="cls-1" d="M45.79,84c.23.13.23.34,0,.48a1,1,0,0,1-.84,0c-.23-.14-.23-.35,0-.48A.89.89,0,0,1,45.79,84Z"/><path class="cls-1" d="M48,82.72a.25.25,0,0,1,0,.48.93.93,0,0,1-.83,0,.25.25,0,0,1,0-.48A.93.93,0,0,1,48,82.72Z"/><path class="cls-1" d="M30.55,90.26a.25.25,0,0,1,0,.48,1,1,0,0,1-.84,0,.25.25,0,0,1,0-.48A1,1,0,0,1,30.55,90.26Z"/><path class="cls-1" d="M32.72,89c.23.14.23.35,0,.48a.87.87,0,0,1-.83,0c-.23-.13-.23-.34,0-.48A.93.93,0,0,1,32.72,89Z"/><ellipse class="cls-1" cx="34.48" cy="87.99" rx="0.59" ry="0.34"/><ellipse class="cls-1" cx="36.66" cy="86.73" rx="0.59" ry="0.34"/><path class="cls-1" d="M39.26,85.23a.25.25,0,0,1,0,.48.89.89,0,0,1-.84,0,.25.25,0,0,1,0-.48A1,1,0,0,1,39.26,85.23Z"/><path class="cls-1" d="M41.43,84c.23.13.23.34,0,.48a.93.93,0,0,1-.83,0c-.23-.14-.23-.35,0-.48A.87.87,0,0,1,41.43,84Z"/><path class="cls-1" d="M42.78,82.72a.93.93,0,0,1,.83,0,.25.25,0,0,1,0,.48.93.93,0,0,1-.83,0,.25.25,0,0,1,0-.48Z"/><path class="cls-1" d="M45.79,81.46a.25.25,0,0,1,0,.48,1,1,0,0,1-.84,0,.25.25,0,0,1,0-.48A1,1,0,0,1,45.79,81.46Z"/><path class="cls-1" d="M28.37,89c.23.14.23.35,0,.48a.87.87,0,0,1-.83,0c-.23-.13-.23-.34,0-.48A.93.93,0,0,1,28.37,89Z"/><ellipse class="cls-1" cx="30.13" cy="87.99" rx="0.59" ry="0.34"/><path class="cls-1" d="M32.72,86.49a.25.25,0,0,1,0,.48.93.93,0,0,1-.83,0,.25.25,0,0,1,0-.48A.93.93,0,0,1,32.72,86.49Z"/><ellipse class="cls-1" cx="34.48" cy="85.47" rx="0.59" ry="0.34"/><ellipse class="cls-1" cx="36.66" cy="84.22" rx="0.59" ry="0.34"/><path class="cls-1" d="M39.26,82.72a.25.25,0,0,1,0,.48,1,1,0,0,1-.84,0,.25.25,0,0,1,0-.48,1,1,0,0,1,.84,0Z"/><ellipse class="cls-1" cx="27.93" cy="86.72" rx="0.59" ry="0.34"/><ellipse class="cls-1" cx="30.11" cy="85.46" rx="0.59" ry="0.34"/><path class="cls-1" d="M32.71,84a.25.25,0,0,1,0,.48.89.89,0,0,1-.84,0,.25.25,0,0,1,0-.48A1,1,0,0,1,32.71,84Z"/><ellipse class="cls-1" cx="34.47" cy="82.95" rx="0.59" ry="0.34"/><path class="cls-1" d="M37.06,81.45a.25.25,0,0,1,0,.48.93.93,0,0,1-.83,0,.25.25,0,0,1,0-.48.93.93,0,0,1,.83,0Z"/><path class="cls-1" d="M43.69,95.09c.23.13.23.34,0,.48a.93.93,0,0,1-.83,0c-.23-.14-.23-.35,0-.48A.87.87,0,0,1,43.69,95.09Z"/><path class="cls-1" d="M45.87,93.83a.25.25,0,0,1,0,.48.93.93,0,0,1-.83,0,.25.25,0,0,1,0-.48A.93.93,0,0,1,45.87,93.83Z"/><ellipse class="cls-1" cx="47.63" cy="92.81" rx="0.59" ry="0.34"/><path class="cls-1" d="M50.23,91.32c.23.13.23.34,0,.48a1,1,0,0,1-.84,0c-.23-.14-.23-.35,0-.48A.89.89,0,0,1,50.23,91.32Z"/><ellipse class="cls-1" cx="51.99" cy="90.3" rx="0.59" ry="0.34"/><path class="cls-1" d="M54.58,88.8a.25.25,0,0,1,0,.48.87.87,0,0,1-.83,0,.25.25,0,0,1,0-.48A.93.93,0,0,1,54.58,88.8Z"/><path class="cls-1" d="M39.34,95.09c.23.13.23.34,0,.48a.93.93,0,0,1-.83,0c-.23-.14-.23-.35,0-.48A.87.87,0,0,1,39.34,95.09Z"/><path class="cls-1" d="M41.52,93.83a.25.25,0,0,1,0,.48,1,1,0,0,1-.84,0,.25.25,0,0,1,0-.48A1,1,0,0,1,41.52,93.83Z"/><path class="cls-1" d="M43.69,92.57c.23.14.23.35,0,.48a.87.87,0,0,1-.83,0c-.23-.13-.23-.34,0-.48A.93.93,0,0,1,43.69,92.57Z"/><path class="cls-1" d="M45.87,91.32c.23.13.23.34,0,.48a.93.93,0,0,1-.83,0c-.23-.14-.23-.35,0-.48A.87.87,0,0,1,45.87,91.32Z"/><path class="cls-1" d="M48.05,90.06a.25.25,0,0,1,0,.48.93.93,0,0,1-.83,0,.25.25,0,0,1,0-.48A.93.93,0,0,1,48.05,90.06Z"/><ellipse class="cls-1" cx="49.81" cy="89.04" rx="0.59" ry="0.34"/><path class="cls-1" d="M52.4,87.54a.26.26,0,0,1,0,.49.93.93,0,0,1-.83,0,.26.26,0,0,1,0-.49A.93.93,0,0,1,52.4,87.54Z"/><ellipse class="cls-1" cx="54.16" cy="86.53" rx="0.59" ry="0.34"/><g id="drone"><polygon class="cls-2" points="27.37 77.15 27.37 61.43 40.74 69.23 40.74 84.95 27.37 77.15"/><polygon class="cls-2" points="27.37 61.43 41.56 53.16 55.12 60.87 40.74 69.23 27.37 61.43"/><polygon class="cls-3" points="27.37 62.42 41.56 54.14 55.12 61.86 40.74 70.22 27.37 62.42"/><path class="cls-1" d="M55.34,61v-.25h0l-.22-.13L41.56,52.9,27.37,61.18h0l-.22.13v.25h0V77.27l13.38,7.8h0l.21.13.22-.13h0l14.38-8.36Zm-27.53.43,13.75-8,13.12,7.46-14,8.1-7.58-4.42ZM27.59,77V61.81l5.68,3.32,7.26,4.23V84.57Z"/><path class="cls-3" d="M50.36,70.11l-4.3,2.49c-.59.34-1.07,0-1.07-.81h0a2.55,2.55,0,0,1,1.07-2l4.3-2.49c.59-.34,1.07,0,1.07.81h0A2.55,2.55,0,0,1,50.36,70.11Z"/><path class="cls-2" d="M46.06,69.78a2.55,2.55,0,0,0-1.07,2c0,.11.08.18.1.27a.44.44,0,0,0,.15-.08l4.3-2.48a2.55,2.55,0,0,0,1.07-2,1.2,1.2,0,0,0,0-.28l-.22.09Z"/><path class="cls-1" d="M51.17,67a.8.8,0,0,0-.41-.1h0a1,1,0,0,0-.47.16l-4.31,2.48a2.75,2.75,0,0,0-1.17,2.23h0v0a1.14,1.14,0,0,0,.48,1,.7.7,0,0,0,.38.1,1.07,1.07,0,0,0,.54-.16l4.3-2.48a2.78,2.78,0,0,0,1.18-2.23A1.16,1.16,0,0,0,51.17,67Zm-6,4.68a2.35,2.35,0,0,1,1-1.73l4.21-2.43a2.3,2.3,0,0,1-1,1.78l-4.21,2.44Zm5-1.78L45.94,72.4a.47.47,0,0,1-.47.06.43.43,0,0,1-.18-.23l.06,0,4.31-2.49a2.75,2.75,0,0,0,1.17-2.23.31.31,0,0,0,0-.1.28.28,0,0,1,.13,0,.75.75,0,0,1,.25.67A2.33,2.33,0,0,1,50.25,69.92Z"/><polygon class="cls-2" points="47.07 56.55 32.78 64.84 32.78 68.94 36.02 70.83 36.02 66.71 50.34 58.41 47.07 56.55"/><path class="cls-1" d="M50.16,57.8l-3.7-2.11L32.16,64h0l-.22.13v.25h0v4.1l3.68,2.15V66.22Zm-3.7-1.6,2.83,1.6-13.89,8-2.8-1.61Zm-14.08,12V64.6l2.8,1.62v3.62Z"/><path class="cls-3" d="M38.39,81.73l-2.72-1.58a1.36,1.36,0,0,1-.58-1.09V76.33c0-.43.26-.62.58-.44l2.72,1.58A1.35,1.35,0,0,1,39,78.56v2.73C39,81.71,38.71,81.91,38.39,81.73Z"/><path class="cls-1" d="M38.12,81.05a.68.68,0,0,1-.33-.09l-2.73-1.58a1.59,1.59,0,0,1-.68-1.28V75.37a.72.72,0,0,1,.31-.66.6.6,0,0,1,.59,0L38,76.32a1.59,1.59,0,0,1,.68,1.28v2.73a.74.74,0,0,1-.31.66A.58.58,0,0,1,38.12,81.05Zm-3.18-6h0s-.09.12-.09.28V78.1a1.14,1.14,0,0,0,.46.9L38,80.58a.2.2,0,0,0,.15,0,.36.36,0,0,0,.09-.28V77.6a1.21,1.21,0,0,0-.46-.91l-2.73-1.57A.28.28,0,0,0,34.94,75.08Z"/><path class="cls-1" d="M41.25,56.19c-3.59,0-6.38,2.73-6.38,5.08s2.86,4.37,6.38,4.37,6.37-2,6.37-4.37S44.83,56.19,41.25,56.19Z"/><ellipse class="cls-2" cx="41.25" cy="59.96" rx="5.26" ry="3.55"/><path class="cls-3" d="M46.51,60.91s-2.36,2.6-5.26,2.6S36,60.91,36,60.91c0-2,2.36-3.55,5.26-3.55S46.51,59,46.51,60.91Z"/><path class="cls-1" d="M41.25,63.72c-3,0-5.49-1.69-5.49-3.76s2.46-3.77,5.49-3.77,5.48,1.69,5.48,3.77S44.27,63.72,41.25,63.72Zm0-7.1c-2.79,0-5,1.5-5,3.34s2.26,3.33,5,3.33,5-1.5,5-3.33S44,56.62,41.25,56.62Z"/><path class="cls-1" d="M41.25,37.72a.84.84,0,0,0-.84.86V59.32a.84.84,0,1,0,1.68,0V38.58A.85.85,0,0,0,41.25,37.72Z"/><path class="cls-2" d="M19.84,18l.53-6.34H13.19L13.72,18s0,0,0,.05a1,1,0,0,0,0,.17v.13h0c.22,1,1.48,1.77,3,1.77s2.81-.77,3-1.77h0v-.13c0-.06,0-.11,0-.17A.09.09,0,0,0,19.84,18Z"/><path class="cls-1" d="M20.61,11.41h-7.4a.23.23,0,0,0-.23.25L13.5,18V18a.89.89,0,0,0,0,.19l.07.33a3.24,3.24,0,0,0,3.19,1.77A3.23,3.23,0,0,0,20,18.54l.08-.37a.61.61,0,0,0,0-.15V18Zm-1,6.54V18a.15.15,0,0,1,0,.06s0,.05,0,.09l0,.1a1.69,1.69,0,0,1-.73,1l.41-5.95L18,14.05H16.78v5.82c-1.4,0-2.61-.69-2.81-1.6v-.11s0-.05,0-.08a.1.1,0,0,0,0,0V18l-.51-6.13h6.7Z"/><path class="cls-2" d="M20.37,11.63c0,1.34-1.61,2.42-3.59,2.42S13.19,13,13.19,11.63s1.61-2.84,3.59-2.84S20.37,10.29,20.37,11.63Z"/><path class="cls-1" d="M16.78,14.27c-2.1,0-3.81-1.18-3.81-2.64s1.67-3.05,3.81-3.05,3.81,1.64,3.81,3.05S18.88,14.27,16.78,14.27Zm0-5.26c-1.87,0-3.37,1.44-3.37,2.62s1.51,2.2,3.37,2.2,3.37-1,3.37-2.2S18.65,9,16.78,9Z"/><path class="cls-3" d="M19.85,10.87c0,1.14-1.37,2.07-3.07,2.07s-3.07-.93-3.07-2.07,1.38-2.08,3.07-2.08S19.85,9.72,19.85,10.87Z"/><path class="cls-1" d="M16.78,13.15c-1.81,0-3.29-1-3.29-2.28S15,8.58,16.78,8.58s3.29,1,3.29,2.29S18.6,13.15,16.78,13.15Zm0-4.14c-1.57,0-2.85.83-2.85,1.86s1.28,1.85,2.85,1.85,2.85-.83,2.85-1.85S18.35,9,16.78,9Z"/><path class="cls-1" d="M17.53,8.82c-.27-.07-.43.17-.57.37l-.16.24a.94.94,0,0,1-.2-.23c-.14-.2-.31-.44-.57-.38-.77.2-1.25,1.39-1.25,1.84,0,.69.88,1.23,2,1.23s2-.54,2-1.23A2.36,2.36,0,0,0,17.53,8.82Z"/><path class="cls-3" d="M.67,10.43c-.44,0-.71.24-.66.55.09.62.53,1.78,2.3,3.38A13,13,0,0,0,6.81,17a1.36,1.36,0,0,0,1.24-.06l8.09-6.86c.2-.17-.19-.52-.56-.5Z"/><path class="cls-1" d="M8.74,19l-.31,0a13.58,13.58,0,0,1-5-1.71c-2-1.21-2.78-2.28-3-3a.64.64,0,0,1,0-.51,1,1,0,0,1,.66-.46l14.45-3.8a.84.84,0,0,1,.88.28.36.36,0,0,1,0,.44L9.83,18.6A1.36,1.36,0,0,1,8.74,19Zm7-9h-.1L1.21,13.78A.58.58,0,0,0,.82,14a.18.18,0,0,0,0,.16c.18.5.79,1.52,2.84,2.73a12.75,12.75,0,0,0,4.83,1.65,1.16,1.16,0,0,0,1-.23L16,10.05A.49.49,0,0,0,15.75,10Z"/><path class="cls-3" d="M32.64,8.84c.44,0,.72-.24.68-.56-.08-.61-.51-1.77-2.27-3.37a12.92,12.92,0,0,0-4.46-2.64,1.38,1.38,0,0,0-1.25.06L17.1,9.1c-.2.17.18.52.55.5Z"/><path class="cls-1" d="M17.48,9.64a.82.82,0,0,1-.68-.31.36.36,0,0,1,0-.44L23.56.62A1.54,1.54,0,0,1,25,.24,13.16,13.16,0,0,1,30,2c2,1.22,2.75,2.29,3,3a.59.59,0,0,1,0,.5,1,1,0,0,1-.67.45L17.68,9.61A.64.64,0,0,1,17.48,9.64Zm-.28-.52a.47.47,0,0,0,.37.07L32.11,5.48a.64.64,0,0,0,.4-.24.2.2,0,0,0,0-.15c-.17-.51-.77-1.53-2.79-2.75A13,13,0,0,0,24.91.67a1.21,1.21,0,0,0-1,.22Z"/><ellipse class="cls-3" cx="16.78" cy="9.62" rx="1.24" ry="0.7"/><path class="cls-1" d="M16.78,10.54c-.82,0-1.46-.41-1.46-.92s.64-.93,1.46-.93,1.46.41,1.46.93S17.6,10.54,16.78,10.54Zm0-1.41c-.58,0-1,.26-1,.49s.44.48,1,.48,1-.26,1-.48S17.37,9.13,16.78,9.13Z"/><path class="cls-2" d="M68.12,17.86l.53-6.34H61.47L62,17.86s0,0,0,.05a1,1,0,0,0,0,.17v.13h0c.22,1,1.48,1.77,3,1.77s2.81-.77,3-1.77h0v-.13c0-.06,0-.11,0-.17A.09.09,0,0,0,68.12,17.86Z"/><path class="cls-1" d="M68.89,11.3h-7.4a.23.23,0,0,0-.23.25l.52,6.29v.07a.89.89,0,0,0,0,.19l.07.33a3.76,3.76,0,0,0,6.38,0l.08-.37a.61.61,0,0,0,0-.15v-.06Zm-1,6.54v.07a.15.15,0,0,1,0,.06s0,.06,0,.09l0,.11a1.7,1.7,0,0,1-.73,1l.41-5.95-1.25.73H65.06v5.82c-1.4,0-2.61-.68-2.81-1.59v-.11s0-.06,0-.09a.1.1,0,0,0,0,0v-.06l-.51-6.13h6.7Z"/><path class="cls-2" d="M68.65,11.52c0,1.34-1.61,2.42-3.59,2.42s-3.59-1.08-3.59-2.42,1.61-2.83,3.59-2.83S68.65,10.19,68.65,11.52Z"/><path class="cls-1" d="M65.06,14.16c-2.1,0-3.81-1.18-3.81-2.64s1.67-3,3.81-3,3.81,1.64,3.81,3S67.16,14.16,65.06,14.16Zm0-5.26c-1.87,0-3.37,1.44-3.37,2.62s1.51,2.2,3.37,2.2,3.37-1,3.37-2.2S66.93,8.9,65.06,8.9Z"/><path class="cls-3" d="M68.13,10.76c0,1.14-1.37,2.07-3.07,2.07S62,11.9,62,10.76s1.38-2.07,3.07-2.07S68.13,9.61,68.13,10.76Z"/><path class="cls-1" d="M65.06,13.05c-1.81,0-3.29-1-3.29-2.29s1.48-2.29,3.29-2.29,3.29,1,3.29,2.29S66.88,13.05,65.06,13.05Zm0-4.15c-1.57,0-2.85.84-2.85,1.86s1.28,1.85,2.85,1.85,2.85-.83,2.85-1.85S66.63,8.9,65.06,8.9Z"/><path class="cls-1" d="M65.81,8.71c-.27-.07-.44.18-.57.38l-.16.23a.94.94,0,0,1-.2-.23c-.14-.2-.31-.44-.57-.37-.77.19-1.25,1.38-1.25,1.83,0,.69.88,1.23,2,1.23s2-.54,2-1.23A2.37,2.37,0,0,0,65.81,8.71Z"/><path class="cls-3" d="M56.64,2a1.37,1.37,0,0,0-1.22-.08A13.37,13.37,0,0,0,50.9,4.51a5.91,5.91,0,0,0-2.32,3.34c-.06.32.21.55.66.58l14.88,1c.37,0,.76-.32.56-.49Z"/><path class="cls-1" d="M64.31,9.5a.83.83,0,0,1-.22,0L49.67,5.67A1,1,0,0,1,49,5.21a.67.67,0,0,1,0-.52,6.19,6.19,0,0,1,3-2.95A13.32,13.32,0,0,1,57,0a1.55,1.55,0,0,1,1.38.39L65,8.75a.38.38,0,0,1,0,.44A.81.81,0,0,1,64.31,9.5Zm-7-9.06h-.23A13.28,13.28,0,0,0,52.2,2.12a5.76,5.76,0,0,0-2.81,2.72.2.2,0,0,0,0,.17.58.58,0,0,0,.38.24l14.43,3.8A.51.51,0,0,0,64.59,9L58,.68A1,1,0,0,0,57.29.44Z"/><path class="cls-3" d="M73.42,17a1.31,1.31,0,0,0,1.21.1,13.47,13.47,0,0,0,4.55-2.57,6,6,0,0,0,2.37-3.34c.06-.32-.2-.55-.65-.58L66.1,9.5c-.37,0-.77.31-.57.48Z"/><path class="cls-1" d="M72.78,19a1.38,1.38,0,0,1-1.1-.42L65.26,10.2a.36.36,0,0,1,0-.44.86.86,0,0,1,.89-.28l14.32,3.89a1,1,0,0,1,.66.47.59.59,0,0,1,0,.52,6.2,6.2,0,0,1-3,2.94,13.61,13.61,0,0,1-5,1.7ZM72,18.32a1.09,1.09,0,0,0,1,.24,12.94,12.94,0,0,0,4.87-1.64,5.86,5.86,0,0,0,2.86-2.72.25.25,0,0,0,0-.17.58.58,0,0,0-.38-.23L66,9.9a.46.46,0,0,0-.38.08Z"/><path class="cls-3" d="M66.3,9.51c0,.38-.55.7-1.24.7s-1.24-.32-1.24-.7.56-.71,1.24-.71S66.3,9.12,66.3,9.51Z"/><path class="cls-1" d="M65.06,10.43c-.82,0-1.46-.41-1.46-.92s.64-.92,1.46-.92,1.46.4,1.46.92S65.88,10.43,65.06,10.43Zm0-1.41c-.58,0-1,.26-1,.49s.44.48,1,.48,1-.25,1-.48S65.65,9,65.06,9Z"/><path class="cls-1" d="M32.12,28.13,18,16.74a1,1,0,0,1,1-1.66l16.16,7.58-.66,1.41L23,18.65a0,0,0,0,0,0,.06l9.66,7.79Z"/><path class="cls-2" d="M32.21,28.4,17.91,16.86a1.13,1.13,0,0,1-.27-1.46,1.11,1.11,0,0,1,1.43-.46l16.31,7.64-.79,1.7L23.83,19.23l8.93,7.21ZM18.61,15.16a.81.81,0,0,0-.7.4.8.8,0,0,0,.19,1L32,27.85l.37-1.29-9.58-7.73a.2.2,0,0,1,0-.25.19.19,0,0,1,.25-.07l11.4,5.34L35,22.73l-16-7.5A.78.78,0,0,0,18.61,15.16Z"/><path class="cls-1" d="M50.6,27.71l-1-1.21,9.83-7.94h0L47.7,24.07,47,22.66l16.13-7.57a1,1,0,0,1,1,1.66Z"/><path class="cls-2" d="M50.58,27.93,49.4,26.48l.13-.1,8.84-7.15L47.63,24.28l-.8-1.7L63.11,15a1.13,1.13,0,0,1,1.45.45,1.12,1.12,0,0,1-.29,1.47Zm-.73-1.4.78,1L64.08,16.62a.81.81,0,0,0-.84-1.38l-16,7.49.53,1.12,11.73-5.5.16.23-.11.1Z"/><path class="cls-1" d="M50.36,30.76c-1.52-2.45-5-4-8.93-4-4.13,0-7.76,1.76-9.13,4.39l-1.23-.58.76,3.67c.66,3.45,4.85,6.15,9.54,6.15s8.8-2.6,9.62-5.94h0l.06-.26.71-3.44Zm.42,3.61Z"/><path class="cls-2" d="M51.44,29h0l0-.07c0-.09-.05-.19-.08-.28l-.6-2.13h-.67c-1.79-2-5-3.26-8.64-3.26s-6.85,1.3-8.63,3.26H32L31.43,29l0,.13v.05h0a4.23,4.23,0,0,0-.1.94c0,3.78,4.54,6.84,10.14,6.84s10.15-3.06,10.15-6.84A4.54,4.54,0,0,0,51.44,29Z"/><path class="cls-1" d="M41.43,37.13c-5.71,0-10.36-3.17-10.36-7.06a4.37,4.37,0,0,1,.06-.72h0l.1-.41.63-2.67h.86c1.91-2,5.17-3.26,8.73-3.26a12.08,12.08,0,0,1,8.74,3.26h.73l.66,2.29c0,.09,0,.19.08.29l.09.34h0a4.43,4.43,0,0,1,.08.88C51.79,34,47.15,37.13,41.43,37.13Zm-9.81-8,0,.07a4.66,4.66,0,0,0-.09.9c0,3.65,4.45,6.62,9.92,6.62s9.93-3,9.93-6.62a4.56,4.56,0,0,0-.13-1l0-.07a2.68,2.68,0,0,0-.07-.27l-.57-2H50l-.06-.07c-1.82-2-5-3.18-8.48-3.18S34.78,24.64,33,26.63l-.07.07h-.71Z"/><path class="cls-2" d="M50.85,27.46c0,3.53-4.25,6.39-9.48,6.39S31.9,31,31.9,27.46s4.24-6.39,9.47-6.39S50.85,23.93,50.85,27.46Z"/><path class="cls-1" d="M41.37,34.06c-5.34,0-9.69-3-9.69-6.6s4.35-6.61,9.69-6.61,9.69,3,9.69,6.61S46.72,34.06,41.37,34.06Zm0-12.77c-5.1,0-9.25,2.77-9.25,6.17s4.15,6.17,9.25,6.17,9.26-2.77,9.26-6.17S46.48,21.29,41.37,21.29Z"/><path class="cls-1" d="M41.43,19.63c-4.58,0-8.13,3.47-8.13,6.47s3.65,5.55,8.13,5.55,8.13-2.49,8.13-5.55S46,19.63,41.43,19.63Z"/><path class="cls-2" d="M48.2,24.41c0,2.52-3,4.56-6.77,4.56s-6.77-2-6.77-4.56,3-4.57,6.77-4.57S48.2,21.89,48.2,24.41Z"/><path class="cls-3" d="M48.14,25.74A9.07,9.07,0,0,1,41.43,29a8.61,8.61,0,0,1-6.77-3.38c0-2.09,3-4.23,6.71-4.23S48.14,23.22,48.14,25.74Z"/><path class="cls-1" d="M41.43,29.19c-3.85,0-7-2.14-7-4.78s3.14-4.78,7-4.78,7,2.14,7,4.78S45.29,29.19,41.43,29.19Zm0-9.13c-3.61,0-6.55,2-6.55,4.35s2.94,4.35,6.55,4.35,6.55-2,6.55-4.35S45,20.06,41.43,20.06Z"/><path class="cls-1" d="M64.21,49.81a1,1,0,0,1-.62-.22L48.35,38a.78.78,0,0,1-.15-1.09h0a.78.78,0,0,1,1.09-.15L59,44.17,48.42,33.29a.78.78,0,0,1,0-1.1h0a.78.78,0,0,1,1.1,0L64.9,48a1.08,1.08,0,0,1,.1,1.43A1,1,0,0,1,64.21,49.81Z"/><path class="cls-2" d="M64.21,50a1.19,1.19,0,0,1-.72-.25L48.25,38.13a.94.94,0,0,1-.36-.62.89.89,0,0,1,.19-.69,1,1,0,0,1,.61-.37,1,1,0,0,1,.7.19l8,6.11L48.31,33.4a.94.94,0,0,1-.27-.67,1,1,0,0,1,.29-.66.94.94,0,0,1,1.32,0L65,47.89a1.25,1.25,0,0,1,.11,1.64A1.2,1.2,0,0,1,64.21,50ZM48.82,36.76h-.08a.6.6,0,0,0-.41.24.62.62,0,0,0-.12.46.57.57,0,0,0,.24.4l15.23,11.6a.9.9,0,0,0,1.2-.14.93.93,0,0,0-.09-1.22L49.42,32.32a.62.62,0,1,0-.88.86l10.6,10.88-.21.24-9.74-7.41A.59.59,0,0,0,48.82,36.76Z"/><path class="cls-1" d="M18,49.81a1,1,0,0,1-.79-.38A1.08,1.08,0,0,1,17.32,48L33,32.19a.78.78,0,0,1,1.1,0h0a.78.78,0,0,1,0,1.1L23.23,44.23l10.05-7.48a.79.79,0,0,1,1.09.16h0A.79.79,0,0,1,34.21,38L18.63,49.6A1.06,1.06,0,0,1,18,49.81Z"/><path class="cls-2" d="M18,50a1.18,1.18,0,0,1-.91-.44,1.23,1.23,0,0,1,.11-1.64L32.85,32.08a1,1,0,0,1,.67-.28h0a1,1,0,0,1,.66.27,1,1,0,0,1,.28.66,1,1,0,0,1-.28.67l-9.35,9.45,8.36-6.23a.93.93,0,0,1,1.48.89,1,1,0,0,1-.37.62L18.72,49.73A1.24,1.24,0,0,1,18,50ZM33.52,32.12a.62.62,0,0,0-.44.18L17.43,48.11a.92.92,0,0,0-.1,1.22.9.9,0,0,0,1.2.14l15.58-11.6a.62.62,0,1,0-.73-1L23.33,44.36l-.21-.24L34,33.17a.61.61,0,0,0,0-.87A.6.6,0,0,0,33.52,32.12Z"/><path class="cls-3" d="M39.32,35.92l-2.17-.54a.72.72,0,0,1-.53-.88h0A.73.73,0,0,1,37.5,34l2.18.54a.73.73,0,0,1,.53.89h0A.73.73,0,0,1,39.32,35.92Z"/><path class="cls-3" d="M39.55,33.2,38.23,33a.63.63,0,0,1-.49-.72h0a.62.62,0,0,1,.72-.49l1.31.25a.62.62,0,0,1,.5.72h0A.63.63,0,0,1,39.55,33.2Z"/><path class="cls-2" d="M39.73,38.94l-1.6-.16a.74.74,0,0,1-.66-.8h0a.73.73,0,0,1,.8-.66l1.6.16a.75.75,0,0,1,.67.8h0A.73.73,0,0,1,39.73,38.94Z"/><path class="cls-2" d="M40.43,30a.76.76,0,1,1-.75-.76A.76.76,0,0,1,40.43,30Z"/><path class="cls-1" d="M41.62,27.33a.15.15,0,0,1,0,.29.53.53,0,0,1-.49,0,.15.15,0,0,1,0-.29A.53.53,0,0,1,41.62,27.33Z"/><path class="cls-1" d="M42.92,26.58a.16.16,0,0,1,0,.29.55.55,0,0,1-.5,0,.15.15,0,0,1,0-.29A.55.55,0,0,1,42.92,26.58Z"/><path class="cls-1" d="M44.21,25.83a.15.15,0,0,1,0,.29.53.53,0,0,1-.49,0,.15.15,0,0,1,0-.29A.53.53,0,0,1,44.21,25.83Z"/><path class="cls-1" d="M45.51,25.09c.14.07.14.2,0,.28a.55.55,0,0,1-.5,0c-.13-.08-.13-.21,0-.28A.55.55,0,0,1,45.51,25.09Z"/><path class="cls-1" d="M40.32,26.58a.15.15,0,0,1,0,.29.53.53,0,0,1-.49,0,.15.15,0,0,1,0-.29A.53.53,0,0,1,40.32,26.58Z"/><path class="cls-1" d="M41.62,25.83a.15.15,0,0,1,0,.29.53.53,0,0,1-.49,0,.15.15,0,0,1,0-.29A.53.53,0,0,1,41.62,25.83Z"/><path class="cls-1" d="M42.92,25.09c.13.07.13.2,0,.28a.55.55,0,0,1-.5,0c-.14-.08-.14-.21,0-.28A.55.55,0,0,1,42.92,25.09Z"/><path class="cls-1" d="M44.21,24.34c.14.08.14.2,0,.28a.53.53,0,0,1-.49,0c-.14-.08-.14-.2,0-.28A.53.53,0,0,1,44.21,24.34Z"/><path class="cls-1" d="M39,25.83a.15.15,0,0,1,0,.29.55.55,0,0,1-.5,0,.16.16,0,0,1,0-.29A.55.55,0,0,1,39,25.83Z"/><path class="cls-1" d="M40.32,25.09c.14.07.14.2,0,.28a.53.53,0,0,1-.49,0c-.14-.08-.14-.21,0-.28A.53.53,0,0,1,40.32,25.09Z"/><path class="cls-1" d="M41.62,24.34c.14.08.14.2,0,.28a.53.53,0,0,1-.49,0c-.14-.08-.14-.2,0-.28A.53.53,0,0,1,41.62,24.34Z"/><path class="cls-1" d="M42.92,23.59c.13.08.13.21,0,.28a.55.55,0,0,1-.5,0c-.14-.07-.14-.2,0-.28A.55.55,0,0,1,42.92,23.59Z"/><path class="cls-1" d="M37.73,25.09c.14.07.14.2,0,.28a.53.53,0,0,1-.49,0c-.14-.08-.14-.21,0-.28A.53.53,0,0,1,37.73,25.09Z"/><path class="cls-1" d="M39,24.34c.14.08.14.2,0,.28a.55.55,0,0,1-.5,0,.15.15,0,0,1,0-.28A.55.55,0,0,1,39,24.34Z"/><path class="cls-1" d="M40.32,23.59c.14.08.14.21,0,.28a.53.53,0,0,1-.49,0c-.14-.07-.14-.2,0-.28A.53.53,0,0,1,40.32,23.59Z"/><path class="cls-1" d="M41.62,22.84a.15.15,0,0,1,0,.29.53.53,0,0,1-.49,0,.15.15,0,0,1,0-.29A.53.53,0,0,1,41.62,22.84Z"/><path class="cls-2" d="M20.05,53.33,20.57,47H13.4l.52,6.33a.43.43,0,0,1,0,.05,1.13,1.13,0,0,0,0,.18v.13h0c.22,1,1.48,1.76,3,1.76s2.81-.77,3-1.76h0v-.14a.86.86,0,0,0,0-.17A.43.43,0,0,1,20.05,53.33Z"/><path class="cls-1" d="M20.81,46.78h-7.4a.23.23,0,0,0-.23.25l.52,6.28v.07a.76.76,0,0,0,0,.19l.07.33A3.23,3.23,0,0,0,17,55.67a3.23,3.23,0,0,0,3.19-1.77l.08-.36s0-.1,0-.16v-.06Zm-1,6.54v.06s0,0,0,.07a.64.64,0,0,0,0,.09v.1a1.76,1.76,0,0,1-.74,1l.41-5.94-1.24.73H17v5.82c-1.4,0-2.61-.69-2.81-1.6v-.11s0-.06,0-.08a.2.2,0,0,0,0-.05v0l-.51-6.14h6.71Z"/><path class="cls-2" d="M20.57,47c0,1.33-1.6,2.42-3.59,2.42S13.4,48.33,13.4,47,15,44.16,17,44.16,20.57,45.66,20.57,47Z"/><path class="cls-1" d="M17,49.63c-2.11,0-3.81-1.18-3.81-2.63s1.66-3.06,3.81-3.06,3.8,1.64,3.8,3.06S19.08,49.63,17,49.63Zm0-5.25c-1.87,0-3.38,1.43-3.38,2.62s1.52,2.2,3.38,2.2,3.37-1,3.37-2.2S18.85,44.38,17,44.38Z"/><path class="cls-3" d="M20.06,46.23c0,1.14-1.38,2.07-3.08,2.07s-3.07-.93-3.07-2.07,1.38-2.07,3.07-2.07S20.06,45.09,20.06,46.23Z"/><path class="cls-1" d="M17,48.52c-1.82,0-3.29-1-3.29-2.29s1.47-2.29,3.29-2.29,3.28,1,3.28,2.29S18.8,48.52,17,48.52Zm0-4.14c-1.58,0-2.86.83-2.86,1.85s1.28,1.85,2.86,1.85,2.85-.83,2.85-1.85S18.56,44.38,17,44.38Z"/><path class="cls-1" d="M17.73,44.19c-.26-.08-.43.17-.56.37L17,44.8a.84.84,0,0,1-.2-.24c-.14-.2-.31-.44-.57-.37C15.46,44.39,15,45.58,15,46c0,.68.88,1.22,2,1.22s2-.54,2-1.22C19,45.58,18.46,44.38,17.73,44.19Z"/><path class="cls-3" d="M8.56,37.48a1.31,1.31,0,0,0-1.21-.09A13.39,13.39,0,0,0,2.82,40,6,6,0,0,0,.5,43.32c0,.32.21.55.66.58l14.88,1c.37,0,.77-.32.57-.49Z"/><path class="cls-1" d="M16.23,45a.76.76,0,0,1-.21,0L1.6,41.15a1,1,0,0,1-.67-.46.65.65,0,0,1,0-.53,6.15,6.15,0,0,1,3-2.95,13.73,13.73,0,0,1,5-1.72,1.51,1.51,0,0,1,1.37.4l6.59,8.33a.38.38,0,0,1,0,.44A.85.85,0,0,1,16.23,45Zm-7-9.06H9a13.3,13.3,0,0,0-4.85,1.67,5.71,5.71,0,0,0-2.81,2.73.18.18,0,0,0,0,.16.58.58,0,0,0,.39.24l14.42,3.8a.5.5,0,0,0,.38-.07L10,36.16A1,1,0,0,0,9.21,35.91Z"/><path class="cls-3" d="M25.35,52.49a1.31,1.31,0,0,0,1.21.09A13.29,13.29,0,0,0,31.11,50a6.09,6.09,0,0,0,2.36-3.33c.06-.33-.2-.56-.65-.59L18,45c-.36,0-.76.31-.57.49Z"/><path class="cls-1" d="M24.7,54.48a1.34,1.34,0,0,1-1.09-.42l-6.43-8.39a.38.38,0,0,1,0-.44.86.86,0,0,1,.89-.27l14.33,3.89a1,1,0,0,1,.65.46.65.65,0,0,1,0,.53A6.32,6.32,0,0,1,30,52.78a13.64,13.64,0,0,1-5,1.69ZM24,53.8a1.14,1.14,0,0,0,1,.23,13,13,0,0,0,4.87-1.64,5.83,5.83,0,0,0,2.85-2.71.17.17,0,0,0,0-.17.58.58,0,0,0-.38-.24L18,45.38a.48.48,0,0,0-.39.07Z"/><path class="cls-3" d="M18.23,45c0,.39-.56.7-1.25.7s-1.24-.31-1.24-.7.56-.7,1.24-.7S18.23,44.59,18.23,45Z"/><path class="cls-1" d="M17,45.9c-.82,0-1.47-.4-1.47-.92s.65-.92,1.47-.92,1.46.4,1.46.92S17.8,45.9,17,45.9Zm0-1.4c-.59,0-1,.25-1,.48s.44.48,1,.48,1-.25,1-.48S17.57,44.5,17,44.5Z"/><path class="cls-2" d="M68.58,53.55l.53-6.33H61.93l.52,6.33v.05a1.1,1.1,0,0,0,0,.18v.13h0c.22,1,1.49,1.76,3,1.76s2.8-.77,3-1.76h0v-.14a.86.86,0,0,0,0-.17A.43.43,0,0,1,68.58,53.55Z"/><path class="cls-1" d="M69.34,47h-7.4a.23.23,0,0,0-.23.25l.53,6.28v.07s0,.1,0,.19l.08.33a3.76,3.76,0,0,0,6.38,0l.08-.36a.78.78,0,0,0,0-.16v-.06Zm-1,6.54v.06s0,0,0,.07a.64.64,0,0,0,0,.09v.1a1.76,1.76,0,0,1-.74,1L68,48.91l-1.24.73H65.52v5.82c-1.41,0-2.61-.69-2.82-1.6v-.11a.19.19,0,0,0,0-.08s0-.05,0-.05v0l-.51-6.14h6.71Z"/><path class="cls-2" d="M69.11,47.22c0,1.33-1.61,2.42-3.59,2.42s-3.59-1.09-3.59-2.42,1.6-2.84,3.59-2.84S69.11,45.88,69.11,47.22Z"/><path class="cls-1" d="M65.52,49.85c-2.1,0-3.81-1.18-3.81-2.63s1.66-3.06,3.81-3.06,3.8,1.64,3.8,3.06S67.62,49.85,65.52,49.85Zm0-5.25c-1.87,0-3.37,1.43-3.37,2.62s1.51,2.2,3.37,2.2,3.37-1,3.37-2.2S67.38,44.6,65.52,44.6Z"/><path class="cls-3" d="M68.59,46.45c0,1.14-1.38,2.07-3.07,2.07s-3.07-.93-3.07-2.07,1.37-2.07,3.07-2.07S68.59,45.31,68.59,46.45Z"/><path class="cls-1" d="M65.52,48.74c-1.82,0-3.29-1-3.29-2.29s1.47-2.29,3.29-2.29,3.29,1,3.29,2.29S67.33,48.74,65.52,48.74Zm0-4.14c-1.58,0-2.85.83-2.85,1.85s1.27,1.85,2.85,1.85,2.85-.83,2.85-1.85S67.09,44.6,65.52,44.6Z"/><path class="cls-1" d="M66.27,44.41c-.27-.08-.44.17-.57.37l-.17.24a1.39,1.39,0,0,1-.2-.24c-.14-.2-.31-.44-.57-.37-.76.2-1.25,1.39-1.25,1.84,0,.68.88,1.22,2,1.22s2-.54,2-1.22C67.52,45.8,67,44.6,66.27,44.41Z"/><path class="cls-3" d="M49.41,46c-.45,0-.72.24-.67.56.09.62.53,1.78,2.31,3.37a12.8,12.8,0,0,0,4.49,2.62,1.35,1.35,0,0,0,1.24-.07l8.1-6.86c.2-.17-.2-.51-.56-.49Z"/><path class="cls-1" d="M57.47,54.6l-.31,0a13.13,13.13,0,0,1-5-1.71c-2.06-1.21-2.78-2.28-3-3a.61.61,0,0,1,0-.51,1,1,0,0,1,.66-.45l14.44-3.81a.91.91,0,0,1,.89.28.37.37,0,0,1,0,.44l-6.58,8.33A1.37,1.37,0,0,1,57.47,54.6Zm7-9.05h-.1L49.94,49.37a.64.64,0,0,0-.39.24.16.16,0,0,0,0,.15c.18.51.78,1.53,2.83,2.74a13,13,0,0,0,4.84,1.65,1.19,1.19,0,0,0,1-.23l6.54-8.28A.49.49,0,0,0,64.48,45.55Z"/><path class="cls-3" d="M81.37,44.42c.45,0,.72-.24.68-.55-.08-.62-.5-1.77-2.26-3.38a12.73,12.73,0,0,0-4.47-2.63,1.37,1.37,0,0,0-1.24,0l-8.25,6.78c-.2.17.19.51.56.49Z"/><path class="cls-1" d="M66.21,45.22a.83.83,0,0,1-.68-.31.38.38,0,0,1,0-.44l6.74-8.27a1.59,1.59,0,0,1,1.41-.38,13.34,13.34,0,0,1,5,1.73c2,1.23,2.74,2.3,3,3a.65.65,0,0,1,0,.51,1,1,0,0,1-.67.45L66.42,45.2A.75.75,0,0,1,66.21,45.22Zm-.28-.51a.54.54,0,0,0,.38.07l14.54-3.71a.61.61,0,0,0,.39-.24.18.18,0,0,0,0-.16c-.17-.5-.76-1.53-2.79-2.74a13,13,0,0,0-4.82-1.68,1.19,1.19,0,0,0-1,.23Z"/><path class="cls-3" d="M66.76,45.2c0,.39-.56.7-1.24.7s-1.24-.31-1.24-.7.55-.7,1.24-.7S66.76,44.81,66.76,45.2Z"/><path class="cls-1" d="M65.52,46.12c-.82,0-1.46-.4-1.46-.92s.64-.92,1.46-.92,1.46.4,1.46.92S66.34,46.12,65.52,46.12Zm0-1.4c-.59,0-1,.25-1,.48s.44.48,1,.48,1-.25,1-.48S66.1,44.72,65.52,44.72Z"/></g></g></g></g></svg>