<svg xmlns="http://www.w3.org/2000/svg" viewBox="0 0 88.97 60.12"><defs><style>.cls-1{fill:#febd33;}.cls-2{fill:#16110d;}.cls-3{fill:#130e0c;}.cls-4{fill:#fbeacc;}.cls-5{fill:#140f0c;}.cls-6{fill:#fcebcc;}.cls-7{fill:#fdeccc;}</style></defs><g id="Layer_2" data-name="Layer 2"><g id="content"><polygon class="cls-1" points="44.79 46.57 37.33 42.26 37.33 36.53 44.79 40.84 44.79 46.57"/><path class="cls-2" d="M45.16,47.22,37,42.47V35.88l8.21,4.74ZM37.7,42l6.71,3.87V41.06L37.7,37.18Z"/><polygon class="cls-3" points="52.25 42.26 44.79 46.57 44.79 40.84 52.25 36.53 52.25 42.26"/><path class="cls-2" d="M44.41,47.22v-6.6l8.22-4.74v6.59Zm.75-6.16v4.85L51.87,42V37.18Z"/><path class="cls-1" d="M46,8.47V7.69h-1a2.43,2.43,0,0,0-.66,0h-1V8.5a.66.66,0,0,0,.4.51,2.16,2.16,0,0,0,1.92,0,.69.69,0,0,0,.4-.53Z"/><path class="cls-2" d="M44.6,9.61a2.3,2.3,0,0,1-1.15-.28,1,1,0,0,1-.59-.81V7.32h1.41a2.11,2.11,0,0,1,.71,0h1.36V8.51a1,1,0,0,1-.58.82A2.3,2.3,0,0,1,44.6,9.61Zm-1-1.54v.45a1,1,0,0,0,.22.16,1.74,1.74,0,0,0,1.54,0c.15-.08.21-.17.21-.22V8.07h-.65a2.07,2.07,0,0,0-.61,0Z"/><path class="cls-3" d="M47.21,6.45a.06.06,0,0,0,0-.06V5h-2A4.57,4.57,0,0,0,44,5H42V6.39a.06.06,0,0,0,0,0v.08a1.28,1.28,0,0,0,.77,1,4.09,4.09,0,0,0,3.7,0,1.32,1.32,0,0,0,.76-1v0Z"/><path class="cls-2" d="M44.6,8.31a4.06,4.06,0,0,1-2-.5,1.6,1.6,0,0,1-1-1.28V4.58H44a4.57,4.57,0,0,1,1.33,0h2.3V6.49a1.68,1.68,0,0,1-1,1.32A4.06,4.06,0,0,1,44.6,8.31Zm-2.24-3V6.49c0,.23.21.46.58.67a3.73,3.73,0,0,0,3.32,0,1,1,0,0,0,.58-.71h.37l-.37,0V5.34h-1.6a4.55,4.55,0,0,0-1.22,0Z"/><path class="cls-1" d="M47.17,4.62a2.58,2.58,0,0,0-5.14,0,.93.93,0,0,0-.05.29h0A1.31,1.31,0,0,0,42.75,6a4.09,4.09,0,0,0,3.7,0C47.09,5.61,47.33,5.09,47.17,4.62Z"/><path class="cls-4" d="M47.17,5.55a2.58,2.58,0,0,0-5.14,0,1,1,0,0,0-.05.29h0a1.3,1.3,0,0,0,.77,1.07,4.09,4.09,0,0,0,3.7,0C47.09,6.54,47.33,6,47.17,5.55Z"/><path class="cls-2" d="M44.6,6.8a4.16,4.16,0,0,1-2-.5,1.63,1.63,0,0,1-1-1.39,1.23,1.23,0,0,1,.07-.42A3,3,0,0,1,44.6,1.91h0a3,3,0,0,1,2.93,2.6,1.52,1.52,0,0,1-.89,1.79A4.16,4.16,0,0,1,44.6,6.8Zm0-4.13a2.28,2.28,0,0,0-2.2,2,.68.68,0,0,0,0,.21,1,1,0,0,0,.58.74,3.73,3.73,0,0,0,3.32,0c.22-.12.71-.46.55-.91v0a2.28,2.28,0,0,0-2.2-2Z"/><path class="cls-1" d="M23.5,30.34H11.7a.8.8,0,0,1-.8-.8h0a.8.8,0,0,1,.8-.81H23.5a.8.8,0,0,1,.8.81h0A.8.8,0,0,1,23.5,30.34Z"/><path class="cls-2" d="M23.5,30.71H11.7a1.18,1.18,0,1,1,0-2.35H23.5a1.18,1.18,0,1,1,0,2.35Zm-11.8-1.6a.43.43,0,0,0,0,.85H23.5a.43.43,0,1,0,0-.85Z"/><path class="cls-1" d="M78,30.34H66.21a.8.8,0,0,1-.8-.8h0a.8.8,0,0,1,.8-.81H78a.8.8,0,0,1,.8.81h0A.8.8,0,0,1,78,30.34Z"/><path class="cls-2" d="M78,30.71H66.21a1.18,1.18,0,1,1,0-2.35H78a1.18,1.18,0,1,1,0,2.35Zm-11.8-1.6a.43.43,0,1,0,0,.85H78a.43.43,0,0,0,0-.85Z"/><path class="cls-1" d="M43.81,19.51l0-11.8a.8.8,0,0,1,.8-.8h0a.8.8,0,0,1,.8.8l0,11.8a.8.8,0,0,1-.8.8h0A.8.8,0,0,1,43.81,19.51Z"/><path class="cls-2" d="M44.61,20.69a1.18,1.18,0,0,1-.83-.35,1.16,1.16,0,0,1-.35-.83l0-11.8a1.18,1.18,0,0,1,1.18-1.18h0a1.17,1.17,0,0,1,.83.34,1.21,1.21,0,0,1,.35.84l0,11.8a1.17,1.17,0,0,1-.34.83,1.21,1.21,0,0,1-.84.35Zm0-13.41h0a.42.42,0,0,0-.3.13.43.43,0,0,0-.13.3l0,11.8a.42.42,0,0,0,.12.3.51.51,0,0,0,.3.12.42.42,0,0,0,.3-.12.43.43,0,0,0,.13-.3l0-11.8A.42.42,0,0,0,44.59,7.28Z"/><path class="cls-1" d="M55.79,34.67V32.33h-.64A7.18,7.18,0,0,0,52.57,30,17.24,17.24,0,0,0,37,30a7.18,7.18,0,0,0-2.58,2.35h-.64v2.34h0c.08,1.56,1.15,3.11,3.22,4.31a17.24,17.24,0,0,0,15.58,0c2.07-1.2,3.14-2.75,3.22-4.31Z"/><path class="cls-2" d="M44.78,41.21a16.32,16.32,0,0,1-8-1.91A6.11,6.11,0,0,1,33.43,35h0V32h.81a7.66,7.66,0,0,1,2.6-2.3c4.4-2.54,11.56-2.54,16,0A7.63,7.63,0,0,1,55.35,32h.82V35h0a6.14,6.14,0,0,1-3.37,4.26A16.32,16.32,0,0,1,44.78,41.21ZM34.14,34.55v.1c.08,1.49,1.16,2.92,3,4a16.82,16.82,0,0,0,15.2,0c1.88-1.08,3-2.51,3-4V32.71h-.48l-.11-.18a6.76,6.76,0,0,0-2.45-2.22,16.82,16.82,0,0,0-15.2,0,6.85,6.85,0,0,0-2.45,2.22l-.11.18h-.48Z"/><path class="cls-1" d="M52.57,28c4.3,2.48,4.3,6.51,0,9A17.24,17.24,0,0,1,37,37c-4.3-2.48-4.3-6.51,0-9A17.18,17.18,0,0,1,52.57,28Z"/><path class="cls-2" d="M44.78,39.19a16.32,16.32,0,0,1-8-1.9c-2.2-1.27-3.41-3-3.41-4.83s1.21-3.55,3.41-4.82c4.4-2.54,11.56-2.54,16,0h0c2.2,1.27,3.41,3,3.41,4.82S55,36,52.76,37.29A16.32,16.32,0,0,1,44.78,39.19Zm0-12.71a15.53,15.53,0,0,0-7.6,1.81c-2,1.13-3,2.61-3,4.17s1.08,3,3,4.18a16.88,16.88,0,0,0,15.2,0c2-1.14,3-2.62,3-4.18s-1.08-3-3-4.17A15.56,15.56,0,0,0,44.78,26.48Z"/><path class="cls-5" d="M65.62,28.6l-5.1,0a32.44,32.44,0,0,1-6-2.63L54,25.66h0c-3.94-2.27-6.62-5.17-7.71-8.32l-.36-1a1.34,1.34,0,0,0-1.3-.62c-.64,0-1.19.26-1.31.63l-.3.93c-1,3.22-3.75,6.19-7.77,8.51a32.24,32.24,0,0,1-6.93,2.93L17.75,28.6v1.85h0c0,.37.45.69,1.08.76l1.78.2A38,38,0,0,1,35,35.86l.58.33c3.94,2.28,6.62,5.17,7.7,8.33l.36,1a1.34,1.34,0,0,0,1.3.62h0c.64,0,1.2-.27,1.31-.63l.3-.93c1-3.23,3.75-6.2,7.77-8.51A38,38,0,0,1,69.1,31.61l1.61-.17c.63-.07,1.09-.39,1.09-.76h0V28.83Z"/><path class="cls-2" d="M45,46.54a1.68,1.68,0,0,1-1.66-.87l-.35-1c-1.06-3.08-3.67-5.88-7.54-8.12l-.58-.33a37.18,37.18,0,0,0-14.27-4.4l-1.79-.21c-.82-.09-1.4-.56-1.4-1.13V28.22l10.83.09A32.51,32.51,0,0,0,35,25.43c3.95-2.29,6.58-5.16,7.59-8.31l.3-.93a2,2,0,0,1,3.33,0l.36,1c1.06,3.07,3.66,5.88,7.53,8.12l.59.33a31.79,31.79,0,0,0,5.86,2.58h5.06l6.54.24v2.21c0,.58-.59,1-1.43,1.13L69.14,32a37.39,37.39,0,0,0-14.6,4.43c-4,2.28-6.58,5.15-7.6,8.3l-.3.93A1.64,1.64,0,0,1,45,46.54ZM18.13,29v1.47c0,.11.25.33.74.39l1.78.2a38,38,0,0,1,14.57,4.5l.57.33c4,2.33,6.76,5.27,7.88,8.53l.35,1a1.07,1.07,0,0,0,.95.37c.54,0,.91-.22,1-.37l.3-.93c1.08-3.33,3.82-6.34,7.94-8.72a38.2,38.2,0,0,1,14.9-4.53l1.61-.18c.5,0,.75-.27.75-.38V29.19L65.61,29l-5.15,0-.05,0a32.14,32.14,0,0,1-6.07-2.67L53.78,26c-4.05-2.34-6.78-5.29-7.9-8.54l-.35-1c-.05-.15-.41-.36-1-.36s-.9.21-.95.36l-.3.93c-1.08,3.33-3.82,6.35-7.94,8.73a32.62,32.62,0,0,1-7,3l-.06,0Z"/><path class="cls-1" d="M69,27.87a37.73,37.73,0,0,1-14.42-4.45L54,23.1h0c-3.94-2.28-6.62-5.17-7.71-8.32l-.36-1a1.34,1.34,0,0,0-1.3-.62h0c-.64,0-1.19.26-1.31.63l-.3.93c-1,3.22-3.75,6.19-7.77,8.51a37.94,37.94,0,0,1-14.74,4.48l-1.62.18c-.63.07-1.09.38-1.09.75h0c0,.37.45.69,1.08.76l1.78.2A38,38,0,0,1,35,34l.58.33c3.94,2.28,6.62,5.17,7.7,8.33l.36,1a1.34,1.34,0,0,0,1.3.62h0c.64,0,1.2-.27,1.31-.63l.3-.93c1-3.23,3.75-6.2,7.77-8.52h0A38,38,0,0,1,69.1,29.76l1.61-.17c.63-.07,1.09-.39,1.09-.76h0c0-.37-.45-.68-1.07-.75Z"/><path class="cls-6" d="M46.29,43.69l.3-.93c1-3.23,3.75-6.2,7.76-8.52a37.18,37.18,0,0,1,13.49-4.31,37.26,37.26,0,0,1-13.3-4.3S54,25.34,54,25.3h0C50,23,47.34,20.13,46.25,17l-.35-1c-.12-.36-.67-.62-1.31-.62a1.36,1.36,0,0,0-1.31.63l-.3.93c-1,3.23-3.74,6.2-7.76,8.52a37.33,37.33,0,0,1-13.48,4.32A37.2,37.2,0,0,1,35,34l.58.33c3.94,2.28,6.62,5.17,7.71,8.33l.35,1a1.36,1.36,0,0,0,1.31.62h0A1.36,1.36,0,0,0,46.29,43.69Z"/><path class="cls-2" d="M45,44.69h0a1.68,1.68,0,0,1-1.66-.87l-.35-1c-1.06-3.08-3.67-5.89-7.54-8.12l-.58-.33a37.18,37.18,0,0,0-14.27-4.4l-1.79-.21c-.82-.09-1.4-.56-1.4-1.13s.58-1,1.42-1.13l1.61-.17A37.39,37.39,0,0,0,35,22.86c3.95-2.28,6.58-5.15,7.59-8.3l.3-.93a1.66,1.66,0,0,1,1.67-.89,1.68,1.68,0,0,1,1.66.87l.36,1c1.06,3.08,3.66,5.89,7.53,8.12l.59.34A37.47,37.47,0,0,0,69,27.5l1.78.2c.83.1,1.41.56,1.41,1.13s-.59,1-1.43,1.13l-1.61.17a37.56,37.56,0,0,0-14.6,4.44c-4,2.28-6.58,5.15-7.6,8.3l-.3.93A1.66,1.66,0,0,1,45,44.69Zm-.39-31.2c-.54,0-.9.22-.95.37l-.3.93c-1.08,3.33-3.82,6.35-7.94,8.72A38.15,38.15,0,0,1,20.5,28.05l-1.62.17c-.49.06-.75.28-.75.38s.25.33.74.38l1.78.21a37.93,37.93,0,0,1,14.57,4.5l.57.33c4,2.32,6.76,5.27,7.88,8.52l.35,1a1.07,1.07,0,0,0,.95.37h0c.54,0,.91-.22,1-.37l.3-.93c1.08-3.33,3.82-6.35,7.94-8.72a38,38,0,0,1,14.9-4.53l1.61-.18c.5-.05.75-.27.75-.38s-.24-.32-.73-.38l-1.79-.2a38.29,38.29,0,0,1-14.56-4.5l-.56-.32c-4.05-2.34-6.78-5.29-7.9-8.54l-.35-1C45.48,13.71,45.12,13.49,44.58,13.49Z"/><path class="cls-3" d="M55.79,28.3v-.18h0V26h-.64a7.1,7.1,0,0,0-2.58-2.35,17.18,17.18,0,0,0-15.58,0A7.1,7.1,0,0,0,34.41,26h-.64v2.14h0v.18h0c.08,1.57,1.15,3.12,3.22,4.31a17.18,17.18,0,0,0,15.58,0c2.07-1.19,3.14-2.74,3.22-4.31Z"/><path class="cls-2" d="M44.78,34.84a16.32,16.32,0,0,1-8-1.9,6.15,6.15,0,0,1-3.37-4.26h0V25.59h.81a7.77,7.77,0,0,1,2.6-2.3c4.4-2.54,11.56-2.54,16,0a7.73,7.73,0,0,1,2.59,2.3h.82v3.09h0c-.22,1.62-1.41,3.12-3.37,4.26A16.32,16.32,0,0,1,44.78,34.84ZM34.14,28.18v.1c.08,1.5,1.16,2.92,3,4a16.82,16.82,0,0,0,15.2,0c1.88-1.09,3-2.51,3-4V26.34h-.48l-.11-.17a6.78,6.78,0,0,0-2.45-2.23,16.82,16.82,0,0,0-15.2,0,6.78,6.78,0,0,0-2.45,2.23l-.11.17h-.48Z"/><path class="cls-1" d="M52.57,21.6c4.3,2.49,4.3,6.51,0,9A17.24,17.24,0,0,1,37,30.6c-4.3-2.49-4.3-6.51,0-9A17.24,17.24,0,0,1,52.57,21.6Z"/><path class="cls-7" d="M37,23.83a6.22,6.22,0,0,0-3,3.38,6.27,6.27,0,0,0,3,3.35,17.18,17.18,0,0,0,15.58,0,6.22,6.22,0,0,0,3-3.38,6.23,6.23,0,0,0-3-3.35A17.18,17.18,0,0,0,37,23.83Z"/><path class="cls-2" d="M44.78,32.83a16.32,16.32,0,0,1-8-1.91c-2.2-1.27-3.41-3-3.41-4.82s1.21-3.55,3.41-4.83c4.4-2.53,11.56-2.53,16,0h0c2.2,1.28,3.41,3,3.41,4.83S55,29.65,52.76,30.92A16.32,16.32,0,0,1,44.78,32.83Zm0-12.72a15.53,15.53,0,0,0-7.6,1.82c-2,1.13-3,2.61-3,4.17s1.08,3,3,4.17a16.82,16.82,0,0,0,15.2,0c2-1.13,3-2.61,3-4.17s-1.08-3-3-4.17A15.56,15.56,0,0,0,44.78,20.11Z"/><path class="cls-1" d="M44.3,53.55l0-7.88a.8.8,0,0,1,.8-.8h0a.8.8,0,0,1,.8.8l0,7.88a.81.81,0,0,1-.8.81h0A.8.8,0,0,1,44.3,53.55Z"/><path class="cls-2" d="M45.1,54.73a1.18,1.18,0,0,1-1.18-1.17l0-7.88a1.18,1.18,0,0,1,.34-.84,1.25,1.25,0,0,1,.84-.35h0a1.2,1.2,0,0,1,1.18,1.18l0,7.88a1.18,1.18,0,0,1-1.18,1.18Zm0-9.48h0a.41.41,0,0,0-.3.12.43.43,0,0,0-.13.3l0,7.88a.41.41,0,0,0,.12.3.43.43,0,0,0,.3.13h0a.44.44,0,0,0,.43-.43l0-7.88a.41.41,0,0,0-.42-.42Z"/><path class="cls-1" d="M82.07,32.07V31.3H81a2.43,2.43,0,0,0-.66,0h-1v.8a.65.65,0,0,0,.4.51,2.12,2.12,0,0,0,1.93,0,.68.68,0,0,0,.39-.53Z"/><path class="cls-2" d="M80.71,33.22a2.44,2.44,0,0,1-1.15-.28,1,1,0,0,1-.58-.81V30.92h1.4a2.88,2.88,0,0,1,.72,0h1.35v1.19a1.06,1.06,0,0,1-.59.83A2.39,2.39,0,0,1,80.71,33.22Zm-1-1.55v.46a1.25,1.25,0,0,0,.21.16,1.83,1.83,0,0,0,1.55,0,.4.4,0,0,0,.21-.23v-.39h-.65a2.07,2.07,0,0,0-.61,0Z"/><path class="cls-3" d="M83.33,30.06v-1.5h-2a4.5,4.5,0,0,0-1.27,0h-2v1.56a1.25,1.25,0,0,0,.76,1,4.11,4.11,0,0,0,3.71,0,1.34,1.34,0,0,0,.76-1Z"/><path class="cls-2" d="M80.71,31.91a4.12,4.12,0,0,1-2-.49,1.63,1.63,0,0,1-1-1.28V28.19h2.36a4.86,4.86,0,0,1,1.32,0h2.31v1.9a1.68,1.68,0,0,1-1,1.33A4.13,4.13,0,0,1,80.71,31.91Zm-2.23-3V30.1c0,.23.2.45.57.67a3.75,3.75,0,0,0,3.33,0,1,1,0,0,0,.57-.72v0l.38,0L83,30V28.94h-1.6a4.15,4.15,0,0,0-1.22,0Z"/><path class="cls-1" d="M83.28,28.22a2.58,2.58,0,0,0-5.13,0,.74.74,0,0,0-.05.29h0a1.29,1.29,0,0,0,.76,1.07,4.11,4.11,0,0,0,3.71,0C83.21,29.21,83.44,28.7,83.28,28.22Z"/><path class="cls-6" d="M83.28,29.16a2.58,2.58,0,0,0-5.13,0,.71.71,0,0,0-.05.29h0a1.3,1.3,0,0,0,.76,1.07,4.11,4.11,0,0,0,3.71,0C83.21,30.15,83.44,29.63,83.28,29.16Z"/><path class="cls-2" d="M80.71,30.4a4.12,4.12,0,0,1-2-.49,1.66,1.66,0,0,1-1-1.4,1.14,1.14,0,0,1,.07-.41,3,3,0,0,1,2.92-2.58h0a3,3,0,0,1,2.94,2.6,1.55,1.55,0,0,1-.9,1.79A4.13,4.13,0,0,1,80.71,30.4Zm0-4.13a2.3,2.3,0,0,0-2.2,2,.73.73,0,0,0,0,.21c0,.26.21.53.58.75a3.75,3.75,0,0,0,3.33,0c.21-.13.7-.47.55-.92l0,0a2.29,2.29,0,0,0-2.2-2Z"/><path class="cls-1" d="M46.45,57.71v-.77h-1a1.83,1.83,0,0,0-.66,0h-1v.8c0,.2.14.36.4.51a2.1,2.1,0,0,0,1.92,0,.71.71,0,0,0,.4-.53Z"/><path class="cls-2" d="M45.09,58.86a2.39,2.39,0,0,1-1.15-.28,1,1,0,0,1-.59-.81V56.56h1.41a2.8,2.8,0,0,1,.71,0h1.35v1.19a1.06,1.06,0,0,1-.58.83A2.42,2.42,0,0,1,45.09,58.86Zm-1-1.55v.46s.09.08.21.15a1.76,1.76,0,0,0,1.55,0c.15-.08.21-.17.21-.22v-.39h-.65a2.07,2.07,0,0,0-.61,0Z"/><path class="cls-3" d="M47.7,55.7V54.2h-2a4.57,4.57,0,0,0-1.28,0h-2v1.56a1.27,1.27,0,0,0,.77,1,4.09,4.09,0,0,0,3.7,0,1.32,1.32,0,0,0,.76-1Z"/><path class="cls-2" d="M45.09,57.55a4.16,4.16,0,0,1-2-.49,1.59,1.59,0,0,1-.95-1.28v-2h2.35a4.93,4.93,0,0,1,1.33,0h2.3v1.9a1.71,1.71,0,0,1-.95,1.33A4.16,4.16,0,0,1,45.09,57.55Zm-2.24-3v1.16c0,.23.21.45.58.67a3.73,3.73,0,0,0,3.32,0,1,1,0,0,0,.58-.72v0l.37,0-.37,0V54.58h-1.6a4.15,4.15,0,0,0-1.22,0Z"/><path class="cls-1" d="M47.66,53.86a2.58,2.58,0,0,0-5.14,0,1,1,0,0,0-.05.29h0a1.3,1.3,0,0,0,.77,1.07,4.09,4.09,0,0,0,3.7,0C47.58,54.85,47.82,54.34,47.66,53.86Z"/><path class="cls-4" d="M47.66,54.8a2.58,2.58,0,0,0-5.14,0,.93.93,0,0,0-.05.29h0a1.31,1.31,0,0,0,.77,1.07,4.09,4.09,0,0,0,3.7,0C47.58,55.79,47.82,55.27,47.66,54.8Z"/><path class="cls-2" d="M45.09,56a4.16,4.16,0,0,1-2-.49,1.66,1.66,0,0,1-1-1.4,1.42,1.42,0,0,1,.08-.41,3,3,0,0,1,2.92-2.58h0A3,3,0,0,1,48,53.76a1.56,1.56,0,0,1-.89,1.79A4.16,4.16,0,0,1,45.09,56Zm0-4.13a2.28,2.28,0,0,0-2.2,2,.73.73,0,0,0,0,.21c0,.26.21.53.58.75a3.73,3.73,0,0,0,3.32,0c.22-.13.7-.47.55-.92v0a2.29,2.29,0,0,0-2.2-2Z"/><path class="cls-1" d="M10.51,32.1v-.77h-1a2.43,2.43,0,0,0-.66,0h-1v.8c0,.2.15.36.4.51a2.12,2.12,0,0,0,1.93,0,.7.7,0,0,0,.39-.53Z"/><path class="cls-2" d="M9.15,33.25A2.44,2.44,0,0,1,8,33a1,1,0,0,1-.58-.81V31h1.4a2.88,2.88,0,0,1,.72,0h1.35v1.18a1.07,1.07,0,0,1-.59.84A2.39,2.39,0,0,1,9.15,33.25Zm-1-1.09a1.37,1.37,0,0,0,.21.16,1.83,1.83,0,0,0,1.55,0,.4.4,0,0,0,.21-.23V31.7H9.48a2,2,0,0,0-.6,0H8.17v.46Z"/><path class="cls-3" d="M11.77,30.09v-1.5h-2a4.5,4.5,0,0,0-1.27,0h-2v1.56a1.25,1.25,0,0,0,.76,1,4.09,4.09,0,0,0,3.7,0,1.33,1.33,0,0,0,.77-1Z"/><path class="cls-2" d="M9.15,31.94a4.19,4.19,0,0,1-2-.49,1.64,1.64,0,0,1-1-1.28v-2H8.52a4.86,4.86,0,0,1,1.32,0h2.31v1.92a1.69,1.69,0,0,1-1,1.31A4.13,4.13,0,0,1,9.15,31.94ZM6.92,29v1.16c0,.23.21.45.58.67a3.75,3.75,0,0,0,3.33,0,1,1,0,0,0,.57-.72h.38L11.39,30V29H9.79a4.15,4.15,0,0,0-1.22,0Z"/><path class="cls-1" d="M11.72,28.25a2.67,2.67,0,0,0-2.57-2.32,2.66,2.66,0,0,0-2.56,2.32.74.74,0,0,0,0,.29h0a1.29,1.29,0,0,0,.76,1.07,4.09,4.09,0,0,0,3.7,0C11.65,29.24,11.88,28.73,11.72,28.25Z"/><path class="cls-4" d="M11.72,29.37a2.67,2.67,0,0,0-2.57-2.32,2.66,2.66,0,0,0-2.56,2.32.74.74,0,0,0,0,.29h0a1.29,1.29,0,0,0,.76,1.07,4.09,4.09,0,0,0,3.7,0C11.65,30.36,11.88,29.85,11.72,29.37Z"/><path class="cls-2" d="M9.15,30.43a4.19,4.19,0,0,1-2-.49,1.67,1.67,0,0,1-1-1.4,1.14,1.14,0,0,1,.07-.41,3,3,0,0,1,2.92-2.58h0a3,3,0,0,1,2.93,2.6,1.53,1.53,0,0,1-.89,1.79A4.13,4.13,0,0,1,9.15,30.43Zm0-4.13a2.29,2.29,0,0,0-2.2,2,.73.73,0,0,0,0,.21c0,.26.21.53.58.75a3.75,3.75,0,0,0,3.33,0c.21-.13.7-.47.55-.92l0,0a2.28,2.28,0,0,0-2.2-2Z"/><path class="cls-2" d="M45.09,60.12a13,13,0,0,1-6.39-1.53,5.39,5.39,0,0,1-2.6-2.88l.71-.23a4.74,4.74,0,0,0,2.26,2.46,12.29,12.29,0,0,0,6,1.43,12.29,12.29,0,0,0,6-1.43l.22.31.16.33A12.92,12.92,0,0,1,45.09,60.12Zm8.27-6.25a4.71,4.71,0,0,0-2.25-2.45,12.29,12.29,0,0,0-6-1.43,12.29,12.29,0,0,0-6,1.43l-.39-.64h0a13,13,0,0,1,6.39-1.53,13,13,0,0,1,6.39,1.53,5.43,5.43,0,0,1,2.6,2.86Z"/><path class="cls-2" d="M45.09,59A10.35,10.35,0,0,1,40,57.82a3.79,3.79,0,0,1-2.2-3.14A3.76,3.76,0,0,1,40,51.55a10.21,10.21,0,0,1,5.06-1.22,11.15,11.15,0,0,1,3.66.59l-.25.71a10.42,10.42,0,0,0-3.41-.55,9.47,9.47,0,0,0-4.68,1.12,3.07,3.07,0,0,0-1.83,2.48,3.07,3.07,0,0,0,1.83,2.48,10.32,10.32,0,0,0,9.35,0l.41.64h0A10.2,10.2,0,0,1,45.09,59Z"/><path class="cls-2" d="M9.15,34.54A13,13,0,0,1,2.76,33C1,32,0,30.59,0,29.09s1-2.88,2.76-3.91a13,13,0,0,1,6.39-1.53,15.16,15.16,0,0,1,2.44.19l-.12.74a14.82,14.82,0,0,0-2.32-.18,12.14,12.14,0,0,0-6,1.44c-1.54.88-2.39,2-2.39,3.25s.85,2.37,2.39,3.26a12.25,12.25,0,0,0,6,1.43,12.29,12.29,0,0,0,6-1.43l.41.63,0,0A13.07,13.07,0,0,1,9.15,34.54Z"/><path class="cls-2" d="M9.15,33.44A10.28,10.28,0,0,1,4.1,32.23a3.79,3.79,0,0,1-2.21-3.14A3.78,3.78,0,0,1,4.1,26a10.17,10.17,0,0,1,5.05-1.22,12.23,12.23,0,0,1,1.92.15l-.12.75a10.75,10.75,0,0,0-1.8-.14,9.53,9.53,0,0,0-4.68,1.11,3.07,3.07,0,0,0-1.82,2.48,3.07,3.07,0,0,0,1.82,2.48,9.53,9.53,0,0,0,4.68,1.12,9.5,9.5,0,0,0,4.68-1.12l.38.65A10.24,10.24,0,0,1,9.15,33.44Z"/><path class="cls-2" d="M80.71,34.54A13,13,0,0,1,74.32,33a6.69,6.69,0,0,1-1.88-1.55L73,31a6.16,6.16,0,0,0,1.67,1.37,13.37,13.37,0,0,0,12,0l.22.31.17.34A13.1,13.1,0,0,1,80.71,34.54Zm7.67-7.35a5.83,5.83,0,0,0-1.65-1.35,13.28,13.28,0,0,0-12,0l-.38-.66a14.13,14.13,0,0,1,12.79,0A6.74,6.74,0,0,1,89,26.72Z"/><path class="cls-2" d="M80.71,33.44a10.28,10.28,0,0,1-5-1.21A5.32,5.32,0,0,1,74.17,31l.59-.47A4.51,4.51,0,0,0,76,31.57a10.34,10.34,0,0,0,9.36,0l.4.64,0,0A10.28,10.28,0,0,1,80.71,33.44Zm6-5.79a4.66,4.66,0,0,0-1.27-1,10.42,10.42,0,0,0-9.36,0L75.64,26h0a11.06,11.06,0,0,1,10.1,0,5.11,5.11,0,0,1,1.49,1.22Z"/><path class="cls-2" d="M44.6,10.89a13,13,0,0,1-6.4-1.54,7.28,7.28,0,0,1-1.54-1.18l.54-.52a6.41,6.41,0,0,0,1.38,1,12.18,12.18,0,0,0,6,1.43,12.18,12.18,0,0,0,6-1.43l.21.31.17.34A13,13,0,0,1,44.6,10.89ZM52,3.23a6.24,6.24,0,0,0-1.37-1,12.18,12.18,0,0,0-6-1.44,12.18,12.18,0,0,0-6,1.44l-.39-.65h0A13,13,0,0,1,44.6,0,13,13,0,0,1,51,1.53,7.32,7.32,0,0,1,52.53,2.7Z"/><path class="cls-2" d="M44.6,9.79a10.32,10.32,0,0,1-5.06-1.21,6,6,0,0,1-1.23-.94l.55-.52a5.09,5.09,0,0,0,1.06.81A9.58,9.58,0,0,0,44.6,9a9.57,9.57,0,0,0,4.67-1.11l.41.63,0,0A10.31,10.31,0,0,1,44.6,9.79Zm5.73-6A4.74,4.74,0,0,0,49.27,3a10.4,10.4,0,0,0-9.35,0l-.38-.65a11.08,11.08,0,0,1,10.11,0,5.37,5.37,0,0,1,1.22.93Z"/></g></g></svg>