<svg xmlns="http://www.w3.org/2000/svg" viewBox="0 0 88.4 65.34"><defs><style>.cls-1{fill:#ffb000;}.cls-2{fill:#150035;}.cls-3{fill:#fff;}.cls-4{fill:#feaf12;}</style></defs><g id="Layer_2" data-name="Layer 2"><g id="content"><path class="cls-1" d="M68.08,17.35a1.17,1.17,0,0,0-1.35,0A1.23,1.23,0,0,1,65,17.13c-3-4.19-8.51-4.7-14.53-1.23l-11,6.36a.07.07,0,0,0,0,.06l.72,14a.06.06,0,0,0,.08.06l25.62-1.16h0l21.66-7a.07.07,0,0,0,0-.13Z"/><path class="cls-2" d="M40.09,36.68l-.22-.18,0-.17-.72-14a.36.36,0,0,1,.17-.33l11-6.36c6.09-3.51,11.8-3,14.9,1.31a.91.91,0,0,0,.6.38,1,1,0,0,0,.76-.2,1.43,1.43,0,0,1,1.66,0L87.64,27.84a.34.34,0,0,1,.18.35.34.34,0,0,1-.24.3l-21.7,7h-.06ZM39.7,22.44l.7,13.65,25.37-1.15L86.93,28.1l-19-10.51a.85.85,0,0,0-1,0,1.59,1.59,0,0,1-1.19.29,1.44,1.44,0,0,1-1-.6c-2.91-4.07-8.34-4.51-14.15-1.15Z"/><path class="cls-1" d="M87.5,28.17,68.08,17.43a1.31,1.31,0,0,0-.36-.17A14.66,14.66,0,0,1,63,15.2c-3.15-2.23-7.68-2-12.54.78l-4.1,2.37c.06,6.73,2.58,11.84,3.24,12.37s.83-.11,1.84,1c.65.68,2.87,2.71,4.39,4.07l4.92-.22,6.34-2.86H74L87.49,28.3A.07.07,0,0,0,87.5,28.17Z"/><path class="cls-2" d="M55.71,36,55.62,36c-1.66-1.49-3.77-3.41-4.41-4.08s-.7-.56-.93-.58a1.45,1.45,0,0,1-.87-.36c-.84-.66-3.29-6-3.36-12.59v-.16l4.25-2.46c4.88-2.81,9.56-3.09,12.84-.76a14.73,14.73,0,0,0,4.65,2,1.51,1.51,0,0,1,.45.2l19.4,10.73a.34.34,0,0,1,.18.35.36.36,0,0,1-.24.3L74,33H67.13l-6.39,2.85ZM46.63,18.51c.1,6.53,2.53,11.51,3.13,12a.89.89,0,0,0,.58.24,1.79,1.79,0,0,1,1.29.75c.61.65,2.65,2.51,4.29,4l4.74-.21,6.41-2.86H73.9l13-4.21-19-10.5a1.14,1.14,0,0,0-.3-.14,15.15,15.15,0,0,1-4.83-2.1c-3.09-2.2-7.55-1.91-12.22.79Z"/><path class="cls-1" d="M43.43,31.06,51,11.55,32.15,1.15a5.79,5.79,0,0,0-1-.47,7.79,7.79,0,0,0-6.52,1C18.72,5.11,13.79,14.14,12.7,23l-5.35,29c-.2,1.13.12,1.93.73,2.22h0l19.37,10.7L31.72,59l9.85-23.5a5.1,5.1,0,0,0,1.87-4.4Z"/><path class="cls-2" d="M27.53,65.23l-.22-.13L7.94,54.4c-.75-.36-1.08-1.3-.88-2.52l5.36-29c1.11-9,6.2-18.06,12.09-21.47a8.08,8.08,0,0,1,6.76-1,5.17,5.17,0,0,1,1,.5l19,10.51L43.73,31.08a5.44,5.44,0,0,1-1.92,4.58L32,59.16ZM29.14.62A8.73,8.73,0,0,0,24.8,1.93C19.05,5.25,14.08,14.11,13,23L7.63,52c-.16.93.06,1.67.57,1.92L27.36,64.48l4.11-5.63,9.87-23.54,0-.05a4.85,4.85,0,0,0,1.77-4.11l0-.09,0-.11,7.43-19.27L32,1.4A5.24,5.24,0,0,0,31.08,1,5.73,5.73,0,0,0,29.14.62Z"/><path class="cls-2" d="M29.75,61.7l-22-12.07-.42,2.3c-.2,1.13.12,1.93.73,2.22l19.37,10.7Z"/><path class="cls-2" d="M27.53,65.23l-.22-.13L7.94,54.4c-.75-.36-1.08-1.3-.88-2.52l.5-2.69L30.17,61.61ZM8,50.07,7.63,52c-.16.93.06,1.67.57,1.92L27.36,64.48l2-2.68Z"/><path class="cls-3" d="M32.15,1.1a5.1,5.1,0,0,0-1-.47,7.79,7.79,0,0,0-6.52,1c-3.71,2.14-7,6.46-9.26,11.56h0L34.74,24.33l11.84-1.51L51,11.5Z"/><path class="cls-2" d="M34.68,24.62l-.08,0L15,13.31l.1-.24c2.34-5.34,5.76-9.6,9.37-11.69a8.08,8.08,0,0,1,6.76-1,5.34,5.34,0,0,1,1,.49l19,10.52L46.79,23.09ZM15.77,13.07l19,11,11.58-1.47,4.21-10.93L32,1.35a5.33,5.33,0,0,0-.93-.46,7.52,7.52,0,0,0-6.28,1C21.34,3.88,18.06,7.94,15.77,13.07Z"/><path class="cls-1" d="M86.19,28.18a1.19,1.19,0,0,1-1.71-.26c-3-4.2-8.52-4.72-14.54-1.25l-11,6.38.73,14.11L86,31.93a5.26,5.26,0,0,0,2-2.33,1.18,1.18,0,0,0-1.81-1.42Z"/><path class="cls-2" d="M59.36,47.64l-.75-14.75L69.8,26.43c6.1-3.53,11.82-3,14.91,1.32a1,1,0,0,0,.63.39A.88.88,0,0,0,86,28h0a1.47,1.47,0,0,1,2.25,1.76,5.51,5.51,0,0,1-2.12,2.46Zm-.17-14.43.7,13.47,26-15a5,5,0,0,0,1.89-2.21.87.87,0,0,0-.26-1.08.88.88,0,0,0-1.11,0h0a1.44,1.44,0,0,1-1.11.3,1.48,1.48,0,0,1-1-.62c-2.91-4.07-8.34-4.52-14.16-1.16Z"/><path class="cls-1" d="M60.58,46.61a5.13,5.13,0,0,0,2.36-4.75L56.12,19.92h0c-1.09-7.56-6-10.89-12-7.47s-10.87,12.46-12,21.27h0l-5.35,29c-.33,1.93.82,2.91,2.36,2Z"/><path class="cls-2" d="M28.13,65.34a1.45,1.45,0,0,1-.87-.27,2.34,2.34,0,0,1-.7-2.42l5.36-29c1.11-9,6.2-18.06,12.09-21.46,2.69-1.55,5.26-1.81,7.44-.75,2.59,1.26,4.35,4.25,4.95,8.42l6.81,21.89a5.34,5.34,0,0,1-2.49,5.09L29.35,65A2.52,2.52,0,0,1,28.13,65.34ZM48.64,11.39A8.76,8.76,0,0,0,44.3,12.7C38.55,16,33.58,24.88,32.48,33.76l-5.35,29a1.85,1.85,0,0,0,.45,1.86,1.4,1.4,0,0,0,1.49-.14L60.43,46.36a4.87,4.87,0,0,0,2.23-4.44L55.84,20c-.58-4-2.22-6.86-4.64-8A5.78,5.78,0,0,0,48.64,11.39Z"/><path class="cls-1" d="M17,17.87c-.22-.08.12,0-.09,0l-.25.44-1.12,1.28h0c-2.75,2.54-7.84,4.31-7.84,4.31-3.19.94-6.42,5.06-7.2,9.2-.5,2.6.1,4.6,1.4,5.48l8.61,4.88a.09.09,0,0,0,.13,0l5.55-7.3,6.22-7.4s0,0,0,0l2.89-6a.1.1,0,0,0,0-.13Z"/><path class="cls-2" d="M10.52,43.73a.35.35,0,0,1-.2,0L1.72,38.8C.25,37.8-.32,35.64.18,33c.8-4.23,4.12-8.45,7.4-9.41,0,0,5.06-1.78,7.73-4.25l1.1-1.27.21-.37.12-.24.26.1h.07l0,0,8.26,4.68a.38.38,0,0,1,.16.5l-2.94,6.09-6.22,7.4-5.55,7.29A.37.37,0,0,1,10.52,43.73ZM17,18.21a2.39,2.39,0,0,0-.13.21l-1.14,1.32c-2.79,2.58-7.76,4.33-8,4.4-3.11.92-6.25,4.94-7,9-.46,2.4,0,4.34,1.28,5.2l8.45,4.79,5.45-7.17,6.23-7.41,2.79-5.82Z"/><path class="cls-2" d="M8.57,40.33.4,35.78l-.12,0A3.89,3.89,0,0,0,1.8,38.57l8.61,4.88a.11.11,0,0,0,.13,0l.28-.37Z"/><path class="cls-3" d="M17,17.87c-.22-.08.13,0-.09,0a4.91,4.91,0,0,1-.25.44l-1.12,1.28h0c-2.74,2.54-7.84,4.31-7.84,4.31A9.19,9.19,0,0,0,3.6,26.78l8.25,4.82,10.23-2.51.32-.38s0,0,0,0l2.89-6a.09.09,0,0,0,0-.13Z"/><path class="cls-2" d="M11.81,31.91,3.15,26.85l.23-.26a9.45,9.45,0,0,1,4.23-3s5.06-1.78,7.73-4.25l1.1-1.27.21-.37.12-.24.26.1h.07l0,0L25.4,22.3a.38.38,0,0,1,.16.5l-2.94,6.09-.38.45ZM4,26.71,11.9,31.3l10-2.47.26-.3L25,22.71,17,18.21l-.13.21-1.14,1.32c-2.79,2.58-7.76,4.33-8,4.4A8.67,8.67,0,0,0,4,26.71Z"/><path class="cls-1" d="M24.87,25.25c.11-.88.26-1.77.44-2.66l-.09,0c-1.7,3.43-9.22,6-9.22,6-3.19.93-6.41,5-7.2,9.19s1.17,6.74,4.36,5.8l9-2.64s0,0,0,0Z"/><path class="cls-2" d="M11.92,44.07a3.23,3.23,0,0,1-2.23-.83c-1.2-1.09-1.63-3.09-1.17-5.5.8-4.23,4.12-8.45,7.4-9.42.06,0,7.41-2.6,9-5.89l.12-.23.24.09h0l.05,0h0l.23.09-.05.24c-.18.89-.33,1.77-.44,2.64h0L22.49,41a.35.35,0,0,1-.24.28l-9,2.64A4.87,4.87,0,0,1,11.92,44.07ZM24.81,23.69c-2.45,3-8.43,5.08-8.71,5.18-3.11.91-6.25,4.93-7,9-.42,2.21-.05,4,1,5a3,3,0,0,0,3,.5L22,40.72l2.64-15.51C24.65,24.71,24.72,24.2,24.81,23.69Z"/><rect class="cls-2" x="70.81" y="9.52" width="0.57" height="20.41" transform="translate(19.08 72.05) rotate(-60.67)"/><rect class="cls-2" x="4.34" y="30.63" width="0.57" height="9.59" transform="translate(-28.48 22) rotate(-60.48)"/><rect class="cls-2" x="18.1" y="41.01" width="0.57" height="22.26" transform="translate(-36.16 43.14) rotate(-61.22)"/><rect class="cls-2" x="61.88" y="19.88" width="0.57" height="11.36" transform="translate(9.83 67.73) rotate(-61.22)"/><rect class="cls-2" x="64.06" y="8.51" width="0.57" height="22.26" transform="translate(16.15 66.58) rotate(-61.22)"/><rect class="cls-2" x="35.68" y="-4.75" width="0.57" height="22.26" transform="translate(13.06 34.83) rotate(-61.22)"/><rect class="cls-2" x="18.58" y="17.75" width="0.57" height="9.59" transform="translate(-10.05 27.85) rotate(-60.48)"/><polygon class="cls-2" points="86.65 27.87 82.53 25.59 82.23 26.07 84.49 27.47 84.35 27.73 85.55 28.37 85.65 28.18 86.04 28.42 86.65 27.87"/><path class="cls-1" d="M64.29,36.81,66.36,38h0l6-5.37h0l3.27,1.92s0,0,0,0l1.82-6.25h0l2.23-6.36h0l1.74-2.24h0l.86-1.74v0l-2.64-1.52a.55.55,0,0,0-.54,0l-2.31,1.44.41-2.57.38-.13,1.45-1.79s0,0,0,0L76.91,12a.32.32,0,0,0-.21-.12L74,11.69c-.28,0-.64.3-.8.72l-.87,2.25h0a8.21,8.21,0,0,0-1.86.81,11.78,11.78,0,0,0-1.29.88l-1.51-.84,0,0h0c-.18-.09-.46,0-.7.31L64.3,19.12a1,1,0,0,0-.21,1.05L65,21.41a17.14,17.14,0,0,0-1.85,4.8h0l-1.75,1a1.33,1.33,0,0,0-.59,1V31.8a.42.42,0,0,0,.17.38l3.81,2.15L64.12,36a.71.71,0,0,0,0,.71h0A.29.29,0,0,0,64.29,36.81Z"/><path class="cls-2" d="M66.35,38.21l-.1,0-2-1.17a.44.44,0,0,1-.21-.13.92.92,0,0,1-.08-.94l.59-1.52-3.65-2.05a.63.63,0,0,1-.28-.57V28.24A1.53,1.53,0,0,1,61.26,27l1.67-1a17.53,17.53,0,0,1,1.78-4.64l-.8-1.14A1.19,1.19,0,0,1,64.13,19l2.67-3.32c.29-.37.67-.52,1-.37l.07,0,1.37.76a11.27,11.27,0,0,1,1.19-.8,9.25,9.25,0,0,1,1.81-.81L73,12.33a1.17,1.17,0,0,1,1-.85l2.67.23a.52.52,0,0,1,.33.16l2.22,1.25,0,.21-.07.1-1.49,1.84-.32.11-.31,2L79,16.17a.72.72,0,0,1,.75,0l2.72,1.56,0,.16,0,.11-.86,1.75L79.92,22,77.7,28.33l-1.85,6.35-.21.09-.11-.06-3.15-1.84-5.9,5.32Zm1.17-22.53a.55.55,0,0,0-.39.24l-2.66,3.33a.85.85,0,0,0-.21.8l1,1.35-.07.12a17,17,0,0,0-1.82,4.73l0,.09L61.48,27.4a1.1,1.1,0,0,0-.48.84V31.8c0,.1,0,.17.06.19l4,2.24-.72,1.87a.53.53,0,0,0,0,.49l.09,0,1.95,1.12,5.9-5.33h.14l.09,0,3.06,1.79,1.75-6,2.27-6.43,1.74-2.26L82.07,18l-2.49-1.43a.31.31,0,0,0-.32,0l-2.7,1.68.49-3.16.45-.16,1.28-1.56-2-1.17s0,0,0,0L74,11.91h0c-.15,0-.43.22-.57.58l-.91,2.35-.1,0a8.87,8.87,0,0,0-1.81.8,11.3,11.3,0,0,0-1.26.86l-.12.08-1.63-.91Z"/><path class="cls-2" d="M77.66,15.11a0,0,0,0,1,0,0l.35-.41L73.45,12a1.74,1.74,0,0,0-.18.33l-.83,2.15L76.73,17l1-1.81Z"/><path class="cls-2" d="M76.81,17.26,72.18,14.6l.89-2.32a1.53,1.53,0,0,1,.21-.37l.11-.16,4.93,2.83L78,15l.1.06Zm-4.1-2.85,3.94,2.27.82-1.44h0l0-.21.25-.32-4.15-2.39a1.17,1.17,0,0,1,0,.11Z"/><path class="cls-2" d="M64.15,36.72a.29.29,0,0,0,.14.08L66.36,38h0l6-5.36h0l3.27,1.92s0,0,0,0l1-3.37-.16-.73-9.26-9.18-.91-.53-2.22-1.27a.81.81,0,0,0,0,.74L65,21.4h0a17.51,17.51,0,0,0-1.85,4.79h0l-1.75,1a1.26,1.26,0,0,0-.58,1v3.56a.4.4,0,0,0,.18.38l3.8,2.16L64.12,36a.74.74,0,0,0,0,.71Z"/><path class="cls-2" d="M66.35,38.19l-.09,0L64.21,37a.57.57,0,0,1-.21-.13h0a.92.92,0,0,1-.08-.94l.58-1.5-3.64-2.08a.6.6,0,0,1-.28-.56V28.23A1.53,1.53,0,0,1,61.26,27l1.67-1a18.08,18.08,0,0,1,1.78-4.65l-.8-1.13a1,1,0,0,1,0-.94l.09-.22,3.39,1.95,9.3,9.22.18.85-1,3.52-.21.1-.12-.06-3.15-1.84-5.9,5.32Zm-2-1.62s0,0,0,0l.06,0,1.95,1.11,5.9-5.32.13,0,.1,0,3.06,1.79.9-3.08-.13-.62-9.2-9.12-2.87-1.65a.36.36,0,0,0,0,.29l1,1.36-.07.12a17.22,17.22,0,0,0-1.82,4.73l0,.09-1.83,1.06a1.1,1.1,0,0,0-.48.84v3.56c0,.09,0,.17.06.19l4,2.26-.71,1.85C64.22,36.35,64.26,36.52,64.31,36.57Z"/><path class="cls-2" d="M70,37.6l.87-2.25a9,9,0,0,0,1.86-.82,11.56,11.56,0,0,0,1.85-1.34l.88,1.24c.16.23.52.14.8-.21L79,30.89a1,1,0,0,0,.22-1.05l-.88-1.25a17.39,17.39,0,0,0,1.85-4.79l1.75-1a1.32,1.32,0,0,0,.58-1V18.21c0-.38-.26-.53-.58-.34l-1.75,1a4.41,4.41,0,0,0-1.87-2.64L79.13,14c.17-.42.07-.78-.21-.81L76.25,13c-.28,0-.64.29-.81.71l-.86,2.26a8.21,8.21,0,0,0-1.86.81,12.81,12.81,0,0,0-1.86,1.34L70,16.83c-.17-.23-.53-.13-.81.22l-2.66,3.32a1,1,0,0,0-.21,1.06l.87,1.24a17.84,17.84,0,0,0-1.85,4.79l-1.74,1a1.29,1.29,0,0,0-.59,1v3.56c0,.37.26.52.59.34l1.74-1A4.49,4.49,0,0,0,67.21,35l-.87,2.26c-.16.42-.06.78.22.8l2.67.23C69.51,38.34,69.87,38,70,37.6Z"/><path class="cls-2" d="M69.26,38.53h-.05l-2.67-.23a.51.51,0,0,1-.39-.24,1,1,0,0,1,0-.86L67,35.11a4.65,4.65,0,0,1-1.73-2.41l-1.51.88a.6.6,0,0,1-.63,0,.63.63,0,0,1-.29-.56V29.5a1.53,1.53,0,0,1,.69-1.21l1.66-1a18.12,18.12,0,0,1,1.79-4.65l-.8-1.13a1.17,1.17,0,0,1,.22-1.31L69,16.91a1.08,1.08,0,0,1,.75-.42.5.5,0,0,1,.4.22l.74,1.05a12.54,12.54,0,0,1,1.71-1.22,8.8,8.8,0,0,1,1.8-.8l.83-2.15a1.21,1.21,0,0,1,1-.86l2.67.24a.5.5,0,0,1,.39.24,1,1,0,0,1,0,.85l-.8,2.1a4.57,4.57,0,0,1,1.72,2.4l1.52-.88a.57.57,0,0,1,.91.53v3.55A1.51,1.51,0,0,1,82,23l-1.66,1a17.56,17.56,0,0,1-1.79,4.64l.8,1.13A1.17,1.17,0,0,1,79.12,31l-2.66,3.33a1,1,0,0,1-.74.42.51.51,0,0,1-.41-.21l-.74-1.05a12.45,12.45,0,0,1-1.71,1.21,8.57,8.57,0,0,1-1.8.8l-.83,2.16A1.22,1.22,0,0,1,69.26,38.53Zm-3.79-6.47.08.26a4.23,4.23,0,0,0,1.77,2.52l.15.09-.93,2.43a.56.56,0,0,0,0,.47.08.08,0,0,0,.07,0l2.67.23c.14,0,.43-.2.58-.58l.91-2.35.1,0a8.3,8.3,0,0,0,1.81-.79A12,12,0,0,0,74.47,33l.18-.16,1,1.44a.08.08,0,0,0,.07,0,.58.58,0,0,0,.39-.26l2.67-3.33A.79.79,0,0,0,79,30L78,28.61l.06-.12a17.31,17.31,0,0,0,1.83-4.74l0-.09,1.83-1.06a1.08,1.08,0,0,0,.48-.83V18.21a.24.24,0,0,0-.07-.2.24.24,0,0,0-.2,0L80,19.2l-.08-.26a4.23,4.23,0,0,0-1.77-2.52L78,16.33l.93-2.42a.58.58,0,0,0,0-.48l-.06,0-2.67-.24c-.16,0-.44.2-.59.58l-.9,2.35-.1,0a7.71,7.71,0,0,0-1.81.8A11.93,11.93,0,0,0,71,18.23l-.18.16-1-1.44s0,0-.07,0a.76.76,0,0,0-.39.26l-2.66,3.33a.81.81,0,0,0-.21.79l1,1.36-.07.11a17.44,17.44,0,0,0-1.83,4.74l0,.09L63.7,28.66a1.1,1.1,0,0,0-.48.84v3.56a.23.23,0,0,0,.07.19s.12,0,.2,0Z"/><path class="cls-1" d="M69.26,38.53h-.05l-2.67-.23a.51.51,0,0,1-.39-.24,1,1,0,0,1,0-.86L67,35.11a4.65,4.65,0,0,1-1.73-2.41l-1.51.88a.6.6,0,0,1-.63,0,.63.63,0,0,1-.29-.56V29.5a1.53,1.53,0,0,1,.69-1.21l1.66-1a18.12,18.12,0,0,1,1.79-4.65l-.8-1.13a1.17,1.17,0,0,1,.22-1.31l.34.27a.81.81,0,0,0-.21.79l1,1.36-.07.11a17.44,17.44,0,0,0-1.83,4.74l0,.09L63.7,28.66a1.1,1.1,0,0,0-.48.84v3.56a.23.23,0,0,0,.07.19s.12,0,.2,0l2-1.15.08.26a4.23,4.23,0,0,0,1.77,2.52l.15.09-.93,2.43a.56.56,0,0,0,0,.47.08.08,0,0,0,.07,0l2.67.23c.14,0,.43-.2.58-.58l.91-2.35.1,0a8.3,8.3,0,0,0,1.81-.79A12,12,0,0,0,74.47,33l.28.32a11.72,11.72,0,0,1-1.89,1.37,8.57,8.57,0,0,1-1.8.8l-.83,2.16A1.22,1.22,0,0,1,69.26,38.53ZM74.78,16l-.4-.15.86-2.25a1.21,1.21,0,0,1,1-.86l0,.43c-.16,0-.44.2-.59.58Z"/><rect class="cls-2" x="68.77" y="15.09" width="0.43" height="2.32" transform="matrix(0.51, -0.86, 0.86, 0.51, 20.02, 67.48)"/><rect class="cls-1" x="61.81" y="27.2" width="0.43" height="2.2" transform="translate(6.59 67.98) rotate(-60.12)"/><rect class="cls-1" x="65.73" y="21.07" width="0.43" height="2.19" transform="translate(13.87 68.3) rotate(-60.12)"/><path class="cls-1" d="M76.3,23.93l-1.41-.79a1.6,1.6,0,0,0-1.71.1,5.17,5.17,0,0,0-2.35,4,1.59,1.59,0,0,0,.74,1.54l1.34.75s0,0,0,0l2.79-3.41h0L76.32,24S76.32,23.93,76.3,23.93Z"/><path class="cls-1" d="M73,29.8l-.2-.08L71.47,29a1.78,1.78,0,0,1-.85-1.73,5.39,5.39,0,0,1,2.46-4.18A1.81,1.81,0,0,1,75,23l1.53.86,0,.2-.59,2.19,0,.05Zm1.2-6.65a1.83,1.83,0,0,0-.91.28,4.89,4.89,0,0,0-2.24,3.81,1.36,1.36,0,0,0,.62,1.34l1.21.69L75.55,26l.53-2-1.29-.71A1,1,0,0,0,74.2,23.15Z"/><path class="cls-2" d="M76.18,24.75l.16-.6s0,0,0,0l-1.41-.79a1.44,1.44,0,0,0-1.34-.07Z"/><path class="cls-2" d="M73.19,29.51,75,27.34l-3.42-2a4.56,4.56,0,0,0-.47,1.84,1.58,1.58,0,0,0,.74,1.54l1.34.76Z"/><ellipse class="cls-2" cx="74.65" cy="26.75" rx="3.28" ry="1.89" transform="translate(13.74 77.53) rotate(-59.54)"/><path class="cls-1" d="M73.6,30a1.4,1.4,0,0,1-.73-.19,1.86,1.86,0,0,1-.77-1.69,5.39,5.39,0,0,1,2.46-4.18,1.84,1.84,0,0,1,1.86-.15,1.86,1.86,0,0,1,.77,1.69h0a5.36,5.36,0,0,1-2.46,4.18A2.28,2.28,0,0,1,73.6,30Zm2.09-6a1.89,1.89,0,0,0-.92.28,4.89,4.89,0,0,0-2.24,3.81,1.21,1.21,0,0,0,2,1.17,4.89,4.89,0,0,0,2.24-3.81h0a1.43,1.43,0,0,0-.56-1.32A1,1,0,0,0,75.69,24Z"/><path class="cls-1" d="M37.41,46.81l.39-.38,3.26,1.8a.15.15,0,0,0,.2,0l1.38-2.37a.16.16,0,0,1,.2-.06L46,47.56a.15.15,0,0,0,.21-.08l1.56-4.8a.13.13,0,0,1,.2-.08l3.55,1.94a.15.15,0,0,0,.22-.11l.41-5.07a.14.14,0,0,1,.05-.1l1.59-1.4a.13.13,0,0,1,.16,0l2.69,1.53a.15.15,0,0,0,.22-.13L56.62,35a.24.24,0,0,1,0-.08l2.09-4a.18.18,0,0,1,.15-.08l2.86.34a.19.19,0,0,0,.1,0l.77-.5a.14.14,0,0,0,0-.24L60.28,29a.14.14,0,0,1-.06-.18l1.44-3.76a.12.12,0,0,1,.1-.09l3.12-.58a.15.15,0,0,0,.09-.06l.53-.75a.15.15,0,0,0,0-.21l-3.2-1.87a.16.16,0,0,1-.06-.17l.64-2.15a.14.14,0,0,1,.08-.09l2.79-1.38a.14.14,0,0,0,.07-.06l.47-.95a.14.14,0,0,0,0-.19l-3.29-1.89a.13.13,0,0,1,0-.21l1.53-1.93,0,0L65.05,11a.14.14,0,0,0-.06-.18l-2.9-1.68A.13.13,0,0,1,62,9l.53-1a.13.13,0,0,0,0-.12l-.27-.69a.11.11,0,0,0-.06-.07L57.74,4.48c-.18-.14-.47-.06-.72.19a.15.15,0,0,1-.18,0C56.34,4.39,54.06,3,54,3l-.73-.07c-.31,0-.71.32-.89.79l-.56,1.42a.15.15,0,0,1-.21.07L49,3.72a.37.37,0,0,0-.44-.09l-.82.3A1.41,1.41,0,0,0,47,5L46.6,7.83l-.66.32L43.5,6.73c-.14-.18-.4-.18-.67,0L42,7.4a1.43,1.43,0,0,0-.53,1.18l.4,2.49a.14.14,0,0,1,0,.12c-.58.51-1.13,1.06-1.68,1.62a.14.14,0,0,1-.17,0l-1.74-1.07c-.18-.25-.58-.15-.89.24l-.73.9a1.1,1.1,0,0,0-.25,1.17l1.18,1.68a.14.14,0,0,1,0,.16,33.72,33.72,0,0,0-1.85,2.84.13.13,0,0,1-.17.06l-1.78-.7c-.28-.11-.69.17-.93.62l-.54,1.05c-.23.45-.2.9.08,1l1.75.7a.14.14,0,0,1,.08.19A29.78,29.78,0,0,0,33,24.77a.12.12,0,0,1-.11.09l-2.24.35a1.27,1.27,0,0,0-.84.93l-.29,1.07c-.1.36,0,.63.18.72l2.16,1.25a.17.17,0,0,1,.07.15c-.07.45-.12.91-.15,1.36a.12.12,0,0,1-.07.11l-2.34,1.34a1.66,1.66,0,0,0-.74,1.26v.88a.43.43,0,0,0,.23.43l2.69,1.58a.14.14,0,0,1,0,.22l-1.72,1.7a1.28,1.28,0,0,0-.39,1.19l.28.74c.06.15.31.23.31.23l2.65,1.55-.42.64c-.28.42-.32.92-.09,1.11l.53.42h0Z"/><path class="cls-2" d="M41.13,48.47a.34.34,0,0,1-.17,0l-3.12-1.73-.39.38-4.88-2.81L32,43.83c-.33-.26-.31-.86,0-1.39l.29-.45-2.45-1.43a.72.72,0,0,1-.4-.34l-.28-.74a1.46,1.46,0,0,1,.44-1.42l1.65-1.64-2.61-1.53a.59.59,0,0,1-.33-.61V33.4A1.8,1.8,0,0,1,29.23,32l2.31-1.33c0-.41.08-.85.14-1.28l-2.12-1.24c-.28-.12-.4-.5-.28-1l.29-1.07a1.5,1.5,0,0,1,1-1.09l2.19-.33c.33-1,.73-2,1.17-3L32.27,21a.53.53,0,0,1-.32-.33,1.26,1.26,0,0,1,.13-1l.54-1.05c.29-.56.81-.87,1.19-.72l1.73.68c.55-1,1.16-1.87,1.8-2.76L36.2,14.2a1.29,1.29,0,0,1,.25-1.43l.73-.9a1.11,1.11,0,0,1,.81-.45.51.51,0,0,1,.39.19l1.66,1c.58-.61,1.11-1.13,1.62-1.57l-.4-2.45a1.59,1.59,0,0,1,.61-1.38l.83-.64a.79.79,0,0,1,.61-.2.59.59,0,0,1,.33.17L46,7.91l.46-.23L46.8,5a1.62,1.62,0,0,1,.9-1.22l.83-.3a.55.55,0,0,1,.64.12L51.62,5l.53-1.34a1.28,1.28,0,0,1,1.11-.93l.73.07A23.67,23.67,0,0,1,56.9,4.48a.77.77,0,0,1,1-.17l4.48,2.61a.38.38,0,0,1,.15.18l.27.69a.37.37,0,0,1,0,.31l-.5.92,2.84,1.64a.37.37,0,0,1,.15.46l-.68,1.48-1.48,1.87,3.21,1.84a.37.37,0,0,1,.15.48l-.48.94a.31.31,0,0,1-.16.16L63,19.26l-.62,2.07,3.15,1.85a.4.4,0,0,1,.17.23.35.35,0,0,1-.06.28l-.53.75a.39.39,0,0,1-.23.15l-3.08.57-1.4,3.67,2.27,1.35a.36.36,0,0,1,.18.3.37.37,0,0,1-.16.31l-.78.5a.32.32,0,0,1-.23.06L58.9,31l-2.07,4,.28,4.23a.37.37,0,0,1-.17.33.38.38,0,0,1-.37,0l-2.64-1.51-1.55,1.36-.39,5a.35.35,0,0,1-.19.29.34.34,0,0,1-.34,0L48,42.83l-1.53,4.71a.35.35,0,0,1-.2.23.37.37,0,0,1-.31,0L42.79,46l-1.35,2.31A.35.35,0,0,1,41.13,48.47Zm-3.36-2.31L41.11,48l1.35-2.31a.35.35,0,0,1,.48-.13l3.13,1.76,1.53-4.72a.35.35,0,0,1,.21-.22.37.37,0,0,1,.31,0l3.45,1.89.4-5a.38.38,0,0,1,.13-.24l1.59-1.4a.35.35,0,0,1,.41,0l2.57,1.47L56.41,35a.39.39,0,0,1,0-.18l2.09-4a.37.37,0,0,1,.36-.19l2.87.33.63-.43-2.23-1.32a.35.35,0,0,1-.15-.44L61.45,25a.35.35,0,0,1,.28-.22l3.11-.59.45-.65-3.13-1.84a.36.36,0,0,1-.17-.41l.65-2.15a.35.35,0,0,1,.18-.22l2.8-1.38.41-.86L62.8,14.8a.37.37,0,0,1-.17-.25.34.34,0,0,1,.07-.29l1.53-1.92.6-1.34L62,9.36a.36.36,0,0,1-.14-.49l.52-.95-.26-.66L57.63,4.67c-.1-.09-.29,0-.46.15a.35.35,0,0,1-.44.06C54.29,3.39,54,3.21,53.9,3.19l-.68-.06c-.18,0-.52.26-.67.65L52,5.21a.36.36,0,0,1-.22.2.32.32,0,0,1-.3,0l-2.6-1.53s-.06-.07-.2,0l-.82.3a1.22,1.22,0,0,0-.62.88L46.8,8l-.87.42-2.6-1.53a.11.11,0,0,0-.08-.05.48.48,0,0,0-.29.12l-.83.64a1.21,1.21,0,0,0-.45,1L42.09,11a.38.38,0,0,1-.12.33c-.51.45-1.06,1-1.66,1.6a.35.35,0,0,1-.45.06l-1.8-1.12a.09.09,0,0,0-.09-.05h0a.71.71,0,0,0-.45.3l-.73.89c-.26.33-.34.76-.23.91l1.17,1.68a.36.36,0,0,1,0,.42,31,31,0,0,0-1.84,2.82.36.36,0,0,1-.44.15l-1.78-.7c-.14-.05-.45.12-.66.52l-.54,1a.87.87,0,0,0-.11.64c0,.07.07.08.08.08l1.75.7a.39.39,0,0,1,.2.2.34.34,0,0,1,0,.28,31.14,31.14,0,0,0-1.19,3.06.39.39,0,0,1-.29.24l-2.24.34a1.1,1.1,0,0,0-.67.77l-.29,1.07c-.07.26,0,.44.07.47L31.94,29a.36.36,0,0,1,.17.36c-.06.45-.11.91-.15,1.35a.34.34,0,0,1-.17.28l-2.35,1.34a1.39,1.39,0,0,0-.62,1.07v.88c0,.07,0,.2.09.23l2.72,1.59a.36.36,0,0,1,.17.26.35.35,0,0,1-.1.31L30,38.36a1.09,1.09,0,0,0-.34,1l.28.75a.45.45,0,0,0,.17.1L33,41.84l-.54.83c-.24.38-.24.74-.13.83l.53.42,4.54,2.62Z"/><path class="cls-2" d="M44.62,19.13A16,16,0,0,0,44,17.4l-2.9-1.27-4.7-2.74a.81.81,0,0,0,0,.69l1.18,1.68a.14.14,0,0,1,0,.16l4.77,2.63Z"/><path class="cls-2" d="M45,19.43l-2.75-.69-5-2.75.11-.15L36.2,14.2a1,1,0,0,1-.05-.87l.08-.25L41.15,16c.83.35,2.81,1.21,2.91,1.27s.16.1.76,1.84Zm-2.56-1.08,1.89.47c-.19-.56-.4-1.1-.47-1.25L41,16.33l-4.46-2.6a.42.42,0,0,0,0,.22l1.17,1.68a.45.45,0,0,1,.07.18Z"/><path class="cls-2" d="M47.89,14l-.2-2.25-1.36-1.1L41.65,7.89a1.09,1.09,0,0,0-.16.7l.4,2.49a.16.16,0,0,1,0,.13l4.76,2.66Z"/><path class="cls-2" d="M48.13,14.21l-1.63-.16-5-2.81.2-.17-.39-2.44a1.34,1.34,0,0,1,.18-.84l.1-.2,4.88,2.84,1.45,1.18Zm-1.46-.55,1,.08-.18-1.91L46.2,10.78,41.75,8.19a.73.73,0,0,0,0,.37L42.11,11v.07Z"/><path class="cls-2" d="M32.27,42.54c-.28.42-.32.92-.09,1.11l.53.42h0l4.69,2.71.39-.38,3.26,1.81a.16.16,0,0,0,.2-.06l1.38-2.37a.15.15,0,0,1,.2,0l3.2,1.8a.15.15,0,0,0,.21-.08l1.56-4.8a.13.13,0,0,1,.2-.08l3.55,1.94a.15.15,0,0,0,.22-.11l.41-5.07a.14.14,0,0,1,0-.1l1.59-1.4a.13.13,0,0,1,.16,0l2.69,1.53a.15.15,0,0,0,.22-.13L56.64,35a.09.09,0,0,1,0-.07l.74-1.43-9-6.23L41.57,23,38,20.89l-4.68-2.73a1.36,1.36,0,0,0-.52.56l-.54,1.05c-.23.45-.2.91.08,1l1.75.69a.14.14,0,0,1,.08.19A31.66,31.66,0,0,0,33,24.75a.14.14,0,0,1-.11.1l-2.24.34a1.27,1.27,0,0,0-.84.93l-.29,1.07c-.1.36,0,.64.18.72l2.16,1.26a.13.13,0,0,1,.07.14c-.07.46-.11.91-.15,1.36a.12.12,0,0,1-.07.11l-2.34,1.34a1.62,1.62,0,0,0-.73,1.26v.88a.42.42,0,0,0,.23.43l2.69,1.58a.14.14,0,0,1,0,.22l-1.72,1.7a1.28,1.28,0,0,0-.39,1.19l.28.74c.06.15.31.23.31.23l2.65,1.55Z"/><path class="cls-2" d="M41.14,48.45A.41.41,0,0,1,41,48.4l-3.12-1.73-.39.39-4.89-2.83-.52-.42a1.08,1.08,0,0,1,0-1.39l.29-.45-2.45-1.43h0a.64.64,0,0,1-.4-.34l-.28-.74A1.49,1.49,0,0,1,29.69,38l1.65-1.63-2.61-1.53a.64.64,0,0,1-.33-.62v-.88a1.81,1.81,0,0,1,.84-1.44l2.31-1.32c0-.41.08-.85.14-1.29L29.58,28.1c-.29-.12-.41-.51-.29-1l.29-1.07a1.49,1.49,0,0,1,1-1.08l2.19-.34c.33-1,.73-2,1.17-3L32.28,21a.53.53,0,0,1-.32-.33,1.26,1.26,0,0,1,.13-1l.54-1.05a1.6,1.6,0,0,1,.61-.65l.1-.06,8.33,4.86,6.89,4.28,9.11,6.34L56.84,35l.28,4.22a.34.34,0,0,1-.17.33.38.38,0,0,1-.37,0L53.94,38,52.39,39.4l-.39,5a.34.34,0,0,1-.19.28.34.34,0,0,1-.34,0L48,42.81l-1.52,4.71a.39.39,0,0,1-.22.23.35.35,0,0,1-.3,0L42.8,46l-1.35,2.31A.33.33,0,0,1,41.14,48.45Zm-3.36-2.31L41.12,48l1.35-2.32a.35.35,0,0,1,.48-.13l3.13,1.76,1.53-4.71a.37.37,0,0,1,.21-.23.37.37,0,0,1,.31,0l3.45,1.89.4-5a.39.39,0,0,1,.12-.24l1.6-1.4a.36.36,0,0,1,.41,0l2.58,1.47L56.42,35a.38.38,0,0,1,0-.19l.66-1.26-8.8-6.12-6.87-4.28-8.1-4.72a1.27,1.27,0,0,0-.34.41l-.54,1.05a.83.83,0,0,0-.1.63.14.14,0,0,0,.07.09l1.75.69a.36.36,0,0,1,.2.2.31.31,0,0,1,0,.28,31.14,31.14,0,0,0-1.19,3.06.37.37,0,0,1-.29.24l-2.24.34a1.07,1.07,0,0,0-.66.78l-.29,1.07c-.07.25,0,.43.06.46L32,29a.38.38,0,0,1,.17.36c-.06.47-.11.92-.14,1.35a.38.38,0,0,1-.18.28l-2.35,1.34a1.39,1.39,0,0,0-.62,1.07v.88c0,.07,0,.2.09.23l2.72,1.59a.38.38,0,0,1,.17.27.34.34,0,0,1-.1.3L30,38.34a1.11,1.11,0,0,0-.34,1l.28.74a.45.45,0,0,0,.17.1L33,41.83l-.54.82c-.24.38-.24.74-.13.83l.53.42,4.54,2.62Z"/><path class="cls-2" d="M48.14,46.31l.44-3.06c.42-.2.85-.41,1.28-.66s.87-.52,1.29-.81l.42,2.57c.06.37.4.45.75.18l.83-.64a1.41,1.41,0,0,0,.54-1.18l-.42-2.56a27.37,27.37,0,0,0,2.42-2.4l1.22,1.76c.18.26.58.16.9-.23l.72-.9a1.1,1.1,0,0,0,.25-1.17l-1.23-1.76a32.08,32.08,0,0,0,2-3l1.9.75c.27.11.69-.17.92-.62l.54-1c.24-.45.2-.91-.07-1l-1.9-.76a29.56,29.56,0,0,0,1.3-3.29l2.32-.36a1.3,1.3,0,0,0,.85-.93l.29-1.07c.12-.46,0-.79-.39-.74L63,23.69a23.38,23.38,0,0,0,.46-3.16l1.74-.62.74-.8A1.46,1.46,0,0,0,66.55,18V17c0-.42-.29-.59-.65-.38l-2.48,1.42A14.09,14.09,0,0,0,63,15.39l2.33-2.31a1.29,1.29,0,0,0,.4-1.19l-.29-.74c-.12-.33-.49-.31-.84,0l-2.33,2.31A7.52,7.52,0,0,0,61,11.66l1.91-2.93c.28-.42.32-.92.09-1.11l-.54-.43c-.23-.18-.64,0-.92.44l-1.91,2.92a6.59,6.59,0,0,0-2-.78L58.9,6.59c.19-.46.08-.86-.23-.89l-.73-.07c-.31,0-.71.32-.89.79L55.8,9.6a9.58,9.58,0,0,0-2.41.36l.44-3.05c.07-.45-.17-.7-.53-.57l-.82.3a1.38,1.38,0,0,0-.76,1.05l-.45,3.06c-.42.2-.85.41-1.28.66s-.86.52-1.28.81l-.42-2.57c-.06-.37-.4-.45-.76-.18l-.83.64a1.43,1.43,0,0,0-.53,1.18l.42,2.56a27.37,27.37,0,0,0-2.42,2.4l-1.23-1.76c-.18-.26-.58-.16-.89.23l-.73.9a1.11,1.11,0,0,0-.24,1.17l1.23,1.76a34.28,34.28,0,0,0-2,3l-1.89-.75c-.28-.11-.69.17-.93.62L37,22.5c-.23.45-.2.91.08,1l1.89.76a29.49,29.49,0,0,0-1.29,3.29l-2.33.36a1.27,1.27,0,0,0-.84.93l-.29,1.07c-.13.46.05.8.39.74l2.32-.35a22.19,22.19,0,0,0-.45,3.17L34,34.9A1.4,1.4,0,0,0,33.31,36v1c0,.42.29.59.66.38L36.44,36a13.32,13.32,0,0,0,.43,2.66l-2.33,2.31a1.27,1.27,0,0,0-.4,1.19l.28.74c.12.33.5.31.84,0l2.33-2.31a8.12,8.12,0,0,0,1.28,1.82L37,45.27c-.28.42-.32.92-.08,1.11l.53.43c.23.18.65,0,.92-.44l1.91-2.92a6.7,6.7,0,0,0,2,.78L41,47.41c-.18.46-.08.86.24.89l.72.07c.31,0,.71-.32.9-.79l1.25-3.18A9.65,9.65,0,0,0,46.47,44L46,47.09c-.06.45.18.7.53.57l.83-.3A1.43,1.43,0,0,0,48.14,46.31Z"/><path class="cls-2" d="M42,48.59h-.06l-.72-.06a.56.56,0,0,1-.42-.26,1.07,1.07,0,0,1,0-.93l1.16-2.95a7.43,7.43,0,0,1-1.6-.64l-1.8,2.75a1.22,1.22,0,0,1-.79.59.52.52,0,0,1-.44-.11l-.54-.43a1.08,1.08,0,0,1,0-1.39l1.82-2.79a7.7,7.7,0,0,1-1.06-1.49L35.41,43a.9.9,0,0,1-.79.31.56.56,0,0,1-.4-.36l-.28-.74a1.49,1.49,0,0,1,.44-1.42l2.25-2.22a13.89,13.89,0,0,1-.38-2.25l-2.19,1.26a.61.61,0,0,1-1-.57V36a1.64,1.64,0,0,1,.77-1.31l2.38-1.36a22.93,22.93,0,0,1,.39-2.78l-2,.31a.54.54,0,0,1-.51-.18.9.9,0,0,1-.12-.84l.29-1.07a1.49,1.49,0,0,1,1-1.08l2.19-.34c.34-1,.73-2,1.17-3L37,23.71a.53.53,0,0,1-.32-.33,1.31,1.31,0,0,1,.13-1l.54-1c.3-.56.81-.87,1.2-.72l1.72.68c.56-.95,1.16-1.88,1.8-2.76L40.9,16.91a1.29,1.29,0,0,1,.25-1.43l.73-.89a1,1,0,0,1,.81-.46.56.56,0,0,1,.43.23l1.07,1.54a27.13,27.13,0,0,1,2.17-2.13L46,11.33a1.63,1.63,0,0,1,.61-1.39l.83-.64a.79.79,0,0,1,.74-.17.61.61,0,0,1,.36.49l.36,2.23c.35-.22.69-.43,1-.62s.79-.43,1.2-.63l.42-2.94a1.64,1.64,0,0,1,.9-1.22l.83-.3a.58.58,0,0,1,.6.07.76.76,0,0,1,.21.73l-.39,2.74a9.47,9.47,0,0,1,2-.29l1.2-3.05A1.27,1.27,0,0,1,58,5.42l.73.06a.54.54,0,0,1,.41.26,1.07,1.07,0,0,1,0,.93L57.94,9.62a7,7,0,0,1,1.6.64l1.8-2.75a1.22,1.22,0,0,1,.79-.59.55.55,0,0,1,.45.11l.53.43c.33.26.31.86,0,1.39l-1.81,2.79a7.37,7.37,0,0,1,1.05,1.49L64.44,11a.92.92,0,0,1,.79-.31.54.54,0,0,1,.4.36l.29.74a1.5,1.5,0,0,1-.45,1.42l-2.24,2.22a13.9,13.9,0,0,1,.37,2.25l2.19-1.26a.7.7,0,0,1,.68,0,.67.67,0,0,1,.3.61v1A1.65,1.65,0,0,1,66,19.27l-.8.85-1.62.56a24.52,24.52,0,0,1-.38,2.75l2-.31a.56.56,0,0,1,.5.18.87.87,0,0,1,.12.84l-.29,1.07a1.46,1.46,0,0,1-1,1.08l-2.2.34a29.8,29.8,0,0,1-1.17,3l1.68.67a.53.53,0,0,1,.32.33,1.26,1.26,0,0,1-.13,1l-.54,1c-.29.56-.8.87-1.19.72l-1.72-.68a32,32,0,0,1-1.81,2.76L59,37.09a1.29,1.29,0,0,1-.25,1.43l-.73.89a1,1,0,0,1-.8.46.55.55,0,0,1-.43-.23L55.66,38.1a27.06,27.06,0,0,1-2.16,2.13l.4,2.44a1.63,1.63,0,0,1-.62,1.39l-.82.64a.82.82,0,0,1-.75.17.6.6,0,0,1-.35-.49L51,42.15c-.35.22-.69.44-1,.62s-.79.43-1.19.63l-.43,2.94a1.62,1.62,0,0,1-.9,1.22l-.82.3a.58.58,0,0,1-.6-.07.79.79,0,0,1-.22-.73l.4-2.74a9.65,9.65,0,0,1-2,.29l-1.19,3A1.35,1.35,0,0,1,42,48.59Zm-1.77-5.43.17.1a6.58,6.58,0,0,0,1.9.76l.24,0-1.34,3.42a.68.68,0,0,0,0,.54.1.1,0,0,0,.09.06l.72.07c.18,0,.52-.26.68-.66l1.3-3.31h.14a10,10,0,0,0,2.36-.36l.31-.09-.48,3.38c0,.19,0,.3.06.34a.19.19,0,0,0,.18,0l.82-.3a1.26,1.26,0,0,0,.63-.88l.45-3.18.11,0c.43-.2.86-.42,1.27-.66s.83-.5,1.27-.8l.28-.18.47,2.89c0,.06,0,.14.09.16s.17,0,.32-.11l.83-.64a1.21,1.21,0,0,0,.45-1L53,40.06l.09-.08a26.75,26.75,0,0,0,2.4-2.37l.18-.2,1.38,2a.11.11,0,0,0,.09,0,.64.64,0,0,0,.46-.3l.73-.89a.93.93,0,0,0,.23-.91l-1.31-1.9.09-.12a33.77,33.77,0,0,0,2-3l.09-.16L61.5,33c.13.05.45-.12.65-.52l.54-1.05a.84.84,0,0,0,.11-.63.18.18,0,0,0-.07-.09l-2.11-.83.1-.2A30.85,30.85,0,0,0,62,26.37l0-.12,2.46-.38a1.06,1.06,0,0,0,.67-.77L65.46,24a.52.52,0,0,0,0-.44.13.13,0,0,0-.12,0l-2.63.4.06-.3a22.19,22.19,0,0,0,.45-3.14v-.14L65,19.73l.75-.81a1.21,1.21,0,0,0,.55-1V17c0-.12,0-.21-.09-.24s-.14,0-.24.05l-2.78,1.59,0-.34a13,13,0,0,0-.42-2.62l0-.13,2.42-2.39a1.07,1.07,0,0,0,.34-1l-.28-.74c0-.08-.07-.09-.09-.09a.54.54,0,0,0-.39.2L62.2,13.84l-.13-.26a7.37,7.37,0,0,0-1.24-1.77l-.12-.13,2-3.06c.25-.38.24-.74.13-.83l-.53-.43s0,0-.11,0a.88.88,0,0,0-.5.41l-2,3.09-.18-.1A6.4,6.4,0,0,0,57.61,10l-.25-.05L58.7,6.51a.65.65,0,0,0,0-.54s-.05-.06-.09-.06l-.73-.07c-.16,0-.52.26-.67.66L56,9.81H55.8a9.94,9.94,0,0,0-2.35.36l-.32.09.49-3.38a.4.4,0,0,0-.06-.34.19.19,0,0,0-.18,0l-.83.3a1.2,1.2,0,0,0-.62.88l-.46,3.18-.1,0a13.85,13.85,0,0,0-1.27.66c-.41.23-.84.5-1.27.8l-.28.19-.47-2.9c0-.06,0-.14-.09-.16a.41.41,0,0,0-.33.11l-.82.64a1.19,1.19,0,0,0-.46,1l.44,2.68-.09.08a26.75,26.75,0,0,0-2.4,2.37l-.18.2-1.38-2a.12.12,0,0,0-.1,0,.7.7,0,0,0-.46.3l-.72.89c-.27.33-.35.76-.24.91l1.32,1.9-.09.12a32.38,32.38,0,0,0-2,3l-.1.16L38.36,21c-.13-.05-.45.12-.66.52l-.54,1.05a.83.83,0,0,0-.1.63.14.14,0,0,0,.07.09l2.1.83-.09.21a30,30,0,0,0-1.29,3.27l0,.12-2.46.38a1.07,1.07,0,0,0-.66.78L34.4,30a.49.49,0,0,0,0,.44.11.11,0,0,0,.12,0l2.64-.4-.07.3a22.19,22.19,0,0,0-.45,3.14v.11l-2.58,1.48a1.24,1.24,0,0,0-.55,1v1a.28.28,0,0,0,.08.24.28.28,0,0,0,.25,0l2.78-1.59,0,.35a13.05,13.05,0,0,0,.43,2.61l0,.13-2.42,2.39a1.09,1.09,0,0,0-.35,1l.28.74c0,.08.08.09.09.09s.23,0,.4-.2l2.54-2.51.14.26A7.1,7.1,0,0,0,39,42.19l.11.13-2,3.06c-.24.38-.24.74-.13.83l.54.43s0,0,.11,0a.84.84,0,0,0,.49-.41Z"/><polygon class="cls-2" points="58.56 5.88 56.74 4.89 56.95 4.51 58.77 5.51 58.56 5.88"/><rect class="cls-2" x="40.38" y="10.42" width="0.43" height="5.43" transform="translate(8.94 41.74) rotate(-60.03)"/><rect class="cls-2" x="46.72" y="7.58" width="0.43" height="2.31" transform="translate(15.76 44.89) rotate(-59.78)"/><polygon class="cls-2" points="53.66 6.66 51.47 5.38 51.69 5.01 53.88 6.29 53.66 6.66"/><rect class="cls-1" x="35.12" y="21.6" width="0.43" height="2.23" transform="translate(-2.08 41.81) rotate(-59.77)"/><polygon class="cls-1" points="34.53 27.89 31.03 25.86 31.25 25.48 34.74 27.52 34.53 27.89"/><rect class="cls-1" x="31.23" y="31.77" width="0.43" height="4.05" transform="translate(-13.59 43.95) rotate(-59.77)"/><polygon class="cls-1" points="33.72 41.3 30.22 39.27 30.43 38.9 33.93 40.93 33.72 41.3"/><rect class="cls-2" x="49.15" y="3.62" width="0.43" height="5.43" transform="translate(19.22 45.94) rotate(-60.03)"/><rect class="cls-2" x="54.47" y="2.31" width="0.43" height="5.43" transform="translate(23.02 49.89) rotate(-60.03)"/><rect class="cls-2" x="48.57" y="6.68" width="0.43" height="5.42" transform="matrix(0.54, -0.84, 0.84, 0.54, 14.47, 45.3)"/><path class="cls-4" d="M42,48.59h-.06l-.72-.06a.56.56,0,0,1-.42-.26,1.07,1.07,0,0,1,0-.93l1.16-2.95a7.43,7.43,0,0,1-1.6-.64l-1.8,2.75a1.22,1.22,0,0,1-.79.59.52.52,0,0,1-.44-.11l-.54-.43a1.08,1.08,0,0,1,0-1.39l1.82-2.79a7.7,7.7,0,0,1-1.06-1.49L35.41,43a.9.9,0,0,1-.79.31.56.56,0,0,1-.4-.36l-.28-.74a1.49,1.49,0,0,1,.44-1.42l2.25-2.22a13.89,13.89,0,0,1-.38-2.25l-2.19,1.26a.61.61,0,0,1-1-.57V36a1.64,1.64,0,0,1,.77-1.31l2.38-1.36a22.93,22.93,0,0,1,.39-2.78l-2,.31a.54.54,0,0,1-.51-.18.9.9,0,0,1-.12-.84l.29-1.07a1.49,1.49,0,0,1,1-1.08l2.19-.34c.34-1,.73-2,1.17-3L37,23.71a.53.53,0,0,1-.32-.33,1.31,1.31,0,0,1,.13-1l.54-1c.3-.56.81-.87,1.2-.72l1.89.75-.16.4L38.36,21c-.13-.05-.45.12-.66.52l-.54,1.05a.83.83,0,0,0-.1.63.14.14,0,0,0,.07.09l2.1.83-.09.21a30,30,0,0,0-1.29,3.27l0,.12-2.46.38a1.07,1.07,0,0,0-.66.78L34.4,30a.49.49,0,0,0,0,.44.11.11,0,0,0,.12,0l2.64-.4-.07.3a22.19,22.19,0,0,0-.45,3.14v.11l-2.58,1.48a1.24,1.24,0,0,0-.55,1v1a.28.28,0,0,0,.08.24.28.28,0,0,0,.25,0l2.78-1.59,0,.35a13.05,13.05,0,0,0,.43,2.61l0,.13-2.42,2.39a1.09,1.09,0,0,0-.35,1l.28.74c0,.08.08.09.09.09s.23,0,.4-.2l2.54-2.51.14.26A7.1,7.1,0,0,0,39,42.19l.11.13-2,3.06c-.24.38-.24.74-.13.83l.54.43s0,0,.11,0a.88.88,0,0,0,.5-.41l2-3.09.17.1a6.58,6.58,0,0,0,1.9.76l.24,0-1.34,3.42a.68.68,0,0,0,0,.54.1.1,0,0,0,.09.06l.72.07c.18,0,.52-.26.68-.66l1.3-3.31h.14a10,10,0,0,0,2.36-.36l.31-.09-.48,3.38c0,.19,0,.3.06.34a.19.19,0,0,0,.18,0l.82-.3a1.26,1.26,0,0,0,.63-.88l.45-3.18.11,0c.43-.2.86-.42,1.27-.66s.83-.5,1.27-.8l.28-.18.47,2.89c0,.06,0,.14.09.16s.17,0,.32-.11l.83-.64a1.21,1.21,0,0,0,.45-1L53,40.06l.09-.08a26.75,26.75,0,0,0,2.4-2.37l.32.28a28.79,28.79,0,0,1-2.35,2.34l.4,2.44a1.63,1.63,0,0,1-.62,1.39l-.82.64a.82.82,0,0,1-.75.17.6.6,0,0,1-.35-.49L51,42.15c-.35.22-.69.44-1,.62s-.79.43-1.19.63l-.43,2.94a1.62,1.62,0,0,1-.9,1.22l-.82.3a.58.58,0,0,1-.6-.07.79.79,0,0,1-.22-.73l.4-2.74a9.65,9.65,0,0,1-2,.29l-1.19,3A1.35,1.35,0,0,1,42,48.59Zm.18-29.91L40.9,16.91a1.29,1.29,0,0,1,.25-1.43l.73-.89a1,1,0,0,1,.81-.46.56.56,0,0,1,.43.23l1.23,1.77-.36.24-1.22-1.76a.12.12,0,0,0-.1,0,.7.7,0,0,0-.46.3l-.72.89c-.27.33-.35.76-.24.91l1.23,1.77Zm4.25-4.79L46,11.33a1.63,1.63,0,0,1,.61-1.39l.83-.64a.79.79,0,0,1,.74-.17.61.61,0,0,1,.36.49l.42,2.56-.43.07-.41-2.56c0-.06,0-.14-.09-.16a.41.41,0,0,0-.33.11l-.82.64a1.19,1.19,0,0,0-.46,1l.42,2.56Z"/><path class="cls-2" d="M59.32,21.58c0,6-4.21,13.27-9.39,16.26s-9.39.57-9.39-5.42,4.2-13.27,9.39-16.26S59.32,15.59,59.32,21.58Z"/><path class="cls-1" d="M45.73,39.34a5,5,0,0,1-2.55-.65c-1.84-1.07-2.86-3.29-2.86-6.27,0-6.05,4.26-13.43,9.5-16.45,2.58-1.49,5-1.72,6.85-.66s2.86,3.29,2.86,6.27C59.53,27.63,55.27,35,50,38A8.74,8.74,0,0,1,45.73,39.34Zm8.39-24.25A8.38,8.38,0,0,0,50,16.34c-5.11,3-9.28,10.17-9.28,16.08,0,2.82.94,4.91,2.64,5.89s4,.76,6.43-.65c5.12-3,9.28-10.17,9.28-16.08,0-2.82-.94-4.91-2.64-5.89A4.61,4.61,0,0,0,54.12,15.09Z"/><ellipse class="cls-1" cx="49.93" cy="27" rx="11.49" ry="6.63" transform="translate(1.58 56.74) rotate(-60)"/><path class="cls-1" d="M46.3,37.71a4.39,4.39,0,0,1-2.22-.57c-1.61-.93-2.49-2.86-2.49-5.45,0-5.24,3.69-11.64,8.23-14.26,2.24-1.29,4.36-1.49,6-.57s2.49,2.86,2.49,5.45c0,5.24-3.7,11.64-8.24,14.26A7.55,7.55,0,0,1,46.3,37.71Zm7.25-21A7.19,7.19,0,0,0,50,17.8c-4.42,2.56-8,8.79-8,13.89,0,2.43.8,4.23,2.27,5.07s3.43.65,5.53-.56c4.42-2.56,8-8.79,8-13.89,0-2.43-.81-4.23-2.27-5.07A4,4,0,0,0,53.55,16.72Z"/><path class="cls-2" d="M56.72,21.71c0-2.43-.81-4.18-2.13-5.08a6.47,6.47,0,0,0-4.66,1C45.44,20.2,41.8,26.5,41.8,31.68c0,2.44.82,4.19,2.14,5.09a6.45,6.45,0,0,0,4.65-1C53.08,33.2,56.72,26.9,56.72,21.71Z"/><path class="cls-1" d="M45,37.1A4.86,4.86,0,0,1,43.89,37l-.08,0c-1.43-1-2.22-2.85-2.22-5.27,0-5.24,3.69-11.63,8.23-14.25a6.65,6.65,0,0,1,4.82-1l.07,0c1.43,1,2.22,2.85,2.22,5.26C56.93,27,53.24,33.35,48.7,36A7.54,7.54,0,0,1,45,37.1Zm-1-.53a6.29,6.29,0,0,0,4.47-1c4.42-2.55,8-8.78,8-13.89,0-2.24-.71-4-2-4.88a6.29,6.29,0,0,0-4.47,1c-4.42,2.55-8,8.78-8,13.88C42,33.93,42.73,35.66,44,36.57Z"/><path class="cls-2" d="M50.18,25.32a3.06,3.06,0,0,1-1.38,2.39c-.76.44-1.38.09-1.38-.8a3.06,3.06,0,0,1,1.38-2.39C49.56,24.08,50.18,24.43,50.18,25.32Z"/><path class="cls-1" d="M48.18,28.12a.85.85,0,0,1-.47-.13,1.17,1.17,0,0,1-.51-1.08,3.27,3.27,0,0,1,1.49-2.58,1.06,1.06,0,0,1,1.71,1,3.28,3.28,0,0,1-1.49,2.58A1.56,1.56,0,0,1,48.18,28.12Zm1.24-3.58a1.11,1.11,0,0,0-.51.16,2.85,2.85,0,0,0-1.28,2.21.64.64,0,0,0,1.06.62A2.89,2.89,0,0,0,50,25.32a.77.77,0,0,0-.3-.71A.43.43,0,0,0,49.42,24.54Z"/><path class="cls-1" d="M49.44,25.74a1.42,1.42,0,0,1-.64,1.12c-.36.21-.65,0-.65-.37a1.42,1.42,0,0,1,.65-1.12C49.16,25.16,49.44,25.33,49.44,25.74Z"/><path class="cls-2" d="M48.51,27.16a.5.5,0,0,1-.27-.07.66.66,0,0,1-.3-.6,1.66,1.66,0,0,1,.75-1.31.65.65,0,0,1,.67,0,.66.66,0,0,1,.3.6,1.66,1.66,0,0,1-.75,1.31A.89.89,0,0,1,48.51,27.16Zm.58-1.66a.45.45,0,0,0-.18.05,1.23,1.23,0,0,0-.54.94.27.27,0,0,0,.08.23s.14,0,.24,0a1.19,1.19,0,0,0,.54-.93.27.27,0,0,0-.08-.23Z"/><path class="cls-2" d="M49.68,19.22a2,2,0,0,1-.88,1.51c-.48.28-.88.06-.88-.5a2,2,0,0,1,.88-1.52C49.28,18.43,49.68,18.66,49.68,19.22Z"/><path class="cls-1" d="M48.41,21.07a.67.67,0,0,1-.34-.09.83.83,0,0,1-.36-.75,2.15,2.15,0,0,1,1-1.71.85.85,0,0,1,.84-.06.84.84,0,0,1,.36.76,2.15,2.15,0,0,1-1,1.7A1,1,0,0,1,48.41,21.07Zm.78-2.27a.6.6,0,0,0-.28.1,1.72,1.72,0,0,0-.77,1.33.42.42,0,0,0,.15.38.44.44,0,0,0,.4-.06,1.72,1.72,0,0,0,.77-1.33.43.43,0,0,0-.15-.39A.21.21,0,0,0,49.19,18.8Z"/><path class="cls-2" d="M54,20.77c-.42.52-1,.67-1.19.32a1.45,1.45,0,0,1,.32-1.56c.42-.52,1-.67,1.19-.32A1.47,1.47,0,0,1,54,20.77Z"/><path class="cls-1" d="M53.2,21.49h0a.63.63,0,0,1-.52-.27A1.68,1.68,0,0,1,53,19.39a1.4,1.4,0,0,1,1-.59.67.67,0,0,1,.52.28,1.68,1.68,0,0,1-.33,1.83A1.38,1.38,0,0,1,53.2,21.49ZM54,19.23a1,1,0,0,0-.67.43A1.33,1.33,0,0,0,53,21a.25.25,0,0,0,.18.1c.21,0,.46-.17.68-.43h0a1.33,1.33,0,0,0,.31-1.31.25.25,0,0,0-.18-.1Z"/><path class="cls-2" d="M53.16,27.67c-.42,0-.57-.57-.32-1.19s.77-1.1,1.19-1.07.56.58.32,1.2S53.58,27.71,53.16,27.67Z"/><path class="cls-1" d="M53.2,27.89h-.06a.61.61,0,0,1-.5-.3,1.34,1.34,0,0,1,0-1.18c.27-.72.9-1.25,1.41-1.2a.65.65,0,0,1,.5.31,1.34,1.34,0,0,1,0,1.18A1.72,1.72,0,0,1,53.2,27.89ZM54,25.63c-.29,0-.74.36-1,.92a1,1,0,0,0,0,.8.22.22,0,0,0,.18.11c.26,0,.75-.35,1-.93a1,1,0,0,0,0-.79.21.21,0,0,0-.18-.11Z"/><path class="cls-2" d="M47.92,33a2,2,0,0,1,.88-1.51c.48-.28.88-.06.88.5a2,2,0,0,1-.88,1.52C48.32,33.8,47.92,33.57,47.92,33Z"/><path class="cls-1" d="M48.41,33.85a.77.77,0,0,1-.34-.08.84.84,0,0,1-.36-.76,2.15,2.15,0,0,1,1-1.7.83.83,0,0,1,.84-.06.81.81,0,0,1,.36.75,2.15,2.15,0,0,1-1,1.71A1.12,1.12,0,0,1,48.41,33.85Zm.78-2.26a.57.57,0,0,0-.28.09A1.72,1.72,0,0,0,48.14,33c0,.19,0,.33.15.38a.39.39,0,0,0,.4-.06A1.72,1.72,0,0,0,49.46,32a.41.41,0,0,0-.15-.38A.21.21,0,0,0,49.19,31.59Z"/><path class="cls-2" d="M43.57,31.46c.42-.52,1-.67,1.19-.32a1.47,1.47,0,0,1-.32,1.56c-.42.52-.95.67-1.19.32A1.45,1.45,0,0,1,43.57,31.46Z"/><path class="cls-1" d="M43.61,33.42h0a.63.63,0,0,1-.52-.27,1.68,1.68,0,0,1,.33-1.83h0a1.45,1.45,0,0,1,1-.59.67.67,0,0,1,.52.28,1.68,1.68,0,0,1-.33,1.83A1.38,1.38,0,0,1,43.61,33.42Zm.12-1.83a1.33,1.33,0,0,0-.31,1.31.25.25,0,0,0,.18.1,1.09,1.09,0,0,0,.68-.43,1.33,1.33,0,0,0,.31-1.31.25.25,0,0,0-.18-.1,1.07,1.07,0,0,0-.68.43Z"/><path class="cls-2" d="M44.44,24.56c.42,0,.56.57.32,1.19s-.77,1.1-1.19,1.06-.57-.57-.32-1.19S44,24.52,44.44,24.56Z"/><path class="cls-1" d="M43.61,27h-.06a.65.65,0,0,1-.5-.31,1.34,1.34,0,0,1,0-1.18c.27-.72.89-1.25,1.41-1.2a.65.65,0,0,1,.5.31,1.34,1.34,0,0,1,0,1.18A1.72,1.72,0,0,1,43.61,27Zm.79-2.26c-.29,0-.74.37-.95.93a1,1,0,0,0,0,.79.22.22,0,0,0,.18.11c.28,0,.75-.35,1-.92a1,1,0,0,0,0-.8.22.22,0,0,0-.18-.11Z"/><path class="cls-1" d="M8.93,46.93l2,1.14h0l5.8-5.23h0L20,44.71a0,0,0,0,0,0,0l1.77-6.09h0L24,32.4h0l1.69-2.19h0l.84-1.7v0L23.92,27a.49.49,0,0,0-.52,0l-2.25,1.4.39-2.5.38-.14L23.33,24a0,0,0,0,0,0,0l-2.12-1.18a.27.27,0,0,0-.2-.12l-2.6-.22c-.27,0-.62.28-.78.69l-.85,2.19h0a8.74,8.74,0,0,0-1.8.8,11.14,11.14,0,0,0-1.26.85l-1.47-.82,0,0h0c-.18-.09-.45,0-.68.3L8.94,29.7a1,1,0,0,0-.21,1l.86,1.21A16.86,16.86,0,0,0,7.78,36.6h0l-1.69,1a1.26,1.26,0,0,0-.58,1v3.47a.41.41,0,0,0,.17.37L9.4,44.51l-.64,1.65a.7.7,0,0,0,0,.69h0A.39.39,0,0,0,8.93,46.93Z"/><path class="cls-2" d="M10.93,48.29l-.09,0-2-1.13a.46.46,0,0,1-.2-.13.88.88,0,0,1-.08-.92l.57-1.48-3.55-2a.61.61,0,0,1-.27-.55V38.58A1.49,1.49,0,0,1,6,37.4l1.61-.94A17.78,17.78,0,0,1,9.33,32l-.77-1.1a1.15,1.15,0,0,1,.21-1.29l2.59-3.24c.29-.35.67-.5,1-.35l1.39.77A14,14,0,0,1,14.87,26a8.88,8.88,0,0,1,1.75-.78l.81-2.1a1.16,1.16,0,0,1,1-.83l2.6.23a.47.47,0,0,1,.32.16l2.17,1.21.05.21-.07.1L22.05,26l-.31.11L21.43,28l1.85-1.16a.75.75,0,0,1,.75,0l2.64,1.52.06.16,0,.12-.85,1.69-1.69,2.21L22,38.67l-1.8,6.18-.2.09-.12,0L16.81,43.1l-5.74,5.18Zm1.14-21.94a.52.52,0,0,0-.37.24L9.11,29.83a.81.81,0,0,0-.2.77l.93,1.32L9.77,32A17,17,0,0,0,8,36.65l0,.09-1.78,1a1.09,1.09,0,0,0-.46.81v3.47c0,.11,0,.16.06.18l3.86,2.18L9,46.23c-.09.25-.06.42,0,.47l.08,0,1.9,1.08,5.74-5.18.14,0,.1,0,3,1.74,1.7-5.86,2.21-6.26,1.7-2.2.74-1.51-2.42-1.39a.29.29,0,0,0-.3,0l-2.65,1.65.49-3.09.44-.16L23,24.07l-2-1.13s0,0-.05,0l-2.6-.23c-.13,0-.42.19-.56.56L17,25.53l-.1,0a8.41,8.41,0,0,0-1.77.77,13.5,13.5,0,0,0-1.23.84l-.11.09-1.59-.89Z"/><path class="cls-2" d="M22,25.79a0,0,0,0,1,0,0l.33-.41L17.85,22.8a1.57,1.57,0,0,0-.18.31l-.8,2.1L21,27.6l1-1.75Z"/><path class="cls-2" d="M21.12,27.9,16.6,25.3,17.47,23a1.53,1.53,0,0,1,.21-.37l.11-.15,4.81,2.76-.35.43.09.06Zm-4-2.79L21,27.31l.8-1.38h0l-.05-.22L22,25.4l-4-2.31s0,.07-.05.1Z"/><path class="cls-2" d="M8.8,46.84a.21.21,0,0,0,.13.07l2,1.15h0l5.79-5.23h0L20,44.69s0,0,0,0L21,41.4l-.15-.72-9-8.93-.9-.52L8.76,30a.8.8,0,0,0,0,.72l.86,1.21h0a16.52,16.52,0,0,0-1.8,4.67h0l-1.7,1a1.25,1.25,0,0,0-.57,1V42a.42.42,0,0,0,.17.38L9,44.28l-.21,1.86a.67.67,0,0,0,0,.7Z"/><path class="cls-2" d="M10.93,48.28l-.09,0-2-1.14a.51.51,0,0,1-.2-.12h0a.87.87,0,0,1-.08-.9l.19-1.69L5.59,42.59A.6.6,0,0,1,5.31,42V38.57A1.49,1.49,0,0,1,6,37.39l1.62-.94a17.44,17.44,0,0,1,1.73-4.52l-.77-1.1a.93.93,0,0,1,0-.92l.09-.22L12,31.59l9.06,9,.17.83-1,3.43-.21.09-.11,0-3.06-1.8-5.74,5.18Zm-2-18a.39.39,0,0,0,0,.28l.93,1.32L9.77,32A17.08,17.08,0,0,0,8,36.63v.1l-1.79,1a1.08,1.08,0,0,0-.46.81V42c0,.1,0,.17.06.19l3.41,1.94L9,46.22a.53.53,0,0,0,0,.47H9l0,0,0,0,1.9,1.08,5.75-5.19h.13l.1,0,3,1.75.87-3-.12-.6-9-8.87Z"/><path class="cls-2" d="M14.52,47.69l.84-2.19a8.24,8.24,0,0,0,1.81-.79A12.18,12.18,0,0,0,19,43.4l.85,1.21c.16.22.51.13.78-.21l2.6-3.24a1,1,0,0,0,.2-1l-.85-1.21a16.89,16.89,0,0,0,1.8-4.66l1.7-1a1.25,1.25,0,0,0,.57-1V28.81c0-.37-.26-.51-.58-.33l-1.7,1a4.28,4.28,0,0,0-1.81-2.57l.84-2.2c.16-.41.07-.76-.21-.78l-2.6-.23c-.27,0-.62.29-.78.7l-.85,2.19a8.45,8.45,0,0,0-1.81.79,12.86,12.86,0,0,0-1.8,1.31l-.86-1.21c-.15-.22-.51-.13-.78.21L11.1,30.92a1,1,0,0,0-.21,1l.85,1.21a17.14,17.14,0,0,0-1.8,4.67l-1.7,1a1.28,1.28,0,0,0-.57,1v3.47c0,.37.26.51.57.33l1.7-1a4.33,4.33,0,0,0,1.82,2.57l-.85,2.2c-.15.41-.06.76.21.78l2.61.23C14,48.41,14.36,48.1,14.52,47.69Z"/><path class="cls-2" d="M13.76,48.61h0l-2.6-.22a.51.51,0,0,1-.39-.24,1,1,0,0,1,0-.84l.79-2a4.54,4.54,0,0,1-1.68-2.34l-1.47.86a.63.63,0,0,1-.62,0,.63.63,0,0,1-.27-.56V39.8a1.47,1.47,0,0,1,.68-1.17l1.61-.94a17.7,17.7,0,0,1,1.74-4.52l-.77-1.1a1.14,1.14,0,0,1,.21-1.28l2.59-3.24a1,1,0,0,1,.73-.42.5.5,0,0,1,.4.22l.72,1A11.69,11.69,0,0,1,17,27.19a9,9,0,0,1,1.75-.79l.81-2.09a1.15,1.15,0,0,1,1-.83l2.6.22a.49.49,0,0,1,.38.24.94.94,0,0,1,0,.84l-.78,2a4.59,4.59,0,0,1,1.68,2.34l1.46-.86a.63.63,0,0,1,.62,0,.61.61,0,0,1,.28.56v3.47a1.47,1.47,0,0,1-.68,1.17l-1.62.94a17,17,0,0,1-1.74,4.52l.78,1.1a1.16,1.16,0,0,1-.21,1.28l-2.6,3.24a1,1,0,0,1-.73.42.48.48,0,0,1-.39-.22l-.72-1a11.69,11.69,0,0,1-1.66,1.17,8.76,8.76,0,0,1-1.76.79l-.8,2.09A1.19,1.19,0,0,1,13.76,48.61Zm-3.68-6.32.08.26A4.12,4.12,0,0,0,11.88,45l.15.1-.91,2.36a.54.54,0,0,0,0,.45.05.05,0,0,0,.05,0l2.6.23c.14,0,.43-.2.57-.56l.88-2.3.1,0a7.26,7.26,0,0,0,1.76-.77,12,12,0,0,0,1.78-1.28l.18-.16,1,1.41s0,0,.06,0h0a.58.58,0,0,0,.38-.26L23,41a.81.81,0,0,0,.2-.77l-.93-1.32.06-.12a16.81,16.81,0,0,0,1.78-4.61l0-.09,1.78-1a1.06,1.06,0,0,0,.47-.8V28.81c0-.11,0-.17-.06-.19s-.11,0-.19.05l-1.94,1.12-.07-.26a4.16,4.16,0,0,0-1.73-2.45l-.15-.1.91-2.36a.6.6,0,0,0,0-.45s0,0-.06,0l-2.6-.23c-.15,0-.42.2-.56.56l-.88,2.3-.11,0a7.61,7.61,0,0,0-1.76.77,12,12,0,0,0-1.77,1.28l-.18.16-1-1.41a.09.09,0,0,0-.06,0h0a.59.59,0,0,0-.37.26l-2.59,3.24a.79.79,0,0,0-.2.76L12,33.14l-.07.12a17.14,17.14,0,0,0-1.78,4.61l0,.09L8.35,39a1,1,0,0,0-.46.8v3.47c0,.11,0,.17.06.19s.11,0,.19,0Z"/><path class="cls-1" d="M13.76,48.61h0l-2.6-.22a.51.51,0,0,1-.39-.24,1,1,0,0,1,0-.84l.79-2a4.54,4.54,0,0,1-1.68-2.34l-1.47.86a.63.63,0,0,1-.62,0,.63.63,0,0,1-.27-.56V39.8a1.47,1.47,0,0,1,.68-1.17l1.61-.94a17.7,17.7,0,0,1,1.74-4.52l-.77-1.1a1.14,1.14,0,0,1,.21-1.28l.34.27a.79.79,0,0,0-.2.76L12,33.14l-.07.12a17.14,17.14,0,0,0-1.78,4.61l0,.09L8.35,39a1,1,0,0,0-.46.8v3.47c0,.11,0,.17.06.19s.11,0,.19,0l1.93-1.13.08.26A4.12,4.12,0,0,0,11.88,45l.15.1-.91,2.36a.54.54,0,0,0,0,.45.05.05,0,0,0,.05,0l2.6.23c.14,0,.43-.2.57-.56l.88-2.3.1,0a7.26,7.26,0,0,0,1.76-.77,12,12,0,0,0,1.78-1.28l.28.32a11.51,11.51,0,0,1-1.84,1.33,8.76,8.76,0,0,1-1.76.79l-.8,2.09A1.19,1.19,0,0,1,13.76,48.61Zm5.38-21.95-.4-.16.85-2.19a1.17,1.17,0,0,1,1-.83l0,.42c-.13,0-.42.2-.56.56Z"/><polygon class="cls-2" points="14.37 27.66 12.42 26.51 12.64 26.14 14.58 27.29 14.37 27.66"/><rect class="cls-1" x="6.51" y="37.56" width="0.43" height="2.14" transform="translate(-30.12 25.21) rotate(-60.12)"/><rect class="cls-1" x="10.32" y="31.6" width="0.43" height="2.14" transform="translate(-23.04 25.53) rotate(-60.12)"/><path class="cls-1" d="M20.63,34.38l-1.38-.77a1.55,1.55,0,0,0-1.66.1A5,5,0,0,0,15.3,37.6,1.52,1.52,0,0,0,16,39.1l1.3.74h0l2.72-3.33h0l.55-2.07S20.64,34.39,20.63,34.38Z"/><path class="cls-1" d="M17.41,40.1,17.22,40l-1.3-.73a1.75,1.75,0,0,1-.83-1.69,5.21,5.21,0,0,1,2.39-4.07,1.74,1.74,0,0,1,1.89-.09l1.51.83,0,.2-.6,2.17Zm1.17-6.47a1.85,1.85,0,0,0-.89.27,4.78,4.78,0,0,0-2.18,3.7,1.34,1.34,0,0,0,.61,1.31l1.17.66,2.6-3.17.51-1.9-1.25-.7A1,1,0,0,0,18.58,33.63Z"/><path class="cls-2" d="M20.51,35.18l.15-.59s0,0,0,0l-1.38-.77a1.38,1.38,0,0,0-1.3-.07Z"/><path class="cls-2" d="M17.59,39.82l1.73-2.11L16,35.8a4.44,4.44,0,0,0-.46,1.79,1.56,1.56,0,0,0,.72,1.5l1.3.73Z"/><path class="cls-2" d="M21.28,35.85A5,5,0,0,1,19,39.74c-1.25.71-2.26.11-2.25-1.33A5,5,0,0,1,19,34.52C20.28,33.81,21.29,34.41,21.28,35.85Z"/><path class="cls-1" d="M18,40.25a1.44,1.44,0,0,1-.71-.18,1.79,1.79,0,0,1-.75-1.66,5.22,5.22,0,0,1,2.4-4.07,1.77,1.77,0,0,1,1.81-.15,1.79,1.79,0,0,1,.75,1.66,5.21,5.21,0,0,1-2.39,4.07A2.3,2.3,0,0,1,18,40.25Zm2-5.81a1.85,1.85,0,0,0-.89.27A4.77,4.77,0,0,0,17,38.42a1.39,1.39,0,0,0,.54,1.28,1.39,1.39,0,0,0,1.38-.15,4.74,4.74,0,0,0,2.18-3.71h0a1.37,1.37,0,0,0-.54-1.28A1,1,0,0,0,20,34.44Z"/><path class="cls-2" d="M29.26,49.63,26.85,62.7c-.33,1.93.82,2.91,2.36,2L60.58,46.61a4.92,4.92,0,0,0,2.1-4.75s-4.56,2.82-15.25,9S29.26,49.63,29.26,49.63Z"/><path class="cls-2" d="M28.13,65.34a1.45,1.45,0,0,1-.87-.27,2.34,2.34,0,0,1-.7-2.42L29.08,49l.38.39c.08.07,7.45,7.27,17.83,1.22,10.56-6.15,15.2-9,15.24-9l.35-.22.08.4a5.17,5.17,0,0,1-2.24,5.06L29.35,65A2.52,2.52,0,0,1,28.13,65.34Zm1.32-15.15L27.13,62.75a1.85,1.85,0,0,0,.45,1.86,1.4,1.4,0,0,0,1.49-.14L60.43,46.36a4.66,4.66,0,0,0,2-4c-1.3.79-6,3.64-14.88,8.82-7.3,4.25-13.18,2.13-16,.5A16.53,16.53,0,0,1,29.45,50.19Z"/><path class="cls-2" d="M59.6,46.38l0,.59L86,31.75a5.23,5.23,0,0,0,2-2.34c.09-.19.12-.46,0-.5L62.85,43.27Z"/><path class="cls-2" d="M59.37,47.45l-.06-1.18.09-.09c1.46-1.41,3.26-3.11,3.26-3.11l.05,0L88,28.59l.14.06a.35.35,0,0,1,.19.22.9.9,0,0,1-.07.66A5.45,5.45,0,0,1,86.14,32Zm3.66-4c-.22.21-1.78,1.69-3.12,3l26-15a4.9,4.9,0,0,0,1.82-2.07Z"/><path class="cls-1" d="M27,64.73a3.77,3.77,0,0,1-.36-2.06L27,60.79l.42.08-.33,1.87h0a3.18,3.18,0,0,0,.3,1.76Z"/><path class="cls-1" d="M62.2,45.22,61.85,45a6.32,6.32,0,0,0,.8-1.76l.41.11A6.46,6.46,0,0,1,62.2,45.22Z"/><path class="cls-2" d="M38.71,53.62a2,2,0,0,1-.93,1.6c-.51.3-.93.06-.93-.53a2.07,2.07,0,0,1,.93-1.61C38.29,52.79,38.71,53,38.71,53.62Z"/><path class="cls-1" d="M37.37,55.56a.68.68,0,0,1-.35-.09.84.84,0,0,1-.38-.78,2.24,2.24,0,0,1,1-1.79.77.77,0,0,1,1.25.72,2.26,2.26,0,0,1-1,1.79A1.09,1.09,0,0,1,37.37,55.56Zm.82-2.39a.56.56,0,0,0-.3.1,1.81,1.81,0,0,0-.82,1.42.47.47,0,0,0,.16.41.46.46,0,0,0,.44-.06,1.84,1.84,0,0,0,.82-1.42.47.47,0,0,0-.16-.42A.32.32,0,0,0,38.19,53.17Z"/><path class="cls-1" d="M35.07,55.72a2,2,0,0,1-.92,1.6c-.52.3-.93.06-.93-.53a2,2,0,0,1,.93-1.61C34.66,54.88,35.07,55.12,35.07,55.72Z"/></g></g></svg>