<svg xmlns="http://www.w3.org/2000/svg" viewBox="0 0 98.65 93.24"><defs><style>.cls-1{fill:#16110d;}.cls-2{fill:#ffbe2e;}.cls-3{fill:#fec;}</style></defs><g id="Layer_2" data-name="Layer 2"><g id="content"><g id="_4" data-name="4"><path class="cls-1" d="M1.09,65.48c.26.15.26.38,0,.53a1,1,0,0,1-.9,0,.28.28,0,0,1,0-.53A1,1,0,0,1,1.09,65.48Z"/><path class="cls-1" d="M3.47,64.11a.28.28,0,0,1,0,.53,1,1,0,0,1-.91,0,.28.28,0,0,1,0-.53A1,1,0,0,1,3.47,64.11Z"/><path class="cls-1" d="M39.16,89.93a.28.28,0,0,1,0,.53,1,1,0,0,1-.9,0,.28.28,0,0,1,0-.53A1,1,0,0,1,39.16,89.93Z"/><path class="cls-1" d="M41.54,88.56a.28.28,0,0,1,0,.53,1,1,0,0,1-.91,0,.28.28,0,0,1,0-.53A1,1,0,0,1,41.54,88.56Z"/><path class="cls-1" d="M43.91,87.2c.25.14.25.37,0,.52a1,1,0,0,1-.91,0c-.25-.15-.25-.38,0-.52A1,1,0,0,1,43.91,87.2Z"/><path class="cls-1" d="M46.28,85.83a.27.27,0,0,1,0,.52,1,1,0,0,1-.91,0,.27.27,0,0,1,0-.52A1,1,0,0,1,46.28,85.83Z"/><path class="cls-1" d="M48.65,84.46a.27.27,0,0,1,0,.52,1,1,0,0,1-.91,0,.27.27,0,0,1,0-.52A1,1,0,0,1,48.65,84.46Z"/><ellipse class="cls-1" cx="50.57" cy="83.35" rx="0.64" ry="0.37"/><path class="cls-1" d="M53.39,81.72a.27.27,0,0,1,0,.52,1,1,0,0,1-.91,0,.27.27,0,0,1,0-.52A1,1,0,0,1,53.39,81.72Z"/><ellipse class="cls-1" cx="55.31" cy="80.61" rx="0.64" ry="0.37"/><path class="cls-1" d="M58.13,79a.28.28,0,0,1,0,.53,1,1,0,0,1-.9,0c-.26-.15-.26-.38,0-.53A1,1,0,0,1,58.13,79Z"/><path class="cls-1" d="M60.5,77.61a.28.28,0,0,1,0,.53,1,1,0,0,1-.9,0,.28.28,0,0,1,0-.53A1,1,0,0,1,60.5,77.61Z"/><path class="cls-1" d="M62.87,76.24a.28.28,0,0,1,0,.53,1,1,0,0,1-.9,0,.28.28,0,0,1,0-.53A1,1,0,0,1,62.87,76.24Z"/><ellipse class="cls-1" cx="36.34" cy="88.83" rx="0.64" ry="0.37"/><path class="cls-1" d="M39.16,87.2c.25.14.25.37,0,.52a1,1,0,0,1-.9,0c-.25-.15-.25-.38,0-.52A1,1,0,0,1,39.16,87.2Z"/><path class="cls-1" d="M41.54,85.83a.27.27,0,0,1,0,.52,1,1,0,0,1-.91,0,.27.27,0,0,1,0-.52A1,1,0,0,1,41.54,85.83Z"/><path class="cls-1" d="M43.91,84.46a.27.27,0,0,1,0,.52A1,1,0,0,1,43,85a.27.27,0,0,1,0-.52A1,1,0,0,1,43.91,84.46Z"/><path class="cls-1" d="M46.28,83.09a.27.27,0,0,1,0,.52,1,1,0,0,1-.91,0,.27.27,0,0,1,0-.52A1,1,0,0,1,46.28,83.09Z"/><path class="cls-1" d="M48.65,81.72a.27.27,0,0,1,0,.52,1,1,0,0,1-.91,0,.27.27,0,0,1,0-.52A1,1,0,0,1,48.65,81.72Z"/><path class="cls-1" d="M51,80.35c.25.15.25.38,0,.52a1,1,0,0,1-.91,0c-.25-.14-.25-.37,0-.52A1,1,0,0,1,51,80.35Z"/><path class="cls-1" d="M53.39,79a.28.28,0,0,1,0,.53,1,1,0,0,1-.91,0,.28.28,0,0,1,0-.53A1,1,0,0,1,53.39,79Z"/><ellipse class="cls-1" cx="55.31" cy="77.88" rx="0.64" ry="0.37"/><ellipse class="cls-1" cx="57.68" cy="76.51" rx="0.64" ry="0.37"/><path class="cls-1" d="M60.5,74.88c.25.14.25.37,0,.52a1,1,0,0,1-.9,0c-.25-.15-.25-.38,0-.52A1,1,0,0,1,60.5,74.88Z"/><path class="cls-1" d="M34.42,87.2c.25.14.25.37,0,.52a1,1,0,0,1-.9,0c-.25-.15-.25-.38,0-.52A1,1,0,0,1,34.42,87.2Z"/><path class="cls-1" d="M36.79,85.83a.27.27,0,0,1,0,.52,1,1,0,0,1-.9,0,.27.27,0,0,1,0-.52A1,1,0,0,1,36.79,85.83Z"/><path class="cls-1" d="M39.16,84.46a.27.27,0,0,1,0,.52,1,1,0,0,1-.9,0,.27.27,0,0,1,0-.52A1,1,0,0,1,39.16,84.46Z"/><path class="cls-1" d="M41.54,83.09a.27.27,0,0,1,0,.52,1,1,0,0,1-.91,0,.27.27,0,0,1,0-.52A1,1,0,0,1,41.54,83.09Z"/><path class="cls-1" d="M43.91,81.72a.27.27,0,0,1,0,.52,1,1,0,0,1-.91,0,.27.27,0,0,1,0-.52A1,1,0,0,1,43.91,81.72Z"/><path class="cls-1" d="M46.28,80.35c.25.15.25.38,0,.52a1,1,0,0,1-.91,0c-.25-.14-.25-.37,0-.52A1,1,0,0,1,46.28,80.35Z"/><path class="cls-1" d="M48.65,79a.28.28,0,0,1,0,.53,1,1,0,0,1-.91,0,.28.28,0,0,1,0-.53A1,1,0,0,1,48.65,79Z"/><path class="cls-1" d="M51,77.61a.28.28,0,0,1,0,.53,1,1,0,0,1-.91,0,.28.28,0,0,1,0-.53A1,1,0,0,1,51,77.61Z"/><path class="cls-1" d="M53.39,76.24a.28.28,0,0,1,0,.53,1,1,0,0,1-.91,0,.28.28,0,0,1,0-.53A1,1,0,0,1,53.39,76.24Z"/><path class="cls-1" d="M55.76,74.88c.25.14.25.37,0,.52a1,1,0,0,1-.91,0c-.25-.15-.25-.38,0-.52A1,1,0,0,1,55.76,74.88Z"/><path class="cls-1" d="M58.13,73.51a.27.27,0,0,1,0,.52,1,1,0,0,1-.9,0c-.26-.14-.26-.38,0-.52A1,1,0,0,1,58.13,73.51Z"/><path class="cls-1" d="M32.05,85.83a.27.27,0,0,1,0,.52,1,1,0,0,1-.91,0,.27.27,0,0,1,0-.52A1,1,0,0,1,32.05,85.83Z"/><path class="cls-1" d="M34.42,84.46a.27.27,0,0,1,0,.52,1,1,0,0,1-.9,0,.27.27,0,0,1,0-.52A1,1,0,0,1,34.42,84.46Z"/><path class="cls-1" d="M36.79,83.09a.27.27,0,0,1,0,.52,1,1,0,0,1-.9,0,.27.27,0,0,1,0-.52A1,1,0,0,1,36.79,83.09Z"/><path class="cls-1" d="M39.16,81.72a.27.27,0,0,1,0,.52,1,1,0,0,1-.9,0,.27.27,0,0,1,0-.52A1,1,0,0,1,39.16,81.72Z"/><path class="cls-1" d="M41.54,80.35c.25.15.25.38,0,.52a1,1,0,0,1-.91,0c-.25-.14-.25-.37,0-.52A1,1,0,0,1,41.54,80.35Z"/><path class="cls-1" d="M43.91,79a.28.28,0,0,1,0,.53,1,1,0,0,1-.91,0A.28.28,0,0,1,43,79,1,1,0,0,1,43.91,79Z"/><path class="cls-1" d="M46.28,77.61a.28.28,0,0,1,0,.53,1,1,0,0,1-.91,0,.28.28,0,0,1,0-.53A1,1,0,0,1,46.28,77.61Z"/><path class="cls-1" d="M48.65,76.24a.28.28,0,0,1,0,.53,1,1,0,0,1-.91,0,.28.28,0,0,1,0-.53A1,1,0,0,1,48.65,76.24Z"/><path class="cls-1" d="M51,74.88c.25.14.25.37,0,.52a1,1,0,0,1-.91,0c-.25-.15-.25-.38,0-.52A1,1,0,0,1,51,74.88Z"/><path class="cls-1" d="M53.39,73.51a.27.27,0,0,1,0,.52,1,1,0,0,1-.91,0,.27.27,0,0,1,0-.52A1,1,0,0,1,53.39,73.51Z"/><ellipse class="cls-1" cx="55.31" cy="72.4" rx="0.64" ry="0.37"/><path class="cls-1" d="M29.68,84.46a.27.27,0,0,1,0,.52,1,1,0,0,1-.91,0,.27.27,0,0,1,0-.52A1,1,0,0,1,29.68,84.46Z"/><path class="cls-1" d="M32.05,83.09a.27.27,0,0,1,0,.52,1,1,0,0,1-.91,0,.27.27,0,0,1,0-.52A1,1,0,0,1,32.05,83.09Z"/><path class="cls-1" d="M34.42,81.72a.27.27,0,0,1,0,.52,1,1,0,0,1-.9,0,.27.27,0,0,1,0-.52A1,1,0,0,1,34.42,81.72Z"/><path class="cls-1" d="M36.79,80.35c.25.15.25.38,0,.52a1,1,0,0,1-.9,0c-.25-.14-.25-.37,0-.52A1,1,0,0,1,36.79,80.35Z"/><path class="cls-1" d="M39.16,79a.28.28,0,0,1,0,.53,1,1,0,0,1-.9,0,.28.28,0,0,1,0-.53A1,1,0,0,1,39.16,79Z"/><path class="cls-1" d="M41.54,77.61a.28.28,0,0,1,0,.53,1,1,0,0,1-.91,0,.28.28,0,0,1,0-.53A1,1,0,0,1,41.54,77.61Z"/><path class="cls-1" d="M43.91,76.24a.28.28,0,0,1,0,.53,1,1,0,0,1-.91,0,.28.28,0,0,1,0-.53A1,1,0,0,1,43.91,76.24Z"/><path class="cls-1" d="M46.28,74.88c.25.14.25.37,0,.52a1,1,0,0,1-.91,0c-.25-.15-.25-.38,0-.52A1,1,0,0,1,46.28,74.88Z"/><path class="cls-1" d="M48.65,73.51a.27.27,0,0,1,0,.52,1,1,0,0,1-.91,0,.27.27,0,0,1,0-.52A1,1,0,0,1,48.65,73.51Z"/><path class="cls-1" d="M51,72.14a.27.27,0,0,1,0,.52,1,1,0,0,1-.91,0,.27.27,0,0,1,0-.52A1,1,0,0,1,51,72.14Z"/><path class="cls-1" d="M53.39,70.77a.27.27,0,0,1,0,.52,1,1,0,0,1-.91,0,.27.27,0,0,1,0-.52A1,1,0,0,1,53.39,70.77Z"/><path class="cls-1" d="M27.29,83.07a.28.28,0,0,1,0,.53,1,1,0,0,1-.91,0,.28.28,0,0,1,0-.53A1,1,0,0,1,27.29,83.07Z"/><ellipse class="cls-1" cx="29.21" cy="81.97" rx="0.64" ry="0.37"/><path class="cls-1" d="M32,80.34a.27.27,0,0,1,0,.52,1,1,0,0,1-.91,0,.27.27,0,0,1,0-.52A1,1,0,0,1,32,80.34Z"/><ellipse class="cls-1" cx="33.95" cy="79.23" rx="0.64" ry="0.37"/><path class="cls-1" d="M36.77,77.6a.27.27,0,0,1,0,.52,1,1,0,0,1-.9,0,.27.27,0,0,1,0-.52A1,1,0,0,1,36.77,77.6Z"/><ellipse class="cls-1" cx="38.69" cy="76.49" rx="0.64" ry="0.37"/><path class="cls-1" d="M41.51,74.86c.26.15.26.38,0,.52a1,1,0,0,1-.9,0c-.25-.14-.25-.37,0-.52A1,1,0,0,1,41.51,74.86Z"/><path class="cls-1" d="M43.89,73.49a.28.28,0,0,1,0,.53A1,1,0,0,1,43,74a.28.28,0,0,1,0-.53A1,1,0,0,1,43.89,73.49Z"/><path class="cls-1" d="M46.26,72.12a.28.28,0,0,1,0,.53,1,1,0,0,1-.91,0,.28.28,0,0,1,0-.53A1,1,0,0,1,46.26,72.12Z"/><path class="cls-1" d="M48.63,70.75a.28.28,0,0,1,0,.53,1,1,0,0,1-.91,0,.28.28,0,0,1,0-.53A1,1,0,0,1,48.63,70.75Z"/><path class="cls-1" d="M51,69.39c.25.14.25.37,0,.52a1,1,0,0,1-.91,0c-.25-.15-.25-.38,0-.52A1,1,0,0,1,51,69.39Z"/><ellipse class="cls-1" cx="24.46" cy="81.97" rx="0.64" ry="0.37"/><path class="cls-1" d="M27.29,80.34a.27.27,0,0,1,0,.52,1,1,0,0,1-.91,0,.27.27,0,0,1,0-.52A1,1,0,0,1,27.29,80.34Z"/><ellipse class="cls-1" cx="29.21" cy="79.23" rx="0.64" ry="0.37"/><path class="cls-1" d="M32,77.6a.27.27,0,0,1,0,.52,1,1,0,0,1-.91,0,.27.27,0,0,1,0-.52A1,1,0,0,1,32,77.6Z"/><ellipse class="cls-1" cx="33.95" cy="76.49" rx="0.64" ry="0.37"/><path class="cls-1" d="M36.77,74.86c.25.15.25.38,0,.52a1,1,0,0,1-.9,0c-.25-.14-.25-.37,0-.52A1,1,0,0,1,36.77,74.86Z"/><path class="cls-1" d="M39.14,73.49a.28.28,0,0,1,0,.53,1,1,0,0,1-.9,0,.28.28,0,0,1,0-.53A1,1,0,0,1,39.14,73.49Z"/><path class="cls-1" d="M41.51,72.12c.26.15.26.38,0,.53a1,1,0,0,1-.9,0,.28.28,0,0,1,0-.53A1,1,0,0,1,41.51,72.12Z"/><ellipse class="cls-1" cx="43.43" cy="71.02" rx="0.64" ry="0.37"/><path class="cls-1" d="M46.26,69.39c.25.14.25.37,0,.52a1,1,0,0,1-.91,0c-.25-.15-.25-.38,0-.52A1,1,0,0,1,46.26,69.39Z"/><path class="cls-1" d="M48.63,68a.27.27,0,0,1,0,.52,1,1,0,0,1-.91,0,.27.27,0,0,1,0-.52A1,1,0,0,1,48.63,68Z"/><path class="cls-1" d="M22.55,80.34a.27.27,0,0,1,0,.52,1,1,0,0,1-.91,0,.27.27,0,0,1,0-.52A1,1,0,0,1,22.55,80.34Z"/><path class="cls-1" d="M24.92,79a.27.27,0,0,1,0,.52,1,1,0,0,1-.91,0A.27.27,0,0,1,24,79,1,1,0,0,1,24.92,79Z"/><path class="cls-1" d="M27.29,77.6a.27.27,0,0,1,0,.52,1,1,0,0,1-.91,0,.27.27,0,0,1,0-.52A1,1,0,0,1,27.29,77.6Z"/><ellipse class="cls-1" cx="29.21" cy="76.49" rx="0.64" ry="0.37"/><path class="cls-1" d="M32,74.86c.25.15.25.38,0,.52a1,1,0,0,1-.91,0c-.25-.14-.25-.37,0-.52A1,1,0,0,1,32,74.86Z"/><path class="cls-1" d="M34.4,73.49a.28.28,0,0,1,0,.53,1,1,0,0,1-.9,0c-.26-.15-.26-.38,0-.53A1,1,0,0,1,34.4,73.49Z"/><path class="cls-1" d="M36.77,72.12a.28.28,0,0,1,0,.53,1,1,0,0,1-.9,0,.28.28,0,0,1,0-.53A1,1,0,0,1,36.77,72.12Z"/><path class="cls-1" d="M39.14,70.75a.28.28,0,0,1,0,.53,1,1,0,0,1-.9,0,.28.28,0,0,1,0-.53A1,1,0,0,1,39.14,70.75Z"/><path class="cls-1" d="M41.51,69.39c.26.14.26.37,0,.52a1,1,0,0,1-.9,0c-.25-.15-.25-.38,0-.52A1,1,0,0,1,41.51,69.39Z"/><path class="cls-1" d="M43.89,68a.27.27,0,0,1,0,.52,1,1,0,0,1-.91,0A.27.27,0,0,1,43,68,1,1,0,0,1,43.89,68Z"/><path class="cls-1" d="M20.18,79a.27.27,0,0,1,0,.52,1,1,0,0,1-.91,0,.27.27,0,0,1,0-.52A1,1,0,0,1,20.18,79Z"/><path class="cls-1" d="M22.55,77.6a.27.27,0,0,1,0,.52,1,1,0,0,1-.91,0,.27.27,0,0,1,0-.52A1,1,0,0,1,22.55,77.6Z"/><path class="cls-1" d="M24.92,76.23a.27.27,0,0,1,0,.52,1,1,0,0,1-.91,0,.27.27,0,0,1,0-.52A1,1,0,0,1,24.92,76.23Z"/><path class="cls-1" d="M27.29,74.86c.25.15.25.38,0,.52a1,1,0,0,1-.91,0c-.25-.14-.25-.37,0-.52A1,1,0,0,1,27.29,74.86Z"/><path class="cls-1" d="M29.66,73.49a.28.28,0,0,1,0,.53,1,1,0,0,1-.91,0,.28.28,0,0,1,0-.53A1,1,0,0,1,29.66,73.49Z"/><path class="cls-1" d="M32,72.12a.28.28,0,0,1,0,.53,1,1,0,0,1-.91,0,.28.28,0,0,1,0-.53A1,1,0,0,1,32,72.12Z"/><path class="cls-1" d="M34.4,70.75a.28.28,0,0,1,0,.53,1,1,0,0,1-.9,0c-.26-.15-.26-.38,0-.53A1,1,0,0,1,34.4,70.75Z"/><ellipse class="cls-1" cx="36.32" cy="69.65" rx="0.64" ry="0.37"/><path class="cls-1" d="M17.8,77.6c.26.14.26.38,0,.52a1,1,0,0,1-.9,0,.27.27,0,0,1,0-.52A1,1,0,0,1,17.8,77.6Z"/><path class="cls-1" d="M20.18,76.23a.27.27,0,0,1,0,.52,1,1,0,0,1-.91,0,.27.27,0,0,1,0-.52A1,1,0,0,1,20.18,76.23Z"/><ellipse class="cls-1" cx="22.09" cy="75.12" rx="0.64" ry="0.37"/><path class="cls-1" d="M24.92,73.49a.28.28,0,0,1,0,.53A1,1,0,0,1,24,74a.28.28,0,0,1,0-.53A1,1,0,0,1,24.92,73.49Z"/><path class="cls-1" d="M27.29,72.12a.28.28,0,0,1,0,.53,1,1,0,0,1-.91,0,.28.28,0,0,1,0-.53A1,1,0,0,1,27.29,72.12Z"/><path class="cls-1" d="M29.66,70.75a.28.28,0,0,1,0,.53,1,1,0,0,1-.91,0,.28.28,0,0,1,0-.53A1,1,0,0,1,29.66,70.75Z"/><ellipse class="cls-1" cx="31.58" cy="69.65" rx="0.64" ry="0.37"/><path class="cls-1" d="M15.43,76.23a.27.27,0,0,1,0,.52,1,1,0,0,1-.9,0,.27.27,0,0,1,0-.52A1,1,0,0,1,15.43,76.23Z"/><path class="cls-1" d="M17.8,74.86c.26.15.26.38,0,.52a1,1,0,0,1-.9,0c-.25-.14-.25-.37,0-.52A1,1,0,0,1,17.8,74.86Z"/><path class="cls-1" d="M20.18,73.49a.28.28,0,0,1,0,.53,1,1,0,0,1-.91,0,.28.28,0,0,1,0-.53A1,1,0,0,1,20.18,73.49Z"/><path class="cls-1" d="M22.55,72.12a.28.28,0,0,1,0,.53,1,1,0,0,1-.91,0,.28.28,0,0,1,0-.53A1,1,0,0,1,22.55,72.12Z"/><path class="cls-1" d="M24.92,70.75a.28.28,0,0,1,0,.53,1,1,0,0,1-.91,0,.28.28,0,0,1,0-.53A1,1,0,0,1,24.92,70.75Z"/><ellipse class="cls-1" cx="26.84" cy="69.65" rx="0.64" ry="0.37"/><path class="cls-1" d="M13.06,74.86c.25.15.25.38,0,.52a1,1,0,0,1-.9,0c-.25-.14-.25-.37,0-.52A1,1,0,0,1,13.06,74.86Z"/><path class="cls-1" d="M15.43,73.49a.28.28,0,0,1,0,.53,1,1,0,0,1-.9,0,.28.28,0,0,1,0-.53A1,1,0,0,1,15.43,73.49Z"/><path class="cls-1" d="M17.81,72.12a.28.28,0,0,1,0,.53,1,1,0,0,1-.91,0,.28.28,0,0,1,0-.53A1,1,0,0,1,17.81,72.12Z"/><path class="cls-1" d="M20.18,70.75a.28.28,0,0,1,0,.53,1,1,0,0,1-.91,0,.28.28,0,0,1,0-.53A1,1,0,0,1,20.18,70.75Z"/><path class="cls-1" d="M22.55,69.39c.25.14.25.37,0,.52a1,1,0,0,1-.91,0c-.25-.15-.25-.38,0-.52A1,1,0,0,1,22.55,69.39Z"/><path class="cls-1" d="M10.69,73.49a.28.28,0,0,1,0,.53,1,1,0,0,1-.9,0c-.26-.15-.26-.38,0-.53A1,1,0,0,1,10.69,73.49Z"/><path class="cls-1" d="M13.06,72.12a.28.28,0,0,1,0,.53,1,1,0,0,1-.9,0,.28.28,0,0,1,0-.53A1,1,0,0,1,13.06,72.12Z"/><path class="cls-1" d="M15.43,70.75a.28.28,0,0,1,0,.53,1,1,0,0,1-.9,0,.28.28,0,0,1,0-.53A1,1,0,0,1,15.43,70.75Z"/><path class="cls-1" d="M17.81,69.39c.25.14.25.37,0,.52a1,1,0,0,1-.91,0c-.25-.15-.25-.38,0-.52A1,1,0,0,1,17.81,69.39Z"/><path class="cls-1" d="M8.3,72.11a.27.27,0,0,1,0,.52,1,1,0,0,1-.91,0,.27.27,0,0,1,0-.52A1,1,0,0,1,8.3,72.11Z"/><path class="cls-1" d="M10.67,70.74a.27.27,0,0,1,0,.52,1,1,0,0,1-.91,0,.27.27,0,0,1,0-.52A1,1,0,0,1,10.67,70.74Z"/><path class="cls-1" d="M13,69.37c.25.15.25.38,0,.52a1,1,0,0,1-.9,0c-.25-.14-.25-.37,0-.52A1,1,0,0,1,13,69.37Z"/><path class="cls-1" d="M15.41,68a.28.28,0,0,1,0,.53,1,1,0,0,1-.9,0,.28.28,0,0,1,0-.53,1,1,0,0,1,.9,0C15.66,68.15,15.16,67.86,15.41,68Z"/><path class="cls-1" d="M5.93,70.74a.27.27,0,0,1,0,.52,1,1,0,0,1-.91,0,.27.27,0,0,1,0-.52A1,1,0,0,1,5.93,70.74Z"/><path class="cls-1" d="M8.3,69.37c.25.15.25.38,0,.52a1,1,0,0,1-.91,0c-.25-.14-.25-.37,0-.52A1,1,0,0,1,8.3,69.37Z"/><path class="cls-1" d="M10.67,68a.28.28,0,0,1,0,.53,1,1,0,0,1-.91,0,.28.28,0,0,1,0-.53A1,1,0,0,1,10.67,68Z"/><path class="cls-1" d="M13,66.63a.28.28,0,0,1,0,.53,1,1,0,0,1-.9,0,.28.28,0,0,1,0-.53,1,1,0,0,1,.9,0C13.29,66.78,12.79,66.49,13,66.63Z"/><path class="cls-1" d="M3.56,69.37c.25.15.25.38,0,.52a1,1,0,0,1-.91,0c-.25-.14-.25-.37,0-.52A1,1,0,0,1,3.56,69.37Z"/><path class="cls-1" d="M5.93,68a.28.28,0,0,1,0,.53,1,1,0,0,1-.91,0A.28.28,0,0,1,5,68,1,1,0,0,1,5.93,68Z"/><path class="cls-1" d="M8.3,66.63a.28.28,0,0,1,0,.53,1,1,0,0,1-.91,0,.28.28,0,0,1,0-.53A1,1,0,0,1,8.3,66.63Z"/><path class="cls-1" d="M10.67,65.79a1,1,0,0,1-.91,0,.28.28,0,0,1,0-.53C10,65.12,10.92,65.64,10.67,65.79Z"/><path class="cls-1" d="M1.19,68a.28.28,0,0,1,0,.53,1,1,0,0,1-.91,0,.28.28,0,0,1,0-.53A1,1,0,0,1,1.19,68Z"/><path class="cls-1" d="M3.56,66.63a.28.28,0,0,1,0,.53,1,1,0,0,1-.91,0,.28.28,0,0,1,0-.53A1,1,0,0,1,3.56,66.63Z"/><path class="cls-1" d="M5.93,65.26a.28.28,0,0,1,0,.53,1,1,0,0,1-.91,0,.28.28,0,0,1,0-.53A1,1,0,0,1,5.93,65.26Z"/><ellipse class="cls-1" cx="64.79" cy="75.13" rx="0.64" ry="0.37"/><ellipse class="cls-1" cx="67.16" cy="73.76" rx="0.64" ry="0.37"/><path class="cls-1" d="M70,72.13a.27.27,0,0,1,0,.52,1,1,0,0,1-.91,0,.27.27,0,0,1,0-.52A1,1,0,0,1,70,72.13Z"/><path class="cls-1" d="M72.36,70.76c.25.15.25.38,0,.52a1,1,0,0,1-.91,0c-.25-.14-.25-.37,0-.52A1,1,0,0,1,72.36,70.76Z"/><path class="cls-1" d="M74.73,69.39a.28.28,0,0,1,0,.53,1,1,0,0,1-.91,0,.28.28,0,0,1,0-.53A1,1,0,0,1,74.73,69.39Z"/><path class="cls-1" d="M77.1,68a.28.28,0,0,1,0,.53,1,1,0,0,1-.91,0,.28.28,0,0,1,0-.53A1,1,0,0,1,77.1,68Z"/><path class="cls-1" d="M79.47,66.65a.28.28,0,0,1,0,.53,1,1,0,0,1-.91,0,.28.28,0,0,1,0-.53A1,1,0,0,1,79.47,66.65Z"/><ellipse class="cls-1" cx="81.39" cy="65.55" rx="0.64" ry="0.37"/><ellipse class="cls-1" cx="83.76" cy="64.18" rx="0.64" ry="0.37"/><path class="cls-1" d="M86.58,62.55a.27.27,0,0,1,0,.52,1,1,0,0,1-.9,0,.27.27,0,0,1,0-.52A1,1,0,0,1,86.58,62.55Z"/><path class="cls-1" d="M89,61.18a.27.27,0,0,1,0,.52,1,1,0,0,1-.9,0,.27.27,0,0,1,0-.52A1,1,0,0,1,89,61.18Z"/><path class="cls-1" d="M91.32,59.81c.26.14.26.38,0,.52a1,1,0,0,1-.9,0,.27.27,0,0,1,0-.52A1,1,0,0,1,91.32,59.81Z"/><path class="cls-1" d="M93.7,58.44c.25.15.25.38,0,.52a1,1,0,0,1-.91,0c-.25-.14-.25-.37,0-.52A1,1,0,0,1,93.7,58.44Z"/><path class="cls-1" d="M62.87,73.5a.27.27,0,0,1,0,.52,1,1,0,0,1-.9,0,.27.27,0,0,1,0-.52A1,1,0,0,1,62.87,73.5Z"/><path class="cls-1" d="M65.24,72.13a.27.27,0,0,1,0,.52,1,1,0,0,1-.9,0,.27.27,0,0,1,0-.52A1,1,0,0,1,65.24,72.13Z"/><ellipse class="cls-1" cx="67.16" cy="71.02" rx="0.64" ry="0.37"/><path class="cls-1" d="M70,69.39a.28.28,0,0,1,0,.53,1,1,0,0,1-.91,0,.28.28,0,0,1,0-.53A1,1,0,0,1,70,69.39Z"/><path class="cls-1" d="M72.36,68a.28.28,0,0,1,0,.53,1,1,0,0,1-.91,0,.28.28,0,0,1,0-.53A1,1,0,0,1,72.36,68Z"/><path class="cls-1" d="M74.73,66.65a.28.28,0,0,1,0,.53,1,1,0,0,1-.91,0,.28.28,0,0,1,0-.53A1,1,0,0,1,74.73,66.65Z"/><path class="cls-1" d="M77.1,65.29c.25.14.25.37,0,.52a1,1,0,0,1-.91,0c-.25-.15-.25-.38,0-.52A1,1,0,0,1,77.1,65.29Z"/><path class="cls-1" d="M79.47,63.92a.27.27,0,0,1,0,.52,1,1,0,0,1-.91,0,.27.27,0,0,1,0-.52A1,1,0,0,1,79.47,63.92Z"/><path class="cls-1" d="M81.84,62.55a.27.27,0,0,1,0,.52,1,1,0,0,1-.91,0,.27.27,0,0,1,0-.52A1,1,0,0,1,81.84,62.55Z"/><ellipse class="cls-1" cx="83.76" cy="61.44" rx="0.64" ry="0.37"/><path class="cls-1" d="M86.58,59.81a.27.27,0,0,1,0,.52,1,1,0,0,1-.9,0,.27.27,0,0,1,0-.52A1,1,0,0,1,86.58,59.81Z"/><path class="cls-1" d="M89,58.44c.25.15.25.38,0,.52a1,1,0,0,1-.9,0c-.25-.14-.25-.37,0-.52A1,1,0,0,1,89,58.44Z"/><path class="cls-1" d="M91.32,57.07c.26.15.26.38,0,.53a1,1,0,0,1-.9,0,.28.28,0,0,1,0-.53,1,1,0,0,1,.9,0Z"/><path class="cls-1" d="M60.5,72.13a.27.27,0,0,1,0,.52,1,1,0,0,1-.91,0,.27.27,0,0,1,0-.52A1,1,0,0,1,60.5,72.13Z"/><path class="cls-1" d="M62.87,70.76c.25.15.25.38,0,.52a1,1,0,0,1-.9,0c-.25-.14-.25-.37,0-.52A1,1,0,0,1,62.87,70.76Z"/><path class="cls-1" d="M65.24,69.39a.28.28,0,0,1,0,.53,1,1,0,0,1-.9,0,.28.28,0,0,1,0-.53A1,1,0,0,1,65.24,69.39Z"/><path class="cls-1" d="M67.61,68c.26.15.26.38,0,.53a1,1,0,0,1-.9,0,.28.28,0,0,1,0-.53A1,1,0,0,1,67.61,68Z"/><path class="cls-1" d="M70,66.65a.28.28,0,0,1,0,.53,1,1,0,0,1-.91,0,.28.28,0,0,1,0-.53A1,1,0,0,1,70,66.65Z"/><path class="cls-1" d="M72.36,65.29c.25.14.25.37,0,.52a1,1,0,0,1-.91,0c-.25-.15-.25-.38,0-.52A1,1,0,0,1,72.36,65.29Z"/><path class="cls-1" d="M74.73,63.92a.27.27,0,0,1,0,.52,1,1,0,0,1-.91,0,.27.27,0,0,1,0-.52A1,1,0,0,1,74.73,63.92Z"/><path class="cls-1" d="M77.1,62.55a.27.27,0,0,1,0,.52,1,1,0,0,1-.91,0,.27.27,0,0,1,0-.52A1,1,0,0,1,77.1,62.55Z"/><path class="cls-1" d="M79.47,61.18a.27.27,0,0,1,0,.52,1,1,0,0,1-.91,0,.27.27,0,0,1,0-.52A1,1,0,0,1,79.47,61.18Z"/><path class="cls-1" d="M81.84,59.81a.27.27,0,0,1,0,.52,1,1,0,0,1-.91,0,.27.27,0,0,1,0-.52A1,1,0,0,1,81.84,59.81Z"/><path class="cls-1" d="M84.21,58.44c.25.15.25.38,0,.52a1,1,0,0,1-.91,0c-.25-.14-.25-.37,0-.52A1,1,0,0,1,84.21,58.44Z"/><path class="cls-1" d="M86.58,57.07a.28.28,0,0,1,0,.53,1,1,0,0,1-.9,0,.28.28,0,0,1,0-.53A1,1,0,0,1,86.58,57.07Z"/><path class="cls-1" d="M89,55.7a.28.28,0,0,1,0,.53,1,1,0,0,1-.9,0,.28.28,0,0,1,0-.53A1,1,0,0,1,89,55.7Z"/><path class="cls-1" d="M58.13,70.76c.25.15.25.38,0,.52a1,1,0,0,1-.91,0c-.25-.14-.25-.37,0-.52A1,1,0,0,1,58.13,70.76Z"/><path class="cls-1" d="M60.5,69.39a.28.28,0,0,1,0,.53,1,1,0,0,1-.91,0,.28.28,0,0,1,0-.53A1,1,0,0,1,60.5,69.39Z"/><path class="cls-1" d="M62.87,68a.28.28,0,0,1,0,.53,1,1,0,0,1-.9,0A.28.28,0,0,1,62,68,1,1,0,0,1,62.87,68Z"/><ellipse class="cls-1" cx="64.79" cy="66.92" rx="0.64" ry="0.37"/><path class="cls-1" d="M67.61,65.29c.26.14.26.37,0,.52a1,1,0,0,1-.9,0c-.25-.15-.25-.38,0-.52A1,1,0,0,1,67.61,65.29Z"/><path class="cls-1" d="M70,63.92a.27.27,0,0,1,0,.52,1,1,0,0,1-.91,0,.27.27,0,0,1,0-.52A1,1,0,0,1,70,63.92Z"/><ellipse class="cls-1" cx="71.9" cy="62.81" rx="0.64" ry="0.37"/><path class="cls-1" d="M74.73,61.18a.27.27,0,0,1,0,.52,1,1,0,0,1-.91,0,.27.27,0,0,1,0-.52A1,1,0,0,1,74.73,61.18Z"/><path class="cls-1" d="M77.1,59.81a.27.27,0,0,1,0,.52,1,1,0,0,1-.91,0,.27.27,0,0,1,0-.52A1,1,0,0,1,77.1,59.81Z"/><path class="cls-1" d="M79.47,58.44c.25.15.25.38,0,.52a1,1,0,0,1-.91,0c-.25-.14-.25-.37,0-.52A1,1,0,0,1,79.47,58.44Z"/><path class="cls-1" d="M81.84,57.07a.28.28,0,0,1,0,.53,1,1,0,0,1-.91,0,.28.28,0,0,1,0-.53A1,1,0,0,1,81.84,57.07Z"/><path class="cls-1" d="M55.76,69.39a.28.28,0,0,1,0,.53,1,1,0,0,1-.91,0,.28.28,0,0,1,0-.53A1,1,0,0,1,55.76,69.39Z"/><path class="cls-1" d="M58.13,68a.28.28,0,0,1,0,.53,1,1,0,0,1-.91,0,.28.28,0,0,1,0-.53A1,1,0,0,1,58.13,68Z"/><path class="cls-1" d="M60.5,66.65a.28.28,0,0,1,0,.53,1,1,0,0,1-.91,0,.28.28,0,0,1,0-.53A1,1,0,0,1,60.5,66.65Z"/><path class="cls-1" d="M62.87,65.29c.25.14.25.37,0,.52a1,1,0,0,1-.9,0c-.25-.15-.25-.38,0-.52A1,1,0,0,1,62.87,65.29Z"/><path class="cls-1" d="M65.24,63.92a.27.27,0,0,1,0,.52,1,1,0,0,1-.9,0,.27.27,0,0,1,0-.52A1,1,0,0,1,65.24,63.92Z"/><path class="cls-1" d="M67.61,62.55c.26.14.26.38,0,.52a1,1,0,0,1-.9,0,.27.27,0,0,1,0-.52A1,1,0,0,1,67.61,62.55Z"/><ellipse class="cls-1" cx="69.53" cy="61.44" rx="0.64" ry="0.37"/><path class="cls-1" d="M72.36,59.81a.27.27,0,0,1,0,.52,1,1,0,0,1-.91,0,.27.27,0,0,1,0-.52A1,1,0,0,1,72.36,59.81Z"/><path class="cls-1" d="M73.82,58.44a1,1,0,0,1,.91,0c.25.15.25.38,0,.52a1,1,0,0,1-.91,0c-.25-.14-.25-.37,0-.52S73.57,58.59,73.82,58.44Z"/><path class="cls-1" d="M53.37,68a.27.27,0,0,1,0,.52,1,1,0,0,1-.91,0,.27.27,0,0,1,0-.52A1,1,0,0,1,53.37,68Z"/><path class="cls-1" d="M55.74,66.64a.27.27,0,0,1,0,.52,1,1,0,0,1-.91,0,.27.27,0,0,1,0-.52A1,1,0,0,1,55.74,66.64Z"/><path class="cls-1" d="M48.67,92.61c.25.14.25.37,0,.52a1,1,0,0,1-.9,0c-.25-.15-.25-.38,0-.52A1,1,0,0,1,48.67,92.61Z"/><ellipse class="cls-1" cx="50.59" cy="91.5" rx="0.64" ry="0.37"/><path class="cls-1" d="M53.42,89.87a.27.27,0,0,1,0,.52,1,1,0,0,1-.91,0,.27.27,0,0,1,0-.52A1,1,0,0,1,53.42,89.87Z"/><path class="cls-1" d="M55.79,88.5a.27.27,0,0,1,0,.52,1,1,0,0,1-.91,0,.27.27,0,0,1,0-.52A1,1,0,0,1,55.79,88.5Z"/><path class="cls-1" d="M58.16,87.13a.27.27,0,0,1,0,.52,1,1,0,0,1-.91,0,.27.27,0,0,1,0-.52A1,1,0,0,1,58.16,87.13Z"/><path class="cls-1" d="M60.53,85.76c.25.15.25.38,0,.52a1,1,0,0,1-.91,0,.28.28,0,0,1,0-.53A1,1,0,0,1,60.53,85.76Z"/><path class="cls-1" d="M62.9,84.39a.28.28,0,0,1,0,.53,1,1,0,0,1-.91,0,.28.28,0,0,1,0-.53A1,1,0,0,1,62.9,84.39Z"/><path class="cls-1" d="M65.27,83a.28.28,0,0,1,0,.53,1,1,0,0,1-.91,0,.28.28,0,0,1,0-.53A1,1,0,0,1,65.27,83Z"/><path class="cls-1" d="M67.64,81.65a.28.28,0,0,1,0,.53,1,1,0,0,1-.91,0,.28.28,0,0,1,0-.53A1,1,0,0,1,67.64,81.65Z"/><path class="cls-1" d="M70,80.29c.25.14.25.37,0,.52a1,1,0,0,1-.9,0c-.25-.15-.25-.38,0-.52A1,1,0,0,1,70,80.29Z"/><path class="cls-1" d="M43.93,92.61c.25.14.25.37,0,.52a1,1,0,0,1-.91,0c-.25-.15-.25-.38,0-.52A1,1,0,0,1,43.93,92.61Z"/><path class="cls-1" d="M46.3,91.24a.27.27,0,0,1,0,.52,1,1,0,0,1-.9,0,.27.27,0,0,1,0-.52A1,1,0,0,1,46.3,91.24Z"/><path class="cls-1" d="M48.67,89.87a.27.27,0,0,1,0,.52,1,1,0,0,1-.9,0,.27.27,0,0,1,0-.52A1,1,0,0,1,48.67,89.87Z"/><path class="cls-1" d="M51,88.5c.26.14.26.38,0,.52a1,1,0,0,1-.9,0,.27.27,0,0,1,0-.52A1,1,0,0,1,51,88.5Z"/><path class="cls-1" d="M53.42,87.13a.27.27,0,0,1,0,.52,1,1,0,0,1-.91,0,.27.27,0,0,1,0-.52A1,1,0,0,1,53.42,87.13Z"/><path class="cls-1" d="M55.79,85.76a.28.28,0,0,1,0,.53,1,1,0,0,1-.91,0,.28.28,0,0,1,0-.53A1,1,0,0,1,55.79,85.76Z"/><path class="cls-1" d="M58.16,84.39a.28.28,0,0,1,0,.53,1,1,0,0,1-.91,0,.28.28,0,0,1,0-.53A1,1,0,0,1,58.16,84.39Z"/><path class="cls-1" d="M60.53,83a.28.28,0,0,1,0,.53,1,1,0,0,1-.91,0,.28.28,0,0,1,0-.53A1,1,0,0,1,60.53,83Z"/><ellipse class="cls-1" cx="62.45" cy="81.92" rx="0.64" ry="0.37"/><path class="cls-1" d="M65.27,80.29c.25.14.25.37,0,.52a1,1,0,0,1-.91,0c-.25-.15-.25-.38,0-.52A1,1,0,0,1,65.27,80.29Z"/><path class="cls-1" d="M67.64,78.92a.27.27,0,0,1,0,.52,1,1,0,0,1-.91,0,.27.27,0,0,1,0-.52A1,1,0,0,1,67.64,78.92Z"/><ellipse class="cls-1" cx="41.11" cy="91.5" rx="0.64" ry="0.37"/><path class="cls-1" d="M43.93,89.87a.27.27,0,0,1,0,.52,1,1,0,0,1-.91,0,.27.27,0,0,1,0-.52A1,1,0,0,1,43.93,89.87Z"/><ellipse class="cls-1" cx="45.85" cy="88.76" rx="0.64" ry="0.37"/><ellipse class="cls-1" cx="48.22" cy="87.39" rx="0.64" ry="0.37"/><path class="cls-1" d="M51,85.76c.26.15.26.38,0,.53a1,1,0,0,1-.9,0,.28.28,0,0,1,0-.53A1,1,0,0,1,51,85.76Z"/><path class="cls-1" d="M53.42,84.39a.28.28,0,0,1,0,.53,1,1,0,0,1-.91,0,.28.28,0,0,1,0-.53A1,1,0,0,1,53.42,84.39Z"/><path class="cls-1" d="M55.79,83a.28.28,0,0,1,0,.53,1,1,0,0,1-.91,0,.28.28,0,0,1,0-.53A1,1,0,0,1,55.79,83Z"/><path class="cls-1" d="M58.16,81.65a.28.28,0,0,1,0,.53,1,1,0,0,1-.91,0,.28.28,0,0,1,0-.53A1,1,0,0,1,58.16,81.65Z"/><path class="cls-1" d="M60.53,80.29c.25.14.25.37,0,.52a1,1,0,0,1-.91,0c-.25-.15-.25-.38,0-.52A1,1,0,0,1,60.53,80.29Z"/><ellipse class="cls-1" cx="62.45" cy="79.18" rx="0.64" ry="0.37"/><path class="cls-1" d="M65.27,77.55a.27.27,0,0,1,0,.52,1,1,0,0,1-.91,0,.27.27,0,0,1,0-.52A1,1,0,0,1,65.27,77.55Z"/><ellipse class="cls-1" cx="71.93" cy="79.17" rx="0.64" ry="0.37"/><ellipse class="cls-1" cx="74.3" cy="77.8" rx="0.64" ry="0.37"/><path class="cls-1" d="M77.12,76.17a.28.28,0,0,1,0,.53,1,1,0,0,1-.9,0,.28.28,0,0,1,0-.53A1,1,0,0,1,77.12,76.17Z"/><path class="cls-1" d="M79.5,74.8a.28.28,0,0,1,0,.53,1,1,0,0,1-.91,0,.28.28,0,0,1,0-.53A1,1,0,0,1,79.5,74.8Z"/><path class="cls-1" d="M81.87,73.43a.28.28,0,0,1,0,.53A1,1,0,0,1,81,74a.28.28,0,0,1,0-.53A1,1,0,0,1,81.87,73.43Z"/><path class="cls-1" d="M84.24,72.06a.28.28,0,0,1,0,.53,1,1,0,0,1-.91,0,.28.28,0,0,1,0-.53A1,1,0,0,1,84.24,72.06Z"/><path class="cls-1" d="M86.61,70.7c.25.14.25.37,0,.52a1,1,0,0,1-.91,0c-.25-.15-.25-.38,0-.52A1,1,0,0,1,86.61,70.7Z"/><path class="cls-1" d="M89,69.33a.27.27,0,0,1,0,.52,1,1,0,0,1-.91,0,.27.27,0,0,1,0-.52A1,1,0,0,1,89,69.33Z"/><path class="cls-1" d="M91.35,68a.27.27,0,0,1,0,.52,1,1,0,0,1-.91,0,.27.27,0,0,1,0-.52A1,1,0,0,1,91.35,68Z"/><ellipse class="cls-1" cx="93.27" cy="66.85" rx="0.64" ry="0.37"/><path class="cls-1" d="M96.09,65.22a.27.27,0,0,1,0,.52,1,1,0,0,1-.9,0c-.26-.14-.26-.38,0-.52A1,1,0,0,1,96.09,65.22Z"/><path class="cls-1" d="M98.46,63.85c.25.15.25.38,0,.52a1,1,0,0,1-.9,0c-.25-.14-.25-.37,0-.52A1,1,0,0,1,98.46,63.85Z"/><path class="cls-1" d="M70,77.54a.27.27,0,0,1,0,.52,1,1,0,0,1-.91,0,.27.27,0,0,1,0-.52A1,1,0,0,1,70,77.54Z"/><path class="cls-1" d="M72.38,76.17a.28.28,0,0,1,0,.53,1,1,0,0,1-.9,0c-.26-.15-.26-.38,0-.53A1,1,0,0,1,72.38,76.17Z"/><path class="cls-1" d="M74.75,74.8a.28.28,0,0,1,0,.53,1,1,0,0,1-.9,0,.28.28,0,0,1,0-.53A1,1,0,0,1,74.75,74.8Z"/><path class="cls-1" d="M77.12,73.43a.28.28,0,0,1,0,.53,1,1,0,0,1-.9,0,.28.28,0,0,1,0-.53A1,1,0,0,1,77.12,73.43Z"/><ellipse class="cls-1" cx="79.04" cy="72.33" rx="0.64" ry="0.37"/><path class="cls-1" d="M81.87,70.7c.25.14.25.37,0,.52a1,1,0,0,1-.91,0c-.25-.15-.25-.38,0-.52A1,1,0,0,1,81.87,70.7Z"/><path class="cls-1" d="M84.24,69.33a.27.27,0,0,1,0,.52,1,1,0,0,1-.91,0,.27.27,0,0,1,0-.52A1,1,0,0,1,84.24,69.33Z"/><path class="cls-1" d="M86.61,68a.27.27,0,0,1,0,.52,1,1,0,0,1-.91,0,.27.27,0,0,1,0-.52A1,1,0,0,1,86.61,68Z"/><ellipse class="cls-1" cx="88.53" cy="66.85" rx="0.64" ry="0.37"/><path class="cls-1" d="M91.35,65.22a.27.27,0,0,1,0,.52,1,1,0,0,1-.91,0,.27.27,0,0,1,0-.52A1,1,0,0,1,91.35,65.22Z"/><path class="cls-1" d="M93.72,63.85a.28.28,0,0,1,0,.53,1,1,0,0,1-.91,0,.28.28,0,0,1,0-.53A1,1,0,0,1,93.72,63.85Z"/><ellipse class="cls-1" cx="95.64" cy="62.74" rx="0.64" ry="0.37"/><path class="cls-1" d="M98.46,61.11a.28.28,0,0,1,0,.53,1,1,0,0,1-.9,0,.28.28,0,0,1,0-.53A1,1,0,0,1,98.46,61.11Z"/><path class="cls-1" d="M67.64,76.17a.28.28,0,0,1,0,.53,1,1,0,0,1-.91,0,.28.28,0,0,1,0-.53A1,1,0,0,1,67.64,76.17Z"/><path class="cls-1" d="M70,74.8a.28.28,0,0,1,0,.53,1,1,0,0,1-.91,0,.28.28,0,0,1,0-.53A1,1,0,0,1,70,74.8Z"/><path class="cls-1" d="M72.38,73.43a.28.28,0,0,1,0,.53,1,1,0,0,1-.9,0c-.26-.15-.26-.38,0-.53A1,1,0,0,1,72.38,73.43Z"/><ellipse class="cls-1" cx="74.3" cy="72.33" rx="0.64" ry="0.37"/><path class="cls-1" d="M77.12,70.7c.25.14.25.37,0,.52a1,1,0,0,1-.9,0c-.25-.15-.25-.38,0-.52A1,1,0,0,1,77.12,70.7Z"/><path class="cls-1" d="M79.5,69.33a.27.27,0,0,1,0,.52,1,1,0,0,1-.91,0,.27.27,0,0,1,0-.52A1,1,0,0,1,79.5,69.33Z"/><path class="cls-1" d="M81.87,68a.27.27,0,0,1,0,.52,1,1,0,0,1-.91,0A.27.27,0,0,1,81,68,1,1,0,0,1,81.87,68Z"/><path class="cls-1" d="M84.24,66.59a.27.27,0,0,1,0,.52,1,1,0,0,1-.91,0,.27.27,0,0,1,0-.52A1,1,0,0,1,84.24,66.59Z"/><ellipse class="cls-1" cx="86.15" cy="65.48" rx="0.64" ry="0.37"/><path class="cls-1" d="M89,63.85a.28.28,0,0,1,0,.53,1,1,0,0,1-.91,0,.28.28,0,0,1,0-.53A1,1,0,0,1,89,63.85Z"/><path class="cls-1" d="M91.35,62.48a.28.28,0,0,1,0,.53,1,1,0,0,1-.91,0,.28.28,0,0,1,0-.53A1,1,0,0,1,91.35,62.48Z"/><path class="cls-1" d="M93.72,61.11a.28.28,0,0,1,0,.53,1,1,0,0,1-.91,0,.28.28,0,0,1,0-.53A1,1,0,0,1,93.72,61.11Z"/><ellipse class="cls-1" cx="95.64" cy="60.01" rx="0.64" ry="0.37"/><path class="cls-2" d="M96.36,54.48V53h-.92l-.19-.12L57.66,31.18a7.12,7.12,0,0,0-6.43.26l-48,27.91a4.19,4.19,0,0,0-.85.64H1.65v3.26a1.94,1.94,0,0,0,1.11,1.58l37.59,21.7a7.15,7.15,0,0,0,6.43-.27l48-27.91a2.68,2.68,0,0,0,1.56-2V54.48Z"/><path class="cls-1" d="M96.35,56.31V53h-.92l-.19-.13-13.94-8a10.84,10.84,0,0,0-2.16.19c-2,.66-33.94,19.24-34.58,22.06S42.73,84,42.73,84v3.14a7.5,7.5,0,0,0,4.05-.89l48-27.91A2.69,2.69,0,0,0,96.35,56.31Z"/><path class="cls-1" d="M43.14,87.5a6.07,6.07,0,0,1-3-.68L2.6,65.11a2.24,2.24,0,0,1-1.28-1.85v-3.6h.92a4.34,4.34,0,0,1,.82-.6l48-27.91a7.52,7.52,0,0,1,6.76-.26l37.58,21.7.13.08h1.15v3.66A3,3,0,0,1,95,58.64l-48,27.91A7.74,7.74,0,0,1,43.14,87.5ZM2,60.32v2.93a1.62,1.62,0,0,0,1,1.29l37.59,21.7A6.78,6.78,0,0,0,46.61,86l48-27.91A2.42,2.42,0,0,0,96,56.31v-3h-.69l-.08,0-.17-.11L57.49,31.46a6.78,6.78,0,0,0-6.09.27l-48,27.91a3.78,3.78,0,0,0-.79.59l-.1.09Z"/><path class="cls-2" d="M40.35,83.37,2.76,61.67c-1.64-1-1.44-2.61.46-3.71l48-27.91a7.12,7.12,0,0,1,6.43-.26l37.59,21.7c1.65.95,1.44,2.61-.46,3.71l-48,27.91A7.15,7.15,0,0,1,40.35,83.37Z"/><path class="cls-1" d="M43.14,84.34a6,6,0,0,1-3-.68L2.6,62a2.23,2.23,0,0,1-1.28-1.9,2.94,2.94,0,0,1,1.74-2.38l48-27.92a7.56,7.56,0,0,1,6.76-.26L95.41,51.2a2.23,2.23,0,0,1,1.28,1.9A2.94,2.94,0,0,1,95,55.48l-48,27.92A7.84,7.84,0,0,1,43.14,84.34ZM54.87,29.47a7.07,7.07,0,0,0-3.47.87l-48,27.91A2.38,2.38,0,0,0,2,60.06a1.61,1.61,0,0,0,1,1.32L40.52,83.09a6.81,6.81,0,0,0,6.09-.27l48-27.91A2.36,2.36,0,0,0,96,53.1a1.63,1.63,0,0,0-1-1.33L57.49,30.07A5.34,5.34,0,0,0,54.87,29.47Z"/><path class="cls-1" d="M43.94,81.26l-.16-.09L7.53,60.24,53.2,33.68l.16.1L89.61,54.7Z"/><polygon class="cls-3" points="44.13 79.16 7.24 57.86 53.82 30.77 90.71 52.07 44.13 79.16"/><path class="cls-1" d="M44.13,79.54l-.16-.1L6.58,57.86,53.82,30.39l.16.1L91.37,52.07ZM7.91,57.86,44.13,78.77l45.92-26.7L53.82,31.16Z"/><path class="cls-1" d="M84.83,39.67v.15l-3.76-2.17a1,1,0,0,1-.2.14c-1.06.61-1.68,1.59-2.74,1S76,38,77,37.34l.25-.11.34-2.84-1.46-.5-.22,2.56-4.16-4.16c-.73-.42-2-.22-2.21.36L69,33.94l-.48,0V37h0a.68.68,0,0,0,.38.49l11.42,6.6a2,2,0,0,0,1.22.2l4.18-.54c.67-.08,1-.43,1-.78V40Z"/><path class="cls-1" d="M81.28,44.66a2.19,2.19,0,0,1-1.1-.27L68.76,37.8a1.37,1.37,0,0,1-.38-.33l-.16.08v-4l.6.06.43-1.06a1.26,1.26,0,0,1,.81-.66,2.43,2.43,0,0,1,1.88.14l.07,0,3.65,3.66.2-2.24,2.13.75v3.5l-.58-.19a1,1,0,0,0-.22.1l-.23.15a5.22,5.22,0,0,0,.6.33c.23.11.48.23.73.37.56.33.92.09,1.6-.42a9.23,9.23,0,0,1,.8-.56.5.5,0,0,0,.12-.08l.18-.13.24.07,3.36,1.94,2.31.34a.23.23,0,0,1,.2.23V43c.05.54-.49,1-1.31,1.11l-4.18.54ZM68.88,37h0a.42.42,0,0,0,.22.25l11.41,6.59a1.67,1.67,0,0,0,1,.16l4.18-.53c.5-.07.76-.29.74-.43V40.24l-1.32-.19,0,.31-4-2.32,0,0a5.69,5.69,0,0,0-.74.51c-.67.5-1.36,1-2.33.47-.24-.14-.47-.25-.68-.36-.56-.27-1-.48-1-.89s.31-.59.6-.76c0,0,.44.26.47.25V34.73l-.88-.42-.26,2.88-4.62-4.63a1.75,1.75,0,0,0-1.3-.07.62.62,0,0,0-.4.29l-.63,1.51-.36,0Z"/><path class="cls-3" d="M86.39,39.46l-5.33-3.08a1,1,0,0,1-.2.14,4.26,4.26,0,0,1-3.84,0,1.17,1.17,0,0,1,0-2.22l.25-.11L71.77,31c-.73-.42-2-.22-2.21.36l-1,2.38c-.11.26,0,.53.35.72l11.42,6.59a2,2,0,0,0,1.22.2l4.18-.53C86.76,40.61,87.13,39.88,86.39,39.46Z"/><path class="cls-1" d="M81.28,41.62a2.19,2.19,0,0,1-1.1-.27L68.76,34.76a.9.9,0,0,1-.49-1.12l1-2.39a1.26,1.26,0,0,1,.81-.66,2.43,2.43,0,0,1,1.88.14l6,3.49-.58.27a1,1,0,0,0-.22.1c-.41.24-.63.53-.63.82a1,1,0,0,0,.63.82,3.92,3.92,0,0,0,3.5,0,.5.5,0,0,0,.12-.08L81,36l.24.07,5.33,3.08a.92.92,0,0,1,.53,1c-.09.47-.59.82-1.3.92l-4.18.53A1.83,1.83,0,0,1,81.28,41.62ZM70.84,31.13a2.18,2.18,0,0,0-.57.08c-.21.08-.36.18-.4.3l-1,2.38c-.06.13.14.26.21.3l11.41,6.59a1.67,1.67,0,0,0,1,.16l4.18-.53c.5-.06.72-.28.74-.4s-.16-.23-.21-.27l-5.15-3,0,0a4.58,4.58,0,0,1-4.17,0,1.67,1.67,0,0,1-1-1.4,1.5,1.5,0,0,1,.7-1.22l-5-2.89A1.65,1.65,0,0,0,70.84,31.13Z"/><path class="cls-3" d="M87,50.06,57.47,33c-.71-.41-.62-1.12.2-1.6l1.83-1.05a3.09,3.09,0,0,1,2.77-.12L91.83,47.29c.71.41.62,1.12-.2,1.6l-1.83,1A3.06,3.06,0,0,1,87,50.06Z"/><path class="cls-1" d="M88.23,50.67a2.86,2.86,0,0,1-1.37-.32L57.3,33.28a1.15,1.15,0,0,1-.64-1,1.46,1.46,0,0,1,.84-1.19l1.83-1.06a3.41,3.41,0,0,1,3.1-.11L92,47a1.14,1.14,0,0,1,.65,1,1.47,1.47,0,0,1-.85,1.2l-1.83,1A3.53,3.53,0,0,1,88.23,50.67Zm-1-.9a2.77,2.77,0,0,0,2.44-.11l1.83-1.06c.32-.18.51-.41.51-.62s-.17-.32-.31-.41L62.1,30.51a2.74,2.74,0,0,0-2.44.12l-1.83,1.05c-.32.19-.51.42-.51.62s.17.32.32.41Z"/><path class="cls-2" d="M77.77,46.13,63,37.59c-.36-.2-.31-.56.1-.8l.91-.52a1.52,1.52,0,0,1,1.39-.06l14.78,8.53c.35.21.31.56-.1.8l-.92.53A1.57,1.57,0,0,1,77.77,46.13Z"/><path class="cls-1" d="M78.37,46.6a1.52,1.52,0,0,1-.77-.19L62.83,37.88a.74.74,0,0,1-.41-.63.87.87,0,0,1,.5-.74l.92-.53a1.82,1.82,0,0,1,1.71-.06l14.78,8.53a.74.74,0,0,1,.41.64.91.91,0,0,1-.51.74l-.91.52A1.85,1.85,0,0,1,78.37,46.6ZM64.79,36.4a1.29,1.29,0,0,0-.62.15l-.91.53c-.14.08-.18.15-.18.17a.21.21,0,0,0,.08.06l14.77,8.53A1.21,1.21,0,0,0,79,45.78l.91-.53c.14-.08.18-.15.18-.16A.21.21,0,0,0,80,45L65.22,36.49A.91.91,0,0,0,64.79,36.4Z"/><path class="cls-1" d="M51.25,53.41a5,5,0,0,0-4.48,0,1.36,1.36,0,0,0,0,2.58,4.92,4.92,0,0,0,4.48,0A1.36,1.36,0,0,0,51.25,53.41Z"/><path class="cls-1" d="M56.12,50.11a15.49,15.49,0,0,0-14.22,0c-2.06,1.19-3.2,2.82-3.2,4.59s1.14,3.41,3.2,4.6a15.48,15.48,0,0,0,14.22,0c2.06-1.19,3.19-2.82,3.19-4.6S58.18,51.3,56.12,50.11Zm-.85,7.72a13.83,13.83,0,0,1-12.53,0c-1.51-.87-2.35-2-2.35-3.13s.84-2.25,2.35-3.13A12.91,12.91,0,0,1,49,50.08a12.85,12.85,0,0,1,6.26,1.49c1.52.88,2.35,2,2.35,3.13S56.79,57,55.27,57.83Z"/><path class="cls-2" d="M51.25,51.71a5,5,0,0,0-4.48,0c-1.24.72-1.24,1.87,0,2.59a5,5,0,0,0,4.48,0A1.37,1.37,0,0,0,51.25,51.71Z"/><path class="cls-2" d="M56.12,48.41a15.52,15.52,0,0,0-14.22,0c-2.06,1.19-3.2,2.82-3.2,4.6s1.14,3.4,3.2,4.59a15.48,15.48,0,0,0,14.22,0c2.06-1.19,3.19-2.82,3.19-4.59S58.18,49.6,56.12,48.41Zm-.85,7.73a13.9,13.9,0,0,1-12.53,0c-1.51-.88-2.35-2-2.35-3.13s.84-2.26,2.35-3.13A12.81,12.81,0,0,1,49,48.38a12.74,12.74,0,0,1,6.26,1.5c1.52.87,2.35,2,2.35,3.13S56.79,55.26,55.27,56.14Z"/><path class="cls-2" d="M47.68,1.4C41,4.48,35,13.8,34.44,22.41c-.23,3.45.45,6.24,1.81,8.14l9.62,18.24,4.61,2.26c.41-.94,7.15-33,7.45-34h0c.73-2.25,5.65-3.66,5.69-5.86C63.75,3.21,54.19-1.6,47.68,1.4ZM46.83,22c-2.63,1.31-4.65-.3-4.48-3.57s2.39-6.82,5-8,4.5.33,4.4,3.48S49.43,20.66,46.83,22Z"/><path class="cls-3" d="M48.51,3c-6.68,3.08-12.67,12.4-13.24,21a16.11,16.11,0,0,0,.28,4.43c7.62,4.58,13.33,4.31,19.28,8.37,1.86-8.61,3.78-17.62,3.94-18.12.72-2.25,4.41-3.94,4.45-6.14A10.39,10.39,0,0,0,48.51,3ZM47.66,23.6C45,24.92,43,23.31,43.18,20s2.39-6.82,5-8,4.5.33,4.4,3.47S50.27,22.3,47.66,23.6Z"/><path class="cls-1" d="M50.73,51.73l-5.24-2.55L45.42,49,35.8,30.78c-1.44-2-2.1-4.93-1.87-8.4C34.5,13.73,40.57,4.12,47.46.94h0A12.29,12.29,0,0,1,59,2.13a10.58,10.58,0,0,1,5.1,9.11c0,1.42-1.54,2.46-3,3.46-1.18.81-2.4,1.65-2.69,2.55-.12.38-1.38,6.23-2.71,12.43-2.63,12.27-4.52,21-4.77,21.57Zm-4.49-3.32,3.92,1.91c.62-2.49,2.87-13,4.56-20.86,1.61-7.5,2.6-12.12,2.73-12.52.4-1.23,1.76-2.17,3.09-3.07s2.55-1.75,2.57-2.64A9.64,9.64,0,0,0,58.47,3,11.29,11.29,0,0,0,47.89,1.86h0C41.3,4.9,35.49,14.13,35,22.45a12,12,0,0,0,1.71,7.8ZM45.08,22.93a2.91,2.91,0,0,1-1.63-.48c-1.12-.72-1.7-2.21-1.61-4.08.18-3.44,2.48-7.16,5.25-8.48a3.48,3.48,0,0,1,3.51,0,4.31,4.31,0,0,1,1.62,3.93c-.11,3.37-2.42,7.22-5.16,8.59h0A4.48,4.48,0,0,1,45.08,22.93ZM49,10.44a3.35,3.35,0,0,0-1.43.36C45.11,12,43,15.37,42.86,18.42A3.44,3.44,0,0,0,44,21.6a2.58,2.58,0,0,0,2.6-.09c2.44-1.22,4.51-4.68,4.6-7.71a3.37,3.37,0,0,0-1.15-3.05A1.93,1.93,0,0,0,49,10.44Z"/><path class="cls-1" d="M63.72,12.61c.14-8-4.92-12-11.43-9-6.68,3.08-12.67,12.4-13.24,21-.22,3.44.46,6.23,1.81,8.13l9.62,18.25,11-28.84c.41-.94.78-1.9,1.09-2.86h0A23.36,23.36,0,0,0,63.72,12.61Z"/><path class="cls-1" d="M50.73,51.73l-.62-.29L40.41,33c-1.44-2-2.09-4.94-1.86-8.41C39.12,16,45.19,6.37,52.08,3.19c3.08-1.42,6-1.39,8.26.07,2.58,1.68,4,5,3.89,9.36h0A24,24,0,0,1,63,19.5a26.35,26.35,0,0,1-1.11,2.91ZM56.45,3.16a9.61,9.61,0,0,0-4,1c-6.59,3-12.39,12.27-12.94,20.59-.21,3.23.38,5.93,1.71,7.81L50.4,49.82,61,22a27.45,27.45,0,0,0,1.08-2.84,23.06,23.06,0,0,0,1.16-6.59c.06-3.93-1.19-7-3.44-8.49A6,6,0,0,0,56.45,3.16Z"/><path class="cls-2" d="M50.86,30.48,46,27.15c-.69-.46-.64-1.84.11-3.06h0c.75-1.23,1.91-1.84,2.6-1.37l2.46,1.68,4.56-9.26c.64-1.28,1.8-2.08,2.59-1.79h0c.78.28.9,1.55.26,2.83L51.72,30C51.5,30.4,51.1,30.64,50.86,30.48Z"/></g></g></g></svg>