<svg xmlns="http://www.w3.org/2000/svg" viewBox="0 0 133.97 154.4"><defs><style>.cls-1{fill:#150035;}.cls-2{fill:#fff;}.cls-3{fill:#ffb000;}</style></defs><g id="Layer_2" data-name="Layer 2"><g id="content"><path class="cls-1" d="M2.65,81.35l-1,.6a.48.48,0,0,1-.42,0l-1-.56c-.12-.07-.14-.18,0-.24l1-.59a.43.43,0,0,1,.41,0l1,.56C2.74,81.19,2.75,81.29,2.65,81.35Z"/><path class="cls-1" d="M5.05,82.74l-1,.6a.48.48,0,0,1-.42,0l-1-.56c-.12-.07-.13-.18,0-.24l1-.6a.48.48,0,0,1,.42,0l1,.56C5.14,82.57,5.15,82.68,5.05,82.74Z"/><path class="cls-1" d="M2.52,84.2l-1,.6a.48.48,0,0,1-.42,0l-1-.56C0,84.15,0,84,.07,84l1-.6a.48.48,0,0,1,.42,0l1,.56C2.61,84,2.62,84.14,2.52,84.2Z"/><path class="cls-1" d="M2.71,78.51l-1,.59a.46.46,0,0,1-.41,0l-1-.56c-.12-.07-.13-.17,0-.24l1-.59a.46.46,0,0,1,.41,0l1,.56C2.8,78.34,2.82,78.44,2.71,78.51Z"/><path class="cls-1" d="M7.45,84.13l-1,.59a.46.46,0,0,1-.41,0l-1-.56c-.12-.07-.13-.17,0-.24l1-.59a.48.48,0,0,1,.42,0l1,.56C7.54,84,7.56,84.06,7.45,84.13Z"/><path class="cls-1" d="M4.92,85.59l-1,.59a.46.46,0,0,1-.41,0l-1-.57c-.12-.07-.13-.17,0-.23l1-.6a.48.48,0,0,1,.42,0l1,.56C5,85.42,5,85.53,4.92,85.59Z"/><path class="cls-1" d="M5.11,79.93l-1,.6a.46.46,0,0,1-.41,0L2.7,80c-.13-.07-.14-.18,0-.24l1-.6a.46.46,0,0,1,.41,0l1,.56C5.21,79.76,5.22,79.87,5.11,79.93Z"/><path class="cls-1" d="M10,85.59l-1,.6a.46.46,0,0,1-.41,0l-1-.56c-.12-.07-.13-.18,0-.24l1-.59a.43.43,0,0,1,.41,0l1,.56C10.08,85.43,10.1,85.53,10,85.59Z"/><path class="cls-1" d="M7.46,87.05l-1,.6a.46.46,0,0,1-.41,0l-1-.56c-.12-.07-.13-.18,0-.24l1-.59a.46.46,0,0,1,.41,0l1,.57C7.55,86.89,7.57,87,7.46,87.05Z"/><path class="cls-1" d="M12.52,84.13l-1,.6a.46.46,0,0,1-.41,0l-1-.56c-.12-.07-.13-.18,0-.24l1-.59a.43.43,0,0,1,.41,0l1,.56C12.61,84,12.63,84.07,12.52,84.13Z"/><path class="cls-1" d="M15.05,82.67l-1,.6a.46.46,0,0,1-.41,0l-1-.56c-.12-.07-.13-.18,0-.24l1-.6a.46.46,0,0,1,.41,0l1,.56C15.14,82.5,15.16,82.61,15.05,82.67Z"/><path class="cls-1" d="M12.39,87l-1,.6a.46.46,0,0,1-.41,0L10,87c-.13-.07-.14-.18,0-.24l1-.6a.46.46,0,0,1,.41,0l1,.56C12.49,86.81,12.5,86.92,12.39,87Z"/><path class="cls-1" d="M14.92,85.52l-1,.59a.43.43,0,0,1-.41,0l-1-.56c-.13-.07-.14-.18,0-.24l1-.6a.46.46,0,0,1,.41,0l1,.56C15,85.35,15,85.46,14.92,85.52Z"/><path class="cls-1" d="M32.52,123l-1,.6a.46.46,0,0,1-.41,0l-1-.56c-.12-.07-.14-.18,0-.24l1-.6a.46.46,0,0,1,.41,0l1,.56C32.61,122.83,32.62,122.94,32.52,123Z"/><path class="cls-1" d="M34.92,124.39l-1,.59a.48.48,0,0,1-.42,0l-1-.56c-.12-.07-.14-.17,0-.24l1-.59a.48.48,0,0,1,.42,0l1,.56C35,124.22,35,124.32,34.92,124.39Z"/><path class="cls-1" d="M32.39,125.85l-1,.59a.48.48,0,0,1-.42,0l-1-.57c-.12-.07-.14-.17,0-.23l1-.6a.48.48,0,0,1,.42,0l1,.56C32.48,125.68,32.49,125.79,32.39,125.85Z"/><path class="cls-1" d="M37.46,125.85l-1,.6a.48.48,0,0,1-.42,0l-1-.56c-.12-.07-.13-.18,0-.24l1-.59a.45.45,0,0,1,.42,0l1,.56C37.55,125.69,37.56,125.79,37.46,125.85Z"/><path class="cls-1" d="M34.93,127.31l-1,.6a.48.48,0,0,1-.42,0l-1-.56c-.12-.07-.13-.18,0-.24l1-.59a.48.48,0,0,1,.42,0l1,.57C35,127.15,35,127.25,34.93,127.31Z"/><path class="cls-1" d="M39.86,127.24l-1,.6a.46.46,0,0,1-.41,0l-1-.56c-.12-.07-.13-.18,0-.24l1-.6a.48.48,0,0,1,.42,0l1,.56C40,127.07,40,127.18,39.86,127.24Z"/><path class="cls-1" d="M37.33,128.7l-1,.6a.46.46,0,0,1-.41,0l-1-.56c-.12-.07-.13-.18,0-.24l1-.6a.48.48,0,0,1,.42,0l1,.56C37.42,128.53,37.44,128.64,37.33,128.7Z"/><path class="cls-1" d="M42.26,128.63l-1,.59a.46.46,0,0,1-.41,0l-1-.56c-.12-.07-.13-.17,0-.24l1-.59a.46.46,0,0,1,.41,0l1,.56C42.35,128.46,42.37,128.56,42.26,128.63Z"/><path class="cls-1" d="M39.73,130.09l-1,.59a.46.46,0,0,1-.41,0l-1-.57c-.12-.07-.13-.17,0-.23l1-.6a.46.46,0,0,1,.41,0l1,.56C39.82,129.92,39.84,130,39.73,130.09Z"/><path class="cls-1" d="M44.8,130.09l-1,.6a.46.46,0,0,1-.41,0l-1-.56c-.13-.07-.14-.18,0-.24l1-.59a.43.43,0,0,1,.41,0l1,.56C44.9,129.93,44.91,130,44.8,130.09Z"/><path class="cls-1" d="M42.27,131.55l-1,.6a.46.46,0,0,1-.41,0l-1-.56c-.13-.07-.14-.18,0-.24l1-.59a.46.46,0,0,1,.41,0l1,.57C42.36,131.39,42.38,131.49,42.27,131.55Z"/><path class="cls-1" d="M47.2,131.48l-1,.6a.46.46,0,0,1-.41,0l-1-.56c-.13-.07-.14-.18,0-.24l1-.6a.46.46,0,0,1,.41,0l1,.56C47.3,131.31,47.31,131.42,47.2,131.48Z"/><path class="cls-1" d="M44.67,132.94l-1,.6a.46.46,0,0,1-.41,0l-1-.56c-.13-.07-.14-.18,0-.24l1-.6a.46.46,0,0,1,.41,0l1,.56C44.77,132.77,44.78,132.88,44.67,132.94Z"/><path class="cls-1" d="M49.61,132.87l-1,.59a.46.46,0,0,1-.41,0l-1-.56c-.12-.07-.14-.17,0-.24l1-.59a.46.46,0,0,1,.41,0l1,.56C49.7,132.7,49.71,132.8,49.61,132.87Z"/><path class="cls-1" d="M47.08,134.33l-1,.59a.46.46,0,0,1-.41,0l-1-.57c-.12-.07-.14-.17,0-.23l1-.6a.46.46,0,0,1,.41,0l1,.56C47.17,134.16,47.18,134.27,47.08,134.33Z"/><path class="cls-1" d="M52.15,134.33l-1,.6a.46.46,0,0,1-.41,0l-1-.56c-.12-.07-.14-.18,0-.24l1-.59a.43.43,0,0,1,.41,0l1,.56C52.24,134.17,52.25,134.27,52.15,134.33Z"/><path class="cls-1" d="M49.62,135.79l-1,.6a.46.46,0,0,1-.41,0l-1-.56c-.12-.07-.14-.18,0-.24l1-.59a.46.46,0,0,1,.41,0l1,.57C49.71,135.63,49.72,135.73,49.62,135.79Z"/><path class="cls-1" d="M54.55,135.72l-1,.6a.48.48,0,0,1-.42,0l-1-.56c-.12-.07-.14-.18,0-.24l1-.6a.48.48,0,0,1,.42,0l1,.56C54.64,135.55,54.65,135.66,54.55,135.72Z"/><path class="cls-1" d="M52,137.18l-1,.6a.48.48,0,0,1-.42,0l-1-.56c-.12-.07-.14-.18,0-.24l1-.6a.48.48,0,0,1,.42,0l1,.56C52.11,137,52.12,137.12,52,137.18Z"/><path class="cls-1" d="M54.42,138.57l-1,.59a.48.48,0,0,1-.42,0l-1-.57c-.12-.07-.13-.17,0-.23l1-.6a.48.48,0,0,1,.42,0l1,.56C54.51,138.4,54.52,138.51,54.42,138.57Z"/><path class="cls-1" d="M64.3,144.27l-1,.6a.46.46,0,0,1-.41,0l-1-.56c-.13-.07-.14-.18,0-.24l1-.59a.46.46,0,0,1,.41,0l1,.57C64.4,144.11,64.41,144.21,64.3,144.27Z"/><path class="cls-1" d="M56.42,148.06l-1,.6a.46.46,0,0,1-.41,0l-1-.56c-.13-.07-.14-.18,0-.24l1-.59a.46.46,0,0,1,.41,0l1,.57C56.52,147.9,56.53,148,56.42,148.06Z"/><path class="cls-1" d="M58.82,149.45l-1,.6a.46.46,0,0,1-.41,0l-1-.56c-.13-.07-.14-.18,0-.24l1-.6a.46.46,0,0,1,.41,0l1,.56C58.92,149.28,58.93,149.39,58.82,149.45Z"/><path class="cls-1" d="M56.29,150.91l-1,.6a.46.46,0,0,1-.41,0l-1-.56c-.13-.07-.14-.18,0-.24l1-.6a.46.46,0,0,1,.41,0l1,.56C56.39,150.74,56.4,150.85,56.29,150.91Z"/><path class="cls-1" d="M61.23,150.84l-1,.59a.46.46,0,0,1-.41,0l-1-.57c-.12-.07-.14-.17,0-.23l1-.6a.46.46,0,0,1,.41,0l1,.56C61.32,150.67,61.33,150.78,61.23,150.84Z"/><path class="cls-1" d="M58.7,152.3l-1,.59a.43.43,0,0,1-.41,0l-1-.56c-.12-.08-.14-.18,0-.24l1-.6a.46.46,0,0,1,.41,0l1,.56C58.79,152.13,58.8,152.24,58.7,152.3Z"/><path class="cls-1" d="M63.77,152.3l-1,.6a.46.46,0,0,1-.41,0l-1-.56c-.12-.07-.14-.18,0-.24l1-.59a.46.46,0,0,1,.41,0l1,.57C63.86,152.14,63.87,152.24,63.77,152.3Z"/><path class="cls-1" d="M61.24,153.77l-1,.59a.46.46,0,0,1-.41,0l-1-.56c-.12-.07-.14-.17,0-.24l1-.59a.46.46,0,0,1,.41,0l1,.56C61.33,153.6,61.34,153.7,61.24,153.77Z"/><path class="cls-1" d="M66.3,150.84l-1,.6a.46.46,0,0,1-.41,0l-1-.56c-.12-.07-.14-.18,0-.24l1-.59a.46.46,0,0,1,.41,0l1,.57C66.39,150.68,66.4,150.78,66.3,150.84Z"/><path class="cls-1" d="M68.83,149.38l-1,.6a.46.46,0,0,1-.41,0l-1-.56c-.12-.07-.14-.18,0-.24l1-.59a.46.46,0,0,1,.41,0l1,.57C68.92,149.22,68.93,149.32,68.83,149.38Z"/><path class="cls-1" d="M71.36,147.92l-1,.6a.46.46,0,0,1-.41,0l-1-.56c-.12-.07-.14-.18,0-.24l1-.59a.43.43,0,0,1,.41,0l1,.56C71.45,147.75,71.46,147.86,71.36,147.92Z"/><path class="cls-1" d="M66.17,153.69l-1,.6a.48.48,0,0,1-.42,0l-1-.56c-.12-.07-.13-.18,0-.24l1-.6a.48.48,0,0,1,.42,0l1,.56C66.26,153.52,66.27,153.63,66.17,153.69Z"/><path class="cls-1" d="M68.7,152.23l-1,.6a.48.48,0,0,1-.42,0l-1-.56c-.12-.07-.13-.18,0-.24l1-.6a.48.48,0,0,1,.42,0l1,.56C68.79,152.06,68.8,152.17,68.7,152.23Z"/><path class="cls-1" d="M71.23,150.77l-1,.6a.48.48,0,0,1-.42,0l-1-.56c-.12-.07-.13-.18,0-.24l1-.6a.48.48,0,0,1,.42,0l1,.56C71.32,150.6,71.33,150.71,71.23,150.77Z"/><path class="cls-1" d="M14.86,124.51l-1,.6a.46.46,0,0,1-.41,0l-1-.56c-.13-.07-.14-.18,0-.24l1-.59a.43.43,0,0,1,.41,0l1,.56C15,124.34,15,124.45,14.86,124.51Z"/><path class="cls-1" d="M17.26,125.9l-1,.59a.43.43,0,0,1-.41,0l-1-.56c-.12-.07-.14-.18,0-.24l1-.6a.46.46,0,0,1,.41,0l1,.56C17.36,125.73,17.37,125.84,17.26,125.9Z"/><path class="cls-1" d="M14.73,127.36l-1,.6a.46.46,0,0,1-.41,0l-1-.56c-.12-.07-.14-.18,0-.24l1-.6a.46.46,0,0,1,.41,0l1,.56C14.83,127.19,14.84,127.3,14.73,127.36Z"/><path class="cls-1" d="M19.67,127.29l-1,.59a.46.46,0,0,1-.41,0l-1-.56c-.12-.07-.14-.17,0-.24l1-.59a.43.43,0,0,1,.41,0l1,.56C19.76,127.12,19.77,127.22,19.67,127.29Z"/><path class="cls-1" d="M17.14,128.75l-1,.59a.43.43,0,0,1-.41,0l-1-.56c-.12-.07-.14-.17,0-.24l1-.59a.46.46,0,0,1,.41,0l1,.56C17.23,128.58,17.24,128.68,17.14,128.75Z"/><path class="cls-1" d="M22.21,128.75l-1,.6a.48.48,0,0,1-.42,0l-1-.56c-.12-.07-.14-.18,0-.24l1-.59a.45.45,0,0,1,.42,0l1,.56C22.3,128.58,22.31,128.69,22.21,128.75Z"/><path class="cls-1" d="M19.68,130.21l-1,.6a.48.48,0,0,1-.42,0l-1-.56c-.12-.07-.14-.18,0-.24l1-.59a.48.48,0,0,1,.42,0l1,.56C19.77,130.05,19.78,130.15,19.68,130.21Z"/><path class="cls-1" d="M24.74,127.29l-1,.6a.48.48,0,0,1-.42,0l-1-.56c-.12-.07-.14-.18,0-.24l1-.6a.48.48,0,0,1,.42,0l1,.56C24.83,127.12,24.84,127.23,24.74,127.29Z"/><path class="cls-1" d="M27.27,125.83l-1,.6a.48.48,0,0,1-.42,0l-1-.56c-.12-.07-.14-.18,0-.24l1-.6a.48.48,0,0,1,.42,0l1,.56C27.36,125.66,27.37,125.77,27.27,125.83Z"/><path class="cls-1" d="M29.8,124.37l-1,.6a.48.48,0,0,1-.42,0l-1-.56c-.12-.07-.14-.18,0-.24l1-.6a.48.48,0,0,1,.42,0l1,.56C29.89,124.2,29.9,124.31,29.8,124.37Z"/><path class="cls-1" d="M24.61,130.14l-1,.59a.45.45,0,0,1-.42,0l-1-.56c-.12-.07-.13-.18,0-.24l1-.6a.48.48,0,0,1,.42,0l1,.56C24.7,130,24.71,130.08,24.61,130.14Z"/><path class="cls-1" d="M27.14,128.68l-1,.59a.45.45,0,0,1-.42,0l-1-.56c-.12-.08-.13-.18,0-.24l1-.6a.48.48,0,0,1,.42,0l1,.56C27.23,128.51,27.24,128.62,27.14,128.68Z"/><path class="cls-1" d="M29.67,127.22l-1,.59a.48.48,0,0,1-.42,0l-1-.57c-.12-.07-.13-.17,0-.23l1-.6a.48.48,0,0,1,.42,0l1,.56C29.76,127.05,29.77,127.16,29.67,127.22Z"/><path class="cls-1" d="M113.09,115.8l-1,.6a.46.46,0,0,1-.41,0l-1-.56c-.12-.07-.14-.18,0-.24l1-.59a.46.46,0,0,1,.41,0l1,.56C113.18,115.64,113.19,115.74,113.09,115.8Z"/><path class="cls-1" d="M115.49,117.19l-1,.6a.48.48,0,0,1-.42,0l-1-.56c-.12-.07-.14-.18,0-.24l1-.6a.46.46,0,0,1,.41,0l1,.56C115.58,117,115.59,117.13,115.49,117.19Z"/><path class="cls-1" d="M113,118.65l-1,.6a.48.48,0,0,1-.42,0l-1-.56c-.12-.07-.14-.18,0-.24l1-.6a.46.46,0,0,1,.41,0l1,.56C113.05,118.48,113.06,118.59,113,118.65Z"/><path class="cls-1" d="M117.89,118.58l-1,.59a.45.45,0,0,1-.42,0l-1-.56c-.12-.07-.13-.17,0-.24l1-.59a.48.48,0,0,1,.42,0l1,.56C118,118.41,118,118.52,117.89,118.58Z"/><path class="cls-1" d="M115.36,120l-1,.59a.48.48,0,0,1-.42,0l-1-.57c-.12-.07-.13-.17,0-.23l1-.6a.48.48,0,0,1,.42,0l1,.56C115.45,119.87,115.46,120,115.36,120Z"/><path class="cls-1" d="M120.43,120l-1,.6a.48.48,0,0,1-.42,0l-1-.56c-.12-.07-.13-.18,0-.24l1-.59a.48.48,0,0,1,.42,0l1,.56C120.52,119.88,120.54,120,120.43,120Z"/><path class="cls-1" d="M117.9,121.5l-1,.6a.48.48,0,0,1-.42,0l-1-.56c-.12-.07-.13-.18,0-.24l1-.59a.48.48,0,0,1,.42,0l1,.57C118,121.34,118,121.44,117.9,121.5Z"/><path class="cls-1" d="M123,118.58l-1,.6a.48.48,0,0,1-.42,0l-1-.56c-.12-.07-.13-.18,0-.24l1-.59a.45.45,0,0,1,.42,0l1,.56C123.05,118.41,123.07,118.52,123,118.58Z"/><path class="cls-1" d="M125.49,117.12l-1,.6a.48.48,0,0,1-.42,0l-1-.56c-.12-.07-.13-.18,0-.24l1-.6a.48.48,0,0,1,.42,0l1,.56C125.58,117,125.6,117.06,125.49,117.12Z"/><path class="cls-1" d="M128,115.66l-1,.6a.46.46,0,0,1-.41,0l-1-.56c-.12-.07-.13-.18,0-.24l1-.6a.48.48,0,0,1,.42,0l1,.56C128.11,115.49,128.13,115.6,128,115.66Z"/><path class="cls-1" d="M122.83,121.43l-1,.6a.46.46,0,0,1-.41,0l-1-.56c-.12-.07-.13-.18,0-.24l1-.6a.46.46,0,0,1,.41,0l1,.56C122.92,121.26,122.94,121.37,122.83,121.43Z"/><path class="cls-1" d="M125.36,120l-1,.59a.43.43,0,0,1-.41,0l-1-.56c-.12-.07-.13-.18,0-.24l1-.6a.46.46,0,0,1,.41,0l1,.56C125.45,119.8,125.47,119.91,125.36,120Z"/><path class="cls-1" d="M127.89,118.51l-1,.59a.43.43,0,0,1-.41,0l-1-.56c-.12-.08-.13-.18,0-.24l1-.6a.46.46,0,0,1,.41,0l1,.56C128,118.34,128,118.45,127.89,118.51Z"/><path class="cls-1" d="M99.53,103.27l-1,.59a.48.48,0,0,1-.42,0l-1-.57c-.12-.07-.13-.17,0-.23l1-.6a.48.48,0,0,1,.42,0l1,.56C99.62,103.1,99.63,103.21,99.53,103.27Z"/><path class="cls-1" d="M101.93,104.65l-1,.6a.48.48,0,0,1-.42,0l-1-.56c-.12-.07-.13-.18,0-.24l1-.59a.48.48,0,0,1,.42,0l1,.57C102,104.49,102,104.59,101.93,104.65Z"/><path class="cls-1" d="M99.4,106.11l-1,.6a.48.48,0,0,1-.42,0l-1-.56c-.12-.07-.13-.18,0-.24l1-.59a.48.48,0,0,1,.42,0l1,.57C99.49,106,99.51,106.05,99.4,106.11Z"/><path class="cls-1" d="M104.33,106l-1,.6a.46.46,0,0,1-.41,0l-1-.56c-.12-.07-.13-.18,0-.24l1-.6a.46.46,0,0,1,.41,0l1,.56C104.42,105.87,104.44,106,104.33,106Z"/><path class="cls-1" d="M101.8,107.5l-1,.6a.46.46,0,0,1-.41,0l-1-.56c-.12-.07-.13-.18,0-.24l1-.6a.46.46,0,0,1,.41,0l1,.56C101.89,107.33,101.91,107.44,101.8,107.5Z"/><path class="cls-1" d="M106.87,107.51l-1,.59a.46.46,0,0,1-.41,0l-1-.57c-.12-.07-.13-.17,0-.23l1-.6a.46.46,0,0,1,.41,0l1,.56C107,107.34,107,107.45,106.87,107.51Z"/><path class="cls-1" d="M104.34,109l-1,.59a.46.46,0,0,1-.41,0l-1-.57c-.12-.07-.13-.17,0-.23l1-.6a.46.46,0,0,1,.41,0l1,.56C104.43,108.8,104.45,108.91,104.34,109Z"/><path class="cls-1" d="M109.4,106.05l-1,.59a.46.46,0,0,1-.41,0l-1-.57c-.12-.07-.13-.17,0-.23l1-.6a.46.46,0,0,1,.41,0l1,.56C109.49,105.88,109.51,106,109.4,106.05Z"/><path class="cls-1" d="M111.93,104.59l-1,.59a.46.46,0,0,1-.41,0l-1-.56c-.12-.07-.13-.17,0-.24l1-.59a.46.46,0,0,1,.41,0l1,.56C112,104.42,112,104.52,111.93,104.59Z"/><path class="cls-1" d="M109.27,108.89l-1,.6a.46.46,0,0,1-.41,0l-1-.56c-.13-.07-.14-.18,0-.24l1-.59a.46.46,0,0,1,.41,0l1,.57C109.37,108.73,109.38,108.83,109.27,108.89Z"/><path class="cls-1" d="M111.8,107.43l-1,.6a.46.46,0,0,1-.41,0l-1-.56c-.13-.07-.14-.18,0-.24l1-.59a.43.43,0,0,1,.41,0l1,.56C111.9,107.27,111.91,107.37,111.8,107.43Z"/><path class="cls-1" d="M74.23,117.87l-1,.6a.48.48,0,0,1-.42,0l-1-.56c-.12-.07-.14-.18,0-.24l1-.59a.48.48,0,0,1,.42,0l1,.57C74.32,117.71,74.33,117.81,74.23,117.87Z"/><path class="cls-1" d="M76.76,116.41l-1,.6a.48.48,0,0,1-.42,0l-1-.56c-.12-.07-.13-.18,0-.24l1-.59a.48.48,0,0,1,.42,0l1,.57C76.85,116.25,76.86,116.35,76.76,116.41Z"/><path class="cls-1" d="M79.29,115l-1,.6a.48.48,0,0,1-.42,0l-1-.56c-.12-.07-.13-.18,0-.24l1-.59a.45.45,0,0,1,.42,0l1,.56C79.38,114.79,79.39,114.89,79.29,115Z"/><path class="cls-1" d="M81.82,113.49l-1,.6a.48.48,0,0,1-.42,0l-1-.56c-.12-.07-.13-.18,0-.24l1-.59a.45.45,0,0,1,.42,0l1,.56C81.91,113.32,81.92,113.43,81.82,113.49Z"/><path class="cls-1" d="M84.35,112l-1,.6a.48.48,0,0,1-.42,0l-1-.56c-.12-.07-.13-.18,0-.24l1-.6a.48.48,0,0,1,.42,0l1,.56C84.44,111.86,84.45,112,84.35,112Z"/><path class="cls-1" d="M86.88,110.57l-1,.6a.48.48,0,0,1-.42,0l-1-.56c-.12-.07-.13-.18,0-.24l1-.6a.48.48,0,0,1,.42,0l1,.56C87,110.4,87,110.51,86.88,110.57Z"/><path class="cls-1" d="M89.41,109.11l-1,.6a.48.48,0,0,1-.42,0l-1-.56c-.12-.07-.13-.18,0-.24l1-.6a.48.48,0,0,1,.42,0l1,.56C89.5,108.94,89.51,109.05,89.41,109.11Z"/><path class="cls-1" d="M91.94,107.65l-1,.6a.48.48,0,0,1-.42,0l-1-.56c-.12-.07-.13-.18,0-.24l1-.6a.48.48,0,0,1,.42,0l1,.56C92,107.48,92,107.59,91.94,107.65Z"/><path class="cls-1" d="M94.47,106.19l-1,.59a.45.45,0,0,1-.42,0l-1-.56c-.12-.07-.13-.18,0-.24l1-.6a.48.48,0,0,1,.42,0l1,.56C94.56,106,94.57,106.13,94.47,106.19Z"/><path class="cls-1" d="M97,104.73l-1,.59a.48.48,0,0,1-.42,0l-1-.57c-.12-.07-.13-.17,0-.23l1-.6a.48.48,0,0,1,.42,0l1,.56C97.09,104.56,97.1,104.67,97,104.73Z"/><path class="cls-1" d="M74.1,120.72l-1,.6a.48.48,0,0,1-.42,0l-1-.56c-.12-.07-.13-.18,0-.24l1-.6a.48.48,0,0,1,.42,0l1,.56C74.19,120.55,74.2,120.66,74.1,120.72Z"/><path class="cls-1" d="M76.63,119.26l-1,.6a.48.48,0,0,1-.42,0l-1-.56c-.12-.07-.13-.18,0-.24l1-.6a.48.48,0,0,1,.42,0l1,.56C76.72,119.09,76.73,119.2,76.63,119.26Z"/><path class="cls-1" d="M79.16,117.8l-1,.6a.48.48,0,0,1-.42,0l-1-.56c-.12-.07-.13-.18,0-.24l1-.6a.48.48,0,0,1,.42,0l1,.56C79.25,117.63,79.27,117.74,79.16,117.8Z"/><path class="cls-1" d="M81.69,116.34l-1,.6a.48.48,0,0,1-.42,0l-1-.56c-.12-.07-.13-.18,0-.24l1-.6a.48.48,0,0,1,.42,0l1,.56C81.78,116.17,81.8,116.28,81.69,116.34Z"/><path class="cls-1" d="M84.22,114.88l-1,.59a.45.45,0,0,1-.42,0l-1-.56c-.12-.07-.13-.18,0-.24l1-.6a.48.48,0,0,1,.42,0l1,.56C84.31,114.71,84.33,114.82,84.22,114.88Z"/><path class="cls-1" d="M86.75,113.42l-1,.59a.48.48,0,0,1-.42,0l-1-.57c-.12-.07-.13-.17,0-.23l1-.6a.48.48,0,0,1,.42,0l1,.56C86.84,113.25,86.86,113.36,86.75,113.42Z"/><path class="cls-1" d="M89.28,112l-1,.59a.48.48,0,0,1-.42,0l-1-.57c-.12-.07-.13-.17,0-.23l1-.6a.48.48,0,0,1,.42,0l1,.56C89.37,111.79,89.39,111.9,89.28,112Z"/><path class="cls-1" d="M91.81,110.5l-1,.59a.48.48,0,0,1-.42,0l-1-.57c-.12-.07-.13-.17,0-.23l1-.6a.48.48,0,0,1,.42,0l1,.56C91.9,110.33,91.92,110.44,91.81,110.5Z"/><path class="cls-1" d="M94.34,109l-1,.59a.48.48,0,0,1-.42,0l-1-.56c-.12-.07-.13-.17,0-.24l1-.59a.48.48,0,0,1,.42,0l1,.56C94.43,108.87,94.45,109,94.34,109Z"/><path class="cls-1" d="M96.87,107.58l-1,.59a.48.48,0,0,1-.42,0l-1-.56c-.12-.07-.13-.18,0-.24l1-.59a.45.45,0,0,1,.42,0l1,.56C97,107.41,97,107.51,96.87,107.58Z"/><path class="cls-2" d="M35.51,34a30.67,30.67,0,0,1-1.94-3.15c0-.06,1.11-7.75-.19-13.32h0c.27.53,4,7.83,5.19,12.71l1.24,5.06a27.32,27.32,0,0,1-4.56,6.88l-1.52,1.36a.31.31,0,0,1-.45-.05l-1.37-1.86a.3.3,0,0,1,0-.29,37.24,37.24,0,0,1,2.27-5.13A15.82,15.82,0,0,0,35.51,34Z"/><path class="cls-1" d="M33.54,44.08h-.09a.84.84,0,0,1-.58-.33L31.5,41.88a.79.79,0,0,1-.11-.77,36.45,36.45,0,0,1,2.34-5.26A16.26,16.26,0,0,0,34.9,34a33.63,33.63,0,0,1-1.78-2.94L33,30.91l0-.17c0-.08,1.09-7.65-.18-13.13l-.1-.44.84-.35.23.41c.41.81,4,7.94,5.23,12.83l1.29,5.23-.07.16a27.63,27.63,0,0,1-4.65,7l-1.56,1.39A.82.82,0,0,1,33.54,44.08Zm-1.13-2.72,1.16,1.58,1.34-1.19a27.59,27.59,0,0,0,4.36-6.55l-1.2-4.89a59.41,59.41,0,0,0-3.67-9.56,51.4,51.4,0,0,1-.29,10,29,29,0,0,0,1.82,2.94l.18.25-.13.29a16.59,16.59,0,0,1-1.41,2.28A32.8,32.8,0,0,0,32.41,41.36Z"/><path class="cls-1" d="M35.64,34.46l-.26-1A4.06,4.06,0,0,1,37,33.41l-.2,1A3.26,3.26,0,0,0,35.64,34.46Z"/><path class="cls-3" d="M34.4,91.71s.66.28,1.45,2.21a18.85,18.85,0,0,0,3.68,5c.9.74-.42,3.61-3.33,2.3-1.29-.57-3.09-1.95-4-2.38a4.14,4.14,0,0,1-2.32-3.13,5.88,5.88,0,0,1,.05-2.64c.54-1.37,2.87-2,2.87-2Z"/><path class="cls-1" d="M37.62,102.07a4,4,0,0,1-1.64-.38,21.19,21.19,0,0,1-2.47-1.46A17.53,17.53,0,0,0,32,99.3a4.61,4.61,0,0,1-2.61-3.52,6.06,6.06,0,0,1,.07-2.91c.63-1.58,3-2.2,3.23-2.27l.16,0,1.77.67c.2.09.93.52,1.73,2.5a18.23,18.23,0,0,0,3.54,4.77,1.78,1.78,0,0,1,.1,2.3A2.74,2.74,0,0,1,37.62,102.07ZM32.77,91.66c-.66.19-2,.75-2.36,1.59a5,5,0,0,0,0,2.38,3.58,3.58,0,0,0,2,2.73,17.75,17.75,0,0,1,1.65,1,20.76,20.76,0,0,0,2.33,1.38c1.72.77,2.48-.18,2.67-.49s.25-.84.12-.94a19.25,19.25,0,0,1-3.84-5.19,4.45,4.45,0,0,0-1.18-1.94Z"/><path class="cls-2" d="M34.35,91.88a20.54,20.54,0,0,0,1.2,3.23c.49.9-.44,1.68-2.21.56A6,6,0,0,1,31.16,92L34,91.51Z"/><path class="cls-1" d="M34.88,96.74a3.58,3.58,0,0,1-1.82-.63A6.54,6.54,0,0,1,30.64,92l-.08-.52L34.25,91l.57.68,0,.11A20,20,0,0,0,36,94.86a1.25,1.25,0,0,1-.16,1.54A1.38,1.38,0,0,1,34.88,96.74Zm-3.09-4.36a5,5,0,0,0,1.83,2.85c.88.55,1.4.51,1.51.41s0-.16,0-.28a19.49,19.49,0,0,1-1.21-3.23l-.05-.06Z"/><path class="cls-3" d="M10.25,72.66a9.92,9.92,0,0,0,.27,5.86c1.18,2.59-1.57,4.4-3.88,1.59a11.09,11.09,0,0,1-2.34-6.3h0c-.39-.55-.44-2.63.06-3.09a3.66,3.66,0,0,1,3.55-.89C10.81,70.58,10.25,72.66,10.25,72.66Z"/><path class="cls-1" d="M9.09,82a3.79,3.79,0,0,1-2.85-1.59A11.54,11.54,0,0,1,3.78,74c-.42-.85-.47-3,.23-3.61a4.12,4.12,0,0,1,4-1,3.69,3.69,0,0,1,2.42,1.6,2.58,2.58,0,0,1,.29,1.86h0A9.41,9.41,0,0,0,11,78.3a2.56,2.56,0,0,1-.72,3.41A2.21,2.21,0,0,1,9.09,82ZM6.87,70.21a3.11,3.11,0,0,0-2.16.89,3.72,3.72,0,0,0,0,2.4l.1.14v.16a10.64,10.64,0,0,0,2.22,6c1,1.25,2.09,1.42,2.69,1s.78-1.07.32-2.1a10.22,10.22,0,0,1-.3-6.2c0-.18.31-1.61-2-2.2A3.67,3.67,0,0,0,6.87,70.21Z"/><path class="cls-2" d="M10.25,72.66,9.52,75c-.5.49-2-.61-2.27-1.24a4.21,4.21,0,0,1-.34-1.1,3.2,3.2,0,0,1,1-2.78Z"/><path class="cls-1" d="M9.19,75.59a1.32,1.32,0,0,1-.27,0,3.65,3.65,0,0,1-2.14-1.64,5.12,5.12,0,0,1-.38-1.22,3.7,3.7,0,0,1,1.17-3.27l.4-.36,2.86,3.47L10,75.24l-.09.09A.94.94,0,0,1,9.19,75.59Zm-1.29-5a2.46,2.46,0,0,0-.48,1.89,4.41,4.41,0,0,0,.3,1A2.73,2.73,0,0,0,9.1,74.55l.57-1.78Z"/><path class="cls-1" d="M32,47.18a27.76,27.76,0,0,1-4.76,18.3L24.13,68,18.7,69.43l-8.59,3.23a.61.61,0,0,1-.44,0l-.31-.15A2.6,2.6,0,0,1,8,70.66l-.1-.52a.53.53,0,0,1,.21-.54c1-.73,4.25-3.2,6.29-4.62,3.06-2.12,5-3.33,7.09-3.79s-.84-14.45-.84-14.45L26.28,44Z"/><path class="cls-1" d="M9.92,73.22a1,1,0,0,1-.48-.12L9.13,73a3.11,3.11,0,0,1-1.67-2.19l-.1-.52a1.07,1.07,0,0,1,.4-1.06c1.24-.93,4.34-3.25,6.31-4.62,2.92-2,5-3.39,7.28-3.87.81-.48.24-6.82-1.24-13.85l-.09-.4,6.28-3,6.21,3.41,0,.26a28,28,0,0,1-4.84,18.66l-.11.11-3.23,2.59-5.54,1.46-8.54,3.22A1.21,1.21,0,0,1,9.92,73.22ZM21.21,47c1.14,5.46,2.59,14.2.36,14.67s-4.09,1.76-6.9,3.71c-2,1.4-5.32,3.88-6.28,4.6l.09.55A2.07,2.07,0,0,0,9.59,72l.31.15,8.62-3.23,5.37-1.42,3-2.4a27.67,27.67,0,0,0,4.66-17.61l-5.29-2.9Z"/><path class="cls-1" d="M27.49,50.13s6,17.06,6.11,20.63c.07,3.22.76,18.12.89,20.94a.66.66,0,0,1-.41.64h0a3.51,3.51,0,0,1-2.57,0l-.16-.06a.69.69,0,0,1-.41-.51,46.23,46.23,0,0,0-2.2-8.42c-1.53-3.9-.51-10.12-.51-10.12s-2.1-6.06-5.09-8.8-7.31-9.93-7.26-14.51S27.49,50.13,27.49,50.13Z"/><path class="cls-1" d="M32.77,93.11a4,4,0,0,1-1.45-.27l-.15-.06a1.16,1.16,0,0,1-.74-.9,45.86,45.86,0,0,0-2.18-8.32c-1.45-3.71-.7-9.3-.55-10.26-.31-.86-2.28-6.06-4.91-8.46-3-2.75-7.48-10.09-7.43-14.9a2.22,2.22,0,0,1,1-1.93c2.74-1.82,10.47,1.28,11.34,1.63l.21.09L28,50c.25.7,6.05,17.19,6.14,20.8.07,3.23.75,18,.89,20.93a1.18,1.18,0,0,1-.74,1.14A3.89,3.89,0,0,1,32.77,93.11Zm-14-44.64a3.44,3.44,0,0,0-1.84.4A1.18,1.18,0,0,0,16.4,50c0,4.37,4.21,11.47,7.1,14.12,3.05,2.79,5.14,8.75,5.23,9l0,.12,0,.13c0,.06-1,6.13.47,9.85a47.22,47.22,0,0,1,2.23,8.53.12.12,0,0,0,.09.1l.15.06a3,3,0,0,0,2.19,0,.13.13,0,0,0,.09-.13c-.14-2.93-.82-17.71-.89-21s-5.3-18.24-6-20.25C25.24,49.79,21.32,48.47,18.77,48.47Z"/><path class="cls-3" d="M11.86,22c1.68-3.17,8.23-5.62,8.23-5.62l2.69.41,4.11-1.89s5.82.9,6.71,2.07,1.38,9.4.6,12.55S34,47.19,34,47.19s-2.47,1.55-3.32,2.05-1.83-2.07-1.83-2.07l-.18,0c-.41,1.85-.78,3-.78,3s-14.86,3-13.69-3.93S14,28.61,14,28.61,10.17,25.2,11.86,22Z"/><path class="cls-1" d="M21.48,51.29c-2.62,0-5.34-.39-6.77-1.78a3.64,3.64,0,0,1-1-3.4c1.06-6.27-.07-15.82-.25-17.25-.73-.7-3.75-3.92-2.07-7.08h0c1.76-3.3,8.23-5.75,8.51-5.86l.13,0,2.67.41,4.1-1.9.16,0c1,.16,6.08,1,7,2.28s1.49,9.75.7,13c-.75,3-.16,17.35-.15,17.49v.31l-.26.16c-.1.06-2.48,1.55-3.33,2a1,1,0,0,1-.82.08,2.74,2.74,0,0,1-1.23-1.3c-.28,1.12-.5,1.78-.51,1.82l-.09.29-.3.06A38,38,0,0,1,21.48,51.29Zm-9.16-29c-1.48,2.77,1.95,5.92,2,5.95l.14.13,0,.19c0,.44,1.43,10.83.27,17.75a2.61,2.61,0,0,0,.68,2.47C18,51.22,25.87,50,27.52,49.67c.13-.45.4-1.38.68-2.64l.11-.49,1,.17.1.28a4.11,4.11,0,0,0,1.12,1.8l3-1.88c-.09-2.15-.54-14.51.19-17.48.78-3.19.17-11.2-.52-12.11-.51-.68-3.89-1.48-6.22-1.85l-4.1,1.89L20.15,17c-.9.35-6.38,2.6-7.83,5.32Z"/><path class="cls-2" d="M22.65,13.64A7.71,7.71,0,0,1,22,16.33a8.61,8.61,0,0,0,2,2.1A5,5,0,0,0,28.9,19h0a14.54,14.54,0,0,1-.72-4.48C28.34,12.79,22.65,13.64,22.65,13.64Z"/><path class="cls-1" d="M26.89,19.91a5.35,5.35,0,0,1-3.25-1.07,9,9,0,0,1-2.1-2.24l-.14-.22.1-.25a7.53,7.53,0,0,0,.63-2.49V13.2l.44-.07c.76-.12,4.61-.63,5.75.45a1.16,1.16,0,0,1,.37,1,14.09,14.09,0,0,0,.69,4.27l.15.45-.44.19A5.73,5.73,0,0,1,26.89,19.91Zm-4.32-3.64A8.17,8.17,0,0,0,24.27,18a4.41,4.41,0,0,0,4,.65,13.52,13.52,0,0,1-.6-4.2.12.12,0,0,0-.05-.12c-.52-.5-2.83-.44-4.47-.24A9.28,9.28,0,0,1,22.57,16.27Z"/><path class="cls-3" d="M22.45,14.93s-2.9.49-3.29,2.52A9.22,9.22,0,0,0,26.45,22l.4-2.64a6.09,6.09,0,0,1-3.26-1.18A2.92,2.92,0,0,1,22.43,15Z"/><path class="cls-1" d="M26.89,22.6l-.5-.05a9.71,9.71,0,0,1-7.7-4.87l-.07-.16,0-.17c.45-2.36,3.58-2.91,3.71-2.94l.85-.14-.28.86a2.39,2.39,0,0,0,1,2.65,5.54,5.54,0,0,0,3,1.09h.6Zm-7.18-5.22A8.68,8.68,0,0,0,26,21.45l.24-1.59a7,7,0,0,1-3-1.23,3.5,3.5,0,0,1-1.5-3A3.12,3.12,0,0,0,19.71,17.38Z"/><path class="cls-3" d="M27.78,19.31l1.5,2.25a4,4,0,0,0,1-4.56l-2.17.3A1.81,1.81,0,0,1,27.78,19.31Z"/><path class="cls-1" d="M29.16,22.31l-2.05-3.06.29-.3a1.25,1.25,0,0,0,.27-1.42l-.3-.64,3.29-.46.14.4A4.48,4.48,0,0,1,29.6,22Zm-.73-3,.93,1.39a3.53,3.53,0,0,0,.58-3.16l-1.14.16A2.25,2.25,0,0,1,28.43,19.35Z"/><path class="cls-2" d="M31.11,6.87a11.45,11.45,0,0,1,.63,5.53,13.31,13.31,0,0,1-1.12,3.9l-.31.7a.76.76,0,0,1-.7.45,8.71,8.71,0,0,1-5.8-2.28L23,14.25a2,2,0,0,1-.27-.49,3,3,0,0,0-.94-1.3,1.85,1.85,0,0,1-.68-1,2,2,0,0,1,.17-1.42h0a.71.71,0,0,1,.89-.35l.72-.95,2.6-3.37Z"/><path class="cls-1" d="M29.62,18h0a9.3,9.3,0,0,1-6.15-2.42l-.82-1a2,2,0,0,1-.36-.64,2.44,2.44,0,0,0-.78-1.08,2.4,2.4,0,0,1-.85-1.24,2.47,2.47,0,0,1,.2-1.81A1.29,1.29,0,0,1,22,9.13l3.34-4.34,6.16,1.64.1.23a11.76,11.76,0,0,1,.68,5.8,13.63,13.63,0,0,1-1.16,4.06l-.32.69A1.25,1.25,0,0,1,29.62,18ZM22,10.18a.21.21,0,0,0-.18.1,1.48,1.48,0,0,0-.14,1.05,1.29,1.29,0,0,0,.49.71,3.59,3.59,0,0,1,1.12,1.53,1,1,0,0,0,.18.34l.78.92a8.25,8.25,0,0,0,5.42,2.1.2.2,0,0,0,.22-.14l.31-.7a12.74,12.74,0,0,0,1.07-3.75,11.46,11.46,0,0,0-.5-5L25.72,6l-3.34,4.36L22,10.19Z"/><path class="cls-1" d="M31,4.22a3.32,3.32,0,0,0,.36.26,2.21,2.21,0,0,1-.66,4,5.29,5.29,0,0,1-1.18.12c-4.07-.06-6.22-.17-6.36,1.46,0,0,0,0,0,0l-.71-.27a1,1,0,0,0-1.36.88h0A3.31,3.31,0,0,1,19.94,8c0-1.82,1.38-6.08,5.47-5.91l.79,0A8.31,8.31,0,0,1,31,4.22Z"/><path class="cls-1" d="M21.57,11.65l-.77-.54A3.81,3.81,0,0,1,19.42,8a7.47,7.47,0,0,1,2.13-5A5.07,5.07,0,0,1,25.43,1.6l.81,0a8.9,8.9,0,0,1,5.14,2.18,1.66,1.66,0,0,0,.3.22,2.72,2.72,0,0,1,1.2,2.79,2.6,2.6,0,0,1-2,2.15,6.13,6.13,0,0,1-1.31.13H29c-3.6,0-5.19,0-5.28,1l0,.26-.45.3-1-.36a.47.47,0,0,0-.43,0,.49.49,0,0,0-.22.38Zm3.61-9a4,4,0,0,0-2.91,1.16A6.46,6.46,0,0,0,20.46,8a3.09,3.09,0,0,0,.48,1.72,1.81,1.81,0,0,1,.33-.29,1.51,1.51,0,0,1,1.37-.15l.19.07C23.41,8,25.62,8,29,8.06h.55A5.09,5.09,0,0,0,30.63,8a1.6,1.6,0,0,0,1.23-1.32,1.69,1.69,0,0,0-.74-1.73,4.5,4.5,0,0,1-.42-.3h0a7.76,7.76,0,0,0-4.53-1.94l-.78,0Z"/><path class="cls-1" d="M28.79,47.17l-1-.06c.65-10.28,0-23.37,0-23.51l1-.05C28.76,23.68,29.45,36.84,28.79,47.17Z"/><path class="cls-3" d="M24.57,66.76a10.21,10.21,0,0,0-.95-1.24l-.22-.23a42.57,42.57,0,0,1-3.09-3.54L21,61.3a42.82,42.82,0,0,0,3,3.44l.23.24a9.37,9.37,0,0,1,1,1.35Z"/><rect class="cls-3" x="28.59" y="50.56" width="0.8" height="8.01" transform="translate(-15.91 12.12) rotate(-18.62)"/><path class="cls-3" d="M17.51,56.35l-.16-.78a3,3,0,0,0,2.23-1.38,3.77,3.77,0,0,0,.07-2.81l.74-.29a4.52,4.52,0,0,1-.1,3.48A3.79,3.79,0,0,1,17.51,56.35Z"/><path class="cls-3" d="M28.54,73.51,27.93,73a4.85,4.85,0,0,1,1.34-1.15l.36.71-.18-.35.18.35A4.35,4.35,0,0,0,28.54,73.51Z"/><path class="cls-3" d="M28.1,82.73a11.2,11.2,0,0,1-.55-3.31h.8a10.44,10.44,0,0,0,.5,3Z"/><path class="cls-3" d="M34.34,79.47h-.8c0-1.47-.13-3.44-.14-3.46l.8-.06S34.34,78,34.34,79.47Z"/><path class="cls-3" d="M32.38,91.25a4.6,4.6,0,0,1-1.84-.41l.32-.73a2.93,2.93,0,0,0,3.27-.28l.57.56A3.39,3.39,0,0,1,32.38,91.25Z"/><path class="cls-3" d="M10.9,72.27a4.55,4.55,0,0,1-2.19-3.39l.79-.11a3.76,3.76,0,0,0,1.77,2.79Z"/><path class="cls-3" d="M22.54,8.87a3.35,3.35,0,0,1,.22-2.94,3.85,3.85,0,0,1,2.95-1.36c1.56-.11,1.66-.9,1.67-.94l.8.06c0,.06-.11,1.51-2.41,1.68a3.15,3.15,0,0,0-2.35,1,2.61,2.61,0,0,0-.11,2.25Z"/><path class="cls-1" d="M9,77.12a3.16,3.16,0,0,1-1.85-.57l.6-.85a2.46,2.46,0,0,0,2.2.22l.4,1A3.76,3.76,0,0,1,9,77.12Z"/><path class="cls-1" d="M8.83,78.84a4.16,4.16,0,0,1-1.63-.36l.4-1c1.59.66,2.23,0,2.25-.07l.81.65A2.32,2.32,0,0,1,8.83,78.84Z"/><path class="cls-1" d="M20.76,19.26l-.92-.48a5.79,5.79,0,0,1,2.51-2.29l.43,1A4.94,4.94,0,0,0,20.76,19.26Z"/><path class="cls-1" d="M29.36,14.41a4.48,4.48,0,0,1-.64-.05l.13-.79a4.63,4.63,0,0,0,.79,0l-.26-1.82.8-.11.28,2a.61.61,0,0,1-.13.49.67.67,0,0,1-.45.24Z"/><path class="cls-1" d="M28.43,11.44c0,.5-.27.9-.6.9s-.6-.4-.6-.9.27-.9.6-.9S28.43,11,28.43,11.44Z"/><path class="cls-1" d="M31.63,11.21c0,.49-.21.89-.47.89s-.46-.4-.46-.89.21-.9.46-.9S31.63,10.71,31.63,11.21Z"/><path class="cls-1" d="M29,16.05a1.81,1.81,0,0,1-.67-.12l.3-.74a1,1,0,0,0,.69,0l.31.74A1.67,1.67,0,0,1,29,16.05Z"/><path class="cls-3" d="M22.84,28.3A1.53,1.53,0,0,1,21.56,30a1.53,1.53,0,0,1-1.28-1.69,1.52,1.52,0,0,1,1.28-1.68A1.52,1.52,0,0,1,22.84,28.3Z"/><path class="cls-1" d="M21.56,30.51a2,2,0,0,1-1.8-2.21,2,2,0,0,1,1.8-2.2,2,2,0,0,1,1.8,2.2A2,2,0,0,1,21.56,30.51Zm0-3.37c-.41,0-.76.53-.76,1.16s.35,1.17.76,1.17.76-.54.76-1.17S22,27.14,21.56,27.14Z"/><path class="cls-2" d="M21.64,30.79a1.52,1.52,0,0,1-1.27,1.68,1.52,1.52,0,0,1-1.28-1.68,1.53,1.53,0,0,1,1.28-1.69C21.07,29.1,21.64,29.86,21.64,30.79Z"/><path class="cls-1" d="M20.37,33a2,2,0,0,1-1.8-2.2,2,2,0,0,1,1.8-2.21,2,2,0,0,1,1.8,2.21A2,2,0,0,1,20.37,33Zm0-3.37c-.42,0-.76.54-.76,1.17S20,32,20.37,32s.75-.54.75-1.16S20.78,29.62,20.37,29.62Z"/><path class="cls-2" d="M31,4.22c3.21,1.25,3.59,4.3,1.38,5.69s-7,1.38-9.71-.45-3.13-3.57-1.28-4.87C23.56,3.07,27.84,3,31,4.22Z"/><path class="cls-1" d="M28.1,11.42a10.39,10.39,0,0,1-5.68-1.53c-1.79-1.2-2.67-2.34-2.68-3.47a2.75,2.75,0,0,1,1.39-2.26c2.22-1.58,6.66-1.77,10.1-.43h0a4.45,4.45,0,0,1,3.09,3.52,3.28,3.28,0,0,1-1.62,3.1A9.1,9.1,0,0,1,28.1,11.42ZM26.28,3.88A8.15,8.15,0,0,0,21.73,5a1.79,1.79,0,0,0-.95,1.4c0,.74.78,1.65,2.22,2.62,2.64,1.77,7.16,1.69,9.14.44a2.24,2.24,0,0,0,1.15-2.13A3.48,3.48,0,0,0,30.85,4.7h0A12.88,12.88,0,0,0,26.28,3.88Z"/><path class="cls-2" d="M31.78,6.89C31.94,5,30.38.52,25.68.52c-4.85,0-5.36,5.22-5.36,5.22h0c-.31,1,.66,2.09,2.51,2.81,2.6,1,6.15.92,7.94-.2a2,2,0,0,0,1-1.22h0S31.78,6.94,31.78,6.89Z"/><path class="cls-1" d="M26.8,9.78A11.65,11.65,0,0,1,22.64,9c-2.09-.82-3.19-2.15-2.83-3.4C19.89,5,20.71,0,25.68,0a6.28,6.28,0,0,1,4.74,2A7.13,7.13,0,0,1,32.3,6.93h0c0,.06,0,.16,0,.24v0h0v.08a2.59,2.59,0,0,1-1.2,1.48A8.25,8.25,0,0,1,26.8,9.78ZM25.68,1c-4.31,0-4.82,4.56-4.84,4.75l0,.11c-.22.69.69,1.58,2.2,2.17,2.41.94,5.84.87,7.47-.16a1.59,1.59,0,0,0,.74-.84l0-.11a.31.31,0,0,0,0-.09v0a6.11,6.11,0,0,0-1.6-4.12A5.2,5.2,0,0,0,25.68,1Z"/><path class="cls-2" d="M26.93.77c.93.36,1.16,1,.52,1.38a3.57,3.57,0,0,1-2.83.07c-.93-.36-1.16-1-.52-1.38A3.61,3.61,0,0,1,26.93.77Z"/><path class="cls-1" d="M26,3a4.49,4.49,0,0,1-1.6-.28c-.73-.28-1.16-.73-1.21-1.25A1.14,1.14,0,0,1,23.82.4a4.15,4.15,0,0,1,3.3-.12h0c.73.29,1.16.73,1.21,1.25a1.13,1.13,0,0,1-.6,1.06A3.29,3.29,0,0,1,26,3ZM25.53,1a2.35,2.35,0,0,0-1.15.24c-.09.06-.12.1-.12.11a1.18,1.18,0,0,0,.55.35,3.09,3.09,0,0,0,2.36,0c.09-.05.12-.09.12-.11a1.28,1.28,0,0,0-.55-.35A3.39,3.39,0,0,0,25.53,1Z"/><path class="cls-1" d="M29.23,9.35l-.88-.56c1-1.64-.77-5.06-1.56-6.24L27.66,2C27.79,2.17,30.85,6.81,29.23,9.35Z"/><path class="cls-1" d="M32.75,10.31l-.66-.8c.18-.15.47-.43.43-.67S31.79,8.1,31.44,8l.37-1c.16.06,1.57.62,1.74,1.68A1.77,1.77,0,0,1,32.75,10.31Z"/><path class="cls-1" d="M25.47,17c-3.32-2.61-2.57-7-2.54-7.16L24,10s-.66,3.93,2.15,6.15Z"/><path class="cls-3" d="M38.36,30.79,38,30.42a2,2,0,0,0-1.78-.65l-.1,0-.65.22c-.1,0-5.22,1.8-5.67,2a0,0,0,0,0,0,.05v7.83h0L30.9,53.92s0,.06.07,0l6.14-2.12s0,0,0,0l3.07-14.38A7.68,7.68,0,0,0,38.36,30.79Z"/><path class="cls-1" d="M30.9,54.54l-.26-.14a.56.56,0,0,1-.25-.44L29.2,39.9V31.65l.59-.24,5.51-1.91.8-.24A2.49,2.49,0,0,1,38.3,30l.41.37a8.12,8.12,0,0,1,2,7.13L37.59,52.21l-.33.13Zm-.66-22.19v7.5l1.13,13.43,5.32-1.84,3-14.12A7.2,7.2,0,0,0,38,31.18l-.41-.37c-.65-.58-1-.6-1.31-.53H36.2l-.61.21Z"/><path class="cls-1" d="M31.42,41.49s0,0,0,0l-.84,5.9-.14.54.5,5.9s0,0,.06,0l6.15-2.12s0,0,0,0l3.05-14.3s0-.06-.06,0L34,39.51h0Z"/><path class="cls-1" d="M30.91,54.47l-.47-.29,0-.28-.5-6,.15-.62.87-6.06.18-.16L33.81,39l6.46-2.23.5.41-.05.34L37.61,52.12l-.3.14ZM31,48l.44,5.2,5.32-1.84,2.82-13.21L34.25,40l-2.36,1.82-.82,5.7Z"/><path class="cls-3" d="M30.84,53.93l-3.45-3.11a5.51,5.51,0,0,1-1.7-5.26l2.4-11.29c.49-2.3,2.12-3.06,3.63-1.69l.41.37A7.65,7.65,0,0,1,34,39.58l-3,14.32A.05.05,0,0,1,30.84,53.93Z"/><path class="cls-1" d="M30.88,54.46a.62.62,0,0,1-.39-.14L27,51.2a6,6,0,0,1-1.86-5.75l2.4-11.29a3.35,3.35,0,0,1,2-2.68,2.55,2.55,0,0,1,2.52.71l.41.37a8.13,8.13,0,0,1,2,7.13L31.37,54.31l-.32.13Zm-.67-22a1.33,1.33,0,0,0-.34,0,2.38,2.38,0,0,0-1.27,1.91L26.19,45.67a5,5,0,0,0,1.55,4.76L30.59,53l2.88-13.52a7.19,7.19,0,0,0-1.69-6.15L31.37,33A1.86,1.86,0,0,0,30.21,32.42Z"/><rect class="cls-3" x="34.12" y="40.88" width="4.81" height="1.04" transform="translate(-11.53 14.21) rotate(-19.08)"/><rect class="cls-1" x="32.79" y="32.37" width="6.62" height="1.04" transform="translate(-8.44 12.86) rotate(-18.12)"/><path class="cls-2" d="M21.5,45.75a5.7,5.7,0,0,0,3.32,1c.75,0,1.65,0,2.58-.14,1.47-.16,4.11-2.61.17-3.11l-1.91-.23-.14-.17.78-.73v-.28l-.91-.23a2.72,2.72,0,0,0-2.5,1.63,11.84,11.84,0,0,1-1.39,2.27Z"/><path class="cls-1" d="M24.74,47.27a6.24,6.24,0,0,1-3.53-1.09l-.5-.34.41-.44a12.71,12.71,0,0,0,1.31-2.16,3.2,3.2,0,0,1,3-1.9l1.4.34,0,.91-.27.25,1.09.13c2.1.27,2.53,1.1,2.53,1.75,0,1.2-1.65,2.28-2.7,2.39-.83.09-1.71.14-2.63.16ZM22.26,45.6a4.94,4.94,0,0,0,2.55.62c.89,0,1.74-.06,2.53-.14s1.77-.89,1.78-1.37c0-.25-.5-.56-1.62-.7l-2.11-.26L24.81,43l.67-.63-.17,0a2.22,2.22,0,0,0-2,1.35A21.59,21.59,0,0,1,22.26,45.6Z"/><path class="cls-3" d="M21.74,42.63l1.49.69a3.9,3.9,0,0,1-.75,2.93l-1.41-.58-1.74-2.35Z"/><path class="cls-1" d="M22.65,46.89l-1.91-.79L18.46,43l3.32-1,1.91.88,0,.27a4.4,4.4,0,0,1-.85,3.35ZM21.4,45.25l.9.36a3.47,3.47,0,0,0,.45-1.94l-1.06-.48-1.5.43Z"/><path class="cls-2" d="M15.4,21.56h0c-1.07-.66-2.69-.62-3.3.48-1.37,2.5-5.94,11.24-7.37,15.49a1,1,0,0,0,.43,1.17c2.44,1.51,11,6.61,15.93,7,0,0,.61-.44.67-3,0,0-4.37-2.57-5.65-3.57A10.93,10.93,0,0,0,11,36.72s5.37-7.6,5.76-10.81S15.4,21.56,15.4,21.56Z"/><path class="cls-1" d="M21.22,46.21l-.19,0c-5-.38-13.63-5.5-16.16-7.06a1.5,1.5,0,0,1-.65-1.78c1.49-4.46,6.3-13.56,7.41-15.57a2.22,2.22,0,0,1,1.44-1.09,3.45,3.45,0,0,1,2.59.41l0,0c.09.05,2.06,1.36,1.64,4.86-.34,2.76-4.06,8.42-5.39,10.37a12.47,12.47,0,0,1,4.49,2.3c1.23,1,5.54,3.51,5.58,3.53l.26.16v.3c-.06,2.65-.69,3.32-.88,3.45ZM13.84,21.63a2.09,2.09,0,0,0-.51.07,1.17,1.17,0,0,0-.79.58c-1.1,2-5.86,11-7.34,15.4a.49.49,0,0,0,.22.57c2.42,1.5,10.6,6.34,15.41,6.88a6.19,6.19,0,0,0,.38-2.21c-1-.58-4.32-2.57-5.44-3.45A10.69,10.69,0,0,0,11,37.24l-.87-.11.51-.71c.05-.08,5.29-7.53,5.66-10.57.34-2.77-1.06-3.79-1.16-3.85h0A2.52,2.52,0,0,0,13.84,21.63Z"/><path class="cls-1" d="M9.55,37.94l-.75-.73a4.1,4.1,0,0,1,2.18-1l.13,1A3,3,0,0,0,9.55,37.94Z"/><path class="cls-2" d="M55.22,55.92l-.35-.2a1.42,1.42,0,0,0-1.38-.2l-.07,0-.44.26L32.07,68.11s0,0,0,0l1.2,5.64h0l3,11.61a0,0,0,0,0,0,0L57.56,72.94s0,0,0,0V60.42A5.63,5.63,0,0,0,55.22,55.92Z"/><path class="cls-1" d="M36.38,86l-.5-.18-.1-.26-3-11.72L31.47,67.9l.33-.24,21-12.32.48-.28a2,2,0,0,1,1.9.21l.35.2a6.13,6.13,0,0,1,2.62,5V73.2l-.28.18ZM33.77,73.67l2.85,11,20.43-12V60.42A5.15,5.15,0,0,0,55,56.37l-.35-.2c-.5-.29-.73-.25-.9-.18l-.46.27C53,56.4,35.18,66.88,32.64,68.38Z"/><path class="cls-1" d="M34.74,74.71s0,0,0,0l.3,6v.41l1.26,4.17a0,0,0,0,0,0,0L57.56,72.88a0,0,0,0,0,0,0V60.42s0,0,0,0L36.3,72.88h0Z"/><path class="cls-1" d="M36.38,86l-.51-.18-.09-.27-1.29-4.25,0-.49-.31-6.21.14-.18L36,72.47l.1-.06L57.52,59.79l.56.3,0,.33V73.16l-.3.18Zm-.84-4.84,1.06,3.5,20.45-12V61.27l-20.42,12L35.26,74.9l.29,5.85Z"/><path class="cls-3" d="M36.23,85.42l-3.38-2a3.21,3.21,0,0,1-1.61-2.79V70c0-1.73,1.05-2.53,2.35-1.78l.35.21a5.62,5.62,0,0,1,2.35,4.49V85.38A0,0,0,0,1,36.23,85.42Z"/><path class="cls-1" d="M36.27,86l-.3-.15-3.38-2a3.73,3.73,0,0,1-1.87-3.24V70a2.58,2.58,0,0,1,1.07-2.35,2,2,0,0,1,2.06.12l.35.21a6.11,6.11,0,0,1,2.61,4.94V85.68ZM32.66,68.48a.73.73,0,0,0-.35.09A1.63,1.63,0,0,0,31.76,70V80.67A2.7,2.7,0,0,0,33.11,83l2.66,1.54V72.94a5.14,5.14,0,0,0-2.09-4l-.35-.21A1.51,1.51,0,0,0,32.66,68.48Z"/><rect class="cls-1" x="35.03" y="67.47" width="6.99" height="1.04" transform="matrix(0.86, -0.51, 0.51, 0.86, -29.12, 28.86)"/><path class="cls-3" d="M70.54,112.54l0,0L41.37,101.09,26.1,91.25a4.82,4.82,0,0,0-4.36-.18l-.19.1-3.07-1H15.55a0,0,0,0,0,0,0v31.59h0a1.72,1.72,0,0,0,1.06,1.48l4.14,2.39s0,0,0,0V115a1.15,1.15,0,0,1,1.72-1L54.9,132.79a3.1,3.1,0,0,1,1.53,2.66v10.61l3.52,2a4.88,4.88,0,0,0,4.36.18l5.48-3.16a1.31,1.31,0,0,0,.74-1.1Z"/><path class="cls-1" d="M62.41,149.24a5.64,5.64,0,0,1-2.72-.69l-3.78-2.19V135.45a2.57,2.57,0,0,0-1.27-2.21L22.19,114.47a.64.64,0,0,0-.63,0,.62.62,0,0,0-.31.54v10.93l-.51.31-.27-.14-4.17-2.4A2.44,2.44,0,0,1,15,122.13h0V89.67l.56,0,3.09,0,2.85.94a5.39,5.39,0,0,1,4.87.2l15.25,9.83L70.8,112.07l.23.23,0,.24V144a1.81,1.81,0,0,1-1,1.55l-5.48,3.16A4.37,4.37,0,0,1,62.41,149.24ZM57,145.76l3.27,1.89a4.33,4.33,0,0,0,3.83.18l5.48-3.16A.84.84,0,0,0,70,144V112.88L41.09,101.53,25.81,91.68A4.31,4.31,0,0,0,22,91.52l-.39.22-3.24-1.07H16v31.14c0,.33.28.7.8,1l3.37,2V115a1.67,1.67,0,0,1,2.5-1.44l32.45,18.77A3.61,3.61,0,0,1,57,135.45Z"/><path class="cls-1" d="M59.23,147.68l.72.42.29.14v-35h-1Z"/><path class="cls-1" d="M60.76,149.06l-.74-.35a3.06,3.06,0,0,1-.32-.16l-1-.57V112.71h2Z"/><path class="cls-1" d="M62.68,148.7a3.74,3.74,0,0,0,1.63-.42l5.48-3.16a1.31,1.31,0,0,0,.74-1.1V112.55l0,0-2.89-1.29H62.68Z"/><path class="cls-1" d="M62.16,149.25V110.7h5.57l3.13,1.4.17.26,0,.19V144a1.81,1.81,0,0,1-1,1.55l-5.48,3.16a4.15,4.15,0,0,1-1.86.49Zm1-37.51v36.38a2.74,2.74,0,0,0,.85-.29l5.48-3.16A.84.84,0,0,0,70,144V112.86l-2.51-1.12Z"/><path class="cls-1" d="M16.88,90.11H15.55a0,0,0,0,0,0,0v31.58h0a1.72,1.72,0,0,0,1.06,1.48l.3.18Z"/><path class="cls-1" d="M17.41,124.3l-1.09-.63A2.46,2.46,0,0,1,15,122.11h0V89.63l.56,0h1.86ZM16,121.37h0v.39a.93.93,0,0,0,.32.65V90.63H16Z"/><path class="cls-2" d="M69.78,113.62l-5.47,3.16A4.82,4.82,0,0,1,60,116.6l-43.37-25c-1.29-.75-1.43-1.87-.32-2.52l5.48-3.16a4.88,4.88,0,0,1,4.36.18l43.37,25C70.76,111.85,70.9,113,69.78,113.62Z"/><path class="cls-1" d="M62.41,117.74a5.53,5.53,0,0,1-2.72-.69L16.31,92A2.3,2.3,0,0,1,15,90.13a1.81,1.81,0,0,1,1-1.54l5.48-3.16a5.34,5.34,0,0,1,4.88.18l43.37,25a2.29,2.29,0,0,1,1.33,1.88,1.8,1.8,0,0,1-1,1.54l-5.48,3.16A4.39,4.39,0,0,1,62.41,117.74ZM23.62,86a3.37,3.37,0,0,0-1.62.36l-5.48,3.16c-.22.13-.49.35-.49.64s.3.69.81,1l43.37,25a4.35,4.35,0,0,0,3.84.18l5.47-3.16c.23-.13.5-.35.5-.64s-.3-.68-.81-1l-43.38-25A4.55,4.55,0,0,0,23.62,86Z"/><path class="cls-1" d="M20.89,125.57l7.52-4.31a1.18,1.18,0,0,0,.6-1v-2.43L22.46,114a1.15,1.15,0,0,0-1.72,1v10.47A.1.1,0,0,0,20.89,125.57Z"/><path class="cls-1" d="M20.84,126.11a.59.59,0,0,1-.31-.09.63.63,0,0,1-.32-.54V115a1.68,1.68,0,0,1,2.51-1.44l6.81,3.94v2.73a1.72,1.72,0,0,1-.86,1.48L21.15,126A.59.59,0,0,1,20.84,126.11Zm1.05-11.73a.68.68,0,0,0-.32.09.62.62,0,0,0-.31.54v9.75l6.9-4a.65.65,0,0,0,.33-.57v-2.13l-6.29-3.64A.67.67,0,0,0,21.89,114.38Z"/><path class="cls-3" d="M69.57,144.59l-1-.11a.86.86,0,0,0,0-.16V115.38h1v28.94A2.45,2.45,0,0,1,69.57,144.59Z"/><rect class="cls-3" x="26.79" y="117.92" width="1.04" height="2.05"/><path class="cls-3" d="M127,80.06l0,0L97.86,68.62,82.59,58.77a4.88,4.88,0,0,0-4.36-.18L78,58.7l-3.07-1H72.05a0,0,0,0,0,0,0V89.3h0a1.72,1.72,0,0,0,1,1.48l4.14,2.39s0,0,0,0V82.54a1.15,1.15,0,0,1,1.72-1l32.45,18.78a3.07,3.07,0,0,1,1.53,2.66v10.61l3.53,2a4.8,4.8,0,0,0,4.35.18l5.48-3.16a1.26,1.26,0,0,0,.74-1.09Z"/><path class="cls-1" d="M118.91,116.76a5.47,5.47,0,0,1-2.72-.69l-3.79-2.18V103a2.56,2.56,0,0,0-1.27-2.21L78.68,82a.6.6,0,0,0-.62,0,.62.62,0,0,0-.32.55V93.47l-.52.31L77,93.63l-4.15-2.39a2.43,2.43,0,0,1-1.29-1.58h0l0-.35V57.2l.57,0,3.08,0,2.86.94a5.33,5.33,0,0,1,4.86.19L98.1,68.15,127.3,79.6l.22.23,0,.23v31.49a1.77,1.77,0,0,1-1,1.54l-5.48,3.16A4.33,4.33,0,0,1,118.91,116.76Zm-5.47-3.47,3.27,1.88a4.33,4.33,0,0,0,3.83.18l5.48-3.16a.8.8,0,0,0,.48-.64V80.4L97.58,69.05,82.31,59.21A4.34,4.34,0,0,0,78.49,59l-.39.23-3.23-1.08H72.52l0,31.14c0,.32.27.7.79,1l3.38,2V82.54a1.64,1.64,0,0,1,.84-1.45,1.66,1.66,0,0,1,1.67,0l32.44,18.78a3.61,3.61,0,0,1,1.79,3.11Z"/><path class="cls-1" d="M115.73,115.21l.72.41a1.83,1.83,0,0,0,.28.14v-35h-1Z"/><path class="cls-1" d="M117.25,116.59l-.82-.39-.25-.13-1-.56V80.23h2Z"/><path class="cls-1" d="M119.17,116.23a3.61,3.61,0,0,0,1.63-.43l5.48-3.16a1.26,1.26,0,0,0,.74-1.09V80.08l0,0-2.89-1.3h-4.94Z"/><path class="cls-1" d="M118.65,116.78V78.22h5.57l3.14,1.41.16.26,0,.19v31.47a1.77,1.77,0,0,1-1,1.54l-5.48,3.16a4.15,4.15,0,0,1-1.86.5Zm1-37.52v36.39a2.5,2.5,0,0,0,.85-.3l5.48-3.16a.8.8,0,0,0,.48-.64V80.39L124,79.26Z"/><path class="cls-1" d="M73.38,57.64H72.05a0,0,0,0,0,0,0V89.26h0a1.7,1.7,0,0,0,1,1.48l.31.18Z"/><path class="cls-1" d="M73.9,91.83l-1.09-.63a2.43,2.43,0,0,1-1.29-1.58h0l0-.35V57.16l.57,0H73.9Zm-1.38-2.91h0v.37a.84.84,0,0,0,.32.64V58.16h-.34Z"/><path class="cls-2" d="M126.28,81.15l-5.48,3.16a4.88,4.88,0,0,1-4.36-.18l-43.37-25c-1.29-.74-1.43-1.87-.32-2.51l5.48-3.16a4.82,4.82,0,0,1,4.36.18l43.37,25C127.25,79.37,127.39,80.5,126.28,81.15Z"/><path class="cls-1" d="M118.9,85.26a5.63,5.63,0,0,1-2.72-.68l-43.37-25a2.27,2.27,0,0,1-1.33-1.87,1.78,1.78,0,0,1,1-1.54L78,53a5.34,5.34,0,0,1,4.88.18l43.37,25a2.29,2.29,0,0,1,1.33,1.87,1.81,1.81,0,0,1-1,1.55l-5.48,3.16A4.36,4.36,0,0,1,118.9,85.26ZM80.12,53.49a3.3,3.3,0,0,0-1.63.37L73,57c-.19.11-.5.33-.5.64s.3.68.81,1L116.7,83.68a4.39,4.39,0,0,0,3.84.18L126,80.69c.18-.1.49-.33.49-.64s-.3-.68-.81-1L82.33,54A4.58,4.58,0,0,0,80.12,53.49Z"/><path class="cls-1" d="M77.38,93.1l7.53-4.31a1.19,1.19,0,0,0,.59-1V85.34L79,81.55a1.14,1.14,0,0,0-1.72,1V93A.1.1,0,0,0,77.38,93.1Z"/><path class="cls-1" d="M77.33,93.63a.68.68,0,0,1-.31-.08.63.63,0,0,1-.31-.54V82.54a1.67,1.67,0,0,1,2.5-1.45L86,85v2.72a1.71,1.71,0,0,1-.86,1.48l-7.52,4.31A.65.65,0,0,1,77.33,93.63Zm1-11.72a.58.58,0,0,0-.32.09.61.61,0,0,0-.31.54v9.75l6.9-4a.68.68,0,0,0,.33-.58V85.64L78.69,82A.57.57,0,0,0,78.38,81.91Z"/><path class="cls-3" d="M126.07,112.12l-1-.11a1,1,0,0,0,0-.17V82.91h1v28.93A2.72,2.72,0,0,1,126.07,112.12Z"/><rect class="cls-3" x="83.28" y="85.45" width="1.04" height="2.05"/><path class="cls-3" d="M133.44,76.87V66.57l-9-.9v3.25L100.45,55c-4.16-2.41-10.46-2.67-14.07-.59L20.29,92.61l.33-1.72h-11v9.84c-.07,1.64,1.1,3.38,3.44,4.73l29.55,17.06c4.17,2.41,10.47,2.67,14.08.59L131,80.22a4.26,4.26,0,0,0,2.43-3.33h0Z"/><path class="cls-1" d="M50.63,125a16.86,16.86,0,0,1-8.23-2L12.85,105.91c-2.43-1.4-3.78-3.3-3.7-5.2V90.37h12.1L21,91.59,86.12,54c3.75-2.16,10.29-1.9,14.59.59L124,68V65.09l10,1V77.41h-.06a5,5,0,0,1-2.63,3.26L57,123.56A13.06,13.06,0,0,1,50.63,125ZM10.19,91.41v9.32c-.06,1.52,1.1,3.08,3.18,4.28l29.55,17.06c4,2.32,10.1,2.58,13.56.58l74.27-42.88a3.77,3.77,0,0,0,2.17-2.92V67l-7.91-.8v3.58L100.19,55.49c-4-2.32-10.09-2.58-13.55-.59L19.56,93.63,20,91.41Z"/><path class="cls-1" d="M45.12,123.62a16.27,16.27,0,0,0,3.12.72V101.48H45.12Z"/><path class="cls-1" d="M48.76,124.94l-.59-.08a18,18,0,0,1-3.22-.75L44.6,124V101h4.16Zm-3.12-1.7a16.63,16.63,0,0,0,2.08.5V102H45.64Z"/><path class="cls-1" d="M13,90.78H9.67v9.84C9.6,102.24,10.75,104,13,105.3Z"/><path class="cls-1" d="M13.56,106.21l-.79-.46c-2.38-1.4-3.7-3.28-3.62-5.15V90.26h4.41ZM10.19,91.3v9.32c0,1.29.78,2.61,2.32,3.72v-13Z"/><path class="cls-1" d="M124.49,68.93l-24-13.88c-4.16-2.41-10.46-2.67-14.07-.59l-35,20.21V124.5a12,12,0,0,0,5.36-1.38L131,80.23a4.25,4.25,0,0,0,2.43-3.33h0V66.58l-9-.9Z"/><path class="cls-1" d="M50.86,125V74.37L86.12,54c3.74-2.16,10.29-1.9,14.59.59L124,68V65.1l10,1v10.8l-.06.49a5,5,0,0,1-2.63,3.28L57,123.57A12.46,12.46,0,0,1,51.4,125ZM51.9,75v49a11.23,11.23,0,0,0,4.58-1.28l74.27-42.89a3.76,3.76,0,0,0,2.17-2.91v-.08h0V67.05l-7.91-.8v3.58L100.19,55.5c-4-2.32-10.09-2.58-13.55-.58Z"/><path class="cls-2" d="M131,70.29,56.74,113.17c-3.61,2.09-9.91,1.83-14.08-.58L13.11,95.53c-4.16-2.4-4.61-6-1-8.13L86.38,44.52c3.61-2.08,9.91-1.82,14.07.58L130,62.16C134.17,64.57,134.62,68.21,131,70.29Z"/><path class="cls-1" d="M50.63,115.09a16.86,16.86,0,0,1-8.23-2L12.85,96c-2.35-1.36-3.7-3.2-3.7-5a4.7,4.7,0,0,1,2.69-4L86.12,44.07c3.74-2.16,10.29-1.9,14.59.58l29.55,17.06c2.36,1.36,3.71,3.2,3.71,5.05a4.7,4.7,0,0,1-2.7,4l-.26-.45.26.45L57,113.62A13,13,0,0,1,50.63,115.09ZM92.49,43.63A11.93,11.93,0,0,0,86.64,45L12.36,87.86a3.71,3.71,0,0,0-2.17,3.07c0,1.47,1.16,3,3.18,4.15l29.55,17.06c4,2.32,10.1,2.58,13.56.58l74.27-42.88a3.72,3.72,0,0,0,2.18-3.08c0-1.46-1.16-3-3.19-4.14L100.19,45.56A15.74,15.74,0,0,0,92.49,43.63Z"/><path class="cls-3" d="M125.46,68,52.8,110a5.5,5.5,0,0,1-4.95-.21L18,92.54c-1.46-.85-1.62-2.13-.35-2.86l72.65-42a5.55,5.55,0,0,1,5,.2L125.1,65.16C126.57,66,126.73,67.29,125.46,68Z"/><path class="cls-1" d="M50.64,111a6.29,6.29,0,0,1-3.06-.77L17.75,93a2.55,2.55,0,0,1-1.47-2.07,2,2,0,0,1,1.12-1.69L90.05,47.28a6,6,0,0,1,5.48.2l29.83,17.23a2.53,2.53,0,0,1,1.48,2.07,2,2,0,0,1-1.12,1.69l-72.66,42A4.92,4.92,0,0,1,50.64,111ZM92.46,47.76a3.85,3.85,0,0,0-1.89.42L17.92,90.13a1,1,0,0,0-.6.79c0,.39.36.82.95,1.17l29.84,17.22a5,5,0,0,0,4.43.21L125.2,67.57a1,1,0,0,0,.59-.79c0-.39-.35-.83-1-1.17L95,48.38A5.31,5.31,0,0,0,92.46,47.76Z"/><path class="cls-1" d="M17.56,92.31l.1-.07L90.31,50.29a5.52,5.52,0,0,1,5,.21L125.1,67.72a3.94,3.94,0,0,1,.45.31c1.15-.74,1-2-.45-2.79L95.27,48a5.52,5.52,0,0,0-5-.2l-72.65,42C16.53,90.41,16.53,91.48,17.56,92.31Z"/><rect class="cls-3" x="129.57" y="71.83" width="1.04" height="8.22"/><rect class="cls-3" x="54.45" y="114.67" width="1.04" height="8.22"/><rect class="cls-3" x="58.69" y="117.95" width="12.19" height="1.04" transform="translate(-50.6 48.33) rotate(-30.03)"/><rect class="cls-3" x="115.41" y="85.21" width="12.19" height="1.04" transform="translate(-26.6 72.32) rotate(-30.03)"/><path class="cls-1" d="M125.67,63.94l-30.4-16c-1.47-.84-14,3.38-15.26,4.12h0v1.62h0l34.67,20.56h0L125.46,68C126.73,67.29,127.13,64.78,125.67,63.94Z"/><path class="cls-1" d="M114.69,74.79l-.28-.1L79.79,54.16l-.3-.1V51.78l.24-.16c1-.58,14-5.2,15.81-4.14l30.4,16a2.49,2.49,0,0,1,1.19,2.26,3.18,3.18,0,0,1-1.4,2.72ZM80.53,53.38l34.16,20.26,10.51-6.07a2.18,2.18,0,0,0,.88-1.82,1.53,1.53,0,0,0-.67-1.36L95,48.39c-1.2-.58-12.14,2.86-14.5,4Z"/><path class="cls-2" d="M125.1,63.53,95.27,46.31a5.52,5.52,0,0,0-5-.21L80,52.05h0l34.67,20.55h0l10.77-6.22C126.73,65.66,126.57,64.38,125.1,63.53Z"/><path class="cls-1" d="M114.67,73.22l-.28-.18L79.51,52.36l0-.59.27-.17,10.3-6a6,6,0,0,1,5.48.21l29.83,17.22h0a2.53,2.53,0,0,1,1.48,2.07,2,2,0,0,1-1.12,1.69ZM81,52.06l33.66,20,10.51-6.07a1,1,0,0,0,.59-.79c0-.39-.35-.82-1-1.17L95,46.76a5,5,0,0,0-4.44-.21Z"/><rect class="cls-1" x="104.4" y="54.85" width="1.04" height="16.34" transform="translate(-2.87 120.99) rotate(-59.26)"/><rect class="cls-1" x="30.14" y="89.9" width="1.04" height="11.3" transform="translate(-67.12 73.02) rotate(-59.23)"/><rect class="cls-1" x="30.07" y="89.75" width="1.04" height="4.84" transform="translate(-64.29 71.48) rotate(-59.34)"/><rect class="cls-1" x="104.21" y="55" width="1.04" height="9.56" transform="translate(-0.18 119.24) rotate(-59.26)"/><path class="cls-3" d="M124.55,80.53a1.34,1.34,0,0,1-.63-.16,1.52,1.52,0,0,1-.68-1.37,3.66,3.66,0,0,1,1.68-2.91,1.37,1.37,0,0,1,2.2,1.27,3.67,3.67,0,0,1-1.68,2.91A1.84,1.84,0,0,1,124.55,80.53Zm1.27-3.66a.83.83,0,0,0-.38.12,2.61,2.61,0,0,0-1.15,2c0,.23.06.41.15.46s.28,0,.48-.1a2.59,2.59,0,0,0,1.16-2,.59.59,0,0,0-.15-.47Z"/><path class="cls-3" d="M121,80.57A3.13,3.13,0,0,1,119.62,83c-.78.45-1.41.08-1.41-.82a3.13,3.13,0,0,1,1.41-2.46C120.41,79.3,121,79.67,121,80.57Z"/><path class="cls-1" d="M49.2,97.83l2.71-9.49c.43-.83,3.83-1.61,4.64-1.14l11.21,6.47a2.26,2.26,0,0,1,.89,2.94l-5.32,10c-.42.87-3.58,2.31-4.41,1.82l-8.86-7.64A2.26,2.26,0,0,1,49.2,97.83Z"/><path class="cls-1" d="M59.39,109a1.43,1.43,0,0,1-.73-.17l-.08-.05-8.83-7.62a2.77,2.77,0,0,1-1-3.56l2.72-9.53a3.21,3.21,0,0,1,2-1.2c.89-.27,2.59-.6,3.34-.16L68,93.22a2.77,2.77,0,0,1,1.1,3.62l-5.33,10c-.4.82-2.17,1.67-3.24,2A4,4,0,0,1,59.39,109ZM59.21,108a2.47,2.47,0,0,0,1.2-.19,5.52,5.52,0,0,0,2.45-1.41l5.34-10a1.75,1.75,0,0,0-.7-2.24L56.29,87.65a4.89,4.89,0,0,0-2.42.22,3.35,3.35,0,0,0-1.48.69l-2.72,9.5a1.74,1.74,0,0,0,.65,2.27l.08,0Z"/><path class="cls-3" d="M46.5,98.74l5.07-9.95a1.64,1.64,0,0,1,2.28-.68l11.21,6.48A2.24,2.24,0,0,1,66,97.52l-5.32,10a1.65,1.65,0,0,1-2.32.69l-11-6.52A2.25,2.25,0,0,1,46.5,98.74Z"/><path class="cls-1" d="M59.15,109a2.15,2.15,0,0,1-1.1-.31l-11-6.51A2.78,2.78,0,0,1,46,98.5l5.06-10a2.16,2.16,0,0,1,3-.89l11.21,6.48a2.77,2.77,0,0,1,1.1,3.61l-5.33,10a2.16,2.16,0,0,1-1.94,1.2ZM53,88.41a1.19,1.19,0,0,0-.32,0A1.1,1.1,0,0,0,52,89L47,99a1.73,1.73,0,0,0,.66,2.26l11,6.52a1.13,1.13,0,0,0,1.58-.47l5.33-10A1.73,1.73,0,0,0,64.8,95L53.59,88.56A1.09,1.09,0,0,0,53,88.41Z"/><path class="cls-2" d="M49.09,98.83,52.9,91.3a.88.88,0,0,1,1.22-.37l6,3.46A1.22,1.22,0,0,1,60.58,96l-3.95,7.56a.88.88,0,0,1-1.24.37l-5.85-3.48A1.2,1.2,0,0,1,49.09,98.83Z"/><path class="cls-1" d="M55.84,104.53a1.39,1.39,0,0,1-.71-.2l-5.85-3.47a1.72,1.72,0,0,1-.65-2.26l3.8-7.54a1.4,1.4,0,0,1,2-.58l6,3.46A1.71,1.71,0,0,1,61,96.18l-3.95,7.58a1.37,1.37,0,0,1-.85.71A1.34,1.34,0,0,1,55.84,104.53ZM53.68,91.34h-.1a.36.36,0,0,0-.22.18l-3.81,7.54a.69.69,0,0,0,.26.89l5.85,3.48a.37.37,0,0,0,.5-.15l4-7.58a.67.67,0,0,0-.27-.87l-6-3.45A.31.31,0,0,0,53.68,91.34Z"/><path class="cls-2" d="M63.85,97.61a1.1,1.1,0,1,1-1.09-1.12A1.11,1.11,0,0,1,63.85,97.61Z"/><path class="cls-1" d="M62.76,99.26a1.65,1.65,0,1,1,1.61-1.65A1.64,1.64,0,0,1,62.76,99.26Zm0-2.25a.61.61,0,1,0,.57.6A.59.59,0,0,0,62.76,97Z"/><path class="cls-1" d="M62.07,101.14A1.09,1.09,0,1,1,61,100,1.11,1.11,0,0,1,62.07,101.14Z"/><path class="cls-3" d="M60.29,104.57a1.09,1.09,0,1,1-1.09-1.13A1.11,1.11,0,0,1,60.29,104.57Z"/><path class="cls-1" d="M59.2,106.21a1.65,1.65,0,1,1,1.61-1.64A1.62,1.62,0,0,1,59.2,106.21Zm0-2.25a.61.61,0,0,0,0,1.21.61.61,0,0,0,0-1.21Z"/><path class="cls-1" d="M55.45,98.77a2.88,2.88,0,0,1-2.4-1.44c-.32-.5-.66-.75-1-.75h0c-.8,0-1.71,1.11-2,1.5l-.87-.58c.14-.2,1.34-2,2.84-2h0a2.29,2.29,0,0,1,1.9,1.22,1.79,1.79,0,0,0,1.6,1A1.43,1.43,0,0,0,56.72,97a1.32,1.32,0,0,0-.16-1.37c-.91-1.38-.67-2.12-.31-2.5.62-.66,1.85-.48,2.75,0l-.52.9c-.66-.38-1.32-.4-1.47-.24s-.11.41.42,1.21a2.4,2.4,0,0,1,.22,2.41,2.46,2.46,0,0,1-2.07,1.32Z"/><rect class="cls-3" x="66.36" y="94.72" width="1.93" height="1.04" transform="translate(-38.53 46.27) rotate(-29.92)"/><path class="cls-1" d="M56.44,64.94l-10.6-6.12A10.55,10.55,0,0,1,41,50.44a4.18,4.18,0,0,1,1.85-3.79A4.15,4.15,0,0,1,47,47l10.6,6.12-1.2,2.08L45.84,49a1.92,1.92,0,0,0-1.8-.3,1.92,1.92,0,0,0-.64,1.71A8.17,8.17,0,0,0,47,56.74l10.6,6.12Z"/><path class="cls-3" d="M94.61,88.72,85.5,98.63a22.91,22.91,0,0,1-4.78,4l-4.61,2.86A3,3,0,0,0,74.68,108h0a1.07,1.07,0,0,0,1.62.91l3.77-2.31a34.12,34.12,0,0,0,7.09-5.81L98.41,88.72l1.8-2.23Z"/><path class="cls-1" d="M75.74,109.61A1.6,1.6,0,0,1,74.16,108a3.51,3.51,0,0,1,1.68-3l4.61-2.86a22.43,22.43,0,0,0,4.66-3.86l9.2-10,7.55-3-3,3.76L87.54,101.17a34.55,34.55,0,0,1-7.2,5.89l-3.77,2.31A1.57,1.57,0,0,1,75.74,109.61ZM94.91,89.16l-9,9.82A23.44,23.44,0,0,1,81,103l-4.6,2.86A2.49,2.49,0,0,0,75.2,108a.5.5,0,0,0,.28.47.51.51,0,0,0,.54,0l3.77-2.31a33.4,33.4,0,0,0,7-5.71L98,88.36l.53-.65Z"/><path class="cls-3" d="M101.8,75l0,0L68,59.84h0L57.36,53.69A4.82,4.82,0,0,0,53,53.51l-.18.1-3.08-1H46.82a0,0,0,0,0,0,0V65.44h0a1.73,1.73,0,0,0,1.05,1.48L52,69.31s0,0,0,0V63.57a1.15,1.15,0,0,1,1.73-1L86.16,81.35A3.08,3.08,0,0,1,87.69,84v5.71l3.53,2a4.88,4.88,0,0,0,4.36.18l5.47-3.16a1.29,1.29,0,0,0,.74-1.1Z"/><path class="cls-1" d="M93.68,92.9A5.64,5.64,0,0,1,91,92.21L87.17,90V84A2.55,2.55,0,0,0,85.9,81.8L53.46,63a.61.61,0,0,0-.63,0,.61.61,0,0,0-.32.54v6l-.5.32-.27-.13-4.17-2.41a2.43,2.43,0,0,1-1.29-1.58h0V52.11l.56,0,3.09,0,2.85.94a5.37,5.37,0,0,1,4.86.2l10.7,6.17,33.82,15.13.16.27,0,.18V87.68a1.77,1.77,0,0,1-1,1.55l-5.47,3.16A4.39,4.39,0,0,1,93.68,92.9Zm-5.46-3.48,3.26,1.89a4.35,4.35,0,0,0,3.84.18l5.47-3.16a.84.84,0,0,0,.48-.65V75.3l-33.57-15L57.1,54.14A4.32,4.32,0,0,0,53.26,54l-.38.22-3.24-1.07H47.3V65.47c0,.33.28.7.79,1l3.38,2V63.57a1.64,1.64,0,0,1,.84-1.44,1.62,1.62,0,0,1,1.67,0L86.42,80.9A3.6,3.6,0,0,1,88.22,84Z"/><path class="cls-1" d="M90.5,91.34l.72.42.29.14V75.67h-1Z"/><path class="cls-1" d="M92,92.72l-.82-.39L91,92.21l-1-.57V75.15h2Z"/><path class="cls-1" d="M94,92.36a3.77,3.77,0,0,0,1.63-.42l5.47-3.16a1.29,1.29,0,0,0,.74-1.1V75l0,0-2.89-1.29H94Z"/><path class="cls-1" d="M93.42,92.91V73.14H99l3.14,1.4.16.27,0,.18V87.68a1.78,1.78,0,0,1-1,1.55l-5.47,3.16a4.06,4.06,0,0,1-1.87.49Zm1-18.73v17.6a2.74,2.74,0,0,0,.85-.29l5.47-3.16a.82.82,0,0,0,.48-.65V75.3l-2.51-1.12Z"/><path class="cls-1" d="M48.15,52.55H46.82a0,0,0,0,0,0,0v12.8h0a1.73,1.73,0,0,0,1.05,1.48l.31.18Z"/><path class="cls-1" d="M48.67,68l-1.09-.63a2.41,2.41,0,0,1-1.28-1.56h0V52.07l.56,0h1.85ZM47.3,65h0v.38a.88.88,0,0,0,.32.65v-13H47.3Z"/><path class="cls-2" d="M101.05,76.06l-5.48,3.16A4.8,4.8,0,0,1,91.22,79L47.84,54c-1.29-.75-1.43-1.87-.31-2.52L53,48.32a4.88,4.88,0,0,1,4.36.18l43.38,25C102,74.29,102.17,75.42,101.05,76.06Z"/><path class="cls-1" d="M93.68,80.18A5.47,5.47,0,0,1,91,79.49l-43.38-25a2.31,2.31,0,0,1-1.33-1.87,1.8,1.8,0,0,1,1-1.55l5.47-3.16a5.34,5.34,0,0,1,4.88.18l43.38,25A2.31,2.31,0,0,1,102.33,75a1.81,1.81,0,0,1-1,1.54l-5.48,3.16A4.33,4.33,0,0,1,93.68,80.18ZM54.89,48.41a3.41,3.41,0,0,0-1.63.36l-5.47,3.16c-.19.11-.5.33-.5.65s.31.68.81,1l43.38,25a4.33,4.33,0,0,0,3.83.18l5.48-3.16c.18-.11.49-.33.49-.64s-.3-.68-.8-1L57.1,49A4.55,4.55,0,0,0,54.89,48.41Z"/><path class="cls-1" d="M52.16,69.23l6.45-3.83-4.89-2.82a1.15,1.15,0,0,0-1.72,1v5.57A.11.11,0,0,0,52.16,69.23Z"/><path class="cls-1" d="M52.1,69.77a.61.61,0,0,1-.31-.09.63.63,0,0,1-.31-.54V63.57A1.67,1.67,0,0,1,54,62.13l5.66,3.27-7.22,4.28A.62.62,0,0,1,52.1,69.77Zm1-6.83a.63.63,0,0,0-.31.09.61.61,0,0,0-.32.54v4.84l5.06-3L53.46,63A.64.64,0,0,0,53.15,62.94Z"/><path class="cls-3" d="M95.44,92.57l-.51-.9L99,89.34a1.56,1.56,0,0,0,.78-1.2.86.86,0,0,0,0-.16V77.82h1V88a2.45,2.45,0,0,1,0,.27,2.63,2.63,0,0,1-1.31,2Z"/><rect class="cls-3" x="52.08" y="67.39" width="4.7" height="1.04" transform="translate(-26.44 35.75) rotate(-29.6)"/><rect class="cls-1" x="82.28" y="61.4" width="1.04" height="10.78" transform="translate(-16.88 103.96) rotate(-59.34)"/><rect class="cls-1" x="57.05" y="50.78" width="1.04" height="2.55" transform="translate(-16.56 75.03) rotate(-59.34)"/><path class="cls-2" d="M63.8,84.15h0a1.09,1.09,0,0,1-1.09-1.09V79.14A1.09,1.09,0,0,1,63.8,78h0a1.09,1.09,0,0,1,1.09,1.1v3.92A1.09,1.09,0,0,1,63.8,84.15Z"/><path class="cls-1" d="M63.82,80.93h0a1.7,1.7,0,0,1-1.7-1.7V63.47a1.7,1.7,0,0,1,1.7-1.7h0a1.7,1.7,0,0,1,1.7,1.7V79.23A1.7,1.7,0,0,1,63.82,80.93Z"/><path class="cls-1" d="M63.82,81.45a2.23,2.23,0,0,1-2.23-2.22V63.47a2.23,2.23,0,0,1,4.45,0V79.23A2.23,2.23,0,0,1,63.82,81.45Zm0-19.16a1.18,1.18,0,0,0-1.18,1.18V79.23a1.18,1.18,0,1,0,2.35,0V63.47A1.17,1.17,0,0,0,63.82,62.29Z"/><path class="cls-3" d="M68.66,47.3a1.17,1.17,0,0,0-1,.1L60,51.81a10.31,10.31,0,0,0-5.19,8.95v8.15a1.91,1.91,0,0,0,.88,1.62h0l.07,0,8.74,5a.14.14,0,0,0,.18,0l1.7-2.44s0,0,0,0L71.64,58a.14.14,0,0,1,.08-.09l3.74-1.49a.18.18,0,0,0,.08-.07l1.87-3.82a.13.13,0,0,0,0-.18Z"/><path class="cls-1" d="M64.54,76.15a.66.66,0,0,1-.33-.09l-8.76-5-.32-.2v0a2.4,2.4,0,0,1-.86-1.86V60.76a10.85,10.85,0,0,1,5.46-9.4L67.44,47a1.75,1.75,0,0,1,1.38-.15l.1.05,8.7,5a.66.66,0,0,1,.26.87L76,56.53a.63.63,0,0,1-.35.33l-3.58,1.42L66.76,73.43l-1.68,2.43A.67.67,0,0,1,64.54,76.15Zm-8.48-6L64.42,75l1.47-2.12,5.26-15.08a.63.63,0,0,1,.38-.4l3.6-1.44,1.66-3.37-8.34-4.79a.72.72,0,0,0-.5.07l-7.71,4.41a9.82,9.82,0,0,0-4.93,8.5v8.15A1.4,1.4,0,0,0,56,70.09Z"/><path class="cls-2" d="M56.2,55.57l8.72,5,6.14-1L71.64,58a.14.14,0,0,1,.08-.09l3.74-1.49a.18.18,0,0,0,.08-.07l1.87-3.82a.13.13,0,0,0,0-.18l-8.7-5a1.17,1.17,0,0,0-1,.1L60,51.81A10.25,10.25,0,0,0,56.2,55.57Z"/><path class="cls-1" d="M64.82,61.1l-9.34-5.34.27-.46a10.82,10.82,0,0,1,4-3.94L67.44,47a1.75,1.75,0,0,1,1.38-.15l.1.05,8.7,5a.66.66,0,0,1,.26.87L76,56.53a.63.63,0,0,1-.35.33l-3.58,1.42-.62,1.8Zm-7.9-5.72L65,60l5.65-.87.48-1.37a.63.63,0,0,1,.38-.4l3.6-1.44,1.66-3.37-8.34-4.79a.72.72,0,0,0-.5.07l-7.71,4.41A10,10,0,0,0,56.92,55.38Z"/><path class="cls-1" d="M68.69,71.24V66l9.55-5.49V53.48a1.21,1.21,0,0,0-1.82-1l-7.78,4.45a10.16,10.16,0,0,0-5.12,8.83v8.23a2,2,0,0,0,2.95,1.68l4.83-2.87Z"/><path class="cls-1" d="M65.47,76.41a2.53,2.53,0,0,1-1.22-.32A2.46,2.46,0,0,1,63,73.94V65.71a10.72,10.72,0,0,1,5.38-9.29L76.17,52a1.74,1.74,0,0,1,2.59,1.51v7.38l-9.55,5.48v4.6l3.12,1.81-5.6,3.31A2.38,2.38,0,0,1,65.47,76.41ZM77,52.78a.63.63,0,0,0-.34.1L68.9,57.33A9.66,9.66,0,0,0,64,65.71v8.23a1.43,1.43,0,0,0,2.16,1.23l4.07-2.41-2.1-1.22v-5.8l9.55-5.49V53.48a.68.68,0,0,0-.35-.6A.74.74,0,0,0,77,52.78Z"/><rect class="cls-1" x="58.94" y="56.41" width="1.04" height="10.05" transform="translate(-23.41 82.47) rotate(-60.18)"/><path class="cls-3" d="M73.65,60.5a1.22,1.22,0,0,1-.62-.16A1.52,1.52,0,0,1,72.35,59,3.67,3.67,0,0,1,74,56.06a1.38,1.38,0,0,1,2.2,1.27,3.66,3.66,0,0,1-1.68,2.91A1.85,1.85,0,0,1,73.65,60.5Zm1.27-3.66a.72.72,0,0,0-.37.13,2.59,2.59,0,0,0-1.16,2,.56.56,0,0,0,.16.47.6.6,0,0,0,.48-.1,2.66,2.66,0,0,0,1.16-2c0-.23-.06-.41-.16-.46A.18.18,0,0,0,74.92,56.84Z"/><rect class="cls-3" x="77.72" y="54.63" width="1.04" height="1.69"/><path class="cls-1" d="M65.57,54.63h-2.4V45.91A12.07,12.07,0,0,1,69,35.6a4.54,4.54,0,0,1,6.89,3.9v2.94A12.58,12.58,0,0,1,73.33,50l-1.91-1.46a10.15,10.15,0,0,0,2.08-6.14V39.5a2.14,2.14,0,0,0-3.25-1.84,9.66,9.66,0,0,0-4.68,8.25Z"/><path class="cls-3" d="M65.5,76.41a3.57,3.57,0,0,1-2.32-1l.75-.72a2.56,2.56,0,0,0,1.6.65Z"/><rect class="cls-2" x="63.41" y="78.45" width="0.8" height="9.06"/><rect class="cls-2" x="59.29" y="82.58" width="9.06" height="0.8"/><polygon class="cls-2" points="60.91 86.48 60.34 85.92 66.72 79.48 67.29 80.05 60.91 86.48"/><polygon class="cls-2" points="66.75 86.45 60.32 80.08 60.88 79.51 67.31 85.88 66.75 86.45"/><path class="cls-1" d="M122.67,86.2a9.86,9.86,0,0,1-4.46,7.73c-2.47,1.42-4.46.27-4.46-2.58a9.83,9.83,0,0,1,4.46-7.72C120.67,82.21,122.67,83.36,122.67,86.2Z"/><path class="cls-3" d="M116.21,95.06a2.79,2.79,0,0,1-1.42-.37,3.62,3.62,0,0,1-1.56-3.34A10.42,10.42,0,0,1,118,83.18a3.23,3.23,0,0,1,5.24,3,10.45,10.45,0,0,1-4.72,8.18A4.61,4.61,0,0,1,116.21,95.06Zm4-11.52a3.52,3.52,0,0,0-1.73.54,9.29,9.29,0,0,0-4.2,7.27A2.22,2.22,0,0,0,118,93.48a9.31,9.31,0,0,0,4.19-7.28,2.65,2.65,0,0,0-1-2.43A1.8,1.8,0,0,0,120.2,83.54Z"/><path class="cls-1" d="M119.26,88.17A2.35,2.35,0,0,1,118.21,90c-.59.34-1.06.06-1.06-.61a2.32,2.32,0,0,1,1.06-1.83C118.79,87.22,119.26,87.49,119.26,88.17Z"/><path class="cls-3" d="M117.73,90.67a1.08,1.08,0,0,1-.53-.14,1.27,1.27,0,0,1-.57-1.14A2.86,2.86,0,0,1,118,87.11a1.23,1.23,0,0,1,1.26-.08,1.25,1.25,0,0,1,.58,1.14,2.88,2.88,0,0,1-1.32,2.28A1.53,1.53,0,0,1,117.73,90.67Zm1-2.74a.45.45,0,0,0-.21.08,1.8,1.8,0,0,0-.8,1.38.41.41,0,0,0,0,.24.48.48,0,0,0,.23-.08,1.83,1.83,0,0,0,.79-1.38.41.41,0,0,0,0-.24Z"/><path class="cls-1" d="M72.34,115.33A7.24,7.24,0,0,1,69.07,121c-1.81,1-3.27.2-3.27-1.89a7.21,7.21,0,0,1,3.27-5.66C70.87,112.4,72.34,113.24,72.34,115.33Z"/><path class="cls-3" d="M67.61,122a2.12,2.12,0,0,1-1.11-.29,2.77,2.77,0,0,1-1.22-2.57A7.69,7.69,0,0,1,68.81,113a2.5,2.5,0,0,1,4,2.34,7.69,7.69,0,0,1-3.53,6.11A3.43,3.43,0,0,1,67.61,122Zm2.92-8.45a2.46,2.46,0,0,0-1.2.38,6.78,6.78,0,0,0-3,5.21,1.49,1.49,0,0,0,2.49,1.44,6.77,6.77,0,0,0,3-5.21,1.83,1.83,0,0,0-.7-1.67A1.15,1.15,0,0,0,70.53,113.51Z"/><path class="cls-3" d="M69.84,116.77a1.69,1.69,0,0,1-.77,1.34c-.43.25-.78,0-.78-.44a1.72,1.72,0,0,1,.78-1.35C69.5,116.07,69.84,116.27,69.84,116.77Z"/><path class="cls-2" d="M110,89.15l-.35-.2a1.43,1.43,0,0,0-1.38-.19l-.07,0-.44.26c-.07,0-5.95,3.38-6.25,3.57a.05.05,0,0,0,0,0l1.21,5.64h0l3,6s0,0,.06,0l6.56-3.75s0,0,0,0V93.65A5.64,5.64,0,0,0,110,89.15Z"/><path class="cls-1" d="M105.8,104.89l-.5-.17-.1-.27-3-6.11-1.27-5.94.33-.24,6.29-3.59.48-.28a2,2,0,0,1,1.9.21l.35.2a6.14,6.14,0,0,1,2.61,5v7.16l-.26.19Zm-2.63-6.77,2.76,5.49,5.88-3.36v-6.6a5.17,5.17,0,0,0-2.09-4.05l-.35-.2c-.51-.29-.74-.25-.9-.17l-.07,0-.4.24-5.94,3.39Z"/><path class="cls-1" d="M104.15,99.21v0l.29.43v.41l1.26,4.17s0,0,0,0l6.57-3.76s0,0,0,0V93.65a0,0,0,0,0,0,0l-6.57,3.76h0Z"/><path class="cls-1" d="M105.79,104.84l-.5-.19-.09-.26-1.29-4.25v-.32l-.28-.41,0-.36.15-.18L105.4,97,112.28,93l.55.3,0,.33v7.13l-.29.18ZM105,100l1.07,3.5,5.79-3.31v-5.7L106,97.79l-1.24,1.47.17.25Z"/><path class="cls-3" d="M105.65,104.3l-3.39-2a3.24,3.24,0,0,1-1.61-2.79v-5c0-1.73,1-2.53,2.35-1.78l.35.2a5.65,5.65,0,0,1,2.36,4.5v6.83A0,0,0,0,1,105.65,104.3Z"/><path class="cls-1" d="M105.68,104.91l-.29-.15-3.39-2a3.77,3.77,0,0,1-1.87-3.24v-5a2.58,2.58,0,0,1,1.07-2.35,2,2,0,0,1,2.06.12l.35.2a6.13,6.13,0,0,1,2.62,5v7.13ZM102.07,93a.69.69,0,0,0-.34.09,1.63,1.63,0,0,0-.56,1.45v5a2.72,2.72,0,0,0,1.35,2.34l2.67,1.54v-6a5.12,5.12,0,0,0-2.1-4l-.35-.21A1.36,1.36,0,0,0,102.07,93Z"/><rect class="cls-1" x="108.96" y="90.68" width="2.8" height="1.04" transform="translate(-30.65 66.42) rotate(-29.6)"/><rect class="cls-2" x="8.04" y="46.93" width="1.04" height="3.6"/><rect class="cls-2" x="6.74" y="48.21" width="3.64" height="1.04"/><rect class="cls-2" x="38.44" y="11.31" width="1.04" height="3.6"/><rect class="cls-2" x="37.14" y="12.59" width="3.64" height="1.04"/></g></g></svg>