<svg xmlns="http://www.w3.org/2000/svg" viewBox="0 0 87.22 152.43"><defs><style>.cls-1{fill:#150035;}.cls-2{fill:#ffb000;}.cls-3{fill:#fff;}</style></defs><g id="Layer_2" data-name="Layer 2"><g id="content"><path class="cls-1" d="M28.56,113.66l-1,.59a.46.46,0,0,1-.41,0l-1-.56c-.12-.07-.13-.17,0-.24l1-.59a.46.46,0,0,1,.41,0l1,.56C28.65,113.49,28.67,113.59,28.56,113.66Z"/><path class="cls-1" d="M31,115l-1,.6a.46.46,0,0,1-.41,0l-1-.56c-.13-.07-.14-.18,0-.24l1-.6a.46.46,0,0,1,.41,0l1,.56C31.06,114.87,31.07,115,31,115Z"/><path class="cls-1" d="M28.43,116.5l-1,.6a.46.46,0,0,1-.41,0l-1-.56c-.13-.07-.14-.18,0-.24l1-.59a.43.43,0,0,1,.41,0l1,.56C28.53,116.33,28.54,116.44,28.43,116.5Z"/><path class="cls-1" d="M33.5,116.51l-1,.59a.43.43,0,0,1-.41,0l-1-.56c-.13-.07-.14-.18,0-.24l1-.6a.46.46,0,0,1,.41,0l1,.56C33.6,116.34,33.61,116.45,33.5,116.51Z"/><path class="cls-1" d="M31,118l-1,.6a.46.46,0,0,1-.41,0l-1-.56c-.13-.07-.14-.18,0-.24l1-.6a.46.46,0,0,1,.41,0l1,.56C31.07,117.8,31.08,117.91,31,118Z"/><path class="cls-1" d="M35.91,117.9l-1,.59a.46.46,0,0,1-.41,0l-1-.56c-.12-.07-.14-.17,0-.24l1-.59a.46.46,0,0,1,.41,0l1,.56C36,117.73,36,117.83,35.91,117.9Z"/><path class="cls-1" d="M33.38,119.36l-1,.59a.43.43,0,0,1-.41,0l-1-.56c-.12-.07-.14-.17,0-.23l1-.6a.46.46,0,0,1,.41,0l1,.56C33.47,119.19,33.48,119.3,33.38,119.36Z"/><path class="cls-1" d="M38.31,119.28l-1,.6a.46.46,0,0,1-.41,0l-1-.56c-.12-.07-.14-.18,0-.24l1-.6a.46.46,0,0,1,.41,0l1,.56C38.4,119.11,38.41,119.22,38.31,119.28Z"/><path class="cls-1" d="M35.78,120.74l-1,.6a.46.46,0,0,1-.41,0l-1-.56c-.12-.07-.14-.18,0-.24l1-.59a.43.43,0,0,1,.41,0l1,.56C35.87,120.57,35.88,120.68,35.78,120.74Z"/><path class="cls-1" d="M40.85,120.75l-1,.59a.45.45,0,0,1-.42,0l-1-.56c-.12-.07-.13-.18,0-.24l1-.6a.48.48,0,0,1,.42,0l1,.56C40.94,120.58,41,120.69,40.85,120.75Z"/><path class="cls-1" d="M38.32,122.21l-1,.6a.48.48,0,0,1-.42,0l-1-.56c-.12-.07-.13-.18,0-.24l1-.6a.48.48,0,0,1,.42,0l1,.56C38.41,122,38.42,122.15,38.32,122.21Z"/><path class="cls-1" d="M43.25,122.14l-1,.59a.48.48,0,0,1-.42,0l-1-.56c-.12-.07-.13-.17,0-.24l1-.59a.48.48,0,0,1,.42,0l1,.56C43.34,122,43.36,122.07,43.25,122.14Z"/><path class="cls-1" d="M40.72,123.6l-1,.59a.45.45,0,0,1-.42,0l-1-.56c-.12-.07-.13-.17,0-.23l1-.6a.48.48,0,0,1,.42,0l1,.56C40.81,123.43,40.83,123.54,40.72,123.6Z"/><path class="cls-1" d="M45.65,123.52l-1,.6a.46.46,0,0,1-.41,0l-1-.56c-.12-.07-.13-.18,0-.24l1-.6a.46.46,0,0,1,.41,0l1,.56C45.74,123.35,45.76,123.46,45.65,123.52Z"/><path class="cls-1" d="M43.12,125l-1,.6a.46.46,0,0,1-.41,0l-1-.56c-.12-.07-.13-.18,0-.24l1-.59a.43.43,0,0,1,.41,0l1,.56C43.21,124.81,43.23,124.92,43.12,125Z"/><path class="cls-1" d="M48.19,125l-1,.59a.43.43,0,0,1-.41,0l-1-.56c-.12-.07-.13-.18,0-.24l1-.6a.46.46,0,0,1,.41,0l1,.56C48.28,124.82,48.3,124.93,48.19,125Z"/><path class="cls-1" d="M45.66,126.45l-1,.6a.46.46,0,0,1-.41,0l-1-.56c-.12-.07-.13-.18,0-.24l1-.6a.46.46,0,0,1,.41,0l1,.56C45.75,126.28,45.77,126.39,45.66,126.45Z"/><path class="cls-1" d="M50.59,126.38l-1,.59a.46.46,0,0,1-.41,0l-1-.56c-.13-.07-.14-.17,0-.24l1-.59a.46.46,0,0,1,.41,0l1,.56C50.69,126.21,50.7,126.31,50.59,126.38Z"/><path class="cls-1" d="M48.06,127.84l-1,.59a.43.43,0,0,1-.41,0l-1-.56c-.13-.07-.14-.17,0-.23l1-.6a.46.46,0,0,1,.41,0l1,.56C48.16,127.67,48.17,127.78,48.06,127.84Z"/><path class="cls-1" d="M53,127.76l-1,.6a.46.46,0,0,1-.41,0l-1-.56c-.12-.07-.14-.18,0-.24l1-.6a.46.46,0,0,1,.41,0l1,.56C53.09,127.59,53.1,127.7,53,127.76Z"/><path class="cls-1" d="M50.46,129.22l-1,.6a.46.46,0,0,1-.41,0l-1-.56c-.12-.07-.14-.18,0-.24l1-.59a.43.43,0,0,1,.41,0l1,.56C50.56,129.05,50.57,129.16,50.46,129.22Z"/><path class="cls-1" d="M55.54,129.23l-1,.59a.43.43,0,0,1-.41,0l-1-.56c-.12-.07-.14-.18,0-.24l1-.6a.46.46,0,0,1,.41,0l1,.56C55.63,129.06,55.64,129.17,55.54,129.23Z"/><path class="cls-1" d="M53,130.69l-1,.6a.46.46,0,0,1-.41,0l-1-.56c-.12-.07-.14-.18,0-.24l1-.6a.46.46,0,0,1,.41,0l1,.56C53.1,130.52,53.11,130.63,53,130.69Z"/><path class="cls-1" d="M55.53,126.3l-1,.6a.46.46,0,0,1-.41,0l-1-.56c-.12-.07-.13-.18,0-.24l1-.59a.46.46,0,0,1,.41,0l1,.57C55.62,126.14,55.64,126.24,55.53,126.3Z"/><path class="cls-1" d="M58.07,127.77l-1,.59a.43.43,0,0,1-.41,0l-1-.56c-.12-.08-.14-.18,0-.24l1-.6a.46.46,0,0,1,.41,0l1,.56C58.16,127.6,58.17,127.71,58.07,127.77Z"/><path class="cls-1" d="M60.6,126.31l-1,.59a.46.46,0,0,1-.41,0l-1-.57c-.12-.07-.14-.17,0-.23l1-.6a.46.46,0,0,1,.41,0l1,.56C60.69,126.14,60.7,126.25,60.6,126.31Z"/><path class="cls-1" d="M63.13,124.85l-1,.59a.46.46,0,0,1-.41,0l-1-.57c-.12-.07-.14-.17,0-.23l1-.6a.46.46,0,0,1,.41,0l1,.56C63.22,124.68,63.23,124.79,63.13,124.85Z"/><path class="cls-1" d="M65.66,123.39l-1,.59a.43.43,0,0,1-.41,0l-1-.56c-.12-.07-.14-.17,0-.23l1-.6a.46.46,0,0,1,.41,0l1,.56C65.75,123.22,65.76,123.33,65.66,123.39Z"/><path class="cls-1" d="M68.19,121.93l-1,.59a.46.46,0,0,1-.41,0l-1-.56c-.12-.07-.14-.17,0-.24l1-.59a.46.46,0,0,1,.41,0l1,.56C68.28,121.76,68.29,121.86,68.19,121.93Z"/><path class="cls-1" d="M70.72,120.46l-1,.6a.46.46,0,0,1-.41,0l-1-.56c-.12-.07-.14-.18,0-.24l1-.59a.46.46,0,0,1,.41,0l1,.57C70.81,120.3,70.82,120.4,70.72,120.46Z"/><path class="cls-1" d="M73.25,119l-1,.6a.46.46,0,0,1-.41,0l-1-.56c-.12-.07-.14-.18,0-.24l1-.59a.46.46,0,0,1,.41,0l1,.57C73.34,118.84,73.35,118.94,73.25,119Z"/><path class="cls-1" d="M75.78,117.54l-1,.6a.46.46,0,0,1-.41,0l-1-.56c-.12-.07-.14-.18,0-.24l1-.59a.46.46,0,0,1,.41,0l1,.57C75.87,117.38,75.88,117.48,75.78,117.54Z"/><path class="cls-1" d="M57.94,130.62l-1,.59a.48.48,0,0,1-.42,0l-1-.56c-.12-.07-.14-.17,0-.24l1-.59a.46.46,0,0,1,.41,0l1,.56C58,130.45,58,130.55,57.94,130.62Z"/><path class="cls-1" d="M60.47,129.15l-1,.6a.48.48,0,0,1-.42,0l-1-.56c-.12-.07-.14-.18,0-.24l1-.59a.46.46,0,0,1,.41,0l1,.57C60.56,129,60.57,129.09,60.47,129.15Z"/><path class="cls-1" d="M63,127.69l-1,.6a.48.48,0,0,1-.42,0l-1-.56c-.12-.07-.14-.18,0-.24l1-.59a.48.48,0,0,1,.42,0l1,.57C63.09,127.53,63.1,127.63,63,127.69Z"/><path class="cls-1" d="M65.53,126.23l-1,.6a.48.48,0,0,1-.42,0l-1-.56c-.12-.07-.14-.18,0-.24l1-.59a.48.48,0,0,1,.42,0l1,.57C65.62,126.07,65.63,126.17,65.53,126.23Z"/><path class="cls-1" d="M68.06,124.77l-1,.6a.48.48,0,0,1-.42,0l-1-.56c-.12-.07-.14-.18,0-.24l1-.59a.45.45,0,0,1,.42,0l1,.56C68.15,124.6,68.16,124.71,68.06,124.77Z"/><path class="cls-1" d="M70.59,123.31l-1,.6a.48.48,0,0,1-.42,0l-1-.56c-.12-.07-.14-.18,0-.24l1-.6a.48.48,0,0,1,.42,0l1,.56C70.68,123.14,70.69,123.25,70.59,123.31Z"/><path class="cls-1" d="M73.12,121.85l-1,.6a.48.48,0,0,1-.42,0l-1-.56c-.12-.07-.14-.18,0-.24l1-.6a.48.48,0,0,1,.42,0l1,.56C73.21,121.68,73.22,121.79,73.12,121.85Z"/><path class="cls-1" d="M75.65,120.39l-1,.6a.48.48,0,0,1-.42,0l-1-.56c-.12-.07-.14-.18,0-.24l1-.6a.48.48,0,0,1,.42,0l1,.56C75.74,120.22,75.75,120.33,75.65,120.39Z"/><path class="cls-1" d="M12.5,146.1l-1,.59a.45.45,0,0,1-.42,0l-1-.56c-.12-.07-.13-.17,0-.23l1-.6a.48.48,0,0,1,.42,0l1,.56C12.59,145.93,12.6,146,12.5,146.1Z"/><path class="cls-1" d="M14.9,147.48l-1,.6a.48.48,0,0,1-.42,0l-1-.56c-.12-.07-.13-.18,0-.24l1-.59a.45.45,0,0,1,.42,0l1,.56C15,147.31,15,147.42,14.9,147.48Z"/><path class="cls-1" d="M12.37,148.94l-1,.6a.48.48,0,0,1-.42,0L10,149c-.12-.07-.13-.18,0-.24l1-.59a.48.48,0,0,1,.42,0l1,.57C12.46,148.78,12.48,148.88,12.37,148.94Z"/><path class="cls-1" d="M17.3,148.87l-1,.59a.43.43,0,0,1-.41,0l-1-.56c-.12-.07-.13-.18,0-.24l1-.6a.46.46,0,0,1,.41,0l1,.56C17.39,148.7,17.41,148.81,17.3,148.87Z"/><path class="cls-1" d="M14.77,150.33l-1,.6a.46.46,0,0,1-.41,0l-1-.56c-.12-.07-.13-.18,0-.24l1-.6a.46.46,0,0,1,.41,0l1,.56C14.86,150.16,14.88,150.27,14.77,150.33Z"/><path class="cls-1" d="M19.84,150.34l-1,.59a.43.43,0,0,1-.41,0l-1-.56c-.12-.07-.13-.17,0-.23l1-.6a.46.46,0,0,1,.41,0l1,.56C19.93,150.17,20,150.28,19.84,150.34Z"/><path class="cls-1" d="M17.31,151.8l-1,.59a.46.46,0,0,1-.41,0l-1-.57c-.12-.07-.13-.17,0-.23l1-.6a.46.46,0,0,1,.41,0l1,.56C17.4,151.63,17.42,151.74,17.31,151.8Z"/><path class="cls-1" d="M22.37,148.88l-1,.59a.46.46,0,0,1-.41,0l-1-.56c-.12-.07-.13-.17,0-.24l1-.59a.46.46,0,0,1,.41,0l1,.56C22.46,148.71,22.48,148.81,22.37,148.88Z"/><path class="cls-1" d="M24.9,147.41l-1,.6a.46.46,0,0,1-.41,0l-1-.56c-.12-.07-.13-.18,0-.24l1-.59a.46.46,0,0,1,.41,0l1,.57C25,147.25,25,147.35,24.9,147.41Z"/><path class="cls-1" d="M27.43,146l-1,.6a.46.46,0,0,1-.41,0L25,146c-.12-.07-.13-.18,0-.24l1-.59a.46.46,0,0,1,.41,0l1,.57C27.52,145.79,27.54,145.89,27.43,146Z"/><path class="cls-1" d="M22.24,151.72l-1,.6a.46.46,0,0,1-.41,0l-1-.56c-.13-.07-.14-.18,0-.24l1-.59a.43.43,0,0,1,.41,0l1,.56C22.34,151.55,22.35,151.66,22.24,151.72Z"/><path class="cls-1" d="M24.77,150.26l-1,.6a.46.46,0,0,1-.41,0l-1-.56c-.13-.07-.14-.18,0-.24l1-.6a.46.46,0,0,1,.41,0l1,.56C24.87,150.09,24.88,150.2,24.77,150.26Z"/><path class="cls-1" d="M27.3,148.8l-1,.6a.46.46,0,0,1-.41,0l-1-.56c-.13-.07-.14-.18,0-.24l1-.6a.46.46,0,0,1,.41,0l1,.56C27.4,148.63,27.41,148.74,27.3,148.8Z"/><path class="cls-1" d="M2.65,143.28l-1,.59a.45.45,0,0,1-.42,0l-1-.56c-.12-.07-.14-.18,0-.24l1-.6a.46.46,0,0,1,.41,0l1,.56C2.74,143.11,2.75,143.22,2.65,143.28Z"/><path class="cls-1" d="M5.05,144.67l-1,.59a.48.48,0,0,1-.42,0l-1-.56c-.12-.07-.13-.17,0-.24l1-.59a.48.48,0,0,1,.42,0l1,.56C5.14,144.5,5.15,144.6,5.05,144.67Z"/><path class="cls-1" d="M2.52,146.13l-1,.59a.45.45,0,0,1-.42,0l-1-.56c-.12-.07-.13-.17,0-.23l1-.6a.48.48,0,0,1,.42,0l1,.56C2.61,146,2.62,146.07,2.52,146.13Z"/><path class="cls-1" d="M7.59,146.13l-1,.6a.48.48,0,0,1-.42,0l-1-.56c-.12-.07-.13-.18,0-.24l1-.59a.45.45,0,0,1,.42,0l1,.56C7.68,146,7.7,146.07,7.59,146.13Z"/><path class="cls-1" d="M5.06,147.59l-1,.6a.48.48,0,0,1-.42,0l-1-.56c-.12-.07-.13-.18,0-.24l1-.59a.48.48,0,0,1,.42,0l1,.57C5.15,147.43,5.17,147.53,5.06,147.59Z"/><path class="cls-1" d="M10.12,144.67l-1,.6a.48.48,0,0,1-.42,0l-1-.56c-.12-.07-.13-.18,0-.24l1-.6a.48.48,0,0,1,.42,0l1,.56C10.21,144.5,10.23,144.61,10.12,144.67Z"/><path class="cls-1" d="M12.65,143.21l-1,.6a.46.46,0,0,1-.41,0l-1-.56c-.12-.07-.13-.18,0-.24l1-.6a.48.48,0,0,1,.42,0l1,.56C12.74,143,12.76,143.15,12.65,143.21Z"/><path class="cls-1" d="M10,147.52l-1,.59a.43.43,0,0,1-.41,0l-1-.56c-.12-.07-.13-.18,0-.24l1-.6a.46.46,0,0,1,.41,0l1,.56C10.08,147.35,10.1,147.46,10,147.52Z"/><path class="cls-2" d="M74.52,112.11V66.58L68.67,66v2.13L53,59c-2.73-1.57-6.85-1.74-9.21-.38l-9.12,5.18.21-1.12H27.67V108c0,1.07.72,2.21,2.26,3.09L49.25,122.2c2.73,1.58,6.85,1.75,9.21.38l14.47-8.27a2.79,2.79,0,0,0,1.59-2.18h0Z"/><path class="cls-1" d="M54.45,124A11.1,11.1,0,0,1,49,122.65L29.67,111.5c-1.66-1-2.57-2.26-2.52-3.57V62.2h8.31l-.12.63,8.14-4.62c2.54-1.47,6.81-1.3,9.73.38l14.94,8.63v-1.8l6.89.69v46h0a3.32,3.32,0,0,1-1.85,2.62L58.71,123A8.6,8.6,0,0,1,54.45,124ZM28.19,63.24V108c0,.93.69,1.89,2,2.64l19.32,11.16c2.58,1.49,6.47,1.66,8.69.38l14.48-8.27A2.3,2.3,0,0,0,74,112.1h.52l-.52,0v-45l-4.81-.48V69l-16.5-9.53C50.11,58,46.21,57.83,44,59.11L33.9,64.85l.3-1.61Z"/><path class="cls-1" d="M50.86,122.92a10.62,10.62,0,0,0,2,.47V69.64h-2Z"/><path class="cls-1" d="M53.42,124l-.59-.08a11.14,11.14,0,0,1-2.14-.5l-.35-.12V69.12h3.08Zm-2-1.45c.32.09.66.17,1,.24V70.16h-1Z"/><path class="cls-1" d="M29.87,62.65h-2.2v45.23c0,1.05.71,2.18,2.2,3.06Z"/><path class="cls-1" d="M30.4,111.85l-.79-.46c-1.61-1-2.51-2.24-2.46-3.54V62.13H30.4ZM28.19,63.17v44.71A2.71,2.71,0,0,0,29.35,110V63.17Z"/><path class="cls-1" d="M68.67,68.13,53,59.05c-2.73-1.57-6.85-1.75-9.21-.38L55.1,64.26,55,123.5a7.82,7.82,0,0,0,3.51-.91l14.47-8.27a2.8,2.8,0,0,0,1.59-2.19h0V66.59L68.67,66Z"/><path class="cls-1" d="M54.43,124v-.55l.15-58.9L42.64,58.7l.84-.48c2.54-1.47,6.81-1.3,9.73.38l14.94,8.62V65.43l6.89.69v46a3.31,3.31,0,0,1-1.85,2.62L58.71,123A8.27,8.27,0,0,1,55,124ZM45,58.69l10.67,5.25-.15,59a6.91,6.91,0,0,0,2.72-.8l14.48-8.28A2.27,2.27,0,0,0,74,112.1l.52-.08H74v-45l-4.81-.48V69L52.69,59.5A10.15,10.15,0,0,0,45,58.69Z"/><rect class="cls-2" x="71.81" y="70.02" width="1.04" height="44.17"/><rect class="cls-2" x="56.78" y="78.27" width="1.04" height="44.17"/><path class="cls-2" d="M74.3,12.59l-.48-.27a1.94,1.94,0,0,0-1.88-.27l-.1,0-.59.35c-.09,0-10.28,6.1-10.7,6.35,0,0,0,0,0,.05l1.65,7.7h0l4.07,50.14a.05.05,0,0,0,.08,0l11.12-6.6a.08.08,0,0,0,0-.05l0-51.34A7.68,7.68,0,0,0,74.3,12.59Z"/><path class="cls-1" d="M66.38,77.3l-.28-.09a.53.53,0,0,1-.34-.36l0-.11L61.66,26.63l-1.71-8,.33-.24C60.38,18.28,70.89,12,71,12l.73-.41a2.51,2.51,0,0,1,2.33.31l.48.27A8.16,8.16,0,0,1,78,18.73l0,51.63-.27.2ZM62.67,26.37l0,.13,4,49.39L77,69.81l0-51.08A7.25,7.25,0,0,0,74,13l-.48-.27c-.76-.44-1.15-.37-1.4-.25l-.09,0-.56.34-10.4,6.17Z"/><path class="cls-1" d="M64.19,27.8s0,0,0,0l.37,42.55,0,.55,1.73,5.69s0,0,.06,0L77.45,70a.08.08,0,0,0,0,0l0-51.27a0,0,0,0,0-.07,0L66.32,25.3h0Z"/><path class="cls-1" d="M66.37,77.23,65.86,77l-.1-.27L64,71l0-.64-.37-42.72.14-.18L66,24.88l11.42-6.79.57.3,0,.34,0,51.56-.26.19Zm-1.32-6.37,1.53,5L77,69.73l0-50.16L66.65,25.71,64.7,28l.37,42.37Z"/><path class="cls-2" d="M66.19,76.71,61.57,74a4.4,4.4,0,0,1-2.2-3.81l0-48.83C59.41,19,60.85,18,62.62,19l.48.28a7.69,7.69,0,0,1,3.21,6.14l0,51.28S66.23,76.73,66.19,76.71Z"/><path class="cls-1" d="M66.22,77.24a.6.6,0,0,1-.29-.08l-4.62-2.67a4.91,4.91,0,0,1-2.46-4.26l0-48.83a3.37,3.37,0,0,1,1.37-3,2.57,2.57,0,0,1,2.62.17l.48.28a8.14,8.14,0,0,1,3.47,6.59l0,51.58-.28.19A.6.6,0,0,1,66.22,77.24ZM61.35,19.11a1.08,1.08,0,0,0-.57.15,2.38,2.38,0,0,0-.85,2.14l0,48.83a3.91,3.91,0,0,0,1.94,3.36l3.92,2.27,0-50.48a7.23,7.23,0,0,0-3-5.68l-.48-.28A2.11,2.11,0,0,0,61.35,19.11Z"/><rect class="cls-2" x="66.33" y="24.5" width="11.24" height="1.04" transform="translate(-2.71 40.15) rotate(-30.63)"/><rect class="cls-1" x="62.97" y="16.18" width="13.21" height="1.04" transform="translate(1.16 37.66) rotate(-30.53)"/><path class="cls-1" d="M73.46,96.46a8.78,8.78,0,0,1-4,6.89c-2.19,1.27-4,.24-4-2.3a8.78,8.78,0,0,1,4-6.88C71.68,92.9,73.46,93.93,73.46,96.46Z"/><path class="cls-2" d="M67.71,104.42a2.63,2.63,0,0,1-1.3-.34,3.29,3.29,0,0,1-1.42-3,9.23,9.23,0,0,1,4.23-7.33A2.93,2.93,0,0,1,74,96.46a9.22,9.22,0,0,1-4.24,7.34A4.09,4.09,0,0,1,67.71,104.42Zm3.55-10.28a3.11,3.11,0,0,0-1.52.48A8.21,8.21,0,0,0,66,101.05a1.92,1.92,0,0,0,3.19,1.85,8.22,8.22,0,0,0,3.72-6.44A2.3,2.3,0,0,0,72,94.34,1.5,1.5,0,0,0,71.26,94.14Z"/><path class="cls-1" d="M70.43,98.21a2.09,2.09,0,0,1-1,1.64c-.52.3-.94.05-.94-.55a2.08,2.08,0,0,1,.94-1.63C70,97.37,70.43,97.61,70.43,98.21Z"/><path class="cls-2" d="M69.06,100.5a1,1,0,0,1-.5-.14A1.14,1.14,0,0,1,68,99.3a2.58,2.58,0,0,1,1.2-2.08,1.17,1.17,0,0,1,1.19-.07A1.19,1.19,0,0,1,71,98.21a2.59,2.59,0,0,1-1.21,2.09A1.36,1.36,0,0,1,69.06,100.5Zm.82-2.45-.14.07a1.61,1.61,0,0,0-.68,1.18.42.42,0,0,0,0,.16.9.9,0,0,0,.14-.06,1.59,1.59,0,0,0,.69-1.19A.4.4,0,0,0,69.88,98.05Z"/><path class="cls-3" d="M43.14,99.71,37.72,93a4.66,4.66,0,0,1-1.94-3.71l-3-7.43c0-1.43,3.89-3.38,5-2.76l8.15,4.71a4.66,4.66,0,0,1,1.94,3.71v8.72C47.81,97.65,44.21,100.33,43.14,99.71Z"/><path class="cls-1" d="M43.53,100.32a1.28,1.28,0,0,1-.65-.16l-.15-.12-5.36-6.66a5.19,5.19,0,0,1-2.11-4l-3-7.53c0-1.13,1.47-2.1,2.1-2.47,1.14-.65,2.77-1.24,3.64-.74l8.15,4.71a5.13,5.13,0,0,1,2.2,4.16v8.72c0,1.28-1.82,2.82-3,3.48A4,4,0,0,1,43.53,100.32Zm-.07-1a2.74,2.74,0,0,0,1.37-.48c1.39-.8,2.46-2,2.46-2.58V87.5a4.16,4.16,0,0,0-1.68-3.26l-8.15-4.71a3.93,3.93,0,0,0-2.6.75,3.28,3.28,0,0,0-1.57,1.48l3,7.51A4.16,4.16,0,0,0,38,92.53l.14.12Z"/><path class="cls-1" d="M37.44,89l1.94,6.1,3.76,4.66c1.07.62,4.67-2.06,4.67-3.49V87.5a4.86,4.86,0,0,0-.72-2.42L44,86.87Z"/><path class="cls-1" d="M43.53,100.32a1.28,1.28,0,0,1-.65-.16l-.15-.12L38.89,95.2l-2.1-6.58,7-2.22,3.5-2,.26.44a5.37,5.37,0,0,1,.8,2.69v8.72c0,1.28-1.82,2.82-3,3.48A4,4,0,0,1,43.53,100.32Zm-.07-1a2.74,2.74,0,0,0,1.37-.48c1.39-.8,2.46-2,2.46-2.58V87.5a4,4,0,0,0-.41-1.7l-2.74,1.57-6,1.92,1.75,5.5Z"/><path class="cls-2" d="M42.8,99.56l-8.15-4.71a4.66,4.66,0,0,1-1.94-3.71V82.42c0-1.43.87-2.09,1.94-1.47l8.15,4.71a4.66,4.66,0,0,1,1.94,3.71v8.72C44.74,99.52,43.87,100.18,42.8,99.56Z"/><path class="cls-1" d="M43.57,100.31a2.09,2.09,0,0,1-1-.3L34.39,95.3a5.14,5.14,0,0,1-2.21-4.16V82.42a2.23,2.23,0,0,1,.94-2,1.74,1.74,0,0,1,1.79.1l8.15,4.71a5.13,5.13,0,0,1,2.2,4.16v8.72a2.22,2.22,0,0,1-.93,2A1.54,1.54,0,0,1,43.57,100.31ZM33.88,81.24a.48.48,0,0,0-.24.06,1.28,1.28,0,0,0-.41,1.12v8.72a4.16,4.16,0,0,0,1.68,3.26l8.15,4.71a.81.81,0,0,0,.75.1,1.28,1.28,0,0,0,.41-1.12V89.37a4.14,4.14,0,0,0-1.68-3.26L34.39,81.4A1.1,1.1,0,0,0,33.88,81.24Z"/><rect class="cls-1" x="43.72" y="110.76" width="1.04" height="8.59" transform="translate(-77.58 96.22) rotate(-60.17)"/><rect class="cls-1" x="40.85" y="108.43" width="1.04" height="4.94" transform="translate(-75.36 91.27) rotate(-60)"/><path class="cls-2" d="M80.21,80.55v-8.9l-7.73-.78v2.81l-20.78-12c-3.6-2.08-9-2.3-12.16-.5L26.79,68.49,27.07,67H17.61v8.5c-.05,1.42.95,2.92,3,4.09L46.12,94.34c3.6,2.08,9.05,2.31,12.16.51l19.83-11.4a3.72,3.72,0,0,0,2.1-2.89h0Z"/><path class="cls-1" d="M53,96.57a14.66,14.66,0,0,1-7.14-1.78L20.33,80.05c-2.13-1.23-3.31-2.89-3.24-4.56v-9H27.7l-.19,1,11.77-6.75c3.26-1.88,8.95-1.66,12.68.5L72,72.77V70.29l8.77.88v9.91h-.07a4.46,4.46,0,0,1-2.29,2.82L58.54,95.3A11.34,11.34,0,0,1,53,96.57Zm-34.86-29v8c-.06,1.29.93,2.61,2.71,3.64L46.38,93.89c3.45,2,8.67,2.22,11.64.51L77.85,83a3.2,3.2,0,0,0,1.84-2.46V72.12L73,71.44v3.14L51.44,62.13c-3.45-2-8.67-2.22-11.64-.5L26.07,69.51l.37-2Z"/><path class="cls-1" d="M48.25,95.29a15,15,0,0,0,2.69.63V76.16H48.25Z"/><path class="cls-1" d="M51.46,96.51l-.59-.08a14.56,14.56,0,0,1-2.79-.65l-.35-.12v-20h3.73Zm-2.69-1.6a14.2,14.2,0,0,0,1.65.4V76.68H48.77Z"/><path class="cls-1" d="M72.48,73.69l-20.78-12c-3.6-2.08-9-2.3-12.16-.5l14,13.68.08,21.18a10.38,10.38,0,0,0,4.62-1.19l19.83-11.4a3.72,3.72,0,0,0,2.1-2.89h0v-8.9l-7.73-.78Z"/><path class="cls-1" d="M53.14,96.6l-.08-21.51-14.37-14,.59-.34c3.26-1.88,8.95-1.66,12.68.5L72,72.78V70.3l8.77.89v9.39l-.07.5a4.42,4.42,0,0,1-2.29,2.83L58.54,95.31a10.68,10.68,0,0,1-4.86,1.26ZM40.43,61.32,54.1,74.64l.07,20.86A9.49,9.49,0,0,0,58,94.41L77.85,83a3.2,3.2,0,0,0,1.84-2.46v-.06h0V72.13L73,71.45v3.14L51.44,62.14A13.3,13.3,0,0,0,40.43,61.32Z"/><path class="cls-3" d="M78.11,74.86,58.28,86.26c-3.11,1.8-8.56,1.58-12.16-.5L20.59,71c-3.6-2.08-4-5.22-.87-7L39.54,52.6c3.12-1.8,8.56-1.58,12.16.5L77.24,67.84C80.84,69.92,81.23,73.06,78.11,74.86Z"/><path class="cls-1" d="M53,88a14.66,14.66,0,0,1-7.14-1.78L20.33,71.47c-2.06-1.19-3.24-2.8-3.24-4.42a4.12,4.12,0,0,1,2.37-3.5l19.82-11.4c3.26-1.88,8.95-1.66,12.68.5L77.5,67.39c2,1.19,3.23,2.8,3.23,4.42a4.13,4.13,0,0,1-2.36,3.5h0L58.54,86.72A11.34,11.34,0,0,1,53,88ZM44.82,51.9a10.18,10.18,0,0,0-5,1.15L20,64.45a3.14,3.14,0,0,0-1.85,2.6c0,1.24,1,2.52,2.72,3.52L46.38,85.31c3.45,2,8.68,2.22,11.64.5l19.83-11.4a3.13,3.13,0,0,0,1.84-2.6c0-1.24-1-2.52-2.71-3.52L51.44,53.55A13.63,13.63,0,0,0,44.82,51.9Z"/><rect class="cls-2" x="76.79" y="76.19" width="1.04" height="7.1"/><rect class="cls-2" x="56.24" y="87.55" width="1.04" height="7.1"/><path class="cls-2" d="M72.52,83.78a1.13,1.13,0,0,1-.57-.15,1.36,1.36,0,0,1-.62-1.24,3.24,3.24,0,0,1,1.48-2.58,1.26,1.26,0,0,1,2,1.16,3.22,3.22,0,0,1-1.49,2.57A1.6,1.6,0,0,1,72.52,83.78Zm1.1-3.16a.57.57,0,0,0-.29.1,2.18,2.18,0,0,0-1,1.67c0,.22.06.32.1.34s.15,0,.34-.09a2.17,2.17,0,0,0,1-1.67c0-.22-.07-.32-.1-.34Z"/><path class="cls-2" d="M69.49,83.75a2.69,2.69,0,0,1-1.22,2.12c-.68.39-1.23.07-1.23-.71A2.7,2.7,0,0,1,68.27,83C69,82.65,69.49,83,69.49,83.75Z"/><path class="cls-2" d="M62,89.9a1.17,1.17,0,0,1-.58-.15,1.38,1.38,0,0,1-.62-1.24,3.25,3.25,0,0,1,1.49-2.58,1.26,1.26,0,0,1,2,1.16,3.27,3.27,0,0,1-1.48,2.58A1.69,1.69,0,0,1,62,89.9ZM63,86.74a.55.55,0,0,0-.28.1,2.17,2.17,0,0,0-1,1.67c0,.22.07.32.1.34s.15,0,.35-.09a2.18,2.18,0,0,0,1-1.67c0-.22-.06-.32-.1-.34Z"/><rect class="cls-2" x="59.49" y="90.23" width="11.84" height="1.04" transform="translate(-36.55 44.72) rotate(-29.92)"/><path class="cls-2" d="M73.77,72.21,54.32,83.38a5.25,5.25,0,0,1-4.73-.2L24.4,68.59c-1.4-.81-1.56-2-.34-2.73L43.5,54.69a5.27,5.27,0,0,1,4.74.2L73.43,69.47C74.83,70.28,75,71.5,73.77,72.21Z"/><path class="cls-1" d="M52.26,84.37a6,6,0,0,1-2.93-.74L24.14,69a2.42,2.42,0,0,1-1.42-2,1.9,1.9,0,0,1,1.08-1.64L43.24,54.24a5.74,5.74,0,0,1,5.26.2L73.69,69a2.45,2.45,0,0,1,1.42,2A1.92,1.92,0,0,1,74,72.66h0L54.58,83.83A4.76,4.76,0,0,1,52.26,84.37Zm-6.7-29.63a3.71,3.71,0,0,0-1.8.4L24.32,66.31a1,1,0,0,0-.56.74c0,.36.33.77.9,1.09L49.85,82.73a4.76,4.76,0,0,0,4.21.19L73.51,71.75a.94.94,0,0,0,.56-.73c0-.36-.34-.77-.9-1.1L48,55.34A5,5,0,0,0,45.56,54.74Z"/><path class="cls-1" d="M24,68.37l.09-.06L43.5,57.14a5.27,5.27,0,0,1,4.74.2L73.43,71.92a3.61,3.61,0,0,1,.43.3c1.1-.71.93-1.89-.43-2.67L48.24,55a5.24,5.24,0,0,0-4.74-.19L24.06,65.94C23,66.56,23,67.59,24,68.37Z"/><path class="cls-2" d="M46.12,57.36v7.08a1,1,0,0,0,.57.87,3.11,3.11,0,0,0,2.82,0,1,1,0,0,0,.59-.86v-7a0,0,0,0,0,0,0L47.44,57h0l-1.3.35S46.12,57.35,46.12,57.36Z"/><path class="cls-1" d="M48.14,66.18a3.4,3.4,0,0,1-1.7-.42,1.46,1.46,0,0,1-.83-1.36l0-7.44.4-.12,1.42-.38,3.2.53,0,.46v7a1.45,1.45,0,0,1-.86,1.31A3.4,3.4,0,0,1,48.14,66.18Zm-1.5-8.44v6.7c0,.16.11.3.31.42a2.61,2.61,0,0,0,2.31,0c.21-.12.33-.26.32-.38V57.88l-2.13-.36Z"/><path class="cls-1" d="M50.09,57.44l-1.68-.28v8.5a2.61,2.61,0,0,0,1.11-.31.94.94,0,0,0,.59-.86v-7A0,0,0,0,0,50.09,57.44Z"/><path class="cls-3" d="M46.71,56.55a3.08,3.08,0,0,1,2.82,0c.78.45.77,1.18,0,1.63a3.15,3.15,0,0,1-2.82,0A.86.86,0,0,1,46.71,56.55Z"/><path class="cls-1" d="M48.13,59.05a3.31,3.31,0,0,1-1.7-.43,1.5,1.5,0,0,1-.84-1.27,1.53,1.53,0,0,1,.86-1.26h0a3.67,3.67,0,0,1,3.35,0,1.37,1.37,0,0,1,0,2.53A3.4,3.4,0,0,1,48.13,59.05ZM47,57c-.24.14-.32.28-.32.36s.08.23.32.37a2.62,2.62,0,0,0,2.3,0c.24-.13.33-.27.33-.36s-.09-.23-.32-.37A2.64,2.64,0,0,0,47,57Z"/><rect class="cls-3" x="47.73" y="62.68" width="0.8" height="9.06"/><rect class="cls-3" x="43.6" y="66.8" width="9.06" height="0.8"/><rect class="cls-3" x="43.6" y="66.8" width="9.06" height="0.8" transform="translate(-33.49 54.1) rotate(-45.27)"/><rect class="cls-3" x="47.73" y="62.68" width="0.8" height="9.06" transform="translate(-33.49 54.09) rotate(-45.26)"/><path class="cls-2" d="M43.91,53.54l0,2.55a2,2,0,0,0,1.21,1.84,6.6,6.6,0,0,0,6,.06,2,2,0,0,0,1.24-1.81l0-2.45s0,0,0,0l-5.59-.93h0L44,53.49A.07.07,0,0,0,43.91,53.54Z"/><path class="cls-1" d="M48.19,59.2a6.69,6.69,0,0,1-3.31-.82,2.57,2.57,0,0,1-1.46-2.33l0-2.92.43-.14,2.83-.75h.12l6,1,0,.48,0,2.45a2.54,2.54,0,0,1-1.51,2.26A6.48,6.48,0,0,1,48.19,59.2Zm-3.75-5.3,0,2.19a1.58,1.58,0,0,0,.95,1.39,6.13,6.13,0,0,0,5.43.06c.65-.37,1-.85,1-1.33l0-2.07-5.08-.85Z"/><path class="cls-1" d="M52.29,53.72l-3.55-.59v5.54A5.78,5.78,0,0,0,51.1,58a2,2,0,0,0,1.24-1.81l0-2.44S52.31,53.72,52.29,53.72Z"/><path class="cls-3" d="M45.16,51.83a6.57,6.57,0,0,1,6,.06c1.63,1,1.62,2.5,0,3.43a6.55,6.55,0,0,1-5.94-.06C43.49,54.3,43.51,52.76,45.16,51.83Z"/><path class="cls-1" d="M48.17,56.53a6.69,6.69,0,0,1-3.31-.82,2.32,2.32,0,0,1,0-4.34,7.07,7.07,0,0,1,6.47.07,2.33,2.33,0,0,1-.05,4.34A6.59,6.59,0,0,1,48.17,56.53Zm-.1-4.86a5.49,5.49,0,0,0-2.65.61h0a1.31,1.31,0,0,0,0,2.53,6.1,6.1,0,0,0,5.43.06c.63-.36,1-.8,1-1.26a1.57,1.57,0,0,0-1-1.27A5.49,5.49,0,0,0,48.07,51.67Z"/><path class="cls-2" d="M42,47.55l0,3.71a2.92,2.92,0,0,0,1.74,2.66,9.54,9.54,0,0,0,8.63.09,2.94,2.94,0,0,0,1.8-2.62l0-3.55a.06.06,0,0,0,0-.06L46,46.43h0l-4,1.05A.06.06,0,0,0,42,47.55Z"/><path class="cls-1" d="M48.2,55.53a9.35,9.35,0,0,1-4.67-1.16,3.43,3.43,0,0,1-2-3.16l-.05-4.05.43-.17L46,45.9l.14,0,8.51,1.42.06.48,0,3.56a3.45,3.45,0,0,1-2.07,3.08A9.26,9.26,0,0,1,48.2,55.53ZM42.53,47.9l0,3.35a2.47,2.47,0,0,0,1.49,2.22,9,9,0,0,0,8.1.09c1-.59,1.59-1.35,1.54-2.14l0-3.19L46.06,47Z"/><path class="cls-1" d="M54.14,47.81,49,47v8a8.35,8.35,0,0,0,3.41-1,2.94,2.94,0,0,0,1.8-2.62l0-3.55A.06.06,0,0,0,54.14,47.81Z"/><path class="cls-3" d="M43.81,45.08a9.54,9.54,0,0,1,8.63.08c2.36,1.4,2.34,3.63,0,5a9.57,9.57,0,0,1-8.63-.08C41.39,48.66,41.42,46.43,43.81,45.08Z"/><path class="cls-1" d="M48.17,51.66A9.35,9.35,0,0,1,43.5,50.5a3.52,3.52,0,0,1-2-3,3.52,3.52,0,0,1,2.08-2.92h0a10,10,0,0,1,9.14.1,3.52,3.52,0,0,1,2,3,3.52,3.52,0,0,1-2.08,2.92A9.25,9.25,0,0,1,48.17,51.66Zm-4.1-6.13a2.56,2.56,0,0,0-1.55,2A2.55,2.55,0,0,0,44,49.61a9,9,0,0,0,8.1.08,2.56,2.56,0,0,0,1.55-2,2.57,2.57,0,0,0-1.51-2.06,9,9,0,0,0-8.1-.08Z"/><path class="cls-2" d="M45,35.54l0,11a1.5,1.5,0,0,0,.89,1.36,4.85,4.85,0,0,0,4.39,0,1.5,1.5,0,0,0,.92-1.33V35.68l0,0L47.05,35h0l-2,.54S45,35.52,45,35.54Z"/><path class="cls-1" d="M48.14,49a5,5,0,0,1-2.51-.63,2,2,0,0,1-1.14-1.84l0-11.36.42-.14L47,34.44h.1l4.58.76,0,.44v11a2,2,0,0,1-1.18,1.78A4.91,4.91,0,0,1,48.14,49ZM45.51,35.91l0,10.64c0,.34.21.65.64.91a4.39,4.39,0,0,0,3.87,0c.43-.25.67-.56.65-.85V36.1l-3.61-.6Z"/><path class="cls-1" d="M51.17,35.67l-2.61-.44V48.45A4,4,0,0,0,50.29,48a1.51,1.51,0,0,0,.92-1.34V35.7A0,0,0,0,0,51.17,35.67Z"/><path class="cls-2" d="M23.82,18.9,48.55,4.27a1.7,1.7,0,0,1,1.57-.2l6.37,3a1.67,1.67,0,0,0,1.57-.2l4.38-2.57a1.64,1.64,0,0,1,1.66-.15h0l17,9.66a.11.11,0,0,1,0,.16l-3.81,4.81L39.36,42.35,22,32.41a1.76,1.76,0,0,1-.5-1.35V22.92A5.16,5.16,0,0,1,23.82,18.9Z"/><path class="cls-1" d="M39.37,43,21.64,32.79A2.19,2.19,0,0,1,21,31.06V22.92a5.64,5.64,0,0,1,2.58-4.47L48.29,3.82a2.2,2.2,0,0,1,2.05-.22l6.38,3a1.22,1.22,0,0,0,1.08-.18l4.38-2.57a2.28,2.28,0,0,1,1.91-.28h0l.24.14,17,9.66a.61.61,0,0,1,.3.42.62.62,0,0,1-.12.51l-3.94,4.93ZM22.3,32l17.05,9.75L76.93,18.43l3.45-4.36L64.09,4.78h0l-.25-.14a1.16,1.16,0,0,0-1.13.15L58.33,7.36a2.16,2.16,0,0,1-2.06.22l-6.37-3a1.24,1.24,0,0,0-1.09.18L24.08,19.35A4.63,4.63,0,0,0,22,22.92v8.14A1.33,1.33,0,0,0,22.3,32Z"/><path class="cls-1" d="M41.86,40.62,21.63,28.81a.1.1,0,0,0-.14.08v2.2A1.77,1.77,0,0,0,22,32.43l0,0,17.31,9.91a.11.11,0,0,0,.1,0l2.46-1.57A.09.09,0,0,0,41.86,40.62Z"/><path class="cls-1" d="M39.36,42.89a.71.71,0,0,1-.31-.08l-17.45-10a2.21,2.21,0,0,1-.63-1.7v-2.2a.61.61,0,0,1,.31-.53.61.61,0,0,1,.61,0L42.13,40.17a.62.62,0,0,1,.3.52.61.61,0,0,1-.28.53l-2.46,1.57A.56.56,0,0,1,39.36,42.89ZM22.3,32l17.05,9.75L41,40.72,22,29.64v1.45A1.29,1.29,0,0,0,22.3,32Z"/><path class="cls-3" d="M48.55,4.27a1.7,1.7,0,0,1,1.57-.2l6.37,3a1.67,1.67,0,0,0,1.57-.2l4.38-2.57a1.64,1.64,0,0,1,1.66-.15h0L81,13.82a.16.16,0,0,1,0,.24l-3.76,4.75,0,0-35,21.37s0,0-.05,0c-3.09-.59,4.77-7,4.71-7s-5.91-4.53-6-4.6h0l-17-9.7a.07.07,0,0,1,0-.11Z"/><path class="cls-1" d="M42.37,40.75l-.24,0A1.25,1.25,0,0,1,41,39.83c-.21-.8.17-2.27,5.06-6.53-.75-.54-2.26-1.71-5.43-4.21L23.39,19.25l0-.35a.6.6,0,0,1,.29-.51L48.29,3.82a2.2,2.2,0,0,1,2.05-.22l6.38,3a1.22,1.22,0,0,0,1.08-.18l4.38-2.57a2.28,2.28,0,0,1,1.91-.28h0l.24.14,16.9,9.63a.68.68,0,0,1,.33.46.7.7,0,0,1-.13.56l-3.91,4.88Zm4.69-8h.23l.12.34c.13.34-.06.51-.4.81-5.14,4.43-5,5.57-5,5.68s.06.07.13.1L76.93,18.43l3.45-4.36L64.09,4.78h0l-.25-.14a1.16,1.16,0,0,0-1.13.15L58.33,7.36a2.16,2.16,0,0,1-2.06.22l-6.37-3a1.24,1.24,0,0,0-1.09.18l-24,14.17,16.43,9.36C43.73,30.19,46.48,32.34,47.06,32.73Z"/><rect class="cls-1" x="64.54" y="2.14" width="1.04" height="19.71" transform="translate(22.43 62.59) rotate(-60.33)"/><rect class="cls-1" x="57.38" y="-0.99" width="1.2" height="19.71" transform="translate(21.58 54.86) rotate(-60.33)"/><path class="cls-1" d="M67.25,13.83l6.37,3a1.7,1.7,0,0,0,1.57-.2l4.38-2.57c1.28-.74,2.32-.14,2.32,1.34h0a5.15,5.15,0,0,1-2.32,4L40.94,42.15c-1.28.75-2.32.14-2.32-1.34V32.68a5.17,5.17,0,0,1,2.32-4L65.68,14A1.67,1.67,0,0,1,67.25,13.83Z"/><path class="cls-1" d="M39.9,43a1.69,1.69,0,0,1-.86-.22,2.12,2.12,0,0,1-.94-2V32.68a5.65,5.65,0,0,1,2.58-4.48L65.41,13.58a2.19,2.19,0,0,1,2.06-.22l6.38,3a1.22,1.22,0,0,0,1.08-.18l4.38-2.57a1.92,1.92,0,0,1,3.1,1.79,5.63,5.63,0,0,1-2.58,4.48L41.21,42.6A2.65,2.65,0,0,1,39.9,43ZM66.72,14.23a1.64,1.64,0,0,0-.78.25L41.21,29.1a4.63,4.63,0,0,0-2.07,3.58v8.13a.91.91,0,0,0,1.54.89L79.31,19a4.65,4.65,0,0,0,2.06-3.58,1.15,1.15,0,0,0-.42-1,1.14,1.14,0,0,0-1.12.16l-4.38,2.57a2.2,2.2,0,0,1-2,.22L67,14.3A.6.6,0,0,0,66.72,14.23Z"/><path class="cls-2" d="M64.66,20c0,1.2.85,1.69,1.89,1.09a4.17,4.17,0,0,0,1.88-3.27c0-1.2-.84-1.69-1.88-1.08A4.17,4.17,0,0,0,64.66,20Z"/><path class="cls-2" d="M65.7,21.87a1.53,1.53,0,0,1-.75-.2A1.82,1.82,0,0,1,64.14,20a4.68,4.68,0,0,1,2.15-3.72A1.66,1.66,0,0,1,69,17.82a4.69,4.69,0,0,1-2.14,3.72A2.24,2.24,0,0,1,65.7,21.87ZM67.39,17a1.13,1.13,0,0,0-.58.19A3.63,3.63,0,0,0,65.18,20a.88.88,0,0,0,.29.77.9.9,0,0,0,.82-.13,3.66,3.66,0,0,0,1.62-2.82.88.88,0,0,0-.29-.77A.56.56,0,0,0,67.39,17Z"/><path class="cls-1" d="M65.56,17.63a2.73,2.73,0,0,1,1.53-1.13.15.15,0,0,1,.17.07,2.17,2.17,0,0,1,.09,1.6,4.47,4.47,0,0,1-.79,1.57A2.75,2.75,0,0,1,65,20.88a.15.15,0,0,1-.16-.07,2.14,2.14,0,0,1-.09-1.61A4.31,4.31,0,0,1,65.56,17.63Z"/><path class="cls-2" d="M65,21.41a.67.67,0,0,1-.58-.34,2.62,2.62,0,0,1-.15-2,5,5,0,0,1,.88-1.76h0A3.29,3.29,0,0,1,67,16a.69.69,0,0,1,.73.32,2.66,2.66,0,0,1,.14,2A4.79,4.79,0,0,1,67,20.05a3.27,3.27,0,0,1-1.85,1.34ZM66,18a3.76,3.76,0,0,0-.7,1.38,2.29,2.29,0,0,0-.06.94,2.88,2.88,0,0,0,.94-.85A3.89,3.89,0,0,0,66.84,18a2,2,0,0,0,.06-.93A2.81,2.81,0,0,0,66,18Z"/><rect class="cls-1" x="72.17" y="9.51" width="1.04" height="5.94" transform="translate(25.48 69.14) rotate(-59.94)"/><rect class="cls-1" x="29.53" y="21.32" width="1.04" height="19.71" transform="translate(-11.91 41.86) rotate(-60.33)"/><path class="cls-2" d="M38.18,41.65a3,3,0,0,1-.08-.87V38.89h1v1.92a2,2,0,0,0,0,.58Z"/><rect class="cls-2" x="48.83" y="36.36" width="2.36" height="1.04" transform="translate(-11.96 32.25) rotate(-32.14)"/><path class="cls-1" d="M73.39,42.52a11.35,11.35,0,0,1-5.12,8.87c-2.83,1.63-5.12.3-5.12-3a11.3,11.3,0,0,1,5.12-8.86C71.09,37.94,73.39,39.26,73.39,42.52Z"/><path class="cls-2" d="M66,52.61a3.12,3.12,0,0,1-1.59-.42,4.08,4.08,0,0,1-1.76-3.76A11.89,11.89,0,0,1,68,39.12a3.63,3.63,0,0,1,5.9,3.4,11.93,11.93,0,0,1-5.38,9.32A5.18,5.18,0,0,1,66,52.61Zm4.57-13.22a4.1,4.1,0,0,0-2,.63,10.75,10.75,0,0,0-4.86,8.41A2.62,2.62,0,0,0,68,50.93a10.71,10.71,0,0,0,4.85-8.41,3.13,3.13,0,0,0-1.23-2.86A2.16,2.16,0,0,0,70.55,39.39Z"/><path class="cls-1" d="M69.48,44.78a2.69,2.69,0,0,1-1.21,2.1c-.67.39-1.21.07-1.21-.7a2.66,2.66,0,0,1,1.21-2.1C68.94,43.69,69.48,44,69.48,44.78Z"/><path class="cls-2" d="M67.72,47.57a1.13,1.13,0,0,1-.57-.15,1.38,1.38,0,0,1-.62-1.24A3.19,3.19,0,0,1,68,43.63a1.36,1.36,0,0,1,1.38-.09A1.37,1.37,0,0,1,70,44.78a3.21,3.21,0,0,1-1.47,2.55A1.6,1.6,0,0,1,67.72,47.57Zm1.09-3.14a.63.63,0,0,0-.28.1,2.15,2.15,0,0,0-1,1.65c0,.2,0,.31.09.33s.16,0,.34-.08A2.17,2.17,0,0,0,69,44.78c0-.21,0-.32-.09-.34Z"/><path class="cls-1" d="M74.29,54.3a2.7,2.7,0,0,1-1.22,2.1c-.67.39-1.21.07-1.21-.7a2.66,2.66,0,0,1,1.21-2.1C73.74,53.21,74.29,53.52,74.29,54.3Z"/><path class="cls-2" d="M72.53,57.09a1.17,1.17,0,0,1-.58-.15,1.37,1.37,0,0,1-.61-1.24,3.2,3.2,0,0,1,1.47-2.55,1.33,1.33,0,0,1,1.38-.09,1.38,1.38,0,0,1,.62,1.24,3.22,3.22,0,0,1-1.48,2.55A1.57,1.57,0,0,1,72.53,57.09ZM73.62,54a.57.57,0,0,0-.29.1,2.18,2.18,0,0,0-1,1.65.46.46,0,0,0,.09.33s.16,0,.34-.08a2.18,2.18,0,0,0,1-1.65c0-.21-.06-.32-.1-.34Z"/><rect class="cls-2" x="73.29" y="41.69" width="1.04" height="12.62" transform="translate(-3.44 5.75) rotate(-4.36)"/><rect class="cls-2" x="67.84" y="49.36" width="1.04" height="9.37" transform="translate(-13.71 83.34) rotate(-57.97)"/><path class="cls-2" d="M39.62,5.69,39.68,9c-.12,1.42.74,2.87,2.61,4a14.25,14.25,0,0,0,12.89.13c1.89-1.07,2.78-2.5,2.69-3.92l0-3.11A.09.09,0,0,0,57.76,6L45.66,4h0L39.69,5.6A.1.1,0,0,0,39.62,5.69Z"/><path class="cls-1" d="M48.88,15.13A13.72,13.72,0,0,1,42,13.46c-2-1.16-3-2.79-2.86-4.47L39.1,5.7h0a.6.6,0,0,1,.45-.6L45.6,3.49l.15,0,12.09,2a.63.63,0,0,1,.52.6l0,3.11c.11,1.66-1,3.26-3,4.38A13.65,13.65,0,0,1,48.88,15.13ZM40.15,6l.05,3c-.11,1.34.72,2.57,2.35,3.54a13.68,13.68,0,0,0,12.37.12c1.65-.93,2.51-2.14,2.43-3.43l0-2.78L45.66,4.55Z"/><path class="cls-1" d="M57.76,6.08,50.09,4.8v9.82a12.41,12.41,0,0,0,5.09-1.42c1.89-1.07,2.78-2.5,2.69-3.92l0-3.11A.1.1,0,0,0,57.76,6.08Z"/><ellipse class="cls-3" cx="48.73" cy="5.77" rx="5.26" ry="9.12" transform="translate(42.46 54.44) rotate(-89.42)"/><path class="cls-1" d="M48.84,11.55A13.8,13.8,0,0,1,42,9.88c-1.88-1.11-2.9-2.6-2.89-4.2s1.07-3.07,3-4.15h0a14.89,14.89,0,0,1,13.42.14c1.87,1.11,2.9,2.6,2.88,4.2s-1.07,3.07-3,4.14A13.57,13.57,0,0,1,48.84,11.55ZM42.58,2.44c-1.57.88-2.43,2-2.45,3.25S41,8.07,42.51,9a13.72,13.72,0,0,0,12.37.13c1.56-.88,2.43-2,2.44-3.25S56.49,3.48,55,2.57a13.69,13.69,0,0,0-12.37-.13Z"/><path class="cls-3" d="M47.64,5.13a2.38,2.38,0,0,1,2.19,0,.67.67,0,0,1,0,1.27,2.47,2.47,0,0,1-2.2,0A.67.67,0,0,1,47.64,5.13Z"/><path class="cls-1" d="M48.75,7.19a2.86,2.86,0,0,1-1.39-.34,1.31,1.31,0,0,1-.71-1.1,1.28,1.28,0,0,1,.73-1.07,2.94,2.94,0,0,1,2.72,0,1.28,1.28,0,0,1,.7,1.09,1.27,1.27,0,0,1-.72,1.08A2.81,2.81,0,0,1,48.75,7.19Zm0-1.79a1.77,1.77,0,0,0-.82.18.48.48,0,0,0-.2.18s0,.09.2.19a1.92,1.92,0,0,0,1.67,0c.17-.1.2-.17.2-.19s0-.09-.19-.18A1.71,1.71,0,0,0,48.71,5.4Z"/><path class="cls-2" d="M19.44,36.92,36.07,46.7a1,1,0,0,1,.13,1.69l-4.85,4a3.07,3.07,0,0,1-3.46.29l-10.68-6a2.18,2.18,0,0,1-1-2.45l1.74-6.61A1,1,0,0,1,19.44,36.92Z"/><path class="cls-1" d="M29.39,53.57a3.59,3.59,0,0,1-1.76-.46L17,47.05a2.68,2.68,0,0,1-1.28-3l1.74-6.6a1.53,1.53,0,0,1,.91-1,1.56,1.56,0,0,1,1.38.1l16.62,9.78a1.56,1.56,0,0,1,.2,2.54l-4.85,4A3.6,3.6,0,0,1,29.39,53.57ZM18.92,37.3a.48.48,0,0,0-.2,0,.51.51,0,0,0-.3.34l-1.74,6.6a1.66,1.66,0,0,0,.79,1.87L28.14,52.2A2.57,2.57,0,0,0,31,52l4.85-4a.49.49,0,0,0,.18-.43.48.48,0,0,0-.25-.4L19.18,37.37A.48.48,0,0,0,18.92,37.3Z"/><rect class="cls-1" x="20.93" y="35.82" width="4.94" height="1.04" transform="translate(-19.47 30.84) rotate(-49.91)"/><rect class="cls-1" x="32.02" y="42.26" width="4.94" height="1.04" transform="translate(-20.45 41.61) rotate(-49.91)"/><path class="cls-3" d="M29,50.52a2.65,2.65,0,0,1-1.28-.33L20,45.81l.51-.91,7.76,4.38a1.54,1.54,0,0,0,1.79-.19l2-1.79.69.78-2,1.79A2.6,2.6,0,0,1,29,50.52Z"/><rect class="cls-3" x="24.47" y="42.5" width="1.04" height="6.13" transform="translate(-11.95 9.01) rotate(-16.56)"/><rect class="cls-3" x="21.64" y="40.22" width="1.04" height="3.69" transform="translate(-11.07 8.06) rotate(-16.57)"/><path class="cls-1" d="M51.93,81.1a3.69,3.69,0,0,1-1.85-.49l-9-5.22.52-.9,9,5.22a2.66,2.66,0,0,0,2.66,0l7.33-4.3.53.89L53.79,80.6A3.73,3.73,0,0,1,51.93,81.1Z"/><rect class="cls-1" x="37.01" y="71.28" width="1.04" height="2.99" transform="translate(-44.25 68.8) rotate(-59.93)"/><path class="cls-1" d="M40.39,21.94c-1.14-.63-1.44-1.57-.88-2.38a4.59,4.59,0,0,1,1.66-1.73,3.18,3.18,0,0,1,3.22-.24,3.8,3.8,0,0,1,2.11,1.78c.62.79.37,1.76-.74,2.44A5.94,5.94,0,0,1,40.39,21.94Z"/><path class="cls-1" d="M42.93,23a6,6,0,0,1-2.79-.65h0a2.5,2.5,0,0,1-1.37-1.59,1.88,1.88,0,0,1,.31-1.54,4.92,4.92,0,0,1,1.79-1.86,3.76,3.76,0,0,1,3.7-.3,4.35,4.35,0,0,1,2.37,2,1.9,1.9,0,0,1,.38,1.51A2.51,2.51,0,0,1,46,22.25,6.11,6.11,0,0,1,42.93,23Zm-.06-5.22a2.21,2.21,0,0,0-1.36.4l-.09.06A4.15,4.15,0,0,0,40,19.79a.93.93,0,0,0-.2.77,1.59,1.59,0,0,0,.86.92h0a5.45,5.45,0,0,0,4.85-.12,1.57,1.57,0,0,0,.81-1,.89.89,0,0,0-.21-.71L46,19.62a3.28,3.28,0,0,0-1.82-1.54A4,4,0,0,0,42.87,17.82Z"/><path class="cls-2" d="M42.6,18.7a3.87,3.87,0,0,1,2.11,1.78,1.38,1.38,0,0,1,0,1.79A6,6,0,0,1,40.39,22c-1.13-.62-1.43-1.57-.87-2.38a4.23,4.23,0,0,1,.81-1.07A3.84,3.84,0,0,1,42.6,18.7Z"/><path class="cls-1" d="M42.92,23.05a5.9,5.9,0,0,1-2.77-.64,2.55,2.55,0,0,1-1.37-1.59,1.87,1.87,0,0,1,.31-1.54A4.45,4.45,0,0,1,40,18.12l.1-.1.14,0a4.45,4.45,0,0,1,2.57.22h0a4.43,4.43,0,0,1,2.37,2,1.9,1.9,0,0,1,0,2.4l-.11.13-.16.05A6.63,6.63,0,0,1,42.92,23.05ZM40.59,19a3.89,3.89,0,0,0-.61.84.93.93,0,0,0-.19.76,1.58,1.58,0,0,0,.85.92,5.43,5.43,0,0,0,3.74.33.83.83,0,0,0-.08-1l0-.07a3.28,3.28,0,0,0-1.83-1.54h0A3.53,3.53,0,0,0,40.59,19Z"/><path class="cls-3" d="M42.73,22.51A5.21,5.21,0,0,1,40.39,22c-1.13-.62-1.43-1.57-.87-2.38a4.23,4.23,0,0,1,.81-1.07,3.41,3.41,0,0,1,1.34,0L42.82,20Z"/><path class="cls-1" d="M43.23,23.05l-.51,0a5.67,5.67,0,0,1-2.57-.62,2.55,2.55,0,0,1-1.37-1.59,1.87,1.87,0,0,1,.31-1.54A4.45,4.45,0,0,1,40,18.12l.1-.1.14,0a4.16,4.16,0,0,1,1.54,0l.2,0,1.39,1.82ZM40.59,19a3.89,3.89,0,0,0-.61.84.93.93,0,0,0-.19.76,1.58,1.58,0,0,0,.85.92,4.43,4.43,0,0,0,1.59.47l.06-1.83L41.39,19A3,3,0,0,0,40.59,19Z"/><path class="cls-2" d="M39,19.67c-1.78-1-2.24-2.46-1.37-3.73a7.24,7.24,0,0,1,2.59-2.71s1.75-1.58,5.06-.37a6,6,0,0,1,3.29,2.79c1,1.23.59,2.75-1.16,3.81A9.3,9.3,0,0,1,39,19.67Z"/><path class="cls-1" d="M43,21.1a8.93,8.93,0,0,1-4.24-1h0a3.68,3.68,0,0,1-2-2.3,2.64,2.64,0,0,1,.45-2.17A7.55,7.55,0,0,1,40,12.81c.34-.28,2.24-1.65,5.53-.44a6.55,6.55,0,0,1,3.56,3,2.67,2.67,0,0,1,.56,2.14,3.68,3.68,0,0,1-1.89,2.41A9.21,9.21,0,0,1,43,21.1Zm-3.74-1.89A8.74,8.74,0,0,0,47.17,19a2.75,2.75,0,0,0,1.41-1.71A1.68,1.68,0,0,0,48.2,16l-.05-.07a5.56,5.56,0,0,0-3-2.55c-2.94-1.08-4.47.22-4.53.27l-.09.07a6.67,6.67,0,0,0-2.39,2.49,1.69,1.69,0,0,0-.33,1.4,2.78,2.78,0,0,0,1.49,1.63Z"/><path class="cls-3" d="M41.89,20.53A7.8,7.8,0,0,1,39,19.68c-1.78-1-2.24-2.45-1.37-3.72a7.14,7.14,0,0,1,2.59-2.71,3.71,3.71,0,0,1,1.54-.7l.47,4.14Z"/><path class="cls-1" d="M42.36,21.1l-.53-.05a8.42,8.42,0,0,1-3.08-.91,3.74,3.74,0,0,1-2-2.3,2.67,2.67,0,0,1,.45-2.18,7.72,7.72,0,0,1,2.72-2.84A4.25,4.25,0,0,1,41.65,12l.57-.13.54,4.77Zm-1-7.87a2.84,2.84,0,0,0-.75.41l-.09.06a6.75,6.75,0,0,0-2.39,2.5,1.69,1.69,0,0,0-.33,1.4,2.81,2.81,0,0,0,1.49,1.63,7.1,7.1,0,0,0,2.17.71l.29-3.24Z"/><path class="cls-1" d="M43.91,16.64l-.35-4.2a7.23,7.23,0,0,1,1.75.42,6,6,0,0,1,3.29,2.79c1,1.23.59,2.75-1.16,3.81a8.06,8.06,0,0,1-3.32,1.05Z"/><path class="cls-1" d="M43.63,21.09l-.24-4.42L43,11.86l.63.06a8.12,8.12,0,0,1,1.86.45,6.55,6.55,0,0,1,3.56,3,2.67,2.67,0,0,1,.56,2.14,3.68,3.68,0,0,1-1.89,2.41A8.74,8.74,0,0,1,44.18,21Zm.51-8,.29,3.55.18,3.31a7.3,7.3,0,0,0,2.56-.9,2.75,2.75,0,0,0,1.41-1.71A1.68,1.68,0,0,0,48.2,16l-.05-.07a5.56,5.56,0,0,0-3-2.55A8.38,8.38,0,0,0,44.14,13.06Z"/><path class="cls-2" d="M45.7,16c1.42-.86,1.38-2.21-.08-3a5.76,5.76,0,0,0-5.21.13c-1.42.86-1.39,2.21.07,3A5.78,5.78,0,0,0,45.7,16Z"/><path class="cls-1" d="M43,17.23a5.68,5.68,0,0,1-2.72-.63,2.32,2.32,0,0,1-1.38-1.92,2.33,2.33,0,0,1,1.29-2,6.26,6.26,0,0,1,5.73-.13,2.31,2.31,0,0,1,1.39,1.92,2.33,2.33,0,0,1-1.29,2A5.92,5.92,0,0,1,43,17.23ZM43.16,13a5,5,0,0,0-2.48.61,1.39,1.39,0,0,0-.79,1.08c0,.37.31.74.84,1a5.32,5.32,0,0,0,4.7-.11,1.39,1.39,0,0,0,.79-1.08,1.39,1.39,0,0,0-.85-1A4.71,4.71,0,0,0,43.16,13Z"/><path class="cls-3" d="M82,55.24,76.6,48.51a4.66,4.66,0,0,1-1.94-3.71l-3-7.42c0-1.44,3.88-3.38,4.95-2.77l8.16,4.71A4.66,4.66,0,0,1,86.7,43v8.72C86.7,53.18,83.09,55.86,82,55.24Z"/><path class="cls-1" d="M82.41,55.85a1.23,1.23,0,0,1-.65-.16l-.14-.12-5.36-6.66a5.2,5.2,0,0,1-2.12-4l-3-7.53c0-1.14,1.46-2.11,2.09-2.47,1.14-.66,2.78-1.25,3.64-.75L85,38.87A5.16,5.16,0,0,1,87.22,43v8.72c0,1.29-1.83,2.82-3,3.48A4,4,0,0,1,82.41,55.85Zm-.07-1a2.58,2.58,0,0,0,1.38-.48c1.38-.8,2.46-2,2.46-2.58V43a4.14,4.14,0,0,0-1.69-3.26l-8.15-4.7a3.9,3.9,0,0,0-2.6.74c-.95.55-1.49,1.14-1.56,1.49l3,7.5a4.14,4.14,0,0,0,1.68,3.26l.15.13Z"/><path class="cls-1" d="M76.33,44.49l1.94,6.09L82,55.24c1.07.62,4.68-2.06,4.68-3.49V43A4.88,4.88,0,0,0,86,40.61l-3.11,1.8Z"/><path class="cls-1" d="M82.41,55.85a1.23,1.23,0,0,1-.65-.16l-.14-.12-3.85-4.83-2.1-6.59,7-2.22,3.51-2,.26.44a5.42,5.42,0,0,1,.8,2.69v8.72c0,1.29-1.83,2.82-3,3.48A4,4,0,0,1,82.41,55.85Zm-.07-1a2.58,2.58,0,0,0,1.38-.48c1.38-.8,2.46-2,2.46-2.58V43a4.23,4.23,0,0,0-.41-1.7L83,42.9l-6,1.92,1.75,5.51Z"/><path class="cls-2" d="M81.68,55.09l-8.15-4.71a4.66,4.66,0,0,1-1.94-3.71V38c0-1.43.87-2.09,1.94-1.47l8.15,4.71a4.64,4.64,0,0,1,1.95,3.71v8.72C83.63,55.05,82.76,55.71,81.68,55.09Z"/><path class="cls-1" d="M82.46,55.84a2.12,2.12,0,0,1-1-.3l-8.15-4.71a5.16,5.16,0,0,1-2.2-4.16V38a2.22,2.22,0,0,1,.93-2,1.76,1.76,0,0,1,1.79.1L82,40.74a5.16,5.16,0,0,1,2.2,4.16v8.72a2.22,2.22,0,0,1-.93,2A1.47,1.47,0,0,1,82.46,55.84ZM82,54.64a.81.81,0,0,0,.75.1,1.31,1.31,0,0,0,.41-1.12V44.9a4.14,4.14,0,0,0-1.69-3.26l-8.15-4.71a.81.81,0,0,0-.75-.1A1.28,1.28,0,0,0,72.11,38v8.72a4.16,4.16,0,0,0,1.68,3.26Z"/><path class="cls-2" d="M80.59,49.81c0,.89-.65,1.24-1.41.78a3.08,3.08,0,0,1-1.35-2.44c0-.89.65-1.24,1.41-.78A3.08,3.08,0,0,1,80.59,49.81Z"/><path class="cls-1" d="M79.82,51.31a1.83,1.83,0,0,1-.91-.27,3.62,3.62,0,0,1-1.6-2.9A1.47,1.47,0,0,1,78,46.8a1.49,1.49,0,0,1,1.51.12,3.62,3.62,0,0,1,1.6,2.9h0a1.48,1.48,0,0,1-.69,1.34A1.24,1.24,0,0,1,79.82,51.31Zm-1.21-3.62s-.08,0-.1,0-.15.18-.16.45a2.6,2.6,0,0,0,1.1,2c.23.14.39.15.46.11s.15-.18.16-.45h0a2.6,2.6,0,0,0-1.1-2A.74.74,0,0,0,78.61,47.69Z"/><path class="cls-1" d="M11.66,58.31c-.93.85-2,1.22-2.31,2.42a7.6,7.6,0,0,0,.92,5.66,4.36,4.36,0,0,0,5.46,2,.21.21,0,0,0,.12-.21,5.45,5.45,0,0,1,.77-3.87,3,3,0,0,1,2.58-1.12.17.17,0,0,0,.14-.05c.39-.36,2.36-2.38,1-4.66a6.77,6.77,0,0,0-8-2.57.1.1,0,0,0,0,.18c.33.15.8.49.27,1.18A7.75,7.75,0,0,1,11.66,58.31Z"/><path class="cls-1" d="M14.08,69.2a5,5,0,0,1-4.24-2.52,8.1,8.1,0,0,1-1-6.09,3.84,3.84,0,0,1,1.68-2,8.82,8.82,0,0,0,.78-.62h0a7.56,7.56,0,0,0,.93-1,.53.53,0,0,0,.13-.25.45.45,0,0,0-.19-.13A.62.62,0,0,1,11.8,56a.65.65,0,0,1,.39-.57,7.35,7.35,0,0,1,8.61,2.8c1.55,2.61-.65,4.87-1.1,5.3a.72.72,0,0,1-.53.19,2.49,2.49,0,0,0-2.15.93,5.13,5.13,0,0,0-.66,3.46.71.71,0,0,1-.43.77A5.22,5.22,0,0,1,14.08,69.2ZM12,58.7a9.8,9.8,0,0,1-.86.68,2.93,2.93,0,0,0-1.3,1.5,7.06,7.06,0,0,0,.86,5.23A3.83,3.83,0,0,0,15.3,68a5.82,5.82,0,0,1,.91-4,3.53,3.53,0,0,1,2.87-1.33c.49-.49,1.88-2.12.82-3.91a6.24,6.24,0,0,0-6.63-2.58,1.53,1.53,0,0,1,.11.27,1.32,1.32,0,0,1-.31,1.14A9.08,9.08,0,0,1,12,58.7Z"/><path class="cls-2" d="M6,70.68c-.52,1.75-2.55,8.87-2.6,14.57,0,.71,7.52,4.91,7.7,5.59.74,2.81,2.1,7.66,2.1,7.66L12.7,92,9.36,79.11,6.23,70.68A.14.14,0,0,0,6,70.68Z"/><path class="cls-1" d="M14,103.59l-1.38-5S11.31,93.82,10.57,91A32.18,32.18,0,0,0,7.18,88.7c-3.7-2.38-4.35-2.89-4.34-3.45.05-5.71,2-12.71,2.62-14.72h0a.66.66,0,0,1,.61-.47.74.74,0,0,1,.65.44l3.13,8.43L13.22,92ZM3.88,85.14a32.45,32.45,0,0,0,3.86,2.68c3.13,2,3.71,2.44,3.82,2.88.2.77.45,1.69.71,2.62l-.09-1.21L8.86,79.24l-2.72-7.3A57.55,57.55,0,0,0,3.88,85.14Z"/><path class="cls-1" d="M15.17,141.3a8.82,8.82,0,0,0-.65,3.69,1.21,1.21,0,0,0,.85,1.07l1.62.47a1.38,1.38,0,0,0,1.39-.36l.65-.67a2.4,2.4,0,0,1,1.29-.69h0a2.38,2.38,0,0,0,1-.42l3.08-2.24a1,1,0,0,0,.24-1.34,2.45,2.45,0,0,0-1.42-.87,14.17,14.17,0,0,0-4.76.26Z"/><path class="cls-1" d="M17.38,147.11a1.68,1.68,0,0,1-.54-.08l-1.61-.47A1.72,1.72,0,0,1,14,145a9.23,9.23,0,0,1,.7-3.94l.09-.2,3.49-1.17a14.1,14.1,0,0,1,5-.27A2.91,2.91,0,0,1,25,140.5a1.4,1.4,0,0,1,.26,1.07,1.52,1.52,0,0,1-.61,1l-3.07,2.24a2.84,2.84,0,0,1-1.2.51,1.89,1.89,0,0,0-1,.54l-.64.67A1.92,1.92,0,0,1,17.38,147.11Zm-1.81-5.4A8.36,8.36,0,0,0,15,145a.67.67,0,0,0,.48.59l1.62.48a.88.88,0,0,0,.87-.23l.64-.67a2.91,2.91,0,0,1,1.58-.84A1.78,1.78,0,0,0,21,144l3.08-2.24a.51.51,0,0,0,.19-.32.4.4,0,0,0-.06-.29,1.91,1.91,0,0,0-1.12-.67,13.6,13.6,0,0,0-4.53.26Z"/><path class="cls-1" d="M5.82,135.77s-.75,3.38-1.07,4.41a2.16,2.16,0,0,0,.11,1.5h0a1,1,0,0,0,.66.54l1.92.44a1.17,1.17,0,0,0,1.26-.53h0a10.92,10.92,0,0,1,1.9-2.2l2-1.66a1.88,1.88,0,0,0,.45-2c-.21-.57-1.31-.82-2.36-.93a15.83,15.83,0,0,0-2-.07Z"/><path class="cls-1" d="M7.7,143.21a1.55,1.55,0,0,1-.37,0l-1.93-.44a1.49,1.49,0,0,1-1-.84A2.7,2.7,0,0,1,4.25,140c.31-1,1-4.33,1.06-4.37l.07-.34,3.15-.51a15,15,0,0,1,2.17.06c1.64.17,2.53.57,2.79,1.28a2.41,2.41,0,0,1-.59,2.52l-2,1.66a10.61,10.61,0,0,0-1.8,2.11A1.7,1.7,0,0,1,7.7,143.21Zm-1.45-7c-.2.9-.74,3.26-1,4.11a1.63,1.63,0,0,0,.09,1.14.43.43,0,0,0,.3.24l1.92.44a.65.65,0,0,0,.7-.29,11.54,11.54,0,0,1,2-2.33l2-1.66a1.33,1.33,0,0,0,.3-1.38c0-.14-.52-.45-1.92-.59a17,17,0,0,0-2-.07Z"/><path class="cls-3" d="M23.9,100.16c-1.49-1.35-5.14,1-7.64,2.92-.67-4.55-10-.79-10-.79s1,12.2.63,15.45-2,5.32-1.9,12.44c.08,5.63,0,7.82,0,8.49a.45.45,0,0,0,.21.4,3.24,3.24,0,0,0,3.68,0,.48.48,0,0,0,.19-.31c.2-1.52,1.77-11.54,2.77-13.87a15.44,15.44,0,0,0,1-5.23,10.13,10.13,0,0,1,.45-2.62,24.33,24.33,0,0,1,.69-2.92,4,4,0,0,1,.34,1.73c.13,2,.26,3.62.36,4.42.33,2.64-.66,5.16-1,8.49-.27,2.93.74,11.39,1,13.44a1,1,0,0,0,.48.73,3.52,3.52,0,0,0,3.55.06,1,1,0,0,0,.53-.88c0-2.14.11-10.15.81-12.71a36.42,36.42,0,0,0,1-6.58,140,140,0,0,0,2.83-17.92C24,103.44,24.45,100.65,23.9,100.16Z"/><path class="cls-1" d="M17,143.94a4.32,4.32,0,0,1-2.13-.59,1.48,1.48,0,0,1-.74-1.12c-.3-2.44-1.26-10.61-1-13.54.13-1.3.35-2.45.56-3.57a15.35,15.35,0,0,0,.42-4.82c-.07-.61-.17-1.76-.29-3.44a2.17,2.17,0,0,1-.08.3,9.49,9.49,0,0,0-.43,2.49,15.79,15.79,0,0,1-1,5.41C11.4,127.26,9.85,137,9.6,138.8a1,1,0,0,1-.39.66,3.78,3.78,0,0,1-4.26,0,1,1,0,0,1-.46-.86c0-.68.07-2.88,0-8.47a30,30,0,0,1,1.23-9.45,18.75,18.75,0,0,0,.67-3c.35-3.16-.62-15.23-.63-15.35l0-.38.35-.14c.26-.11,6.44-2.57,9.29-.94a2.76,2.76,0,0,1,1.2,1.33c3.79-2.8,6.37-3.62,7.69-2.43.57.52.48,1.85.26,4,0,.43-.09.83-.11,1.16a142.4,142.4,0,0,1-2.83,18,36.55,36.55,0,0,1-1,6.64c-.7,2.56-.78,10.94-.79,12.59a1.54,1.54,0,0,1-.79,1.33A4,4,0,0,1,17,143.94Zm-2.85-30.56.25.45a4,4,0,0,1,.39,1.79v.17c.15,2.21.27,3.68.36,4.38a16.5,16.5,0,0,1-.44,5.15c-.21,1.09-.42,2.22-.54,3.46-.27,2.9.77,11.61,1,13.32a.42.42,0,0,0,.22.35,3,3,0,0,0,3,.06.49.49,0,0,0,.26-.43c0-2.35.11-10.24.83-12.85a36.36,36.36,0,0,0,1-6.47v-.09a140.62,140.62,0,0,0,2.82-17.83c0-.34.07-.76.11-1.2a10.36,10.36,0,0,0,.07-3.11c-.92-.79-3.52.31-7,3l-.71.54-.13-.87a1.74,1.74,0,0,0-.9-1.38c-1.87-1.08-6.13.15-8,.86.16,2.14.93,12.19.6,15.16a20.91,20.91,0,0,1-.7,3.2,28.53,28.53,0,0,0-1.19,9.17c.07,5.61,0,7.82,0,8.52a2.81,2.81,0,0,0,3.07-.07c.12-1.07,1.73-11.5,2.78-14a14.75,14.75,0,0,0,.94-5,10.72,10.72,0,0,1,.48-2.77,13.09,13.09,0,0,0,.28-1.34c.24-1.31.32-1.7.66-1.88Z"/><path class="cls-1" d="M10.24,68a2.57,2.57,0,0,0-3.69,1.1c-1.42,2.5-1,8.72-.34,14.4.54,5.09-1.3,15.22-1.69,17.27a.5.5,0,0,0,.27.54l2.84,1.43a24.47,24.47,0,0,0,10.54,2.39h0a8.55,8.55,0,0,0,3.72-.85l.25-.12a6.44,6.44,0,0,0,3.13-3.29h0S21.69,93.17,21.69,88s1.74-14.68-1.56-16.5a8,8,0,0,0-6.35-.6Z"/><path class="cls-1" d="M18.17,105.66a25,25,0,0,1-10.76-2.44l-2.85-1.43a1,1,0,0,1-.55-1.1c.38-2,2.22-12.1,1.68-17.13-.65-6.11-1.06-12.13.4-14.71a3.19,3.19,0,0,1,2-1.66,3.4,3.4,0,0,1,2.43.38l.05,0,3.32,2.67a8.51,8.51,0,0,1,6.49.74c2.79,1.53,2.39,7.42,2,12.61-.11,1.59-.21,3.09-.21,4.34,0,5,3.5,12.62,3.54,12.69l.09.21-.09.21a6.93,6.93,0,0,1-3.38,3.55l-.25.13A9.14,9.14,0,0,1,18.17,105.66ZM8.79,68.14a1.8,1.8,0,0,0-.45.06A2.2,2.2,0,0,0,7,69.37c-1.32,2.32-.88,8.42-.27,14.08.55,5.18-1.32,15.43-1.7,17.43l2.83,1.41a24.2,24.2,0,0,0,10.31,2.33,8.07,8.07,0,0,0,3.49-.8l.26-.12a5.94,5.94,0,0,0,2.78-2.82c-.59-1.31-3.53-8.08-3.53-12.91,0-1.28.1-2.8.21-4.41.31-4.64.71-10.42-1.5-11.63A7.47,7.47,0,0,0,14,71.35l-.28.11-3.74-3A2.6,2.6,0,0,0,8.79,68.14Z"/><path class="cls-3" d="M11.24,68.38h0c-.11.19,0,.24.2.39.69.66,2.76,2.17,6.38,1.1l.12-2.62a.09.09,0,0,1,0-.08l1.9-.68s1.61-2.17,1.19-6.79l-.49-2-4.12-.27-3.22,3.35-.56,3.47A13.67,13.67,0,0,1,11.24,68.38Z"/><path class="cls-1" d="M15.41,70.76a6.2,6.2,0,0,1-4.33-1.61L11,69.09a.7.7,0,0,1-.21-1h0a13.44,13.44,0,0,0,1.38-3.9l.58-3.63,3.5-3.65,4.75.32.59,2.41c.44,4.76-1.22,7-1.29,7.14l-.09.13-1.78.63-.11,2.71-.36.1A9.06,9.06,0,0,1,15.41,70.76Zm-3.59-2.34c.66.61,2.42,1.83,5.5,1l.1-2.24a.59.59,0,0,1,.4-.55l1.73-.62a10.53,10.53,0,0,0,1-6.27l-.39-1.55L16.67,58l-2.93,3.07-.53,3.3A14.87,14.87,0,0,1,11.82,68.42Z"/><path class="cls-1" d="M11.9,68.54a1.37,1.37,0,0,0-1.63-.36,1.81,1.81,0,0,0-.73.39C8.48,69.76,12.26,73.3,17.06,72a12.49,12.49,0,0,1,2.28-.39l.77-.06s0,0,0,0a3.68,3.68,0,0,0-1.43-1.66,1,1,0,0,0-1.17,0,4.38,4.38,0,0,1-2.75.08A5,5,0,0,1,11.9,68.54Z"/><path class="cls-1" d="M14.91,72.77a7,7,0,0,1-5.72-2.64,1.43,1.43,0,0,1,.7-2.36l.15-.06a1.94,1.94,0,0,1,2.25.47h0a4.42,4.42,0,0,0,2.58,1.21c1.61.28,2.19.11,2.39,0a1.54,1.54,0,0,1,1.74,0,4.11,4.11,0,0,1,1.62,1.94l.08.24-.28.43-1,.09a11.79,11.79,0,0,0-2.18.37A8.15,8.15,0,0,1,14.91,72.77Zm-4.08-4.2a.72.72,0,0,0-.33.07,1.09,1.09,0,0,1-.27.11.65.65,0,0,0-.3.16c-.12.14,0,.43.14.67.7,1.12,3.44,2.83,6.85,1.87A12.74,12.74,0,0,1,19.28,71a4.62,4.62,0,0,0-.89-.81.51.51,0,0,0-.58,0,4.72,4.72,0,0,1-3.12.16,5.47,5.47,0,0,1-3.17-1.53h0A1,1,0,0,0,10.83,68.57Z"/><path class="cls-2" d="M11.17,103.79C9.11,101,9.79,95.43,9.82,95.2l1,.13s-.65,5.34,1.16,7.85Z"/><path class="cls-3" d="M32.53,67c-.51-1-.73-1.47-1.38-1.09l-.27.37a3.5,3.5,0,0,0-.6,1.37h0a3,3,0,0,0-.06.74l0,1.15.32.07L30,69.51s-.23-1-.82-1.21-.72.72-.72.72l0,.69a9.77,9.77,0,0,0,.75,3h0l3,.89a20.08,20.08,0,0,1,.91-2.18C33.53,70.52,33.12,68.11,32.53,67Z"/><path class="cls-1" d="M32.5,74.21,28.81,73.1l-.09-.22a10.32,10.32,0,0,1-.8-3.12L28,69a1.58,1.58,0,0,1,.62-1.14.92.92,0,0,1,.81,0,1.35,1.35,0,0,1,.33.19,3,3,0,0,1,.06-.42A4.08,4.08,0,0,1,30.45,66l.34-.46.09-.06a1.14,1.14,0,0,1,.91-.16c.5.14.75.62,1.11,1.28l.09.17c.62,1.15,1.11,3.77.55,4.84a20,20,0,0,0-.88,2.11Zm-2.92-2,2.27.68a16.82,16.82,0,0,1,.77-1.78c.33-.63,0-2.83-.54-3.86L32,67.1a3.53,3.53,0,0,0-.47-.76h0l-.2.28a2.88,2.88,0,0,0-.51,1.16,3.35,3.35,0,0,0-.05.63l0,1.14h-.18l-.13.59-.89-.2-.07-.32a1.71,1.71,0,0,0-.43-.81,1.43,1.43,0,0,0-.09.27l0,.64A9.13,9.13,0,0,0,29.58,72.24Z"/><path class="cls-3" d="M24.52,68.68c1.08,0,1.7.27,1.7,1l-.18.42a3.52,3.52,0,0,1-.89,1.2h0c-.18.16.22-.12,0,0l-1.44,1.16h0s1-.3,1.45.09-.26,1-.26,1l-.58.37a9.7,9.7,0,0,1-2.94.83h0l-2.26-2.12a20.42,20.42,0,0,0,1.43-1.88A6.72,6.72,0,0,1,24.52,68.68Z"/><path class="cls-1" d="M21.2,75.32l-2.8-2.63.32-.38a18.59,18.59,0,0,0,1.39-1.82,7.19,7.19,0,0,1,4.39-2.33h0a2.45,2.45,0,0,1,1.83.51,1.45,1.45,0,0,1,.42,1v.11l-.24.52a3.93,3.93,0,0,1-.64,1l.05.09-.76.54a1.35,1.35,0,0,1,.33.19.94.94,0,0,1,.36.73A1.6,1.6,0,0,1,25.23,74l-.63.4a10.16,10.16,0,0,1-3.16.91Zm-1.37-2.71,1.73,1.62a9.42,9.42,0,0,0,2.54-.76l.53-.34.15-.18a1.71,1.71,0,0,0-.92,0l-2.63.81,3.59-2.87a2.84,2.84,0,0,0,.74-1l.14-.31a.37.37,0,0,0-.09-.19c-.1-.09-.36-.24-1.08-.22h0A6.26,6.26,0,0,0,21,71,16.88,16.88,0,0,1,19.83,72.61Z"/><path class="cls-1" d="M18.72,75.8a32,32,0,0,0,5.45,12.66,13.89,13.89,0,0,0,2.95,2.93h0a1,1,0,0,0,1.43-.26l.34-.33a6.12,6.12,0,0,0,1.47-2.21h0a5.83,5.83,0,0,0,.39-1.71l1.51-11.95a1,1,0,0,0-.71-1.06l-1.95-.65a.45.45,0,0,0-.59.37c-.16,1.38-.6,3.57-1.17,6.06a41.33,41.33,0,0,0-.54,7s-2.53-11.93-5.23-14.07S18.18,73.44,18.72,75.8Z"/><path class="cls-1" d="M27.72,92.11a1.57,1.57,0,0,1-.91-.3,14.47,14.47,0,0,1-3.06-3A32.42,32.42,0,0,1,18.2,75.9c-.34-1.51,0-3.53,1.17-4.29.48-.31,1.52-.64,3,.55,1.83,1.45,3.52,6.88,4.51,10.64a22.91,22.91,0,0,1,.42-3.26c.61-2.67,1-4.75,1.17-6a1,1,0,0,1,1.27-.8l1.95.65A1.55,1.55,0,0,1,32.78,75L31.27,87a6.56,6.56,0,0,1-.42,1.83,6.83,6.83,0,0,1-1.6,2.4l-.3.29a1.51,1.51,0,0,1-1,.61A1.24,1.24,0,0,1,27.72,92.11ZM20.39,72.36a.9.9,0,0,0-.47.13c-.69.43-1,1.87-.7,3.19v0a31.8,31.8,0,0,0,5.36,12.44A13.12,13.12,0,0,0,27.44,91a.45.45,0,0,0,.27.1l-.92-4.32c-.69-3.27-2.95-12.11-5-13.77A2.42,2.42,0,0,0,20.39,72.36Zm9.13,1.38c-.16,1.3-.57,3.38-1.17,6a41.22,41.22,0,0,0-.53,6.87l0,4.41a.48.48,0,0,0,.27-.2l.08-.1.34-.32a5.67,5.67,0,0,0,1.34-2,5.35,5.35,0,0,0,.36-1.57l1.51-12a.52.52,0,0,0-.35-.51Z"/><path class="cls-1" d="M11.88,55.73a6.89,6.89,0,0,0-2,3.09,5.87,5.87,0,0,0,.64,5,4.34,4.34,0,0,0,5.46,2,.19.19,0,0,0,.12-.2,5.44,5.44,0,0,1,.77-3.87,3.05,3.05,0,0,1,2.58-1.13.15.15,0,0,0,.14,0c.39-.36,2.36-2.37,1-4.65a6.77,6.77,0,0,0-8-2.57.1.1,0,0,0,0,.18c.33.14.8.48.27,1.18A7.75,7.75,0,0,1,11.88,55.73Z"/><path class="cls-1" d="M14.3,66.61a5,5,0,0,1-4.24-2.51,6.38,6.38,0,0,1-.71-5.43,7.51,7.51,0,0,1,2.18-3.33,7.53,7.53,0,0,0,.93-1,.58.58,0,0,0,.13-.25A.45.45,0,0,0,12.4,54a.64.64,0,0,1-.38-.59.62.62,0,0,1,.4-.56A7.32,7.32,0,0,1,21,55.61c1.55,2.62-.65,4.88-1.1,5.3a.69.69,0,0,1-.52.19,2.52,2.52,0,0,0-2.16.94c-1,1.22-.67,3.37-.66,3.46a.72.72,0,0,1-.43.77A5.28,5.28,0,0,1,14.3,66.61Zm-.81-13a1.09,1.09,0,0,1,.11.27A1.32,1.32,0,0,1,13.29,55a9,9,0,0,1-1.06,1.13h0A6.4,6.4,0,0,0,10.35,59a5.26,5.26,0,0,0,.58,4.55,3.84,3.84,0,0,0,4.59,1.87,5.85,5.85,0,0,1,.91-4,3.59,3.59,0,0,1,2.87-1.32c.49-.49,1.88-2.12.82-3.92A6.24,6.24,0,0,0,13.49,53.57Z"/><path class="cls-2" d="M16.47,56.33c-.51-1.09-2.4-1-3.2-1l-.09-1c1.26-.11,3.48-.05,4.23,1.58Z"/><path class="cls-2" d="M14.92,64.77a2.59,2.59,0,0,1-2.74-2l1-.18c0,.15.33,1.46,2.33,1.12l.17,1A5.77,5.77,0,0,1,14.92,64.77Z"/><path class="cls-2" d="M12.1,66.05a6.28,6.28,0,0,1-2.87-3.66l1-.21a5.32,5.32,0,0,0,2.41,3Z"/><path class="cls-2" d="M14.63,72.79a6.56,6.56,0,0,1-4.27-1.49L10,71.06,9.89,71a2.18,2.18,0,0,1-.79-2.32l1,.27a1.16,1.16,0,0,0,.41,1.22l.08.06.37.26a5.78,5.78,0,0,0,4.69,1.23A16.84,16.84,0,0,0,19.53,71l.4,1a17.15,17.15,0,0,1-4.15.8C15.37,72.77,15,72.79,14.63,72.79Z"/><path class="cls-2" d="M21.36,84.92c-.12-.24-3-6-3.16-9.1a10.77,10.77,0,0,1,.09-2.38l1,.18a10,10,0,0,0-.08,2.16c.12,2.89,3,8.61,3.05,8.67Z"/><path class="cls-2" d="M26.76,85.8a11.5,11.5,0,0,0-.28-2.1l1-.25a12.22,12.22,0,0,1,.32,2.31Z"/><path class="cls-2" d="M28.4,92l-.69-.77a15.9,15.9,0,0,0,1.86-2.15l.84.61A16.19,16.19,0,0,1,28.4,92Z"/><path class="cls-1" d="M13.77,115.16c-.66-2.51-1.31-6.46-1.34-6.62l1-.17s.67,4.06,1.32,6.52Z"/><rect class="cls-2" x="29.91" y="74.27" width="1.04" height="2.71" transform="translate(-50.68 83.86) rotate(-73.88)"/><path class="cls-2" d="M11.55,137.26c-.36-.83-2-.68-2-.68l-.13-1c.1,0,2.4-.27,3.07,1.29Z"/><path class="cls-2" d="M22.83,141.91a2.18,2.18,0,0,0-2.17-1.17l-.1-1a3.16,3.16,0,0,1,3.24,1.81Z"/><path class="cls-1" d="M21.72,111.46a3,3,0,0,1-1.67-.48c-1.74-1.16-1.87-3.94-1.87-4.06l1,0s.11,2.37,1.41,3.23a2.61,2.61,0,0,0,2.45,0l.38,1A4.92,4.92,0,0,1,21.72,111.46Z"/><path class="cls-1" d="M8.75,122.68A4.08,4.08,0,0,1,6,120l1-.28a3,3,0,0,0,2,1.93Z"/><path class="cls-1" d="M17.59,126.29c-3.44-.3-3.53-2.78-3.53-2.81l1,0c0,.06.1,1.58,2.58,1.79Z"/><path class="cls-3" d="M10.71,55c-3.4,1.83-3.36,5.15-.66,6.3s8.05.4,10.83-2,2.95-4.29.68-5.41C18.93,52.59,14.11,53.13,10.71,55Z"/><path class="cls-1" d="M13.2,62.31a8.75,8.75,0,0,1-3.35-.57,3.49,3.49,0,0,1-2.28-3c-.08-1.62,1-3.19,2.89-4.2h0c3.63-1.95,8.61-2.44,11.33-1.1a2.94,2.94,0,0,1,1.88,2.19c.16,1.2-.65,2.54-2.45,4.09A13,13,0,0,1,13.2,62.31ZM11,55.42c-1.53.83-2.41,2-2.35,3.24a2.46,2.46,0,0,0,1.65,2.13c2.44,1,7.58.43,10.28-1.89,1.48-1.27,2.2-2.36,2.1-3.17-.07-.52-.51-1-1.31-1.38-2.41-1.19-7.07-.71-10.37,1.07Z"/><path class="cls-3" d="M8.26,60.12C7.79,58,8.82,52.75,14.1,52c5.45-.77,6.85,5,6.85,5h0c.5,1.05-.41,2.45-2.37,3.55-2.75,1.55-6.76,2-8.95,1a2.3,2.3,0,0,1-1.3-1.22h0S8.27,60.17,8.26,60.12Z"/><path class="cls-1" d="M12.54,62.64a7.8,7.8,0,0,1-3.12-.57,2.78,2.78,0,0,1-1.57-1.51h0l-.08-.33a8,8,0,0,1,1.31-5.76,7.07,7.07,0,0,1,5-3c5.54-.79,7.23,4.72,7.41,5.34.59,1.32-.42,3-2.61,4.19A13.35,13.35,0,0,1,12.54,62.64ZM8.82,60.2h0a1.74,1.74,0,0,0,1,.91c2.06.92,5.86.46,8.48-1,1.64-.93,2.53-2.11,2.16-2.87l0-.11c-.05-.21-1.36-5.31-6.27-4.61a5.94,5.94,0,0,0-4.24,2.54A7,7,0,0,0,8.77,60v0Z"/><path class="cls-3" d="M12.74,52.48c-1,.55-1.15,1.28-.36,1.63a4,4,0,0,0,3.19-.37c1-.55,1.14-1.28.36-1.63A4.09,4.09,0,0,0,12.74,52.48Z"/><path class="cls-1" d="M13.41,54.81a3.17,3.17,0,0,1-1.25-.22,1.22,1.22,0,0,1-.8-1c0-.56.37-1.1,1.12-1.53h0a4.63,4.63,0,0,1,3.66-.39,1.22,1.22,0,0,1,.8,1,1.79,1.79,0,0,1-1.12,1.53A5.1,5.1,0,0,1,13.41,54.81Zm1.5-2.36a4.17,4.17,0,0,0-1.92.48h0c-.45.26-.59.5-.59.57s0,.07.19.14a3.65,3.65,0,0,0,2.72-.35c.45-.25.6-.5.59-.57s0-.07-.18-.13A2,2,0,0,0,14.91,52.45Z"/><path class="cls-1" d="M11.58,62.43c-2.19-2.56.48-8.21.6-8.45l.93.45c-.7,1.46-2.2,5.63-.74,7.33Z"/><path class="cls-1" d="M18.48,68.08l-1-.39c1.62-4,.07-6.53,0-6.55l.88-.56C18.52,60.71,20.29,63.6,18.48,68.08Z"/><rect class="cls-3" x="8.84" y="44.56" width="1.04" height="3.6"/><rect class="cls-3" x="7.54" y="45.84" width="3.64" height="1.04"/><rect class="cls-3" x="83.11" y="63.21" width="1.04" height="3.6"/><rect class="cls-3" x="81.81" y="64.5" width="3.64" height="1.04"/></g></g></svg>