<svg xmlns="http://www.w3.org/2000/svg" viewBox="0 0 112.75 158.72"><defs><style>.cls-1{fill:#150035;}.cls-2{fill:#ffb000;}.cls-3{fill:#fff;}</style></defs><g id="Layer_2" data-name="Layer 2"><g id="content"><path class="cls-1" d="M4.47,113.27l-1,.6a.46.46,0,0,1-.41,0l-1-.56c-.12-.07-.14-.18,0-.24l1-.59a.43.43,0,0,1,.41,0l1,.56C4.56,113.1,4.57,113.21,4.47,113.27Z"/><path class="cls-1" d="M6.87,114.66l-1,.59a.45.45,0,0,1-.42,0l-1-.56c-.12-.07-.13-.18,0-.24l1-.6a.48.48,0,0,1,.42,0l1,.56C7,114.49,7,114.6,6.87,114.66Z"/><path class="cls-1" d="M4.34,116.12l-1,.6a.48.48,0,0,1-.42,0l-1-.56c-.12-.07-.13-.18,0-.24l1-.6a.48.48,0,0,1,.42,0l1,.56C4.43,116,4.44,116.06,4.34,116.12Z"/><path class="cls-1" d="M9.41,116.13l-1,.59a.48.48,0,0,1-.42,0l-1-.57c-.12-.07-.13-.17,0-.23l1-.6a.48.48,0,0,1,.42,0l1,.56C9.5,116,9.52,116.07,9.41,116.13Z"/><path class="cls-1" d="M6.88,117.59l-1,.59a.48.48,0,0,1-.42,0l-1-.57c-.12-.07-.13-.17,0-.23l1-.6a.48.48,0,0,1,.42,0l1,.56C7,117.42,7,117.53,6.88,117.59Z"/><path class="cls-1" d="M11.81,117.51l-1,.6a.46.46,0,0,1-.41,0l-1-.56c-.12-.07-.13-.18,0-.24l1-.59a.43.43,0,0,1,.41,0l1,.56C11.9,117.34,11.92,117.45,11.81,117.51Z"/><path class="cls-1" d="M9.28,119l-1,.6a.46.46,0,0,1-.41,0l-1-.56c-.12-.07-.13-.18,0-.24l1-.59a.46.46,0,0,1,.41,0l1,.57C9.37,118.81,9.39,118.91,9.28,119Z"/><path class="cls-1" d="M14.21,118.9l-1,.59a.43.43,0,0,1-.41,0l-1-.56c-.12-.07-.13-.18,0-.24l1-.6a.46.46,0,0,1,.41,0l1,.56C14.3,118.73,14.32,118.84,14.21,118.9Z"/><path class="cls-1" d="M11.68,120.36l-1,.6a.46.46,0,0,1-.41,0l-1-.56c-.12-.07-.13-.18,0-.24l1-.6a.46.46,0,0,1,.41,0l1,.56C11.77,120.19,11.79,120.3,11.68,120.36Z"/><path class="cls-1" d="M16.75,120.37l-1,.59a.46.46,0,0,1-.41,0l-1-.57c-.13-.07-.14-.17,0-.23l1-.6a.46.46,0,0,1,.41,0l1,.56C16.85,120.2,16.86,120.31,16.75,120.37Z"/><path class="cls-1" d="M14.22,121.83l-1,.59a.46.46,0,0,1-.41,0l-1-.57c-.13-.07-.14-.17,0-.23l1-.6a.46.46,0,0,1,.41,0l1,.56C14.32,121.66,14.33,121.77,14.22,121.83Z"/><path class="cls-1" d="M19.15,121.75l-1,.6a.46.46,0,0,1-.41,0l-1-.56c-.12-.07-.14-.18,0-.24l1-.59a.43.43,0,0,1,.41,0l1,.56C19.25,121.58,19.26,121.69,19.15,121.75Z"/><path class="cls-1" d="M16.62,123.21l-1,.6a.46.46,0,0,1-.41,0l-1-.56c-.12-.07-.14-.18,0-.24l1-.59a.46.46,0,0,1,.41,0l1,.57C16.72,123.05,16.73,123.15,16.62,123.21Z"/><path class="cls-1" d="M21.56,123.14l-1,.59a.43.43,0,0,1-.41,0l-1-.56c-.12-.07-.14-.18,0-.24l1-.6a.46.46,0,0,1,.41,0l1,.56C21.65,123,21.66,123.08,21.56,123.14Z"/><path class="cls-1" d="M19,124.6l-1,.6a.46.46,0,0,1-.41,0l-1-.56c-.12-.07-.14-.18,0-.24l1-.6a.46.46,0,0,1,.41,0l1,.56C19.12,124.43,19.13,124.54,19,124.6Z"/><path class="cls-1" d="M24.1,124.61l-1,.59a.48.48,0,0,1-.42,0l-1-.57c-.12-.07-.14-.17,0-.23l1-.6a.46.46,0,0,1,.41,0l1,.56C24.19,124.44,24.2,124.55,24.1,124.61Z"/><path class="cls-1" d="M21.57,126.07l-1,.59a.48.48,0,0,1-.42,0l-1-.57c-.12-.07-.14-.17,0-.23l1-.6a.46.46,0,0,1,.41,0l1,.56C21.66,125.9,21.67,126,21.57,126.07Z"/><path class="cls-1" d="M26.5,126l-1,.6a.48.48,0,0,1-.42,0l-1-.56c-.12-.07-.13-.18,0-.24l1-.59a.45.45,0,0,1,.42,0l1,.56C26.59,125.82,26.6,125.93,26.5,126Z"/><path class="cls-1" d="M24,127.45l-1,.6a.48.48,0,0,1-.42,0l-1-.56c-.12-.07-.13-.18,0-.24l1-.59a.48.48,0,0,1,.42,0l1,.57C24.06,127.29,24.07,127.39,24,127.45Z"/><path class="cls-1" d="M28.9,127.38l-1,.59a.43.43,0,0,1-.41,0l-1-.56c-.12-.07-.13-.18,0-.24l1-.6a.48.48,0,0,1,.42,0l1,.56C29,127.21,29,127.32,28.9,127.38Z"/><path class="cls-1" d="M26.37,128.84l-1,.6a.46.46,0,0,1-.41,0l-1-.56c-.12-.07-.13-.18,0-.24l1-.6a.48.48,0,0,1,.42,0l1,.56C26.46,128.67,26.48,128.78,26.37,128.84Z"/><path class="cls-1" d="M31.44,128.85l-1,.59a.46.46,0,0,1-.41,0l-1-.57c-.12-.07-.13-.17,0-.23l1-.6a.46.46,0,0,1,.41,0l1,.56C31.53,128.68,31.55,128.79,31.44,128.85Z"/><path class="cls-1" d="M28.91,130.31l-1,.59a.46.46,0,0,1-.41,0l-1-.57c-.12-.07-.13-.17,0-.23l1-.6a.46.46,0,0,1,.41,0l1,.56C29,130.14,29,130.25,28.91,130.31Z"/><path class="cls-1" d="M33.84,130.23l-1,.6a.46.46,0,0,1-.41,0l-1-.56c-.13-.07-.14-.18,0-.24l1-.59a.43.43,0,0,1,.41,0l1,.56C33.94,130.06,34,130.17,33.84,130.23Z"/><path class="cls-1" d="M31.31,131.69l-1,.6a.46.46,0,0,1-.41,0l-1-.56c-.13-.07-.14-.18,0-.24l1-.59a.46.46,0,0,1,.41,0l1,.57C31.41,131.53,31.42,131.63,31.31,131.69Z"/><path class="cls-1" d="M36.24,131.62l-1,.59a.43.43,0,0,1-.41,0l-1-.56c-.13-.07-.14-.18,0-.24l1-.6a.46.46,0,0,1,.41,0l1,.56C36.34,131.45,36.35,131.56,36.24,131.62Z"/><path class="cls-1" d="M33.71,133.08l-1,.6a.46.46,0,0,1-.41,0l-1-.56c-.13-.07-.14-.18,0-.24l1-.6a.46.46,0,0,1,.41,0l1,.56C33.81,132.91,33.82,133,33.71,133.08Z"/><path class="cls-1" d="M38.79,133.09l-1,.59a.46.46,0,0,1-.41,0l-1-.57c-.12-.07-.14-.17,0-.23l1-.6a.46.46,0,0,1,.41,0l1,.56C38.88,132.92,38.89,133,38.79,133.09Z"/><path class="cls-1" d="M36.26,134.55l-1,.59a.46.46,0,0,1-.41,0l-1-.57c-.12-.07-.14-.17,0-.23l1-.6a.46.46,0,0,1,.41,0l1,.56C36.35,134.38,36.36,134.49,36.26,134.55Z"/><path class="cls-1" d="M38.78,130.16l-1,.6a.48.48,0,0,1-.42,0l-1-.56c-.12-.07-.13-.18,0-.24l1-.6a.48.48,0,0,1,.42,0l1,.56C38.87,130,38.89,130.1,38.78,130.16Z"/><path class="cls-1" d="M41.32,131.63l-1,.59a.46.46,0,0,1-.41,0l-1-.56c-.12-.07-.14-.17,0-.24l1-.59a.46.46,0,0,1,.41,0l1,.56C41.41,131.46,41.42,131.56,41.32,131.63Z"/><path class="cls-1" d="M43.85,130.16l-1,.6a.46.46,0,0,1-.41,0l-1-.56c-.12-.07-.14-.18,0-.24l1-.59a.46.46,0,0,1,.41,0l1,.57C43.94,130,44,130.1,43.85,130.16Z"/><path class="cls-1" d="M46.38,128.7l-1,.6a.46.46,0,0,1-.41,0l-1-.56c-.12-.07-.14-.18,0-.24l1-.59a.46.46,0,0,1,.41,0l1,.57C46.47,128.54,46.48,128.64,46.38,128.7Z"/><path class="cls-1" d="M48.91,127.24l-1,.6a.46.46,0,0,1-.41,0l-1-.56c-.12-.07-.14-.18,0-.24l1-.59a.46.46,0,0,1,.41,0l1,.57C49,127.08,49,127.18,48.91,127.24Z"/><path class="cls-1" d="M51.44,125.78l-1,.6a.46.46,0,0,1-.41,0l-1-.56c-.12-.07-.14-.18,0-.24l1-.59a.43.43,0,0,1,.41,0l1,.56C51.53,125.61,51.54,125.72,51.44,125.78Z"/><path class="cls-1" d="M54,124.32l-1,.6a.46.46,0,0,1-.41,0l-1-.56c-.12-.07-.14-.18,0-.24l1-.59a.43.43,0,0,1,.41,0l1,.56C54.06,124.15,54.07,124.26,54,124.32Z"/><path class="cls-1" d="M56.5,122.86l-1,.6a.46.46,0,0,1-.41,0l-1-.56c-.12-.07-.14-.18,0-.24l1-.6a.46.46,0,0,1,.41,0l1,.56C56.59,122.69,56.6,122.8,56.5,122.86Z"/><path class="cls-1" d="M59,121.4l-1,.6a.46.46,0,0,1-.41,0l-1-.56c-.12-.07-.14-.18,0-.24l1-.6a.46.46,0,0,1,.41,0l1,.56C59.12,121.23,59.13,121.34,59,121.4Z"/><path class="cls-1" d="M61.56,119.94l-1,.6a.46.46,0,0,1-.41,0l-1-.56c-.12-.07-.14-.18,0-.24l1-.6a.46.46,0,0,1,.41,0l1,.56C61.65,119.77,61.66,119.88,61.56,119.94Z"/><path class="cls-1" d="M64.09,118.48l-1,.6a.46.46,0,0,1-.41,0l-1-.56c-.12-.07-.14-.18,0-.24l1-.6a.46.46,0,0,1,.41,0l1,.56C64.18,118.31,64.19,118.42,64.09,118.48Z"/><path class="cls-1" d="M66.62,117l-1,.59a.43.43,0,0,1-.41,0l-1-.56c-.12-.07-.14-.18,0-.24l1-.6a.46.46,0,0,1,.41,0l1,.56C66.71,116.85,66.72,117,66.62,117Z"/><path class="cls-1" d="M41.19,134.47l-1,.6a.46.46,0,0,1-.41,0l-1-.56c-.12-.07-.14-.18,0-.24l1-.59a.43.43,0,0,1,.41,0l1,.56C41.28,134.3,41.29,134.41,41.19,134.47Z"/><path class="cls-1" d="M43.72,133l-1,.6a.46.46,0,0,1-.41,0l-1-.56c-.12-.07-.14-.18,0-.24l1-.59a.43.43,0,0,1,.41,0l1,.56C43.81,132.84,43.82,133,43.72,133Z"/><path class="cls-1" d="M46.25,131.55l-1,.6a.46.46,0,0,1-.41,0l-1-.56c-.12-.07-.14-.18,0-.24l1-.6a.46.46,0,0,1,.41,0l1,.56C46.34,131.38,46.35,131.49,46.25,131.55Z"/><path class="cls-1" d="M48.78,130.09l-1,.6a.46.46,0,0,1-.41,0l-1-.56c-.12-.07-.14-.18,0-.24l1-.6a.46.46,0,0,1,.41,0l1,.56C48.87,129.92,48.88,130,48.78,130.09Z"/><path class="cls-1" d="M51.31,128.63l-1,.6a.46.46,0,0,1-.41,0l-1-.56c-.12-.07-.14-.18,0-.24l1-.6a.46.46,0,0,1,.41,0l1,.56C51.4,128.46,51.41,128.57,51.31,128.63Z"/><path class="cls-1" d="M53.84,127.17l-1,.59a.43.43,0,0,1-.41,0l-1-.56c-.12-.07-.14-.18,0-.24l1-.6a.46.46,0,0,1,.41,0l1,.56C53.93,127,53.94,127.11,53.84,127.17Z"/><path class="cls-1" d="M56.37,125.71l-1,.59a.43.43,0,0,1-.41,0l-1-.56c-.12-.07-.14-.18,0-.24l1-.6a.46.46,0,0,1,.41,0l1,.56C56.46,125.54,56.47,125.65,56.37,125.71Z"/><path class="cls-1" d="M58.9,124.25l-1,.59a.46.46,0,0,1-.41,0l-1-.57c-.12-.07-.14-.17,0-.23l1-.6a.46.46,0,0,1,.41,0l1,.56C59,124.08,59,124.19,58.9,124.25Z"/><path class="cls-1" d="M61.43,122.79l-1,.59a.46.46,0,0,1-.41,0l-1-.57c-.12-.07-.14-.17,0-.23l1-.6a.46.46,0,0,1,.41,0l1,.56C61.52,122.62,61.53,122.73,61.43,122.79Z"/><path class="cls-1" d="M64,121.33l-1,.59a.46.46,0,0,1-.41,0l-1-.57c-.12-.07-.14-.17,0-.23l1-.6a.46.46,0,0,1,.41,0l1,.56C64.05,121.16,64.06,121.27,64,121.33Z"/><path class="cls-1" d="M66.49,119.87l-1,.59a.46.46,0,0,1-.41,0l-1-.56c-.12-.07-.14-.17,0-.24l1-.59a.46.46,0,0,1,.41,0l1,.56C66.58,119.7,66.59,119.8,66.49,119.87Z"/><path class="cls-1" d="M77.46,152.38l-1,.6a.48.48,0,0,1-.42,0l-1-.56c-.12-.07-.13-.18,0-.24l1-.59a.48.48,0,0,1,.42,0l1,.57C77.55,152.22,77.56,152.32,77.46,152.38Z"/><path class="cls-1" d="M79.86,153.77l-1,.6a.46.46,0,0,1-.41,0l-1-.56c-.12-.07-.13-.18,0-.24l1-.6a.48.48,0,0,1,.42,0l1,.56C80,153.6,80,153.71,79.86,153.77Z"/><path class="cls-1" d="M77.33,155.23l-1,.6a.46.46,0,0,1-.41,0l-1-.56c-.12-.07-.13-.18,0-.24l1-.6a.48.48,0,0,1,.42,0l1,.56C77.42,155.06,77.44,155.17,77.33,155.23Z"/><path class="cls-1" d="M75,151l-1,.6a.48.48,0,0,1-.42,0l-1-.56c-.12-.07-.14-.18,0-.24l1-.6a.46.46,0,0,1,.41,0l1,.56C75.12,150.79,75.13,150.9,75,151Z"/><path class="cls-1" d="M74.9,153.81l-1,.59a.48.48,0,0,1-.42,0l-1-.57c-.12-.07-.13-.17,0-.23l1-.6a.48.48,0,0,1,.42,0l1,.56C75,153.64,75,153.75,74.9,153.81Z"/><path class="cls-1" d="M82.26,155.16l-1,.59a.43.43,0,0,1-.41,0l-1-.56c-.12-.07-.13-.17,0-.23l1-.6a.46.46,0,0,1,.41,0l1,.56C82.35,155,82.37,155.1,82.26,155.16Z"/><path class="cls-1" d="M79.73,156.62l-1,.59a.46.46,0,0,1-.41,0l-1-.57c-.12-.07-.13-.17,0-.23l1-.6a.46.46,0,0,1,.41,0l1,.56C79.82,156.45,79.84,156.56,79.73,156.62Z"/><path class="cls-1" d="M84.8,156.62l-1,.6a.46.46,0,0,1-.41,0l-1-.56c-.12-.07-.13-.18,0-.24l1-.59a.46.46,0,0,1,.41,0l1,.57C84.89,156.46,84.91,156.56,84.8,156.62Z"/><path class="cls-1" d="M82.27,158.08l-1,.6a.46.46,0,0,1-.41,0l-1-.56c-.12-.07-.13-.18,0-.24l1-.59a.46.46,0,0,1,.41,0l1,.57C82.36,157.92,82.38,158,82.27,158.08Z"/><path class="cls-1" d="M87.33,155.16l-1,.6a.46.46,0,0,1-.41,0l-1-.56c-.13-.07-.14-.18,0-.24l1-.59a.43.43,0,0,1,.41,0l1,.56C87.42,155,87.44,155.1,87.33,155.16Z"/><path class="cls-1" d="M89.86,153.7l-1,.6a.46.46,0,0,1-.41,0l-1-.56c-.13-.07-.14-.18,0-.24l1-.59a.43.43,0,0,1,.41,0l1,.56C90,153.53,90,153.64,89.86,153.7Z"/><path class="cls-1" d="M87.2,158l-1,.6a.46.46,0,0,1-.41,0l-1-.56c-.13-.07-.14-.18,0-.24l1-.6a.46.46,0,0,1,.41,0l1,.56C87.3,157.84,87.31,158,87.2,158Z"/><path class="cls-1" d="M89.73,156.55l-1,.59a.43.43,0,0,1-.41,0l-1-.56c-.13-.07-.14-.18,0-.24l1-.6a.46.46,0,0,1,.41,0l1,.56C89.83,156.38,89.84,156.49,89.73,156.55Z"/><path class="cls-1" d="M91.19,143l-1,.6a.48.48,0,0,1-.42,0l-1-.56c-.12-.07-.14-.18,0-.24l1-.6a.48.48,0,0,1,.42,0l1,.56C91.28,142.86,91.29,143,91.19,143Z"/><path class="cls-1" d="M93.59,144.42l-1,.59a.48.48,0,0,1-.42,0l-1-.57c-.12-.07-.13-.17,0-.23l1-.6a.48.48,0,0,1,.42,0l1,.56C93.68,144.25,93.69,144.36,93.59,144.42Z"/><path class="cls-1" d="M91.06,145.88l-1,.59a.48.48,0,0,1-.42,0l-1-.57c-.12-.07-.13-.17,0-.23l1-.6a.48.48,0,0,1,.42,0l1,.56C91.15,145.71,91.16,145.82,91.06,145.88Z"/><path class="cls-1" d="M96,145.8l-1,.6a.46.46,0,0,1-.41,0l-1-.56c-.12-.07-.13-.18,0-.24l1-.59a.43.43,0,0,1,.41,0l1,.56C96.08,145.64,96.1,145.74,96,145.8Z"/><path class="cls-1" d="M93.46,147.26l-1,.6a.46.46,0,0,1-.41,0l-1-.56c-.12-.07-.13-.18,0-.24l1-.59a.48.48,0,0,1,.42,0l1,.57C93.55,147.1,93.57,147.2,93.46,147.26Z"/><path class="cls-1" d="M98.53,147.27l-1,.6a.46.46,0,0,1-.41,0l-1-.56c-.12-.07-.13-.18,0-.24l1-.6a.46.46,0,0,1,.41,0l1,.56C98.62,147.1,98.64,147.21,98.53,147.27Z"/><path class="cls-1" d="M96,148.73l-1,.6a.46.46,0,0,1-.41,0l-1-.56c-.12-.07-.13-.18,0-.24l1-.6a.46.46,0,0,1,.41,0l1,.56C96.09,148.56,96.11,148.67,96,148.73Z"/><path class="cls-1" d="M101.06,145.81l-1,.6a.46.46,0,0,1-.41,0l-1-.56c-.12-.07-.13-.18,0-.24l1-.6a.46.46,0,0,1,.41,0l1,.56C101.15,145.64,101.17,145.75,101.06,145.81Z"/><path class="cls-1" d="M103.59,144.35l-1,.59a.43.43,0,0,1-.41,0l-1-.56c-.12-.07-.13-.18,0-.24l1-.6a.46.46,0,0,1,.41,0l1,.56C103.68,144.18,103.7,144.29,103.59,144.35Z"/><path class="cls-1" d="M100.93,148.66l-1,.59a.46.46,0,0,1-.41,0l-1-.57c-.13-.07-.14-.17,0-.23l1-.6a.46.46,0,0,1,.41,0l1,.56C101,148.49,101,148.6,100.93,148.66Z"/><path class="cls-1" d="M103.46,147.2l-1,.59a.43.43,0,0,1-.41,0l-1-.56c-.13-.07-.14-.17,0-.24l1-.59a.46.46,0,0,1,.41,0l1,.56C103.56,147,103.57,147.13,103.46,147.2Z"/><path class="cls-1" d="M68.21,105.64l-1,.59a.43.43,0,0,1-.41,0l-1-.56c-.12-.07-.13-.17,0-.24l1-.59a.46.46,0,0,1,.41,0l1,.56C68.3,105.47,68.32,105.57,68.21,105.64Z"/><path class="cls-1" d="M68.21,102.71l-1,.6a.46.46,0,0,1-.41,0l-1-.56c-.12-.07-.14-.18,0-.24l1-.6a.46.46,0,0,1,.41,0l1,.56C68.3,102.54,68.31,102.65,68.21,102.71Z"/><path class="cls-1" d="M70.74,104.18l-1,.59a.46.46,0,0,1-.41,0l-1-.56c-.12-.07-.13-.17,0-.24l1-.59a.43.43,0,0,1,.41,0l1,.56C70.83,104,70.85,104.11,70.74,104.18Z"/><path class="cls-1" d="M73.27,102.71l-1,.6a.46.46,0,0,1-.41,0l-1-.56c-.12-.07-.13-.18,0-.24l1-.59a.46.46,0,0,1,.41,0l1,.57C73.36,102.55,73.38,102.65,73.27,102.71Z"/><path class="cls-1" d="M75.8,101.25l-1,.6a.46.46,0,0,1-.41,0l-1-.56c-.12-.07-.13-.18,0-.24l1-.59a.46.46,0,0,1,.41,0l1,.57C75.89,101.09,75.91,101.19,75.8,101.25Z"/><path class="cls-1" d="M78.33,99.79l-1,.6a.46.46,0,0,1-.41,0l-1-.56c-.12-.07-.13-.18,0-.24l1-.59a.46.46,0,0,1,.41,0l1,.56C78.42,99.63,78.44,99.73,78.33,99.79Z"/><path class="cls-1" d="M80.86,98.33l-1,.6a.46.46,0,0,1-.41,0l-1-.56c-.12-.07-.13-.18,0-.24l1-.59a.43.43,0,0,1,.41,0l1,.56C81,98.16,81,98.27,80.86,98.33Z"/><path class="cls-1" d="M83.39,96.87l-1,.6a.46.46,0,0,1-.41,0l-1-.56c-.12-.07-.13-.18,0-.24l1-.6a.46.46,0,0,1,.41,0l1,.56C83.48,96.7,83.5,96.81,83.39,96.87Z"/><path class="cls-1" d="M85.92,95.41l-1,.6a.46.46,0,0,1-.41,0l-1-.56c-.12-.07-.13-.18,0-.24l1-.6a.46.46,0,0,1,.41,0l1,.56C86,95.24,86,95.35,85.92,95.41Z"/><path class="cls-1" d="M88.45,94l-1,.6a.46.46,0,0,1-.41,0L86,94c-.12-.07-.13-.18,0-.24l1-.6a.46.46,0,0,1,.41,0l1,.56C88.54,93.78,88.56,93.89,88.45,94Z"/><path class="cls-1" d="M91,92.49l-1,.6a.46.46,0,0,1-.41,0l-1-.56c-.12-.07-.13-.18,0-.24l1-.6a.46.46,0,0,1,.41,0l1,.56C91.07,92.32,91.09,92.43,91,92.49Z"/><path class="cls-1" d="M93.51,91l-1,.59a.43.43,0,0,1-.41,0l-1-.56c-.12-.07-.13-.18,0-.24l1-.6a.46.46,0,0,1,.41,0l1,.56C93.6,90.86,93.62,91,93.51,91Z"/><path class="cls-1" d="M96,89.57l-1,.59a.43.43,0,0,1-.41,0l-1-.56c-.12-.08-.13-.18,0-.24l1-.6a.46.46,0,0,1,.41,0l1,.56C96.13,89.4,96.15,89.51,96,89.57Z"/><path class="cls-1" d="M73.14,105.56l-1,.6a.46.46,0,0,1-.41,0l-1-.56c-.13-.07-.14-.18,0-.24l1-.6a.46.46,0,0,1,.41,0l1,.56C73.24,105.39,73.25,105.5,73.14,105.56Z"/><path class="cls-1" d="M75.67,104.1l-1,.6a.46.46,0,0,1-.41,0l-1-.56c-.13-.07-.14-.18,0-.24l1-.6a.46.46,0,0,1,.41,0l1,.56C75.77,103.93,75.78,104,75.67,104.1Z"/><path class="cls-1" d="M78.2,102.64l-1,.6a.46.46,0,0,1-.41,0l-1-.56c-.13-.07-.14-.18,0-.24l1-.6a.46.46,0,0,1,.41,0l1,.56C78.3,102.47,78.31,102.58,78.2,102.64Z"/><path class="cls-1" d="M80.73,101.18l-1,.6a.46.46,0,0,1-.41,0l-1-.56c-.13-.07-.14-.18,0-.24l1-.6a.46.46,0,0,1,.41,0l1,.56C80.83,101,80.84,101.12,80.73,101.18Z"/><path class="cls-1" d="M83.26,99.72l-1,.59a.43.43,0,0,1-.41,0l-1-.56c-.13-.07-.14-.18,0-.24l1-.6a.46.46,0,0,1,.41,0l1,.56C83.36,99.55,83.37,99.66,83.26,99.72Z"/><path class="cls-1" d="M85.79,98.26l-1,.59a.43.43,0,0,1-.41,0l-1-.56c-.13-.08-.14-.18,0-.24l1-.6a.46.46,0,0,1,.41,0l1,.56C85.89,98.09,85.9,98.2,85.79,98.26Z"/><path class="cls-1" d="M88.32,96.8l-1,.59a.46.46,0,0,1-.41,0l-1-.57c-.13-.07-.14-.17,0-.23l1-.6a.46.46,0,0,1,.41,0l1,.56C88.42,96.63,88.43,96.74,88.32,96.8Z"/><path class="cls-1" d="M90.85,95.34l-1,.59a.46.46,0,0,1-.41,0l-1-.57c-.13-.07-.14-.17,0-.23l1-.6a.46.46,0,0,1,.41,0l1,.56C91,95.17,91,95.28,90.85,95.34Z"/><path class="cls-1" d="M93.38,93.88l-1,.59a.43.43,0,0,1-.41,0l-1-.56c-.13-.07-.14-.17,0-.24l1-.59a.46.46,0,0,1,.41,0l1,.56C93.48,93.71,93.49,93.81,93.38,93.88Z"/><path class="cls-1" d="M95.91,92.42l-1,.59a.46.46,0,0,1-.41,0l-1-.56c-.13-.07-.14-.17,0-.24l1-.59a.43.43,0,0,1,.41,0l1,.56C96,92.25,96,92.35,95.91,92.42Z"/><path class="cls-1" d="M99.64,97.31l-1,.59a.46.46,0,0,1-.41,0l-1-.57c-.12-.07-.14-.17,0-.23l1-.6a.46.46,0,0,1,.41,0l1,.56C99.73,97.14,99.74,97.25,99.64,97.31Z"/><path class="cls-1" d="M99.63,94.38l-1,.6a.46.46,0,0,1-.41,0l-1-.56c-.12-.07-.13-.18,0-.24l1-.6a.48.48,0,0,1,.42,0l1,.56C99.72,94.21,99.74,94.32,99.63,94.38Z"/><path class="cls-1" d="M102.17,95.85l-1,.59a.46.46,0,0,1-.41,0l-1-.56c-.12-.07-.14-.17,0-.24l1-.59a.46.46,0,0,1,.41,0l1,.56C102.26,95.68,102.27,95.78,102.17,95.85Z"/><path class="cls-1" d="M104.7,94.38l-1,.6a.46.46,0,0,1-.41,0l-1-.56c-.12-.07-.14-.18,0-.24l1-.59a.46.46,0,0,1,.41,0l1,.57C104.79,94.22,104.8,94.32,104.7,94.38Z"/><path class="cls-1" d="M107.23,92.92l-1,.6a.46.46,0,0,1-.41,0l-1-.56c-.12-.07-.14-.18,0-.24l1-.59a.46.46,0,0,1,.41,0l1,.57C107.32,92.76,107.33,92.86,107.23,92.92Z"/><path class="cls-1" d="M109.76,91.46l-1,.6a.46.46,0,0,1-.41,0l-1-.56c-.12-.07-.14-.18,0-.24l1-.59a.46.46,0,0,1,.41,0l1,.57C109.85,91.3,109.86,91.4,109.76,91.46Z"/><path class="cls-1" d="M112.29,90l-1,.6a.46.46,0,0,1-.41,0l-1-.56c-.12-.07-.14-.18,0-.24l1-.59a.43.43,0,0,1,.41,0l1,.56C112.38,89.83,112.39,89.94,112.29,90Z"/><path class="cls-1" d="M104.57,97.23l-1,.6a.46.46,0,0,1-.41,0l-1-.56c-.12-.07-.14-.18,0-.24l1-.59a.43.43,0,0,1,.41,0l1,.56C104.66,97.06,104.67,97.17,104.57,97.23Z"/><path class="cls-1" d="M107.1,95.77l-1,.6a.46.46,0,0,1-.41,0l-1-.56c-.12-.07-.14-.18,0-.24l1-.6a.46.46,0,0,1,.41,0l1,.56C107.19,95.6,107.2,95.71,107.1,95.77Z"/><path class="cls-1" d="M109.63,94.31l-1,.6a.46.46,0,0,1-.41,0l-1-.56c-.12-.07-.14-.18,0-.24l1-.6a.46.46,0,0,1,.41,0l1,.56C109.72,94.14,109.73,94.25,109.63,94.31Z"/><path class="cls-1" d="M112.16,92.85l-1,.6a.46.46,0,0,1-.41,0l-1-.56c-.12-.07-.14-.18,0-.24l1-.6a.46.46,0,0,1,.41,0l1,.56C112.25,92.68,112.26,92.79,112.16,92.85Z"/><path class="cls-2" d="M109.76,86V59.42L102,58.64v2.81l-20.77-12c-3.6-2.08-9.05-2.3-12.16-.5l4.75-2.54.28-1.49H64.67V71.06c-.06,1.42,1,2.92,3,4.09L93.18,89.89c3.6,2.08,9,2.31,12.16.51l2.32-1.55a3.67,3.67,0,0,0,2.1-2.88h0Z"/><path class="cls-1" d="M100.05,92.12a14.56,14.56,0,0,1-7.13-1.78L67.39,75.6c-2.13-1.23-3.31-2.89-3.24-4.56V44.4H74.76l-.45,2.35-1,.51A14.89,14.89,0,0,1,81.52,49l20,11.54V58.06l8.77.89V86h0a4.24,4.24,0,0,1-2.36,3.34l-2.29,1.52A11.33,11.33,0,0,1,100.05,92.12ZM65.19,45.44V71.06c0,1.29.94,2.61,2.72,3.64L93.44,89.44c3.45,2,8.67,2.22,11.64.51l2.3-1.53a3.22,3.22,0,0,0,1.86-2.48h.52l-.52,0v-26l-6.69-.68v3.14L81,49.9c-3.31-1.91-8.25-2.19-11.26-.7l-.4.21-.51-.91.41-.22,4.14-2.22.12-.62Z"/><path class="cls-1" d="M95.3,90.84a15.36,15.36,0,0,0,2.7.63V54.07H95.3Z"/><path class="cls-1" d="M98.52,92.06,97.93,92a14.56,14.56,0,0,1-2.79-.65l-.36-.12V53.55h3.74Zm-2.69-1.6a14.2,14.2,0,0,0,1.65.4V54.59H95.83Z"/><path class="cls-1" d="M67.58,44.83H64.67V71c-.06,1.39.93,2.88,2.91,4Z"/><path class="cls-1" d="M68.1,75.92l-.78-.46c-2.08-1.22-3.24-2.87-3.17-4.52V44.31H68.1ZM65.19,45.35V71A3.87,3.87,0,0,0,67.06,74V45.35Z"/><path class="cls-1" d="M102,61.46l-1.23.44-.09,29.7a10.38,10.38,0,0,0,4.63-1.19l2.32-1.55a3.67,3.67,0,0,0,2.1-2.88h0V59.43L102,58.65Z"/><path class="cls-1" d="M100.19,92.15l.09-30.61,1.23-.45v-3l8.77.89V86a4.24,4.24,0,0,1-2.36,3.33l-2.29,1.52a10.67,10.67,0,0,1-4.89,1.28Zm1.13-29.88-.08,28.78A9.49,9.49,0,0,0,105.08,90l2.3-1.53A3.22,3.22,0,0,0,109.24,86h0V59.9l-6.69-.68v2.6Z"/><rect class="cls-2" x="106.34" y="63.97" width="1.04" height="24.74"/><path class="cls-2" d="M88,88.66V67.59L81.82,67V69.2L65.33,59.69c-2.85-1.65-7.17-1.83-9.65-.4l-9.56,5.43.22-1.18H38.83V84.29c0,1.12.76,2.32,2.36,3.24l20.27,11.7c2.86,1.65,7.18,1.83,9.65.4L86.29,91A2.91,2.91,0,0,0,88,88.67h0Z"/><path class="cls-1" d="M66.92,101.11a11.67,11.67,0,0,1-5.72-1.43L40.93,88c-1.72-1-2.67-2.35-2.62-3.71V63H47l-.13.69,8.58-4.88c2.61-1.5,7.18-1.32,10.17.4L81.3,68.3V66.4l7.18.72V88.55a.57.57,0,0,1,0,.14h0a3.45,3.45,0,0,1-1.92,2.72l-15.18,8.68A9.14,9.14,0,0,1,66.92,101.11Zm-27.57-37V84.29c0,1,.73,2,2.11,2.79l20.26,11.7c2.71,1.57,6.8,1.75,9.13.4L86,90.5a2.39,2.39,0,0,0,1.4-1.86V68.06l-5.09-.51v2.56l-17.27-10c-2.71-1.57-6.8-1.75-9.13-.4l-10.55,6,.32-1.67Z"/><path class="cls-1" d="M41.14,63.47H38.83V84.21c0,1.11.74,2.29,2.31,3.21Z"/><path class="cls-1" d="M41.66,88.33l-.78-.46c-1.69-1-2.62-2.33-2.57-3.68V63h3.35ZM39.35,64V84.21a2.88,2.88,0,0,0,1.27,2.23V64Z"/><path class="cls-1" d="M81.82,69.21,65.33,59.69c-2.85-1.65-7.17-1.82-9.65-.4L67.6,65.16l-.16,35.43a8.1,8.1,0,0,0,3.67-1L86.29,91A2.88,2.88,0,0,0,88,88.68h0V67.6L81.82,67Z"/><path class="cls-1" d="M66.92,101.13l.16-35.65-12.5-6.15.84-.49c2.61-1.51,7.18-1.33,10.17.4L81.3,68.31v-1.9l7.18.72V88.56a.57.57,0,0,1,0,.14,3.43,3.43,0,0,1-1.92,2.72l-15.18,8.67a8.6,8.6,0,0,1-3.91,1Zm-10-41.82,11.23,5.53v.32L68,100a7.28,7.28,0,0,0,2.89-.84L86,90.51a2.39,2.39,0,0,0,1.4-1.86l.53-.06-.53,0V68.07l-5.09-.51v2.55l-17.27-10A10.69,10.69,0,0,0,56.89,59.31Z"/><rect class="cls-2" x="85.13" y="71.2" width="1.04" height="19.64"/><rect class="cls-2" x="69.38" y="79.85" width="1.04" height="19.64"/><path class="cls-2" d="M64.66,112.18a.56.56,0,0,0,0-.13V85.65l-7.73-.78v2.81l-20.77-12c-3.6-2.08-9-2.3-12.16-.5L12,82l.28-1.49H2.77v26.14c-.06,1.42,1,2.92,3,4.09l25.54,14.74c3.6,2.08,9,2.31,12.16.51l19.13-10.94a3.66,3.66,0,0,0,2.09-2.88h0Z"/><path class="cls-1" d="M38.16,127.74A14.63,14.63,0,0,1,31,126L5.48,111.22c-2.12-1.23-3.3-2.89-3.23-4.56V80H12.86l-.19,1,11.07-6.29c3.25-1.88,8.94-1.66,12.68.5l20,11.54V84.29l8.77.89v27h0a4.23,4.23,0,0,1-2.35,3.34L43.7,126.47A11.36,11.36,0,0,1,38.16,127.74ZM3.29,81.07v25.61c0,1.3.94,2.61,2.72,3.64l25.53,14.74c3.45,2,8.67,2.22,11.64.51l19.13-10.94a3.18,3.18,0,0,0,1.83-2.46h.52l-.52,0v-26l-6.69-.68v3.14L35.9,76.13c-3.45-2-8.67-2.21-11.64-.5L11.22,83l.38-2Z"/><path class="cls-1" d="M33.4,126.46a15.36,15.36,0,0,0,2.7.63V89.69H33.4Z"/><path class="cls-1" d="M36.62,127.68,36,127.6a14.39,14.39,0,0,1-2.79-.65l-.36-.12V89.17h3.74Zm-2.7-1.6a14.37,14.37,0,0,0,1.66.4V90.21H33.92Z"/><path class="cls-1" d="M5.68,80.45H2.77v26.14c-.06,1.39.93,2.88,2.91,4Z"/><path class="cls-1" d="M6.2,111.54l-.79-.46c-2.08-1.22-3.23-2.87-3.16-4.52V79.93h4ZM3.29,81v25.62a3.87,3.87,0,0,0,1.87,3.07V81Z"/><path class="cls-1" d="M56.93,87.69l-20.77-12c-3.6-2.08-9-2.3-12.16-.5l15,7.39-.2,44.64A10.42,10.42,0,0,0,43.44,126l19.13-10.94a3.66,3.66,0,0,0,2.09-2.88h0a.66.66,0,0,0,0-.14V85.66l-7.73-.78Z"/><path class="cls-1" d="M38.29,127.77l.2-44.87-15.6-7.67.85-.49c3.25-1.88,8.94-1.66,12.68.5l20,11.54V84.3l8.77.89v27a4.23,4.23,0,0,1-2.35,3.33L43.7,126.48a10.69,10.69,0,0,1-4.87,1.26ZM25.19,75.19l14.34,7.07v.32l-.2,44.09a9.49,9.49,0,0,0,3.85-1.09l19.13-10.94a3.18,3.18,0,0,0,1.83-2.46h0V86.13l-6.69-.68v3.14L35.9,76.14A13.48,13.48,0,0,0,25.19,75.19Z"/><rect class="cls-2" x="61.24" y="90.2" width="1.04" height="24.74"/><rect class="cls-2" x="41.4" y="101.09" width="1.04" height="24.74"/><path class="cls-2" d="M109.74,59.89V51L102,50.21V53L81.24,41c-3.6-2.07-9-2.3-12.17-.5L12,73.49,12.25,72H2.79v8.5c-.06,1.41,1,2.92,3,4.09L31.3,99.34c3.6,2.08,9,2.3,12.16.5l64.18-37.05a3.69,3.69,0,0,0,2.1-2.89h0Z"/><path class="cls-1" d="M38.18,101.57A14.63,14.63,0,0,1,31,99.79L5.5,85.05c-2.12-1.23-3.3-2.89-3.23-4.56v-9H12.88l-.19,1,56.12-32.4c3.26-1.88,9-1.65,12.69.5l20,11.54V49.63l8.77.89v9.9h-.07a4.41,4.41,0,0,1-2.29,2.82L43.72,100.29A11.23,11.23,0,0,1,38.18,101.57Zm-34.87-29v8c-.05,1.29.94,2.61,2.72,3.64L31.56,98.89c3.45,2,8.67,2.22,11.64.5l64.18-37a3.2,3.2,0,0,0,1.84-2.47v0h0V51.46l-6.69-.67v3.13L81,41.47c-3.46-2-8.68-2.21-11.65-.5L11.24,74.51l.38-2Z"/><path class="cls-1" d="M33.42,100.29a14.5,14.5,0,0,0,2.7.62V81.15h-2.7Z"/><path class="cls-1" d="M36.64,101.51l-.59-.08a15.16,15.16,0,0,1-2.79-.65l-.36-.12v-20h3.74Zm-2.7-1.6a14.36,14.36,0,0,0,1.66.39V81.67H33.94Z"/><path class="cls-1" d="M5.7,71.91H2.79v8.5c-.06,1.4.93,2.88,2.91,4Z"/><path class="cls-1" d="M6.22,85.37l-.79-.46C3.35,83.68,2.2,82,2.27,80.39v-9h4ZM3.31,72.43v8a3.89,3.89,0,0,0,1.87,3.08V72.43Z"/><path class="cls-1" d="M102,53,81.24,41c-3.6-2.07-9-2.3-12.17-.5L38.83,58v43.06a10.29,10.29,0,0,0,4.63-1.2l64.18-37a3.69,3.69,0,0,0,2.1-2.89h0V51L102,50.22Z"/><path class="cls-1" d="M38.31,101.59V57.69l30.5-17.61c3.26-1.88,9-1.65,12.69.5l20,11.55V49.64l8.77.89v9.4l-.07.49a4.39,4.39,0,0,1-2.29,2.83L43.72,100.3a10.81,10.81,0,0,1-4.86,1.27Zm1-43.3v42.2A9.33,9.33,0,0,0,43.2,99.4l64.18-37.05a3.2,3.2,0,0,0,1.84-2.47v-.05h0V51.47l-6.69-.67v3.13L81,41.48c-3.46-2-8.68-2.21-11.65-.5Z"/><path class="cls-3" d="M107.64,54.2,43.46,91.26c-3.12,1.8-8.56,1.57-12.16-.5L5.77,76c-3.6-2.07-4-5.22-.88-7l64.18-37c3.12-1.8,8.57-1.58,12.17.5l25.53,14.74C110.37,49.26,110.76,52.41,107.64,54.2Z"/><path class="cls-1" d="M38.18,93A14.74,14.74,0,0,1,31,91.21L5.5,76.47c-2-1.19-3.23-2.8-3.23-4.43a4.14,4.14,0,0,1,2.36-3.5L68.81,31.49c3.26-1.88,9-1.66,12.69.5L107,46.73c2.06,1.19,3.24,2.8,3.24,4.43a4.13,4.13,0,0,1-2.37,3.5L43.72,91.71A11.23,11.23,0,0,1,38.18,93ZM74.35,31.24a10.29,10.29,0,0,0-5,1.15L5.15,69.44A3.14,3.14,0,0,0,3.31,72c0,1.24,1,2.53,2.72,3.52L31.56,90.31c3.45,2,8.67,2.21,11.64.5l64.18-37.06a3.14,3.14,0,0,0,1.85-2.59c0-1.25-1-2.53-2.72-3.53L81,32.89A13.69,13.69,0,0,0,74.35,31.24Z"/><rect class="cls-2" x="106.32" y="55.54" width="1.04" height="7.1"/><rect class="cls-2" x="41.42" y="92.55" width="1.04" height="7.1"/><path class="cls-2" d="M102.06,63.12a1.14,1.14,0,0,1-.58-.15,1.38,1.38,0,0,1-.62-1.24,3.24,3.24,0,0,1,1.48-2.57,1.35,1.35,0,0,1,1.39-.09,1.38,1.38,0,0,1,.62,1.24,3.27,3.27,0,0,1-1.48,2.58A1.72,1.72,0,0,1,102.06,63.12ZM103.15,60a.55.55,0,0,0-.28.1,2.17,2.17,0,0,0-1,1.67c0,.22.07.32.1.34s.15,0,.34-.09a2.17,2.17,0,0,0,1-1.67c0-.22-.07-.32-.1-.34Z"/><path class="cls-2" d="M99,63.09a2.7,2.7,0,0,1-1.23,2.12c-.67.39-1.22.07-1.22-.71a2.72,2.72,0,0,1,1.22-2.12C98.48,62,99,62.31,99,63.09Z"/><path class="cls-2" d="M47.12,94.9a1.13,1.13,0,0,1-.57-.15,1.36,1.36,0,0,1-.62-1.25,3.24,3.24,0,0,1,1.48-2.57,1.26,1.26,0,0,1,2,1.16,3.22,3.22,0,0,1-1.49,2.57A1.6,1.6,0,0,1,47.12,94.9Zm1.1-3.16a.68.68,0,0,0-.29.09,2.22,2.22,0,0,0-1,1.67c0,.23.06.33.1.35a.48.48,0,0,0,.34-.09,2.2,2.2,0,0,0,1-1.67c0-.23-.07-.32-.1-.34Z"/><rect class="cls-2" x="38.68" y="81.5" width="71.33" height="1.04" transform="translate(-31.06 48.19) rotate(-30.01)"/><path class="cls-2" d="M5,84.61a9.91,9.91,0,0,1-2-1.87l.83-.64a8.88,8.88,0,0,0,1.73,1.66Z"/><path class="cls-3" d="M95.81,23.45,84.67,17c-2.13-1.23-4.07-1.3-5.56-.43h0L71.39,21l2.89,9.56L96.51,54.65a.06.06,0,0,0,.06,0l7.73-4.41V39.67C104.3,33.42,100.5,26.16,95.81,23.45Z"/><path class="cls-1" d="M96.43,55.34,96.1,55,73.82,30.8l-3-10.07L79.16,16h0a6.12,6.12,0,0,1,5.75.61L96.07,23c4.82,2.79,8.75,10.26,8.75,16.67V50.55ZM74.75,30.27,96.64,54l7.14-4.08V39.67c0-6.07-3.69-13.15-8.23-15.76L84.41,17.47c-1.88-1.08-3.67-1.23-5-.43l-.33.19h0l-7,4Z"/><path class="cls-1" d="M104.3,50.14V39.56a19.26,19.26,0,0,0-.83-5.34l-7.73,4.56-6.09.39,1.24,8.06,5.62,7.31a.06.06,0,0,0,.06,0Z"/><path class="cls-1" d="M96.43,55.23l-.34-.38L90.4,47.44l-1.35-8.75,6.54-.42,8.19-4.84.18.64a19.25,19.25,0,0,1,.86,5.49V50.44Zm-5-8.21,5.28,6.87,7.11-4.06V39.56a18.23,18.23,0,0,0-.63-4.55L95.9,39.29l-5.65.36Z"/><path class="cls-2" d="M72.51,24.49l2.25-2.88c.55-.44,1.45.2,2-.24L84.67,17h0s-1.49-.68-1.52-.69a4.78,4.78,0,0,0-4,.26h0L71.42,21a0,0,0,0,0,0,0l1,3.48A0,0,0,0,0,72.51,24.49Z"/><path class="cls-1" d="M72.73,25.06l-.65-.1L72,24.64l-1.18-3.88.37-.25,8-4.57,0,0a5.4,5.4,0,0,1,4.14-.12c1.81.63,1.85,1,1.86,1.13l0,.34L77,21.81a1.79,1.79,0,0,1-1.35.2,1.22,1.22,0,0,0-.57,0ZM72,21.22l.67,2.21,1.75-2.22a1.68,1.68,0,0,1,1.4-.23c.25,0,.5.07.6,0l.08-.06,7-3.85L83,16.81a4.27,4.27,0,0,0-3.59.23l-.33.18h0Z"/><path class="cls-2" d="M100.89,28.58l-7.67,4.58-1.52,3,4,2.57,7.7-4.54A23,23,0,0,0,100.89,28.58Z"/><path class="cls-1" d="M95.74,39.32l-4.72-3,1.81-3.54,8.23-4.91.27.43A23.65,23.65,0,0,1,103.94,34l.11.39ZM92.38,36l3.37,2.14,7.07-4.17a22.83,22.83,0,0,0-2.1-4.64l-7.1,4.24Z"/><path class="cls-2" d="M96.47,54.64,68.41,38.44V27.87c0-6.25,3.8-9.13,8.49-6.42l11.15,6.44c4.68,2.7,8.48,10,8.48,16.21V54.6S96.5,54.66,96.47,54.64Z"/><path class="cls-1" d="M96.51,55.24l-.3-.15L67.89,38.74V27.87c0-3.48,1.17-6.15,3.2-7.32,1.71-1,3.86-.83,6.07.45l11.15,6.43c4.82,2.79,8.74,10.27,8.74,16.67V54.9ZM68.94,38.14,96,53.78V44.1C96,38,92.32,31,87.79,28.34L76.64,21.9c-1.87-1.08-3.66-1.24-5-.45-1.7,1-2.67,3.32-2.67,6.42Z"/><path class="cls-1" d="M83.66,31.46c-1.12-.65-2.08-.41-2.48.49a4.65,4.65,0,0,0-.62,2.31A3.19,3.19,0,0,0,82,37.14a3.8,3.8,0,0,0,2.62.87c1,.12,1.69-.59,1.69-1.9A5.91,5.91,0,0,0,83.66,31.46Z"/><path class="cls-1" d="M84.87,38.55h-.23a4.42,4.42,0,0,1-2.92-1A3.78,3.78,0,0,1,80,34.23a5.18,5.18,0,0,1,.69-2.55,1.81,1.81,0,0,1,1.12-1,2.49,2.49,0,0,1,2.07.34h0a6.39,6.39,0,0,1,3,5.1,2.52,2.52,0,0,1-.75,2A1.81,1.81,0,0,1,84.87,38.55Zm-.2-1.06h0a.86.86,0,0,0,.71-.2,1.55,1.55,0,0,0,.4-1.19,5.44,5.44,0,0,0-2.43-4.2h0a1.56,1.56,0,0,0-1.23-.25.88.88,0,0,0-.52.5,4.35,4.35,0,0,0-.57,2.09v.11a2.7,2.7,0,0,0,1.28,2.37,3.32,3.32,0,0,0,2.27.76Z"/><path class="cls-2" d="M82.05,35a3.87,3.87,0,0,0,2.62.88A1.4,1.4,0,0,0,86.2,35a6,6,0,0,0-2.52-3.51c-1.12-.65-2.08-.41-2.49.49a4.2,4.2,0,0,0-.49,1.25A3.83,3.83,0,0,0,82.05,35Z"/><path class="cls-1" d="M84.88,36.44h-.23a4.34,4.34,0,0,1-2.92-1h0a4.38,4.38,0,0,1-1.53-2.08l0-.13,0-.14a4.67,4.67,0,0,1,.56-1.41,1.79,1.79,0,0,1,1.12-1,2.5,2.5,0,0,1,2.07.34,6.45,6.45,0,0,1,2.76,3.82l0,.17-.06.16A1.88,1.88,0,0,1,84.88,36.44Zm-.19-1.06h0a.83.83,0,0,0,.91-.46,5.43,5.43,0,0,0-2.22-3,1.57,1.57,0,0,0-1.23-.25.85.85,0,0,0-.52.5,3.63,3.63,0,0,0-.43,1,3.54,3.54,0,0,0,1.14,1.45,3.32,3.32,0,0,0,2.27.76Z"/><path class="cls-3" d="M85.38,33.16a5.21,5.21,0,0,0-1.7-1.7c-1.12-.65-2.08-.41-2.49.49a4.2,4.2,0,0,0-.49,1.25,3.32,3.32,0,0,0,.66,1.16l1.88.2Z"/><path class="cls-1" d="M83.37,35.1l-2.27-.24L81,34.7a4.2,4.2,0,0,1-.76-1.34l0-.13,0-.14a4.67,4.67,0,0,1,.56-1.41,1.79,1.79,0,0,1,1.12-1,2.5,2.5,0,0,1,2.07.34,5.71,5.71,0,0,1,1.87,1.86l.29.44Zm-1.74-1.23,1.48.15,1.53-1a4.32,4.32,0,0,0-1.22-1.11,1.57,1.57,0,0,0-1.23-.25.85.85,0,0,0-.52.5,3.63,3.63,0,0,0-.43,1A3,3,0,0,0,81.63,33.87Z"/><path class="cls-2" d="M81,31.48c-1.76-1-3.27-.64-3.89.77a7.23,7.23,0,0,0-1,3.63s-.44,2.31,2.32,4.5a6,6,0,0,0,4.09,1.37c1.56.18,2.66-.93,2.66-3A9.3,9.3,0,0,0,81,31.48Z"/><path class="cls-1" d="M82.9,42.29l-.34,0a6.56,6.56,0,0,1-4.41-1.48c-2.74-2.18-2.57-4.53-2.51-4.95a7.75,7.75,0,0,1,1-3.86,2.61,2.61,0,0,1,1.59-1.46,3.73,3.73,0,0,1,3,.51h0a9.76,9.76,0,0,1,4.47,7.74,3.69,3.69,0,0,1-1.08,2.87A2.6,2.6,0,0,1,82.9,42.29Zm-.31-1.06h0A1.63,1.63,0,0,0,84,40.86a2.75,2.75,0,0,0,.73-2.09,8.73,8.73,0,0,0-3.95-6.84h0a2.8,2.8,0,0,0-2.17-.42,1.62,1.62,0,0,0-1,.95,6.9,6.9,0,0,0-.92,3.4V36c0,.08-.33,2.06,2.12,4a5.53,5.53,0,0,0,3.75,1.25Z"/><path class="cls-3" d="M83.24,33.47a7.67,7.67,0,0,0-2.22-2c-1.76-1-3.27-.64-3.9.77a7.25,7.25,0,0,0-1,3.62,3.66,3.66,0,0,0,.2,1.68l3.79-1.75Z"/><path class="cls-1" d="M76.06,38.24l-.19-.55a4.26,4.26,0,0,1-.23-1.88,7.78,7.78,0,0,1,1-3.87,2.64,2.64,0,0,1,1.59-1.46,3.74,3.74,0,0,1,3,.52,8.38,8.38,0,0,1,2.38,2.16l.32.42-3.61,2.66Zm3.08-6.85a1.64,1.64,0,0,0-1.54,1,6.85,6.85,0,0,0-.92,3.39v.12a2.67,2.67,0,0,0,0,.85l3.17-1.47,2.62-1.94a6.9,6.9,0,0,0-1.74-1.48A3.41,3.41,0,0,0,79.14,31.39Z"/><path class="cls-1" d="M81,37.23l-3.76,1.88a6.91,6.91,0,0,0,1.27,1.27,6,6,0,0,0,4.09,1.37c1.56.18,2.66-.93,2.66-3a8.18,8.18,0,0,0-.84-3.38Z"/><path class="cls-1" d="M82.9,42.29l-.34,0a6.56,6.56,0,0,1-4.41-1.48,7.88,7.88,0,0,1-1.35-1.36l-.39-.5,4.32-2.17,3.9-2.09.23.5a8.62,8.62,0,0,1,.89,3.6,3.69,3.69,0,0,1-1.08,2.87A2.6,2.6,0,0,1,82.9,42.29Zm-.31-1.06h0A1.63,1.63,0,0,0,84,40.86a2.75,2.75,0,0,0,.73-2.09,7.24,7.24,0,0,0-.57-2.65l-2.93,1.57L78,39.28a8.64,8.64,0,0,0,.76.7,5.53,5.53,0,0,0,3.75,1.25Z"/><path class="cls-2" d="M81.38,39.07c0,1.66-1.17,2.34-2.61,1.5a5.76,5.76,0,0,1-2.61-4.51c0-1.66,1.17-2.34,2.61-1.51A5.79,5.79,0,0,1,81.38,39.07Z"/><path class="cls-1" d="M79.94,41.45A2.92,2.92,0,0,1,78.51,41a6.25,6.25,0,0,1-2.87-5,2.1,2.1,0,0,1,3.39-2,6.25,6.25,0,0,1,2.87,5,2.32,2.32,0,0,1-1,2.14A1.91,1.91,0,0,1,79.94,41.45Zm-2.33-6.73a.82.82,0,0,0-.42.1,1.38,1.38,0,0,0-.5,1.24A5.26,5.26,0,0,0,79,40.12a1.09,1.09,0,0,0,1.83-1A5.3,5.3,0,0,0,78.51,35,2,2,0,0,0,77.61,34.72Z"/><path class="cls-3" d="M78.44,39.31l-19,10.95a1.44,1.44,0,0,1-1.42,0h0a1.42,1.42,0,0,1,0-2.46L77,36.86a1.39,1.39,0,0,1,1.42,0h0A1.42,1.42,0,0,1,78.44,39.31Z"/><path class="cls-1" d="M58.71,51a2,2,0,0,1-1-.26,1.94,1.94,0,0,1,0-3.36l19-11a2,2,0,0,1,1.94,0,1.92,1.92,0,0,1,1,1.67,2,2,0,0,1-1,1.69h0l-19,10.94A2,2,0,0,1,58.71,51Zm19-13.78a.89.89,0,0,0-.45.12l-19,10.94a.9.9,0,0,0-.45.78.89.89,0,0,0,.45.78.9.9,0,0,0,.9,0l19-11a.89.89,0,0,0,0-1.55A.86.86,0,0,0,77.73,37.19Z"/><path class="cls-1" d="M62.89,48.84l-.42-1,.21.48-.21-.47a1.51,1.51,0,0,0,.88-1.27.81.81,0,0,0-.35-.75.61.61,0,0,0-.6,0l-.52-.9a1.68,1.68,0,0,1,1.64,0,1.82,1.82,0,0,1,.88,1.65A2.56,2.56,0,0,1,62.89,48.84Z"/><path class="cls-1" d="M65.6,47.29l-.41-1,.2.48-.21-.47a1.51,1.51,0,0,0,.88-1.27.81.81,0,0,0-.35-.75.61.61,0,0,0-.6,0l-.52-.9a1.68,1.68,0,0,1,1.64,0,1.82,1.82,0,0,1,.88,1.65A2.56,2.56,0,0,1,65.6,47.29Z"/><path class="cls-1" d="M68.31,45.74l-.41-1,.2.47-.21-.47a1.51,1.51,0,0,0,.88-1.27.81.81,0,0,0-.35-.75.64.64,0,0,0-.6,0l-.52-.9a1.68,1.68,0,0,1,1.64,0,1.82,1.82,0,0,1,.88,1.65A2.56,2.56,0,0,1,68.31,45.74Z"/><path class="cls-1" d="M71,44.19l-.42-.95A1.51,1.51,0,0,0,71.48,42a.81.81,0,0,0-.35-.75.64.64,0,0,0-.6,0L70,40.3a1.68,1.68,0,0,1,1.64,0A1.82,1.82,0,0,1,72.53,42,2.56,2.56,0,0,1,71,44.19Z"/><path class="cls-1" d="M73.73,42.64l-.41-1a1.53,1.53,0,0,0,.88-1.27.81.81,0,0,0-.36-.75.67.67,0,0,0-.6,0l-.52-.9a1.7,1.7,0,0,1,1.65,0,1.84,1.84,0,0,1,.87,1.65A2.56,2.56,0,0,1,73.73,42.64Z"/><path class="cls-2" d="M58.48,44.56,58,44.29A2,2,0,0,0,56.11,44l-.09,0-.6.35L39.88,53.56s0,0,0,.06l1.64,7.7h0l4.11,15.85a.05.05,0,0,0,.08,0l16-9.41a.05.05,0,0,0,0,0v-17A7.72,7.72,0,0,0,58.48,44.56Z"/><path class="cls-1" d="M45.74,77.78l-.28-.09a.56.56,0,0,1-.35-.37L41,61.43l-1.72-8.07.34-.24C39.74,53,55.05,44,55.2,43.94l.73-.41a2.51,2.51,0,0,1,2.33.31l.48.27a8.18,8.18,0,0,1,3.47,6.59V68l-.28.2ZM42,61.19h0l4,15.25,15.21-9V50.7a7.23,7.23,0,0,0-3-5.68l-.47-.28c-.77-.44-1.14-.37-1.41-.25l-.08,0-.56.33-15.25,9Z"/><path class="cls-1" d="M43.52,62.57l0,0,.41,8.26,0,.55,1.73,5.69a0,0,0,0,0,.06,0l16-9.42s0,0,0,0v-17a0,0,0,0,0-.07,0l-16,9.42h0Z"/><path class="cls-1" d="M45.73,77.71l-.51-.18-.1-.27-1.75-5.78,0-.64L43,62.42l.15-.19,2.26-2.6,16.23-9.57.57.3,0,.34V68l-.26.2Zm-1.31-6.37,1.52,5,15.23-9V51.53l-15.2,9L44,62.77l.4,8.06Z"/><path class="cls-2" d="M45.56,77.19l-4.63-2.67a4.4,4.4,0,0,1-2.2-3.81V56.18c0-2.37,1.44-3.45,3.21-2.43l.48.28a7.66,7.66,0,0,1,3.21,6.13v17A0,0,0,0,1,45.56,77.19Z"/><path class="cls-1" d="M45.58,77.72a.6.6,0,0,1-.29-.08L40.67,75a4.94,4.94,0,0,1-2.46-4.26V56.18a3.35,3.35,0,0,1,1.37-3,2.57,2.57,0,0,1,2.62.17l.48.27a8.16,8.16,0,0,1,3.48,6.59V77.45l-.29.19A.6.6,0,0,1,45.58,77.72ZM40.67,53.88a1.21,1.21,0,0,0-.57.15,2.38,2.38,0,0,0-.85,2.15V70.71a3.91,3.91,0,0,0,1.94,3.36l3.92,2.27V60.16a7.22,7.22,0,0,0-3-5.68l-.48-.28A2.11,2.11,0,0,0,40.67,53.88Z"/><rect class="cls-2" x="45.28" y="57.88" width="16.84" height="1.04" transform="translate(-22.17 35.22) rotate(-30.41)"/><rect class="cls-1" x="41.91" y="49.55" width="18.81" height="1.04" transform="translate(-18.29 32.87) rotate(-30.42)"/><path class="cls-3" d="M44,48.42,32.86,42c-2.13-1.23-4.07-1.29-5.56-.43h0L11.89,50.38l2.89,9.55L37,88.82a.1.1,0,0,0,.12,0L52.5,80V64.63C52.5,58.38,48.7,51.12,44,48.42Z"/><path class="cls-1" d="M37.05,89.37a.62.62,0,0,1-.49-.23l-22.25-29-3-10,16.09-9.22,0,0a6.06,6.06,0,0,1,5.74.6L44.27,48C49.09,50.75,53,58.23,53,64.63V80.32l-15.67,9A.54.54,0,0,1,37.05,89.37ZM15.25,59.69,37.16,88.2,52,79.72V64.63c0-6.07-3.69-13.14-8.22-15.76L32.6,42.43c-1.87-1.07-3.66-1.23-5-.43l-.32.19h0L12.5,50.62Z"/><path class="cls-1" d="M52.5,79.91V64.52a18.92,18.92,0,0,0-.84-5.34l-15.42,9-6.09,5.2,1.23,8.06L37,88.71a.1.1,0,0,0,.12,0Z"/><path class="cls-1" d="M37.05,89.26a.6.6,0,0,1-.49-.24l-5.67-7.38-1.3-8.47L36,67.72,52,58.4l.19.64A19.24,19.24,0,0,1,53,64.52V80.21l-15.67,9A.54.54,0,0,1,37.05,89.26Zm-5.17-8,5.28,6.87L52,79.61V64.52A17.9,17.9,0,0,0,51.34,60L36.54,68.6l-5.84,5Z"/><path class="cls-2" d="M13,53.89,15.25,51c.55-.45,1.45.2,2-.24L32.86,42h0s-1.48-.68-1.51-.69a4.81,4.81,0,0,0-4.05.26h0L11.91,50.36a.05.05,0,0,0,0,0L13,53.87A0,0,0,0,0,13,53.89Z"/><path class="cls-1" d="M13.22,54.46l-.66-.11L12.45,54l-1.18-3.87.39-.25,15.7-9h0a5.45,5.45,0,0,1,4.14-.12c.3.1,1.82.64,1.86,1.14l0,.33L17.54,51.2a1.73,1.73,0,0,1-1.36.2,1.38,1.38,0,0,0-.57,0Zm-.72-3.84.67,2.21,1.76-2.23a1.74,1.74,0,0,1,1.39-.23c.25,0,.5.07.6,0l.08,0L31.72,42l-.56-.25a4.29,4.29,0,0,0-3.6.22l-.32.19h0Z"/><path class="cls-2" d="M49.09,53.55l-15.37,9-1.53,3,4.05,2.57,15.4-9A23.35,23.35,0,0,0,49.09,53.55Z"/><path class="cls-1" d="M36.23,68.71l-4.72-3,1.81-3.54,15.94-9.34.27.43A23.59,23.59,0,0,1,52.13,59l.12.4Zm-3.36-3.36,3.38,2.15L51,58.89a22.87,22.87,0,0,0-2.11-4.64l-14.8,8.68Z"/><path class="cls-2" d="M36.89,88.8l-28-16.15V57.26c0-6.25,3.8-9.12,8.48-6.41l11.15,6.43C33.23,60,37,67.25,37,73.5V88.72A.09.09,0,0,1,36.89,88.8Z"/><path class="cls-1" d="M36.93,89.33a.54.54,0,0,1-.3-.08h0L8.39,73V57.26c0-3.48,1.16-6.14,3.19-7.31,1.71-1,3.86-.83,6.07.44L28.8,56.83c4.82,2.78,8.75,10.26,8.75,16.67V88.72a.61.61,0,0,1-.31.53A.55.55,0,0,1,36.93,89.33Zm-27.5-17L36.5,88V73.5c0-6.08-3.69-13.15-8.22-15.77L17.13,51.3c-1.87-1.08-3.66-1.24-5-.45-1.7,1-2.67,3.32-2.67,6.41Z"/><path class="cls-2" d="M40.42,83a1.1,1.1,0,0,1-.57-.15,1.58,1.58,0,0,1-.68-1.43V72.54a3.4,3.4,0,0,1,1.47-2.76l8.1-4.68A1.29,1.29,0,0,1,50.05,65a1.58,1.58,0,0,1,.68,1.43v8.92a3.44,3.44,0,0,1-1.47,2.76l-8.1,4.68A1.52,1.52,0,0,1,40.42,83Zm9.06-17.11a.43.43,0,0,0-.22.07l-8.1,4.68a2.38,2.38,0,0,0-.95,1.86v8.92c0,.35.1.5.16.53s.15,0,.27-.06l8.1-4.68a2.38,2.38,0,0,0,.95-1.86V66.47c0-.35-.1-.5-.16-.53Z"/><path class="cls-2" d="M40.2,80.54l-1-.19c0-.13.62-3.25,2.37-4.43a2.57,2.57,0,0,1,2-.39,3,3,0,0,0,3-1.55c1-1.46,1.35-4-.5-6.66l.86-.59c2.14,3.1,1.67,6.08.51,7.83a4,4,0,0,1-4,2,1.48,1.48,0,0,0-1.22.24C41,77.56,40.35,79.76,40.2,80.54Z"/><rect class="cls-2" x="51.97" y="62.71" width="1.04" height="8.92"/><rect class="cls-2" x="97.18" y="49.46" width="6.67" height="1.04" transform="translate(-11.63 55.06) rotate(-29.03)"/><rect class="cls-2" x="59.93" y="57.8" width="1.04" height="4.46"/><path class="cls-1" d="M14.4,56.6c-1.11-.67-2.08-.45-2.49.44a4.55,4.55,0,0,0-.66,2.31,3.18,3.18,0,0,0,1.42,2.9,3.82,3.82,0,0,0,2.6.92c1,.14,1.7-.56,1.73-1.87A5.93,5.93,0,0,0,14.4,56.6Z"/><path class="cls-1" d="M15.51,63.71l-.27,0a4.24,4.24,0,0,1-2.9-1,3.75,3.75,0,0,1-1.61-3.34,5,5,0,0,1,.74-2.55,1.83,1.83,0,0,1,1.13-1,2.55,2.55,0,0,1,2.07.38h0a6.46,6.46,0,0,1,2.85,5.16,2.57,2.57,0,0,1-.79,2A1.83,1.83,0,0,1,15.51,63.71Zm-.21-1.06h0a.91.91,0,0,0,.72-.17,1.61,1.61,0,0,0,.42-1.19A5.47,5.47,0,0,0,14.13,57a1.61,1.61,0,0,0-1.22-.27.88.88,0,0,0-.53.49,4.23,4.23,0,0,0-.61,2.08v.11A2.71,2.71,0,0,0,13,61.85a3.32,3.32,0,0,0,2.25.8Z"/><path class="cls-2" d="M12.72,60.14a3.8,3.8,0,0,0,2.6.92,1.38,1.38,0,0,0,1.55-.91,6,6,0,0,0-2.46-3.55c-1.11-.67-2.07-.45-2.49.44a4.22,4.22,0,0,0-.52,1.25A3.93,3.93,0,0,0,12.72,60.14Z"/><path class="cls-1" d="M15.56,61.6H15.3a4.35,4.35,0,0,1-2.91-1,4.41,4.41,0,0,1-1.48-2.11l-.05-.14,0-.14a4.49,4.49,0,0,1,.58-1.4,1.84,1.84,0,0,1,1.14-1,2.53,2.53,0,0,1,2.06.38A6.47,6.47,0,0,1,17.37,60l0,.16-.06.16A1.88,1.88,0,0,1,15.56,61.6Zm-.21-1.06h0a.85.85,0,0,0,.93-.45A5.48,5.48,0,0,0,14.15,57a1.63,1.63,0,0,0-1.23-.27.87.87,0,0,0-.53.5,3.86,3.86,0,0,0-.44,1,3.42,3.42,0,0,0,1.11,1.47h0a3.22,3.22,0,0,0,2.25.8Z"/><path class="cls-3" d="M16.08,58.33a5.23,5.23,0,0,0-1.67-1.73c-1.11-.67-2.07-.45-2.49.44a4.22,4.22,0,0,0-.52,1.25A3.62,3.62,0,0,0,12,59.46l1.88.23Z"/><path class="cls-1" d="M14,60.23,11.77,60l-.13-.16a3.89,3.89,0,0,1-.73-1.35l-.05-.14,0-.14a4.49,4.49,0,0,1,.58-1.4,1.84,1.84,0,0,1,1.14-1,2.53,2.53,0,0,1,2.06.38,5.69,5.69,0,0,1,1.84,1.9l.28.44ZM12.32,59l1.48.18,1.55-1A4.56,4.56,0,0,0,14.15,57a1.63,1.63,0,0,0-1.23-.27.87.87,0,0,0-.53.5,3.86,3.86,0,0,0-.44,1A2.78,2.78,0,0,0,12.32,59Z"/><path class="cls-2" d="M11.76,56.57c-1.74-1-3.26-.7-3.91.7a7.19,7.19,0,0,0-1,3.61s-.49,2.3,2.23,4.55a6,6,0,0,0,4.07,1.44c1.55.21,2.67-.89,2.71-2.93A9.33,9.33,0,0,0,11.76,56.57Z"/><path class="cls-1" d="M13.49,67.41l-.4,0a6.6,6.6,0,0,1-4.38-1.56c-2.7-2.24-2.48-4.58-2.41-5A7.68,7.68,0,0,1,7.41,57,2.58,2.58,0,0,1,9,55.56a3.68,3.68,0,0,1,3,.57h0A9.74,9.74,0,0,1,16.35,64a3.73,3.73,0,0,1-1.13,2.84A2.6,2.6,0,0,1,13.49,67.41Zm-.34-1.07h0A1.6,1.6,0,0,0,14.54,66a2.72,2.72,0,0,0,.77-2.07A8.74,8.74,0,0,0,11.49,57h0a2.73,2.73,0,0,0-2.16-.46,1.62,1.62,0,0,0-1,.93,6.85,6.85,0,0,0-1,3.38V61c0,.08-.36,2.05,2.05,4a5.48,5.48,0,0,0,3.72,1.33Z"/><path class="cls-3" d="M13.94,58.6a7.74,7.74,0,0,0-2.19-2.06c-1.74-1-3.25-.7-3.9.69a7.19,7.19,0,0,0-1,3.61A3.73,3.73,0,0,0,7,62.53l3.81-1.69Z"/><path class="cls-1" d="M6.67,63.24l-.18-.56A4.15,4.15,0,0,1,6.3,60.8,7.71,7.71,0,0,1,7.41,57,2.64,2.64,0,0,1,9,55.52a3.72,3.72,0,0,1,3,.57,8.33,8.33,0,0,1,2.34,2.2l.32.43L11,61.32Zm3.17-6.79a1.7,1.7,0,0,0-.51.07,1.66,1.66,0,0,0-1,.94,6.81,6.81,0,0,0-1,3.37V61a2.82,2.82,0,0,0,0,.85l3.19-1.41L13.2,58.5A7.22,7.22,0,0,0,11.49,57,3.34,3.34,0,0,0,9.84,56.45Z"/><path class="cls-1" d="M11.6,62.31,7.8,64.13a7.88,7.88,0,0,0,1.25,1.3,6,6,0,0,0,4.07,1.44c1.55.21,2.67-.89,2.71-2.93a8,8,0,0,0-.78-3.4Z"/><path class="cls-1" d="M13.49,67.41l-.4,0a6.6,6.6,0,0,1-4.38-1.56,8.18,8.18,0,0,1-1.32-1.39L7,63.93l4.36-2.08,3.94-2,.22.5A8.72,8.72,0,0,1,16.35,64a3.73,3.73,0,0,1-1.13,2.84A2.6,2.6,0,0,1,13.49,67.41Zm-.34-1.07h0A1.6,1.6,0,0,0,14.54,66a2.72,2.72,0,0,0,.77-2.07,7.34,7.34,0,0,0-.52-2.66l-3,1.51-3.2,1.53a5.65,5.65,0,0,0,.75.71,5.48,5.48,0,0,0,3.72,1.33Z"/><path class="cls-2" d="M12,64.17c0,1.66-1.21,2.31-2.63,1.45a5.75,5.75,0,0,1-2.52-4.56c0-1.66,1.21-2.32,2.63-1.46A5.75,5.75,0,0,1,12,64.17Z"/><path class="cls-1" d="M10.53,66.52a2.87,2.87,0,0,1-1.46-.45,6.23,6.23,0,0,1-2.77-5,2.3,2.3,0,0,1,1.06-2.12,2.31,2.31,0,0,1,2.36.23,6.22,6.22,0,0,1,2.77,5h0a2.28,2.28,0,0,1-1.06,2.11A1.77,1.77,0,0,1,10.53,66.52ZM8.26,59.75a.87.87,0,0,0-.4.09,1.38,1.38,0,0,0-.52,1.23,5.27,5.27,0,0,0,2.27,4.11,1.36,1.36,0,0,0,1.32.2,1.36,1.36,0,0,0,.52-1.22,5.27,5.27,0,0,0-2.27-4.11A1.84,1.84,0,0,0,8.26,59.75Z"/><path class="cls-1" d="M63.93,100.67a11.32,11.32,0,0,1-5.11,8.86c-2.83,1.63-5.12.31-5.12-3a11.28,11.28,0,0,1,5.12-8.86C61.64,96.08,63.93,97.41,63.93,100.67Z"/><path class="cls-2" d="M56.53,110.75a3.12,3.12,0,0,1-1.59-.41,4.08,4.08,0,0,1-1.76-3.76,11.91,11.91,0,0,1,5.38-9.32,3.63,3.63,0,0,1,5.9,3.41A11.92,11.92,0,0,1,59.08,110,5.21,5.21,0,0,1,56.53,110.75ZM61.1,97.54a4.1,4.1,0,0,0-2,.63,10.74,10.74,0,0,0-4.86,8.41,3.11,3.11,0,0,0,1.24,2.86,3.13,3.13,0,0,0,3.1-.36,10.74,10.74,0,0,0,4.85-8.41,3.13,3.13,0,0,0-1.23-2.86A2.16,2.16,0,0,0,61.1,97.54Z"/><path class="cls-1" d="M60,102.92A2.69,2.69,0,0,1,58.82,105c-.67.38-1.22.07-1.22-.71a2.7,2.7,0,0,1,1.22-2.1C59.49,101.83,60,102.15,60,102.92Z"/><path class="cls-2" d="M58.27,105.71a1.13,1.13,0,0,1-.57-.15,1.37,1.37,0,0,1-.62-1.24,3.22,3.22,0,0,1,1.48-2.55,1.25,1.25,0,0,1,2,1.15,3.21,3.21,0,0,1-1.47,2.56A1.69,1.69,0,0,1,58.27,105.71Zm1.09-3.13a.58.58,0,0,0-.28.09,2.19,2.19,0,0,0-.95,1.65c0,.21,0,.32.09.34s.16,0,.34-.09a2.15,2.15,0,0,0,.95-1.65c0-.2,0-.31-.09-.33Z"/><path class="cls-1" d="M103.11,69.81A11.3,11.3,0,0,1,98,78.67c-2.83,1.64-5.12.31-5.12-3A11.3,11.3,0,0,1,98,66.86C100.82,65.23,103.11,66.55,103.11,69.81Z"/><path class="cls-2" d="M95.71,79.9a3.12,3.12,0,0,1-1.59-.42,4.08,4.08,0,0,1-1.76-3.76,11.89,11.89,0,0,1,5.38-9.31,3.63,3.63,0,0,1,5.9,3.4,11.93,11.93,0,0,1-5.38,9.32A5.21,5.21,0,0,1,95.71,79.9Zm4.57-13.22a4.1,4.1,0,0,0-2,.63,10.75,10.75,0,0,0-4.86,8.41,2.62,2.62,0,0,0,4.34,2.5,10.71,10.71,0,0,0,4.85-8.41A3.13,3.13,0,0,0,101.36,67,2.16,2.16,0,0,0,100.28,66.68Z"/><path class="cls-1" d="M99.21,72.07A2.69,2.69,0,0,1,98,74.17c-.67.39-1.22.07-1.22-.7A2.67,2.67,0,0,1,98,71.37C98.67,71,99.21,71.29,99.21,72.07Z"/><path class="cls-2" d="M97.45,74.85a1.13,1.13,0,0,1-.57-.15,1.35,1.35,0,0,1-.62-1.23,3.22,3.22,0,0,1,1.48-2.56,1.25,1.25,0,0,1,2,1.16,3.21,3.21,0,0,1-1.47,2.55A1.59,1.59,0,0,1,97.45,74.85Zm1.09-3.13a.52.52,0,0,0-.28.1,2.15,2.15,0,0,0-1,1.65c0,.2,0,.31.09.33s.16,0,.34-.08a2.19,2.19,0,0,0,1-1.65c0-.21,0-.32-.09-.34Z"/><path class="cls-2" d="M23,43l0,2.45a3.21,3.21,0,0,0,1.91,2.91,10.39,10.39,0,0,0,9.42.09,3.19,3.19,0,0,0,2-2.86l0-2.27a.07.07,0,0,0-.05-.07l-8.85-1.47h0L23,43A.06.06,0,0,0,23,43Z"/><path class="cls-1" d="M29.74,50.06a10.25,10.25,0,0,1-5.08-1.24,3.7,3.7,0,0,1-2.16-3.4L22.45,43a.56.56,0,0,1,.44-.57l4.44-1.19.14,0,8.84,1.47a.57.57,0,0,1,.49.56l0,2.28a3.73,3.73,0,0,1-2.23,3.33A10.11,10.11,0,0,1,29.74,50.06Zm-6.24-6.7,0,2.09a2.73,2.73,0,0,0,1.66,2.47,9.86,9.86,0,0,0,8.9.09,2.71,2.71,0,0,0,1.7-2.38l0-1.92-8.38-1.39Z"/><path class="cls-1" d="M36.23,43.3l-5.61-.93v7.17a8.9,8.9,0,0,0,3.72-1,3.2,3.2,0,0,0,2-2.86l0-2.28A.06.06,0,0,0,36.23,43.3Z"/><path class="cls-3" d="M24.94,40.31a10.44,10.44,0,0,1,9.43.09c2.58,1.53,2.56,4-.06,5.44a10.39,10.39,0,0,1-9.42-.09C22.3,44.22,22.33,41.78,24.94,40.31Z"/><path class="cls-1" d="M29.71,47.43a10.31,10.31,0,0,1-5.09-1.23A3.8,3.8,0,0,1,22.45,43a3.76,3.76,0,0,1,2.24-3.14h0a11,11,0,0,1,9.94.1,3.79,3.79,0,0,1,2.18,3.19,3.8,3.8,0,0,1-2.24,3.15A10.11,10.11,0,0,1,29.71,47.43Zm-.16-7.69a9.07,9.07,0,0,0-4.35,1h0A2.82,2.82,0,0,0,23.49,43a2.82,2.82,0,0,0,1.66,2.29,9.86,9.86,0,0,0,8.9.09,2.84,2.84,0,0,0,1.72-2.25,2.84,2.84,0,0,0-1.67-2.29A9.23,9.23,0,0,0,29.55,39.74Z"/><path class="cls-3" d="M28.83,42.6a1.79,1.79,0,0,1,1.61,0,.49.49,0,0,1,0,.93,1.79,1.79,0,0,1-1.61,0C28.38,43.27,28.38,42.86,28.83,42.6Z"/><path class="cls-1" d="M29.64,44.25A2.14,2.14,0,0,1,28.56,44a1.08,1.08,0,0,1-.59-.92,1.06,1.06,0,0,1,.6-.91h0a2.32,2.32,0,0,1,2.13,0,1.07,1.07,0,0,1,.58.92,1.05,1.05,0,0,1-.6.91A2.13,2.13,0,0,1,29.64,44.25Zm-.58-1.18h0a1.23,1.23,0,0,0,1.09,0h0a1.26,1.26,0,0,0-1.09,0h0Z"/><path class="cls-1" d="M50.92,36.47a3.59,3.59,0,0,1-2.49-1l-7.94-7.69A1.76,1.76,0,0,1,40.85,25l21.83-12.2a1.77,1.77,0,0,1,2.15.34L77.74,26.87a1.77,1.77,0,0,1-.4,2.74l-6,3.45a7.35,7.35,0,0,1-2.72.94L51.43,36.43A2.92,2.92,0,0,1,50.92,36.47ZM63.54,13.58a.8.8,0,0,0-.36.09L41.36,25.87a.7.7,0,0,0-.36.53.71.71,0,0,0,.21.62l7.94,7.69a2.53,2.53,0,0,0,2.13.69L68.51,33a6.57,6.57,0,0,0,2.35-.81l6-3.45a.72.72,0,0,0,.36-.52.73.73,0,0,0-.19-.6L64.07,13.81A.74.74,0,0,0,63.54,13.58Z"/><path class="cls-3" d="M74.33,28.46,63.74,16.91a.84.84,0,0,0-1-.18l-19,10.34-.49-.92L62.2,15.82a1.9,1.9,0,0,1,2.31.38L75.1,27.76Z"/><path class="cls-3" d="M51.74,34a3.39,3.39,0,0,1-2.31-.92l-2.11-2,.71-.76,2.11,2a2.37,2.37,0,0,0,1.91.62l13.6-1.76.13,1L52.18,34A3.25,3.25,0,0,1,51.74,34Z"/><rect class="cls-3" x="52.75" y="21.44" width="5.59" height="1.04" transform="translate(12.62 63.49) rotate(-65.63)"/><rect class="cls-3" x="54.71" y="25.19" width="5.26" height="1.04" transform="translate(10.26 67.34) rotate(-65.63)"/><rect class="cls-3" x="57.97" y="22.79" width="6.71" height="1.04" transform="translate(14.79 69.56) rotate(-65.63)"/><path class="cls-1" d="M77.34,18.27h-2.4V3.53a1.1,1.1,0,0,0-.57-1,1.12,1.12,0,0,0-1.13,0L60.88,9.82a7.8,7.8,0,0,0-3.73,5.36l-.42,2.38-2.37-.42.42-2.38a10.21,10.21,0,0,1,4.89-7L72,.49a3.52,3.52,0,0,1,5.31,3Z"/><path class="cls-3" d="M56.91,16.9a1.37,1.37,0,1,1-1.37-1.37A1.37,1.37,0,0,1,56.91,16.9Z"/><path class="cls-1" d="M55.54,18.79a1.89,1.89,0,1,1,1.89-1.89A1.89,1.89,0,0,1,55.54,18.79Zm0-2.74a.85.85,0,1,0,.85.85A.85.85,0,0,0,55.54,16.05Z"/><rect class="cls-1" x="24.58" y="66.54" width="0.8" height="9.05"/><rect class="cls-1" x="26.55" y="67.67" width="0.8" height="9.05"/><rect class="cls-1" x="28.51" y="68.81" width="0.8" height="9.05"/><rect class="cls-1" x="30.48" y="69.94" width="0.8" height="9.05"/><path class="cls-3" d="M19.87,104.7,14.46,98a4.66,4.66,0,0,1-1.94-3.72l-3-7.42c0-1.43,3.89-3.38,5-2.76l8.15,4.7a4.68,4.68,0,0,1,1.94,3.72v8.71C24.55,102.64,21,105.32,19.87,104.7Z"/><path class="cls-1" d="M20.27,105.32a1.34,1.34,0,0,1-.66-.16l-.14-.13-5.36-6.66a5.17,5.17,0,0,1-2.11-4L9,86.84c0-1.14,1.47-2.11,2.1-2.47,1.14-.66,2.77-1.24,3.64-.74l8.15,4.7a5.15,5.15,0,0,1,2.2,4.17v8.71c0,1.29-1.83,2.82-3,3.49A4,4,0,0,1,20.27,105.32Zm-.08-1a2.57,2.57,0,0,0,1.38-.47c1.39-.8,2.46-2,2.46-2.59V92.5a4.16,4.16,0,0,0-1.68-3.27l-8.15-4.7a3.89,3.89,0,0,0-2.6.74A3.33,3.33,0,0,0,10,86.76l3,7.5a4.16,4.16,0,0,0,1.68,3.27l.14.12Z"/><path class="cls-1" d="M14.18,94,16.12,100l3.75,4.66c1.08.62,4.68-2.06,4.68-3.49V92.5a4.87,4.87,0,0,0-.72-2.43l-3.11,1.8Z"/><path class="cls-1" d="M20.27,105.32a1.34,1.34,0,0,1-.66-.16l-.14-.13-3.85-4.83-2.09-6.59,7-2.22,3.5-2,.26.44a5.37,5.37,0,0,1,.8,2.69v8.71c0,1.29-1.83,2.82-3,3.49A4,4,0,0,1,20.27,105.32Zm-.08-1a2.57,2.57,0,0,0,1.38-.47c1.39-.8,2.46-2,2.46-2.59V92.5a4.08,4.08,0,0,0-.41-1.71l-2.74,1.58-6,1.92,1.75,5.5Z"/><path class="cls-2" d="M19.54,104.55l-8.15-4.7a4.66,4.66,0,0,1-2-3.72V87.42c0-1.44.87-2.09,2-1.47l8.15,4.7a4.66,4.66,0,0,1,1.94,3.71v8.72C21.48,104.51,20.61,105.17,19.54,104.55Z"/><path class="cls-1" d="M20.31,105.31a2,2,0,0,1-1-.31l-8.15-4.7a5.17,5.17,0,0,1-2.21-4.17V87.42a2.23,2.23,0,0,1,.94-2,1.74,1.74,0,0,1,1.79.11l8.15,4.7A5.16,5.16,0,0,1,22,94.36v8.72a2.24,2.24,0,0,1-.93,2A1.54,1.54,0,0,1,20.31,105.31Zm-.51-1.21a.79.79,0,0,0,.75.1,1.27,1.27,0,0,0,.41-1.12V94.36a4.16,4.16,0,0,0-1.68-3.26l-8.15-4.7a.79.79,0,0,0-.75-.1c-.26.14-.41.56-.41,1.12v8.71a4.14,4.14,0,0,0,1.68,3.26Z"/><path class="cls-2" d="M18.45,99.27c0,.89-.65,1.24-1.42.78a3.1,3.1,0,0,1-1.35-2.44c0-.89.65-1.24,1.41-.78A3.09,3.09,0,0,1,18.45,99.27Z"/><path class="cls-1" d="M17.67,100.77a1.76,1.76,0,0,1-.9-.27,3.62,3.62,0,0,1-1.61-2.9,1.52,1.52,0,0,1,.7-1.34,1.49,1.49,0,0,1,1.5.12A3.63,3.63,0,0,1,19,99.28h0a1.52,1.52,0,0,1-.7,1.35A1.21,1.21,0,0,1,17.67,100.77Zm-1.21-3.62-.1,0c-.07,0-.15.18-.15.45a2.56,2.56,0,0,0,1.09,2c.24.14.4.14.47.1s.15-.18.16-.45a2.63,2.63,0,0,0-1.1-2A.71.71,0,0,0,16.46,97.15Z"/><rect class="cls-1" x="66.45" y="50.65" width="8.59" height="1.04" transform="translate(-16.08 41.96) rotate(-29.82)"/><rect class="cls-1" x="71.16" y="46.49" width="4.94" height="1.04" transform="translate(-13.64 43.13) rotate(-30.01)"/><path class="cls-2" d="M31.91,49.68l0,2.56a2,2,0,0,0,1.21,1.83,6.57,6.57,0,0,0,6,.07,2,2,0,0,0,1.24-1.81l0-2.45s0,0,0,0l-5.59-.93h0l-2.73.73S31.9,49.66,31.91,49.68Z"/><path class="cls-1" d="M36.18,55.34a6.58,6.58,0,0,1-3.31-.82,2.55,2.55,0,0,1-1.46-2.33l0-2.91.42-.14,2.84-.76h.12l6,1,0,.47,0,2.46a2.53,2.53,0,0,1-1.51,2.27A6.59,6.59,0,0,1,36.18,55.34Zm-3.75-5.29,0,2.18a1.58,1.58,0,0,0,.95,1.4,6.1,6.1,0,0,0,5.43,0c.65-.37,1-.85,1-1.32l0-2.08-5.08-.84Z"/><path class="cls-1" d="M40.28,49.86l-3.54-.59v5.55a5.94,5.94,0,0,0,2.35-.66,2,2,0,0,0,1.24-1.81l0-2.45S40.3,49.86,40.28,49.86Z"/><path class="cls-3" d="M33.15,48a6.6,6.6,0,0,1,6,.06c1.63,1,1.62,2.51,0,3.44a6.6,6.6,0,0,1-6-.06C31.48,50.44,31.5,48.9,33.15,48Z"/><path class="cls-1" d="M36.16,52.67a6.68,6.68,0,0,1-3.31-.81,2.32,2.32,0,0,1,0-4.34,7,7,0,0,1,6.47.07,2.32,2.32,0,0,1,0,4.33A6.59,6.59,0,0,1,36.16,52.67Zm-.1-4.85a5.49,5.49,0,0,0-2.65.61h0a1.31,1.31,0,0,0,0,2.53,6.1,6.1,0,0,0,5.43,0,1.58,1.58,0,0,0,1-1.25c0-.46-.33-.91-1-1.28A5.59,5.59,0,0,0,36.06,47.82Z"/><path class="cls-2" d="M34.11,44.58v3.88a1,1,0,0,0,.57.87,3.14,3.14,0,0,0,2.83,0,1,1,0,0,0,.59-.86V44.67s0,0,0,0l-2.65-.44h0l-1.3.34Z"/><path class="cls-1" d="M36.14,50.2a3.44,3.44,0,0,1-1.71-.42,1.49,1.49,0,0,1-.83-1.37V44.18l.4-.12,1.41-.38,3.2.53,0,.46V48.5a1.45,1.45,0,0,1-.86,1.31A3.36,3.36,0,0,1,36.14,50.2ZM34.63,45v3.5c0,.15.11.3.32.42a2.62,2.62,0,0,0,2.3,0c.21-.11.34-.26.33-.37V45.1l-2.13-.36Z"/><path class="cls-1" d="M38.08,44.67l-1.68-.28v5.29a2.7,2.7,0,0,0,1.12-.31,1,1,0,0,0,.59-.86V44.69A0,0,0,0,0,38.08,44.67Z"/><path class="cls-3" d="M34.7,43.77a3.14,3.14,0,0,1,2.83,0,.86.86,0,0,1,0,1.63,3.14,3.14,0,0,1-2.83,0A.86.86,0,0,1,34.7,43.77Z"/><path class="cls-1" d="M36.13,46.27a3.44,3.44,0,0,1-1.71-.42,1.51,1.51,0,0,1-.83-1.28,1.49,1.49,0,0,1,.86-1.25h0a3.62,3.62,0,0,1,3.34,0,1.5,1.5,0,0,1,.83,1.27,1.47,1.47,0,0,1-.86,1.26A3.36,3.36,0,0,1,36.13,46.27ZM35,44.22c-.24.14-.33.28-.33.36s.08.23.32.37a2.65,2.65,0,0,0,2.3,0c.24-.14.33-.28.33-.37s-.08-.22-.32-.36a2.65,2.65,0,0,0-2.3,0Z"/><rect class="cls-1" x="71.06" y="69.72" width="4.94" height="1.04" transform="translate(-25.27 46.2) rotate(-30.01)"/><path class="cls-2" d="M99,139.33s1-.6,1.14,3.46c0,0-2.07,2-4,1-2.61-1.33-5.42-5.52-5.42-5.52s-.64-.85.71-1.48,5.62,1.26,5.62,1.26Z"/><path class="cls-1" d="M97.28,144.58a3,3,0,0,1-1.35-.33c-2.7-1.37-5.5-5.51-5.62-5.69a1.34,1.34,0,0,1-.2-1.08,1.79,1.79,0,0,1,1.12-1.16c1.5-.7,5.3.92,6,1.26l.08,0,1.74,1.16a.86.86,0,0,1,.42.1c.42.22,1,.86,1.12,3.88l0,.24-.18.16A5.22,5.22,0,0,1,97.28,144.58Zm-5.09-7.41a1.25,1.25,0,0,0-.52.09c-.31.14-.51.31-.55.46a.29.29,0,0,0,0,.25c0,.05,2.77,4.1,5.23,5.36,1.26.63,2.7-.37,3.19-.77a6,6,0,0,0-.5-2.69L99,140l-2.15-1.44A15.22,15.22,0,0,0,92.19,137.17Z"/><path class="cls-2" d="M85.74,148.07a7.36,7.36,0,0,1,.9,3.82s-1.31,2.47-5.28.27a6.28,6.28,0,0,0-1-.43c-1.06-.36-3.32-1.39-3.91-3.66-.77-3,5.35-.25,5.35-.25Z"/><path class="cls-1" d="M84.31,153.59a6.82,6.82,0,0,1-3.21-1,6.06,6.06,0,0,0-.91-.39c-1.06-.36-3.59-1.47-4.24-4a1.51,1.51,0,0,1,.37-1.66c1.24-1,4.72.38,5.61.77l4.11.26.14.22a7.81,7.81,0,0,1,1,4.11V152l-.06.11a3.06,3.06,0,0,1-1.74,1.31A4,4,0,0,1,84.31,153.59Zm-6.7-6.4a1,1,0,0,0-.62.15c-.13.11-.09.39,0,.6.53,2.05,2.67,3,3.57,3.3a6.55,6.55,0,0,1,1.08.46c3,1.68,4.24.41,4.51,0a7.34,7.34,0,0,0-.69-3.17l-3.84-.27A12,12,0,0,0,77.61,147.19Z"/><path class="cls-3" d="M88.29,115.93s.69,7.11,3.36,12a95.88,95.88,0,0,1,2,11,1.35,1.35,0,0,0,.31.76c.59.68,2.1,1.89,4.91.67a2.09,2.09,0,0,0,1.15-1.3h0a2.1,2.1,0,0,0,0-1.19l-2.15-7s-.62-5.12-1.43-8.46,1.54-10.27-.22-17-3.34-8-3.34-8l-5.83,11.42Z"/><path class="cls-1" d="M96.64,141.4A4,4,0,0,1,93.58,140a1.9,1.9,0,0,1-.44-1.05,94.86,94.86,0,0,0-2-10.89c-2.62-4.82-3.34-11.6-3.39-12.09l-1.23-7.17L92.73,96.7l.5.38c.17.14,1.78,1.53,3.53,8.24,1.06,4.08.65,8.23.32,11.57a18.65,18.65,0,0,0-.11,5.43c.77,3.17,1.37,8,1.44,8.48l2.14,6.92a2.73,2.73,0,0,1,0,1.5,2.62,2.62,0,0,1-1.45,1.62A6,6,0,0,1,96.64,141.4Zm-9-32.41,1.17,6.89c0,.07.72,7.06,3.3,11.77l.05.13a94.24,94.24,0,0,1,2,11.1.87.87,0,0,0,.2.47c.56.65,1.86,1.59,4.3.53a1.53,1.53,0,0,0,.86-1,1.59,1.59,0,0,0,0-.89l-2.17-7c0-.05-.63-5.12-1.42-8.4a19.47,19.47,0,0,1,.08-5.78c.33-3.26.73-7.31-.29-11.21A24.15,24.15,0,0,0,93,98.44Z"/><path class="cls-3" d="M80.59,104.18a.75.75,0,0,0-.54.65c-.25,2.61-1.34,14.85-.24,22.87a109.79,109.79,0,0,1,.45,19.55.78.78,0,0,0,.24.61c.66.61,2.58,1.89,5.75.07a.78.78,0,0,0,.38-.67v-1.5c-.46-4.4.08-8.83.28-13.26a14.29,14.29,0,0,0-.69-5.68.79.79,0,0,1,0-.48c.48-1.44,3-9.16,3.53-14.92a48.94,48.94,0,0,0,.11-9.21.77.77,0,0,0-1-.65Z"/><path class="cls-1" d="M83.16,149.39a4.38,4.38,0,0,1-3-1.15,1.26,1.26,0,0,1-.41-1,107.58,107.58,0,0,0-.45-19.45c-1.11-8.11,0-20.57.25-23a1.29,1.29,0,0,1,.89-1.1h0l8.26-2.62a1.29,1.29,0,0,1,1.68,1.1,49.45,49.45,0,0,1-.12,9.31c-.56,5.8-3,13.54-3.55,15a.26.26,0,0,0,0,.15,14.91,14.91,0,0,1,.71,5.88c0,1.15-.13,2.3-.2,3.45a57.47,57.47,0,0,0-.08,9.73v1.55a1.31,1.31,0,0,1-.64,1.12A6.69,6.69,0,0,1,83.16,149.39Zm-2.42-44.72a.25.25,0,0,0-.17.21c-.23,2.4-1.35,14.75-.24,22.75a109.82,109.82,0,0,1,.45,19.65.22.22,0,0,0,.07.19c.6.55,2.29,1.64,5.14,0a.27.27,0,0,0,.12-.22v-1.43a58.63,58.63,0,0,1,.07-9.92c.07-1.14.15-2.28.2-3.43a14,14,0,0,0-.66-5.5,1.29,1.29,0,0,1,0-.8c.49-1.48,3-9.12,3.51-14.81a47.91,47.91,0,0,0,.11-9.11.25.25,0,0,0-.11-.18.26.26,0,0,0-.21,0Z"/><path class="cls-3" d="M58.58,71.94l-3.51-2.49a1.46,1.46,0,0,1-.61-1l-.15-1.23a1.47,1.47,0,0,1,.94-1.57l.49-.18a1.07,1.07,0,0,1,1.14.23l1,.94a.08.08,0,0,0,.13,0l.45-1,.35-.07a5,5,0,0,1,.62,2.17,3.3,3.3,0,0,0,1.24,2.64C62.22,71.36,60,72,60,72H58.58Z"/><path class="cls-1" d="M60,72.47H58.47l-.19-.11-3.51-2.49a2,2,0,0,1-.83-1.38l-.15-1.24a2,2,0,0,1,1.27-2.12l.49-.18a1.62,1.62,0,0,1,1.7.35l.51.5.31-.69,1-.19.18.33a5.36,5.36,0,0,1,.69,2.39,2.79,2.79,0,0,0,1,2.23c.59.4.86.84.78,1.32-.14.82-1.27,1.18-1.61,1.27Zm-1.26-1h1.12a1.75,1.75,0,0,0,.79-.42,3.22,3.22,0,0,0-.33-.27,3.79,3.79,0,0,1-1.47-3,4.42,4.42,0,0,0-.26-1.29l-.28.63-.32.1a.6.6,0,0,1-.54-.16l-1-.93a.56.56,0,0,0-.6-.13l-.49.19a1,1,0,0,0-.61,1L55,68.36a.93.93,0,0,0,.4.66Z"/><path class="cls-1" d="M61.14,74.12l-2.09-1.61a1.29,1.29,0,0,1-.48-1.24l.23-1.42a1.22,1.22,0,0,1,1.2-1h0a1.17,1.17,0,0,1,.83.34l3,2.8a.08.08,0,0,1,0,.12l-2.55,2A.09.09,0,0,1,61.14,74.12Z"/><path class="cls-1" d="M61.19,74.65a.6.6,0,0,1-.36-.12h0l-2.1-1.61a1.82,1.82,0,0,1-.68-1.74l.24-1.42a1.73,1.73,0,0,1,2.9-1l3.13,3,0,.3a.6.6,0,0,1-.23.45l-2.54,2A.58.58,0,0,1,61.19,74.65ZM60,69.35a.69.69,0,0,0-.68.58l-.24,1.42a.75.75,0,0,0,.29.74l1.82,1.4L63.07,72l-2.6-2.46A.67.67,0,0,0,60,69.35Z"/><path class="cls-2" d="M62,70.16l6.72,4.58a3,3,0,0,0,1,.27c3.23.43,9.19.42,12.2.91l7.46.63,2.63-3,1-.75s2.65-1.91,4.59,2.72-.17,16.68-.17,16.68l.52,12.35-1,1.86a.34.34,0,0,1-.63,0l-.58-1.81s-5.11,4.12-10.42,4S79,105,79,105s1.66-8.24,1-13.26a29.16,29.16,0,0,0-2-7.39,1.55,1.55,0,0,0-1.2-.93l-7.66-3a1.59,1.59,0,0,1-.41-.21l-7.24-5.72a3,3,0,0,1-1.34-3.12h0A1.32,1.32,0,0,1,62,70.16Z"/><path class="cls-1" d="M85.51,109.09h-.28c-5.63-.15-6.72-3.82-6.77-4l0-.12,0-.13c0-.08,1.64-8.21,1-13.08a29,29,0,0,0-2-7.26,1,1,0,0,0-.8-.61l-.12,0-7.65-3a3.06,3.06,0,0,1-.51-.26l-7.27-5.75a3.54,3.54,0,0,1-1.53-3.63,2,2,0,0,1,1-1.49,2,2,0,0,1,1.61-.06l.1,0L69,74.31a2.83,2.83,0,0,0,.75.18c1.51.2,3.69.31,5.79.41,2.36.12,4.81.24,6.43.5l7.16.61,2.51-2.83,1-.76A2.92,2.92,0,0,1,95,72c1.2.35,2.21,1.47,3,3.33,1.92,4.6,0,15.91-.13,16.91l.52,12.44-1,2a.86.86,0,0,1-1.58-.13l-.36-1.11C93.9,106.51,89.84,109.09,85.51,109.09Zm-6-4.15c.21.55,1.38,3,5.76,3.11,5,.13,10-3.83,10.09-3.87l.59-.48.68,2.12.7-1.36-.51-12.27v0c0-.12,2.05-12,.2-16.39-.64-1.53-1.44-2.47-2.3-2.72a1.89,1.89,0,0,0-1.51.22L92.3,74l-2.76,3.13-7.72-.66c-1.6-.25-4-.37-6.35-.49-2.13-.1-4.32-.21-5.87-.42a3.32,3.32,0,0,1-1.16-.32l-6.71-4.57a1,1,0,0,0-.69,0,1.09,1.09,0,0,0-.43.78A2.51,2.51,0,0,0,61.73,74L69,79.76a1.45,1.45,0,0,0,.28.14l7.61,3a2.05,2.05,0,0,1,1.54,1.22,30.34,30.34,0,0,1,2,7.53C81.1,96.4,79.72,103.8,79.5,104.94Z"/><path class="cls-1" d="M92.71,106.41c-.54-1.36-.92-4.35-1.15-8.9l1-.05c.21,4.31.6,7.35,1.08,8.57Z"/><path class="cls-1" d="M91.49,96c0-1.45-.07-2.45-.07-2.45h1s0,1,.06,2.42Z"/><path class="cls-1" d="M80.22,113.06a5.09,5.09,0,0,1-.87-.18l.31-1a5,5,0,0,0,.69.13Z"/><path class="cls-1" d="M81.21,113.11l0-1a3.86,3.86,0,0,0,1.57-.35l.45.94A4.93,4.93,0,0,1,81.21,113.11Zm2.87-1-.68-.8a3.32,3.32,0,0,0,.92-1.28l1,.42A4.56,4.56,0,0,1,84.08,112.1Z"/><path class="cls-1" d="M85.6,109.48l-1-.25a5.12,5.12,0,0,0,.14-.74l1,.15A6.6,6.6,0,0,1,85.6,109.48Z"/><path class="cls-1" d="M95.32,115.26l-.08-1a2.68,2.68,0,0,0,1.27-.4l.57.88A3.74,3.74,0,0,1,95.32,115.26Zm-.89,0a5.33,5.33,0,0,1-.91-.17c-.37,0-.41-.25-.55-1.13l1-.17q0,.21.06.36a3.84,3.84,0,0,0,.47.07Zm-1.59-2.1-.25-1.59,1-.16.25,1.59Zm-.37-2.38-.25-1.61.6-.34.33.56.15,0,.2,1.25ZM94,109.3l-.54-.89c.38-.23.85-.52,1.34-.85l.57.87C94.91,108.77,94.43,109.06,94,109.3Zm2-1.33-.6-.85.77-.57.64.83Z"/><path class="cls-1" d="M77.94,148.31A7.22,7.22,0,0,1,80,146.68Z"/><path class="cls-1" d="M78.34,148.64l-.81-.66a7.8,7.8,0,0,1,2.25-1.76l.5.91A7,7,0,0,0,78.34,148.64Z"/><path class="cls-1" d="M91.63,138.2a4.35,4.35,0,0,1,1.59-.73Z"/><path class="cls-1" d="M92,138.59l-.7-.77a4.66,4.66,0,0,1,1.79-.85l.29,1A4.06,4.06,0,0,0,92,138.59Z"/><path class="cls-3" d="M81.17,64.62c0,2,.23,5,2,6.84l2.09.82a3.1,3.1,0,0,1-1.64,2.31l4.32,1.71,3.73-.91L91.06,73a6.1,6.1,0,0,1-.67-5.51c1-3.43-4-7.49-4-7.49l-3.92.81h0A6.66,6.66,0,0,0,81.17,64.62Z"/><path class="cls-1" d="M87.89,76.85l-5.56-2.21,1-.52a2.46,2.46,0,0,0,1.27-1.52l-1.78-.7-.08-.08c-1.86-2-2.19-5-2.13-7.21h0a7.08,7.08,0,0,1,1.42-4.09l.12-.16,4.35-.9.2.16c.21.17,5.28,4.32,4.15,8a5.61,5.61,0,0,0,.57,5l.08.08.75,3Zm-3.2-2.39L88,75.76,91,75l-.44-1.76a6.7,6.7,0,0,1-.69-5.89c.82-2.71-2.76-6-3.62-6.78l-3.48.72a6.05,6.05,0,0,0-1.1,3.34c0,2,.22,4.67,1.77,6.38l2.34.92,0,.39A3.69,3.69,0,0,1,84.69,74.46Z"/><path class="cls-1" d="M82.1,59a4.47,4.47,0,0,1,3.61-2.2c2.54-.12,4.18,1.91,4.18,2.87s-6,1.21-6,1.21Z"/><path class="cls-1" d="M80,61.49a2.11,2.11,0,0,0,.17.82,5.43,5.43,0,0,0,6.21,3.41l1.3.11a5.13,5.13,0,0,1-.32,2.54.92.92,0,0,0,.36,1.19,3.16,3.16,0,0,0,3.16,0S95.31,63,90.29,59a3.93,3.93,0,0,0-3.56-.67,11.83,11.83,0,0,1-4.38.5,2.26,2.26,0,0,0-1.15.19h0A2.07,2.07,0,0,0,80,60.92Z"/><path class="cls-1" d="M89.26,70.49A3.57,3.57,0,0,1,87.49,70a1.44,1.44,0,0,1-.57-1.85,4.57,4.57,0,0,0,.31-1.85l-.8-.06a6,6,0,0,1-6.71-3.74,2.52,2.52,0,0,1-.21-1v-.57A2.62,2.62,0,0,1,81,58.58a2.79,2.79,0,0,1,1.42-.24,11.29,11.29,0,0,0,4.19-.48,4.42,4.42,0,0,1,4,.77c5.34,4.25.78,11.13.73,11.2l-.07.11-.12.07A4.19,4.19,0,0,1,89.26,70.49ZM86.38,65.2l1.77.15.07.4a5.64,5.64,0,0,1-.35,2.83.41.41,0,0,0,.14.53,2.63,2.63,0,0,0,2.54,0c.56-.88,3.71-6.28-.59-9.7a3.37,3.37,0,0,0-3.08-.58,12.56,12.56,0,0,1-4.58.52,1.65,1.65,0,0,0-.87.14,1.56,1.56,0,0,0-.88,1.4v.57a1.42,1.42,0,0,0,.13.61,4.91,4.91,0,0,0,5.64,3.11Z"/><path class="cls-2" d="M83.61,59.42h-.4l.05-1a12.39,12.39,0,0,0,4.46-.66l.42,1A12.4,12.4,0,0,1,83.61,59.42Z"/><path class="cls-2" d="M90.6,68.63,89.78,68c1.12-1.43.66-4,.66-4.06l1-.19C91.48,63.87,92,66.82,90.6,68.63Z"/><path class="cls-2" d="M88,66.26l-.61-.85a1.27,1.27,0,0,0,.47-1.23l1-.2A2.33,2.33,0,0,1,88,66.26Z"/><path class="cls-3" d="M81.86,75.92s-.06-1.3,2.63-1.23,5.7.28,6.37-2.43l-.16-.47s2.27-.28,2.21,1.73-1.59,3.59-4.83,3.66A16.56,16.56,0,0,1,81.86,75.92Z"/><path class="cls-1" d="M87.83,77.7a16.69,16.69,0,0,1-6.18-1.31l-.29-.13,0-.32a1.43,1.43,0,0,1,.44-1,3.54,3.54,0,0,1,2.72-.76h.37c2.91.08,4.89,0,5.45-1.9L90,71.35l.64-.08a3,3,0,0,1,2.17.6,2,2,0,0,1,.63,1.66c-.08,2.54-2.08,4.1-5.34,4.17Zm-5.28-2.07a16.09,16.09,0,0,0,5.52,1c2.68-.05,4.25-1.2,4.32-3.15a1.08,1.08,0,0,0-.29-.86,1.34,1.34,0,0,0-.72-.31v.06c-.74,3-4,2.9-6.53,2.83h-.37A2.76,2.76,0,0,0,82.55,75.63Z"/><rect class="cls-1" x="95.49" y="103.57" width="1.48" height="1.04" transform="translate(-44.69 88.7) rotate(-41.01)"/><rect class="cls-1" x="85.25" y="71.76" width="1.51" height="1.04"/><polygon class="cls-1" points="81.54 112.83 79.5 111.49 78.36 112.78 77.94 119.87 81.96 122.52 82.39 115.44 81.54 112.83"/><path class="cls-1" d="M82.43,123.46l-5-3.32.45-7.57,1.56-1.77L82,112.5l.93,2.87Zm-4-3.86,3,2,.36-6.09-.75-2.33-1.52-1-.72.82Z"/><path class="cls-2" d="M80.31,115.79h0a1.21,1.21,0,0,1-.49-1l0-.41c0-.35.28-.47.57-.28h0a1.2,1.2,0,0,1,.48,1l0,.41C80.85,115.86,80.6,116,80.31,115.79Z"/><path class="cls-1" d="M81,112.27,80,112a5.66,5.66,0,0,1,4.1-3.75l.26,1A4.66,4.66,0,0,0,81,112.27Z"/><path class="cls-2" d="M85.71,108.67a1.08,1.08,0,1,1-1.08-1.08A1.08,1.08,0,0,1,85.71,108.67Z"/><path class="cls-1" d="M84.63,110.28a1.61,1.61,0,1,1,1.6-1.61A1.61,1.61,0,0,1,84.63,110.28Zm0-2.17a.56.56,0,0,0-.56.56.56.56,0,1,0,1.12,0A.56.56,0,0,0,84.63,108.11Z"/><path class="cls-1" d="M84.32,128l-.28-.75a4.51,4.51,0,0,0,1.83-1.13l.67.44A5.26,5.26,0,0,1,84.32,128Z"/><path class="cls-1" d="M94.1,124.71l-.54-.59a12.52,12.52,0,0,0,2.31-2.88l.72.35A12.94,12.94,0,0,1,94.1,124.71Z"/><path class="cls-1" d="M82,87.49A20.69,20.69,0,0,0,77,84l.47-.93a21.3,21.3,0,0,1,5.32,3.71Z"/><path class="cls-3" d="M90.89,59.3C94,61,94,64,91.5,65.1s-7.42.38-10-1.81-2.72-4-.63-5C83.32,57.11,87.76,57.61,90.89,59.3Z"/><path class="cls-1" d="M88.6,66.11a12,12,0,0,1-7.41-2.43c-1.68-1.44-2.42-2.68-2.28-3.8a2.77,2.77,0,0,1,1.76-2.05c2.52-1.24,7.12-.79,10.47,1h0c1.75.95,2.76,2.41,2.69,3.91a3.27,3.27,0,0,1-2.13,2.83A8.13,8.13,0,0,1,88.6,66.11Zm-4.34-7.94a7.16,7.16,0,0,0-3.13.6c-.73.35-1.13.77-1.19,1.24s.22,1.42,1.93,2.88c2.47,2.12,7.18,2.68,9.42,1.73a2.23,2.23,0,0,0,1.5-1.92,3.45,3.45,0,0,0-2.14-2.94h0A14.12,14.12,0,0,0,84.26,58.17Z"/><path class="cls-3" d="M93.14,64c.44-1.92-.51-6.78-5.37-7.47-5-.71-6.31,4.61-6.31,4.61h0c-.46,1,.38,2.25,2.19,3.27,2.53,1.43,6.22,1.86,8.23,1a2,2,0,0,0,1.2-1.11h0A1.2,1.2,0,0,0,93.14,64Z"/><path class="cls-1" d="M89.21,66.4a12.35,12.35,0,0,1-5.82-1.49c-2-1.15-3-2.67-2.42-3.91.17-.6,1.75-5.67,6.87-5a6.53,6.53,0,0,1,4.59,2.77,7.45,7.45,0,0,1,1.22,5.33l-.08.32,0,.07a2.61,2.61,0,0,1-1.44,1.34A7.28,7.28,0,0,1,89.21,66.4ZM86.87,57C83.05,57,82,61.12,82,61.31l0,.1c-.33.68.48,1.75,2,2.59,2.36,1.33,5.92,1.76,7.77.93a1.58,1.58,0,0,0,.92-.82l0-.06s0-.07,0-.1v0a6.47,6.47,0,0,0-1.06-4.52,5.4,5.4,0,0,0-3.88-2.32A6.12,6.12,0,0,0,86.87,57Z"/><path class="cls-3" d="M89,57c.9.51,1,1.18.33,1.5a3.77,3.77,0,0,1-2.94-.34c-.9-.51-1-1.18-.33-1.5A3.77,3.77,0,0,1,89,57Z"/><path class="cls-1" d="M88.41,59.2a4.79,4.79,0,0,1-2.25-.57,1.71,1.71,0,0,1-1-1.45,1.17,1.17,0,0,1,.76-1,4.35,4.35,0,0,1,3.41.36c.7.4,1.08.91,1,1.45a1.16,1.16,0,0,1-.76,1A2.93,2.93,0,0,1,88.41,59.2ZM87,57a1.89,1.89,0,0,0-.73.12.37.37,0,0,0-.15.11s.1.23.52.47a3.32,3.32,0,0,0,2.48.32.46.46,0,0,0,.15-.1s-.11-.24-.53-.48h0A3.71,3.71,0,0,0,87,57Z"/><path class="cls-1" d="M90.13,66.2l-.79-.67c1.32-1.56-.06-5.37-.7-6.71l.94-.45C89.69,58.59,92.16,63.82,90.13,66.2Z"/><path class="cls-1" d="M83.93,72.15a10.73,10.73,0,0,1-.24-7.62l1,.4a9.77,9.77,0,0,0,.24,6.83Z"/><rect class="cls-3" x="110.41" y="40.62" width="1.04" height="3.6"/><rect class="cls-3" x="109.11" y="41.9" width="3.64" height="1.04"/><rect class="cls-3" x="1.3" y="61.99" width="1.04" height="3.6"/><rect class="cls-3" y="63.27" width="3.64" height="1.04"/></g></g></svg>