<svg xmlns="http://www.w3.org/2000/svg" viewBox="0 0 123.33 96.6"><defs><style>.cls-1{fill:#16110d;}.cls-2{fill:#ffbe2e;}.cls-3{fill:#fec;}</style></defs><g id="Layer_2" data-name="Layer 2"><g id="content"><g id="_18" data-name="18"><path class="cls-1" d="M21.59,68.43a.26.26,0,0,1,0-.49.93.93,0,0,1,.83,0,.26.26,0,0,1,0,.49.93.93,0,0,1-.83,0C21.36,68.29,21.82,68.56,21.59,68.43Z"/><path class="cls-1" d="M24.6,66.69a.25.25,0,0,1,0,.48.93.93,0,0,1-.83,0,.25.25,0,0,1,0-.48A.93.93,0,0,1,24.6,66.69Z"/><path class="cls-1" d="M26.78,65.43a.25.25,0,0,1,0,.48.93.93,0,0,1-.83,0,.25.25,0,0,1,0-.48A.93.93,0,0,1,26.78,65.43Z"/><path class="cls-1" d="M22.42,65.43a.25.25,0,0,1,0,.48.93.93,0,0,1-.83,0,.25.25,0,0,1,0-.48A.93.93,0,0,1,22.42,65.43Z"/><path class="cls-1" d="M24.6,64.17c.23.14.23.35,0,.48a.87.87,0,0,1-.83,0c-.23-.13-.23-.34,0-.48A.93.93,0,0,1,24.6,64.17Z"/><path class="cls-1" d="M22.42,62.92a.25.25,0,0,1,0,.48.93.93,0,0,1-.83,0,.25.25,0,0,1,0-.48A.87.87,0,0,1,22.42,62.92Z"/><path class="cls-1" d="M18.07,60.4c.23.14.23.35,0,.48a.87.87,0,0,1-.83,0c-.23-.13-.23-.34,0-.48A.93.93,0,0,1,18.07,60.4Z"/><path class="cls-1" d="M15.87,59.13c.23.14.23.35,0,.48a.87.87,0,0,1-.83,0c-.23-.13-.23-.34,0-.48A.93.93,0,0,1,15.87,59.13Z"/><path class="cls-1" d="M13.7,57.88c.23.13.23.34,0,.48a1,1,0,0,1-.84,0c-.23-.14-.23-.35,0-.48A.89.89,0,0,1,13.7,57.88Z"/><ellipse class="cls-1" cx="15.36" cy="29.41" rx="0.59" ry="0.34"/><ellipse class="cls-1" cx="17.54" cy="28.15" rx="0.59" ry="0.34"/><path class="cls-1" d="M29,64.19a.25.25,0,0,1,0,.48.93.93,0,0,1-.83,0,.25.25,0,0,1,0-.48A.93.93,0,0,1,29,64.19Z"/><path class="cls-1" d="M31.14,62.93c.23.14.23.35,0,.48a.87.87,0,0,1-.83,0c-.23-.13-.23-.34,0-.48A.93.93,0,0,1,31.14,62.93Z"/><ellipse class="cls-1" cx="32.9" cy="61.92" rx="0.59" ry="0.34"/><path class="cls-1" d="M35.49,60.42a.25.25,0,0,1,0,.48.93.93,0,0,1-.83,0,.25.25,0,0,1,0-.48A.93.93,0,0,1,35.49,60.42Z"/><ellipse class="cls-1" cx="37.25" cy="59.4" rx="0.59" ry="0.34"/><path class="cls-1" d="M39.85,57.91c.23.13.23.34,0,.48a1,1,0,0,1-.84,0c-.23-.14-.23-.35,0-.48A.89.89,0,0,1,39.85,57.91Z"/><ellipse class="cls-1" cx="41.61" cy="56.89" rx="0.59" ry="0.34"/><path class="cls-1" d="M44.2,55.39a.25.25,0,0,1,0,.48.87.87,0,0,1-.83,0,.25.25,0,0,1,0-.48A.93.93,0,0,1,44.2,55.39Z"/><path class="cls-1" d="M46.38,54.62a.93.93,0,0,1-.83,0,.26.26,0,0,1,0-.49C45.78,54,46.61,54.48,46.38,54.62Z"/><path class="cls-1" d="M26,62.93a.93.93,0,0,1,.83,0c.23.14.23.35,0,.48a.9.9,0,0,1-.83,0A.26.26,0,0,1,26,62.93Z"/><path class="cls-1" d="M29,61.68c.23.13.23.34,0,.48a.93.93,0,0,1-.83,0c-.23-.14-.23-.35,0-.48A.87.87,0,0,1,29,61.68Z"/><path class="cls-1" d="M31.14,60.42a.25.25,0,0,1,0,.48.93.93,0,0,1-.83,0,.25.25,0,0,1,0-.48A.93.93,0,0,1,31.14,60.42Z"/><path class="cls-1" d="M33.32,59.16c.23.14.23.35,0,.48a.89.89,0,0,1-.84,0c-.23-.13-.23-.34,0-.48A1,1,0,0,1,33.32,59.16Z"/><ellipse class="cls-1" cx="35.08" cy="58.15" rx="0.59" ry="0.34"/><path class="cls-1" d="M37.67,56.65a.25.25,0,0,1,0,.48.93.93,0,0,1-.83,0,.25.25,0,0,1,0-.48A.93.93,0,0,1,37.67,56.65Z"/><path class="cls-1" d="M39.85,55.39a.25.25,0,0,1,0,.48.89.89,0,0,1-.84,0,.25.25,0,0,1,0-.48A1,1,0,0,1,39.85,55.39Z"/><ellipse class="cls-1" cx="41.61" cy="54.38" rx="0.59" ry="0.34"/><ellipse class="cls-1" cx="43.78" cy="53.12" rx="0.59" ry="0.34"/><path class="cls-1" d="M23.77,61.68a.92.92,0,0,1,.84,0c.23.13.23.34,0,.48a1,1,0,0,1-.84,0A.25.25,0,0,1,23.77,61.68Z"/><ellipse class="cls-1" cx="26.37" cy="60.66" rx="0.59" ry="0.34"/><path class="cls-1" d="M29,59.16c.23.14.23.35,0,.48a.87.87,0,0,1-.83,0c-.23-.13-.23-.34,0-.48A.93.93,0,0,1,29,59.16Z"/><ellipse class="cls-1" cx="30.72" cy="58.15" rx="0.59" ry="0.34"/><path class="cls-1" d="M33.32,56.65a.25.25,0,0,1,0,.48,1,1,0,0,1-.84,0,.25.25,0,0,1,0-.48A1,1,0,0,1,33.32,56.65Z"/><path class="cls-1" d="M35.49,55.39a.25.25,0,0,1,0,.48.87.87,0,0,1-.83,0,.25.25,0,0,1,0-.48A.93.93,0,0,1,35.49,55.39Z"/><path class="cls-1" d="M37.67,54.13a.26.26,0,0,1,0,.49.93.93,0,0,1-.83,0,.26.26,0,0,1,0-.49A.93.93,0,0,1,37.67,54.13Z"/><path class="cls-1" d="M39.85,52.88a.25.25,0,0,1,0,.48,1,1,0,0,1-.84,0,.25.25,0,0,1,0-.48A1,1,0,0,1,39.85,52.88Z"/><ellipse class="cls-1" cx="41.61" cy="51.86" rx="0.59" ry="0.34"/><path class="cls-1" d="M21.6,60.42a.93.93,0,0,1,.83,0,.25.25,0,0,1,0,.48.93.93,0,0,1-.83,0A.25.25,0,0,1,21.6,60.42Z"/><ellipse class="cls-1" cx="24.19" cy="59.4" rx="0.59" ry="0.34"/><ellipse class="cls-1" cx="26.37" cy="58.15" rx="0.59" ry="0.34"/><path class="cls-1" d="M29,56.65a.25.25,0,0,1,0,.48.93.93,0,0,1-.83,0,.25.25,0,0,1,0-.48A.93.93,0,0,1,29,56.65Z"/><ellipse class="cls-1" cx="30.72" cy="55.63" rx="0.59" ry="0.34"/><ellipse class="cls-1" cx="32.9" cy="54.38" rx="0.59" ry="0.34"/><ellipse class="cls-1" cx="35.08" cy="53.12" rx="0.59" ry="0.34"/><path class="cls-1" d="M37.67,51.62a.25.25,0,0,1,0,.48.93.93,0,0,1-.83,0,.25.25,0,0,1,0-.48A.93.93,0,0,1,37.67,51.62Z"/><path class="cls-1" d="M39.85,50.36c.23.14.23.35,0,.48a.89.89,0,0,1-.84,0c-.23-.13-.23-.34,0-.48A1,1,0,0,1,39.85,50.36Z"/><path class="cls-1" d="M42,49.59a.93.93,0,0,1-.83,0,.25.25,0,0,1,0-.48C41.42,49,42.25,49.46,42,49.59Z"/><path class="cls-1" d="M19.42,59.16a.93.93,0,0,1,.83,0c.23.14.23.35,0,.48a.87.87,0,0,1-.83,0C19.19,59.51,19.19,59.3,19.42,59.16Z"/><path class="cls-1" d="M22.43,57.91c.23.13.23.34,0,.48a.93.93,0,0,1-.83,0c-.23-.14-.23-.35,0-.48A.87.87,0,0,1,22.43,57.91Z"/><path class="cls-1" d="M24.61,56.65a.25.25,0,0,1,0,.48.93.93,0,0,1-.83,0,.25.25,0,0,1,0-.48A.93.93,0,0,1,24.61,56.65Z"/><ellipse class="cls-1" cx="26.37" cy="55.63" rx="0.59" ry="0.34"/><path class="cls-1" d="M29,54.13a.26.26,0,0,1,0,.49.93.93,0,0,1-.83,0,.26.26,0,0,1,0-.49A.93.93,0,0,1,29,54.13Z"/><path class="cls-1" d="M31.14,52.88a.25.25,0,0,1,0,.48.93.93,0,0,1-.83,0,.25.25,0,0,1,0-.48A.93.93,0,0,1,31.14,52.88Z"/><path class="cls-1" d="M33.32,51.62a.25.25,0,0,1,0,.48,1,1,0,0,1-.84,0,.25.25,0,0,1,0-.48A1,1,0,0,1,33.32,51.62Z"/><ellipse class="cls-1" cx="35.08" cy="50.6" rx="0.59" ry="0.34"/><path class="cls-1" d="M37.67,49.11a.25.25,0,0,1,0,.48.93.93,0,0,1-.83,0,.25.25,0,0,1,0-.48A.87.87,0,0,1,37.67,49.11Z"/><path class="cls-1" d="M39.85,48.33a1,1,0,0,1-.84,0,.25.25,0,0,1,0-.48C39.24,47.72,40.08,48.2,39.85,48.33Z"/><path class="cls-1" d="M17.22,57.89a1,1,0,0,1,.84,0c.23.14.23.35,0,.48a.89.89,0,0,1-.84,0C17,58.24,17,58,17.22,57.89Z"/><ellipse class="cls-1" cx="19.82" cy="56.88" rx="0.59" ry="0.34"/><path class="cls-1" d="M22.41,55.38a.25.25,0,0,1,0,.48.93.93,0,0,1-.83,0,.25.25,0,0,1,0-.48A.93.93,0,0,1,22.41,55.38Z"/><path class="cls-1" d="M24.59,54.12a.25.25,0,0,1,0,.48.87.87,0,0,1-.83,0,.25.25,0,0,1,0-.48A.93.93,0,0,1,24.59,54.12Z"/><path class="cls-1" d="M26.77,52.86a.26.26,0,0,1,0,.49,1,1,0,0,1-.84,0,.26.26,0,0,1,0-.49A1,1,0,0,1,26.77,52.86Z"/><ellipse class="cls-1" cx="28.53" cy="51.85" rx="0.59" ry="0.34"/><path class="cls-1" d="M31.12,50.35a.25.25,0,0,1,0,.48.93.93,0,0,1-.83,0,.25.25,0,0,1,0-.48A.93.93,0,0,1,31.12,50.35Z"/><path class="cls-1" d="M33.3,49.09c.23.14.23.35,0,.48a.89.89,0,0,1-.84,0c-.23-.13-.23-.34,0-.48A1,1,0,0,1,33.3,49.09Z"/><ellipse class="cls-1" cx="35.06" cy="48.08" rx="0.59" ry="0.34"/><path class="cls-1" d="M37.65,47.06a.93.93,0,0,1-.83,0,.25.25,0,0,1,0-.48C37.05,46.45,37.88,46.93,37.65,47.06Z"/><path class="cls-1" d="M15.05,56.64a.87.87,0,0,1,.83,0c.23.13.23.34,0,.48a.93.93,0,0,1-.83,0A.25.25,0,0,1,15.05,56.64Z"/><path class="cls-1" d="M18.06,55.38a.25.25,0,0,1,0,.48.93.93,0,0,1-.83,0,.25.25,0,0,1,0-.48A.93.93,0,0,1,18.06,55.38Z"/><path class="cls-1" d="M20.23,54.12a.25.25,0,0,1,0,.48.87.87,0,0,1-.83,0,.25.25,0,0,1,0-.48A.93.93,0,0,1,20.23,54.12Z"/><ellipse class="cls-1" cx="22" cy="53.11" rx="0.59" ry="0.34"/><ellipse class="cls-1" cx="24.17" cy="51.85" rx="0.59" ry="0.34"/><ellipse class="cls-1" cx="26.35" cy="50.59" rx="0.59" ry="0.34"/><ellipse class="cls-1" cx="28.53" cy="49.33" rx="0.59" ry="0.34"/><path class="cls-1" d="M31.12,47.84a.25.25,0,0,1,0,.48.93.93,0,0,1-.83,0,.25.25,0,0,1,0-.48A.87.87,0,0,1,31.12,47.84Z"/><path class="cls-1" d="M33.3,46.58a.25.25,0,0,1,0,.48,1,1,0,0,1-.84,0,.25.25,0,0,1,0-.48A1,1,0,0,1,33.3,46.58Z"/><path class="cls-1" d="M35.47,45.8a.87.87,0,0,1-.83,0c-.23-.13-.23-.34,0-.48S35.7,45.67,35.47,45.8Z"/><path class="cls-1" d="M12.87,55.38a.93.93,0,0,1,.83,0,.25.25,0,0,1,0,.48.93.93,0,0,1-.83,0A.25.25,0,0,1,12.87,55.38Z"/><ellipse class="cls-1" cx="15.46" cy="54.36" rx="0.59" ry="0.34"/><path class="cls-1" d="M18.06,52.86a.26.26,0,0,1,0,.49.93.93,0,0,1-.83,0,.26.26,0,0,1,0-.49A.93.93,0,0,1,18.06,52.86Z"/><path class="cls-1" d="M20.23,51.61a.25.25,0,0,1,0,.48.93.93,0,0,1-.83,0,.25.25,0,0,1,0-.48A.93.93,0,0,1,20.23,51.61Z"/><ellipse class="cls-1" cx="22" cy="50.59" rx="0.59" ry="0.34"/><ellipse class="cls-1" cx="24.17" cy="49.33" rx="0.59" ry="0.34"/><ellipse class="cls-1" cx="26.35" cy="48.08" rx="0.59" ry="0.34"/><path class="cls-1" d="M28.94,46.58a.25.25,0,0,1,0,.48.93.93,0,0,1-.83,0,.25.25,0,0,1,0-.48A.93.93,0,0,1,28.94,46.58Z"/><path class="cls-1" d="M31.12,45.32c.23.14.23.35,0,.48a.87.87,0,0,1-.83,0c-.23-.13-.23-.34,0-.48A.93.93,0,0,1,31.12,45.32Z"/><path class="cls-1" d="M33.3,44.55a1,1,0,0,1-.84,0c-.23-.14-.23-.35,0-.48S33.53,44.41,33.3,44.55Z"/><path class="cls-1" d="M18.06,50.35a.25.25,0,0,1,0,.48.93.93,0,0,1-.83,0,.25.25,0,0,1,0-.48A.93.93,0,0,1,18.06,50.35Z"/><path class="cls-1" d="M20.23,49.09c.23.14.23.35,0,.48a.87.87,0,0,1-.83,0c-.23-.13-.23-.34,0-.48A.93.93,0,0,1,20.23,49.09Z"/><path class="cls-1" d="M22.41,47.84a.25.25,0,0,1,0,.48.93.93,0,0,1-.83,0,.25.25,0,0,1,0-.48A.87.87,0,0,1,22.41,47.84Z"/><ellipse class="cls-1" cx="24.17" cy="46.82" rx="0.59" ry="0.34"/><path class="cls-1" d="M26.77,45.32c.23.14.23.35,0,.48a.89.89,0,0,1-.84,0c-.23-.13-.23-.34,0-.48A1,1,0,0,1,26.77,45.32Z"/><path class="cls-1" d="M28.94,44.07c.23.13.23.34,0,.48a.93.93,0,0,1-.83,0c-.23-.14-.23-.35,0-.48A.87.87,0,0,1,28.94,44.07Z"/><path class="cls-1" d="M31.12,43.29a.93.93,0,0,1-.83,0,.25.25,0,0,1,0-.48.93.93,0,0,1,.83,0A.25.25,0,0,1,31.12,43.29Z"/><path class="cls-1" d="M18.06,47.84a.25.25,0,0,1,0,.48.93.93,0,0,1-.83,0,.25.25,0,0,1,0-.48A.87.87,0,0,1,18.06,47.84Z"/><path class="cls-1" d="M20.23,46.58a.25.25,0,0,1,0,.48.93.93,0,0,1-.83,0,.25.25,0,0,1,0-.48A.93.93,0,0,1,20.23,46.58Z"/><path class="cls-1" d="M22.41,45.32c.23.14.23.35,0,.48a.87.87,0,0,1-.83,0c-.23-.13-.23-.34,0-.48A.93.93,0,0,1,22.41,45.32Z"/><ellipse class="cls-1" cx="24.17" cy="44.31" rx="0.59" ry="0.34"/><ellipse class="cls-1" cx="26.35" cy="43.05" rx="0.59" ry="0.34"/><path class="cls-1" d="M28.94,41.55c.23.14.23.35,0,.48a.87.87,0,0,1-.83,0c-.23-.13-.23-.34,0-.48a.93.93,0,0,1,.83,0C29.17,41.69,28.71,41.42,28.94,41.55Z"/><ellipse class="cls-1" cx="17.64" cy="45.56" rx="0.59" ry="0.34"/><path class="cls-1" d="M20.23,44.07c.23.13.23.34,0,.48a.93.93,0,0,1-.83,0c-.23-.14-.23-.35,0-.48A.87.87,0,0,1,20.23,44.07Z"/><path class="cls-1" d="M22.41,42.81a.25.25,0,0,1,0,.48.93.93,0,0,1-.83,0,.25.25,0,0,1,0-.48A.93.93,0,0,1,22.41,42.81Z"/><path class="cls-1" d="M24.59,41.55c.23.14.23.35,0,.48a.87.87,0,0,1-.83,0c-.23-.13-.23-.34,0-.48A.93.93,0,0,1,24.59,41.55Z"/><path class="cls-1" d="M26.77,40.3c.23.13.23.34,0,.48a1,1,0,0,1-.84,0c-.23-.14-.23-.35,0-.48A.89.89,0,0,1,26.77,40.3Z"/><path class="cls-1" d="M18.06,42.81a.25.25,0,0,1,0,.48.93.93,0,0,1-.83,0,.25.25,0,0,1,0-.48A.93.93,0,0,1,18.06,42.81Z"/><path class="cls-1" d="M20.23,41.55c.23.14.23.35,0,.48a.87.87,0,0,1-.83,0c-.23-.13-.23-.34,0-.48A.93.93,0,0,1,20.23,41.55Z"/><ellipse class="cls-1" cx="22" cy="40.54" rx="0.59" ry="0.34"/><ellipse class="cls-1" cx="24.17" cy="39.28" rx="0.59" ry="0.34"/><path class="cls-1" d="M15.88,41.55c.23.14.23.35,0,.48a.87.87,0,0,1-.83,0c-.23-.13-.23-.34,0-.48A.93.93,0,0,1,15.88,41.55Z"/><path class="cls-1" d="M18.06,40.3c.23.13.23.34,0,.48a.93.93,0,0,1-.83,0c-.23-.14-.23-.35,0-.48A.87.87,0,0,1,18.06,40.3Z"/><path class="cls-1" d="M20.24,39a.26.26,0,0,1,0,.48,1,1,0,0,1-.84,0,.25.25,0,0,1,0-.48A1,1,0,0,1,20.24,39Z"/><ellipse class="cls-1" cx="22" cy="38.02" rx="0.59" ry="0.34"/><ellipse class="cls-1" cx="24.17" cy="36.77" rx="0.59" ry="0.34"/><path class="cls-1" d="M15.86,39c.23.13.23.34,0,.48a.93.93,0,0,1-.83,0c-.23-.14-.23-.35,0-.48A.87.87,0,0,1,15.86,39Z"/><path class="cls-1" d="M18,37.77a.25.25,0,0,1,0,.48.93.93,0,0,1-.83,0,.25.25,0,0,1,0-.48A.93.93,0,0,1,18,37.77Z"/><path class="cls-1" d="M20.22,36.51a.25.25,0,0,1,0,.48.89.89,0,0,1-.84,0,.25.25,0,0,1,0-.48A1,1,0,0,1,20.22,36.51Z"/><path class="cls-1" d="M22.39,35.25a.26.26,0,0,1,0,.49.93.93,0,0,1-.83,0,.26.26,0,0,1,0-.49A.93.93,0,0,1,22.39,35.25Z"/><ellipse class="cls-1" cx="15.45" cy="36.75" rx="0.59" ry="0.34"/><ellipse class="cls-1" cx="17.62" cy="35.5" rx="0.59" ry="0.34"/><path class="cls-1" d="M20.22,34a.25.25,0,0,1,0,.48,1,1,0,0,1-.84,0,.25.25,0,0,1,0-.48A1,1,0,0,1,20.22,34Z"/><path class="cls-1" d="M22.39,32.74a.25.25,0,0,1,0,.48.93.93,0,0,1-.83,0,.25.25,0,0,1,0-.48A.93.93,0,0,1,22.39,32.74Z"/><path class="cls-1" d="M15.86,34a.25.25,0,0,1,0,.48.93.93,0,0,1-.83,0A.25.25,0,0,1,15,34,.93.93,0,0,1,15.86,34Z"/><path class="cls-1" d="M18,32.74a.25.25,0,0,1,0,.48.93.93,0,0,1-.83,0,.25.25,0,0,1,0-.48A.93.93,0,0,1,18,32.74Z"/><ellipse class="cls-1" cx="19.8" cy="31.72" rx="0.59" ry="0.34"/><path class="cls-1" d="M22.39,30.71a.93.93,0,0,1-.83,0,.25.25,0,0,1,0-.48.87.87,0,0,1,.83,0A.25.25,0,0,1,22.39,30.71Z"/><path class="cls-1" d="M15.86,31.48a.26.26,0,0,1,0,.49A.93.93,0,0,1,15,32a.26.26,0,0,1,0-.49A.93.93,0,0,1,15.86,31.48Z"/><path class="cls-1" d="M18,30.23a.25.25,0,0,1,0,.48.93.93,0,0,1-.83,0,.25.25,0,0,1,0-.48A.87.87,0,0,1,18,30.23Z"/><path class="cls-1" d="M20.22,29a.25.25,0,0,1,0,.48,1,1,0,0,1-.84,0,.25.25,0,0,1,0-.48A1,1,0,0,1,20.22,29Z"/><path class="cls-1" d="M24.55,94.36a.25.25,0,0,1,0,.48.93.93,0,0,1-.83,0,.25.25,0,0,1,0-.48A.93.93,0,0,1,24.55,94.36Z"/><ellipse class="cls-1" cx="26.31" cy="93.34" rx="0.59" ry="0.34"/><path class="cls-1" d="M28.91,91.84a.26.26,0,0,1,0,.49,1,1,0,0,1-.84,0,.26.26,0,0,1,0-.49A1,1,0,0,1,28.91,91.84Z"/><path class="cls-1" d="M31.08,90.59a.25.25,0,0,1,0,.48.93.93,0,0,1-.83,0,.25.25,0,0,1,0-.48A.93.93,0,0,1,31.08,90.59Z"/><path class="cls-1" d="M33.26,89.33a.25.25,0,0,1,0,.48.93.93,0,0,1-.83,0,.25.25,0,0,1,0-.48A.93.93,0,0,1,33.26,89.33Z"/><ellipse class="cls-1" cx="37.2" cy="87.06" rx="0.59" ry="0.34"/><ellipse class="cls-1" cx="39.37" cy="85.8" rx="0.59" ry="0.34"/><path class="cls-1" d="M35.44,88.07c.23.14.23.35,0,.48a.89.89,0,0,1-.84,0c-.23-.13-.23-.34,0-.48A1,1,0,0,1,35.44,88.07Z"/><path class="cls-1" d="M18,95.62c.23.13.23.34,0,.48a.93.93,0,0,1-.83,0c-.23-.14-.23-.35,0-.48A.87.87,0,0,1,18,95.62Z"/><path class="cls-1" d="M20.2,94.36a.25.25,0,0,1,0,.48,1,1,0,0,1-.84,0,.25.25,0,0,1,0-.48A1,1,0,0,1,20.2,94.36Z"/><path class="cls-1" d="M22.37,93.1a.25.25,0,0,1,0,.48.87.87,0,0,1-.83,0,.25.25,0,0,1,0-.48A.93.93,0,0,1,22.37,93.1Z"/><path class="cls-1" d="M24.55,91.84a.26.26,0,0,1,0,.49.93.93,0,0,1-.83,0,.26.26,0,0,1,0-.49A.93.93,0,0,1,24.55,91.84Z"/><path class="cls-1" d="M26.73,90.59a.25.25,0,0,1,0,.48.93.93,0,0,1-.83,0,.25.25,0,0,1,0-.48A.93.93,0,0,1,26.73,90.59Z"/><path class="cls-1" d="M28.91,89.33a.25.25,0,0,1,0,.48,1,1,0,0,1-.84,0,.25.25,0,0,1,0-.48A1,1,0,0,1,28.91,89.33Z"/><path class="cls-1" d="M31.08,88.07c.23.14.23.35,0,.48a.87.87,0,0,1-.83,0c-.23-.13-.23-.34,0-.48A.93.93,0,0,1,31.08,88.07Z"/><path class="cls-1" d="M35.44,85.56a.25.25,0,0,1,0,.48,1,1,0,0,1-.84,0,.25.25,0,0,1,0-.48A1,1,0,0,1,35.44,85.56Z"/><path class="cls-1" d="M37.61,84.3c.23.14.23.35,0,.48a.87.87,0,0,1-.83,0c-.23-.13-.23-.34,0-.48A.93.93,0,0,1,37.61,84.3Z"/><ellipse class="cls-1" cx="32.84" cy="87.06" rx="0.59" ry="0.34"/><ellipse class="cls-1" cx="13.25" cy="95.86" rx="0.59" ry="0.34"/><path class="cls-1" d="M15.84,94.36a.25.25,0,0,1,0,.48.93.93,0,0,1-.83,0,.25.25,0,0,1,0-.48A.93.93,0,0,1,15.84,94.36Z"/><path class="cls-1" d="M18,93.1a.25.25,0,0,1,0,.48.87.87,0,0,1-.83,0,.25.25,0,0,1,0-.48A.93.93,0,0,1,18,93.1Z"/><path class="cls-1" d="M20.2,91.84a.26.26,0,0,1,0,.49,1,1,0,0,1-.84,0,.26.26,0,0,1,0-.49A1,1,0,0,1,20.2,91.84Z"/><path class="cls-1" d="M22.37,90.59a.25.25,0,0,1,0,.48.93.93,0,0,1-.83,0,.25.25,0,0,1,0-.48A.93.93,0,0,1,22.37,90.59Z"/><path class="cls-1" d="M24.55,89.33a.25.25,0,0,1,0,.48.93.93,0,0,1-.83,0,.25.25,0,0,1,0-.48A.93.93,0,0,1,24.55,89.33Z"/><path class="cls-1" d="M26.73,88.07a.26.26,0,0,1,0,.49.93.93,0,0,1-.83,0,.26.26,0,0,1,0-.49A.93.93,0,0,1,26.73,88.07Z"/><path class="cls-1" d="M28.91,86.82a.25.25,0,0,1,0,.48,1,1,0,0,1-.84,0,.25.25,0,0,1,0-.48A.89.89,0,0,1,28.91,86.82Z"/><ellipse class="cls-1" cx="32.84" cy="84.54" rx="0.59" ry="0.34"/><path class="cls-1" d="M35.44,83.05c.23.13.23.34,0,.48a1,1,0,0,1-.84,0c-.23-.14-.23-.35,0-.48A.89.89,0,0,1,35.44,83.05Z"/><path class="cls-1" d="M31.08,85.56a.25.25,0,0,1,0,.48.93.93,0,0,1-.83,0,.25.25,0,0,1,0-.48A.93.93,0,0,1,31.08,85.56Z"/><path class="cls-1" d="M11.49,94.36a.25.25,0,0,1,0,.48.93.93,0,0,1-.83,0,.25.25,0,0,1,0-.48A.93.93,0,0,1,11.49,94.36Z"/><path class="cls-1" d="M13.67,93.1a.25.25,0,0,1,0,.48.89.89,0,0,1-.84,0,.25.25,0,0,1,0-.48A1,1,0,0,1,13.67,93.1Z"/><path class="cls-1" d="M15.84,91.85c.23.13.23.34,0,.48a.93.93,0,0,1-.83,0c-.23-.14-.23-.35,0-.48A.87.87,0,0,1,15.84,91.85Z"/><path class="cls-1" d="M18,90.59a.25.25,0,0,1,0,.48.93.93,0,0,1-.83,0,.25.25,0,0,1,0-.48A.93.93,0,0,1,18,90.59Z"/><path class="cls-1" d="M20.2,89.33a.25.25,0,0,1,0,.48,1,1,0,0,1-.84,0,.25.25,0,0,1,0-.48A1,1,0,0,1,20.2,89.33Z"/><path class="cls-1" d="M22.37,88.07a.26.26,0,0,1,0,.49.93.93,0,0,1-.83,0,.26.26,0,0,1,0-.49A.93.93,0,0,1,22.37,88.07Z"/><path class="cls-1" d="M24.55,86.82a.25.25,0,0,1,0,.48.93.93,0,0,1-.83,0,.25.25,0,0,1,0-.48A.87.87,0,0,1,24.55,86.82Z"/><path class="cls-1" d="M26.73,85.56a.25.25,0,0,1,0,.48.93.93,0,0,1-.83,0,.25.25,0,0,1,0-.48A.93.93,0,0,1,26.73,85.56Z"/><ellipse class="cls-1" cx="28.49" cy="84.54" rx="0.59" ry="0.34"/><path class="cls-1" d="M33.26,81.79a.25.25,0,0,1,0,.48.93.93,0,0,1-.83,0,.25.25,0,0,1,0-.48A.93.93,0,0,1,33.26,81.79Z"/><path class="cls-1" d="M31.08,83.05c.23.13.23.34,0,.48a.93.93,0,0,1-.83,0c-.23-.14-.23-.35,0-.48A.87.87,0,0,1,31.08,83.05Z"/><ellipse class="cls-1" cx="11.07" cy="92.09" rx="0.59" ry="0.34"/><ellipse class="cls-1" cx="13.25" cy="90.83" rx="0.59" ry="0.34"/><path class="cls-1" d="M15.84,89.33a.25.25,0,0,1,0,.48.93.93,0,0,1-.83,0,.25.25,0,0,1,0-.48A.93.93,0,0,1,15.84,89.33Z"/><path class="cls-1" d="M18,88.07a.26.26,0,0,1,0,.49.93.93,0,0,1-.83,0,.26.26,0,0,1,0-.49A.93.93,0,0,1,18,88.07Z"/><path class="cls-1" d="M20.2,86.82a.25.25,0,0,1,0,.48,1,1,0,0,1-.84,0,.25.25,0,0,1,0-.48A.89.89,0,0,1,20.2,86.82Z"/><path class="cls-1" d="M22.37,85.56a.25.25,0,0,1,0,.48.93.93,0,0,1-.83,0,.25.25,0,0,1,0-.48A.93.93,0,0,1,22.37,85.56Z"/><path class="cls-1" d="M24.55,84.3c.23.14.23.35,0,.48a.87.87,0,0,1-.83,0c-.23-.13-.23-.34,0-.48A.93.93,0,0,1,24.55,84.3Z"/><path class="cls-1" d="M26.73,83.05c.23.13.23.34,0,.48a.93.93,0,0,1-.83,0c-.23-.14-.23-.35,0-.48A.87.87,0,0,1,26.73,83.05Z"/><ellipse class="cls-1" cx="28.49" cy="82.03" rx="0.59" ry="0.34"/><ellipse class="cls-1" cx="30.67" cy="80.77" rx="0.59" ry="0.34"/><path class="cls-1" d="M11.49,89.33a.25.25,0,0,1,0,.48.93.93,0,0,1-.83,0,.25.25,0,0,1,0-.48A.93.93,0,0,1,11.49,89.33Z"/><path class="cls-1" d="M13.67,88.07a.26.26,0,0,1,0,.49,1,1,0,0,1-.84,0,.26.26,0,0,1,0-.49A1,1,0,0,1,13.67,88.07Z"/><path class="cls-1" d="M15.84,86.82a.25.25,0,0,1,0,.48.93.93,0,0,1-.83,0,.25.25,0,0,1,0-.48A.87.87,0,0,1,15.84,86.82Z"/><path class="cls-1" d="M18,85.56A.25.25,0,0,1,18,86a.93.93,0,0,1-.83,0,.25.25,0,0,1,0-.48A.93.93,0,0,1,18,85.56Z"/><path class="cls-1" d="M20.2,84.3c.23.14.23.35,0,.48a.89.89,0,0,1-.84,0c-.23-.13-.23-.34,0-.48A1,1,0,0,1,20.2,84.3Z"/><path class="cls-1" d="M22.37,83.05c.23.13.23.34,0,.48a.93.93,0,0,1-.83,0c-.23-.14-.23-.35,0-.48A.87.87,0,0,1,22.37,83.05Z"/><path class="cls-1" d="M24.55,81.79a.25.25,0,0,1,0,.48.93.93,0,0,1-.83,0,.25.25,0,0,1,0-.48A.93.93,0,0,1,24.55,81.79Z"/><path class="cls-1" d="M26.73,80.53c.23.14.23.35,0,.48a.87.87,0,0,1-.83,0c-.23-.13-.23-.34,0-.48A.93.93,0,0,1,26.73,80.53Z"/><path class="cls-1" d="M28.91,79.28c.23.13.23.34,0,.48a1,1,0,0,1-.84,0c-.23-.14-.23-.35,0-.48A.89.89,0,0,1,28.91,79.28Z"/><path class="cls-1" d="M10.66,86.82a.87.87,0,0,1,.83,0,.25.25,0,0,1,0,.48.93.93,0,0,1-.83,0A.25.25,0,0,1,10.66,86.82Z"/><path class="cls-1" d="M13.67,85.56a.25.25,0,0,1,0,.48,1,1,0,0,1-.84,0,.25.25,0,0,1,0-.48A1,1,0,0,1,13.67,85.56Z"/><path class="cls-1" d="M15.84,84.3c.23.14.23.35,0,.48a.87.87,0,0,1-.83,0c-.23-.13-.23-.34,0-.48A.93.93,0,0,1,15.84,84.3Z"/><path class="cls-1" d="M18,83.05c.23.13.23.34,0,.48a.93.93,0,0,1-.83,0c-.23-.14-.23-.35,0-.48A.87.87,0,0,1,18,83.05Z"/><path class="cls-1" d="M20.2,81.79a.25.25,0,0,1,0,.48,1,1,0,0,1-.84,0,.25.25,0,0,1,0-.48A1,1,0,0,1,20.2,81.79Z"/><path class="cls-1" d="M22.37,80.53c.23.14.23.35,0,.48a.87.87,0,0,1-.83,0c-.23-.13-.23-.34,0-.48A.93.93,0,0,1,22.37,80.53Z"/><path class="cls-1" d="M24.55,79.28c.23.13.23.34,0,.48a.93.93,0,0,1-.83,0c-.23-.14-.23-.35,0-.48A.87.87,0,0,1,24.55,79.28Z"/><path class="cls-1" d="M26.73,78a.25.25,0,0,1,0,.48.93.93,0,0,1-.83,0,.25.25,0,0,1,0-.48A.93.93,0,0,1,26.73,78Z"/><path class="cls-1" d="M12.81,83a1,1,0,0,1,.84,0c.23.14.23.35,0,.48a.89.89,0,0,1-.84,0C12.58,83.38,12.58,83.17,12.81,83Z"/><path class="cls-1" d="M15.82,81.78c.23.13.23.34,0,.48a.93.93,0,0,1-.83,0c-.23-.14-.23-.35,0-.48A.87.87,0,0,1,15.82,81.78Z"/><path class="cls-1" d="M18,80.52A.25.25,0,0,1,18,81a.93.93,0,0,1-.83,0,.25.25,0,0,1,0-.48A.93.93,0,0,1,18,80.52Z"/><ellipse class="cls-1" cx="19.76" cy="79.5" rx="0.59" ry="0.34"/><ellipse class="cls-1" cx="21.94" cy="78.25" rx="0.59" ry="0.34"/><path class="cls-1" d="M24.53,76.75a.25.25,0,0,1,0,.48.93.93,0,0,1-.83,0,.25.25,0,0,1,0-.48A.93.93,0,0,1,24.53,76.75Z"/><path class="cls-1" d="M15.82,79.26c.23.14.23.35,0,.48a.87.87,0,0,1-.83,0C14.76,79.61,15.59,79.13,15.82,79.26Z"/><path class="cls-1" d="M18,78c.23.13.23.34,0,.48a.93.93,0,0,1-.83,0c-.23-.14-.23-.35,0-.48A.87.87,0,0,1,18,78Z"/><path class="cls-1" d="M20.18,76.75a.25.25,0,0,1,0,.48.93.93,0,0,1-.83,0,.25.25,0,0,1,0-.48A.93.93,0,0,1,20.18,76.75Z"/><path class="cls-1" d="M22.36,75.49a.25.25,0,0,1,0,.48.89.89,0,0,1-.84,0,.25.25,0,0,1,0-.48A1,1,0,0,1,22.36,75.49Z"/><path class="cls-1" d="M19.35,74.24a.87.87,0,0,1,.83,0c.23.13.23.34,0,.48a.93.93,0,0,1-.83,0C19.12,74.58,19.12,74.37,19.35,74.24Z"/><path class="cls-1" d="M55.06,91.87a.26.26,0,0,1,0,.49,1,1,0,0,1-.84,0,.26.26,0,0,1,0-.49A1,1,0,0,1,55.06,91.87Z"/><path class="cls-1" d="M57.23,90.62a.25.25,0,0,1,0,.48.93.93,0,0,1-.83,0,.25.25,0,0,1,0-.48A.87.87,0,0,1,57.23,90.62Z"/><path class="cls-1" d="M59.41,89.36a.25.25,0,0,1,0,.48.93.93,0,0,1-.83,0,.25.25,0,0,1,0-.48A.93.93,0,0,1,59.41,89.36Z"/><ellipse class="cls-1" cx="61.17" cy="88.34" rx="0.59" ry="0.34"/><ellipse class="cls-1" cx="63.35" cy="87.09" rx="0.59" ry="0.34"/><path class="cls-1" d="M65.94,85.59a.25.25,0,0,1,0,.48.93.93,0,0,1-.83,0,.25.25,0,0,1,0-.48A.93.93,0,0,1,65.94,85.59Z"/><path class="cls-1" d="M68.12,84.33c.23.14.23.35,0,.48a.89.89,0,0,1-.84,0c-.23-.13-.23-.34,0-.48A1,1,0,0,1,68.12,84.33Z"/><path class="cls-1" d="M70.29,83.08c.23.13.23.34,0,.48a.93.93,0,0,1-.83,0c-.23-.14-.23-.35,0-.48A.87.87,0,0,1,70.29,83.08Z"/><path class="cls-1" d="M72.47,81.82a.25.25,0,0,1,0,.48.93.93,0,0,1-.83,0,.25.25,0,0,1,0-.48A.93.93,0,0,1,72.47,81.82Z"/><path class="cls-1" d="M74.65,80.56a.25.25,0,0,1,0,.48.87.87,0,0,1-.83,0,.25.25,0,0,1,0-.48A.93.93,0,0,1,74.65,80.56Z"/><ellipse class="cls-1" cx="76.41" cy="79.55" rx="0.59" ry="0.34"/><path class="cls-1" d="M79,78.05a.25.25,0,0,1,0,.48.93.93,0,0,1-.83,0,.25.25,0,0,1,0-.48A.93.93,0,0,1,79,78.05Z"/><ellipse class="cls-1" cx="80.76" cy="77.03" rx="0.59" ry="0.34"/><ellipse class="cls-1" cx="82.94" cy="75.77" rx="0.59" ry="0.34"/><path class="cls-1" d="M85.53,74.28a.25.25,0,0,1,0,.48.93.93,0,0,1-.83,0,.25.25,0,0,1,0-.48A.87.87,0,0,1,85.53,74.28Z"/><ellipse class="cls-1" cx="87.29" cy="73.26" rx="0.59" ry="0.34"/><path class="cls-1" d="M52,90.62a1,1,0,0,1,.84,0,.25.25,0,0,1,0,.48,1,1,0,0,1-.84,0A.25.25,0,0,1,52,90.62Z"/><path class="cls-1" d="M55.06,89.36a.25.25,0,0,1,0,.48,1,1,0,0,1-.84,0,.25.25,0,0,1,0-.48A1,1,0,0,1,55.06,89.36Z"/><path class="cls-1" d="M57.23,88.1c.23.14.23.35,0,.48a.87.87,0,0,1-.83,0c-.23-.13-.23-.34,0-.48A.93.93,0,0,1,57.23,88.1Z"/><path class="cls-1" d="M59.41,86.85c.23.13.23.34,0,.48a.93.93,0,0,1-.83,0c-.23-.14-.23-.35,0-.48A.87.87,0,0,1,59.41,86.85Z"/><path class="cls-1" d="M61.59,85.59a.25.25,0,0,1,0,.48,1,1,0,0,1-.84,0,.25.25,0,0,1,0-.48A1,1,0,0,1,61.59,85.59Z"/><ellipse class="cls-1" cx="63.35" cy="84.57" rx="0.59" ry="0.34"/><ellipse class="cls-1" cx="65.52" cy="83.32" rx="0.59" ry="0.34"/><ellipse class="cls-1" cx="67.7" cy="82.06" rx="0.59" ry="0.34"/><path class="cls-1" d="M72.47,79.31c.23.13.23.34,0,.48a.93.93,0,0,1-.83,0c-.23-.14-.23-.35,0-.48A.87.87,0,0,1,72.47,79.31Z"/><path class="cls-1" d="M74.65,78.05a.25.25,0,0,1,0,.48.93.93,0,0,1-.83,0,.25.25,0,0,1,0-.48A.93.93,0,0,1,74.65,78.05Z"/><path class="cls-1" d="M76.83,76.79a.25.25,0,0,1,0,.48.89.89,0,0,1-.84,0,.25.25,0,0,1,0-.48A1,1,0,0,1,76.83,76.79Z"/><path class="cls-1" d="M79,75.53A.26.26,0,0,1,79,76a.93.93,0,0,1-.83,0,.26.26,0,0,1,0-.49A.93.93,0,0,1,79,75.53Z"/><path class="cls-1" d="M81.18,74.28a.25.25,0,0,1,0,.48.93.93,0,0,1-.83,0,.25.25,0,0,1,0-.48A.87.87,0,0,1,81.18,74.28Z"/><path class="cls-1" d="M83.36,73a.25.25,0,0,1,0,.48,1,1,0,0,1-.84,0,.25.25,0,0,1,0-.48A1,1,0,0,1,83.36,73Z"/><path class="cls-1" d="M85.53,71.76c.23.14.23.35,0,.48a.87.87,0,0,1-.83,0c-.23-.13-.23-.34,0-.48A.93.93,0,0,1,85.53,71.76Z"/><path class="cls-1" d="M49.87,89.36a.93.93,0,0,1,.83,0,.25.25,0,0,1,0,.48.87.87,0,0,1-.83,0C49.64,89.71,49.64,89.5,49.87,89.36Z"/><path class="cls-1" d="M52.88,88.1c.23.14.23.35,0,.48a.87.87,0,0,1-.83,0c-.23-.13-.23-.34,0-.48A.93.93,0,0,1,52.88,88.1Z"/><ellipse class="cls-1" cx="54.64" cy="87.09" rx="0.59" ry="0.34"/><path class="cls-1" d="M57.23,85.59a.25.25,0,0,1,0,.48.93.93,0,0,1-.83,0,.25.25,0,0,1,0-.48A.93.93,0,0,1,57.23,85.59Z"/><ellipse class="cls-1" cx="69.88" cy="80.8" rx="0.59" ry="0.34"/><ellipse class="cls-1" cx="58.99" cy="84.57" rx="0.59" ry="0.34"/><path class="cls-1" d="M61.59,83.08c.23.13.23.34,0,.48a1,1,0,0,1-.84,0c-.23-.14-.23-.35,0-.48A.89.89,0,0,1,61.59,83.08Z"/><path class="cls-1" d="M63.76,81.82a.25.25,0,0,1,0,.48.93.93,0,0,1-.83,0,.25.25,0,0,1,0-.48A.93.93,0,0,1,63.76,81.82Z"/><path class="cls-1" d="M65.94,80.56c.23.14.23.35,0,.48a.87.87,0,0,1-.83,0c-.23-.13-.23-.34,0-.48A.93.93,0,0,1,65.94,80.56Z"/><ellipse class="cls-1" cx="67.7" cy="79.55" rx="0.59" ry="0.34"/><path class="cls-1" d="M70.29,78.05a.25.25,0,0,1,0,.48.93.93,0,0,1-.83,0,.25.25,0,0,1,0-.48A.93.93,0,0,1,70.29,78.05Z"/><ellipse class="cls-1" cx="74.23" cy="75.77" rx="0.59" ry="0.34"/><ellipse class="cls-1" cx="76.41" cy="74.52" rx="0.59" ry="0.34"/><path class="cls-1" d="M79,73a.25.25,0,0,1,0,.48.93.93,0,0,1-.83,0,.25.25,0,0,1,0-.48A.93.93,0,0,1,79,73Z"/><path class="cls-1" d="M81.18,71.76c.23.14.23.35,0,.48a.87.87,0,0,1-.83,0c-.23-.13-.23-.34,0-.48A.93.93,0,0,1,81.18,71.76Z"/><path class="cls-1" d="M50.7,86.85c.23.13.23.34,0,.48a.93.93,0,0,1-.83,0c-.23-.14-.23-.35,0-.48A.87.87,0,0,1,50.7,86.85Z"/><path class="cls-1" d="M52.88,85.59a.25.25,0,0,1,0,.48.93.93,0,0,1-.83,0,.25.25,0,0,1,0-.48A.93.93,0,0,1,52.88,85.59Z"/><ellipse class="cls-1" cx="54.64" cy="84.57" rx="0.59" ry="0.34"/><path class="cls-1" d="M72.47,76.79a.25.25,0,0,1,0,.48.87.87,0,0,1-.83,0,.25.25,0,0,1,0-.48A.93.93,0,0,1,72.47,76.79Z"/><path class="cls-1" d="M57.23,83.08c.23.13.23.34,0,.48a.93.93,0,0,1-.83,0c-.23-.14-.23-.35,0-.48A.87.87,0,0,1,57.23,83.08Z"/><path class="cls-1" d="M59.41,81.82a.25.25,0,0,1,0,.48.93.93,0,0,1-.83,0,.25.25,0,0,1,0-.48A.93.93,0,0,1,59.41,81.82Z"/><ellipse class="cls-1" cx="61.17" cy="80.8" rx="0.59" ry="0.34"/><ellipse class="cls-1" cx="63.35" cy="79.55" rx="0.59" ry="0.34"/><ellipse class="cls-1" cx="65.52" cy="78.29" rx="0.59" ry="0.34"/><ellipse class="cls-1" cx="67.7" cy="77.03" rx="0.59" ry="0.34"/><path class="cls-1" d="M70.29,75.53a.26.26,0,0,1,0,.49.93.93,0,0,1-.83,0,.26.26,0,0,1,0-.49A.93.93,0,0,1,70.29,75.53Z"/><path class="cls-1" d="M72.47,74.28a.25.25,0,0,1,0,.48.93.93,0,0,1-.83,0,.25.25,0,0,1,0-.48A.87.87,0,0,1,72.47,74.28Z"/><path class="cls-1" d="M74.65,73a.25.25,0,0,1,0,.48.93.93,0,0,1-.83,0,.25.25,0,0,1,0-.48A.93.93,0,0,1,74.65,73Z"/><path class="cls-1" d="M79,71a.93.93,0,0,1-.83,0c-.23-.14-.23-.35,0-.48S79.23,70.85,79,71Z"/><path class="cls-1" d="M50.7,84.33c.23.14.23.35,0,.48a.87.87,0,0,1-.83,0c-.23-.13-.23-.34,0-.48A.93.93,0,0,1,50.7,84.33Z"/><path class="cls-1" d="M52.88,83.08c.23.13.23.34,0,.48a.93.93,0,0,1-.83,0c-.23-.14-.23-.35,0-.48A.87.87,0,0,1,52.88,83.08Z"/><ellipse class="cls-1" cx="76.41" cy="72" rx="0.59" ry="0.34"/><ellipse class="cls-1" cx="54.64" cy="82.06" rx="0.59" ry="0.34"/><path class="cls-1" d="M57.23,80.56c.23.14.23.35,0,.48a.87.87,0,0,1-.83,0c-.23-.13-.23-.34,0-.48A.93.93,0,0,1,57.23,80.56Z"/><path class="cls-1" d="M59.41,79.31c.23.13.23.34,0,.48a.93.93,0,0,1-.83,0c-.23-.14-.23-.35,0-.48A.87.87,0,0,1,59.41,79.31Z"/><path class="cls-1" d="M61.59,78.05a.25.25,0,0,1,0,.48,1,1,0,0,1-.84,0,.25.25,0,0,1,0-.48A1,1,0,0,1,61.59,78.05Z"/><ellipse class="cls-1" cx="63.35" cy="77.03" rx="0.59" ry="0.34"/><path class="cls-1" d="M65.94,75.53a.26.26,0,0,1,0,.49.93.93,0,0,1-.83,0,.26.26,0,0,1,0-.49A.93.93,0,0,1,65.94,75.53Z"/><ellipse class="cls-1" cx="67.7" cy="74.52" rx="0.59" ry="0.34"/><ellipse class="cls-1" cx="69.88" cy="73.26" rx="0.59" ry="0.34"/><ellipse class="cls-1" cx="72.06" cy="72" rx="0.59" ry="0.34"/><path class="cls-1" d="M74.65,70.51a.25.25,0,0,1,0,.48.93.93,0,0,1-.83,0,.25.25,0,0,1,0-.48A.87.87,0,0,1,74.65,70.51Z"/><path class="cls-1" d="M43.32,85.58a.9.9,0,0,1,.83,0,.25.25,0,0,1,0,.48.93.93,0,0,1-.83,0A.25.25,0,0,1,43.32,85.58Z"/><path class="cls-1" d="M46.33,84.32a.25.25,0,0,1,0,.48.93.93,0,0,1-.83,0,.25.25,0,0,1,0-.48A.93.93,0,0,1,46.33,84.32Z"/><path class="cls-1" d="M48.51,83.06c.23.14.23.35,0,.48a.89.89,0,0,1-.84,0c-.23-.13-.23-.34,0-.48A1,1,0,0,1,48.51,83.06Z"/><path class="cls-1" d="M50.68,81.81c.23.13.23.34,0,.48a.93.93,0,0,1-.83,0c-.23-.14-.23-.35,0-.48A.87.87,0,0,1,50.68,81.81Z"/><path class="cls-1" d="M52.86,80.55a.25.25,0,0,1,0,.48A.93.93,0,0,1,52,81a.25.25,0,0,1,0-.48A.93.93,0,0,1,52.86,80.55Z"/><path class="cls-1" d="M55,79.29a.25.25,0,0,1,0,.48.89.89,0,0,1-.84,0,.25.25,0,0,1,0-.48A1,1,0,0,1,55,79.29Z"/><path class="cls-1" d="M57.21,78c.23.13.23.34,0,.48a.93.93,0,0,1-.83,0c-.23-.14-.23-.35,0-.48A.87.87,0,0,1,57.21,78Z"/><path class="cls-1" d="M59.39,76.78a.25.25,0,0,1,0,.48.93.93,0,0,1-.83,0,.25.25,0,0,1,0-.48A.93.93,0,0,1,59.39,76.78Z"/><path class="cls-1" d="M61.57,75.52a.25.25,0,0,1,0,.48,1,1,0,0,1-.84,0,.25.25,0,0,1,0-.48A1,1,0,0,1,61.57,75.52Z"/><ellipse class="cls-1" cx="63.33" cy="74.5" rx="0.59" ry="0.34"/><ellipse class="cls-1" cx="65.51" cy="73.25" rx="0.59" ry="0.34"/><ellipse class="cls-1" cx="67.68" cy="71.99" rx="0.59" ry="0.34"/><ellipse class="cls-1" cx="69.86" cy="70.73" rx="0.59" ry="0.34"/><ellipse class="cls-1" cx="72.04" cy="69.48" rx="0.59" ry="0.34"/><path class="cls-1" d="M41.14,84.32a.93.93,0,0,1,.83,0,.25.25,0,0,1,0,.48.93.93,0,0,1-.83,0A.25.25,0,0,1,41.14,84.32Z"/><path class="cls-1" d="M44.15,83.06c.23.14.23.35,0,.48a.87.87,0,0,1-.83,0c-.23-.13-.23-.34,0-.48A.93.93,0,0,1,44.15,83.06Z"/><path class="cls-1" d="M46.33,81.81c.23.13.23.34,0,.48a.93.93,0,0,1-.83,0c-.23-.14-.23-.35,0-.48A.87.87,0,0,1,46.33,81.81Z"/><path class="cls-1" d="M48.51,80.55a.25.25,0,0,1,0,.48,1,1,0,0,1-.84,0,.25.25,0,0,1,0-.48A1,1,0,0,1,48.51,80.55Z"/><path class="cls-1" d="M50.68,79.29a.25.25,0,0,1,0,.48.87.87,0,0,1-.83,0,.25.25,0,0,1,0-.48A.93.93,0,0,1,50.68,79.29Z"/><path class="cls-1" d="M52.86,78c.23.13.23.34,0,.48a.93.93,0,0,1-.83,0c-.23-.14-.23-.35,0-.48A.87.87,0,0,1,52.86,78Z"/><path class="cls-1" d="M55,76.78a.25.25,0,0,1,0,.48,1,1,0,0,1-.84,0,.25.25,0,0,1,0-.48A1,1,0,0,1,55,76.78Z"/><path class="cls-1" d="M57.21,75.52a.25.25,0,0,1,0,.48.93.93,0,0,1-.83,0,.25.25,0,0,1,0-.48A.93.93,0,0,1,57.21,75.52Z"/><ellipse class="cls-1" cx="58.97" cy="74.5" rx="0.59" ry="0.34"/><path class="cls-1" d="M61.57,73a.25.25,0,0,1,0,.48,1,1,0,0,1-.84,0,.25.25,0,0,1,0-.48A.89.89,0,0,1,61.57,73Z"/><path class="cls-1" d="M63.74,71.75a.25.25,0,0,1,0,.48.93.93,0,0,1-.83,0,.25.25,0,0,1,0-.48A.93.93,0,0,1,63.74,71.75Z"/><path class="cls-1" d="M65.92,70.49c.23.14.23.35,0,.48a.87.87,0,0,1-.83,0c-.23-.13-.23-.34,0-.48A.93.93,0,0,1,65.92,70.49Z"/><ellipse class="cls-1" cx="67.68" cy="69.48" rx="0.59" ry="0.34"/><path class="cls-1" d="M70.28,68a.25.25,0,0,1,0,.48,1,1,0,0,1-.84,0,.25.25,0,0,1,0-.48A1,1,0,0,1,70.28,68Z"/><path class="cls-1" d="M72.45,67.2a.87.87,0,0,1-.83,0c-.23-.13-.23-.34,0-.48a.93.93,0,0,1,.83,0C72.68,66.86,72.68,67.07,72.45,67.2Z"/><path class="cls-1" d="M39,83.06a.93.93,0,0,1,.83,0c.23.14.24.35,0,.48a.92.92,0,0,1-.84,0A.26.26,0,0,1,39,83.06Z"/><path class="cls-1" d="M42,81.81c.23.13.23.34,0,.48a.93.93,0,0,1-.83,0c-.23-.14-.23-.35,0-.48A.87.87,0,0,1,42,81.81Z"/><ellipse class="cls-1" cx="43.74" cy="80.79" rx="0.59" ry="0.34"/><path class="cls-1" d="M46.33,79.29a.25.25,0,0,1,0,.48.87.87,0,0,1-.83,0,.25.25,0,0,1,0-.48A.93.93,0,0,1,46.33,79.29Z"/><path class="cls-1" d="M48.51,78c.23.13.23.34,0,.48a1,1,0,0,1-.84,0c-.23-.14-.23-.35,0-.48A.89.89,0,0,1,48.51,78Z"/><path class="cls-1" d="M50.68,76.78a.25.25,0,0,1,0,.48.93.93,0,0,1-.83,0,.25.25,0,0,1,0-.48A.93.93,0,0,1,50.68,76.78Z"/><path class="cls-1" d="M52.86,75.52a.25.25,0,0,1,0,.48A.93.93,0,0,1,52,76a.25.25,0,0,1,0-.48A.93.93,0,0,1,52.86,75.52Z"/><path class="cls-1" d="M55,74.26a.26.26,0,0,1,0,.49,1,1,0,0,1-.84,0,.26.26,0,0,1,0-.49A1,1,0,0,1,55,74.26Z"/><path class="cls-1" d="M57.21,73a.25.25,0,0,1,0,.48.93.93,0,0,1-.83,0,.25.25,0,0,1,0-.48A.87.87,0,0,1,57.21,73Z"/><ellipse class="cls-1" cx="58.97" cy="71.99" rx="0.59" ry="0.34"/><ellipse class="cls-1" cx="61.15" cy="70.73" rx="0.59" ry="0.34"/><path class="cls-1" d="M63.74,69.24c.23.13.23.34,0,.48a.93.93,0,0,1-.83,0c-.23-.14-.23-.35,0-.48A.87.87,0,0,1,63.74,69.24Z"/><path class="cls-1" d="M65.92,68a.25.25,0,0,1,0,.48.93.93,0,0,1-.83,0,.25.25,0,0,1,0-.48A.93.93,0,0,1,65.92,68Z"/><ellipse class="cls-1" cx="67.68" cy="66.96" rx="0.59" ry="0.34"/><path class="cls-1" d="M70.28,65.47c.23.13.23.34,0,.48a1,1,0,0,1-.84,0c-.23-.14-.23-.35,0-.48A.89.89,0,0,1,70.28,65.47Z"/><path class="cls-1" d="M72.45,64.21a.25.25,0,0,1,0,.48.93.93,0,0,1-.83,0,.25.25,0,0,1,0-.48A.93.93,0,0,1,72.45,64.21Z"/><path class="cls-1" d="M36.78,81.81a.89.89,0,0,1,.84,0c.23.13.23.34,0,.48a.93.93,0,0,1-.83,0A.26.26,0,0,1,36.78,81.81Z"/><ellipse class="cls-1" cx="39.38" cy="80.79" rx="0.59" ry="0.34"/><path class="cls-1" d="M42,79.29a.25.25,0,0,1,0,.48.87.87,0,0,1-.83,0,.25.25,0,0,1,0-.48A.93.93,0,0,1,42,79.29Z"/><path class="cls-1" d="M74.63,63c.23.14.23.35,0,.48a.87.87,0,0,1-.83,0c-.23-.13-.23-.34,0-.48A.93.93,0,0,1,74.63,63Z"/><path class="cls-1" d="M44.15,78c.23.13.23.34,0,.48a.93.93,0,0,1-.83,0c-.23-.14-.23-.35,0-.48A.87.87,0,0,1,44.15,78Z"/><path class="cls-1" d="M46.33,76.78a.25.25,0,0,1,0,.48.93.93,0,0,1-.83,0,.25.25,0,0,1,0-.48A.93.93,0,0,1,46.33,76.78Z"/><path class="cls-1" d="M48.51,75.52a.25.25,0,0,1,0,.48,1,1,0,0,1-.84,0,.25.25,0,0,1,0-.48A1,1,0,0,1,48.51,75.52Z"/><ellipse class="cls-1" cx="50.27" cy="74.5" rx="0.59" ry="0.34"/><ellipse class="cls-1" cx="52.44" cy="73.25" rx="0.59" ry="0.34"/><path class="cls-1" d="M55,71.75a.25.25,0,0,1,0,.48,1,1,0,0,1-.84,0,.25.25,0,0,1,0-.48A1,1,0,0,1,55,71.75Z"/><path class="cls-1" d="M57.21,70.49c.23.14.23.35,0,.48a.87.87,0,0,1-.83,0c-.23-.13-.23-.34,0-.48A.93.93,0,0,1,57.21,70.49Z"/><path class="cls-1" d="M59.39,69.24c.23.13.23.34,0,.48a.93.93,0,0,1-.83,0c-.23-.14-.23-.35,0-.48A.87.87,0,0,1,59.39,69.24Z"/><ellipse class="cls-1" cx="61.15" cy="68.22" rx="0.59" ry="0.34"/><path class="cls-1" d="M63.74,66.72c.23.14.23.35,0,.48a.87.87,0,0,1-.83,0c-.23-.13-.23-.34,0-.48A.93.93,0,0,1,63.74,66.72Z"/><path class="cls-1" d="M65.92,65.47c.23.13.23.34,0,.48a.93.93,0,0,1-.83,0c-.23-.14-.23-.35,0-.48A.87.87,0,0,1,65.92,65.47Z"/><ellipse class="cls-1" cx="67.68" cy="64.45" rx="0.59" ry="0.34"/><path class="cls-1" d="M70.28,63c.23.14.23.35,0,.48a.89.89,0,0,1-.84,0c-.23-.13-.23-.34,0-.48A1,1,0,0,1,70.28,63Z"/><path class="cls-1" d="M34.61,80.55a.93.93,0,0,1,.83,0,.25.25,0,0,1,0,.48.93.93,0,0,1-.83,0A.25.25,0,0,1,34.61,80.55Z"/><path class="cls-1" d="M37.62,79.29a.25.25,0,0,1,0,.48.87.87,0,0,1-.83,0,.25.25,0,0,1,0-.48A.93.93,0,0,1,37.62,79.29Z"/><path class="cls-1" d="M39.8,78c.23.13.23.34,0,.48a1,1,0,0,1-.84,0c-.23-.14-.23-.35,0-.48A.89.89,0,0,1,39.8,78Z"/><path class="cls-1" d="M72.45,61.7c.23.13.23.34,0,.48a.93.93,0,0,1-.83,0c-.23-.14-.23-.35,0-.48A.87.87,0,0,1,72.45,61.7Z"/><path class="cls-1" d="M42,76.78a.25.25,0,0,1,0,.48.93.93,0,0,1-.83,0,.25.25,0,0,1,0-.48A.93.93,0,0,1,42,76.78Z"/><path class="cls-1" d="M44.15,75.52a.25.25,0,0,1,0,.48.93.93,0,0,1-.83,0,.25.25,0,0,1,0-.48A.93.93,0,0,1,44.15,75.52Z"/><path class="cls-1" d="M46.33,74.26a.26.26,0,0,1,0,.49.93.93,0,0,1-.83,0,.26.26,0,0,1,0-.49A.93.93,0,0,1,46.33,74.26Z"/><path class="cls-1" d="M48.51,73a.25.25,0,0,1,0,.48,1,1,0,0,1-.84,0,.25.25,0,0,1,0-.48A.89.89,0,0,1,48.51,73Z"/><path class="cls-1" d="M50.68,71.75a.25.25,0,0,1,0,.48.93.93,0,0,1-.83,0,.25.25,0,0,1,0-.48A.93.93,0,0,1,50.68,71.75Z"/><ellipse class="cls-1" cx="52.44" cy="70.73" rx="0.59" ry="0.34"/><path class="cls-1" d="M55,69.24c.23.13.23.34,0,.48a1,1,0,0,1-.84,0c-.23-.14-.23-.35,0-.48A.89.89,0,0,1,55,69.24Z"/><path class="cls-1" d="M57.21,68a.25.25,0,0,1,0,.48.93.93,0,0,1-.83,0,.25.25,0,0,1,0-.48A.93.93,0,0,1,57.21,68Z"/><ellipse class="cls-1" cx="58.97" cy="66.96" rx="0.59" ry="0.34"/><ellipse class="cls-1" cx="61.15" cy="65.71" rx="0.59" ry="0.34"/><path class="cls-1" d="M63.74,64.21a.25.25,0,0,1,0,.48.93.93,0,0,1-.83,0,.25.25,0,0,1,0-.48A.93.93,0,0,1,63.74,64.21Z"/><path class="cls-1" d="M65.92,63c.23.14.23.35,0,.48a.87.87,0,0,1-.83,0c-.23-.13-.23-.34,0-.48A.93.93,0,0,1,65.92,63Z"/><path class="cls-1" d="M68.1,61.7c.23.13.23.34,0,.48a.93.93,0,0,1-.83,0c-.23-.14-.23-.35,0-.48A.87.87,0,0,1,68.1,61.7Z"/><path class="cls-1" d="M32.43,79.29a.93.93,0,0,1,.83,0c.23.14.23.35,0,.48a.87.87,0,0,1-.83,0C32.2,79.64,32.2,79.43,32.43,79.29Z"/><path class="cls-1" d="M35.44,78c.23.13.23.34,0,.48a.93.93,0,0,1-.83,0c-.23-.14-.23-.35,0-.48A.87.87,0,0,1,35.44,78Z"/><ellipse class="cls-1" cx="69.86" cy="60.68" rx="0.59" ry="0.34"/><path class="cls-1" d="M37.62,76.78a.25.25,0,0,1,0,.48.93.93,0,0,1-.83,0,.25.25,0,0,1,0-.48A.93.93,0,0,1,37.62,76.78Z"/><path class="cls-1" d="M39.8,75.52a.25.25,0,0,1,0,.48A1,1,0,0,1,39,76a.25.25,0,0,1,0-.48A1,1,0,0,1,39.8,75.52Z"/><ellipse class="cls-1" cx="41.56" cy="74.5" rx="0.59" ry="0.34"/><path class="cls-1" d="M44.15,73a.25.25,0,0,1,0,.48.93.93,0,0,1-.83,0,.25.25,0,0,1,0-.48A.87.87,0,0,1,44.15,73Z"/><path class="cls-1" d="M46.33,71.75a.25.25,0,0,1,0,.48.93.93,0,0,1-.83,0,.25.25,0,0,1,0-.48A.93.93,0,0,1,46.33,71.75Z"/><path class="cls-1" d="M48.51,70.49c.23.14.23.35,0,.48a.89.89,0,0,1-.84,0c-.23-.13-.23-.34,0-.48A1,1,0,0,1,48.51,70.49Z"/><path class="cls-1" d="M50.68,69.24c.23.13.23.34,0,.48a.93.93,0,0,1-.83,0c-.23-.14-.23-.35,0-.48A.87.87,0,0,1,50.68,69.24Z"/><path class="cls-1" d="M52.86,68a.25.25,0,0,1,0,.48.93.93,0,0,1-.83,0A.25.25,0,0,1,52,68,.93.93,0,0,1,52.86,68Z"/><path class="cls-1" d="M55,66.72c.23.14.23.35,0,.48a.89.89,0,0,1-.84,0c-.23-.13-.23-.34,0-.48A1,1,0,0,1,55,66.72Z"/><path class="cls-1" d="M57.21,65.47c.23.13.23.34,0,.48a.93.93,0,0,1-.83,0c-.23-.14-.23-.35,0-.48A.87.87,0,0,1,57.21,65.47Z"/><path class="cls-1" d="M59.39,64.21a.25.25,0,0,1,0,.48.93.93,0,0,1-.83,0,.25.25,0,0,1,0-.48A.93.93,0,0,1,59.39,64.21Z"/><ellipse class="cls-1" cx="61.15" cy="63.19" rx="0.59" ry="0.34"/><path class="cls-1" d="M63.74,61.7c.23.13.23.34,0,.48a.93.93,0,0,1-.83,0c-.23-.14-.23-.35,0-.48A.87.87,0,0,1,63.74,61.7Z"/><path class="cls-1" d="M65.92,60.44a.25.25,0,0,1,0,.48.93.93,0,0,1-.83,0,.25.25,0,0,1,0-.48A.93.93,0,0,1,65.92,60.44Z"/><ellipse class="cls-1" cx="67.68" cy="59.42" rx="0.59" ry="0.34"/><path class="cls-1" d="M33.27,76.78a.25.25,0,0,1,0,.48,1,1,0,0,1-.84,0,.25.25,0,0,1,0-.48A1,1,0,0,1,33.27,76.78Z"/><path class="cls-1" d="M30.25,78a.89.89,0,0,1,.84,0c.23.13.23.34,0,.48a.93.93,0,0,1-.83,0C30,78.39,30,78.17,30.25,78Z"/><ellipse class="cls-1" cx="35.03" cy="75.76" rx="0.59" ry="0.34"/><path class="cls-1" d="M37.62,74.26a.26.26,0,0,1,0,.49.93.93,0,0,1-.83,0,.26.26,0,0,1,0-.49A.93.93,0,0,1,37.62,74.26Z"/><path class="cls-1" d="M39.8,73a.25.25,0,0,1,0,.48,1,1,0,0,1-.84,0A.25.25,0,0,1,39,73,.89.89,0,0,1,39.8,73Z"/><path class="cls-1" d="M42,71.75a.25.25,0,0,1,0,.48.93.93,0,0,1-.83,0,.25.25,0,0,1,0-.48A.93.93,0,0,1,42,71.75Z"/><path class="cls-1" d="M44.15,70.49c.23.14.23.35,0,.48a.87.87,0,0,1-.83,0c-.23-.13-.23-.34,0-.48A.93.93,0,0,1,44.15,70.49Z"/><path class="cls-1" d="M46.33,69.24c.23.13.23.34,0,.48a.93.93,0,0,1-.83,0c-.23-.14-.23-.35,0-.48A.87.87,0,0,1,46.33,69.24Z"/><ellipse class="cls-1" cx="48.09" cy="68.22" rx="0.59" ry="0.34"/><path class="cls-1" d="M50.68,66.72c.23.14.23.35,0,.48a.87.87,0,0,1-.83,0c-.23-.13-.23-.34,0-.48A.93.93,0,0,1,50.68,66.72Z"/><path class="cls-1" d="M52.86,65.47c.23.13.23.34,0,.48A.93.93,0,0,1,52,66c-.23-.14-.23-.35,0-.48A.87.87,0,0,1,52.86,65.47Z"/><path class="cls-1" d="M55,64.21a.25.25,0,0,1,0,.48,1,1,0,0,1-.84,0,.25.25,0,0,1,0-.48A1,1,0,0,1,55,64.21Z"/><ellipse class="cls-1" cx="56.8" cy="63.19" rx="0.59" ry="0.34"/><path class="cls-1" d="M59.39,61.7c.23.13.23.34,0,.48a.93.93,0,0,1-.83,0c-.23-.14-.23-.35,0-.48A.87.87,0,0,1,59.39,61.7Z"/><path class="cls-1" d="M61.57,60.44a.25.25,0,0,1,0,.48.93.93,0,0,1-.83,0,.25.25,0,0,1,0-.48A.93.93,0,0,1,61.57,60.44Z"/><path class="cls-1" d="M63.74,59.18a.25.25,0,0,1,0,.48.87.87,0,0,1-.83,0,.25.25,0,0,1,0-.48A.93.93,0,0,1,63.74,59.18Z"/><ellipse class="cls-1" cx="65.51" cy="58.17" rx="0.59" ry="0.34"/><path class="cls-1" d="M28.08,76.78a.93.93,0,0,1,.83,0,.25.25,0,0,1,0,.48.93.93,0,0,1-.83,0A.25.25,0,0,1,28.08,76.78Z"/><path class="cls-1" d="M31.09,75.52a.25.25,0,0,1,0,.48.93.93,0,0,1-.83,0,.25.25,0,0,1,0-.48A.93.93,0,0,1,31.09,75.52Z"/><path class="cls-1" d="M33.27,74.26a.26.26,0,0,1,0,.49,1,1,0,0,1-.84,0,.26.26,0,0,1,0-.49A1,1,0,0,1,33.27,74.26Z"/><path class="cls-1" d="M35.44,73a.25.25,0,0,1,0,.48.93.93,0,0,1-.83,0,.25.25,0,0,1,0-.48A.87.87,0,0,1,35.44,73Z"/><path class="cls-1" d="M37.62,71.75a.25.25,0,0,1,0,.48.93.93,0,0,1-.83,0,.25.25,0,0,1,0-.48A.93.93,0,0,1,37.62,71.75Z"/><path class="cls-1" d="M39.8,70.49c.23.14.23.35,0,.48A.89.89,0,0,1,39,71c-.23-.13-.23-.34,0-.48A1,1,0,0,1,39.8,70.49Z"/><path class="cls-1" d="M42,69.24c.23.13.23.34,0,.48a.93.93,0,0,1-.83,0c-.23-.14-.23-.35,0-.48A.87.87,0,0,1,42,69.24Z"/><path class="cls-1" d="M44.15,68a.25.25,0,0,1,0,.48.93.93,0,0,1-.83,0,.25.25,0,0,1,0-.48A.93.93,0,0,1,44.15,68Z"/><path class="cls-1" d="M46.33,66.72c.23.14.23.35,0,.48a.87.87,0,0,1-.83,0c-.23-.13-.23-.34,0-.48A.93.93,0,0,1,46.33,66.72Z"/><path class="cls-1" d="M48.51,65.47c.23.13.23.34,0,.48a1,1,0,0,1-.84,0c-.23-.14-.23-.35,0-.48A.89.89,0,0,1,48.51,65.47Z"/><path class="cls-1" d="M50.68,64.21a.25.25,0,0,1,0,.48.93.93,0,0,1-.83,0,.25.25,0,0,1,0-.48A.93.93,0,0,1,50.68,64.21Z"/><path class="cls-1" d="M52.86,63c.23.14.23.35,0,.48a.87.87,0,0,1-.83,0c-.23-.13-.23-.34,0-.48A.93.93,0,0,1,52.86,63Z"/><path class="cls-1" d="M55,61.7c.23.13.23.34,0,.48a1,1,0,0,1-.84,0c-.23-.14-.23-.35,0-.48A.89.89,0,0,1,55,61.7Z"/><ellipse class="cls-1" cx="56.8" cy="60.68" rx="0.59" ry="0.34"/><ellipse class="cls-1" cx="58.97" cy="59.42" rx="0.59" ry="0.34"/><path class="cls-1" d="M61.57,57.92a.26.26,0,0,1,0,.49.93.93,0,0,1-.83,0,.26.26,0,0,1,0-.49A.93.93,0,0,1,61.57,57.92Z"/><path class="cls-1" d="M63.74,56.67a.25.25,0,0,1,0,.48.93.93,0,0,1-.83,0,.25.25,0,0,1,0-.48A.93.93,0,0,1,63.74,56.67Z"/><path class="cls-1" d="M25.88,75.51a.93.93,0,0,1,.83,0,.26.26,0,0,1,0,.48,1,1,0,0,1-.84,0A.25.25,0,0,1,25.88,75.51Z"/><ellipse class="cls-1" cx="28.48" cy="74.49" rx="0.59" ry="0.34"/><path class="cls-1" d="M31.07,73a.26.26,0,0,1,0,.49.93.93,0,0,1-.83,0,.26.26,0,0,1,0-.49A.93.93,0,0,1,31.07,73Z"/><path class="cls-1" d="M33.25,71.74a.25.25,0,0,1,0,.48,1,1,0,0,1-.84,0,.25.25,0,0,1,0-.48A.89.89,0,0,1,33.25,71.74Z"/><path class="cls-1" d="M35.42,70.48a.25.25,0,0,1,0,.48.93.93,0,0,1-.83,0,.25.25,0,0,1,0-.48A.93.93,0,0,1,35.42,70.48Z"/><ellipse class="cls-1" cx="37.19" cy="69.46" rx="0.59" ry="0.34"/><ellipse class="cls-1" cx="39.36" cy="68.21" rx="0.59" ry="0.34"/><path class="cls-1" d="M42,66.71a.25.25,0,0,1,0,.48,1,1,0,0,1-.84,0,.25.25,0,0,1,0-.48A1,1,0,0,1,42,66.71Z"/><path class="cls-1" d="M44.13,65.45c.23.14.23.35,0,.48a.87.87,0,0,1-.83,0c-.23-.13-.23-.34,0-.48A.93.93,0,0,1,44.13,65.45Z"/><path class="cls-1" d="M46.31,64.2c.23.13.23.34,0,.48a.93.93,0,0,1-.83,0c-.23-.14-.23-.35,0-.48A.87.87,0,0,1,46.31,64.2Z"/><path class="cls-1" d="M48.49,62.94a.25.25,0,0,1,0,.48,1,1,0,0,1-.84,0,.25.25,0,0,1,0-.48A1,1,0,0,1,48.49,62.94Z"/><ellipse class="cls-1" cx="50.25" cy="61.92" rx="0.59" ry="0.34"/><path class="cls-1" d="M52.84,60.43c.23.13.23.34,0,.48a.93.93,0,0,1-.83,0c-.23-.14-.23-.35,0-.48A.87.87,0,0,1,52.84,60.43Z"/><path class="cls-1" d="M55,59.17a.25.25,0,0,1,0,.48.93.93,0,0,1-.83,0,.25.25,0,0,1,0-.48A.93.93,0,0,1,55,59.17Z"/><ellipse class="cls-1" cx="56.78" cy="58.15" rx="0.59" ry="0.34"/><ellipse class="cls-1" cx="58.96" cy="56.89" rx="0.59" ry="0.34"/><path class="cls-1" d="M61.55,55.4a.25.25,0,0,1,0,.48.93.93,0,0,1-.83,0,.25.25,0,0,1,0-.48A.87.87,0,0,1,61.55,55.4Z"/><path class="cls-1" d="M23.7,74.25a1,1,0,0,1,.84,0,.25.25,0,0,1,0,.48.87.87,0,0,1-.83,0C23.48,74.6,23.47,74.39,23.7,74.25Z"/><path class="cls-1" d="M26.72,73a.26.26,0,0,1,0,.49,1,1,0,0,1-.84,0,.26.26,0,0,1,0-.49A1,1,0,0,1,26.72,73Z"/><ellipse class="cls-1" cx="28.48" cy="71.98" rx="0.59" ry="0.34"/><path class="cls-1" d="M31.07,70.48a.25.25,0,0,1,0,.48.93.93,0,0,1-.83,0,.25.25,0,0,1,0-.48A.93.93,0,0,1,31.07,70.48Z"/><path class="cls-1" d="M33.25,69.22c.23.14.23.35,0,.48a.89.89,0,0,1-.84,0c-.23-.13-.23-.34,0-.48A1,1,0,0,1,33.25,69.22Z"/><path class="cls-1" d="M35.42,68c.23.13.23.34,0,.48a.93.93,0,0,1-.83,0c-.23-.14-.23-.35,0-.48A.87.87,0,0,1,35.42,68Z"/><ellipse class="cls-1" cx="37.19" cy="66.95" rx="0.59" ry="0.34"/><path class="cls-1" d="M39.78,65.45c.23.14.23.35,0,.48a.87.87,0,0,1-.83,0c-.23-.13-.23-.34,0-.48A.93.93,0,0,1,39.78,65.45Z"/><path class="cls-1" d="M42,64.2c.23.13.23.34,0,.48a1,1,0,0,1-.84,0c-.23-.14-.23-.35,0-.48A.89.89,0,0,1,42,64.2Z"/><path class="cls-1" d="M44.13,62.94a.25.25,0,0,1,0,.48.93.93,0,0,1-.83,0,.25.25,0,0,1,0-.48A.93.93,0,0,1,44.13,62.94Z"/><path class="cls-1" d="M46.31,61.68c.23.14.23.35,0,.48a.87.87,0,0,1-.83,0c-.23-.13-.23-.34,0-.48A.93.93,0,0,1,46.31,61.68Z"/><path class="cls-1" d="M48.49,60.43c.23.13.23.34,0,.48a1,1,0,0,1-.84,0c-.23-.14-.23-.35,0-.48A.89.89,0,0,1,48.49,60.43Z"/><ellipse class="cls-1" cx="50.25" cy="59.41" rx="0.59" ry="0.34"/><path class="cls-1" d="M52.84,57.91a.25.25,0,0,1,0,.48.87.87,0,0,1-.83,0,.25.25,0,0,1,0-.48A.93.93,0,0,1,52.84,57.91Z"/><path class="cls-1" d="M55,56.65a.26.26,0,0,1,0,.49.93.93,0,0,1-.83,0,.26.26,0,0,1,0-.49A.93.93,0,0,1,55,56.65Z"/><path class="cls-1" d="M56.36,55.4a.87.87,0,0,1,.83,0,.25.25,0,0,1,0,.48.93.93,0,0,1-.83,0,.25.25,0,0,1,0-.48Z"/><path class="cls-1" d="M21.53,73a.87.87,0,0,1,.83,0c.23.13.23.34,0,.48a.93.93,0,0,1-.83,0C21.3,73.34,21.3,73.13,21.53,73Z"/><path class="cls-1" d="M24.54,71.74a.25.25,0,0,1,0,.48.93.93,0,0,1-.83,0,.25.25,0,0,1,0-.48A.87.87,0,0,1,24.54,71.74Z"/><path class="cls-1" d="M26.72,70.48a.25.25,0,0,1,0,.48,1,1,0,0,1-.84,0,.25.25,0,0,1,0-.48A1,1,0,0,1,26.72,70.48Z"/><path class="cls-1" d="M28.89,69.22c.23.14.23.35,0,.48a.87.87,0,0,1-.83,0c-.23-.13-.23-.34,0-.48A.93.93,0,0,1,28.89,69.22Z"/><path class="cls-1" d="M31.07,68c.23.13.23.34,0,.48a.93.93,0,0,1-.83,0c-.23-.14-.23-.35,0-.48A.87.87,0,0,1,31.07,68Z"/><path class="cls-1" d="M33.25,66.71a.25.25,0,0,1,0,.48,1,1,0,0,1-.84,0,.25.25,0,0,1,0-.48A1,1,0,0,1,33.25,66.71Z"/><ellipse class="cls-1" cx="35.01" cy="65.69" rx="0.59" ry="0.34"/><path class="cls-1" d="M37.6,64.2c.23.13.23.34,0,.48a.93.93,0,0,1-.83,0c-.23-.14-.23-.35,0-.48A.87.87,0,0,1,37.6,64.2Z"/><path class="cls-1" d="M39.78,62.94a.25.25,0,0,1,0,.48.93.93,0,0,1-.83,0,.25.25,0,0,1,0-.48A.93.93,0,0,1,39.78,62.94Z"/><path class="cls-1" d="M42,61.68c.23.14.23.35,0,.48a.89.89,0,0,1-.84,0c-.23-.13-.23-.34,0-.48A1,1,0,0,1,42,61.68Z"/><path class="cls-1" d="M44.13,60.43c.23.13.23.34,0,.48a.93.93,0,0,1-.83,0c-.23-.14-.23-.35,0-.48A.87.87,0,0,1,44.13,60.43Z"/><path class="cls-1" d="M46.31,59.17a.25.25,0,0,1,0,.48.93.93,0,0,1-.83,0,.25.25,0,0,1,0-.48A.93.93,0,0,1,46.31,59.17Z"/><path class="cls-1" d="M48.49,57.91a.25.25,0,0,1,0,.48.89.89,0,0,1-.84,0,.25.25,0,0,1,0-.48A1,1,0,0,1,48.49,57.91Z"/><path class="cls-1" d="M50.66,56.65a.26.26,0,0,1,0,.49.93.93,0,0,1-.83,0,.26.26,0,0,1,0-.49A.93.93,0,0,1,50.66,56.65Z"/><path class="cls-1" d="M52.84,55.4a.25.25,0,0,1,0,.48.93.93,0,0,1-.83,0,.25.25,0,0,1,0-.48A.87.87,0,0,1,52.84,55.4Z"/><path class="cls-1" d="M21.53,70.48a.93.93,0,0,1,.83,0,.25.25,0,0,1,0,.48.93.93,0,0,1-.83,0A.25.25,0,0,1,21.53,70.48Z"/><path class="cls-1" d="M24.54,69.22c.23.14.23.35,0,.48a.87.87,0,0,1-.83,0c-.23-.13-.23-.34,0-.48A.93.93,0,0,1,24.54,69.22Z"/><path class="cls-1" d="M26.72,68c.23.13.23.34,0,.48a1,1,0,0,1-.84,0c-.23-.14-.23-.35,0-.48A.89.89,0,0,1,26.72,68Z"/><path class="cls-1" d="M28.89,66.71a.25.25,0,0,1,0,.48.93.93,0,0,1-.83,0,.25.25,0,0,1,0-.48A.93.93,0,0,1,28.89,66.71Z"/><path class="cls-1" d="M31.07,65.45c.23.14.23.35,0,.48a.87.87,0,0,1-.83,0c-.23-.13-.23-.34,0-.48A.93.93,0,0,1,31.07,65.45Z"/><path class="cls-1" d="M33.25,64.2c.23.13.23.34,0,.48a1,1,0,0,1-.84,0c-.23-.14-.23-.35,0-.48A.89.89,0,0,1,33.25,64.2Z"/><ellipse class="cls-1" cx="35.01" cy="63.18" rx="0.59" ry="0.34"/><ellipse class="cls-1" cx="37.19" cy="61.92" rx="0.59" ry="0.34"/><path class="cls-1" d="M39.78,60.43c.23.13.23.34,0,.48a.93.93,0,0,1-.83,0c-.23-.14-.23-.35,0-.48A.87.87,0,0,1,39.78,60.43Z"/><path class="cls-1" d="M42,59.17a.25.25,0,0,1,0,.48,1,1,0,0,1-.84,0,.25.25,0,0,1,0-.48A1,1,0,0,1,42,59.17Z"/><path class="cls-1" d="M44.13,57.91a.25.25,0,0,1,0,.48.87.87,0,0,1-.83,0,.25.25,0,0,1,0-.48A.93.93,0,0,1,44.13,57.91Z"/><path class="cls-1" d="M46.31,56.65a.26.26,0,0,1,0,.49.93.93,0,0,1-.83,0,.26.26,0,0,1,0-.49A.93.93,0,0,1,46.31,56.65Z"/><path class="cls-1" d="M48.49,55.4a.25.25,0,0,1,0,.48,1,1,0,0,1-.84,0,.25.25,0,0,1,0-.48,1,1,0,0,1,.84,0Z"/><ellipse class="cls-1" cx="117.9" cy="90.68" rx="0.59" ry="0.34"/><path class="cls-1" d="M120.49,89.19c.23.13.23.34,0,.48a.93.93,0,0,1-.83,0c-.23-.14-.23-.35,0-.48A.87.87,0,0,1,120.49,89.19Z"/><path class="cls-1" d="M114,90.44c.23.14.23.35,0,.48a.87.87,0,0,1-.83,0c-.23-.13-.23-.34,0-.48A.93.93,0,0,1,114,90.44Z"/><ellipse class="cls-1" cx="115.72" cy="89.43" rx="0.59" ry="0.34"/><ellipse class="cls-1" cx="117.9" cy="88.17" rx="0.59" ry="0.34"/><path class="cls-1" d="M109.59,90.43a.26.26,0,0,1,0,.48,1,1,0,0,1-.84,0,.25.25,0,0,1,0-.48A1,1,0,0,1,109.59,90.43Z"/><ellipse class="cls-1" cx="111.35" cy="89.41" rx="0.59" ry="0.34"/><ellipse class="cls-1" cx="113.52" cy="88.16" rx="0.59" ry="0.34"/><ellipse class="cls-1" cx="115.7" cy="86.9" rx="0.59" ry="0.34"/><ellipse class="cls-1" cx="104.81" cy="90.67" rx="0.59" ry="0.34"/><path class="cls-1" d="M107.41,89.17c.23.14.23.35,0,.48a.87.87,0,0,1-.83,0c-.23-.13-.23-.34,0-.48A.93.93,0,0,1,107.41,89.17Z"/><ellipse class="cls-1" cx="109.17" cy="88.16" rx="0.59" ry="0.34"/><path class="cls-1" d="M111.76,86.66a.25.25,0,0,1,0,.48.93.93,0,0,1-.83,0,.25.25,0,0,1,0-.48A.93.93,0,0,1,111.76,86.66Z"/><path class="cls-1" d="M113.94,85.4a.25.25,0,0,1,0,.48.87.87,0,0,1-.83,0,.25.25,0,0,1,0-.48A.93.93,0,0,1,113.94,85.4Z"/><ellipse class="cls-1" cx="100.46" cy="90.67" rx="0.59" ry="0.34"/><path class="cls-1" d="M103.05,89.17c.23.14.23.35,0,.48a.87.87,0,0,1-.83,0c-.23-.13-.23-.34,0-.48A.93.93,0,0,1,103.05,89.17Z"/><path class="cls-1" d="M105.23,87.92c.23.13.23.34,0,.48a.93.93,0,0,1-.83,0c-.23-.14-.23-.35,0-.48A.87.87,0,0,1,105.23,87.92Z"/><ellipse class="cls-1" cx="109.17" cy="85.64" rx="0.59" ry="0.34"/><path class="cls-1" d="M111.76,84.14a.26.26,0,0,1,0,.49.93.93,0,0,1-.83,0,.26.26,0,0,1,0-.49A.93.93,0,0,1,111.76,84.14Z"/><path class="cls-1" d="M98.7,89.17c.23.14.23.35,0,.48a.87.87,0,0,1-.83,0c-.23-.13-.23-.34,0-.48A.93.93,0,0,1,98.7,89.17Z"/><ellipse class="cls-1" cx="100.46" cy="88.16" rx="0.59" ry="0.34"/><ellipse class="cls-1" cx="102.64" cy="86.9" rx="0.59" ry="0.34"/><ellipse class="cls-1" cx="104.81" cy="85.64" rx="0.59" ry="0.34"/><ellipse class="cls-1" cx="106.99" cy="84.39" rx="0.59" ry="0.34"/><ellipse class="cls-1" cx="109.17" cy="83.13" rx="0.59" ry="0.34"/><path class="cls-1" d="M94.35,89.17c.23.14.23.35,0,.48a.89.89,0,0,1-.84,0c-.23-.13-.23-.34,0-.48A1,1,0,0,1,94.35,89.17Z"/><path class="cls-1" d="M96.52,87.92c.23.13.23.34,0,.48a.93.93,0,0,1-.83,0c-.23-.14-.23-.35,0-.48A.87.87,0,0,1,96.52,87.92Z"/><path class="cls-1" d="M98.7,86.66a.25.25,0,0,1,0,.48.93.93,0,0,1-.83,0,.25.25,0,0,1,0-.48A.93.93,0,0,1,98.7,86.66Z"/><path class="cls-1" d="M100.88,85.4a.25.25,0,0,1,0,.48.89.89,0,0,1-.84,0,.25.25,0,0,1,0-.48A1,1,0,0,1,100.88,85.4Z"/><ellipse class="cls-1" cx="102.64" cy="84.39" rx="0.59" ry="0.34"/><path class="cls-1" d="M105.23,82.89a.25.25,0,0,1,0,.48.93.93,0,0,1-.83,0,.25.25,0,0,1,0-.48A.93.93,0,0,1,105.23,82.89Z"/><ellipse class="cls-1" cx="106.99" cy="81.87" rx="0.59" ry="0.34"/><path class="cls-1" d="M90,89.17c.23.14.23.35,0,.48a.87.87,0,0,1-.83,0c-.23-.13-.23-.34,0-.48A.93.93,0,0,1,90,89.17Z"/><ellipse class="cls-1" cx="91.75" cy="88.16" rx="0.59" ry="0.34"/><path class="cls-1" d="M94.35,86.66a.25.25,0,0,1,0,.48,1,1,0,0,1-.84,0,.25.25,0,0,1,0-.48A1,1,0,0,1,94.35,86.66Z"/><ellipse class="cls-1" cx="96.11" cy="85.64" rx="0.59" ry="0.34"/><path class="cls-1" d="M98.7,84.15c.23.13.23.34,0,.48a.93.93,0,0,1-.83,0c-.23-.14-.23-.35,0-.48A.87.87,0,0,1,98.7,84.15Z"/><path class="cls-1" d="M100.88,82.89a.25.25,0,0,1,0,.48,1,1,0,0,1-.84,0,.25.25,0,0,1,0-.48A1,1,0,0,1,100.88,82.89Z"/><ellipse class="cls-1" cx="102.64" cy="81.87" rx="0.59" ry="0.34"/><path class="cls-1" d="M105.23,80.37a.26.26,0,0,1,0,.49.93.93,0,0,1-.83,0,.26.26,0,0,1,0-.49A.93.93,0,0,1,105.23,80.37Z"/><ellipse class="cls-1" cx="87.4" cy="88.16" rx="0.59" ry="0.34"/><ellipse class="cls-1" cx="89.58" cy="86.9" rx="0.59" ry="0.34"/><ellipse class="cls-1" cx="91.75" cy="85.64" rx="0.59" ry="0.34"/><path class="cls-1" d="M94.35,84.15c.23.13.23.34,0,.48a1,1,0,0,1-.84,0c-.23-.14-.23-.35,0-.48A.89.89,0,0,1,94.35,84.15Z"/><path class="cls-1" d="M96.52,82.89a.25.25,0,0,1,0,.48.93.93,0,0,1-.83,0,.25.25,0,0,1,0-.48A.93.93,0,0,1,96.52,82.89Z"/><ellipse class="cls-1" cx="98.28" cy="81.87" rx="0.59" ry="0.34"/><ellipse class="cls-1" cx="100.46" cy="80.61" rx="0.59" ry="0.34"/><ellipse class="cls-1" cx="102.64" cy="79.36" rx="0.59" ry="0.34"/><path class="cls-1" d="M83.46,87.92c.23.13.23.34,0,.48a.93.93,0,0,1-.83,0c-.23-.14-.23-.35,0-.48A.87.87,0,0,1,83.46,87.92Z"/><ellipse class="cls-1" cx="85.22" cy="86.9" rx="0.59" ry="0.34"/><ellipse class="cls-1" cx="87.4" cy="85.64" rx="0.59" ry="0.34"/><ellipse class="cls-1" cx="89.58" cy="84.39" rx="0.59" ry="0.34"/><path class="cls-1" d="M92.17,82.89a.25.25,0,0,1,0,.48.93.93,0,0,1-.83,0,.25.25,0,0,1,0-.48A.93.93,0,0,1,92.17,82.89Z"/><ellipse class="cls-1" cx="93.93" cy="81.87" rx="0.59" ry="0.34"/><path class="cls-1" d="M96.52,80.37a.26.26,0,0,1,0,.49.93.93,0,0,1-.83,0,.26.26,0,0,1,0-.49A.93.93,0,0,1,96.52,80.37Z"/><path class="cls-1" d="M98.7,79.12a.25.25,0,0,1,0,.48.93.93,0,0,1-.83,0,.25.25,0,0,1,0-.48A.87.87,0,0,1,98.7,79.12Z"/><path class="cls-1" d="M100.88,77.86a.25.25,0,0,1,0,.48,1,1,0,0,1-.84,0,.25.25,0,0,1,0-.48A1,1,0,0,1,100.88,77.86Z"/><path class="cls-1" d="M79.09,87.9c.23.14.23.35,0,.48a.87.87,0,0,1-.83,0c-.23-.13-.23-.34,0-.48A.93.93,0,0,1,79.09,87.9Z"/><path class="cls-1" d="M81.26,86.65c.23.13.23.34,0,.48a.93.93,0,0,1-.83,0c-.23-.14-.23-.35,0-.48A.87.87,0,0,1,81.26,86.65Z"/><path class="cls-1" d="M83.44,85.39a.25.25,0,0,1,0,.48.93.93,0,0,1-.83,0,.25.25,0,0,1,0-.48A.93.93,0,0,1,83.44,85.39Z"/><ellipse class="cls-1" cx="85.2" cy="84.37" rx="0.59" ry="0.34"/><path class="cls-1" d="M87.8,82.87a.26.26,0,0,1,0,.49,1,1,0,0,1-.84,0,.26.26,0,0,1,0-.49A1,1,0,0,1,87.8,82.87Z"/><ellipse class="cls-1" cx="89.56" cy="81.86" rx="0.59" ry="0.34"/><ellipse class="cls-1" cx="91.73" cy="80.6" rx="0.59" ry="0.34"/><ellipse class="cls-1" cx="93.91" cy="79.34" rx="0.59" ry="0.34"/><path class="cls-1" d="M96.5,77.85a.25.25,0,0,1,0,.48.93.93,0,0,1-.83,0,.25.25,0,0,1,0-.48A.87.87,0,0,1,96.5,77.85Z"/><path class="cls-1" d="M98.68,76.59a.25.25,0,0,1,0,.48.93.93,0,0,1-.83,0,.25.25,0,0,1,0-.48A.93.93,0,0,1,98.68,76.59Z"/><ellipse class="cls-1" cx="76.49" cy="86.89" rx="0.59" ry="0.34"/><ellipse class="cls-1" cx="78.67" cy="85.63" rx="0.59" ry="0.34"/><path class="cls-1" d="M81.26,84.13a.25.25,0,0,1,0,.48.87.87,0,0,1-.83,0,.25.25,0,0,1,0-.48A.93.93,0,0,1,81.26,84.13Z"/><path class="cls-1" d="M83.44,82.87a.26.26,0,0,1,0,.49.93.93,0,0,1-.83,0,.26.26,0,0,1,0-.49A.93.93,0,0,1,83.44,82.87Z"/><path class="cls-1" d="M85.62,81.62a.25.25,0,0,1,0,.48.93.93,0,0,1-.83,0,.25.25,0,0,1,0-.48A.93.93,0,0,1,85.62,81.62Z"/><path class="cls-1" d="M87.8,80.36a.25.25,0,0,1,0,.48,1,1,0,0,1-.84,0,.25.25,0,0,1,0-.48A1,1,0,0,1,87.8,80.36Z"/><path class="cls-1" d="M90,79.1c.23.14.23.35,0,.48a.87.87,0,0,1-.83,0c-.23-.13-.23-.34,0-.48A.93.93,0,0,1,90,79.1Z"/><ellipse class="cls-1" cx="91.73" cy="78.09" rx="0.59" ry="0.34"/><path class="cls-1" d="M94.33,76.59a.25.25,0,0,1,0,.48,1,1,0,0,1-.84,0,.25.25,0,0,1,0-.48A1,1,0,0,1,94.33,76.59Z"/><path class="cls-1" d="M96.5,75.33c.23.14.23.35,0,.48a.87.87,0,0,1-.83,0c-.23-.13-.23-.34,0-.48A.93.93,0,0,1,96.5,75.33Z"/><path class="cls-1" d="M61.67,92.93a.25.25,0,0,1,0,.48.93.93,0,0,1-.83,0,.25.25,0,0,1,0-.48A.93.93,0,0,1,61.67,92.93Z"/><ellipse class="cls-1" cx="63.43" cy="91.91" rx="0.59" ry="0.34"/><path class="cls-1" d="M66,90.42c.23.13.23.34,0,.48a1,1,0,0,1-.84,0c-.23-.14-.23-.35,0-.48A.89.89,0,0,1,66,90.42Z"/><ellipse class="cls-1" cx="67.79" cy="89.4" rx="0.59" ry="0.34"/><path class="cls-1" d="M70.38,87.9c.23.14.23.35,0,.48a.87.87,0,0,1-.83,0c-.23-.13-.23-.34,0-.48A.93.93,0,0,1,70.38,87.9Z"/><path class="cls-1" d="M72.56,86.65c.23.13.23.34,0,.48a1,1,0,0,1-.84,0c-.23-.14-.23-.35,0-.48A.89.89,0,0,1,72.56,86.65Z"/><path class="cls-1" d="M74.73,85.39a.25.25,0,0,1,0,.48.93.93,0,0,1-.83,0,.25.25,0,0,1,0-.48A.93.93,0,0,1,74.73,85.39Z"/><ellipse class="cls-1" cx="76.49" cy="84.37" rx="0.59" ry="0.34"/><path class="cls-1" d="M79.09,82.87a.26.26,0,0,1,0,.49.93.93,0,0,1-.83,0,.26.26,0,0,1,0-.49A.93.93,0,0,1,79.09,82.87Z"/><ellipse class="cls-1" cx="80.85" cy="81.86" rx="0.59" ry="0.34"/><ellipse class="cls-1" cx="83.03" cy="80.6" rx="0.59" ry="0.34"/><ellipse class="cls-1" cx="85.2" cy="79.34" rx="0.59" ry="0.34"/><ellipse class="cls-1" cx="87.38" cy="78.09" rx="0.59" ry="0.34"/><ellipse class="cls-1" cx="89.56" cy="76.83" rx="0.59" ry="0.34"/><path class="cls-1" d="M92.15,75.33c.23.14.23.35,0,.48a.87.87,0,0,1-.83,0c-.23-.13-.23-.34,0-.48A.93.93,0,0,1,92.15,75.33Z"/><path class="cls-1" d="M94.33,74.08c.23.13.23.34,0,.48a1,1,0,0,1-.84,0c-.23-.14-.23-.35,0-.48a.89.89,0,0,1,.84,0C94.56,74.21,94.1,73.94,94.33,74.08Z"/><path class="cls-1" d="M56.48,92.93a.93.93,0,0,1,.83,0c.24.13.24.35,0,.48a.92.92,0,0,1-.84,0A.25.25,0,0,1,56.48,92.93Z"/><ellipse class="cls-1" cx="59.08" cy="91.91" rx="0.59" ry="0.34"/><path class="cls-1" d="M61.67,90.42c.23.13.23.34,0,.48a.93.93,0,0,1-.83,0c-.23-.14-.23-.35,0-.48A.87.87,0,0,1,61.67,90.42Z"/><ellipse class="cls-1" cx="63.43" cy="89.4" rx="0.59" ry="0.34"/><ellipse class="cls-1" cx="65.61" cy="88.14" rx="0.59" ry="0.34"/><path class="cls-1" d="M68.2,86.65c.23.13.23.34,0,.48a.93.93,0,0,1-.83,0c-.23-.14-.23-.35,0-.48A.87.87,0,0,1,68.2,86.65Z"/><ellipse class="cls-1" cx="69.96" cy="85.63" rx="0.59" ry="0.34"/><ellipse class="cls-1" cx="72.14" cy="84.37" rx="0.59" ry="0.34"/><ellipse class="cls-1" cx="74.32" cy="83.12" rx="0.59" ry="0.34"/><path class="cls-1" d="M76.91,81.62a.25.25,0,0,1,0,.48.93.93,0,0,1-.83,0,.25.25,0,0,1,0-.48A.93.93,0,0,1,76.91,81.62Z"/><path class="cls-1" d="M79.09,80.36a.25.25,0,0,1,0,.48.93.93,0,0,1-.83,0,.25.25,0,0,1,0-.48A.93.93,0,0,1,79.09,80.36Z"/><path class="cls-1" d="M81.26,79.1c.23.14.23.35,0,.48a.87.87,0,0,1-.83,0c-.23-.13-.23-.34,0-.48A.93.93,0,0,1,81.26,79.1Z"/><path class="cls-1" d="M83.44,77.85a.25.25,0,0,1,0,.48.93.93,0,0,1-.83,0,.25.25,0,0,1,0-.48A.87.87,0,0,1,83.44,77.85Z"/><ellipse class="cls-1" cx="85.2" cy="76.83" rx="0.59" ry="0.34"/><ellipse class="cls-1" cx="87.38" cy="75.57" rx="0.59" ry="0.34"/><path class="cls-1" d="M90,74.08c.23.13.23.34,0,.48a.93.93,0,0,1-.83,0c-.23-.14-.23-.35,0-.48A.87.87,0,0,1,90,74.08Z"/><path class="cls-1" d="M107.41,86.66a.25.25,0,0,1,0,.48.93.93,0,0,1-.83,0,.25.25,0,0,1,0-.48A.93.93,0,0,1,107.41,86.66Z"/><path class="cls-1" d="M76,61.71a.87.87,0,0,1,.83,0c.23.13.23.34,0,.48a.93.93,0,0,1-.83,0A.25.25,0,0,1,76,61.71Z"/><ellipse class="cls-1" cx="78.59" cy="60.69" rx="0.59" ry="0.34"/><path class="cls-1" d="M81.18,59.19a.25.25,0,0,1,0,.48.87.87,0,0,1-.83,0,.25.25,0,0,1,0-.48A.93.93,0,0,1,81.18,59.19Z"/><ellipse class="cls-1" cx="82.94" cy="58.18" rx="0.59" ry="0.34"/><path class="cls-1" d="M85.53,56.68a.25.25,0,0,1,0,.48.93.93,0,0,1-.83,0,.25.25,0,0,1,0-.48A.93.93,0,0,1,85.53,56.68Z"/><path class="cls-1" d="M87.71,55.42a.25.25,0,0,1,0,.48.93.93,0,0,1-.83,0,.25.25,0,0,1,0-.48A.93.93,0,0,1,87.71,55.42Z"/><path class="cls-1" d="M89.89,54.16a.26.26,0,0,1,0,.49,1,1,0,0,1-.84,0,.26.26,0,0,1,0-.49A1,1,0,0,1,89.89,54.16Z"/><path class="cls-1" d="M92.06,52.91a.25.25,0,0,1,0,.48.93.93,0,0,1-.83,0,.25.25,0,0,1,0-.48A.87.87,0,0,1,92.06,52.91Z"/><path class="cls-1" d="M73.81,60.45a.93.93,0,0,1,.83,0c.23.13.24.35,0,.48a1,1,0,0,1-.84,0A.25.25,0,0,1,73.81,60.45Z"/><path class="cls-1" d="M76.82,59.19a.25.25,0,0,1,0,.48.87.87,0,0,1-.83,0,.25.25,0,0,1,0-.48A.93.93,0,0,1,76.82,59.19Z"/><path class="cls-1" d="M79,57.94c.23.13.23.34,0,.48a.93.93,0,0,1-.83,0c-.23-.14-.23-.35,0-.48A.87.87,0,0,1,79,57.94Z"/><path class="cls-1" d="M81.18,56.68a.25.25,0,0,1,0,.48.93.93,0,0,1-.83,0,.25.25,0,0,1,0-.48A.93.93,0,0,1,81.18,56.68Z"/><ellipse class="cls-1" cx="82.94" cy="55.66" rx="0.59" ry="0.34"/><ellipse class="cls-1" cx="85.12" cy="54.4" rx="0.59" ry="0.34"/><ellipse class="cls-1" cx="87.29" cy="53.15" rx="0.59" ry="0.34"/><path class="cls-1" d="M89.89,51.65a.25.25,0,0,1,0,.48,1,1,0,0,1-.84,0,.25.25,0,0,1,0-.48A1,1,0,0,1,89.89,51.65Z"/><path class="cls-1" d="M92.06,50.39c.23.14.23.35,0,.48a.87.87,0,0,1-.83,0c-.23-.13-.23-.34,0-.48A.93.93,0,0,1,92.06,50.39Z"/><path class="cls-1" d="M71.63,59.19a1,1,0,0,1,.84,0c.23.14.23.35,0,.48a.87.87,0,0,1-.83,0A.26.26,0,0,1,71.63,59.19Z"/><path class="cls-1" d="M74.65,57.94c.23.13.23.34,0,.48a1,1,0,0,1-.84,0c-.23-.14-.23-.35,0-.48A.89.89,0,0,1,74.65,57.94Z"/><ellipse class="cls-1" cx="76.41" cy="56.92" rx="0.59" ry="0.34"/><path class="cls-1" d="M79,55.42a.25.25,0,0,1,0,.48.93.93,0,0,1-.83,0,.25.25,0,0,1,0-.48A.93.93,0,0,1,79,55.42Z"/><path class="cls-1" d="M81.18,54.16a.26.26,0,0,1,0,.49.93.93,0,0,1-.83,0,.26.26,0,0,1,0-.49A.93.93,0,0,1,81.18,54.16Z"/><path class="cls-1" d="M83.36,52.91a.25.25,0,0,1,0,.48,1,1,0,0,1-.84,0,.25.25,0,0,1,0-.48A.89.89,0,0,1,83.36,52.91Z"/><ellipse class="cls-1" cx="85.12" cy="51.89" rx="0.59" ry="0.34"/><path class="cls-1" d="M87.71,50.39c.23.14.23.35,0,.48a.87.87,0,0,1-.83,0c-.23-.13-.23-.34,0-.48A.93.93,0,0,1,87.71,50.39Z"/><path class="cls-1" d="M89.89,49.14c.23.13.23.34,0,.48a1,1,0,0,1-.84,0c-.23-.14-.23-.35,0-.48A.89.89,0,0,1,89.89,49.14Z"/><path class="cls-1" d="M69.46,57.94a.87.87,0,0,1,.83,0c.23.13.23.34,0,.48a.93.93,0,0,1-.83,0A.25.25,0,0,1,69.46,57.94Z"/><ellipse class="cls-1" cx="72.05" cy="56.92" rx="0.59" ry="0.34"/><ellipse class="cls-1" cx="74.23" cy="55.66" rx="0.59" ry="0.34"/><ellipse class="cls-1" cx="76.41" cy="54.4" rx="0.59" ry="0.34"/><ellipse class="cls-1" cx="78.59" cy="53.15" rx="0.59" ry="0.34"/><path class="cls-1" d="M81.18,51.65a.25.25,0,0,1,0,.48.93.93,0,0,1-.83,0,.25.25,0,0,1,0-.48A.93.93,0,0,1,81.18,51.65Z"/><path class="cls-1" d="M83.36,50.39c.23.14.23.35,0,.48a.89.89,0,0,1-.84,0c-.23-.13-.23-.34,0-.48A1,1,0,0,1,83.36,50.39Z"/><path class="cls-1" d="M85.53,49.14c.23.13.23.34,0,.48a.93.93,0,0,1-.83,0c-.23-.14-.23-.35,0-.48A.87.87,0,0,1,85.53,49.14Z"/><path class="cls-1" d="M67.28,56.68a.93.93,0,0,1,.83,0,.26.26,0,0,1,0,.48,1,1,0,0,1-.84,0A.25.25,0,0,1,67.28,56.68Z"/><ellipse class="cls-1" cx="69.88" cy="55.66" rx="0.59" ry="0.34"/><ellipse class="cls-1" cx="72.05" cy="54.4" rx="0.59" ry="0.34"/><path class="cls-1" d="M74.65,52.91a.25.25,0,0,1,0,.48,1,1,0,0,1-.84,0,.25.25,0,0,1,0-.48A.89.89,0,0,1,74.65,52.91Z"/><path class="cls-1" d="M76.82,51.65a.25.25,0,0,1,0,.48.93.93,0,0,1-.83,0,.25.25,0,0,1,0-.48A.93.93,0,0,1,76.82,51.65Z"/><path class="cls-1" d="M79,50.39c.23.14.23.35,0,.48a.87.87,0,0,1-.83,0c-.23-.13-.23-.34,0-.48A.93.93,0,0,1,79,50.39Z"/><ellipse class="cls-1" cx="80.76" cy="49.38" rx="0.59" ry="0.34"/><ellipse class="cls-1" cx="82.94" cy="48.12" rx="0.59" ry="0.34"/><path class="cls-1" d="M65.1,55.42a1,1,0,0,1,.84,0,.25.25,0,0,1,0,.48.87.87,0,0,1-.83,0C64.88,55.77,64.87,55.56,65.1,55.42Z"/><path class="cls-1" d="M68.12,54.16a.26.26,0,0,1,0,.49,1,1,0,0,1-.84,0,.26.26,0,0,1,0-.49A1,1,0,0,1,68.12,54.16Z"/><ellipse class="cls-1" cx="69.88" cy="53.15" rx="0.59" ry="0.34"/><ellipse class="cls-1" cx="72.05" cy="51.89" rx="0.59" ry="0.34"/><path class="cls-1" d="M74.65,50.39c.23.14.23.35,0,.48a.89.89,0,0,1-.84,0c-.23-.13-.23-.34,0-.48A1,1,0,0,1,74.65,50.39Z"/><ellipse class="cls-1" cx="76.41" cy="49.38" rx="0.59" ry="0.34"/><path class="cls-1" d="M79,47.88a.25.25,0,0,1,0,.48.93.93,0,0,1-.83,0,.25.25,0,0,1,0-.48A.93.93,0,0,1,79,47.88Z"/><path class="cls-1" d="M81.18,46.62c.23.14.23.35,0,.48a.87.87,0,0,1-.83,0c-.23-.13-.23-.34,0-.48A.93.93,0,0,1,81.18,46.62Z"/><path class="cls-1" d="M62.91,54.15a.93.93,0,0,1,.83,0,.25.25,0,0,1,0,.48.87.87,0,0,1-.83,0C62.68,54.5,62.68,54.29,62.91,54.15Z"/><path class="cls-1" d="M65.92,52.89a.26.26,0,0,1,0,.49.93.93,0,0,1-.83,0,.26.26,0,0,1,0-.49A.93.93,0,0,1,65.92,52.89Z"/><ellipse class="cls-1" cx="67.68" cy="51.88" rx="0.59" ry="0.34"/><ellipse class="cls-1" cx="69.86" cy="50.62" rx="0.59" ry="0.34"/><path class="cls-1" d="M72.45,49.12c.23.14.23.35,0,.48a.87.87,0,0,1-.83,0c-.23-.13-.23-.34,0-.48A.93.93,0,0,1,72.45,49.12Z"/><ellipse class="cls-1" cx="74.21" cy="48.11" rx="0.59" ry="0.34"/><ellipse class="cls-1" cx="76.39" cy="46.85" rx="0.59" ry="0.34"/><path class="cls-1" d="M70.27,47.87c.23.13.23.34,0,.48a.93.93,0,0,1-.83,0C69.21,48.21,70,47.73,70.27,47.87Z"/><path class="cls-1" d="M119.67,86.68a.93.93,0,0,1,.83,0c.23.14.23.35,0,.48a.89.89,0,0,1-.84,0C119.44,87,119.44,86.82,119.67,86.68Z"/><path class="cls-1" d="M117.48,85.41a.93.93,0,0,1,.83,0c.23.14.23.35,0,.48a.87.87,0,0,1-.83,0C117.25,85.76,117.25,85.55,117.48,85.41Z"/><path class="cls-1" d="M115.3,84.16a.87.87,0,0,1,.83,0c.23.13.23.34,0,.48a.93.93,0,0,1-.83,0A.25.25,0,0,1,115.3,84.16Z"/><ellipse class="cls-1" cx="117.89" cy="83.14" rx="0.59" ry="0.34"/><path class="cls-1" d="M113.12,82.9a.93.93,0,0,1,.83,0c.23.13.24.35,0,.48a1,1,0,0,1-.84,0A.25.25,0,0,1,113.12,82.9Z"/><path class="cls-1" d="M110.94,81.64a1,1,0,0,1,.84,0c.23.14.23.35,0,.48a.87.87,0,0,1-.83,0C110.72,82,110.71,81.78,110.94,81.64Z"/><path class="cls-1" d="M108.77,80.39a.87.87,0,0,1,.83,0c.23.13.23.34,0,.48a.93.93,0,0,1-.83,0C108.54,80.73,108.54,80.52,108.77,80.39Z"/><path class="cls-1" d="M106.59,79.13a.93.93,0,0,1,.83,0,.25.25,0,0,1,0,.48.93.93,0,0,1-.83,0A.25.25,0,0,1,106.59,79.13Z"/><path class="cls-1" d="M105.25,77.87a.25.25,0,0,1,0,.48.89.89,0,0,1-.84,0c-.23-.13-.23-.34,0-.48a1,1,0,0,1,.84,0Z"/><path class="cls-1" d="M103.07,77.1a.93.93,0,0,1-.83,0c-.23-.14-.23-.35,0-.48S103.3,77,103.07,77.1Z"/><g id="_7" data-name="7"><path class="cls-2" d="M79.69,33.71l-1.4-16.9a2,2,0,0,1,1-2.07l1.48-.8a.93.93,0,0,1,1.26.4l6,14.17Z"/><path class="cls-3" d="M79.77,33.81l-1.4-16.9a2,2,0,0,1,1-2.06l.27.11c.46-.25.81,0,1,.43l5.81,14.07Z"/><path class="cls-1" d="M82.27,14.24a1.12,1.12,0,0,0-.68-.58,1.15,1.15,0,0,0-.89.08l-1.48.8a2.26,2.26,0,0,0-1.16,2.29L79.49,34.1l8.84-5.5Zm-3.21,9.11c.13-1.92.48-5,.94-5.43a11.34,11.34,0,0,1,2.22-1.45l.41-.22,5.12,12.17-7.87,4.9Z"/><path class="cls-2" d="M24.5,45.34a2.5,2.5,0,0,0-2.41-.3h0l0,0-9.92,4.46,0,0-.06,0h0a2.5,2.5,0,0,0-1,2.12,7.24,7.24,0,0,0,3.2,5.93,2.47,2.47,0,0,0,2.44.29v0L25.83,52l0,0,0,0h0A2.46,2.46,0,0,0,27,49.83,4.37,4.37,0,0,0,24.5,45.34Z"/><path class="cls-1" d="M24.62,45.15a2.8,2.8,0,0,0-2.46-.39h0L12,49.32l-.26.15-.06.06a2.83,2.83,0,0,0-.95,2.17,7.52,7.52,0,0,0,3.31,6.14,3.35,3.35,0,0,0,1.69.53,2.19,2.19,0,0,0,.77-.14l.22-.08,9.24-6,.25-.17h0a2.85,2.85,0,0,0,1-2.18A4.61,4.61,0,0,0,24.62,45.15ZM16.51,57.73a2.23,2.23,0,0,1-2.21-.28,7,7,0,0,1-3.09-5.73,2.29,2.29,0,0,1,.92-1.94l.07,0L22,45.34h0l.2-.1a2.25,2.25,0,0,1,2.19.29,4.68,4.68,0,0,1,2,2l-9.25,5.27.38.72,9.1-5.27a4.86,4.86,0,0,1,.12,1l-9,5.22v1.33l-.31,1.38-.74.48Z"/><path class="cls-1" d="M23.86,41.76c-.15,0-3.69,0-4.56,2.48a13.53,13.53,0,0,1-2.24,3.64c-.63.79-.93,1.19-.94,1.5h0a.53.53,0,0,0,.19.45.86.86,0,0,0,.52.15,2.16,2.16,0,0,0,.44-.06L22,47.42A3.27,3.27,0,0,0,23.71,45l.4-3.19Z"/><path class="cls-1" d="M15,58.78l-.53-.71c-.14-.07-.27-.13-.4-.21a7.65,7.65,0,0,1-3.3-5.52l-.65-1,1.48-1.72h0a2.48,2.48,0,0,1,3.06,0h0A7.53,7.53,0,0,1,18,55.79a2.69,2.69,0,0,1-1.22,2.36,3.88,3.88,0,0,1-.81.28Zm-4.32-7.42.54.83v.06a7.14,7.14,0,0,0,3.09,5.22l.41.21.06,0,.34.52.91-.31a2.18,2.18,0,0,0,.51-.17,2.24,2.24,0,0,0,1-2A7,7,0,0,0,14.41,50h0c-1.05-.63-2-.62-2.63,0l0,0Z"/><path class="cls-2" d="M16,56.57c-.09,2-1.52,2.72-3.21,1.71a6.58,6.58,0,0,1-2.89-5.37c.09-2,1.53-2.72,3.21-1.71A6.56,6.56,0,0,1,16,56.57Z"/><path class="cls-3" d="M15.38,55.79c-.08,1.71-1.34,2.39-2.82,1.5A5.82,5.82,0,0,1,10,52.56c.08-1.72,1.35-2.39,2.83-1.5A5.77,5.77,0,0,1,15.38,55.79Z"/><path class="cls-1" d="M14.17,59a3.05,3.05,0,0,1-1.54-.48,6.83,6.83,0,0,1-3-5.57,2.45,2.45,0,0,1,1.12-2.16,2.45,2.45,0,0,1,2.44.27,6.83,6.83,0,0,1,3,5.57h0a2.4,2.4,0,0,1-1.12,2.15A1.85,1.85,0,0,1,14.17,59Zm-2.52-8a1.4,1.4,0,0,0-.68.17,2,2,0,0,0-.88,1.77,6.29,6.29,0,0,0,2.78,5.16,2,2,0,0,0,2,.25,2,2,0,0,0,.88-1.77h0A6.29,6.29,0,0,0,13,51.4,2.54,2.54,0,0,0,11.65,51Z"/><path class="cls-1" d="M13.42,57.36a1.75,1.75,0,0,1-.91-.28,4,4,0,0,1-1.76-3.26,1.46,1.46,0,0,1,.68-1.29,1.46,1.46,0,0,1,1.46.15,4,4,0,0,1,1.75,3.26A1.46,1.46,0,0,1,14,57.23,1.08,1.08,0,0,1,13.42,57.36Z"/><path class="cls-2" d="M13.24,14.79,11,16a1.82,1.82,0,0,0-.81,2.11L27.43,67.26,47.5,55.07,25.74,32.71l-11-17.52A1.12,1.12,0,0,0,13.24,14.79Z"/><path class="cls-3" d="M12.46,16.92l-.91.53a1.82,1.82,0,0,0-.8,2.11L28,68.69,46.71,57.2,25,34.84,14,17.31A1.12,1.12,0,0,0,12.46,16.92Z"/><path class="cls-1" d="M25.92,32.57,15,15.07a1.37,1.37,0,0,0-.83-.62,1.31,1.31,0,0,0-1,.15L10.9,15.83a2,2,0,0,0-.9,2.38L27.31,67.6,47.86,55.12ZM13.22,26c-.28-1.62-.69-4.51-.26-5.19.61-1,2.8-2.21,3.47-2.58l9.11,14.59L47.13,55,27.55,66.92Z"/><path class="cls-2" d="M66.66,78.6a2.5,2.5,0,0,0-2.41-.3h0l0,0-9.92,4.46-.05,0-.06,0h0a2.47,2.47,0,0,0-1,2.12,7.23,7.23,0,0,0,3.2,5.94,2.42,2.42,0,0,0,2.43.28v0L68,85.27l0,0,0,0h0a2.49,2.49,0,0,0,1.05-2.13A4.37,4.37,0,0,0,66.66,78.6Z"/><path class="cls-1" d="M66.77,78.41A2.8,2.8,0,0,0,64.31,78h0L54.18,82.58l-.27.15,0,.06a2.79,2.79,0,0,0-1,2.17,7.48,7.48,0,0,0,3.31,6.14,3.32,3.32,0,0,0,1.69.53,2.19,2.19,0,0,0,.77-.14l.21-.08,9.24-6,.26-.17h0a2.81,2.81,0,0,0,1-2.18A4.59,4.59,0,0,0,66.77,78.41ZM58.67,91a2.25,2.25,0,0,1-2.22-.28A7,7,0,0,1,53.37,85a2.25,2.25,0,0,1,.91-1.93l.08,0,9.78-4.39h0l.2-.1a2.28,2.28,0,0,1,2.19.29,4.65,4.65,0,0,1,2,2l-9.24,5.27.37.73,9.11-5.28a4.86,4.86,0,0,1,.12,1l-9,5.22V89l-.31,1.39-.75.47Z"/><path class="cls-1" d="M66,75c-.15,0-3.69,0-4.56,2.48a13.55,13.55,0,0,1-2.25,3.64c-.62.79-.92,1.19-.93,1.5h0a.49.49,0,0,0,.19.45.86.86,0,0,0,.52.15,1.62,1.62,0,0,0,.44-.06l4.74-2.5a3.27,3.27,0,0,0,1.7-2.47l.4-3.19Z"/><path class="cls-1" d="M57.14,92l-.53-.71a2.52,2.52,0,0,1-.4-.21,7.65,7.65,0,0,1-3.3-5.52l-.66-1,1.49-1.72h0a2.49,2.49,0,0,1,3.06,0h0a7.49,7.49,0,0,1,3.31,6.16,2.65,2.65,0,0,1-1.22,2.36,3.61,3.61,0,0,1-.8.28Zm-4.32-7.41.54.82v.06a7.15,7.15,0,0,0,3.08,5.22c.15.09.28.15.42.22l.06,0,.34.52.91-.31a1.63,1.63,0,0,0,.5-.17,2.21,2.21,0,0,0,1-2,7,7,0,0,0-3.1-5.75h0a2,2,0,0,0-2.62,0l0,0Z"/><path class="cls-2" d="M58.12,89.83c-.09,2-1.53,2.72-3.21,1.71A6.54,6.54,0,0,1,52,86.17c.09-2,1.52-2.72,3.21-1.71A6.58,6.58,0,0,1,58.12,89.83Z"/><path class="cls-3" d="M57.54,89.05c-.08,1.72-1.34,2.39-2.82,1.5a5.75,5.75,0,0,1-2.55-4.73c.08-1.71,1.34-2.39,2.83-1.49A5.75,5.75,0,0,1,57.54,89.05Z"/><path class="cls-1" d="M56.33,92.22a3,3,0,0,1-1.54-.49,6.83,6.83,0,0,1-3-5.57,2.17,2.17,0,0,1,3.56-1.89,6.83,6.83,0,0,1,3,5.57h0A2.45,2.45,0,0,1,57.23,92,2,2,0,0,1,56.33,92.22Zm-2.52-8a1.4,1.4,0,0,0-.68.17,2,2,0,0,0-.88,1.77A6.29,6.29,0,0,0,55,91.34a1.72,1.72,0,0,0,2.86-1.52h0a6.29,6.29,0,0,0-2.78-5.16A2.54,2.54,0,0,0,53.81,84.24Z"/><path class="cls-1" d="M55.58,90.62a1.81,1.81,0,0,1-.92-.28,4,4,0,0,1-1.75-3.26A1.3,1.3,0,0,1,55,85.94,4,4,0,0,1,56.8,89.2a1.46,1.46,0,0,1-.68,1.29A1.11,1.11,0,0,1,55.58,90.62Z"/><path class="cls-1" d="M15.64,87.75l-1.58.9,0,2.62a.65.65,0,0,0,.12.43h0l.05,0a.24.24,0,0,0,.11.06l.33.19.18-.3.32-.18a1.32,1.32,0,0,0,.58-1.08l0-1.35L16.11,88Z"/><path class="cls-2" d="M15.43,91.61l-.43.25c-.29.16-.52,0-.52-.39l0-2.56L16,88.08l0,2.55A1.21,1.21,0,0,1,15.43,91.61Z"/><path class="cls-1" d="M14.79,92a.32.32,0,0,1-.19,0,.57.57,0,0,1-.23-.52l0-2.62,1.7-1,0,2.75a1.35,1.35,0,0,1-.58,1.08l-.44.25A.51.51,0,0,1,14.79,92Zm-.17-3,0,2.49a.37.37,0,0,0,.12.32.22.22,0,0,0,.22,0l.43-.24a1.15,1.15,0,0,0,.47-.89l0-2.36Z"/><path class="cls-2" d="M15.15,93.62,15.4,93l-.57-.32-.08,0-.05,0h0a.7.7,0,0,0-.71.2,2.13,2.13,0,0,0-.58,1.89.76.76,0,0,0,.35.53l.1.06.51.29.25-.61A2.22,2.22,0,0,0,15.15,93.62Z"/><path class="cls-1" d="M15.83,93.47a.93.93,0,0,0-.39-.58s0,0,0,0l-.54-.31-.09,0h0l-.18-.07a.87.87,0,0,0-.72.26,2.26,2.26,0,0,0-.61,2,.88.88,0,0,0,.4.59l.59.35h0l.1,0a.58.58,0,0,0,.19,0,.92.92,0,0,0,.6-.26A2.26,2.26,0,0,0,15.83,93.47Zm-2,1.65a.69.69,0,0,1-.3-.45,2,2,0,0,1,.55-1.78.67.67,0,0,1,.44-.21.37.37,0,0,1,.15,0l.06,0,0,0,.12.06a1.13,1.13,0,0,0-.37.23,2.26,2.26,0,0,0-.62,2s0,.08,0,.13l0,0Z"/><path class="cls-3" d="M15,94.77c-.2.19-.43.12-.5-.16a1,1,0,0,1,.26-.84.28.28,0,0,1,.5.16A.94.94,0,0,1,15,94.77Z"/><path class="cls-2" d="M16.74,94.47l.25-.62-.58-.33-.07,0-.05,0h0a.71.71,0,0,0-.72.2,2.15,2.15,0,0,0-.58,1.9.8.8,0,0,0,.36.52l.09.06.52.3.24-.62A2.2,2.2,0,0,0,16.74,94.47Z"/><path class="cls-1" d="M17.41,94.33a.89.89,0,0,0-.39-.59h0l-.54-.31-.09-.05h0l-.18-.07a.85.85,0,0,0-.71.26,2.25,2.25,0,0,0-.62,2,.88.88,0,0,0,.41.6l.59.34h0l.09,0,.19,0a.93.93,0,0,0,.61-.27A2.27,2.27,0,0,0,17.41,94.33ZM15.4,96a.7.7,0,0,1-.3-.45,2,2,0,0,1,.55-1.78.69.69,0,0,1,.45-.21.32.32,0,0,1,.14,0l.06,0,.06,0,.11.07a1.07,1.07,0,0,0-.37.23,2.23,2.23,0,0,0-.62,2,.5.5,0,0,0,0,.13h0Z"/><path class="cls-3" d="M16.57,95.62a.28.28,0,0,1-.5-.16.94.94,0,0,1,.26-.84.28.28,0,0,1,.5.16A1,1,0,0,1,16.57,95.62Z"/><path class="cls-1" d="M16.53,92.72,16,92.66l-.13-.08a.51.51,0,0,0-.48,0l-.31.16-.76.1v.46a.27.27,0,0,0,.15.19l.57.34a.53.53,0,0,0,.27.08.46.46,0,0,0,.21,0l.91-.48a.27.27,0,0,0,.15-.24h0v-.39Z"/><path class="cls-2" d="M14.46,92.75l.93-.49a.44.44,0,0,1,.37,0l.57.34c.11.07.12.16,0,.22l-.93.49a.41.41,0,0,1-.37,0L14.48,93C14.37,92.9,14.36,92.8,14.46,92.75Z"/><path class="cls-1" d="M15.26,93.47A.52.52,0,0,1,15,93.4l-.57-.34a.25.25,0,0,1-.14-.22.21.21,0,0,1,.12-.19h0l.94-.49a.54.54,0,0,1,.48,0l.57.34a.28.28,0,0,1,.14.22.22.22,0,0,1-.13.19l-.93.5A.46.46,0,0,1,15.26,93.47Zm-.75-.62,0,0,.56.34a.35.35,0,0,0,.26,0l.93-.49,0,0-.57-.34a.28.28,0,0,0-.25,0Z"/><path class="cls-2" d="M15.35,93h0a.25.25,0,0,1-.25-.25V89.23a.25.25,0,0,1,.25-.25h0a.25.25,0,0,1,.25.25v3.48A.25.25,0,0,1,15.35,93Z"/><path class="cls-1" d="M15.35,93.07a.36.36,0,0,1-.36-.36V89.23a.37.37,0,0,1,.36-.37.38.38,0,0,1,.37.37v3.48A.37.37,0,0,1,15.35,93.07Zm0-4a.14.14,0,0,0-.14.14v3.48a.14.14,0,0,0,.14.13.13.13,0,0,0,.14-.13V89.23A.14.14,0,0,0,15.35,89.09Z"/><path class="cls-1" d="M16.68,88.29l-1.58.89,0,2.62a.63.63,0,0,0,.12.43v0l.05,0a.17.17,0,0,0,.11.06l.33.19.18-.3.32-.18A1.32,1.32,0,0,0,16.77,91l0-1.35.36-1.06Z"/><path class="cls-2" d="M16.47,92.15l-.43.24c-.29.16-.52,0-.52-.39l0-2.56L17,88.61l0,2.56A1.27,1.27,0,0,1,16.47,92.15Z"/><path class="cls-1" d="M15.83,92.57a.33.33,0,0,1-.19-.06.55.55,0,0,1-.23-.51l0-2.63,1.7-1,0,2.76a1.36,1.36,0,0,1-.59,1.08l-.43.24A.56.56,0,0,1,15.83,92.57Zm-.17-3.06,0,2.49a.37.37,0,0,0,.12.32.22.22,0,0,0,.22,0l.43-.24a1.13,1.13,0,0,0,.47-.89l0-2.35Z"/><path class="cls-2" d="M10.23,70.61C3.83,76.45-.52,88.15.33,90.71,1.48,94.14,4.67,93,8.65,92.05c8.35-2,33.29-15.6,48.86-24.64s22.3-12.66,26-15.43c6.39-4.79,15.13-21.58,17.24-27.12,1.55-4.06-2.64-3.89-6.53-2.36s-27.68,14.6-48,25.86S17.88,63.62,10.23,70.61Z"/><path class="cls-3" d="M86.56,30.84a2.73,2.73,0,0,0-1.17-2.67c-8.77,4.51-22.55,12.31-38.73,21.28-20.3,11.27-28.36,15.27-36,22.26,0,0-2.83,2.89-.79,4s5.63.61,17.55-6S78,40.84,78,40.84,85.73,36,86.56,30.84Z"/><path class="cls-1" d="M11.54,75.21a4.19,4.19,0,0,1-2.07-.49,1.5,1.5,0,0,1-.84-1.13c-.21-1.39,1.5-3.16,1.58-3.23,6.62-6,13.41-9.8,28.3-18l7.77-4.29,11.32-6.3C68.74,35.56,78.36,30.2,85,26.78l.13-.07.12.09a3,3,0,0,1,1.25,2.89c-.84,5.23-8.35,10-8.67,10.16S39,62.19,27.25,68.72C18.39,73.63,14.07,75.21,11.54,75.21Zm73.55-48C78.45,30.67,68.88,36,57.82,42.17c-3.61,2-7.39,4.12-11.32,6.29-2.81,1.57-5.39,3-7.77,4.3C23.88,61,17.1,64.68,10.52,70.68c0,0-1.61,1.68-1.44,2.85a1.06,1.06,0,0,0,.61.79c2,1.07,5.67.46,17.34-6S77.22,39.68,77.61,39.46c.07-.05,7.64-4.81,8.45-9.84h0A2.46,2.46,0,0,0,85.09,27.25Z"/><path class="cls-3" d="M24.2,76.69l-.4.23c-.35.2-.63,0-.63-.49v-1a1.55,1.55,0,0,1,.64-1.22l.39-.23c.36-.2.64,0,.64.49v1A1.55,1.55,0,0,1,24.2,76.69Z"/><path class="cls-1" d="M23.55,76.31a.57.57,0,0,1-.28-.08.78.78,0,0,1-.33-.71v-1a1.76,1.76,0,0,1,.76-1.42l.39-.23a.64.64,0,0,1,.65,0,.78.78,0,0,1,.33.71v1A1.71,1.71,0,0,1,24.31,76l-.39.23A.78.78,0,0,1,23.55,76.31Zm.9-3.07a.29.29,0,0,0-.14.05l-.4.23a1.3,1.3,0,0,0-.52,1v1c0,.19.06.29.11.32s.14,0,.19,0l.4-.23a1.33,1.33,0,0,0,.52-1v-1c0-.19-.06-.29-.11-.32Z"/><path class="cls-3" d="M27.39,74.83l-.4.23c-.35.21-.64,0-.64-.48v-1A1.53,1.53,0,0,1,27,72.38l.39-.23c.36-.2.64,0,.64.48v1A1.53,1.53,0,0,1,27.39,74.83Z"/><path class="cls-1" d="M26.74,74.46a.57.57,0,0,1-.28-.08.78.78,0,0,1-.33-.71v-1a1.76,1.76,0,0,1,.75-1.42l.4-.23a.62.62,0,0,1,.64,0,.76.76,0,0,1,.34.71v1a1.77,1.77,0,0,1-.75,1.42l-.39.23A.78.78,0,0,1,26.74,74.46Zm.9-3.07a.29.29,0,0,0-.14,0l-.4.22a1.33,1.33,0,0,0-.52,1v1c0,.19.06.29.11.32s.15,0,.19,0l.39-.23a1.28,1.28,0,0,0,.53-1v-1c0-.19-.06-.29-.11-.32Z"/><path class="cls-3" d="M29.79,73.44l-.4.23c-.35.2-.64,0-.64-.48v-1A1.51,1.51,0,0,1,29.39,71l.39-.23c.35-.21.64,0,.64.48v1A1.5,1.5,0,0,1,29.79,73.44Z"/><path class="cls-1" d="M29.14,73.06a.55.55,0,0,1-.28-.07.81.81,0,0,1-.34-.72v-1a1.75,1.75,0,0,1,.75-1.42l.4-.23a.62.62,0,0,1,.64,0,.77.77,0,0,1,.34.72v1a1.77,1.77,0,0,1-.75,1.42l-.39.22A.68.68,0,0,1,29.14,73.06ZM30,70a.34.34,0,0,0-.14,0l-.4.23a1.31,1.31,0,0,0-.52,1v1c0,.19.06.29.11.32s.15,0,.19,0l.39-.23a1.28,1.28,0,0,0,.53-1v-1c0-.19-.05-.29-.1-.32Z"/><path class="cls-3" d="M32.25,72l-.39.23c-.35.2-.64,0-.64-.48v-1a1.56,1.56,0,0,1,.63-1.23l.4-.23c.35-.2.64,0,.64.49v1A1.52,1.52,0,0,1,32.25,72Z"/><path class="cls-1" d="M31.6,71.65a.52.52,0,0,1-.27-.07.79.79,0,0,1-.34-.72v-1a1.77,1.77,0,0,1,.75-1.42l.39-.23a.64.64,0,0,1,.65,0,.78.78,0,0,1,.34.71v1a1.75,1.75,0,0,1-.75,1.42l-.4.23A.75.75,0,0,1,31.6,71.65Zm.9-3.07a.34.34,0,0,0-.14,0l-.39.23a1.28,1.28,0,0,0-.53,1v1a.41.41,0,0,0,.1.32c.06,0,.16,0,.19,0l.4-.23a1.33,1.33,0,0,0,.52-1v-1c0-.19-.06-.29-.11-.31Z"/><path class="cls-3" d="M34.65,70.63l-.39.23c-.35.21-.64,0-.64-.48v-1a1.5,1.5,0,0,1,.63-1.22l.4-.23c.35-.2.64,0,.64.48v1A1.53,1.53,0,0,1,34.65,70.63Z"/><path class="cls-1" d="M34,70.26a.53.53,0,0,1-.27-.08.76.76,0,0,1-.34-.71v-1a1.76,1.76,0,0,1,.75-1.42l.39-.23a.64.64,0,0,1,.65,0,.78.78,0,0,1,.33.71v1a1.77,1.77,0,0,1-.75,1.42l-.4.23A.75.75,0,0,1,34,70.26Zm.9-3.07a.29.29,0,0,0-.14,0l-.39.22a1.31,1.31,0,0,0-.53,1v1c0,.19,0,.29.1.32a.21.21,0,0,0,.19,0l.4-.23a1.3,1.3,0,0,0,.52-1v-1c0-.19-.06-.29-.11-.32Z"/><path class="cls-3" d="M37.12,69.22l-.4.23c-.35.21-.64,0-.64-.48V68a1.53,1.53,0,0,1,.64-1.22l.39-.23c.36-.21.64,0,.64.48v1A1.53,1.53,0,0,1,37.12,69.22Z"/><path class="cls-1" d="M36.47,68.84a.55.55,0,0,1-.28-.07.78.78,0,0,1-.33-.71v-1a1.76,1.76,0,0,1,.75-1.42l.4-.23a.64.64,0,0,1,.65,0,.81.81,0,0,1,.33.72v1a1.77,1.77,0,0,1-.75,1.42l-.39.23A.76.76,0,0,1,36.47,68.84Zm.9-3.06a.39.39,0,0,0-.14,0l-.4.23a1.33,1.33,0,0,0-.52,1v1c0,.19.06.29.11.32s.14,0,.19,0l.39-.23a1.28,1.28,0,0,0,.53-1v-1c0-.19-.05-.29-.1-.32Z"/><path class="cls-3" d="M39.52,67.83l-.4.23c-.35.2-.64,0-.64-.49v-1a1.52,1.52,0,0,1,.64-1.23l.39-.23c.35-.2.64,0,.64.49v1A1.54,1.54,0,0,1,39.52,67.83Z"/><path class="cls-1" d="M38.87,67.45a.55.55,0,0,1-.28-.07.84.84,0,0,1-.34-.72v-1A1.77,1.77,0,0,1,39,64.26l.4-.23A.62.62,0,0,1,40,64a.76.76,0,0,1,.34.71v1a1.76,1.76,0,0,1-.75,1.42l-.39.23A.78.78,0,0,1,38.87,67.45Zm.9-3.07a.29.29,0,0,0-.14.05l-.4.23a1.3,1.3,0,0,0-.52,1v1c0,.19.06.29.11.32A.24.24,0,0,0,39,67l.39-.23a1.31,1.31,0,0,0,.53-1v-1c0-.19-.05-.29-.1-.31Z"/><path class="cls-3" d="M42,66.42l-.39.22c-.35.21-.64,0-.64-.48v-1A1.54,1.54,0,0,1,41.58,64l.4-.23c.35-.2.64,0,.64.48v1A1.54,1.54,0,0,1,42,66.42Z"/><path class="cls-1" d="M41.33,66a.53.53,0,0,1-.27-.08.76.76,0,0,1-.34-.71v-1a1.77,1.77,0,0,1,.75-1.42l.39-.23a.64.64,0,0,1,.65,0,.78.78,0,0,1,.34.71v1a1.76,1.76,0,0,1-.75,1.42l-.4.23A.75.75,0,0,1,41.33,66Zm.9-3.07a.34.34,0,0,0-.14.05l-.39.23a1.28,1.28,0,0,0-.53,1v1c0,.19,0,.29.1.32a.21.21,0,0,0,.19,0l.4-.22a1.33,1.33,0,0,0,.52-1v-1c0-.19-.06-.29-.11-.32Z"/><path class="cls-3" d="M44.38,65l-.39.23c-.36.2-.64,0-.64-.48v-1A1.5,1.5,0,0,1,44,62.57l.4-.23c.35-.21.64,0,.64.48v1A1.53,1.53,0,0,1,44.38,65Z"/><path class="cls-1" d="M43.73,64.64a.5.5,0,0,1-.27-.07.76.76,0,0,1-.34-.71v-1a1.76,1.76,0,0,1,.75-1.42l.39-.23a.64.64,0,0,1,.65,0,.84.84,0,0,1,.34.72v1a1.77,1.77,0,0,1-.75,1.42l-.4.23A.74.74,0,0,1,43.73,64.64Zm.9-3.06a.33.33,0,0,0-.14,0l-.39.23a1.31,1.31,0,0,0-.53,1v1c0,.19.05.29.1.32a.21.21,0,0,0,.19,0l.4-.23a1.3,1.3,0,0,0,.52-1v-1c0-.19-.06-.29-.11-.32Z"/><path class="cls-3" d="M46.85,63.58l-.4.23c-.35.2-.64,0-.64-.48v-1a1.57,1.57,0,0,1,.64-1.23l.39-.22c.36-.21.64,0,.64.48v1A1.53,1.53,0,0,1,46.85,63.58Z"/><path class="cls-1" d="M46.2,63.2a.55.55,0,0,1-.28-.07.79.79,0,0,1-.33-.72v-1A1.74,1.74,0,0,1,46.33,60l.4-.23a.62.62,0,0,1,.64,0,.77.77,0,0,1,.34.72v1A1.75,1.75,0,0,1,47,62.86l-.39.23A.68.68,0,0,1,46.2,63.2Zm.9-3.07a.29.29,0,0,0-.14,0l-.4.23a1.3,1.3,0,0,0-.52,1v1c0,.19.06.29.11.32s.14,0,.19,0l.39-.23a1.29,1.29,0,0,0,.53-1v-1c0-.19,0-.29-.1-.32Z"/><path class="cls-3" d="M49.25,62.19l-.4.22c-.35.21-.64,0-.64-.48V61a1.51,1.51,0,0,1,.64-1.22l.39-.23c.35-.2.64,0,.64.48v1A1.56,1.56,0,0,1,49.25,62.19Z"/><path class="cls-1" d="M48.6,61.81a.57.57,0,0,1-.28-.08A.78.78,0,0,1,48,61V60a1.77,1.77,0,0,1,.75-1.42l.4-.23a.62.62,0,0,1,.64,0,.76.76,0,0,1,.34.71v1a1.76,1.76,0,0,1-.75,1.42L49,61.7A.78.78,0,0,1,48.6,61.81Zm.9-3.07a.29.29,0,0,0-.14,0L49,59a1.3,1.3,0,0,0-.52,1v1c0,.19.06.29.11.32s.14,0,.19,0l.39-.22a1.31,1.31,0,0,0,.53-1v-1c0-.19,0-.29-.1-.32Z"/><path class="cls-3" d="M51.71,60.77l-.39.23c-.35.21-.64,0-.64-.48v-1a1.52,1.52,0,0,1,.63-1.22l.4-.23c.35-.2.64,0,.64.48v1A1.51,1.51,0,0,1,51.71,60.77Z"/><path class="cls-1" d="M51.06,60.4a.53.53,0,0,1-.27-.08.76.76,0,0,1-.34-.71v-1a1.76,1.76,0,0,1,.75-1.42l.39-.23a.64.64,0,0,1,.65,0,.78.78,0,0,1,.34.71v1a1.77,1.77,0,0,1-.75,1.42l-.4.23A.75.75,0,0,1,51.06,60.4Zm.9-3.07a.57.57,0,0,0-.14,0l-.39.23a1.31,1.31,0,0,0-.53,1v1c0,.19.05.29.1.32a.21.21,0,0,0,.19,0l.4-.23a1.3,1.3,0,0,0,.52-1v-1c0-.19-.06-.29-.11-.32Z"/><path class="cls-3" d="M54.11,59.38l-.39.23c-.36.2-.64,0-.64-.48v-1a1.53,1.53,0,0,1,.63-1.23l.4-.22c.35-.21.64,0,.64.48v1A1.55,1.55,0,0,1,54.11,59.38Z"/><path class="cls-1" d="M53.46,59a.55.55,0,0,1-.28-.07.81.81,0,0,1-.33-.72v-1a1.77,1.77,0,0,1,.75-1.42l.39-.22a.62.62,0,0,1,.65,0,.78.78,0,0,1,.33.71v1a1.75,1.75,0,0,1-.75,1.42l-.4.23A.66.66,0,0,1,53.46,59Zm.9-3.07a.34.34,0,0,0-.14,0l-.39.23a1.28,1.28,0,0,0-.53,1v1c0,.19,0,.29.1.32s.16,0,.19,0l.4-.23a1.31,1.31,0,0,0,.52-1v-1c0-.19-.06-.3-.11-.32Z"/><path class="cls-3" d="M56.58,58l-.4.23c-.35.2-.64,0-.64-.49v-1a1.55,1.55,0,0,1,.64-1.22l.39-.23c.36-.2.64,0,.64.49v1A1.51,1.51,0,0,1,56.58,58Z"/><path class="cls-1" d="M55.93,57.59a.68.68,0,0,1-.28-.07.81.81,0,0,1-.33-.72v-1a1.77,1.77,0,0,1,.75-1.42l.4-.23a.62.62,0,0,1,.64,0,.76.76,0,0,1,.34.71v1a1.76,1.76,0,0,1-.75,1.42l-.39.23A.78.78,0,0,1,55.93,57.59Zm.9-3.07a.29.29,0,0,0-.14,0l-.4.23a1.3,1.3,0,0,0-.52,1v1c0,.19.06.29.11.32s.14,0,.19,0l.39-.23a1.31,1.31,0,0,0,.53-1v-1c0-.19,0-.29-.1-.32Z"/><path class="cls-3" d="M59,56.57l-.4.23c-.35.21-.64,0-.64-.48v-1a1.51,1.51,0,0,1,.64-1.22l.39-.23c.35-.2.64,0,.64.48v1A1.52,1.52,0,0,1,59,56.57Z"/><path class="cls-1" d="M58.33,56.2a.57.57,0,0,1-.28-.08.78.78,0,0,1-.34-.71v-1A1.76,1.76,0,0,1,58.46,53l.4-.23a.62.62,0,0,1,.64,0,.76.76,0,0,1,.34.71v1a1.77,1.77,0,0,1-.75,1.42l-.39.23A.78.78,0,0,1,58.33,56.2Zm.9-3.07a.34.34,0,0,0-.14,0l-.4.23a1.33,1.33,0,0,0-.52,1v1c0,.19.06.29.11.32s.14,0,.19,0l.39-.23a1.28,1.28,0,0,0,.53-1v-1c0-.19-.05-.29-.1-.32Z"/><path class="cls-3" d="M61.44,55.16l-.39.23c-.35.2-.64,0-.64-.48v-1A1.52,1.52,0,0,1,61,52.71l.4-.23c.35-.21.64,0,.64.48v1A1.51,1.51,0,0,1,61.44,55.16Z"/><path class="cls-1" d="M60.79,54.78a.52.52,0,0,1-.27-.07.76.76,0,0,1-.34-.71V53a1.75,1.75,0,0,1,.75-1.42l.39-.23a.64.64,0,0,1,.65,0,.81.81,0,0,1,.34.72v1a1.77,1.77,0,0,1-.75,1.42l-.4.22A.66.66,0,0,1,60.79,54.78Zm.9-3.06a.47.47,0,0,0-.14,0l-.39.23a1.31,1.31,0,0,0-.53,1v1c0,.19,0,.3.1.32a.18.18,0,0,0,.19,0l.4-.23a1.3,1.3,0,0,0,.52-1v-1c0-.19-.06-.29-.11-.32Z"/><path class="cls-3" d="M63.84,53.77l-.39.23c-.36.2-.64,0-.64-.49v-1a1.55,1.55,0,0,1,.64-1.22l.4-.23c.35-.2.64,0,.64.49v1A1.55,1.55,0,0,1,63.84,53.77Z"/><path class="cls-1" d="M63.19,53.39a.6.6,0,0,1-.27-.07.79.79,0,0,1-.34-.72v-1a1.77,1.77,0,0,1,.75-1.42l.39-.23a.64.64,0,0,1,.65,0,.78.78,0,0,1,.33.71v1A1.76,1.76,0,0,1,64,53.05l-.4.23A.75.75,0,0,1,63.19,53.39Zm.9-3.07a.29.29,0,0,0-.14,0l-.39.23a1.28,1.28,0,0,0-.53,1v1c0,.19.05.29.1.32a.24.24,0,0,0,.19,0l.4-.23a1.33,1.33,0,0,0,.52-1v-1c0-.19-.06-.29-.11-.32Z"/><path class="cls-3" d="M66.31,52.35l-.4.23c-.35.21-.64,0-.64-.48v-1a1.53,1.53,0,0,1,.64-1.22l.39-.23c.36-.2.64,0,.64.48v1A1.5,1.5,0,0,1,66.31,52.35Z"/><path class="cls-1" d="M65.66,52a.57.57,0,0,1-.28-.08.78.78,0,0,1-.33-.71v-1a1.76,1.76,0,0,1,.75-1.42l.4-.23a.62.62,0,0,1,.64,0,.76.76,0,0,1,.34.71v1a1.76,1.76,0,0,1-.75,1.42l-.39.23A.78.78,0,0,1,65.66,52Zm.9-3.07a.23.23,0,0,0-.14.05l-.4.23a1.3,1.3,0,0,0-.52,1v1c0,.19.06.29.11.32s.14,0,.19,0l.39-.22a1.31,1.31,0,0,0,.53-1v-1c0-.19,0-.29-.1-.32Z"/><path class="cls-3" d="M68.71,51l-.4.23c-.35.2-.64,0-.64-.48v-1a1.51,1.51,0,0,1,.64-1.22l.39-.23c.35-.21.64,0,.64.48v1A1.52,1.52,0,0,1,68.71,51Z"/><path class="cls-1" d="M68.06,50.58a.55.55,0,0,1-.28-.07.78.78,0,0,1-.34-.71v-1a1.75,1.75,0,0,1,.75-1.42l.4-.23a.62.62,0,0,1,.64,0,.79.79,0,0,1,.34.72v1a1.77,1.77,0,0,1-.75,1.42l-.39.22A.68.68,0,0,1,68.06,50.58Zm.9-3.06a.29.29,0,0,0-.14,0l-.4.23a1.32,1.32,0,0,0-.52,1v1c0,.19.06.3.11.32s.14,0,.19,0l.39-.23a1.28,1.28,0,0,0,.53-1v-1c0-.19,0-.29-.1-.32Z"/><path class="cls-3" d="M71.17,49.55l-.39.23c-.35.2-.64,0-.64-.48v-1a1.56,1.56,0,0,1,.63-1.23l.4-.22c.35-.21.64,0,.64.48v1A1.52,1.52,0,0,1,71.17,49.55Z"/><path class="cls-1" d="M70.52,49.17a.52.52,0,0,1-.27-.07.79.79,0,0,1-.34-.72v-1A1.77,1.77,0,0,1,70.66,46l.39-.22a.62.62,0,0,1,.65,0,.78.78,0,0,1,.34.71v1a1.75,1.75,0,0,1-.75,1.42l-.4.23A.75.75,0,0,1,70.52,49.17Zm.9-3.07a.34.34,0,0,0-.14,0l-.39.23a1.28,1.28,0,0,0-.53,1v1c0,.19,0,.29.1.32s.15,0,.19,0l.4-.23a1.33,1.33,0,0,0,.52-1v-1c0-.19-.06-.3-.11-.32Z"/><path class="cls-3" d="M73.57,48.15l-.39.23c-.36.21-.64,0-.64-.48v-1a1.53,1.53,0,0,1,.64-1.22l.4-.23c.35-.2.64,0,.64.48v1A1.53,1.53,0,0,1,73.57,48.15Z"/><path class="cls-1" d="M72.92,47.78a.5.5,0,0,1-.27-.08.76.76,0,0,1-.34-.71V46a1.76,1.76,0,0,1,.75-1.42l.39-.23a.64.64,0,0,1,.65,0,.78.78,0,0,1,.33.71v1a1.76,1.76,0,0,1-.75,1.42l-.4.23A.75.75,0,0,1,72.92,47.78Zm.9-3.07a.29.29,0,0,0-.14,0l-.39.22a1.31,1.31,0,0,0-.53,1v1c0,.19.06.29.11.32a.21.21,0,0,0,.19,0l.4-.23A1.3,1.3,0,0,0,74,46V45c0-.19-.06-.29-.11-.32Z"/><path class="cls-3" d="M76,46.74l-.4.23c-.35.21-.64,0-.64-.48v-1a1.53,1.53,0,0,1,.64-1.22l.39-.23c.35-.21.64,0,.64.48v1A1.5,1.5,0,0,1,76,46.74Z"/><path class="cls-1" d="M75.39,46.36a.55.55,0,0,1-.28-.07.81.81,0,0,1-.34-.71v-1a1.76,1.76,0,0,1,.75-1.42l.4-.23a.64.64,0,0,1,.64,0,.79.79,0,0,1,.34.72v1A1.77,1.77,0,0,1,76.15,46l-.39.23A.76.76,0,0,1,75.39,46.36Zm.9-3.06a.29.29,0,0,0-.14,0l-.4.23a1.33,1.33,0,0,0-.52,1v1c0,.19.06.29.11.32s.14,0,.19,0l.39-.23a1.28,1.28,0,0,0,.53-1v-1c0-.19,0-.29-.1-.32Z"/><path class="cls-1" d="M23,79.93a.67.67,0,0,1-.34-.09,1.07,1.07,0,0,1-.43-1v-4.5a2.56,2.56,0,0,1,1.09-2.07l1.16-.67a.82.82,0,0,1,.82-.06,1.07,1.07,0,0,1,.43,1V77a2.59,2.59,0,0,1-1.09,2.08l-1.16.66A.93.93,0,0,1,23,79.93Zm2-8.12a.67.67,0,0,0-.32.1l-1.16.67a2.31,2.31,0,0,0-.93,1.8v4.5a.76.76,0,0,0,.27.68.49.49,0,0,0,.5,0l1.16-.67a2.29,2.29,0,0,0,.93-1.8v-4.5a.76.76,0,0,0-.27-.68A.41.41,0,0,0,25,71.81Z"/><path class="cls-3" d="M15.74,79.21v-.82c0-.43-.29-.69-.63-.51a64.07,64.07,0,0,1-7.43,3.63c-1.36.53-2.74.69-3.63,0S4,79,4.2,78.68A29.68,29.68,0,0,0,2.32,82.3a1.67,1.67,0,0,0-.12,1.12,2.23,2.23,0,0,0,2.13,1.42c2.33.25,7.79-2.42,10.16-4A2.89,2.89,0,0,0,15.74,79.21Z"/><path class="cls-1" d="M16.14,76.74a.61.61,0,0,0-.64,0c-.29.14-.64.34-1.06.57L13.13,78h0l-.81.42a44,44,0,0,1-4.27,1.94,7.23,7.23,0,0,1-1.27.37H6.7a3.56,3.56,0,0,1-1.08,0l-.26-.07a1.88,1.88,0,0,1-.68-.33h0a.62.62,0,0,1-.19-.27l0-.1a3.84,3.84,0,0,1,.44-2.13l-.38-.25a26,26,0,0,0-1.85,3.54l-.05.1a1.86,1.86,0,0,0-.13,1.28A2.45,2.45,0,0,0,4.8,84.12l.34,0c2.59,0,7.7-2.54,10-4a3.06,3.06,0,0,0,1.34-1.77v-.88A.78.78,0,0,0,16.14,76.74ZM16,78.23a2.7,2.7,0,0,1-1.15,1.48c-2.27,1.51-7.7,4.2-10,4-.6-.07-1.65-.31-1.92-1.26a1.39,1.39,0,0,1,.11-1l0-.1c.28-.61.57-1.23.89-1.85a1.9,1.9,0,0,0,.06.68L3.3,81.64l.07.11a2.3,2.3,0,0,0,1.14.83l.2.07.09-.19c.21-.45,0-.08.2-.4l.42-.87a3.77,3.77,0,0,0,1,0l-.67,1.45.39,0C7.55,82.57,9.65,81.53,11,81l.06,0,1.51-2.11c.81-.42,1.53-.81,2.12-1.13l1.05-.57a.19.19,0,0,1,.18,0,.37.37,0,0,1,.12.32Z"/><path class="cls-1" d="M100.79,22c-1.21-1.2-4.23-.62-6.65.33-3.09,1.22-19.24,9.92-48,25.88l-7.77,4.29c-14.89,8.21-21.68,12-28.29,18C3.68,76.29-.79,88.07.12,90.78a3.22,3.22,0,0,0,3.41,2.45,18.58,18.58,0,0,0,4.07-.7l1.11-.26C16.65,90.41,40,77.83,57.63,67.61c4.24-2.46,7.83-4.52,10.87-6.27,8-4.61,12.45-7.15,15.15-9.18C90,47.42,98.78,30.72,101,24.94,101.49,23.59,101.43,22.58,100.79,22ZM10.38,70.78C17,64.78,23.74,61,38.59,52.85l7.77-4.29c28.74-16,44.88-24.65,48-25.85a12.07,12.07,0,0,1,4.45-1,127.55,127.55,0,0,1-7,12.94c-1.7.51-3.83,1.28-3.92,1.95a17.5,17.5,0,0,1-3,7.33,17.16,17.16,0,0,1-2,1.77c-3.7,2.77-10,5.68-25.55,14.72S20.8,81.85,8.61,86.17c-4.27,1.52-6.44,1.54-7.47.2C2.51,81.79,5.87,74.9,10.38,70.78Z"/><path class="cls-3" d="M3.06,91.51c0,.77-.54,1.08-1.21.7a2.68,2.68,0,0,1-1.2-2.09c0-.77.54-1.08,1.2-.69A2.64,2.64,0,0,1,3.06,91.51Z"/><path class="cls-2" d="M74.27,56.19h0a.45.45,0,0,1,.18-.61,82.3,82.3,0,0,0,7.38-4.39,25.77,25.77,0,0,0,3.46-3.12.44.44,0,0,1,.62,0h0a.44.44,0,0,1,0,.65,25.31,25.31,0,0,1-3.59,3.24,77.67,77.67,0,0,1-7.49,4.46A.44.44,0,0,1,74.27,56.19Z"/><path class="cls-2" d="M86.79,47h0a.44.44,0,0,1-.07-.62,11.06,11.06,0,0,0,.71-1,.46.46,0,0,1,.61-.14h0a.45.45,0,0,1,.15.65c-.26.4-.54.77-.75,1A.45.45,0,0,1,86.79,47Z"/><path class="cls-2" d="M37.34,73.41c.45-1.8,15.06-10,20.08-12.77a3.77,3.77,0,0,1,3.32-.17L87.32,70.63l35,9.55a1,1,0,0,1,.31,1.72l-2.56,1.71a7.79,7.79,0,0,1-5,1.28L46.3,78.65a16.7,16.7,0,0,1-6-1.67C38.7,76.18,36.88,75.25,37.34,73.41Z"/><path class="cls-3" d="M39.59,74.17c.45-1.8,12.32-8.14,17.34-11a3.76,3.76,0,0,1,3.32-.17L87,72.53,120.49,81c.81.2.69.49,0,1l-2.21,1.49a7.77,7.77,0,0,1-5,1.28L47.49,78.76c-2.1-.19-3.09-.08-5-1C41,76.94,39.13,76,39.59,74.17Z"/><path class="cls-1" d="M123.31,80.9a1.18,1.18,0,0,0-.89-.94l-1.12-.31h0L87.4,70.42,60.83,60.26a4,4,0,0,0-3.52.18l-.33.18c-9,5.06-19.45,11.09-19.86,12.74-.51,2,1.55,3.07,3.05,3.82a16.8,16.8,0,0,0,6.11,1.7l59.15,5.36h0l9.63.88q.36,0,.72,0a8,8,0,0,0,4.45-1.35l2.57-1.71A1.16,1.16,0,0,0,123.31,80.9Zm-77-2.47a16.66,16.66,0,0,1-5.94-1.65c-1.83-.93-3.2-1.76-2.82-3.31S52.45,63.68,57.21,61l.32-.18a3.52,3.52,0,0,1,3.13-.16l26.6,10.17,28.12,7.66c-.83.61-3.76,2.73-5.47,3.71-1.56.88-7.84,1-11,1h0Z"/><path class="cls-2" d="M88.89,37.57a.82.82,0,0,1-.71-1.28c1.66-2.53,7.65-6.52,8.15-6.82s3.4.48,3.4.48l17.2,5a.6.6,0,0,1,.15,1.08l-1.93,1.24a5.07,5.07,0,0,1-2.84.8Z"/><path class="cls-3" d="M90.43,37.62a5.31,5.31,0,0,1-1.54-.28,36.74,36.74,0,0,1,7.83-6.24c.66-.3,3.4.48,3.4.48l14.59,4.22c.5.14,1.18,0,.75.26l-1.93,1.23a3.25,3.25,0,0,1-2.3.55Z"/><path class="cls-1" d="M117.58,35.62a1,1,0,0,0,0-.24.83.83,0,0,0-.37-.58l-.22-.1-17.19-5c-.48-.14-2.91-.86-3.59-.46S89.65,33.64,88,36.16a1.06,1.06,0,0,0,0,1.1,1.08,1.08,0,0,0,.94.54l23.42.47h.1a5.31,5.31,0,0,0,2.87-.84l1.93-1.24a.84.84,0,0,0,.35-.5A.14.14,0,0,1,117.58,35.62ZM88.89,37.34h0a.59.59,0,0,1-.51-.92C90,34,95.86,30,96.45,29.67c.37-.22,2.1.16,3.22.5l13.52,3.91c-.88.56-2.61,1.71-3.41,2.24-1.16.77-4.39,1.19-5.72,1.33l-15.17-.31Z"/><path class="cls-2" d="M82,31.62S90.51,4.88,91.53,3.78A35.93,35.93,0,0,1,96.8.32a.64.64,0,0,1,1,.62L95.65,24.15a2.59,2.59,0,0,1-1.31,2L83.21,32.57S81.88,33.27,82,31.62Z"/><path class="cls-1" d="M97.59.14a.67.67,0,0,0-.21-.1.84.84,0,0,0-.69.08,35.67,35.67,0,0,0-5.33,3.5c-1,1.11-8.67,25.19-9.54,27.94v0a2,2,0,0,0,0,.42,1,1,0,0,0,.38.79.77.77,0,0,0,.46.13,1.64,1.64,0,0,0,.69-.18l.61-.35.27-.14h0l10.26-5.88a2.88,2.88,0,0,0,1.42-2.21L98,1A.87.87,0,0,0,97.59.14Zm-2.17,24A2.4,2.4,0,0,1,94.23,26l-10.29,5.9a2.16,2.16,0,0,1,.11-1.45c.51-1.29,8.25-14.86,12.87-22.71Z"/><path class="cls-3" d="M96.35,5.06a3.83,3.83,0,0,1-1.74,3c-1,.55-1.74.1-1.74-1a3.83,3.83,0,0,1,1.74-3C95.57,3.5,96.35,4,96.35,5.06Z"/></g></g></g></g></svg>