<svg xmlns="http://www.w3.org/2000/svg" viewBox="0 0 21.77 40.46"><defs><style>.cls-1{fill:#150035;}.cls-2{fill:#ffb000;}.cls-3{fill:#fff;}</style></defs><g id="Layer_2" data-name="Layer 2"><g id="content"><path class="cls-1" d="M9.2,36.37l-.87.5a.37.37,0,0,1-.34,0l-.82-.47c-.1-.06-.11-.15,0-.2l.86-.5a.39.39,0,0,1,.35,0l.81.47C9.28,36.23,9.29,36.32,9.2,36.37Z"/><path class="cls-1" d="M11.21,37.53l-.87.5A.37.37,0,0,1,10,38l-.82-.47c-.1-.06-.11-.15,0-.2l.86-.5a.43.43,0,0,1,.35,0l.81.47C11.29,37.39,11.3,37.48,11.21,37.53Z"/><path class="cls-1" d="M9.09,38.76l-.86.5a.4.4,0,0,1-.35,0l-.82-.47c-.1-.06-.11-.15,0-.2l.86-.5a.4.4,0,0,1,.35,0l.81.47C9.17,38.62,9.18,38.71,9.09,38.76Z"/><path class="cls-1" d="M13.22,38.7l-.86.5a.4.4,0,0,1-.35,0l-.81-.47c-.11-.06-.12-.15,0-.2L12,38a.38.38,0,0,1,.34,0l.82.47C13.3,38.56,13.31,38.64,13.22,38.7Z"/><path class="cls-1" d="M11.1,39.92l-.86.5a.4.4,0,0,1-.35,0l-.81-.47c-.11,0-.12-.14,0-.2l.87-.49a.34.34,0,0,1,.34,0l.82.47C11.18,39.78,11.19,39.87,11.1,39.92Z"/><path class="cls-1" d="M15.35,39.93l-.86.49a.36.36,0,0,1-.35,0l-.81-.47c-.11-.06-.12-.15,0-.2l.87-.5a.38.38,0,0,1,.34,0l.82.47C15.43,39.78,15.44,39.87,15.35,39.93Z"/><path class="cls-1" d="M15.35,37.47l-.87.5a.37.37,0,0,1-.34,0l-.82-.47c-.1-.06-.11-.14,0-.2l.86-.5a.4.4,0,0,1,.35,0l.81.47C15.42,37.33,15.43,37.42,15.35,37.47Z"/><path class="cls-1" d="M17.48,38.7l-.87.5a.4.4,0,0,1-.35,0l-.81-.47c-.1-.06-.11-.15,0-.2l.87-.5a.4.4,0,0,1,.35,0l.81.47C17.55,38.56,17.56,38.65,17.48,38.7Z"/><path class="cls-1" d="M19.59,37.48l-.86.5a.4.4,0,0,1-.35,0l-.82-.47c-.1-.06-.11-.15,0-.2l.86-.5a.4.4,0,0,1,.35,0l.82.47C19.67,37.34,19.68,37.43,19.59,37.48Z"/><path class="cls-1" d="M21.71,36.25l-.86.5a.39.39,0,0,1-.35,0l-.82-.47c-.1-.06-.11-.15,0-.2l.86-.5a.39.39,0,0,1,.35,0l.82.47C21.79,36.11,21.8,36.2,21.71,36.25Z"/><path class="cls-1" d="M19.48,39.86l-.86.5a.39.39,0,0,1-.35,0l-.81-.47c-.11-.06-.12-.15,0-.2l.87-.5a.37.37,0,0,1,.34,0l.82.47C19.56,39.72,19.57,39.81,19.48,39.86Z"/><path class="cls-1" d="M21.6,38.64l-.86.5a.4.4,0,0,1-.35,0l-.81-.47c-.11-.06-.12-.14,0-.2l.87-.5a.37.37,0,0,1,.34,0l.82.47C21.68,38.5,21.69,38.59,21.6,38.64Z"/><path class="cls-1" d="M2.22,26.12l-.87.5a.37.37,0,0,1-.34,0l-.82-.47c-.1-.06-.11-.15,0-.2l.86-.5a.4.4,0,0,1,.35,0l.81.47C2.3,26,2.31,26.07,2.22,26.12Z"/><path class="cls-1" d="M4.23,27.28l-.86.5a.43.43,0,0,1-.35,0l-.82-.48c-.1-.05-.11-.14,0-.2L3,26.6a.36.36,0,0,1,.35,0l.82.47C4.31,27.14,4.32,27.23,4.23,27.28Z"/><path class="cls-1" d="M2.11,28.5l-.86.5A.39.39,0,0,1,.9,29l-.82-.47c-.1-.06-.11-.15,0-.2l.86-.5a.39.39,0,0,1,.35,0l.82.47C2.19,28.36,2.2,28.45,2.11,28.5Z"/><path class="cls-1" d="M6.24,28.44l-.86.5a.39.39,0,0,1-.35,0l-.81-.47c-.11-.06-.12-.15,0-.2l.87-.5a.37.37,0,0,1,.34,0l.82.47C6.32,28.3,6.33,28.39,6.24,28.44Z"/><path class="cls-1" d="M4.12,29.67l-.86.49a.36.36,0,0,1-.35,0l-.81-.47c-.11-.06-.12-.15,0-.2l.87-.5a.37.37,0,0,1,.34,0l.82.47C4.2,29.53,4.21,29.61,4.12,29.67Z"/><path class="cls-1" d="M8.37,29.67l-.86.5a.39.39,0,0,1-.35,0l-.81-.47c-.11-.06-.12-.15,0-.2l.87-.5a.37.37,0,0,1,.34,0l.82.47C8.45,29.53,8.46,29.62,8.37,29.67Z"/><path class="cls-1" d="M8.37,27.22l-.87.49a.34.34,0,0,1-.34,0l-.82-.47c-.1-.06-.11-.15,0-.2l.86-.5a.4.4,0,0,1,.35,0l.81.47C8.44,27.07,8.46,27.16,8.37,27.22Z"/><path class="cls-1" d="M10.5,28.44l-.87.5a.37.37,0,0,1-.34,0l-.82-.47c-.1-.06-.11-.15,0-.2l.86-.5a.43.43,0,0,1,.35,0l.81.47C10.57,28.3,10.58,28.39,10.5,28.44Z"/><path class="cls-1" d="M12.61,27.22l-.86.5a.39.39,0,0,1-.35,0l-.81-.47c-.11-.06-.12-.15,0-.2l.87-.5a.37.37,0,0,1,.34,0l.82.47C12.69,27.08,12.7,27.17,12.61,27.22Z"/><path class="cls-1" d="M14.73,26l-.86.5a.4.4,0,0,1-.35,0L12.71,26c-.11-.06-.12-.14,0-.2l.86-.5a.4.4,0,0,1,.35,0l.82.47C14.81,25.86,14.82,26,14.73,26Z"/><path class="cls-1" d="M12.5,29.61l-.86.5a.4.4,0,0,1-.35,0l-.81-.47c-.1-.06-.12-.15,0-.2l.87-.5a.37.37,0,0,1,.34,0l.82.47C12.58,29.47,12.59,29.56,12.5,29.61Z"/><path class="cls-1" d="M14.62,28.38l-.86.5a.36.36,0,0,1-.35,0l-.81-.47c-.11-.06-.12-.15,0-.2l.87-.5a.41.41,0,0,1,.34,0l.82.48C14.7,28.24,14.71,28.33,14.62,28.38Z"/><path class="cls-1" d="M12.45,17.8c2.43,1.41,1.88,5.21-.55,6.62a9.77,9.77,0,0,1-8.81,0C.65,23,.14,19.19,2.57,17.78S10,16.4,12.45,17.8Z"/><path class="cls-1" d="M7.49,25.75a9.25,9.25,0,0,1-4.55-1.09,4.62,4.62,0,0,1-2.24-4,3.53,3.53,0,0,1,1.73-3.16c2.51-1.44,7.64-1.43,10.16,0a3.48,3.48,0,0,1,1.72,3.12,4.65,4.65,0,0,1-2.27,4A9.23,9.23,0,0,1,7.49,25.75Zm0-8.72a10,10,0,0,0-4.75,1,3,3,0,0,0-1.45,2.66,4.06,4.06,0,0,0,2,3.48,9.43,9.43,0,0,0,8.53,0,4.09,4.09,0,0,0,2-3.49,3,3,0,0,0-1.43-2.63h0A10.32,10.32,0,0,0,7.47,17Z"/><path class="cls-2" d="M12.17,17.63a10.34,10.34,0,0,0-9.35,0C.24,19.12.24,21.54,2.82,23a10.34,10.34,0,0,0,9.35,0C14.75,21.54,14.75,19.12,12.17,17.63Z"/><path class="cls-1" d="M7.49,24.42a9.84,9.84,0,0,1-4.82-1.15A3.55,3.55,0,0,1,.59,20.33a3.56,3.56,0,0,1,2.08-2.95,10.7,10.7,0,0,1,9.64,0,3.56,3.56,0,0,1,2.08,2.95,3.55,3.55,0,0,1-2.08,2.94A9.82,9.82,0,0,1,7.49,24.42Zm0-7.63A9.28,9.28,0,0,0,3,17.88a3,3,0,0,0-1.79,2.45A3,3,0,0,0,3,22.78a10,10,0,0,0,9.06,0,3,3,0,0,0,1.8-2.45A3,3,0,0,0,12,17.88,9.28,9.28,0,0,0,7.49,16.79Z"/><path class="cls-1" d="M10.94,18.61a8.64,8.64,0,0,0-6.87,0c-1.9.95-1.9,2.49,0,3.44a8.64,8.64,0,0,0,6.87,0C12.84,21.1,12.84,19.56,10.94,18.61Z"/><path class="cls-1" d="M7.5,23a8.21,8.21,0,0,1-3.56-.74,2.38,2.38,0,0,1-1.58-2,2.38,2.38,0,0,1,1.58-2,9,9,0,0,1,7.13,0,2.38,2.38,0,0,1,1.58,2,2.38,2.38,0,0,1-1.58,2A8.28,8.28,0,0,1,7.5,23Zm0-4.86a7.74,7.74,0,0,0-3.31.68c-.8.41-1.26.94-1.26,1.47s.46,1.06,1.26,1.46a8.37,8.37,0,0,0,6.62,0c.81-.4,1.27-.93,1.27-1.46s-.46-1.06-1.27-1.47h0A7.71,7.71,0,0,0,7.5,18.18Z"/><path class="cls-2" d="M10.92,19.62a8.64,8.64,0,0,0-6.87,0,2.6,2.6,0,0,0-1.31,1.2,2.62,2.62,0,0,0,1.32,1.23,8.64,8.64,0,0,0,6.87,0,2.65,2.65,0,0,0,1.31-1.21A2.57,2.57,0,0,0,10.92,19.62Z"/><path class="cls-1" d="M7.5,23a8.28,8.28,0,0,1-3.57-.74,2.82,2.82,0,0,1-1.45-1.37l0-.11,0-.11a2.89,2.89,0,0,1,1.44-1.35,9,9,0,0,1,7.13,0h0a2.89,2.89,0,0,1,1.46,1.37l0,.12,0,.11a3,3,0,0,1-1.45,1.34A8.21,8.21,0,0,1,7.5,23ZM3.06,20.82a2.53,2.53,0,0,0,1.13,1,8.37,8.37,0,0,0,6.62,0,2.58,2.58,0,0,0,1.12-.95,2.53,2.53,0,0,0-1.13-1h0a8.37,8.37,0,0,0-6.62,0A2.53,2.53,0,0,0,3.06,20.82Z"/><rect class="cls-2" x="4.53" y="18.33" width="0.43" height="1.84"/><rect class="cls-2" x="9.93" y="18.33" width="0.43" height="1.84"/><rect class="cls-2" x="3.3" y="23.38" width="0.43" height="2.03"/><rect class="cls-2" x="12.02" y="23.06" width="0.43" height="2.03"/><path class="cls-2" d="M1.83,14.68v4.9A2.82,2.82,0,0,0,3.49,21.9a8.9,8.9,0,0,0,8,0,2.84,2.84,0,0,0,1.66-2.32V14.52Z"/><path class="cls-1" d="M7.49,23.13a8.52,8.52,0,0,1-4.15-1,3.08,3.08,0,0,1-1.8-2.56V14.39l11.9-.16v5.35a3.08,3.08,0,0,1-1.8,2.56A8.49,8.49,0,0,1,7.49,23.13ZM2.12,15v4.62a2.55,2.55,0,0,0,1.51,2.07,8.54,8.54,0,0,0,7.72,0,2.56,2.56,0,0,0,1.52-2.07V14.81Z"/><path class="cls-1" d="M8.49,14.59v6.19a2.89,2.89,0,0,1-1,2.07,8.2,8.2,0,0,0,4-1,2.82,2.82,0,0,0,1.66-2.32V14.52Z"/><path class="cls-1" d="M6.78,23.14l.51-.49a2.62,2.62,0,0,0,.91-1.87V14.3l5.23-.06v5.34a3.08,3.08,0,0,1-1.8,2.56,8.42,8.42,0,0,1-4.14,1Zm2-8.27v5.91a2.93,2.93,0,0,1-.62,1.76,7.45,7.45,0,0,0,3.19-.89,2.56,2.56,0,0,0,1.52-2.07V14.82Z"/><path class="cls-1" d="M12.44,9.78c2.43,1.41,1.88,5.21-.55,6.61a9.72,9.72,0,0,1-8.82,0C.64,15,.13,11.16,2.56,9.76S10,8.37,12.44,9.78Z"/><path class="cls-1" d="M7.48,17.73a9.36,9.36,0,0,1-4.55-1.09,4.65,4.65,0,0,1-2.24-4A3.52,3.52,0,0,1,2.42,9.51c2.51-1.45,7.63-1.44,10.16,0a3.49,3.49,0,0,1,1.72,3.12,4.65,4.65,0,0,1-2.27,4A9.33,9.33,0,0,1,7.48,17.73ZM7.45,9a10.12,10.12,0,0,0-4.74,1,3,3,0,0,0-1.45,2.67,4.07,4.07,0,0,0,2,3.48,9.49,9.49,0,0,0,8.53,0,4.1,4.1,0,0,0,2-3.5A2.92,2.92,0,0,0,12.29,10,10.27,10.27,0,0,0,7.45,9Z"/><path class="cls-2" d="M12.16,9.6a10.34,10.34,0,0,0-9.35,0C.22,11.09.22,13.51,2.81,15a10.34,10.34,0,0,0,9.35,0C14.74,13.51,14.74,11.09,12.16,9.6Z"/><path class="cls-1" d="M7.48,16.4a9.84,9.84,0,0,1-4.82-1.15A3.55,3.55,0,0,1,.58,12.3,3.55,3.55,0,0,1,2.66,9.36a10.63,10.63,0,0,1,9.64,0,3.55,3.55,0,0,1,2.08,2.94,3.55,3.55,0,0,1-2.08,2.95A9.82,9.82,0,0,1,7.48,16.4Zm0-7.63A9.28,9.28,0,0,0,3,9.85,3,3,0,0,0,1.16,12.3,3,3,0,0,0,3,14.75a10,10,0,0,0,9.06,0,3,3,0,0,0,1.8-2.45A3,3,0,0,0,12,9.85,9.28,9.28,0,0,0,7.48,8.77Z"/><path class="cls-1" d="M10.93,10.58a8.64,8.64,0,0,0-6.87,0c-1.9.95-1.9,2.49,0,3.44a8.64,8.64,0,0,0,6.87,0C12.83,13.07,12.83,11.53,10.93,10.58Z"/><path class="cls-1" d="M7.49,15a8.21,8.21,0,0,1-3.56-.74,2.38,2.38,0,0,1-1.58-2,2.38,2.38,0,0,1,1.58-2,8.93,8.93,0,0,1,7.13,0,2.38,2.38,0,0,1,1.58,2,2.38,2.38,0,0,1-1.58,2A8.28,8.28,0,0,1,7.49,15Zm0-4.87a7.59,7.59,0,0,0-3.31.69c-.8.4-1.26.94-1.26,1.46s.46,1.06,1.26,1.47a8.37,8.37,0,0,0,6.62,0c.81-.41,1.27-.94,1.27-1.47s-.46-1.06-1.27-1.46A7.56,7.56,0,0,0,7.49,10.15Z"/><path class="cls-2" d="M10.91,11.59a8.64,8.64,0,0,0-6.87,0A2.57,2.57,0,0,0,2.73,12.8,2.57,2.57,0,0,0,4.05,14a8.64,8.64,0,0,0,6.87,0,2.6,2.6,0,0,0,1.31-1.2A2.58,2.58,0,0,0,10.91,11.59Z"/><path class="cls-1" d="M7.49,15a8.25,8.25,0,0,1-3.57-.74A2.9,2.9,0,0,1,2.46,12.9l0-.11.05-.11a2.88,2.88,0,0,1,1.44-1.34,8.93,8.93,0,0,1,7.13,0h0a2.85,2.85,0,0,1,1.46,1.37l0,.11,0,.11a3,3,0,0,1-1.45,1.35A8.21,8.21,0,0,1,7.49,15ZM3.05,12.8a2.53,2.53,0,0,0,1.13,1,8.37,8.37,0,0,0,6.62,0,2.58,2.58,0,0,0,1.12-.95,2.45,2.45,0,0,0-1.14-1,8.26,8.26,0,0,0-6.61,0A2.47,2.47,0,0,0,3.05,12.8Z"/><rect class="cls-2" x="4.52" y="10.3" width="0.43" height="1.84"/><rect class="cls-2" x="9.92" y="10.3" width="0.43" height="1.84"/><path class="cls-2" d="M8.64,17.6v-.43a6.44,6.44,0,0,0,4-1.65l.3.31A6.76,6.76,0,0,1,8.64,17.6Z"/><rect class="cls-2" x="3.29" y="15.35" width="0.43" height="2.03"/><rect class="cls-2" x="12.02" y="16.12" width="0.43" height="4.72" transform="translate(-0.04 0.03) rotate(-0.13)"/><path class="cls-2" d="M1.82,6.65v4.91a2.8,2.8,0,0,0,1.66,2.31,8.83,8.83,0,0,0,8,0,2.81,2.81,0,0,0,1.65-2.31V6.5Z"/><path class="cls-1" d="M7.48,15.11a8.52,8.52,0,0,1-4.15-1,3.08,3.08,0,0,1-1.8-2.56V6.37l11.9-.16v5.35a3.08,3.08,0,0,1-1.8,2.56A8.49,8.49,0,0,1,7.48,15.11ZM2.1,6.93v4.63a2.55,2.55,0,0,0,1.52,2.06,8.54,8.54,0,0,0,7.72,0,2.55,2.55,0,0,0,1.52-2.06V6.79Z"/><path class="cls-1" d="M8.48,6.56v6.2a2.92,2.92,0,0,1-1,2.07,8.1,8.1,0,0,0,4-1,2.8,2.8,0,0,0,1.66-2.31V6.5Z"/><path class="cls-1" d="M6.77,15.11l.51-.49a2.6,2.6,0,0,0,.91-1.86V6.28l5.23-.07v5.35a3.08,3.08,0,0,1-1.8,2.56,8.42,8.42,0,0,1-4.14,1Zm2-8.27v5.92a2.93,2.93,0,0,1-.62,1.76,7.45,7.45,0,0,0,3.19-.9,2.53,2.53,0,0,0,1.52-2.06V6.79Z"/><path class="cls-1" d="M12.44,1.57c2.43,1.41,1.88,5.21-.55,6.62a9.79,9.79,0,0,1-8.82,0C.64,6.78.13,3,2.56,1.55S10,.17,12.44,1.57Z"/><path class="cls-1" d="M7.48,9.52A9.25,9.25,0,0,1,2.93,8.43a4.62,4.62,0,0,1-2.24-4A3.53,3.53,0,0,1,2.42,1.3c2.51-1.45,7.63-1.43,10.16,0A3.48,3.48,0,0,1,14.3,4.45a4.65,4.65,0,0,1-2.27,4A9.23,9.23,0,0,1,7.48,9.52ZM7.45.8a10,10,0,0,0-4.74,1A3,3,0,0,0,1.26,4.46a4.06,4.06,0,0,0,2,3.48,9.43,9.43,0,0,0,8.53,0,4.1,4.1,0,0,0,2-3.49,2.94,2.94,0,0,0-1.44-2.63A10.27,10.27,0,0,0,7.45.8Z"/><path class="cls-2" d="M12.16,1.4a10.34,10.34,0,0,0-9.35,0C.22,2.89.22,5.31,2.81,6.8a10.34,10.34,0,0,0,9.35,0C14.74,5.31,14.74,2.89,12.16,1.4Z"/><path class="cls-1" d="M7.48,8.19A9.84,9.84,0,0,1,2.66,7,3.55,3.55,0,0,1,.58,4.1,3.55,3.55,0,0,1,2.66,1.15a10.7,10.7,0,0,1,9.64,0A3.55,3.55,0,0,1,14.38,4.1,3.55,3.55,0,0,1,12.3,7,9.82,9.82,0,0,1,7.48,8.19Zm0-7.63A9.17,9.17,0,0,0,3,1.65,3,3,0,0,0,1.16,4.1,3,3,0,0,0,3,6.55a10,10,0,0,0,9.06,0,3,3,0,0,0,1.8-2.45A3,3,0,0,0,12,1.65,9.17,9.17,0,0,0,7.48.56Z"/><path class="cls-1" d="M10.93,2.38a8.64,8.64,0,0,0-6.87,0c-1.9,1-1.9,2.49,0,3.44a8.64,8.64,0,0,0,6.87,0C12.83,4.87,12.83,3.33,10.93,2.38Z"/><path class="cls-1" d="M7.49,6.81a8.21,8.21,0,0,1-3.56-.74,2.38,2.38,0,0,1-1.58-2,2.38,2.38,0,0,1,1.58-2,9,9,0,0,1,7.13,0,2.38,2.38,0,0,1,1.58,2,2.38,2.38,0,0,1-1.58,2A8.28,8.28,0,0,1,7.49,6.81ZM7.49,2a7.74,7.74,0,0,0-3.31.68c-.8.41-1.26.94-1.26,1.47s.46,1.06,1.26,1.46a8.37,8.37,0,0,0,6.62,0c.81-.4,1.27-.93,1.27-1.46S11.61,3,10.8,2.63A7.71,7.71,0,0,0,7.49,2Z"/><path class="cls-2" d="M10.91,3.39A8.64,8.64,0,0,0,4,3.39a2.6,2.6,0,0,0-1.31,1.2A2.58,2.58,0,0,0,4.05,5.82a8.64,8.64,0,0,0,6.87,0,2.65,2.65,0,0,0,1.31-1.21A2.53,2.53,0,0,0,10.91,3.39Z"/><path class="cls-1" d="M7.49,6.81a8.25,8.25,0,0,1-3.57-.74A2.89,2.89,0,0,1,2.46,4.7l0-.11.05-.11A2.89,2.89,0,0,1,3.91,3.13a9,9,0,0,1,7.13,0h0A2.89,2.89,0,0,1,12.5,4.5l0,.12,0,.11a3,3,0,0,1-1.45,1.34A8.21,8.21,0,0,1,7.49,6.81ZM3.05,4.59a2.53,2.53,0,0,0,1.13,1,8.37,8.37,0,0,0,6.62,0,2.58,2.58,0,0,0,1.12-.95,2.51,2.51,0,0,0-1.14-1,8.34,8.34,0,0,0-6.61,0A2.47,2.47,0,0,0,3.05,4.59Z"/><rect class="cls-2" x="4.52" y="2.09" width="0.43" height="1.84"/><rect class="cls-2" x="9.92" y="2.09" width="0.43" height="1.84"/><path class="cls-2" d="M8.64,9.39V9a6.46,6.46,0,0,0,4-1.64l.3.3A6.76,6.76,0,0,1,8.64,9.39Z"/><rect class="cls-2" x="3.29" y="7.15" width="0.43" height="2.03"/><rect class="cls-2" x="12.02" y="7.96" width="0.43" height="4.34"/><path class="cls-1" d="M7.36,3.67a2.25,2.25,0,0,0-2,0,.61.61,0,0,0,0,1.16,2.25,2.25,0,0,0,2,0A.61.61,0,0,0,7.36,3.67Z"/><path class="cls-1" d="M6.37,5.35a2.28,2.28,0,0,1-1.15-.28,1,1,0,0,1-.55-.82,1,1,0,0,1,.55-.82,2.5,2.5,0,0,1,2.29,0,1,1,0,0,1,.55.82,1,1,0,0,1-.55.82A2.27,2.27,0,0,1,6.37,5.35Zm0-1.63a1.79,1.79,0,0,0-.86.2c-.17.1-.27.22-.27.33s.1.23.27.33a1.91,1.91,0,0,0,1.71,0c.17-.1.27-.22.27-.33s-.1-.23-.27-.33A1.78,1.78,0,0,0,6.37,3.72Z"/><path class="cls-3" d="M7.36,3.05a2.18,2.18,0,0,0-2,0,.61.61,0,0,0,0,1.15,2.18,2.18,0,0,0,2,0A.61.61,0,0,0,7.36,3.05Z"/><path class="cls-1" d="M6.37,4.73a2.3,2.3,0,0,1-1.15-.28,1,1,0,0,1-.55-.82,1,1,0,0,1,.55-.83,2.5,2.5,0,0,1,2.29,0h0a1,1,0,0,1,.55.83,1,1,0,0,1-.55.82A2.27,2.27,0,0,1,6.37,4.73Zm0-1.63a1.79,1.79,0,0,0-.86.2c-.17.1-.27.22-.27.33s.1.23.27.33A2,2,0,0,0,7.22,4c.17-.1.27-.22.27-.33s-.1-.23-.27-.33A1.78,1.78,0,0,0,6.37,3.1Z"/><rect class="cls-3" x="3.23" y="9.87" width="0.57" height="2.71" transform="translate(-0.05 0.01) rotate(-0.23)"/><rect class="cls-3" x="3.23" y="17.89" width="0.57" height="2.71" transform="translate(-0.08 0.01) rotate(-0.23)"/><path class="cls-1" d="M19,28.16c2.44,1.41,1.89,5.21-.55,6.62a9.77,9.77,0,0,1-8.81,0c-2.43-1.41-2.95-5.23-.51-6.64S16.54,26.76,19,28.16Z"/><path class="cls-1" d="M14,36.11A9.23,9.23,0,0,1,9.47,35a4.61,4.61,0,0,1-2.25-4A3.53,3.53,0,0,1,9,27.89c2.51-1.44,7.64-1.43,10.17,0A3.47,3.47,0,0,1,20.83,31a4.66,4.66,0,0,1-2.26,4A9.28,9.28,0,0,1,14,36.11Zm0-8.72a10,10,0,0,0-4.75,1,3,3,0,0,0-1.45,2.66,4.06,4.06,0,0,0,2,3.48,9.43,9.43,0,0,0,8.53,0,4.09,4.09,0,0,0,2-3.49,2.93,2.93,0,0,0-1.43-2.63h0A10.3,10.3,0,0,0,14,27.39Z"/><path class="cls-2" d="M18.69,28a10.34,10.34,0,0,0-9.35,0c-2.58,1.49-2.58,3.91,0,5.4a10.34,10.34,0,0,0,9.35,0C21.27,31.9,21.27,29.48,18.69,28Z"/><path class="cls-1" d="M14,34.78A9.82,9.82,0,0,1,9.2,33.63a3.55,3.55,0,0,1-2.08-2.94,3.56,3.56,0,0,1,2.08-3,10.68,10.68,0,0,1,9.63,0,3.54,3.54,0,0,1,2.08,3,3.53,3.53,0,0,1-2.08,2.94A9.78,9.78,0,0,1,14,34.78Zm0-7.63a9.26,9.26,0,0,0-4.53,1.09,3,3,0,0,0-1.8,2.45,3,3,0,0,0,1.8,2.45,10,10,0,0,0,9.06,0,3,3,0,0,0,1.79-2.45,3,3,0,0,0-1.79-2.45A9.28,9.28,0,0,0,14,27.15Z"/><path class="cls-1" d="M17.46,29a8.64,8.64,0,0,0-6.87,0c-1.9,1-1.9,2.49,0,3.44a8.64,8.64,0,0,0,6.87,0C19.36,31.46,19.36,29.92,17.46,29Z"/><path class="cls-1" d="M14,33.4a8.28,8.28,0,0,1-3.57-.74,2.38,2.38,0,0,1-1.58-2,2.38,2.38,0,0,1,1.58-2,9,9,0,0,1,7.13,0h0a2.38,2.38,0,0,1,1.58,2,2.38,2.38,0,0,1-1.58,2A8.21,8.21,0,0,1,14,33.4Zm0-4.86a7.71,7.71,0,0,0-3.31.68c-.81.41-1.27.94-1.27,1.47s.46,1.06,1.27,1.46a8.37,8.37,0,0,0,6.62,0c.8-.4,1.26-.93,1.26-1.46s-.46-1.06-1.26-1.47h0A7.74,7.74,0,0,0,14,28.54Z"/><path class="cls-2" d="M17.45,30a8.66,8.66,0,0,0-6.88,0,2.68,2.68,0,0,0-1.31,1.2,2.65,2.65,0,0,0,1.33,1.23,8.64,8.64,0,0,0,6.87,0,2.69,2.69,0,0,0,1.31-1.21A2.57,2.57,0,0,0,17.45,30Z"/><path class="cls-1" d="M14,33.4a8.21,8.21,0,0,1-3.56-.74A2.85,2.85,0,0,1,9,31.29L9,31.18,9,31.07a3,3,0,0,1,1.45-1.35,9,9,0,0,1,7.13,0h0A2.9,2.9,0,0,1,19,31.09l0,.12,0,.11a2.88,2.88,0,0,1-1.44,1.34A8.28,8.28,0,0,1,14,33.4ZM9.58,31.18a2.47,2.47,0,0,0,1.13,1,8.37,8.37,0,0,0,6.62,0,2.53,2.53,0,0,0,1.12-.95,2.53,2.53,0,0,0-1.13-1h0a8.37,8.37,0,0,0-6.62,0A2.58,2.58,0,0,0,9.58,31.18Z"/><rect class="cls-2" x="11.06" y="28.69" width="0.43" height="1.84"/><rect class="cls-2" x="16.46" y="28.69" width="0.43" height="1.84"/><rect class="cls-2" x="9.83" y="33.74" width="0.43" height="2.03"/><rect class="cls-2" x="18.54" y="33.42" width="0.43" height="2.03"/><path class="cls-2" d="M8.35,25v4.9A2.81,2.81,0,0,0,10,32.25a8.83,8.83,0,0,0,8,0,2.79,2.79,0,0,0,1.66-2.31V24.88Z"/><path class="cls-1" d="M14,33.49a8.46,8.46,0,0,1-4.15-1,3.08,3.08,0,0,1-1.8-2.56V24.75L20,24.59v5.35a3.08,3.08,0,0,1-1.81,2.56A8.45,8.45,0,0,1,14,33.49ZM8.64,25.32v4.62A2.56,2.56,0,0,0,10.16,32a8.54,8.54,0,0,0,7.72,0,2.55,2.55,0,0,0,1.51-2.07V25.17Z"/><path class="cls-1" d="M15,25v6.19a2.87,2.87,0,0,1-1,2.07,8.23,8.23,0,0,0,4-1,2.84,2.84,0,0,0,1.66-2.32V24.88Z"/><path class="cls-1" d="M13.31,33.5l.51-.49a2.66,2.66,0,0,0,.91-1.87V24.66L20,24.59v5.35a3.08,3.08,0,0,1-1.8,2.56,8.38,8.38,0,0,1-4.13,1Zm2-8.27v5.91a2.94,2.94,0,0,1-.63,1.76,7.49,7.49,0,0,0,3.2-.89,2.57,2.57,0,0,0,1.51-2.07V25.17Z"/><path class="cls-1" d="M19,20.14c2.44,1.41,1.89,5.21-.55,6.61a9.7,9.7,0,0,1-8.81,0c-2.43-1.4-2.95-5.23-.51-6.63S16.53,18.73,19,20.14Z"/><path class="cls-1" d="M14,28.09A9.33,9.33,0,0,1,9.46,27a4.64,4.64,0,0,1-2.25-4,3.52,3.52,0,0,1,1.73-3.16c2.51-1.45,7.64-1.44,10.17,0A3.48,3.48,0,0,1,20.82,23a4.67,4.67,0,0,1-2.26,4A9.39,9.39,0,0,1,14,28.09Zm0-8.72a10.16,10.16,0,0,0-4.75,1A3,3,0,0,0,7.78,23a4.07,4.07,0,0,0,2,3.48,9.49,9.49,0,0,0,8.53,0,4.1,4.1,0,0,0,2-3.5,2.91,2.91,0,0,0-1.43-2.62A10.3,10.3,0,0,0,14,19.37Z"/><path class="cls-2" d="M18.68,20a10.34,10.34,0,0,0-9.35,0c-2.58,1.49-2.58,3.91,0,5.4a10.34,10.34,0,0,0,9.35,0C21.26,23.87,21.26,21.45,18.68,20Z"/><path class="cls-1" d="M14,26.76a9.82,9.82,0,0,1-4.82-1.15,3.55,3.55,0,0,1-2.08-2.95,3.55,3.55,0,0,1,2.08-2.94,10.61,10.61,0,0,1,9.63,0,3.55,3.55,0,0,1,2.08,2.94,3.55,3.55,0,0,1-2.08,2.95A9.78,9.78,0,0,1,14,26.76Zm0-7.63a9.29,9.29,0,0,0-4.54,1.08,3,3,0,0,0-1.79,2.45,3,3,0,0,0,1.79,2.45,10,10,0,0,0,9.07,0,3,3,0,0,0,1.79-2.45,3,3,0,0,0-1.79-2.45A9.28,9.28,0,0,0,14,19.13Z"/><path class="cls-1" d="M17.45,20.94a8.64,8.64,0,0,0-6.87,0c-1.9.95-1.9,2.49,0,3.44a8.64,8.64,0,0,0,6.87,0C19.35,23.43,19.35,21.89,17.45,20.94Z"/><path class="cls-1" d="M14,25.38a8.25,8.25,0,0,1-3.57-.74,2.38,2.38,0,0,1-1.58-2,2.38,2.38,0,0,1,1.58-2,8.93,8.93,0,0,1,7.13,0,2.38,2.38,0,0,1,1.58,2,2.38,2.38,0,0,1-1.58,2A8.21,8.21,0,0,1,14,25.38Zm0-4.87a7.56,7.56,0,0,0-3.31.69c-.81.4-1.27.93-1.27,1.46s.46,1.06,1.27,1.47a8.37,8.37,0,0,0,6.62,0c.8-.41,1.26-.94,1.26-1.47s-.46-1.06-1.26-1.46A7.59,7.59,0,0,0,14,20.51Z"/><path class="cls-2" d="M17.44,22a8.66,8.66,0,0,0-6.88,0,2.61,2.61,0,0,0-1.31,1.21,2.65,2.65,0,0,0,1.32,1.22,8.66,8.66,0,0,0,6.88,0,2.64,2.64,0,0,0,1.31-1.2A2.66,2.66,0,0,0,17.44,22Z"/><path class="cls-1" d="M14,25.38a8.21,8.21,0,0,1-3.56-.74A2.86,2.86,0,0,1,9,23.26l-.05-.11L9,23a3,3,0,0,1,1.45-1.34,8.93,8.93,0,0,1,7.13,0h0A2.86,2.86,0,0,1,19,23.07l.05.11-.05.11a2.89,2.89,0,0,1-1.44,1.35A8.28,8.28,0,0,1,14,25.38ZM9.57,23.16a2.53,2.53,0,0,0,1.13,1,8.37,8.37,0,0,0,6.62,0,2.53,2.53,0,0,0,1.12-.95,2.47,2.47,0,0,0-1.13-1h0a8.28,8.28,0,0,0-6.62,0A2.58,2.58,0,0,0,9.57,23.16Z"/><rect class="cls-2" x="11.05" y="20.66" width="0.43" height="1.84"/><rect class="cls-2" x="16.45" y="20.66" width="0.43" height="1.84"/><path class="cls-2" d="M15.17,28v-.43a6.46,6.46,0,0,0,4-1.65l.3.31A6.8,6.8,0,0,1,15.17,28Z"/><rect class="cls-2" x="9.82" y="25.71" width="0.43" height="2.03"/><rect class="cls-2" x="18.55" y="26.48" width="0.43" height="4.72" transform="translate(-0.07 0.04) rotate(-0.13)"/><path class="cls-2" d="M8.34,17v4.91A2.84,2.84,0,0,0,10,24.23a8.83,8.83,0,0,0,8,0,2.82,2.82,0,0,0,1.66-2.31V16.86Z"/><path class="cls-1" d="M14,25.47a8.46,8.46,0,0,1-4.15-1,3.08,3.08,0,0,1-1.8-2.56V16.73L20,16.57v5.35a3.06,3.06,0,0,1-1.8,2.56A8.45,8.45,0,0,1,14,25.47ZM8.63,17.29v4.63A2.55,2.55,0,0,0,10.14,24a8.56,8.56,0,0,0,7.73,0,2.55,2.55,0,0,0,1.51-2.06V17.15Z"/><path class="cls-1" d="M15,16.92v6.2a2.91,2.91,0,0,1-1,2.07,8.15,8.15,0,0,0,4-1,2.82,2.82,0,0,0,1.66-2.31V16.86Z"/><path class="cls-1" d="M13.3,25.47l.51-.49a2.64,2.64,0,0,0,.91-1.86V16.64l5.22-.07v5.35a3.08,3.08,0,0,1-1.8,2.56,8.41,8.41,0,0,1-4.13,1Zm2-8.27v5.92a2.94,2.94,0,0,1-.63,1.76,7.55,7.55,0,0,0,3.19-.9,2.53,2.53,0,0,0,1.52-2.06V17.15Z"/><path class="cls-1" d="M19,11.93c2.44,1.41,1.89,5.21-.55,6.62a9.77,9.77,0,0,1-8.81,0c-2.43-1.41-2.95-5.24-.51-6.64S16.53,10.53,19,11.93Z"/><path class="cls-1" d="M14,19.88a9.23,9.23,0,0,1-4.55-1.09,4.61,4.61,0,0,1-2.25-4,3.53,3.53,0,0,1,1.73-3.16c2.51-1.45,7.64-1.43,10.17,0a3.47,3.47,0,0,1,1.71,3.12,4.66,4.66,0,0,1-2.26,4A9.28,9.28,0,0,1,14,19.88Zm0-8.72a10,10,0,0,0-4.75,1,3,3,0,0,0-1.45,2.66,4.06,4.06,0,0,0,2,3.48,9.43,9.43,0,0,0,8.53,0,4.1,4.1,0,0,0,2-3.49,2.93,2.93,0,0,0-1.43-2.63A10.3,10.3,0,0,0,14,11.16Z"/><ellipse class="cls-2" cx="14.01" cy="14.46" rx="6.61" ry="3.82"/><path class="cls-1" d="M14,18.55A9.82,9.82,0,0,1,9.19,17.4a3.55,3.55,0,0,1-2.08-2.94,3.55,3.55,0,0,1,2.08-3,10.68,10.68,0,0,1,9.63,0,3.55,3.55,0,0,1,2.08,3,3.55,3.55,0,0,1-2.08,2.94A9.78,9.78,0,0,1,14,18.55Zm0-7.63A9.19,9.19,0,0,0,9.47,12a3,3,0,0,0-1.79,2.45,3,3,0,0,0,1.79,2.45,10.06,10.06,0,0,0,9.07,0,3,3,0,0,0,1.79-2.45A3,3,0,0,0,18.54,12,9.17,9.17,0,0,0,14,10.92Z"/><path class="cls-1" d="M17.45,12.74a8.64,8.64,0,0,0-6.87,0c-1.9.95-1.9,2.49,0,3.44a8.64,8.64,0,0,0,6.87,0C19.35,15.23,19.35,13.69,17.45,12.74Z"/><path class="cls-1" d="M14,17.17a8.25,8.25,0,0,1-3.57-.74,2.38,2.38,0,0,1-1.58-2,2.38,2.38,0,0,1,1.58-2,9,9,0,0,1,7.13,0,2.38,2.38,0,0,1,1.58,2,2.38,2.38,0,0,1-1.58,2A8.21,8.21,0,0,1,14,17.17Zm0-4.86a7.71,7.71,0,0,0-3.31.68c-.81.41-1.27.94-1.27,1.47s.46,1.06,1.27,1.46a8.37,8.37,0,0,0,6.62,0c.8-.4,1.26-.94,1.26-1.46S18.13,13.4,17.33,13A7.74,7.74,0,0,0,14,12.31Z"/><path class="cls-2" d="M17.44,13.75a8.66,8.66,0,0,0-6.88,0A2.64,2.64,0,0,0,9.25,15a2.66,2.66,0,0,0,1.32,1.23,8.66,8.66,0,0,0,6.88,0A2.69,2.69,0,0,0,18.76,15,2.61,2.61,0,0,0,17.44,13.75Z"/><path class="cls-1" d="M14,17.17a8.21,8.21,0,0,1-3.56-.74A2.89,2.89,0,0,1,9,15.06L8.94,15,9,14.84a3,3,0,0,1,1.45-1.35,9,9,0,0,1,7.13,0h0A2.9,2.9,0,0,1,19,14.86l.05.11-.05.12a2.88,2.88,0,0,1-1.44,1.34A8.28,8.28,0,0,1,14,17.17ZM9.57,15a2.53,2.53,0,0,0,1.13,1,8.37,8.37,0,0,0,6.62,0A2.53,2.53,0,0,0,18.44,15a2.53,2.53,0,0,0-1.13-1h0a8.37,8.37,0,0,0-6.62,0A2.58,2.58,0,0,0,9.57,15Z"/><rect class="cls-2" x="11.05" y="12.45" width="0.43" height="1.84"/><rect class="cls-2" x="16.45" y="12.45" width="0.43" height="1.84"/><path class="cls-2" d="M15.17,19.75v-.43a6.46,6.46,0,0,0,4-1.65l.3.31A6.8,6.8,0,0,1,15.17,19.75Z"/><rect class="cls-2" x="9.82" y="17.51" width="0.43" height="2.03"/><rect class="cls-2" x="18.54" y="18.32" width="0.43" height="4.34"/><path class="cls-1" d="M13.89,14a2.27,2.27,0,0,0-2,0,.61.61,0,0,0,0,1.16,2.27,2.27,0,0,0,2,0A.61.61,0,0,0,13.89,14Z"/><path class="cls-1" d="M12.89,15.71a2.27,2.27,0,0,1-1.14-.28.88.88,0,0,1,0-1.64,2.48,2.48,0,0,1,2.28,0,.88.88,0,0,1,0,1.64A2.27,2.27,0,0,1,12.89,15.71Zm0-1.63a1.78,1.78,0,0,0-.85.2c-.18.1-.27.22-.27.33s.09.23.27.33a1.89,1.89,0,0,0,1.7,0c.18-.1.27-.22.27-.33s-.09-.23-.27-.33A1.78,1.78,0,0,0,12.89,14.08Z"/><path class="cls-3" d="M13.89,13.41a2.2,2.2,0,0,0-2,0,.61.61,0,0,0,0,1.15,2.2,2.2,0,0,0,2,0A.61.61,0,0,0,13.89,13.41Z"/><path class="cls-1" d="M12.89,15.09a2.27,2.27,0,0,1-1.14-.28,1,1,0,0,1-.56-.82,1,1,0,0,1,.56-.83,2.48,2.48,0,0,1,2.28,0h0a1,1,0,0,1,.56.83,1,1,0,0,1-.56.82A2.27,2.27,0,0,1,12.89,15.09Zm0-1.63a1.67,1.67,0,0,0-.85.2c-.18.1-.27.22-.27.33s.09.23.27.33a2,2,0,0,0,1.7,0c.18-.1.27-.22.27-.33s-.09-.23-.27-.33A1.67,1.67,0,0,0,12.89,13.46Z"/><rect class="cls-3" x="9.75" y="20.23" width="0.57" height="2.71" transform="translate(-0.08 0.04) rotate(-0.22)"/><rect class="cls-3" x="9.76" y="28.25" width="0.57" height="2.71" transform="translate(-0.12 0.04) rotate(-0.23)"/></g></g></svg>