<svg xmlns="http://www.w3.org/2000/svg" viewBox="0 0 51.24 87.51"><defs><style>.cls-1{fill:#16110d;}.cls-2{fill:#febd33;}.cls-3{fill:#fceccc;}.cls-4{fill:#15100c;}.cls-5{fill:#ffbe2e;}.cls-6{fill:#fdedcc;}.cls-7{fill:#fbebcc;}.cls-8{fill:#140f0c;}</style></defs><g id="Layer_2" data-name="Layer 2"><g id="content"><g id="_1" data-name="1"><path class="cls-1" d="M14.09,71.82c.23.13.23.34,0,.48a1,1,0,0,1-.84,0c-.23-.14-.23-.35,0-.48A.89.89,0,0,1,14.09,71.82Z"/><path class="cls-1" d="M16.26,70.56a.25.25,0,0,1,0,.48.93.93,0,0,1-.83,0,.25.25,0,0,1,0-.48A.93.93,0,0,1,16.26,70.56Z"/><path class="cls-1" d="M18.44,69.3a.25.25,0,0,1,0,.48.87.87,0,0,1-.83,0,.25.25,0,0,1,0-.48A.93.93,0,0,1,18.44,69.3Z"/><path class="cls-1" d="M20.62,68a.26.26,0,0,1,0,.49,1,1,0,0,1-.84,0,.26.26,0,0,1,0-.49A1,1,0,0,1,20.62,68Z"/><path class="cls-1" d="M22.79,66.79a.25.25,0,0,1,0,.48.93.93,0,0,1-.83,0,.25.25,0,0,1,0-.48A.93.93,0,0,1,22.79,66.79Z"/><path class="cls-1" d="M11.91,70.56a.25.25,0,0,1,0,.48.93.93,0,0,1-.83,0,.25.25,0,0,1,0-.48A.93.93,0,0,1,11.91,70.56Z"/><path class="cls-1" d="M14.09,69.3a.25.25,0,0,1,0,.48.89.89,0,0,1-.84,0,.25.25,0,0,1,0-.48A1,1,0,0,1,14.09,69.3Z"/><path class="cls-1" d="M16.26,68a.26.26,0,0,1,0,.49.93.93,0,0,1-.83,0,.26.26,0,0,1,0-.49A.93.93,0,0,1,16.26,68Z"/><path class="cls-1" d="M18.44,66.79a.25.25,0,0,1,0,.48.93.93,0,0,1-.83,0,.25.25,0,0,1,0-.48A.93.93,0,0,1,18.44,66.79Z"/><path class="cls-1" d="M20.62,65.53a.25.25,0,0,1,0,.48,1,1,0,0,1-.84,0,.25.25,0,0,1,0-.48A1,1,0,0,1,20.62,65.53Z"/><ellipse class="cls-1" cx="9.32" cy="69.54" rx="0.59" ry="0.34"/><path class="cls-1" d="M11.91,68a.26.26,0,0,1,0,.49.93.93,0,0,1-.83,0,.26.26,0,0,1,0-.49A.93.93,0,0,1,11.91,68Z"/><ellipse class="cls-1" cx="13.67" cy="67.03" rx="0.59" ry="0.34"/><path class="cls-1" d="M16.26,65.53a.25.25,0,0,1,0,.48.93.93,0,0,1-.83,0,.25.25,0,0,1,0-.48A.93.93,0,0,1,16.26,65.53Z"/><path class="cls-1" d="M18.44,64.27c.23.14.23.35,0,.48a.87.87,0,0,1-.83,0c-.23-.13-.23-.34,0-.48A.93.93,0,0,1,18.44,64.27Z"/><path class="cls-1" d="M7.56,68a.26.26,0,0,1,0,.49,1,1,0,0,1-.84,0,.26.26,0,0,1,0-.49A1,1,0,0,1,7.56,68Z"/><path class="cls-1" d="M9.73,66.79a.25.25,0,0,1,0,.48.93.93,0,0,1-.83,0,.25.25,0,0,1,0-.48A.93.93,0,0,1,9.73,66.79Z"/><path class="cls-1" d="M11.91,65.53a.25.25,0,0,1,0,.48.93.93,0,0,1-.83,0,.25.25,0,0,1,0-.48A.93.93,0,0,1,11.91,65.53Z"/><path class="cls-1" d="M14.09,64.27c.23.14.23.35,0,.48a.89.89,0,0,1-.84,0c-.23-.13-.23-.34,0-.48A1,1,0,0,1,14.09,64.27Z"/><path class="cls-1" d="M16.26,63a.25.25,0,0,1,0,.48.93.93,0,0,1-.83,0,.25.25,0,0,1,0-.48A.87.87,0,0,1,16.26,63Z"/><ellipse class="cls-1" cx="4.96" cy="67.03" rx="0.59" ry="0.34"/><path class="cls-1" d="M7.56,65.53a.25.25,0,0,1,0,.48,1,1,0,0,1-.84,0,.25.25,0,0,1,0-.48A1,1,0,0,1,7.56,65.53Z"/><path class="cls-1" d="M9.73,64.27c.23.14.23.35,0,.48a.87.87,0,0,1-.83,0c-.23-.13-.23-.34,0-.48A.93.93,0,0,1,9.73,64.27Z"/><path class="cls-1" d="M11.91,63a.25.25,0,0,1,0,.48.93.93,0,0,1-.83,0,.25.25,0,0,1,0-.48A.87.87,0,0,1,11.91,63Z"/><path class="cls-1" d="M14.09,61.76a.25.25,0,0,1,0,.48,1,1,0,0,1-.84,0,.25.25,0,0,1,0-.48A1,1,0,0,1,14.09,61.76Z"/><path class="cls-1" d="M3.18,65.52a.25.25,0,0,1,0,.48.93.93,0,0,1-.83,0,.25.25,0,0,1,0-.48A.93.93,0,0,1,3.18,65.52Z"/><path class="cls-1" d="M5.36,64.26a.25.25,0,0,1,0,.48.93.93,0,0,1-.83,0,.25.25,0,0,1,0-.48A.93.93,0,0,1,5.36,64.26Z"/><ellipse class="cls-1" cx="7.12" cy="63.24" rx="0.59" ry="0.34"/><path class="cls-1" d="M9.71,61.75a.25.25,0,0,1,0,.48.93.93,0,0,1-.83,0,.25.25,0,0,1,0-.48A.87.87,0,0,1,9.71,61.75Z"/><path class="cls-1" d="M11.89,60.49a.25.25,0,0,1,0,.48.93.93,0,0,1-.83,0,.25.25,0,0,1,0-.48A.93.93,0,0,1,11.89,60.49Z"/><path class="cls-1" d="M1,64.26a.25.25,0,0,1,0,.48,1,1,0,0,1-.84,0,.25.25,0,0,1,0-.48A1,1,0,0,1,1,64.26Z"/><path class="cls-1" d="M3.18,63c.23.14.23.35,0,.48a.87.87,0,0,1-.83,0c-.23-.13-.23-.34,0-.48A.93.93,0,0,1,3.18,63Z"/><path class="cls-1" d="M5.36,61.75a.25.25,0,0,1,0,.48.93.93,0,0,1-.83,0,.25.25,0,0,1,0-.48A.87.87,0,0,1,5.36,61.75Z"/><path class="cls-1" d="M7.54,60.49a.25.25,0,0,1,0,.48,1,1,0,0,1-.84,0,.25.25,0,0,1,0-.48A1,1,0,0,1,7.54,60.49Z"/><path class="cls-1" d="M9.71,59.23c.23.14.23.35,0,.48a.87.87,0,0,1-.83,0c-.23-.13-.23-.34,0-.48A.93.93,0,0,1,9.71,59.23Z"/><path class="cls-1" d="M1,61.75a.25.25,0,0,1,0,.48,1,1,0,0,1-.84,0,.25.25,0,0,1,0-.48A.89.89,0,0,1,1,61.75Z"/><ellipse class="cls-1" cx="2.77" cy="60.73" rx="0.59" ry="0.34"/><path class="cls-1" d="M5.36,59.23c.23.14.23.35,0,.48a.87.87,0,0,1-.83,0c-.23-.13-.23-.34,0-.48A.93.93,0,0,1,5.36,59.23Z"/><path class="cls-1" d="M7.54,58c.23.13.23.34,0,.48a1,1,0,0,1-.84,0c-.23-.14-.23-.35,0-.48A.89.89,0,0,1,7.54,58Z"/><path class="cls-1" d="M1,59.23c.23.14.23.35,0,.48a.89.89,0,0,1-.84,0c-.23-.13-.23-.34,0-.48A1,1,0,0,1,1,59.23Z"/><path class="cls-1" d="M3.18,58c.23.13.23.34,0,.48a.93.93,0,0,1-.83,0c-.23-.14-.23-.35,0-.48A.87.87,0,0,1,3.18,58Z"/><path class="cls-1" d="M5.36,56.72a.25.25,0,0,1,0,.48.93.93,0,0,1-.83,0,.25.25,0,0,1,0-.48A.93.93,0,0,1,5.36,56.72Z"/><path class="cls-1" d="M44.53,86.93a.25.25,0,0,1,0,.48.93.93,0,0,1-.83,0,.25.25,0,0,1,0-.48A.93.93,0,0,1,44.53,86.93Z"/><path class="cls-1" d="M46.71,85.67c.23.14.23.35,0,.48a.87.87,0,0,1-.83,0c-.23-.13-.23-.34,0-.48A.93.93,0,0,1,46.71,85.67Z"/><ellipse class="cls-1" cx="41.92" cy="85.9" rx="0.59" ry="0.34"/><path class="cls-1" d="M44.51,84.4c.23.14.23.35,0,.48a.87.87,0,0,1-.83,0c-.23-.13-.23-.34,0-.48A.93.93,0,0,1,44.51,84.4Z"/><path class="cls-1" d="M40.16,86.92a.25.25,0,0,1,0,.48.93.93,0,0,1-.83,0,.25.25,0,0,1,0-.48A.87.87,0,0,1,40.16,86.92Z"/><ellipse class="cls-1" cx="39.74" cy="84.64" rx="0.59" ry="0.34"/><ellipse class="cls-1" cx="41.92" cy="83.39" rx="0.59" ry="0.34"/><path class="cls-1" d="M38,85.66a.25.25,0,0,1,0,.48.93.93,0,0,1-.83,0,.25.25,0,0,1,0-.48A.93.93,0,0,1,38,85.66Z"/><path class="cls-1" d="M38,83.15c.23.13.23.34,0,.48a.93.93,0,0,1-.83,0c-.23-.14-.23-.35,0-.48A.87.87,0,0,1,38,83.15Z"/><ellipse class="cls-1" cx="39.74" cy="82.13" rx="0.59" ry="0.34"/><ellipse class="cls-1" cx="35.39" cy="84.64" rx="0.59" ry="0.34"/><ellipse class="cls-1" cx="35.39" cy="82.13" rx="0.59" ry="0.34"/><path class="cls-1" d="M38,80.63c.23.14.23.35,0,.48a.87.87,0,0,1-.83,0c-.23-.13-.23-.34,0-.48A.93.93,0,0,1,38,80.63Z"/><ellipse class="cls-1" cx="33.21" cy="83.39" rx="0.59" ry="0.34"/><path class="cls-1" d="M31.45,81.89a.25.25,0,0,1,0,.48.93.93,0,0,1-.83,0,.25.25,0,0,1,0-.48A.93.93,0,0,1,31.45,81.89Z"/><path class="cls-1" d="M35.81,79.38c.23.13.23.34,0,.48a1,1,0,0,1-.84,0c-.23-.14-.23-.35,0-.48A.89.89,0,0,1,35.81,79.38Z"/><path class="cls-1" d="M33.63,80.63c.23.14.23.35,0,.48a.87.87,0,0,1-.83,0c-.23-.13-.23-.34,0-.48A.93.93,0,0,1,33.63,80.63Z"/><path class="cls-1" d="M29.28,80.63c.23.14.23.35,0,.48a.89.89,0,0,1-.84,0c-.23-.13-.23-.34,0-.48A1,1,0,0,1,29.28,80.63Z"/><path class="cls-1" d="M31.45,79.38c.23.13.23.34,0,.48a.93.93,0,0,1-.83,0c-.23-.14-.23-.35,0-.48A.87.87,0,0,1,31.45,79.38Z"/><ellipse class="cls-1" cx="33.21" cy="78.36" rx="0.59" ry="0.34"/><ellipse class="cls-1" cx="26.68" cy="79.62" rx="0.59" ry="0.34"/><path class="cls-1" d="M29.28,78.12a.25.25,0,0,1,0,.48,1,1,0,0,1-.84,0,.25.25,0,0,1,0-.48A1,1,0,0,1,29.28,78.12Z"/><path class="cls-1" d="M31.45,76.86c.23.14.23.35,0,.48a.87.87,0,0,1-.83,0c-.23-.13-.23-.34,0-.48A.93.93,0,0,1,31.45,76.86Z"/><path class="cls-1" d="M24.92,78.12a.25.25,0,0,1,0,.48.93.93,0,0,1-.83,0,.25.25,0,0,1,0-.48A.93.93,0,0,1,24.92,78.12Z"/><path class="cls-1" d="M27.1,76.86c.23.14.23.35,0,.48a.87.87,0,0,1-.83,0c-.23-.13-.23-.34,0-.48A.93.93,0,0,1,27.1,76.86Z"/><path class="cls-1" d="M29.28,75.61c.23.13.23.34,0,.48a1,1,0,0,1-.84,0c-.23-.14-.23-.35,0-.48A.89.89,0,0,1,29.28,75.61Z"/><ellipse class="cls-1" cx="22.31" cy="77.09" rx="0.59" ry="0.34"/><ellipse class="cls-1" cx="24.49" cy="75.83" rx="0.59" ry="0.34"/><path class="cls-1" d="M27.08,74.34c.23.13.23.34,0,.48a.93.93,0,0,1-.83,0c-.23-.14-.23-.35,0-.48A.87.87,0,0,1,27.08,74.34Z"/><ellipse class="cls-1" cx="20.13" cy="75.83" rx="0.59" ry="0.34"/><path class="cls-1" d="M22.73,74.34c.23.13.23.34,0,.48a1,1,0,0,1-.84,0c-.23-.14-.23-.35,0-.48A.89.89,0,0,1,22.73,74.34Z"/><path class="cls-1" d="M24.9,73.08a.25.25,0,0,1,0,.48.93.93,0,0,1-.83,0,.25.25,0,0,1,0-.48A.93.93,0,0,1,24.9,73.08Z"/><path class="cls-1" d="M18.37,74.34c.23.13.23.34,0,.48a.93.93,0,0,1-.83,0c-.23-.14-.23-.35,0-.48A.87.87,0,0,1,18.37,74.34Z"/><ellipse class="cls-1" cx="20.13" cy="73.32" rx="0.59" ry="0.34"/><path class="cls-1" d="M22.73,71.82a.25.25,0,0,1,0,.48,1,1,0,0,1-.84,0,.25.25,0,0,1,0-.48A1,1,0,0,1,22.73,71.82Z"/><path class="cls-1" d="M16.19,73.08a.25.25,0,0,1,0,.48.93.93,0,0,1-.83,0,.25.25,0,0,1,0-.48A.93.93,0,0,1,16.19,73.08Z"/><path class="cls-1" d="M18.37,71.82a.25.25,0,0,1,0,.48.93.93,0,0,1-.83,0,.25.25,0,0,1,0-.48A.93.93,0,0,1,18.37,71.82Z"/><path class="cls-1" d="M20.55,70.56a.26.26,0,0,1,0,.49.93.93,0,0,1-.83,0,.26.26,0,0,1,0-.49A.93.93,0,0,1,20.55,70.56Z"/><path class="cls-1" d="M48.06,84.43a.93.93,0,0,1,.83,0c.23.14.23.35,0,.48a.9.9,0,0,1-.83,0A.26.26,0,0,1,48.06,84.43Z"/><path class="cls-1" d="M51.07,83.18c.23.13.23.34,0,.48a.93.93,0,0,1-.83,0c-.23-.14-.23-.35,0-.48A.87.87,0,0,1,51.07,83.18Z"/><path class="cls-1" d="M45.86,83.16a1,1,0,0,1,.84,0c.23.14.23.35,0,.48a.92.92,0,0,1-.84,0A.26.26,0,0,1,45.86,83.16Z"/><path class="cls-1" d="M48.88,81.91c.23.13.23.34,0,.48a1,1,0,0,1-.84,0c-.23-.14-.23-.35,0-.48A.89.89,0,0,1,48.88,81.91Z"/><path class="cls-1" d="M51.05,80.65a.25.25,0,0,1,0,.48.93.93,0,0,1-.83,0,.25.25,0,0,1,0-.48A.93.93,0,0,1,51.05,80.65Z"/><path class="cls-1" d="M43.69,81.91a.87.87,0,0,1,.83,0c.23.13.23.34,0,.48a.93.93,0,0,1-.83,0A.25.25,0,0,1,43.69,81.91Z"/><path class="cls-1" d="M46.7,80.65a.25.25,0,0,1,0,.48.93.93,0,0,1-.83,0,.25.25,0,0,1,0-.48A.93.93,0,0,1,46.7,80.65Z"/><path class="cls-1" d="M48.88,79.39c.23.14.23.35,0,.48a.89.89,0,0,1-.84,0c-.23-.13-.23-.34,0-.48A1,1,0,0,1,48.88,79.39Z"/><ellipse class="cls-1" cx="50.64" cy="78.38" rx="0.59" ry="0.34"/><path class="cls-1" d="M41.51,80.65a.93.93,0,0,1,.83,0,.25.25,0,0,1,0,.48.93.93,0,0,1-.83,0A.25.25,0,0,1,41.51,80.65Z"/><path class="cls-1" d="M44.52,79.39c.23.14.23.35,0,.48a.87.87,0,0,1-.83,0c-.23-.13-.23-.34,0-.48A.93.93,0,0,1,44.52,79.39Z"/><path class="cls-1" d="M46.7,78.14c.23.13.23.34,0,.48a.93.93,0,0,1-.83,0c-.23-.14-.23-.35,0-.48A.87.87,0,0,1,46.7,78.14Z"/><path class="cls-1" d="M48.88,76.88a.25.25,0,0,1,0,.48,1,1,0,0,1-.84,0,.25.25,0,0,1,0-.48A1,1,0,0,1,48.88,76.88Z"/><path class="cls-1" d="M39.33,79.39a.93.93,0,0,1,.83,0c.24.14.24.35,0,.48a.89.89,0,0,1-.84,0C39.1,79.74,39.1,79.53,39.33,79.39Z"/><ellipse class="cls-1" cx="41.93" cy="78.38" rx="0.59" ry="0.34"/><path class="cls-1" d="M44.52,76.88a.25.25,0,0,1,0,.48.93.93,0,0,1-.83,0,.25.25,0,0,1,0-.48A.93.93,0,0,1,44.52,76.88Z"/><path class="cls-1" d="M37.16,78.14a.87.87,0,0,1,.83,0c.23.13.23.34,0,.48a.93.93,0,0,1-.83,0A.25.25,0,0,1,37.16,78.14Z"/><path class="cls-1" d="M40.17,76.88a.25.25,0,0,1,0,.48,1,1,0,0,1-.84,0,.25.25,0,0,1,0-.48A1,1,0,0,1,40.17,76.88Z"/><path class="cls-1" d="M35,76.88a.93.93,0,0,1,.83,0,.25.25,0,0,1,0,.48.93.93,0,0,1-.83,0A.25.25,0,0,1,35,76.88Z"/><path class="cls-1" d="M38,75.62a.25.25,0,0,1,0,.48.87.87,0,0,1-.83,0,.25.25,0,0,1,0-.48A.93.93,0,0,1,38,75.62Z"/><path class="cls-1" d="M35.81,74.36a.26.26,0,0,1,0,.49.93.93,0,0,1-.83,0,.26.26,0,0,1,0-.49.93.93,0,0,1,.83,0C36,74.5,35.58,74.23,35.81,74.36Z"/><path class="cls-1" d="M32.8,75.62a.93.93,0,0,1,.83,0,.26.26,0,0,1,0,.48.89.89,0,0,1-.84,0C32.57,76,32.57,75.76,32.8,75.62Z"/><path class="cls-1" d="M30.62,74.37a.89.89,0,0,1,.84,0c.23.13.23.34,0,.48a.93.93,0,0,1-.83,0C30.4,74.71,30.39,74.5,30.62,74.37Z"/><path class="cls-1" d="M33.64,73.11a.25.25,0,0,1,0,.48,1,1,0,0,1-.84,0,.25.25,0,0,1,0-.48,1,1,0,0,1,.84,0Z"/><path class="cls-1" d="M28.43,73.1a.87.87,0,0,1,.83,0c.23.13.23.34,0,.48a.93.93,0,0,1-.83,0C28.2,73.44,28.2,73.23,28.43,73.1Z"/><path class="cls-1" d="M31.44,71.84a.25.25,0,0,1,0,.48.93.93,0,0,1-.83,0,.25.25,0,0,1,0-.48A.87.87,0,0,1,31.44,71.84Z"/><path class="cls-1" d="M26.25,71.84a.93.93,0,0,1,.83,0,.26.26,0,0,1,0,.48,1,1,0,0,1-.84,0A.25.25,0,0,1,26.25,71.84Z"/><path class="cls-1" d="M29.26,70.58a.25.25,0,0,1,0,.48.93.93,0,0,1-.83,0,.25.25,0,0,1,0-.48A.93.93,0,0,1,29.26,70.58Z"/><path class="cls-1" d="M24.07,70.58a1,1,0,0,1,.84,0,.25.25,0,0,1,0,.48.87.87,0,0,1-.83,0C23.85,70.93,23.84,70.72,24.07,70.58Z"/><path class="cls-1" d="M27.09,69.32c.23.14.23.35,0,.48a.89.89,0,0,1-.84,0c-.23-.13-.23-.34,0-.48A1,1,0,0,1,27.09,69.32Z"/><path class="cls-1" d="M21.9,69.33a.9.9,0,0,1,.83,0,.26.26,0,0,1,0,.49.93.93,0,0,1-.83,0C21.67,69.67,21.67,69.46,21.9,69.33Z"/><path class="cls-1" d="M24.91,68.07c.23.13.23.34,0,.48a.93.93,0,0,1-.83,0c-.23-.14-.23-.35,0-.48A.87.87,0,0,1,24.91,68.07Z"/><path class="cls-2" d="M16.18,21.62c.93-3.05,1.57-5.42,1.57-5.42a44.21,44.21,0,0,0-4.4-1.54h0c-1.41-.47-3.18,0-5,1.43C4.77,19,2.46,24.59,3.15,28.93a5.71,5.71,0,0,0,2.23,3.76s2.93,2.49,5.54,2.18c1-.11,2-3.44,3.3-7.24A16.59,16.59,0,0,0,16.18,21.62Z"/><path class="cls-3" d="M16.13,21.62c.24-.79.46-1.53.66-2.2a37.74,37.74,0,0,0-4-1.38h0c-1.4-.46-3.17,0-5,1.44A15.34,15.34,0,0,0,3,27.17a10.21,10.21,0,0,0,.12,1.76,5.75,5.75,0,0,0,2.23,3.76s2.93,2.49,5.54,2.18c1-.11,2-3.44,3.31-7.24A16.76,16.76,0,0,0,16.13,21.62Z"/><path class="cls-4" d="M10.46,35.46c-2.57,0-5.14-2.09-5.44-2.34A6.3,6.3,0,0,1,2.6,29C1.88,24.48,4.21,18.74,8,15.66c1.9-1.53,3.85-2.08,5.5-1.53A43,43,0,0,1,18,15.68l.45.18-.13.48s-.64,2.39-1.55,5.39a17.28,17.28,0,0,1-2,6.17l-.53,1.55c-1.36,3.94-2.07,5.85-3.19,6A4.71,4.71,0,0,1,10.46,35.46ZM12.22,15a5.71,5.71,0,0,0-3.49,1.49c-3.47,2.8-5.68,8.21-5,12.31a5.18,5.18,0,0,0,2,3.42c1,.81,3.26,2.28,5.12,2.06.52-.2,1.49-3,2.27-5.24.18-.53.37-1.08.57-1.64a16.3,16.3,0,0,0,1.92-5.88l0-.1c.67-2.22,1.19-4.09,1.42-4.93a36.08,36.08,0,0,0-3.85-1.33A3.37,3.37,0,0,0,12.22,15Z"/><path class="cls-4" d="M20.92,20.05c-.35-2.22-1.41-3.78-3-4.39s-3.71-.12-5.68,1.47c-3.74,3-6.2,9.15-5.49,13.66.35,2.22,1.41,3.78,3,4.39a4.22,4.22,0,0,0,1.49.27,6.82,6.82,0,0,0,4.19-1.74C19.17,30.69,21.63,24.56,20.92,20.05Z"/><path class="cls-4" d="M17.18,22.72a8,8,0,0,1-2.71,6.71c-1.84,1.5-3.62.91-4-1.31a8,8,0,0,1,2.71-6.71C15.05,19.92,16.83,20.51,17.18,22.72Z"/><path class="cls-2" d="M12.51,30.82a2.34,2.34,0,0,1-.86-.16A2.92,2.92,0,0,1,10,28.21,8.53,8.53,0,0,1,12.85,21,3.22,3.22,0,0,1,16,20.18a2.94,2.94,0,0,1,1.7,2.46,8.52,8.52,0,0,1-2.9,7.23A3.77,3.77,0,0,1,12.51,30.82Zm2.67-9.68a2.74,2.74,0,0,0-1.62.7A7.51,7.51,0,0,0,11.06,28a1.88,1.88,0,0,0,1,1.59A2.2,2.2,0,0,0,14.12,29a7.5,7.5,0,0,0,2.5-6.19h0a1.88,1.88,0,0,0-1-1.59A1.33,1.33,0,0,0,15.18,21.14Z"/><path class="cls-5" d="M49,74.12c-1.54-6.54-4.89-16.67-11.4-20.54l-3.87-2.3-.42-4.35a10.17,10.17,0,0,0,1.1-.62l.05,0,.14-.1a3.93,3.93,0,0,0,1.86-2.64L37,41.27l1.79-8c.06-.25.12-.5.17-.77l.05-.2h0a12.65,12.65,0,0,0,.18-1.92c.08-7-4.72-15.52-10.73-19.08-2.75-1.63-5-2-6.94-1.2l-.27.09-.15.08a5.13,5.13,0,0,0-.65.36l-5.08,2.8-.27.56,2.47,1.87a13.8,13.8,0,0,0-.13,1.63,12.83,12.83,0,0,0,.07,1.85l0,.16,0,.43c0,.38.1.59.17,1l2,12.68h0a19.91,19.91,0,0,0,3.07,7.56l-.51,3.44c-.95-.56-2.64-1.68-3.88-2.41-2.54-1.51-4.41-1.6-6.11-.77l-.23.1-.59.33h0L7,44.35,8,46A22.71,22.71,0,0,0,6.67,49c-.76,2.13.84,5.75,3.16,7.13L27.42,66.58l.77.45,13.59,8.06c.18,1.63.46,3.83.61,5a.53.53,0,0,0,.78.39l4.95-2.75h0C49,77.2,49.42,75.9,49,74.12Z"/><path class="cls-6" d="M49,76.57C47.46,70,44.11,59.89,37.6,56l-3.88-2.31-.42-4.34c.36-.18-.23-.83.14-1.07l-.55-.25.59-1.84c.91-.61,1.74-.2,2-1.49l1.49-1,1.78-8c.07-.25.13-.5.18-.77l0-.2h0a12.68,12.68,0,0,0,.17-1.91c.08-7-4.72-15.53-10.72-19.09-2.75-1.63-5-2-7-1.2l-.27.09-.14.08a7,7,0,0,0-.66.36l-5.07,2.8-.28.56,2.48,1.87A10.55,10.55,0,0,0,17.4,20a14.41,14.41,0,0,0,.06,1.85l0,.16.05.43c.05.38.1.59.17,1l2,12.68h0a19.93,19.93,0,0,0,3.07,7.55l-.52,3.44c-.94-.56-2.64-1.67-3.87-2.41-2.55-1.5-4.41-1.6-6.12-.76l-.23.09-.59.33h0L7,46.79l1,1.6a24.57,24.57,0,0,0-1.35,3.07c-.77,2.13.83,5.75,3.16,7.13L27.42,69l.76.46,13.59,8c.18,1.63-1.07,1.22-.92,2.36a.53.53,0,0,0,.78.39l4.95-2.76h0C47.46,77,49.41,78.34,49,76.57Z"/><path class="cls-1" d="M42.91,81.08a1.07,1.07,0,0,1-.49-.12,1.06,1.06,0,0,1-.58-.83c-.14-1.08-.41-3.1-.58-4.7L9.55,56.63C7,55.1,5.29,51.24,6.15,48.83A24,24,0,0,1,7.39,46L6.25,44.15l5.84-3.22c2-1,4.07-.7,6.62.8.66.4,1.46.9,2.2,1.37l1,.61.36-2.4a20.62,20.62,0,0,1-3-7.61l-2.07-13c0-.23-.08-.42-.12-.7l-.07-.53a15.1,15.1,0,0,1-.09-2,13.4,13.4,0,0,1,.1-1.37L14.36,14.2l.55-1.13,5.23-2.89a4.32,4.32,0,0,1,.68-.37l.48-.2c2.07-.87,4.5-.47,7.4,1.25,6.15,3.65,11.08,12.42,11,19.57a15.65,15.65,0,0,1-.12,1.63l0,0-.12.6a7.92,7.92,0,0,1-.18.78L37,43.66a4.51,4.51,0,0,1-2.1,3l-.12.09a10,10,0,0,1-.89.52l.35,3.7,3.63,2.16C44.36,57,47.8,66.59,49.54,74h0c.45,1.93,0,3.53-1.15,4.18l-5,2.76A1.1,1.1,0,0,1,42.91,81.08ZM7.81,44.55l.86,1.38-.15.29a21.57,21.57,0,0,0-1.32,3c-.69,1.89.82,5.22,2.92,6.46L42.3,74.76l0,.27c.18,1.63.46,3.82.61,5l4.91-2.78c.7-.39.94-1.55.61-3h0c-1.39-5.89-4.67-16.35-11.14-20.19L33.2,51.61l-.48-5,.34-.17a10.35,10.35,0,0,0,1-.6l.16-.11a3.39,3.39,0,0,0,1.65-2.3L38.23,33.2c.06-.26.12-.5.16-.75l0-.2a13.46,13.46,0,0,0,.16-1.83c.08-6.79-4.61-15.14-10.45-18.6-2.58-1.53-4.69-1.91-6.45-1.17l-.36.15a5.08,5.08,0,0,0-.62.33l-5,2.74,2.36,1.78,0,.32A11.1,11.1,0,0,0,18,17.54,13,13,0,0,0,18,19.32l0,.1.06.49c0,.24.06.41.1.62l.06.31,2,12.7a19.4,19.4,0,0,0,3,7.33l.12.18-.67,4.47L22,45.09c-.44-.26-1-.64-1.69-1.05s-1.52-1-2.18-1.35c-2.22-1.32-4-1.55-5.59-.75l-.26.11Z"/><path class="cls-5" d="M43.55,77.17C42,70.62,38.66,60.49,32.15,56.63l-3.87-2.31L27.86,50A5.12,5.12,0,0,0,31,46.58l.52-2.26,1.79-8c.06-.25.12-.5.17-.77l0-.2h0a12.64,12.64,0,0,0,.18-1.91c.08-7-4.72-15.53-10.73-19.09S12,13.59,12,20.57A13,13,0,0,0,12,22.43l0,.16,0,.42c.05.38.11.59.18,1l2,12.69h0a20,20,0,0,0,3.07,7.56l-.51,3.43c-1-.56-2.64-1.67-3.88-2.4C6.44,41.38,2.9,47.42,1.22,52.06c-.77,2.13.84,5.75,3.16,7.13L22,69.62l.77.46L40.26,80.47C42.59,81.85,44.25,80.17,43.55,77.17Z"/><path class="cls-1" d="M41.82,81.51A3.61,3.61,0,0,1,40,81L4.1,59.67C1.52,58.14-.17,54.28.7,51.88,1.79,48.84,3.78,45,7,43.81a7.22,7.22,0,0,1,6.25,1c.66.39,1.45.89,2.19,1.36l1,.61.36-2.39a20.62,20.62,0,0,1-3-7.61l-2.07-13c0-.23-.08-.43-.12-.71l-.07-.52a14.36,14.36,0,0,1-.09-2C11.44,17,12.7,14.31,15,13s5.2-1,8.28.86c6.15,3.65,11.08,12.43,11,19.57a15.46,15.46,0,0,1-.12,1.63l0,0-.12.59a7.49,7.49,0,0,1-.18.79L31.56,46.71a5.4,5.4,0,0,1-3.11,3.59L28.8,54l3.63,2.16C38.91,60,42.35,69.63,44.09,77h0c.42,1.8.08,3.31-.92,4A2.22,2.22,0,0,1,41.82,81.51ZM9,44.58a4.68,4.68,0,0,0-1.62.28c-2.83,1-4.63,4.58-5.65,7.39-.68,1.9.82,5.22,2.93,6.47L40.55,80a1.75,1.75,0,0,0,2,.2c.62-.45.81-1.56.5-2.9h0c-1.39-5.89-4.67-16.35-11.14-20.18l-4.12-2.45-.48-5,.34-.17c1.3-.65,2.54-1.46,2.86-3l2.31-10.23c.06-.25.12-.49.16-.74l0-.21a11.87,11.87,0,0,0,.17-1.83c.08-6.79-4.61-15.14-10.45-18.6C20,13.24,17.41,12.94,15.51,14s-3,3.4-3,6.57a12.08,12.08,0,0,0,.06,1.78l0,.09.06.5c0,.24.06.42.1.62l.06.31,2,12.7a19.33,19.33,0,0,0,3,7.33l.12.18-.67,4.47-.71-.42-1.7-1.06c-.73-.47-1.52-1-2.17-1.35A7.27,7.27,0,0,0,9,44.58Z"/><polygon class="cls-1" points="33.83 33.1 39.14 29.7 39.35 31.08 36.51 43.94 34.75 46.08 33.43 46.85 33.86 51.29 28.3 54.4 27.87 49.96 30.84 48.19 31.43 45 33.83 33.1 33.83 33.1"/><polygon class="cls-1" points="42.09 73.45 47.9 70.2 49.16 74.73 49.09 76.31 48.05 77.91 43.01 80.35 43.36 77.98 42.77 74.44 42.09 73.45"/><path class="cls-2" d="M42.59,35.21c.93-3.05,1.57-5.42,1.57-5.42a43.25,43.25,0,0,0-4.4-1.54h0c-1.41-.46-3.17,0-5,1.44-3.61,2.91-5.91,8.49-5.23,12.83a5.72,5.72,0,0,0,2.23,3.76s2.79,2.32,5.1,2.12c1-.08,2.41-3.38,3.75-7.18A16.57,16.57,0,0,0,42.59,35.21Z"/><path class="cls-7" d="M34.83,32.92a15.56,15.56,0,0,0-5.19,9.36c0,.08,0,.16,0,.24a5.69,5.69,0,0,0,2.24,3.76S34.68,48.6,37,48.4c1-.08,2.41-3.38,3.75-7.18a16.78,16.78,0,0,0,2-6l.74-2.49a34.58,34.58,0,0,0-3.63-1.24h0C38.4,31,36.63,31.46,34.83,32.92Z"/><path class="cls-4" d="M36.6,49c-2.35,0-4.87-2-5.16-2.26A6.24,6.24,0,0,1,29,42.61c-.72-4.54,1.62-10.28,5.43-13.36,1.89-1.53,3.84-2.07,5.49-1.53a42.09,42.09,0,0,1,4.44,1.55l.46.19-.13.47s-.65,2.39-1.56,5.39a17.26,17.26,0,0,1-2,6.17c-2.27,6.45-3.4,7.4-4.19,7.47Zm2-20.33a5.75,5.75,0,0,0-3.49,1.48c-3.47,2.8-5.67,8.21-5,12.31a5.19,5.19,0,0,0,2,3.42c.91.75,3.09,2.15,4.69,2,.09,0,1-.45,3.27-6.8A16.63,16.63,0,0,0,42,35.15l0-.1c.67-2.21,1.19-4.08,1.43-4.93a38.66,38.66,0,0,0-3.86-1.33A3.32,3.32,0,0,0,38.63,28.64Z"/><path class="cls-8" d="M46.78,33.73c.69,4.34-1.68,10.22-5.29,13.14s-7.08,1.76-7.77-2.57S35.41,34.08,39,31.16,46.1,29.39,46.78,33.73Z"/><path class="cls-4" d="M37.66,49a4.24,4.24,0,0,1-1.5-.27c-1.57-.61-2.64-2.16-3-4.39-.71-4.5,1.75-10.63,5.49-13.65,2-1.6,4-2.12,5.68-1.47s2.64,2.16,3,4.38h0c.71,4.51-1.75,10.64-5.49,13.66A6.8,6.8,0,0,1,37.66,49Zm5.21-18.93a5.84,5.84,0,0,0-3.51,1.48c-3.46,2.8-5.74,8.46-5.08,12.62.28,1.81,1.1,3.06,2.29,3.52s3,0,4.57-1.3c3.46-2.8,5.75-8.46,5.09-12.61-.29-1.81-1.1-3.06-2.29-3.52A2.9,2.9,0,0,0,42.87,30.11Z"/><path class="cls-8" d="M47,35.19a12.49,12.49,0,0,1-4.2,10.45c-2.87,2.31-5.64,1.4-6.18-2a12.47,12.47,0,0,1,4.2-10.44C43.7,30.83,46.46,31.75,47,35.19Z"/><path class="cls-2" d="M39.75,47.48a3.19,3.19,0,0,1-1.22-.23,4.21,4.21,0,0,1-2.45-3.57c-.57-3.62,1.4-8.54,4.4-11,1.6-1.29,3.25-1.71,4.63-1.18a4.24,4.24,0,0,1,2.45,3.58c.57,3.61-1.4,8.53-4.4,11A5.55,5.55,0,0,1,39.75,47.48Zm4.15-15a4.57,4.57,0,0,0-2.72,1.15,11.89,11.89,0,0,0-4,9.92,3.2,3.2,0,0,0,1.75,2.71c1,.38,2.26,0,3.52-1a11.84,11.84,0,0,0,4-9.92,3.2,3.2,0,0,0-1.75-2.71A2.38,2.38,0,0,0,43.9,32.43Z"/><path class="cls-8" d="M14.31,45.87a.88.88,0,0,1-1.25.11L9.67,43.12c-3.18-2.69-2.82-6.72-2-9.11a.88.88,0,0,1,1.22-.49h0a.89.89,0,0,1,.46,1.08c-.51,1.48-1.26,4.87,1.45,7.16l3.39,2.87a.88.88,0,0,1,.11,1.24Z"/><path class="cls-4" d="M13.63,46.75a1.44,1.44,0,0,1-.93-.34L9.31,43.54c-3.16-2.66-3.19-6.76-2.16-9.71A1.46,1.46,0,0,1,8,33a1.49,1.49,0,0,1,1.19,0,1.45,1.45,0,0,1,.75,1.77c-.55,1.58-1.1,4.53,1.28,6.55l3.39,2.86a1.44,1.44,0,0,1,.18,2,1.42,1.42,0,0,1-1,.51ZM8.51,34a.28.28,0,0,0-.13,0,.3.3,0,0,0-.17.18C7.77,35.46,6.6,39.79,10,42.69l3.39,2.86a.31.31,0,0,0,.24.08.33.33,0,0,0,.18-.58l-3.39-2.86c-3-2.54-2.13-6.28-1.62-7.77A.32.32,0,0,0,8.66,34,.28.28,0,0,0,8.51,34Z"/><path class="cls-2" d="M9.21,33A1.45,1.45,0,0,0,8,33a1.85,1.85,0,0,0-.37.25,4.83,4.83,0,0,0,.66.91A.42.42,0,0,1,8.45,34l.13,0a.28.28,0,0,1,.15,0,.32.32,0,0,1,.17.39l-.06.2a4,4,0,0,0,1,.56h0c0-.14.08-.27.13-.4A1.45,1.45,0,0,0,9.21,33Z"/><path class="cls-2" d="M18.72,45.42a3.11,3.11,0,1,1-3.56-2.59A3.11,3.11,0,0,1,18.72,45.42Z"/><path class="cls-7" d="M15.1,44.35a3.1,3.1,0,0,0-2.52,2.26,3.1,3.1,0,0,0,6,0A3.1,3.1,0,0,0,15.1,44.35Z"/><path class="cls-4" d="M19.27,45.34a3.68,3.68,0,0,0-4.19-3.07,3.67,3.67,0,1,0,4.19,3.07Zm-4-2a2.69,2.69,0,0,1,.4,0,2.53,2.53,0,0,1,.77.12.09.09,0,0,0,0,.05,3.11,3.11,0,0,1-2.6,3.55,3.22,3.22,0,0,1-.43,0,2.25,2.25,0,0,1-.28-.8A2.56,2.56,0,0,1,15.25,43.38Z"/><path class="cls-8" d="M12.39,15.89a6.42,6.42,0,0,1,2.06-2.47C15.5,10.47,17.67,6,21.51,3.89c2.73-1.45,5.94-1.45,9.56,0,12.2,4.93,9.1,20.19,8,24.3a1.12,1.12,0,0,0,.74,1.34,1.1,1.1,0,0,0,1.41-.79c1.15-4.54,4.33-21.4-9.34-26.92C27.64.11,23.79.14,20.45,1.93c-5.54,3-8,9.89-8.73,12.65A1.1,1.1,0,0,0,12.39,15.89Z"/><path class="cls-4" d="M40.17,30.15a1.75,1.75,0,0,1-.51-.08,1.66,1.66,0,0,1-1.11-2c1.15-4.35,4-18.93-7.69-23.64C27.4,3,24.35,3,21.78,4.39,18,6.4,15.89,11,15,13.61l-.06.16-.14.1a6,6,0,0,0-1.88,2.26l-.22.47-.48-.19a1.67,1.67,0,0,1-1-2c.81-2.89,3.29-9.94,9-13,3.49-1.87,7.5-1.91,11.92-.12C46.1,7,43.05,23.85,41.79,28.89A1.68,1.68,0,0,1,41,29.94,1.66,1.66,0,0,1,40.17,30.15ZM25.94,2.24a14.35,14.35,0,0,1,5.34,1.14c12.52,5.06,9.56,20.39,8.35,25A.54.54,0,0,0,40,29a.52.52,0,0,0,.44,0,.53.53,0,0,0,.26-.34c1.21-4.82,4.14-21-9-26.27-4.1-1.66-7.79-1.63-11,.07C15.38,5.27,13,12,12.26,14.73a.43.43,0,0,0,0,.25A6.75,6.75,0,0,1,14,13.07c1.2-3.32,3.43-7.62,7.27-9.67A9.81,9.81,0,0,1,25.94,2.24Z"/></g></g></g></svg>