<svg xmlns="http://www.w3.org/2000/svg" viewBox="0 0 130.95 122.3"><defs><style>.cls-1{fill:#16110d;}.cls-2{fill:#febd2e;}.cls-3{fill:#181310;}.cls-4{fill:#fec;}.cls-5{fill:#ffbe2e;}</style></defs><g id="Layer_2" data-name="Layer 2"><g id="content"><g id="_21" data-name="21"><path class="cls-1" d="M102.83,82.88a.25.25,0,0,0,0,.48.93.93,0,0,0,.83,0,.25.25,0,0,0,0-.48A.93.93,0,0,0,102.83,82.88Z"/><ellipse class="cls-1" cx="101.07" cy="81.86" rx="0.59" ry="0.34"/><path class="cls-1" d="M98.47,80.37c-.23.13-.23.34,0,.48a1,1,0,0,0,.84,0c.22-.14.22-.35,0-.48A.89.89,0,0,0,98.47,80.37Z"/><path class="cls-1" d="M96.3,79.11a.25.25,0,0,0,0,.48.93.93,0,0,0,.83,0,.25.25,0,0,0,0-.48A.93.93,0,0,0,96.3,79.11Z"/><path class="cls-1" d="M94.12,77.85c-.23.14-.23.35,0,.48a.87.87,0,0,0,.83,0c.23-.13.23-.34,0-.48A.93.93,0,0,0,94.12,77.85Z"/><path class="cls-1" d="M105,81.62c-.23.14-.23.35,0,.48a.89.89,0,0,0,.84,0c.23-.13.23-.34,0-.48A1,1,0,0,0,105,81.62Z"/><path class="cls-1" d="M102.83,80.37c-.23.13-.23.34,0,.48a.93.93,0,0,0,.83,0c.23-.14.23-.35,0-.48A.87.87,0,0,0,102.83,80.37Z"/><ellipse class="cls-1" cx="101.07" cy="79.35" rx="0.59" ry="0.34"/><path class="cls-1" d="M98.47,77.85c-.23.14-.23.35,0,.48a.89.89,0,0,0,.84,0c.22-.13.22-.34,0-.48A1,1,0,0,0,98.47,77.85Z"/><path class="cls-1" d="M96.3,76.6c-.23.13-.23.34,0,.48a.93.93,0,0,0,.83,0c.23-.14.23-.35,0-.48A.87.87,0,0,0,96.3,76.6Z"/><path class="cls-1" d="M107.18,80.37c-.23.13-.23.34,0,.48a.93.93,0,0,0,.83,0c.23-.14.23-.35,0-.48A.87.87,0,0,0,107.18,80.37Z"/><path class="cls-1" d="M105,79.11a.25.25,0,0,0,0,.48,1,1,0,0,0,.84,0,.25.25,0,0,0,0-.48A1,1,0,0,0,105,79.11Z"/><path class="cls-1" d="M102.83,77.85c-.23.14-.23.35,0,.48a.87.87,0,0,0,.83,0c.23-.13.23-.34,0-.48A.93.93,0,0,0,102.83,77.85Z"/><path class="cls-1" d="M100.65,76.6c-.23.13-.23.34,0,.48a.93.93,0,0,0,.83,0c.23-.14.23-.35,0-.48A.87.87,0,0,0,100.65,76.6Z"/><path class="cls-1" d="M98.47,75.34a.25.25,0,0,0,0,.48,1,1,0,0,0,.84,0,.26.26,0,0,0,0-.48A.93.93,0,0,0,98.47,75.34Z"/><ellipse class="cls-1" cx="109.77" cy="79.35" rx="0.59" ry="0.34"/><path class="cls-1" d="M107.18,77.85c-.23.14-.23.35,0,.48a.87.87,0,0,0,.83,0c.23-.13.23-.34,0-.48A.93.93,0,0,0,107.18,77.85Z"/><path class="cls-1" d="M105,76.6c-.23.13-.23.34,0,.48a1,1,0,0,0,.84,0c.23-.14.23-.35,0-.48A.89.89,0,0,0,105,76.6Z"/><ellipse class="cls-1" cx="103.24" cy="75.58" rx="0.59" ry="0.34"/><ellipse class="cls-1" cx="101.07" cy="74.32" rx="0.59" ry="0.34"/><path class="cls-1" d="M111.53,77.85c-.23.14-.23.35,0,.48a.89.89,0,0,0,.84,0c.23-.13.23-.34,0-.48A1,1,0,0,0,111.53,77.85Z"/><path class="cls-1" d="M109.36,76.6c-.23.13-.23.34,0,.48a.93.93,0,0,0,.83,0c.23-.14.23-.35,0-.48A.87.87,0,0,0,109.36,76.6Z"/><path class="cls-1" d="M107.18,75.34a.25.25,0,0,0,0,.48.93.93,0,0,0,.83,0,.25.25,0,0,0,0-.48A.93.93,0,0,0,107.18,75.34Z"/><path class="cls-1" d="M105,74.08a.25.25,0,0,0,0,.48.89.89,0,0,0,.84,0,.25.25,0,0,0,0-.48A1,1,0,0,0,105,74.08Z"/><ellipse class="cls-1" cx="103.24" cy="73.07" rx="0.59" ry="0.34"/><path class="cls-1" d="M113.73,76.58c-.23.14-.23.35,0,.48a.87.87,0,0,0,.83,0c.23-.13.23-.34,0-.48A.93.93,0,0,0,113.73,76.58Z"/><path class="cls-1" d="M111.55,75.33c-.23.13-.23.34,0,.48a1,1,0,0,0,.84,0c.23-.14.23-.35,0-.48A.89.89,0,0,0,111.55,75.33Z"/><path class="cls-1" d="M109.38,74.07a.25.25,0,0,0,0,.48.93.93,0,0,0,.83,0,.25.25,0,0,0,0-.48A.93.93,0,0,0,109.38,74.07Z"/><path class="cls-1" d="M107.2,72.81a.25.25,0,0,0,0,.48.87.87,0,0,0,.83,0,.25.25,0,0,0,0-.48A.93.93,0,0,0,107.2,72.81Z"/><path class="cls-1" d="M105,71.55a.26.26,0,0,0,0,.49.93.93,0,0,0,.83,0,.26.26,0,0,0,0-.49A.93.93,0,0,0,105,71.55Z"/><path class="cls-1" d="M115.91,75.33c-.23.13-.23.34,0,.48a.93.93,0,0,0,.83,0c.23-.14.23-.35,0-.48A.87.87,0,0,0,115.91,75.33Z"/><path class="cls-1" d="M113.73,74.07a.25.25,0,0,0,0,.48.93.93,0,0,0,.83,0,.25.25,0,0,0,0-.48A.93.93,0,0,0,113.73,74.07Z"/><path class="cls-1" d="M111.55,72.81a.25.25,0,0,0,0,.48.89.89,0,0,0,.84,0,.25.25,0,0,0,0-.48A1,1,0,0,0,111.55,72.81Z"/><ellipse class="cls-1" cx="109.79" cy="71.8" rx="0.59" ry="0.34"/><path class="cls-1" d="M107.2,70.3a.25.25,0,0,0,0,.48.93.93,0,0,0,.83,0,.25.25,0,0,0,0-.48A.93.93,0,0,0,107.2,70.3Z"/><path class="cls-1" d="M118.08,74.07a.25.25,0,0,0,0,.48,1,1,0,0,0,.84,0,.25.25,0,0,0,0-.48A1,1,0,0,0,118.08,74.07Z"/><ellipse class="cls-1" cx="116.32" cy="73.05" rx="0.59" ry="0.34"/><path class="cls-1" d="M113.73,71.55a.26.26,0,0,0,0,.49.93.93,0,0,0,.83,0,.26.26,0,0,0,0-.49A.93.93,0,0,0,113.73,71.55Z"/><path class="cls-1" d="M111.55,70.3a.25.25,0,0,0,0,.48,1,1,0,0,0,.84,0,.25.25,0,0,0,0-.48A1,1,0,0,0,111.55,70.3Z"/><ellipse class="cls-1" cx="109.79" cy="69.28" rx="0.59" ry="0.34"/><path class="cls-1" d="M120.26,72.81a.25.25,0,0,0,0,.48.87.87,0,0,0,.83,0,.25.25,0,0,0,0-.48A.93.93,0,0,0,120.26,72.81Z"/><path class="cls-1" d="M118.08,71.55a.26.26,0,0,0,0,.49,1,1,0,0,0,.84,0,.26.26,0,0,0,0-.49A1,1,0,0,0,118.08,71.55Z"/><path class="cls-1" d="M115.91,70.3a.25.25,0,0,0,0,.48.93.93,0,0,0,.83,0,.25.25,0,0,0,0-.48A.93.93,0,0,0,115.91,70.3Z"/><path class="cls-1" d="M111.55,67.78c-.23.14-.23.35,0,.48a.89.89,0,0,0,.84,0c.23-.13.23-.34,0-.48A1,1,0,0,0,111.55,67.78Z"/><ellipse class="cls-1" cx="114.15" cy="69.28" rx="0.59" ry="0.34"/><path class="cls-1" d="M120.26,70.3a.25.25,0,0,0,0,.48.93.93,0,0,0,.83,0,.25.25,0,0,0,0-.48A.93.93,0,0,0,120.26,70.3Z"/><path class="cls-1" d="M118.08,69a.25.25,0,0,0,0,.48,1,1,0,0,0,.84,0,.25.25,0,0,0,0-.48A1,1,0,0,0,118.08,69Z"/><path class="cls-1" d="M113.73,66.53a.25.25,0,0,0,0,.48.93.93,0,0,0,.83,0,.25.25,0,0,0,0-.48A.87.87,0,0,0,113.73,66.53Z"/><path class="cls-1" d="M115.91,67.78c-.23.14-.23.35,0,.48a.87.87,0,0,0,.83,0c.23-.13.23-.34,0-.48A.93.93,0,0,0,115.91,67.78Z"/><path class="cls-1" d="M122.44,69a.25.25,0,0,0,0,.48.93.93,0,0,0,.83,0,.25.25,0,0,0,0-.48A.93.93,0,0,0,122.44,69Z"/><ellipse class="cls-1" cx="118.5" cy="66.77" rx="0.59" ry="0.34"/><ellipse class="cls-1" cx="116.32" cy="65.51" rx="0.59" ry="0.34"/><path class="cls-1" d="M120.26,67.78c-.23.14-.23.35,0,.48a.87.87,0,0,0,.83,0c.23-.13.23-.34,0-.48A.93.93,0,0,0,120.26,67.78Z"/><path class="cls-1" d="M120.26,65.27a.25.25,0,0,0,0,.48.93.93,0,0,0,.83,0,.25.25,0,0,0,0-.48A.93.93,0,0,0,120.26,65.27Z"/><path class="cls-1" d="M118.08,64c-.23.14-.23.35,0,.48a.89.89,0,0,0,.84,0c.23-.13.23-.34,0-.48A1,1,0,0,0,118.08,64Z"/><path class="cls-1" d="M122.44,66.53a.25.25,0,0,0,0,.48.93.93,0,0,0,.83,0,.25.25,0,0,0,0-.48A.87.87,0,0,0,122.44,66.53Z"/><ellipse class="cls-1" cx="122.85" cy="64.25" rx="0.59" ry="0.34"/><path class="cls-1" d="M120.26,62.76c-.23.13-.23.34,0,.48a.93.93,0,0,0,.83,0c.23-.14.23-.35,0-.48A.87.87,0,0,0,120.26,62.76Z"/><ellipse class="cls-1" cx="125.05" cy="62.98" rx="0.59" ry="0.34"/><path class="cls-1" d="M122.46,61.49c-.23.13-.23.34,0,.48a.93.93,0,0,0,.83,0c.23-.14.23-.35,0-.48A.87.87,0,0,0,122.46,61.49Z"/><ellipse class="cls-1" cx="125.05" cy="60.47" rx="0.59" ry="0.34"/><path class="cls-1" d="M91.93,76.61a.25.25,0,0,0,0,.48.89.89,0,0,0,.84,0,.25.25,0,0,0,0-.48A1,1,0,0,0,91.93,76.61Z"/><path class="cls-1" d="M89.76,75.35a.26.26,0,0,0,0,.49.93.93,0,0,0,.83,0,.26.26,0,0,0,0-.49A.93.93,0,0,0,89.76,75.35Z"/><path class="cls-1" d="M87.58,74.1a.25.25,0,0,0,0,.48.93.93,0,0,0,.83,0,.25.25,0,0,0,0-.48A.93.93,0,0,0,87.58,74.1Z"/><path class="cls-1" d="M85.4,72.84a.25.25,0,0,0,0,.48,1,1,0,0,0,.84,0,.25.25,0,0,0,0-.48A1,1,0,0,0,85.4,72.84Z"/><path class="cls-1" d="M95,75.36a.89.89,0,0,0-.84,0c-.23.13-.23.34,0,.48a1,1,0,0,0,.84,0C95.18,75.7,95.18,75.49,95,75.36Z"/><path class="cls-1" d="M91.93,74.1a.25.25,0,0,0,0,.48,1,1,0,0,0,.84,0,.25.25,0,0,0,0-.48A1,1,0,0,0,91.93,74.1Z"/><path class="cls-1" d="M89.76,72.84a.25.25,0,0,0,0,.48.93.93,0,0,0,.83,0,.25.25,0,0,0,0-.48A.93.93,0,0,0,89.76,72.84Z"/><path class="cls-1" d="M87.58,71.58c-.23.14-.23.35,0,.48a.87.87,0,0,0,.83,0c.23-.13.23-.34,0-.48A.93.93,0,0,0,87.58,71.58Z"/><path class="cls-1" d="M97.12,74.1a.93.93,0,0,0-.83,0,.25.25,0,0,0,0,.48.93.93,0,0,0,.83,0A.25.25,0,0,0,97.12,74.1Z"/><ellipse class="cls-1" cx="94.53" cy="73.08" rx="0.59" ry="0.34"/><path class="cls-1" d="M91.93,71.58c-.23.14-.23.35,0,.48a.89.89,0,0,0,.84,0c.23-.13.23-.34,0-.48A1,1,0,0,0,91.93,71.58Z"/><path class="cls-1" d="M89.76,70.33a.25.25,0,0,0,0,.48.93.93,0,0,0,.83,0,.25.25,0,0,0,0-.48A.87.87,0,0,0,89.76,70.33Z"/><path class="cls-1" d="M99.3,72.84a.93.93,0,0,0-.83,0,.25.25,0,0,0,0,.48.87.87,0,0,0,.83,0C99.53,73.19,99.53,73,99.3,72.84Z"/><path class="cls-1" d="M96.29,71.58c-.23.14-.23.35,0,.48a.87.87,0,0,0,.83,0c.23-.13.23-.34,0-.48A.93.93,0,0,0,96.29,71.58Z"/><path class="cls-1" d="M94.11,70.33a.25.25,0,0,0,0,.48.93.93,0,0,0,.83,0,.25.25,0,0,0,0-.48A.87.87,0,0,0,94.11,70.33Z"/><path class="cls-1" d="M101.48,71.59a.87.87,0,0,0-.83,0c-.23.13-.24.34,0,.48a1,1,0,0,0,.84,0C101.71,71.93,101.71,71.72,101.48,71.59Z"/><path class="cls-1" d="M98.47,70.33a.25.25,0,0,0,0,.48.93.93,0,0,0,.83,0,.25.25,0,0,0,0-.48A.87.87,0,0,0,98.47,70.33Z"/><path class="cls-1" d="M96.29,69.07a.25.25,0,0,0,0,.48.93.93,0,0,0,.83,0,.25.25,0,0,0,0-.48A.93.93,0,0,0,96.29,69.07Z"/><path class="cls-1" d="M103.67,70.32a.9.9,0,0,0-.83,0,.26.26,0,0,0,0,.49.93.93,0,0,0,.83,0C103.9,70.66,103.9,70.45,103.67,70.32Z"/><ellipse class="cls-1" cx="101.08" cy="69.3" rx="0.59" ry="0.34"/><path class="cls-1" d="M98.48,67.8a.25.25,0,0,0,0,.48,1,1,0,0,0,.84,0,.25.25,0,0,0,0-.48A1,1,0,0,0,98.48,67.8Z"/><path class="cls-1" d="M105.85,69.06a.93.93,0,0,0-.83,0,.25.25,0,0,0,0,.48.93.93,0,0,0,.83,0A.25.25,0,0,0,105.85,69.06Z"/><path class="cls-1" d="M102.84,67.8a.25.25,0,0,0,0,.48.93.93,0,0,0,.83,0,.25.25,0,0,0,0-.48A.93.93,0,0,0,102.84,67.8Z"/><path class="cls-1" d="M100.66,66.54c-.23.14-.23.35,0,.48a.87.87,0,0,0,.83,0c.23-.13.23-.34,0-.48A.93.93,0,0,0,100.66,66.54Z"/><path class="cls-1" d="M98.48,65.29c-.23.13-.23.34,0,.48a1,1,0,0,0,.84,0c.23-.14.23-.35,0-.48A.89.89,0,0,0,98.48,65.29Z"/><path class="cls-1" d="M108,67.8a.93.93,0,0,0-.83,0c-.23.13-.24.35,0,.48a.92.92,0,0,0,.84,0A.25.25,0,0,0,108,67.8Z"/><path class="cls-1" d="M105,66.54c-.23.14-.23.35,0,.48a.87.87,0,0,0,.83,0c.23-.13.23-.34,0-.48A.93.93,0,0,0,105,66.54Z"/><path class="cls-1" d="M102.84,65.29c-.23.13-.23.34,0,.48a.93.93,0,0,0,.83,0c.23-.14.23-.35,0-.48A.87.87,0,0,0,102.84,65.29Z"/><path class="cls-1" d="M100.66,64a.25.25,0,0,0,0,.48.93.93,0,0,0,.83,0,.25.25,0,0,0,0-.48A.93.93,0,0,0,100.66,64Z"/><path class="cls-1" d="M110.2,66.55a.9.9,0,0,0-.83,0c-.23.14-.23.35,0,.48a.9.9,0,0,0,.83,0C110.43,66.89,110.43,66.68,110.2,66.55Z"/><path class="cls-1" d="M107.19,65.29c-.23.13-.23.34,0,.48a1,1,0,0,0,.84,0c.23-.14.23-.35,0-.48A.89.89,0,0,0,107.19,65.29Z"/><path class="cls-1" d="M105,64a.25.25,0,0,0,0,.48.93.93,0,0,0,.83,0,.25.25,0,0,0,0-.48A.93.93,0,0,0,105,64Z"/><path class="cls-1" d="M102.84,62.77c-.23.14-.23.35,0,.48a.87.87,0,0,0,.83,0c.23-.13.23-.34,0-.48A.93.93,0,0,0,102.84,62.77Z"/><path class="cls-1" d="M112.38,65.29a.9.9,0,0,0-.83,0,.25.25,0,0,0,0,.48.93.93,0,0,0,.83,0A.25.25,0,0,0,112.38,65.29Z"/><ellipse class="cls-1" cx="109.79" cy="64.27" rx="0.59" ry="0.34"/><path class="cls-1" d="M107.19,62.77c-.23.14-.23.35,0,.48a.89.89,0,0,0,.84,0c.23-.13.23-.34,0-.48A1,1,0,0,0,107.19,62.77Z"/><path class="cls-1" d="M105,61.52c-.23.13-.23.34,0,.48a.93.93,0,0,0,.83,0c.23-.14.23-.35,0-.48A.87.87,0,0,0,105,61.52Z"/><path class="cls-1" d="M114.56,64a.93.93,0,0,0-.83,0,.26.26,0,0,0,0,.48,1,1,0,0,0,.84,0A.25.25,0,0,0,114.56,64Z"/><path class="cls-1" d="M111.55,62.77c-.23.14-.23.35,0,.48a.87.87,0,0,0,.83,0c.23-.13.23-.34,0-.48A.93.93,0,0,0,111.55,62.77Z"/><path class="cls-1" d="M109.37,61.52c-.23.13-.23.34,0,.48a.93.93,0,0,0,.83,0c.23-.14.23-.35,0-.48A.87.87,0,0,0,109.37,61.52Z"/><ellipse class="cls-1" cx="107.61" cy="60.5" rx="0.59" ry="0.34"/><path class="cls-1" d="M116.74,62.77a1,1,0,0,0-.84,0c-.23.14-.23.35,0,.48a.9.9,0,0,0,.83,0C117,63.12,117,62.91,116.74,62.77Z"/><path class="cls-1" d="M113.72,61.52c-.23.13-.23.34,0,.48a1,1,0,0,0,.84,0c.23-.14.23-.35,0-.48A.89.89,0,0,0,113.72,61.52Z"/><path class="cls-1" d="M111.55,60.26a.25.25,0,0,0,0,.48.93.93,0,0,0,.83,0,.25.25,0,0,0,0-.48A.93.93,0,0,0,111.55,60.26Z"/><path class="cls-1" d="M109.37,59a.25.25,0,0,0,0,.48.87.87,0,0,0,.83,0,.25.25,0,0,0,0-.48A.93.93,0,0,0,109.37,59Z"/><path class="cls-1" d="M118.91,61.52a.87.87,0,0,0-.83,0c-.23.13-.23.34,0,.48a.93.93,0,0,0,.83,0A.25.25,0,0,0,118.91,61.52Z"/><path class="cls-1" d="M115.9,60.26a.25.25,0,0,0,0,.48.93.93,0,0,0,.83,0,.25.25,0,0,0,0-.48A.93.93,0,0,0,115.9,60.26Z"/><path class="cls-1" d="M113.72,59a.25.25,0,0,0,0,.48.89.89,0,0,0,.84,0,.25.25,0,0,0,0-.48A1,1,0,0,0,113.72,59Z"/><ellipse class="cls-1" cx="111.96" cy="57.99" rx="0.59" ry="0.34"/><path class="cls-1" d="M121.11,60.25a.87.87,0,0,0-.83,0,.26.26,0,0,0,0,.48,1,1,0,0,0,.84,0A.25.25,0,0,0,121.11,60.25Z"/><path class="cls-1" d="M118.1,59a.25.25,0,0,0,0,.48.93.93,0,0,0,.83,0,.25.25,0,0,0,0-.48A.93.93,0,0,0,118.1,59Z"/><path class="cls-1" d="M115.92,57.73a.25.25,0,0,0,0,.48.87.87,0,0,0,.83,0,.25.25,0,0,0,0-.48A.93.93,0,0,0,115.92,57.73Z"/><path class="cls-1" d="M113.74,56.47a.26.26,0,0,0,0,.49,1,1,0,0,0,.84,0,.26.26,0,0,0,0-.49A1,1,0,0,0,113.74,56.47Z"/><path class="cls-1" d="M123.29,59a1,1,0,0,0-.84,0,.25.25,0,0,0,0,.48.93.93,0,0,0,.83,0C123.51,59.34,123.52,59.12,123.29,59Z"/><path class="cls-1" d="M120.27,57.73a.25.25,0,0,0,0,.48.89.89,0,0,0,.84,0,.25.25,0,0,0,0-.48A1,1,0,0,0,120.27,57.73Z"/><path class="cls-1" d="M118.1,56.47a.26.26,0,0,0,0,.49.93.93,0,0,0,.83,0,.26.26,0,0,0,0-.49A.93.93,0,0,0,118.1,56.47Z"/><path class="cls-1" d="M115.92,55.22a.25.25,0,0,0,0,.48.93.93,0,0,0,.83,0,.25.25,0,0,0,0-.48A.93.93,0,0,0,115.92,55.22Z"/><path class="cls-1" d="M113.74,54a.25.25,0,0,0,0,.48,1,1,0,0,0,.84,0,.25.25,0,0,0,0-.48A1,1,0,0,0,113.74,54Z"/><path class="cls-1" d="M125.46,57.73a.93.93,0,0,0-.83,0c-.23.14-.23.35,0,.48a.87.87,0,0,0,.83,0C125.69,58.08,125.69,57.87,125.46,57.73Z"/><path class="cls-1" d="M122.45,56.47a.26.26,0,0,0,0,.49.93.93,0,0,0,.83,0c.23-.14.23-.35,0-.48A.9.9,0,0,0,122.45,56.47Z"/><path class="cls-1" d="M120.27,55.22a.25.25,0,0,0,0,.48,1,1,0,0,0,.84,0,.25.25,0,0,0,0-.48A1,1,0,0,0,120.27,55.22Z"/><path class="cls-1" d="M118.1,54a.25.25,0,0,0,0,.48.93.93,0,0,0,.83,0,.25.25,0,0,0,0-.48A.93.93,0,0,0,118.1,54Z"/><ellipse class="cls-1" cx="66.26" cy="104.54" rx="0.59" ry="0.34"/><ellipse class="cls-1" cx="64.08" cy="103.28" rx="0.59" ry="0.34"/><path class="cls-1" d="M61.49,101.78a.25.25,0,0,0,0,.48.87.87,0,0,0,.83,0,.25.25,0,0,0,0-.48A.93.93,0,0,0,61.49,101.78Z"/><ellipse class="cls-1" cx="59.73" cy="100.77" rx="0.59" ry="0.34"/><ellipse class="cls-1" cx="57.55" cy="99.51" rx="0.59" ry="0.34"/><path class="cls-1" d="M55,98a.25.25,0,0,0,0,.48.87.87,0,0,0,.83,0,.25.25,0,0,0,0-.48A.93.93,0,0,0,55,98Z"/><path class="cls-1" d="M52.78,96.75a.26.26,0,0,0,0,.49.93.93,0,0,0,.83,0,.26.26,0,0,0,0-.49A.93.93,0,0,0,52.78,96.75Z"/><path class="cls-1" d="M50.6,95.5a.25.25,0,0,0,0,.48.93.93,0,0,0,.83,0,.25.25,0,0,0,0-.48A.87.87,0,0,0,50.6,95.5Z"/><path class="cls-1" d="M48.42,94.24a.25.25,0,0,0,0,.48,1,1,0,0,0,.84,0,.25.25,0,0,0,0-.48A1,1,0,0,0,48.42,94.24Z"/><path class="cls-1" d="M46.25,93c-.23.14-.23.35,0,.48a.87.87,0,0,0,.83,0c.23-.13.23-.34,0-.48A.93.93,0,0,0,46.25,93Z"/><path class="cls-1" d="M44.07,91.73c-.23.13-.23.34,0,.48a.93.93,0,0,0,.83,0c.23-.14.23-.35,0-.48A.87.87,0,0,0,44.07,91.73Z"/><path class="cls-1" d="M68.85,103a.93.93,0,0,0-.83,0,.25.25,0,0,0,0,.48.93.93,0,0,0,.83,0A.25.25,0,0,0,68.85,103Z"/><path class="cls-1" d="M65.84,101.78c-.23.14-.23.35,0,.48a.87.87,0,0,0,.83,0c.23-.13.23-.34,0-.48A.93.93,0,0,0,65.84,101.78Z"/><path class="cls-1" d="M63.66,100.53c-.23.13-.23.34,0,.48a1,1,0,0,0,.84,0c.23-.14.23-.35,0-.48A.89.89,0,0,0,63.66,100.53Z"/><path class="cls-1" d="M61.49,99.27a.25.25,0,0,0,0,.48.93.93,0,0,0,.83,0,.25.25,0,0,0,0-.48A.93.93,0,0,0,61.49,99.27Z"/><path class="cls-1" d="M59.31,98a.25.25,0,0,0,0,.48.87.87,0,0,0,.83,0,.25.25,0,0,0,0-.48A.93.93,0,0,0,59.31,98Z"/><path class="cls-1" d="M57.13,96.75a.26.26,0,0,0,0,.49,1,1,0,0,0,.84,0,.26.26,0,0,0,0-.49A1,1,0,0,0,57.13,96.75Z"/><path class="cls-1" d="M55,95.5A.25.25,0,0,0,55,96a.93.93,0,0,0,.83,0,.25.25,0,0,0,0-.48A.87.87,0,0,0,55,95.5Z"/><path class="cls-1" d="M52.78,94.24a.25.25,0,0,0,0,.48.93.93,0,0,0,.83,0,.25.25,0,0,0,0-.48A.93.93,0,0,0,52.78,94.24Z"/><path class="cls-1" d="M48.42,91.73c-.23.13-.23.34,0,.48a1,1,0,0,0,.84,0c.23-.14.23-.35,0-.48A.89.89,0,0,0,48.42,91.73Z"/><path class="cls-1" d="M71,101.78a.93.93,0,0,0-.83,0c-.23.14-.23.35,0,.48a.87.87,0,0,0,.83,0C71.26,102.13,71.26,101.92,71,101.78Z"/><path class="cls-1" d="M68,100.53c-.23.13-.23.34,0,.48a.93.93,0,0,0,.83,0c.23-.14.23-.35,0-.48A.87.87,0,0,0,68,100.53Z"/><ellipse class="cls-1" cx="66.26" cy="99.51" rx="0.59" ry="0.34"/><path class="cls-1" d="M63.66,98a.25.25,0,0,0,0,.48.89.89,0,0,0,.84,0,.25.25,0,0,0,0-.48A1,1,0,0,0,63.66,98Z"/><path class="cls-1" d="M50.6,93c-.23.14-.23.35,0,.48a.87.87,0,0,0,.83,0c.23-.13.23-.34,0-.48A.93.93,0,0,0,50.6,93Z"/><path class="cls-1" d="M61.49,96.75a.26.26,0,0,0,0,.49.93.93,0,0,0,.83,0,.26.26,0,0,0,0-.49A.93.93,0,0,0,61.49,96.75Z"/><path class="cls-1" d="M59.31,95.5a.25.25,0,0,0,0,.48.93.93,0,0,0,.83,0,.25.25,0,0,0,0-.48A.87.87,0,0,0,59.31,95.5Z"/><path class="cls-1" d="M57.13,94.24a.25.25,0,0,0,0,.48,1,1,0,0,0,.84,0,.25.25,0,0,0,0-.48A1,1,0,0,0,57.13,94.24Z"/><path class="cls-1" d="M55,93c-.23.14-.23.35,0,.48a.87.87,0,0,0,.83,0c.23-.13.23-.34,0-.48A.93.93,0,0,0,55,93Z"/><path class="cls-1" d="M52.78,91.73c-.23.13-.23.34,0,.48a.93.93,0,0,0,.83,0c.23-.14.23-.35,0-.48A.87.87,0,0,0,52.78,91.73Z"/><ellipse class="cls-1" cx="51.02" cy="90.71" rx="0.59" ry="0.34"/><path class="cls-1" d="M73.21,100.53a.89.89,0,0,0-.84,0c-.23.13-.23.34,0,.48a1,1,0,0,0,.84,0A.25.25,0,0,0,73.21,100.53Z"/><path class="cls-1" d="M70.2,99.27a.25.25,0,0,0,0,.48.93.93,0,0,0,.83,0,.25.25,0,0,0,0-.48A.93.93,0,0,0,70.2,99.27Z"/><path class="cls-1" d="M68,98a.25.25,0,0,0,0,.48.87.87,0,0,0,.83,0,.25.25,0,0,0,0-.48A.93.93,0,0,0,68,98Z"/><path class="cls-1" d="M65.84,96.75a.26.26,0,0,0,0,.49.93.93,0,0,0,.83,0,.26.26,0,0,0,0-.49A.93.93,0,0,0,65.84,96.75Z"/><path class="cls-1" d="M63.66,95.5a.25.25,0,0,0,0,.48,1,1,0,0,0,.84,0,.25.25,0,0,0,0-.48A.89.89,0,0,0,63.66,95.5Z"/><path class="cls-1" d="M61.49,94.24a.25.25,0,0,0,0,.48.93.93,0,0,0,.83,0,.25.25,0,0,0,0-.48A.93.93,0,0,0,61.49,94.24Z"/><path class="cls-1" d="M59.31,93c-.23.14-.23.35,0,.48a.87.87,0,0,0,.83,0c.23-.13.23-.34,0-.48A.93.93,0,0,0,59.31,93Z"/><path class="cls-1" d="M57.13,91.73c-.23.13-.23.34,0,.48a1,1,0,0,0,.84,0c.23-.14.23-.35,0-.48A.89.89,0,0,0,57.13,91.73Z"/><path class="cls-1" d="M55,90.47A.25.25,0,0,0,55,91a.93.93,0,0,0,.83,0,.25.25,0,0,0,0-.48A.93.93,0,0,0,55,90.47Z"/><path class="cls-1" d="M52.78,89.21c-.23.14-.23.35,0,.48a.87.87,0,0,0,.83,0c.23-.13.23-.34,0-.48A.93.93,0,0,0,52.78,89.21Z"/><path class="cls-1" d="M75.38,99.27a.93.93,0,0,0-.83,0,.25.25,0,0,0,0,.48.93.93,0,0,0,.83,0A.25.25,0,0,0,75.38,99.27Z"/><ellipse class="cls-1" cx="72.79" cy="98.25" rx="0.59" ry="0.34"/><path class="cls-1" d="M70.2,96.75a.26.26,0,0,0,0,.49.93.93,0,0,0,.83,0,.26.26,0,0,0,0-.49A.93.93,0,0,0,70.2,96.75Z"/><path class="cls-1" d="M68,95.5A.25.25,0,0,0,68,96a.93.93,0,0,0,.83,0,.25.25,0,0,0,0-.48A.87.87,0,0,0,68,95.5Z"/><ellipse class="cls-1" cx="66.26" cy="94.48" rx="0.59" ry="0.34"/><path class="cls-1" d="M63.66,93c-.23.14-.23.35,0,.48a.89.89,0,0,0,.84,0c.23-.13.23-.34,0-.48A1,1,0,0,0,63.66,93Z"/><path class="cls-1" d="M61.49,91.73a.25.25,0,0,0,0,.48.93.93,0,0,0,.83,0,.25.25,0,0,0,0-.48A.87.87,0,0,0,61.49,91.73Z"/><path class="cls-1" d="M59.31,90.47a.25.25,0,0,0,0,.48.93.93,0,0,0,.83,0,.25.25,0,0,0,0-.48A.93.93,0,0,0,59.31,90.47Z"/><path class="cls-1" d="M57.13,89.21c-.23.14-.23.35,0,.48a.89.89,0,0,0,.84,0c.23-.13.23-.34,0-.48A1,1,0,0,0,57.13,89.21Z"/><ellipse class="cls-1" cx="55.37" cy="88.2" rx="0.59" ry="0.34"/><path class="cls-1" d="M77.58,98a.93.93,0,0,0-.83,0,.25.25,0,0,0,0,.48.93.93,0,0,0,.83,0A.25.25,0,0,0,77.58,98Z"/><path class="cls-1" d="M74.57,96.74a.25.25,0,0,0,0,.48.93.93,0,0,0,.83,0,.25.25,0,0,0,0-.48A.93.93,0,0,0,74.57,96.74Z"/><ellipse class="cls-1" cx="72.81" cy="95.72" rx="0.59" ry="0.34"/><path class="cls-1" d="M70.21,94.23a.25.25,0,0,0,0,.48,1,1,0,0,0,.84,0,.25.25,0,0,0,0-.48A.89.89,0,0,0,70.21,94.23Z"/><path class="cls-1" d="M68,93a.25.25,0,0,0,0,.48.93.93,0,0,0,.83,0,.25.25,0,0,0,0-.48A.93.93,0,0,0,68,93Z"/><path class="cls-1" d="M65.86,91.71c-.23.14-.23.35,0,.48a.87.87,0,0,0,.83,0c.23-.13.23-.34,0-.48A.93.93,0,0,0,65.86,91.71Z"/><ellipse class="cls-1" cx="64.1" cy="90.7" rx="0.59" ry="0.34"/><path class="cls-1" d="M61.51,89.2a.25.25,0,0,0,0,.48.93.93,0,0,0,.83,0,.25.25,0,0,0,0-.48A.93.93,0,0,0,61.51,89.2Z"/><path class="cls-1" d="M59.33,87.94c-.23.14-.23.35,0,.48a.87.87,0,0,0,.83,0c.23-.13.23-.34,0-.48A.93.93,0,0,0,59.33,87.94Z"/><path class="cls-1" d="M57.15,86.69c-.23.13-.23.34,0,.48a.93.93,0,0,0,.83,0c.23-.14.23-.35,0-.48A.87.87,0,0,0,57.15,86.69Z"/><path class="cls-1" d="M79.76,96.74a1,1,0,0,0-.84,0,.25.25,0,0,0,0,.48.89.89,0,0,0,.84,0C80,97.09,80,96.88,79.76,96.74Z"/><path class="cls-1" d="M76.75,95.48a.26.26,0,0,0,0,.49.93.93,0,0,0,.83,0,.26.26,0,0,0,0-.49A.93.93,0,0,0,76.75,95.48Z"/><path class="cls-1" d="M74.57,94.23a.25.25,0,0,0,0,.48.93.93,0,0,0,.83,0,.25.25,0,0,0,0-.48A.87.87,0,0,0,74.57,94.23Z"/><ellipse class="cls-1" cx="72.81" cy="93.21" rx="0.59" ry="0.34"/><path class="cls-1" d="M70.21,91.71c-.23.14-.23.35,0,.48a.89.89,0,0,0,.84,0c.23-.13.23-.34,0-.48A1,1,0,0,0,70.21,91.71Z"/><path class="cls-1" d="M68,90.46c-.23.13-.23.34,0,.48a.93.93,0,0,0,.83,0c.23-.14.23-.35,0-.48A.87.87,0,0,0,68,90.46Z"/><path class="cls-1" d="M65.86,89.2a.25.25,0,0,0,0,.48.93.93,0,0,0,.83,0,.25.25,0,0,0,0-.48A.93.93,0,0,0,65.86,89.2Z"/><path class="cls-1" d="M63.68,87.94c-.23.14-.23.35,0,.48a.89.89,0,0,0,.84,0c.23-.13.23-.34,0-.48A1,1,0,0,0,63.68,87.94Z"/><path class="cls-1" d="M61.51,86.69c-.23.13-.23.34,0,.48a.93.93,0,0,0,.83,0c.23-.14.23-.35,0-.48A.87.87,0,0,0,61.51,86.69Z"/><path class="cls-1" d="M59.33,85.43a.25.25,0,0,0,0,.48.93.93,0,0,0,.83,0,.25.25,0,0,0,0-.48A.93.93,0,0,0,59.33,85.43Z"/><path class="cls-1" d="M81.93,95.49a.87.87,0,0,0-.83,0c-.23.13-.23.34,0,.48a.93.93,0,0,0,.83,0C82.16,95.83,82.16,95.62,81.93,95.49Z"/><path class="cls-1" d="M78.92,94.23a.25.25,0,0,0,0,.48.93.93,0,0,0,.83,0,.25.25,0,0,0,0-.48A.87.87,0,0,0,78.92,94.23Z"/><path class="cls-1" d="M76.75,93a.25.25,0,0,0,0,.48.93.93,0,0,0,.83,0,.25.25,0,0,0,0-.48A.93.93,0,0,0,76.75,93Z"/><ellipse class="cls-1" cx="74.98" cy="91.95" rx="0.59" ry="0.34"/><path class="cls-1" d="M72.39,90.46c-.23.13-.23.34,0,.48a.93.93,0,0,0,.83,0c.23-.14.23-.35,0-.48A.87.87,0,0,0,72.39,90.46Z"/><path class="cls-1" d="M70.21,89.2a.25.25,0,0,0,0,.48,1,1,0,0,0,.84,0,.25.25,0,0,0,0-.48A1,1,0,0,0,70.21,89.2Z"/><path class="cls-1" d="M68,87.94c-.23.14-.23.35,0,.48a.87.87,0,0,0,.83,0c.23-.13.23-.34,0-.48A.93.93,0,0,0,68,87.94Z"/><path class="cls-1" d="M65.86,86.69c-.23.13-.23.34,0,.48a.93.93,0,0,0,.83,0c.23-.14.23-.35,0-.48A.87.87,0,0,0,65.86,86.69Z"/><path class="cls-1" d="M63.68,85.43a.25.25,0,0,0,0,.48,1,1,0,0,0,.84,0,.25.25,0,0,0,0-.48A1,1,0,0,0,63.68,85.43Z"/><path class="cls-1" d="M61.51,84.17c-.23.14-.23.35,0,.48a.87.87,0,0,0,.83,0c.23-.13.23-.34,0-.48A.93.93,0,0,0,61.51,84.17Z"/><path class="cls-1" d="M84.11,94.23a.93.93,0,0,0-.83,0,.25.25,0,0,0,0,.48.93.93,0,0,0,.83,0A.25.25,0,0,0,84.11,94.23Z"/><ellipse class="cls-1" cx="81.52" cy="93.21" rx="0.59" ry="0.34"/><ellipse class="cls-1" cx="79.34" cy="91.95" rx="0.59" ry="0.34"/><path class="cls-1" d="M76.75,90.46c-.23.13-.23.34,0,.48a.93.93,0,0,0,.83,0c.23-.14.23-.35,0-.48A.87.87,0,0,0,76.75,90.46Z"/><path class="cls-1" d="M74.57,89.2a.25.25,0,0,0,0,.48.93.93,0,0,0,.83,0,.25.25,0,0,0,0-.48A.93.93,0,0,0,74.57,89.2Z"/><ellipse class="cls-1" cx="72.81" cy="88.18" rx="0.59" ry="0.34"/><path class="cls-1" d="M70.21,86.69c-.23.13-.23.34,0,.48a1,1,0,0,0,.84,0c.23-.14.23-.35,0-.48A.89.89,0,0,0,70.21,86.69Z"/><ellipse class="cls-1" cx="68.45" cy="85.67" rx="0.59" ry="0.34"/><path class="cls-1" d="M65.86,84.17c-.23.14-.23.35,0,.48a.87.87,0,0,0,.83,0c.23-.13.23-.34,0-.48A.93.93,0,0,0,65.86,84.17Z"/><path class="cls-1" d="M63.68,82.92c-.23.13-.23.34,0,.48a1,1,0,0,0,.84,0c.23-.14.23-.35,0-.48A.89.89,0,0,0,63.68,82.92Z"/><path class="cls-1" d="M86.29,93a.93.93,0,0,0-.83,0c-.23.13-.24.35,0,.48a.89.89,0,0,0,.84,0C86.52,93.32,86.52,93.11,86.29,93Z"/><path class="cls-1" d="M83.28,91.71c-.23.14-.23.35,0,.48a.87.87,0,0,0,.83,0c.23-.13.23-.34,0-.48A.93.93,0,0,0,83.28,91.71Z"/><ellipse class="cls-1" cx="81.52" cy="90.7" rx="0.59" ry="0.34"/><path class="cls-1" d="M78.92,89.2a.25.25,0,0,0,0,.48.93.93,0,0,0,.83,0,.25.25,0,0,0,0-.48A.93.93,0,0,0,78.92,89.2Z"/><path class="cls-1" d="M76.75,87.94c-.23.14-.23.35,0,.48a.87.87,0,0,0,.83,0c.23-.13.23-.34,0-.48A.93.93,0,0,0,76.75,87.94Z"/><path class="cls-1" d="M74.57,86.69c-.23.13-.23.34,0,.48a.93.93,0,0,0,.83,0c.23-.14.23-.35,0-.48A.87.87,0,0,0,74.57,86.69Z"/><path class="cls-1" d="M72.39,85.43a.25.25,0,0,0,0,.48.93.93,0,0,0,.83,0,.25.25,0,0,0,0-.48A.93.93,0,0,0,72.39,85.43Z"/><path class="cls-1" d="M70.21,84.17c-.23.14-.23.35,0,.48a.89.89,0,0,0,.84,0c.23-.13.23-.34,0-.48A1,1,0,0,0,70.21,84.17Z"/><path class="cls-1" d="M68,82.92c-.23.13-.23.34,0,.48a.93.93,0,0,0,.83,0c.23-.14.23-.35,0-.48A.87.87,0,0,0,68,82.92Z"/><ellipse class="cls-1" cx="66.28" cy="81.9" rx="0.59" ry="0.34"/><path class="cls-1" d="M88.47,91.72a.92.92,0,0,0-.84,0,.26.26,0,0,0,0,.49.93.93,0,0,0,.83,0C88.69,92.06,88.7,91.85,88.47,91.72Z"/><path class="cls-1" d="M85.45,90.46c-.23.13-.23.34,0,.48a1,1,0,0,0,.84,0c.23-.14.23-.35,0-.48A.89.89,0,0,0,85.45,90.46Z"/><path class="cls-1" d="M83.28,89.2a.25.25,0,0,0,0,.48.93.93,0,0,0,.83,0,.25.25,0,0,0,0-.48A.93.93,0,0,0,83.28,89.2Z"/><path class="cls-1" d="M81.1,87.94c-.23.14-.23.35,0,.48a.87.87,0,0,0,.83,0c.23-.13.23-.34,0-.48A.93.93,0,0,0,81.1,87.94Z"/><ellipse class="cls-1" cx="79.34" cy="86.93" rx="0.59" ry="0.34"/><path class="cls-1" d="M76.75,85.43a.25.25,0,0,0,0,.48.93.93,0,0,0,.83,0,.25.25,0,0,0,0-.48A.93.93,0,0,0,76.75,85.43Z"/><path class="cls-1" d="M74.57,84.17c-.23.14-.23.35,0,.48a.87.87,0,0,0,.83,0c.23-.13.23-.34,0-.48A.93.93,0,0,0,74.57,84.17Z"/><path class="cls-1" d="M72.39,82.92c-.23.13-.23.34,0,.48a.93.93,0,0,0,.83,0c.23-.14.23-.35,0-.48A.87.87,0,0,0,72.39,82.92Z"/><path class="cls-1" d="M70.21,81.66a.25.25,0,0,0,0,.48,1,1,0,0,0,.84,0,.25.25,0,0,0,0-.48A1,1,0,0,0,70.21,81.66Z"/><path class="cls-1" d="M68,80.4a.25.25,0,0,0,0,.48.87.87,0,0,0,.83,0,.25.25,0,0,0,0-.48A.93.93,0,0,0,68,80.4Z"/><ellipse class="cls-1" cx="88.05" cy="89.44" rx="0.59" ry="0.34"/><path class="cls-1" d="M90.64,90.46a.93.93,0,0,0-.83,0,.25.25,0,0,0,0,.48.93.93,0,0,0,.83,0A.25.25,0,0,0,90.64,90.46Z"/><ellipse class="cls-1" cx="85.87" cy="88.18" rx="0.59" ry="0.34"/><ellipse class="cls-1" cx="83.69" cy="86.93" rx="0.59" ry="0.34"/><ellipse class="cls-1" cx="81.52" cy="85.67" rx="0.59" ry="0.34"/><path class="cls-1" d="M78.92,84.17c-.23.14-.23.35,0,.48a.87.87,0,0,0,.83,0c.23-.13.23-.34,0-.48A.93.93,0,0,0,78.92,84.17Z"/><path class="cls-1" d="M76.75,82.92c-.23.13-.23.34,0,.48a.93.93,0,0,0,.83,0c.23-.14.23-.35,0-.48A.87.87,0,0,0,76.75,82.92Z"/><path class="cls-1" d="M74.57,81.66a.25.25,0,0,0,0,.48.93.93,0,0,0,.83,0,.25.25,0,0,0,0-.48A.93.93,0,0,0,74.57,81.66Z"/><path class="cls-1" d="M72.39,80.4a.25.25,0,0,0,0,.48.87.87,0,0,0,.83,0,.25.25,0,0,0,0-.48A.93.93,0,0,0,72.39,80.4Z"/><ellipse class="cls-1" cx="70.63" cy="79.39" rx="0.59" ry="0.34"/><path class="cls-1" d="M92.82,89.2a.93.93,0,0,0-.83,0,.25.25,0,0,0,0,.48.93.93,0,0,0,.83,0A.25.25,0,0,0,92.82,89.2Z"/><path class="cls-1" d="M89.81,87.94c-.23.14-.23.35,0,.48a.87.87,0,0,0,.83,0c.23-.13.23-.34,0-.48A.93.93,0,0,0,89.81,87.94Z"/><path class="cls-1" d="M87.63,86.69c-.23.13-.23.34,0,.48a.93.93,0,0,0,.83,0c.23-.14.23-.35,0-.48A.87.87,0,0,0,87.63,86.69Z"/><ellipse class="cls-1" cx="85.87" cy="85.67" rx="0.59" ry="0.34"/><ellipse class="cls-1" cx="83.69" cy="84.41" rx="0.59" ry="0.34"/><path class="cls-1" d="M81.1,82.92c-.23.13-.23.34,0,.48a.93.93,0,0,0,.83,0c.23-.14.23-.35,0-.48A.87.87,0,0,0,81.1,82.92Z"/><ellipse class="cls-1" cx="79.34" cy="81.9" rx="0.59" ry="0.34"/><path class="cls-1" d="M76.75,80.4a.25.25,0,0,0,0,.48.87.87,0,0,0,.83,0,.25.25,0,0,0,0-.48A.93.93,0,0,0,76.75,80.4Z"/><path class="cls-1" d="M74.57,79.14a.26.26,0,0,0,0,.49.93.93,0,0,0,.83,0,.26.26,0,0,0,0-.49A.93.93,0,0,0,74.57,79.14Z"/><path class="cls-1" d="M95,87.93a1,1,0,0,0-.84,0,.25.25,0,0,0,0,.48.93.93,0,0,0,.83,0C95.24,88.28,95.25,88.06,95,87.93Z"/><ellipse class="cls-1" cx="92.42" cy="86.91" rx="0.59" ry="0.34"/><path class="cls-1" d="M89.83,85.42c-.23.13-.23.34,0,.48a.93.93,0,0,0,.83,0c.23-.14.23-.35,0-.48A.87.87,0,0,0,89.83,85.42Z"/><ellipse class="cls-1" cx="88.07" cy="84.4" rx="0.59" ry="0.34"/><path class="cls-1" d="M85.47,82.9c-.23.14-.23.35,0,.48a.87.87,0,0,0,.83,0c.23-.13.23-.34,0-.48A.93.93,0,0,0,85.47,82.9Z"/><path class="cls-1" d="M83.29,81.65c-.22.13-.22.34,0,.48a1,1,0,0,0,.84,0c.23-.14.23-.35,0-.48A.89.89,0,0,0,83.29,81.65Z"/><path class="cls-1" d="M81.12,80.39a.25.25,0,0,0,0,.48.93.93,0,0,0,.83,0,.25.25,0,0,0,0-.48A.93.93,0,0,0,81.12,80.39Z"/><ellipse class="cls-1" cx="79.36" cy="79.37" rx="0.59" ry="0.34"/><path class="cls-1" d="M76.76,77.87a.26.26,0,0,0,0,.49,1,1,0,0,0,.84,0,.26.26,0,0,0,0-.49A1,1,0,0,0,76.76,77.87Z"/><path class="cls-1" d="M97.19,86.67a.93.93,0,0,0-.83,0c-.23.14-.23.35,0,.48a.9.9,0,0,0,.83,0A.26.26,0,0,0,97.19,86.67Z"/><ellipse class="cls-1" cx="94.6" cy="85.66" rx="0.59" ry="0.34"/><ellipse class="cls-1" cx="92.42" cy="84.4" rx="0.59" ry="0.34"/><path class="cls-1" d="M89.83,82.9c-.23.14-.23.35,0,.48a.87.87,0,0,0,.83,0c.23-.13.23-.34,0-.48A.93.93,0,0,0,89.83,82.9Z"/><path class="cls-1" d="M87.65,81.65c-.23.13-.23.34,0,.48a.93.93,0,0,0,.83,0c.23-.14.23-.35,0-.48A.87.87,0,0,0,87.65,81.65Z"/><path class="cls-1" d="M85.47,80.39a.25.25,0,0,0,0,.48.93.93,0,0,0,.83,0,.25.25,0,0,0,0-.48A.93.93,0,0,0,85.47,80.39Z"/><ellipse class="cls-1" cx="83.71" cy="79.37" rx="0.59" ry="0.34"/><path class="cls-1" d="M81.12,77.87a.26.26,0,0,0,0,.49.93.93,0,0,0,.83,0,.26.26,0,0,0,0-.49A.93.93,0,0,0,81.12,77.87Z"/><path class="cls-1" d="M78.94,76.62a.25.25,0,0,0,0,.48.93.93,0,0,0,.83,0,.25.25,0,0,0,0-.48A.87.87,0,0,0,78.94,76.62Z"/><path class="cls-1" d="M99.37,85.42a.87.87,0,0,0-.83,0c-.23.13-.23.34,0,.48a.93.93,0,0,0,.83,0A.25.25,0,0,0,99.37,85.42Z"/><path class="cls-1" d="M96.36,84.16a.25.25,0,0,0,0,.48.93.93,0,0,0,.83,0,.25.25,0,0,0,0-.48A.93.93,0,0,0,96.36,84.16Z"/><ellipse class="cls-1" cx="94.6" cy="83.14" rx="0.59" ry="0.34"/><path class="cls-1" d="M92,81.65c-.23.13-.23.34,0,.48a1,1,0,0,0,.84,0c.23-.14.23-.35,0-.48A.89.89,0,0,0,92,81.65Z"/><path class="cls-1" d="M89.83,80.39a.25.25,0,0,0,0,.48.93.93,0,0,0,.83,0,.25.25,0,0,0,0-.48A.93.93,0,0,0,89.83,80.39Z"/><ellipse class="cls-1" cx="88.07" cy="79.37" rx="0.59" ry="0.34"/><path class="cls-1" d="M85.47,77.87a.26.26,0,0,0,0,.49.93.93,0,0,0,.83,0,.26.26,0,0,0,0-.49A.93.93,0,0,0,85.47,77.87Z"/><ellipse class="cls-1" cx="83.71" cy="76.86" rx="0.59" ry="0.34"/><path class="cls-1" d="M81.12,75.36a.25.25,0,0,0,0,.48.93.93,0,0,0,.83,0,.25.25,0,0,0,0-.48A.93.93,0,0,0,81.12,75.36Z"/><path class="cls-1" d="M101.55,84.16a1,1,0,0,0-.84,0,.25.25,0,0,0,0,.48,1,1,0,0,0,.84,0A.25.25,0,0,0,101.55,84.16Z"/><ellipse class="cls-1" cx="98.95" cy="83.14" rx="0.59" ry="0.34"/><path class="cls-1" d="M96.36,81.65c-.23.13-.23.34,0,.48a.93.93,0,0,0,.83,0c.23-.14.23-.35,0-.48A.87.87,0,0,0,96.36,81.65Z"/><path class="cls-1" d="M94.18,80.39a.25.25,0,0,0,0,.48.93.93,0,0,0,.83,0,.25.25,0,0,0,0-.48A.93.93,0,0,0,94.18,80.39Z"/><path class="cls-1" d="M92,79.13a.25.25,0,0,0,0,.48.89.89,0,0,0,.84,0,.25.25,0,0,0,0-.48A1,1,0,0,0,92,79.13Z"/><path class="cls-1" d="M89.83,77.87a.26.26,0,0,0,0,.49.93.93,0,0,0,.83,0,.26.26,0,0,0,0-.49A.93.93,0,0,0,89.83,77.87Z"/><path class="cls-1" d="M87.65,76.62a.25.25,0,0,0,0,.48.93.93,0,0,0,.83,0,.25.25,0,0,0,0-.48A.93.93,0,0,0,87.65,76.62Z"/><path class="cls-1" d="M85.47,75.36a.25.25,0,0,0,0,.48.93.93,0,0,0,.83,0,.25.25,0,0,0,0-.48A.93.93,0,0,0,85.47,75.36Z"/><path class="cls-1" d="M83.29,74.1c-.23.14-.23.35,0,.48a.89.89,0,0,0,.84,0c.23-.13.23-.34,0-.48A1,1,0,0,0,83.29,74.1Z"/><ellipse class="cls-1" cx="31.3" cy="121.96" rx="0.59" ry="0.34"/><path class="cls-1" d="M28.71,120.46a.25.25,0,0,0,0,.48.93.93,0,0,0,.83,0,.25.25,0,0,0,0-.48A.93.93,0,0,0,28.71,120.46Z"/><ellipse class="cls-1" cx="26.95" cy="119.44" rx="0.59" ry="0.34"/><path class="cls-1" d="M24.35,118a.25.25,0,0,0,0,.48,1,1,0,0,0,.84,0,.25.25,0,0,0,0-.48A.89.89,0,0,0,24.35,118Z"/><ellipse class="cls-1" cx="22.59" cy="116.93" rx="0.59" ry="0.34"/><path class="cls-1" d="M20,115.43c-.23.14-.23.35,0,.48a.87.87,0,0,0,.83,0c.23-.13.23-.34,0-.48A.93.93,0,0,0,20,115.43Z"/><path class="cls-1" d="M17.82,114.18c-.23.13-.23.34,0,.48a1,1,0,0,0,.84,0c.23-.14.23-.35,0-.48A.89.89,0,0,0,17.82,114.18Z"/><path class="cls-1" d="M15.65,112.92a.25.25,0,0,0,0,.48.93.93,0,0,0,.83,0,.25.25,0,0,0,0-.48A.93.93,0,0,0,15.65,112.92Z"/><path class="cls-1" d="M13.47,111.66c-.23.14-.23.35,0,.48a.87.87,0,0,0,.83,0c.23-.13.23-.34,0-.48A.93.93,0,0,0,13.47,111.66Z"/><path class="cls-1" d="M11.29,110.41c-.23.13-.23.34,0,.48a1,1,0,0,0,.84,0c.23-.14.23-.35,0-.48A.89.89,0,0,0,11.29,110.41Z"/><ellipse class="cls-1" cx="9.53" cy="109.39" rx="0.59" ry="0.34"/><path class="cls-1" d="M6.94,107.89a.25.25,0,0,0,0,.48.87.87,0,0,0,.83,0,.25.25,0,0,0,0-.48A.93.93,0,0,0,6.94,107.89Z"/><path class="cls-1" d="M4.76,106.64c-.23.13-.23.34,0,.48a.93.93,0,0,0,.83,0c.23-.14.23-.35,0-.48A.87.87,0,0,0,4.76,106.64Z"/><path class="cls-1" d="M2.58,105.38a.25.25,0,0,0,0,.48,1,1,0,0,0,.84,0,.25.25,0,0,0,0-.48A1,1,0,0,0,2.58,105.38Z"/><path class="cls-1" d="M.41,104.12a.25.25,0,0,0,0,.48.93.93,0,0,0,.83,0,.25.25,0,0,0,0-.48A.93.93,0,0,0,.41,104.12Z"/><path class="cls-1" d="M36.08,121.72a1,1,0,0,0-.84,0,.25.25,0,0,0,0,.48.93.93,0,0,0,.83,0A.26.26,0,0,0,36.08,121.72Z"/><path class="cls-1" d="M33.06,120.46a.25.25,0,0,0,0,.48,1,1,0,0,0,.84,0,.25.25,0,0,0,0-.48A1,1,0,0,0,33.06,120.46Z"/><path class="cls-1" d="M30.89,119.2c-.23.14-.23.35,0,.48a.87.87,0,0,0,.83,0c.23-.13.23-.34,0-.48A.93.93,0,0,0,30.89,119.2Z"/><path class="cls-1" d="M28.71,118a.25.25,0,0,0,0,.48.93.93,0,0,0,.83,0,.25.25,0,0,0,0-.48A.87.87,0,0,0,28.71,118Z"/><path class="cls-1" d="M26.53,116.69a.25.25,0,0,0,0,.48.93.93,0,0,0,.83,0,.25.25,0,0,0,0-.48A.93.93,0,0,0,26.53,116.69Z"/><ellipse class="cls-1" cx="24.77" cy="115.67" rx="0.59" ry="0.34"/><ellipse class="cls-1" cx="22.59" cy="114.42" rx="0.59" ry="0.34"/><path class="cls-1" d="M20,112.92a.25.25,0,0,0,0,.48.93.93,0,0,0,.83,0,.25.25,0,0,0,0-.48A.93.93,0,0,0,20,112.92Z"/><path class="cls-1" d="M17.82,111.66c-.23.14-.23.35,0,.48a.89.89,0,0,0,.84,0c.23-.13.23-.34,0-.48A1,1,0,0,0,17.82,111.66Z"/><path class="cls-1" d="M15.65,110.41c-.23.13-.23.34,0,.48a.93.93,0,0,0,.83,0c.23-.14.23-.35,0-.48A.87.87,0,0,0,15.65,110.41Z"/><path class="cls-1" d="M13.47,109.15a.25.25,0,0,0,0,.48.93.93,0,0,0,.83,0,.25.25,0,0,0,0-.48A.93.93,0,0,0,13.47,109.15Z"/><path class="cls-1" d="M11.29,107.89a.25.25,0,0,0,0,.48.89.89,0,0,0,.84,0,.25.25,0,0,0,0-.48A1,1,0,0,0,11.29,107.89Z"/><path class="cls-1" d="M9.12,106.64c-.23.13-.23.34,0,.48a.93.93,0,0,0,.83,0c.23-.14.23-.35,0-.48A.87.87,0,0,0,9.12,106.64Z"/><path class="cls-1" d="M6.94,105.38a.25.25,0,0,0,0,.48.93.93,0,0,0,.83,0,.25.25,0,0,0,0-.48A.93.93,0,0,0,6.94,105.38Z"/><path class="cls-1" d="M4.76,104.12a.25.25,0,0,0,0,.48.93.93,0,0,0,.83,0,.25.25,0,0,0,0-.48A.93.93,0,0,0,4.76,104.12Z"/><ellipse class="cls-1" cx="3" cy="103.1" rx="0.59" ry="0.34"/><path class="cls-1" d="M.41,101.61a.25.25,0,0,0,0,.48.93.93,0,0,0,.83,0,.25.25,0,0,0,0-.48A.87.87,0,0,0,.41,101.61Z"/><path class="cls-1" d="M38.25,120.46a.93.93,0,0,0-.83,0,.25.25,0,0,0,0,.48.87.87,0,0,0,.83,0C38.48,120.81,38.48,120.6,38.25,120.46Z"/><ellipse class="cls-1" cx="35.66" cy="119.44" rx="0.59" ry="0.34"/><path class="cls-1" d="M33.06,118a.25.25,0,0,0,0,.48,1,1,0,0,0,.84,0,.25.25,0,0,0,0-.48A.89.89,0,0,0,33.06,118Z"/><path class="cls-1" d="M30.89,116.69a.25.25,0,0,0,0,.48.93.93,0,0,0,.83,0,.25.25,0,0,0,0-.48A.93.93,0,0,0,30.89,116.69Z"/><path class="cls-1" d="M28.71,115.43c-.23.14-.23.35,0,.48a.87.87,0,0,0,.83,0c.23-.13.23-.34,0-.48A.93.93,0,0,0,28.71,115.43Z"/><path class="cls-1" d="M26.53,114.18c-.23.13-.23.34,0,.48a.93.93,0,0,0,.83,0c.23-.14.23-.35,0-.48A.87.87,0,0,0,26.53,114.18Z"/><path class="cls-1" d="M24.35,112.92a.25.25,0,0,0,0,.48,1,1,0,0,0,.84,0,.25.25,0,0,0,0-.48A1,1,0,0,0,24.35,112.92Z"/><ellipse class="cls-1" cx="22.59" cy="111.9" rx="0.59" ry="0.34"/><path class="cls-1" d="M20,110.41c-.23.13-.23.34,0,.48a.93.93,0,0,0,.83,0c.23-.14.23-.35,0-.48A.87.87,0,0,0,20,110.41Z"/><path class="cls-1" d="M17.82,109.15a.25.25,0,0,0,0,.48,1,1,0,0,0,.84,0,.25.25,0,0,0,0-.48A1,1,0,0,0,17.82,109.15Z"/><path class="cls-1" d="M15.65,107.89a.25.25,0,0,0,0,.48.87.87,0,0,0,.83,0,.25.25,0,0,0,0-.48A.93.93,0,0,0,15.65,107.89Z"/><ellipse class="cls-1" cx="13.89" cy="106.88" rx="0.59" ry="0.34"/><path class="cls-1" d="M11.29,105.38a.25.25,0,0,0,0,.48,1,1,0,0,0,.84,0,.25.25,0,0,0,0-.48A1,1,0,0,0,11.29,105.38Z"/><path class="cls-1" d="M9.12,104.12a.25.25,0,0,0,0,.48.93.93,0,0,0,.83,0,.25.25,0,0,0,0-.48A.93.93,0,0,0,9.12,104.12Z"/><path class="cls-1" d="M6.94,102.86a.26.26,0,0,0,0,.49.93.93,0,0,0,.83,0,.26.26,0,0,0,0-.49A.93.93,0,0,0,6.94,102.86Z"/><path class="cls-1" d="M4.76,101.61a.25.25,0,0,0,0,.48.93.93,0,0,0,.83,0,.25.25,0,0,0,0-.48A.87.87,0,0,0,4.76,101.61Z"/><ellipse class="cls-1" cx="3" cy="100.59" rx="0.59" ry="0.34"/><path class="cls-1" d="M40.45,119.19a.93.93,0,0,0-.83,0c-.23.13-.24.35,0,.48a.89.89,0,0,0,.84,0C40.68,119.54,40.68,119.33,40.45,119.19Z"/><path class="cls-1" d="M37.44,117.93c-.23.14-.23.35,0,.48a.87.87,0,0,0,.83,0c.23-.13.23-.34,0-.48A.93.93,0,0,0,37.44,117.93Z"/><path class="cls-1" d="M35.26,116.68a.25.25,0,0,0,0,.48.93.93,0,0,0,.83,0,.25.25,0,0,0,0-.48A.87.87,0,0,0,35.26,116.68Z"/><ellipse class="cls-1" cx="33.5" cy="115.66" rx="0.59" ry="0.34"/><path class="cls-1" d="M30.9,114.16c-.23.14-.23.35,0,.48a.89.89,0,0,0,.84,0c.23-.13.23-.34,0-.48A1,1,0,0,0,30.9,114.16Z"/><path class="cls-1" d="M28.73,112.91c-.23.13-.23.34,0,.48a.93.93,0,0,0,.83,0c.23-.14.23-.35,0-.48A.87.87,0,0,0,28.73,112.91Z"/><path class="cls-1" d="M26.55,111.65a.25.25,0,0,0,0,.48.93.93,0,0,0,.83,0,.25.25,0,0,0,0-.48A.93.93,0,0,0,26.55,111.65Z"/><path class="cls-1" d="M24.37,110.39c-.23.14-.23.35,0,.48a.89.89,0,0,0,.84,0c.23-.13.23-.34,0-.48A1,1,0,0,0,24.37,110.39Z"/><ellipse class="cls-1" cx="22.61" cy="109.38" rx="0.59" ry="0.34"/><path class="cls-1" d="M20,107.88a.25.25,0,0,0,0,.48.93.93,0,0,0,.83,0,.25.25,0,0,0,0-.48A.93.93,0,0,0,20,107.88Z"/><path class="cls-1" d="M17.84,106.62a.25.25,0,0,0,0,.48.89.89,0,0,0,.84,0,.25.25,0,0,0,0-.48A1,1,0,0,0,17.84,106.62Z"/><path class="cls-1" d="M15.67,105.36a.26.26,0,0,0,0,.49.93.93,0,0,0,.83,0,.26.26,0,0,0,0-.49A.93.93,0,0,0,15.67,105.36Z"/><path class="cls-1" d="M13.49,104.11a.25.25,0,0,0,0,.48.93.93,0,0,0,.83,0,.25.25,0,0,0,0-.48A.93.93,0,0,0,13.49,104.11Z"/><ellipse class="cls-1" cx="11.73" cy="103.09" rx="0.59" ry="0.34"/><path class="cls-1" d="M9.13,101.59c-.23.14-.23.35,0,.48a.89.89,0,0,0,.84,0c.23-.13.23-.34,0-.48A1,1,0,0,0,9.13,101.59Z"/><ellipse class="cls-1" cx="7.37" cy="100.58" rx="0.59" ry="0.34"/><ellipse class="cls-1" cx="5.2" cy="99.32" rx="0.59" ry="0.34"/><path class="cls-1" d="M42.63,117.94a.92.92,0,0,0-.84,0,.26.26,0,0,0,0,.49.93.93,0,0,0,.83,0C42.85,118.28,42.85,118.07,42.63,117.94Z"/><path class="cls-1" d="M39.61,116.68a.25.25,0,0,0,0,.48,1,1,0,0,0,.84,0,.25.25,0,0,0,0-.48A.89.89,0,0,0,39.61,116.68Z"/><path class="cls-1" d="M37.44,115.42a.25.25,0,0,0,0,.48.93.93,0,0,0,.83,0,.25.25,0,0,0,0-.48A.93.93,0,0,0,37.44,115.42Z"/><ellipse class="cls-1" cx="35.68" cy="114.4" rx="0.59" ry="0.34"/><path class="cls-1" d="M33.08,112.91c-.23.13-.23.34,0,.48a.93.93,0,0,0,.83,0c.23-.14.23-.35,0-.48A.87.87,0,0,0,33.08,112.91Z"/><ellipse class="cls-1" cx="31.32" cy="111.89" rx="0.59" ry="0.34"/><path class="cls-1" d="M28.73,110.39c-.23.14-.23.35,0,.48a.87.87,0,0,0,.83,0c.23-.13.23-.34,0-.48A.93.93,0,0,0,28.73,110.39Z"/><path class="cls-1" d="M26.55,109.14c-.23.13-.23.34,0,.48a.93.93,0,0,0,.83,0c.23-.14.23-.35,0-.48A.87.87,0,0,0,26.55,109.14Z"/><path class="cls-1" d="M24.37,107.88a.25.25,0,0,0,0,.48,1,1,0,0,0,.84,0,.25.25,0,0,0,0-.48A1,1,0,0,0,24.37,107.88Z"/><path class="cls-1" d="M22.2,106.62a.25.25,0,0,0,0,.48.87.87,0,0,0,.83,0,.25.25,0,0,0,0-.48A.93.93,0,0,0,22.2,106.62Z"/><path class="cls-1" d="M20,105.36a.26.26,0,0,0,0,.49.93.93,0,0,0,.83,0,.26.26,0,0,0,0-.49A.93.93,0,0,0,20,105.36Z"/><path class="cls-1" d="M17.84,104.11a.25.25,0,0,0,0,.48,1,1,0,0,0,.84,0,.25.25,0,0,0,0-.48A1,1,0,0,0,17.84,104.11Z"/><ellipse class="cls-1" cx="16.08" cy="103.09" rx="0.59" ry="0.34"/><path class="cls-1" d="M13.49,101.59c-.23.14-.23.35,0,.48a.87.87,0,0,0,.83,0c.23-.13.23-.34,0-.48A.93.93,0,0,0,13.49,101.59Z"/><ellipse class="cls-1" cx="11.73" cy="100.58" rx="0.59" ry="0.34"/><ellipse class="cls-1" cx="9.55" cy="99.32" rx="0.59" ry="0.34"/><ellipse class="cls-1" cx="7.37" cy="98.06" rx="0.59" ry="0.34"/><path class="cls-1" d="M44.8,116.68a.93.93,0,0,0-.83,0,.25.25,0,0,0,0,.48.93.93,0,0,0,.83,0A.25.25,0,0,0,44.8,116.68Z"/><path class="cls-1" d="M41.79,115.42a.25.25,0,0,0,0,.48.93.93,0,0,0,.83,0,.25.25,0,0,0,0-.48A.93.93,0,0,0,41.79,115.42Z"/><path class="cls-1" d="M39.61,114.16c-.23.14-.23.35,0,.48a.89.89,0,0,0,.84,0c.23-.13.23-.34,0-.48A1,1,0,0,0,39.61,114.16Z"/><path class="cls-1" d="M37.44,112.91c-.23.13-.23.34,0,.48a.93.93,0,0,0,.83,0c.23-.14.23-.35,0-.48A.87.87,0,0,0,37.44,112.91Z"/><ellipse class="cls-1" cx="35.68" cy="111.89" rx="0.59" ry="0.34"/><path class="cls-1" d="M33.08,110.39c-.23.14-.23.35,0,.48a.87.87,0,0,0,.83,0c.23-.13.23-.34,0-.48A.93.93,0,0,0,33.08,110.39Z"/><ellipse class="cls-1" cx="31.32" cy="109.38" rx="0.59" ry="0.34"/><path class="cls-1" d="M28.73,107.88a.25.25,0,0,0,0,.48.93.93,0,0,0,.83,0,.25.25,0,0,0,0-.48A.93.93,0,0,0,28.73,107.88Z"/><path class="cls-1" d="M26.55,106.62a.25.25,0,0,0,0,.48.87.87,0,0,0,.83,0,.25.25,0,0,0,0-.48A.93.93,0,0,0,26.55,106.62Z"/><path class="cls-1" d="M24.37,105.36a.26.26,0,0,0,0,.49,1,1,0,0,0,.84,0,.26.26,0,0,0,0-.49A1,1,0,0,0,24.37,105.36Z"/><path class="cls-1" d="M22.2,104.11a.25.25,0,0,0,0,.48.93.93,0,0,0,.83,0,.25.25,0,0,0,0-.48A.93.93,0,0,0,22.2,104.11Z"/><path class="cls-1" d="M20,102.85a.25.25,0,0,0,0,.48.93.93,0,0,0,.83,0,.25.25,0,0,0,0-.48A.93.93,0,0,0,20,102.85Z"/><path class="cls-1" d="M17.84,101.59c-.23.14-.23.35,0,.48a.89.89,0,0,0,.84,0c.22-.13.22-.34,0-.48A1,1,0,0,0,17.84,101.59Z"/><path class="cls-1" d="M15.67,100.34a.25.25,0,0,0,0,.48.93.93,0,0,0,.83,0,.25.25,0,0,0,0-.48A.87.87,0,0,0,15.67,100.34Z"/><path class="cls-1" d="M11.31,97.82c-.23.14-.23.35,0,.48a.87.87,0,0,0,.83,0c.23-.13.23-.34,0-.48A.93.93,0,0,0,11.31,97.82Z"/><path class="cls-1" d="M47,115.42a.93.93,0,0,0-.83,0,.25.25,0,0,0,0,.48.9.9,0,0,0,.83,0A.25.25,0,0,0,47,115.42Z"/><path class="cls-1" d="M44,114.16c-.23.14-.23.35,0,.48a.87.87,0,0,0,.83,0c.23-.13.23-.34,0-.48A.93.93,0,0,0,44,114.16Z"/><path class="cls-1" d="M41.79,112.91c-.23.13-.23.34,0,.48a.93.93,0,0,0,.83,0c.23-.14.23-.35,0-.48A.87.87,0,0,0,41.79,112.91Z"/><path class="cls-1" d="M39.61,111.65a.25.25,0,0,0,0,.48,1,1,0,0,0,.84,0,.25.25,0,0,0,0-.48A1,1,0,0,0,39.61,111.65Z"/><ellipse class="cls-1" cx="37.85" cy="110.63" rx="0.59" ry="0.34"/><path class="cls-1" d="M35.26,109.14c-.23.13-.23.34,0,.48a.93.93,0,0,0,.83,0c.23-.14.23-.35,0-.48A.87.87,0,0,0,35.26,109.14Z"/><path class="cls-1" d="M33.08,107.88a.25.25,0,0,0,0,.48.93.93,0,0,0,.83,0,.25.25,0,0,0,0-.48A.93.93,0,0,0,33.08,107.88Z"/><path class="cls-1" d="M30.9,106.62a.25.25,0,0,0,0,.48.89.89,0,0,0,.84,0,.25.25,0,0,0,0-.48A1,1,0,0,0,30.9,106.62Z"/><path class="cls-1" d="M28.73,105.36a.26.26,0,0,0,0,.49.93.93,0,0,0,.83,0,.26.26,0,0,0,0-.49A.93.93,0,0,0,28.73,105.36Z"/><path class="cls-1" d="M26.55,104.11a.25.25,0,0,0,0,.48.93.93,0,0,0,.83,0,.25.25,0,0,0,0-.48A.93.93,0,0,0,26.55,104.11Z"/><path class="cls-1" d="M24.37,102.85a.25.25,0,0,0,0,.48,1,1,0,0,0,.84,0,.25.25,0,0,0,0-.48A1,1,0,0,0,24.37,102.85Z"/><path class="cls-1" d="M22.2,101.59a.26.26,0,0,0,0,.49.93.93,0,0,0,.83,0,.26.26,0,0,0,0-.49A.93.93,0,0,0,22.2,101.59Z"/><path class="cls-1" d="M20,100.34a.25.25,0,0,0,0,.48.93.93,0,0,0,.83,0,.25.25,0,0,0,0-.48A.87.87,0,0,0,20,100.34Z"/><path class="cls-1" d="M17.84,99.08a.25.25,0,0,0,0,.48,1,1,0,0,0,.84,0,.26.26,0,0,0,0-.48A1,1,0,0,0,17.84,99.08Z"/><ellipse class="cls-1" cx="16.08" cy="98.06" rx="0.59" ry="0.34"/><ellipse class="cls-1" cx="13.9" cy="96.81" rx="0.59" ry="0.34"/><path class="cls-1" d="M49.16,114.16a1,1,0,0,0-.84,0c-.23.14-.23.35,0,.48a.9.9,0,0,0,.83,0C49.39,114.51,49.39,114.3,49.16,114.16Z"/><path class="cls-1" d="M46.14,112.91c-.23.13-.23.34,0,.48a1,1,0,0,0,.84,0c.23-.14.23-.35,0-.48A.89.89,0,0,0,46.14,112.91Z"/><path class="cls-1" d="M44,111.65a.25.25,0,0,0,0,.48.93.93,0,0,0,.83,0,.25.25,0,0,0,0-.48A.93.93,0,0,0,44,111.65Z"/><path class="cls-1" d="M41.79,110.39c-.23.14-.23.35,0,.48a.87.87,0,0,0,.83,0c.23-.13.23-.34,0-.48A.93.93,0,0,0,41.79,110.39Z"/><path class="cls-1" d="M39.61,109.14c-.23.13-.23.34,0,.48a1,1,0,0,0,.84,0c.23-.14.23-.35,0-.48A.89.89,0,0,0,39.61,109.14Z"/><path class="cls-1" d="M37.44,107.88a.25.25,0,0,0,0,.48.93.93,0,0,0,.83,0,.25.25,0,0,0,0-.48A.93.93,0,0,0,37.44,107.88Z"/><path class="cls-1" d="M35.26,106.62a.25.25,0,0,0,0,.48.87.87,0,0,0,.83,0,.25.25,0,0,0,0-.48A.93.93,0,0,0,35.26,106.62Z"/><path class="cls-1" d="M33.08,105.37c-.23.13-.23.34,0,.48a.93.93,0,0,0,.83,0c.23-.14.23-.35,0-.48A.87.87,0,0,0,33.08,105.37Z"/><path class="cls-1" d="M30.9,104.11a.25.25,0,0,0,0,.48,1,1,0,0,0,.84,0,.25.25,0,0,0,0-.48A1,1,0,0,0,30.9,104.11Z"/><path class="cls-1" d="M28.73,102.85a.25.25,0,0,0,0,.48.93.93,0,0,0,.83,0,.25.25,0,0,0,0-.48A.93.93,0,0,0,28.73,102.85Z"/><path class="cls-1" d="M26.55,101.59a.26.26,0,0,0,0,.49.93.93,0,0,0,.83,0,.26.26,0,0,0,0-.49A.93.93,0,0,0,26.55,101.59Z"/><ellipse class="cls-1" cx="24.79" cy="100.58" rx="0.59" ry="0.34"/><path class="cls-1" d="M22.2,99.08a.25.25,0,0,0,0,.48.93.93,0,0,0,.83,0,.25.25,0,0,0,0-.48A.93.93,0,0,0,22.2,99.08Z"/><path class="cls-1" d="M20,97.82c-.23.14-.23.35,0,.48a.87.87,0,0,0,.83,0c.23-.13.23-.34,0-.48A.93.93,0,0,0,20,97.82Z"/><ellipse class="cls-1" cx="18.26" cy="96.81" rx="0.59" ry="0.34"/><ellipse class="cls-1" cx="16.08" cy="95.55" rx="0.59" ry="0.34"/><path class="cls-1" d="M51.33,112.91a.9.9,0,0,0-.83,0c-.23.13-.23.34,0,.48a.93.93,0,0,0,.83,0A.25.25,0,0,0,51.33,112.91Z"/><path class="cls-1" d="M48.32,111.65a.25.25,0,0,0,0,.48.93.93,0,0,0,.83,0,.25.25,0,0,0,0-.48A.93.93,0,0,0,48.32,111.65Z"/><path class="cls-1" d="M46.14,110.39c-.23.14-.23.35,0,.48a.89.89,0,0,0,.84,0c.23-.13.23-.34,0-.48A1,1,0,0,0,46.14,110.39Z"/><path class="cls-1" d="M44,109.14c-.23.13-.23.34,0,.48a.93.93,0,0,0,.83,0c.23-.14.23-.35,0-.48A.87.87,0,0,0,44,109.14Z"/><ellipse class="cls-1" cx="42.21" cy="108.12" rx="0.59" ry="0.34"/><ellipse class="cls-1" cx="40.03" cy="106.86" rx="0.59" ry="0.34"/><path class="cls-1" d="M37.44,105.37c-.23.13-.23.34,0,.48a.93.93,0,0,0,.83,0c.23-.14.23-.35,0-.48A.87.87,0,0,0,37.44,105.37Z"/><path class="cls-1" d="M35.26,104.11a.25.25,0,0,0,0,.48.93.93,0,0,0,.83,0,.25.25,0,0,0,0-.48A.93.93,0,0,0,35.26,104.11Z"/><path class="cls-1" d="M33.08,102.85a.25.25,0,0,0,0,.48.93.93,0,0,0,.83,0,.25.25,0,0,0,0-.48A.93.93,0,0,0,33.08,102.85Z"/><path class="cls-1" d="M30.9,101.59a.26.26,0,0,0,0,.49,1,1,0,0,0,.84,0,.26.26,0,0,0,0-.49A1,1,0,0,0,30.9,101.59Z"/><path class="cls-1" d="M28.73,100.34a.25.25,0,0,0,0,.48.93.93,0,0,0,.83,0,.25.25,0,0,0,0-.48A.87.87,0,0,0,28.73,100.34Z"/><path class="cls-1" d="M26.55,99.08a.25.25,0,0,0,0,.48.93.93,0,0,0,.83,0,.25.25,0,0,0,0-.48A.93.93,0,0,0,26.55,99.08Z"/><path class="cls-1" d="M24.37,97.82c-.23.14-.23.35,0,.48a.89.89,0,0,0,.84,0c.23-.13.23-.34,0-.48A1,1,0,0,0,24.37,97.82Z"/><path class="cls-1" d="M22.2,96.57c-.23.13-.23.34,0,.48a.93.93,0,0,0,.83,0c.23-.14.23-.35,0-.48A.87.87,0,0,0,22.2,96.57Z"/><path class="cls-1" d="M20,95.31a.25.25,0,0,0,0,.48.93.93,0,0,0,.83,0,.25.25,0,0,0,0-.48A.93.93,0,0,0,20,95.31Z"/><ellipse class="cls-1" cx="18.26" cy="94.29" rx="0.59" ry="0.34"/><path class="cls-1" d="M53.51,111.65a.93.93,0,0,0-.83,0,.25.25,0,0,0,0,.48.93.93,0,0,0,.83,0A.25.25,0,0,0,53.51,111.65Z"/><path class="cls-1" d="M50.5,110.39c-.23.14-.23.35,0,.48a.87.87,0,0,0,.83,0c.23-.13.23-.34,0-.48A.93.93,0,0,0,50.5,110.39Z"/><path class="cls-1" d="M48.32,109.14c-.23.13-.23.34,0,.48a.93.93,0,0,0,.83,0c.23-.14.23-.35,0-.48A.87.87,0,0,0,48.32,109.14Z"/><path class="cls-1" d="M46.14,107.88a.25.25,0,0,0,0,.48,1,1,0,0,0,.84,0,.25.25,0,0,0,0-.48A1,1,0,0,0,46.14,107.88Z"/><ellipse class="cls-1" cx="44.38" cy="106.86" rx="0.59" ry="0.34"/><path class="cls-1" d="M41.79,105.37c-.23.13-.23.34,0,.48a.93.93,0,0,0,.83,0c.23-.14.23-.35,0-.48A.87.87,0,0,0,41.79,105.37Z"/><path class="cls-1" d="M39.61,104.11a.25.25,0,0,0,0,.48,1,1,0,0,0,.84,0,.25.25,0,0,0,0-.48A1,1,0,0,0,39.61,104.11Z"/><ellipse class="cls-1" cx="37.85" cy="103.09" rx="0.59" ry="0.34"/><path class="cls-1" d="M35.26,101.59a.26.26,0,0,0,0,.49.93.93,0,0,0,.83,0,.26.26,0,0,0,0-.49A.93.93,0,0,0,35.26,101.59Z"/><path class="cls-1" d="M33.08,100.34a.25.25,0,0,0,0,.48.93.93,0,0,0,.83,0,.25.25,0,0,0,0-.48A.87.87,0,0,0,33.08,100.34Z"/><path class="cls-1" d="M30.9,99.08a.25.25,0,0,0,0,.48,1,1,0,0,0,.84,0,.25.25,0,0,0,0-.48A1,1,0,0,0,30.9,99.08Z"/><path class="cls-1" d="M28.73,97.82c-.23.14-.23.35,0,.48a.87.87,0,0,0,.83,0c.23-.13.23-.34,0-.48A.93.93,0,0,0,28.73,97.82Z"/><path class="cls-1" d="M26.55,96.57c-.23.13-.23.34,0,.48a.93.93,0,0,0,.83,0c.23-.14.23-.35,0-.48A.87.87,0,0,0,26.55,96.57Z"/><path class="cls-1" d="M24.37,95.31a.25.25,0,0,0,0,.48,1,1,0,0,0,.84,0,.25.25,0,0,0,0-.48A1,1,0,0,0,24.37,95.31Z"/><ellipse class="cls-1" cx="22.61" cy="94.29" rx="0.59" ry="0.34"/><path class="cls-1" d="M55.69,110.39a1,1,0,0,0-.84,0c-.23.14-.23.35,0,.48a.92.92,0,0,0,.84,0A.26.26,0,0,0,55.69,110.39Z"/><path class="cls-1" d="M52.67,109.14c-.23.13-.23.34,0,.48a1,1,0,0,0,.84,0c.23-.14.23-.35,0-.48A.89.89,0,0,0,52.67,109.14Z"/><path class="cls-1" d="M50.5,107.88a.25.25,0,0,0,0,.48.93.93,0,0,0,.83,0,.25.25,0,0,0,0-.48A.93.93,0,0,0,50.5,107.88Z"/><path class="cls-1" d="M48.32,106.62a.25.25,0,0,0,0,.48.87.87,0,0,0,.83,0,.25.25,0,0,0,0-.48A.93.93,0,0,0,48.32,106.62Z"/><path class="cls-1" d="M46.14,105.37c-.23.13-.23.34,0,.48a1,1,0,0,0,.84,0c.23-.14.23-.35,0-.48A.89.89,0,0,0,46.14,105.37Z"/><ellipse class="cls-1" cx="44.38" cy="104.35" rx="0.59" ry="0.34"/><path class="cls-1" d="M41.79,102.85a.25.25,0,0,0,0,.48.93.93,0,0,0,.83,0,.25.25,0,0,0,0-.48A.93.93,0,0,0,41.79,102.85Z"/><path class="cls-1" d="M39.61,101.59a.26.26,0,0,0,0,.49,1,1,0,0,0,.84,0,.26.26,0,0,0,0-.49A1,1,0,0,0,39.61,101.59Z"/><path class="cls-1" d="M37.44,100.34a.25.25,0,0,0,0,.48.93.93,0,0,0,.83,0,.25.25,0,0,0,0-.48A.87.87,0,0,0,37.44,100.34Z"/><path class="cls-1" d="M35.26,99.08a.25.25,0,0,0,0,.48.93.93,0,0,0,.83,0,.25.25,0,0,0,0-.48A.93.93,0,0,0,35.26,99.08Z"/><ellipse class="cls-1" cx="33.5" cy="98.06" rx="0.59" ry="0.34"/><path class="cls-1" d="M30.9,96.57c-.23.13-.23.34,0,.48a1,1,0,0,0,.84,0c.23-.14.23-.35,0-.48A.89.89,0,0,0,30.9,96.57Z"/><path class="cls-1" d="M28.73,95.31a.25.25,0,0,0,0,.48.93.93,0,0,0,.83,0,.25.25,0,0,0,0-.48A.93.93,0,0,0,28.73,95.31Z"/><path class="cls-1" d="M26.55,94.05c-.23.14-.23.35,0,.48a.87.87,0,0,0,.83,0c.23-.13.23-.34,0-.48A.93.93,0,0,0,26.55,94.05Z"/><path class="cls-1" d="M24.37,92.8c-.23.13-.23.34,0,.48a1,1,0,0,0,.84,0c.23-.14.23-.35,0-.48A.89.89,0,0,0,24.37,92.8Z"/><path class="cls-1" d="M57.88,109.12a.93.93,0,0,0-.83,0c-.23.14-.23.35,0,.48a.87.87,0,0,0,.83,0C58.11,109.47,58.11,109.26,57.88,109.12Z"/><path class="cls-1" d="M54.87,107.87c-.23.13-.23.34,0,.48a.93.93,0,0,0,.83,0c.23-.14.23-.35,0-.48A.87.87,0,0,0,54.87,107.87Z"/><path class="cls-1" d="M52.69,106.61a.25.25,0,0,0,0,.48,1,1,0,0,0,.84,0,.25.25,0,0,0,0-.48A1,1,0,0,0,52.69,106.61Z"/><path class="cls-1" d="M50.52,105.35a.25.25,0,0,0,0,.48.87.87,0,0,0,.83,0,.25.25,0,0,0,0-.48A.93.93,0,0,0,50.52,105.35Z"/><ellipse class="cls-1" cx="48.76" cy="104.34" rx="0.59" ry="0.34"/><ellipse class="cls-1" cx="46.58" cy="103.08" rx="0.59" ry="0.34"/><path class="cls-1" d="M44,101.58a.25.25,0,0,0,0,.48.93.93,0,0,0,.83,0,.25.25,0,0,0,0-.48A.93.93,0,0,0,44,101.58Z"/><path class="cls-1" d="M41.81,100.32c-.23.14-.23.35,0,.48a.87.87,0,0,0,.83,0c.23-.13.23-.34,0-.48A.93.93,0,0,0,41.81,100.32Z"/><path class="cls-1" d="M39.63,99.07a.25.25,0,0,0,0,.48.93.93,0,0,0,.83,0,.25.25,0,0,0,0-.48A.87.87,0,0,0,39.63,99.07Z"/><path class="cls-1" d="M37.45,97.81a.25.25,0,0,0,0,.48,1,1,0,0,0,.84,0,.25.25,0,0,0,0-.48A1,1,0,0,0,37.45,97.81Z"/><path class="cls-1" d="M35.28,96.55c-.23.14-.23.35,0,.48a.87.87,0,0,0,.83,0c.23-.13.23-.34,0-.48A.93.93,0,0,0,35.28,96.55Z"/><path class="cls-1" d="M33.1,95.3c-.23.13-.23.34,0,.48a.93.93,0,0,0,.83,0c.23-.14.23-.35,0-.48A.87.87,0,0,0,33.1,95.3Z"/><ellipse class="cls-1" cx="31.34" cy="94.28" rx="0.59" ry="0.34"/><ellipse class="cls-1" cx="29.16" cy="93.02" rx="0.59" ry="0.34"/><path class="cls-1" d="M60.06,107.87a.87.87,0,0,0-.83,0c-.23.13-.23.34,0,.48a.93.93,0,0,0,.83,0A.25.25,0,0,0,60.06,107.87Z"/><path class="cls-1" d="M57.05,106.61a.25.25,0,0,0,0,.48.93.93,0,0,0,.83,0,.25.25,0,0,0,0-.48A.93.93,0,0,0,57.05,106.61Z"/><path class="cls-1" d="M54.87,105.35a.25.25,0,0,0,0,.48.87.87,0,0,0,.83,0,.25.25,0,0,0,0-.48A.93.93,0,0,0,54.87,105.35Z"/><path class="cls-1" d="M52.69,104.09a.26.26,0,0,0,0,.49,1,1,0,0,0,.84,0,.26.26,0,0,0,0-.49A1,1,0,0,0,52.69,104.09Z"/><path class="cls-1" d="M50.52,102.84a.25.25,0,0,0,0,.48.93.93,0,0,0,.83,0,.25.25,0,0,0,0-.48A.93.93,0,0,0,50.52,102.84Z"/><path class="cls-1" d="M48.34,101.58a.25.25,0,0,0,0,.48.93.93,0,0,0,.83,0,.25.25,0,0,0,0-.48A.93.93,0,0,0,48.34,101.58Z"/><ellipse class="cls-1" cx="46.58" cy="100.56" rx="0.59" ry="0.34"/><path class="cls-1" d="M44,99.07a.25.25,0,0,0,0,.48.93.93,0,0,0,.83,0,.25.25,0,0,0,0-.48A.87.87,0,0,0,44,99.07Z"/><ellipse class="cls-1" cx="42.22" cy="98.05" rx="0.59" ry="0.34"/><path class="cls-1" d="M39.63,96.55c-.23.14-.23.35,0,.48a.87.87,0,0,0,.83,0c.23-.13.23-.34,0-.48A.93.93,0,0,0,39.63,96.55Z"/><path class="cls-1" d="M37.45,95.3c-.23.13-.23.34,0,.48a1,1,0,0,0,.84,0c.23-.14.23-.35,0-.48A.89.89,0,0,0,37.45,95.3Z"/><path class="cls-1" d="M35.28,94a.25.25,0,0,0,0,.48.93.93,0,0,0,.83,0,.25.25,0,0,0,0-.48A.93.93,0,0,0,35.28,94Z"/><path class="cls-1" d="M33.1,92.78c-.23.14-.23.35,0,.48a.87.87,0,0,0,.83,0c.23-.13.23-.34,0-.48A.93.93,0,0,0,33.1,92.78Z"/><path class="cls-1" d="M30.92,91.53c-.23.13-.23.34,0,.48a1,1,0,0,0,.84,0c.23-.14.23-.35,0-.48A.89.89,0,0,0,30.92,91.53Z"/><path class="cls-1" d="M62.24,106.61a1,1,0,0,0-.84,0,.25.25,0,0,0,0,.48,1,1,0,0,0,.84,0A.25.25,0,0,0,62.24,106.61Z"/><path class="cls-1" d="M59.22,105.35a.25.25,0,0,0,0,.48.89.89,0,0,0,.84,0,.25.25,0,0,0,0-.48A1,1,0,0,0,59.22,105.35Z"/><ellipse class="cls-1" cx="57.46" cy="104.34" rx="0.59" ry="0.34"/><path class="cls-1" d="M54.87,102.84a.25.25,0,0,0,0,.48.93.93,0,0,0,.83,0,.25.25,0,0,0,0-.48A.93.93,0,0,0,54.87,102.84Z"/><path class="cls-1" d="M52.69,101.58a.25.25,0,0,0,0,.48,1,1,0,0,0,.84,0,.25.25,0,0,0,0-.48A1,1,0,0,0,52.69,101.58Z"/><path class="cls-1" d="M50.52,100.32c-.23.14-.23.35,0,.48a.87.87,0,0,0,.83,0c.23-.13.23-.34,0-.48A.93.93,0,0,0,50.52,100.32Z"/><path class="cls-1" d="M48.34,99.07a.25.25,0,0,0,0,.48.93.93,0,0,0,.83,0,.25.25,0,0,0,0-.48A.87.87,0,0,0,48.34,99.07Z"/><path class="cls-1" d="M46.16,97.81a.25.25,0,0,0,0,.48,1,1,0,0,0,.84,0,.25.25,0,0,0,0-.48A1,1,0,0,0,46.16,97.81Z"/><path class="cls-1" d="M44,96.55c-.23.14-.23.35,0,.48a.87.87,0,0,0,.83,0c.23-.13.23-.34,0-.48A.93.93,0,0,0,44,96.55Z"/><path class="cls-1" d="M41.81,95.3c-.23.13-.23.34,0,.48a.93.93,0,0,0,.83,0c.23-.14.23-.35,0-.48A.87.87,0,0,0,41.81,95.3Z"/><path class="cls-1" d="M39.63,94a.25.25,0,0,0,0,.48.93.93,0,0,0,.83,0,.25.25,0,0,0,0-.48A.93.93,0,0,0,39.63,94Z"/><path class="cls-1" d="M37.45,92.78c-.23.14-.23.35,0,.48a.89.89,0,0,0,.84,0c.23-.13.23-.34,0-.48A1,1,0,0,0,37.45,92.78Z"/><path class="cls-1" d="M35.28,91.53c-.23.13-.23.34,0,.48a.93.93,0,0,0,.83,0c.23-.14.23-.35,0-.48A.87.87,0,0,0,35.28,91.53Z"/><path class="cls-1" d="M64.41,105.35a.93.93,0,0,0-.83,0c-.23.14-.23.35,0,.48a.87.87,0,0,0,.83,0C64.64,105.7,64.64,105.49,64.41,105.35Z"/><path class="cls-1" d="M61.4,104.09a.26.26,0,0,0,0,.49.93.93,0,0,0,.83,0,.26.26,0,0,0,0-.49A.93.93,0,0,0,61.4,104.09Z"/><path class="cls-1" d="M59.22,102.84a.25.25,0,0,0,0,.48,1,1,0,0,0,.84,0,.25.25,0,0,0,0-.48A1,1,0,0,0,59.22,102.84Z"/><ellipse class="cls-1" cx="57.46" cy="101.82" rx="0.59" ry="0.34"/><path class="cls-1" d="M54.87,100.32c-.23.14-.23.35,0,.48a.87.87,0,0,0,.83,0c.23-.13.23-.34,0-.48A.93.93,0,0,0,54.87,100.32Z"/><path class="cls-1" d="M52.69,99.07a.25.25,0,0,0,0,.48,1,1,0,0,0,.84,0,.25.25,0,0,0,0-.48A.89.89,0,0,0,52.69,99.07Z"/><path class="cls-1" d="M50.52,97.81a.25.25,0,0,0,0,.48.93.93,0,0,0,.83,0,.25.25,0,0,0,0-.48A.93.93,0,0,0,50.52,97.81Z"/><path class="cls-1" d="M48.34,96.55c-.23.14-.23.35,0,.48a.87.87,0,0,0,.83,0c.23-.13.23-.34,0-.48A.93.93,0,0,0,48.34,96.55Z"/><path class="cls-1" d="M46.16,95.3c-.23.13-.23.34,0,.48a1,1,0,0,0,.84,0c.23-.14.23-.35,0-.48A.89.89,0,0,0,46.16,95.3Z"/><path class="cls-1" d="M44,94a.25.25,0,0,0,0,.48.93.93,0,0,0,.83,0,.25.25,0,0,0,0-.48A.93.93,0,0,0,44,94Z"/><path class="cls-1" d="M41.81,92.78c-.23.14-.23.35,0,.48a.87.87,0,0,0,.83,0c.23-.13.23-.34,0-.48A.93.93,0,0,0,41.81,92.78Z"/><path class="cls-1" d="M13.49,99.08a.25.25,0,0,0,0,.48.93.93,0,0,0,.83,0,.25.25,0,0,0,0-.48A.93.93,0,0,0,13.49,99.08Z"/><path class="cls-2" d="M.56,92.68l7.22,1.37,60.4-34.74a83.85,83.85,0,0,1,22-8.63c7.86-1.93,17-3.14,23.07-.8L116,48h6.09a31.88,31.88,0,0,1-6.31,16.41h0l-.54.75c-3.49,4.75-8.63,9-15,12.69L37.43,114a9.6,9.6,0,0,1-8.7,0L5.31,100.49A3.63,3.63,0,0,1,3.7,98.83L.51,92.76A.05.05,0,0,1,.56,92.68Z"/><path class="cls-3" d="M.31,92.86,3.5,98.93a3.86,3.86,0,0,0,1.7,1.76L28.62,114.2a9,9,0,0,0,4.46,1.07,9,9,0,0,0,4.46-1.07L100.41,78c6.52-3.76,11.57-8.05,15-12.74.19-.26.37-.51.54-.76A32.33,32.33,0,0,0,122.33,48v-.23H116l-2.75,1.86c-5.18-1.94-12.94-1.65-23.09.83a83.59,83.59,0,0,0-22,8.65L7.74,93.82.61,92.46a.28.28,0,0,0-.3.4ZM.88,93l6.94,1.32.07,0L68.3,59.5a83.45,83.45,0,0,1,21.91-8.61c10.13-2.47,17.85-2.75,22.94-.8l.11,0,2.82-1.92h4.37l-5,7.82L93.2,75,47.63,99.72,30,109.62s.44,5,4.56,5.1a9.29,9.29,0,0,1-5.72-.9L5.43,100.3A3.46,3.46,0,0,1,3.9,98.74Z"/><path class="cls-2" d="M115.47,42.92c5.54,3.2,3.53,8.62.14,13.24a44.54,44.54,0,0,1-13.75,11.67L33.27,107.24a9.7,9.7,0,0,1-8.4.12L4.39,95.54c-2.2-1.28-2.86-4.07-.65-5.35L72.33,50.78a77,77,0,0,1,20.21-7.94C100.55,40.88,109.94,39.72,115.47,42.92Z"/><path class="cls-4" d="M92.45,49.9c8-2,17.4-3.12,22.94.08a7.51,7.51,0,0,1,2.54,2.27,21.26,21.26,0,0,1-2.45,4.13,44.37,44.37,0,0,1-13.74,11.67l-68.6,39.41a9.67,9.67,0,0,1-8.4.12L5.26,96.33l67-38.49A77.39,77.39,0,0,1,92.45,49.9Z"/><path class="cls-3" d="M24.75,107.55,4.28,95.73a4,4,0,0,1-2.13-3.31A2.73,2.73,0,0,1,3.63,90L72.22,50.58a77.55,77.55,0,0,1,20.26-8c10.69-2.61,18.46-2.58,23.11.1h0A6.57,6.57,0,0,1,119,47c.53,2.51-.56,5.63-3.23,9.27A44.39,44.39,0,0,1,102,68l-68.6,39.41a9.22,9.22,0,0,1-4.51,1.06A8.47,8.47,0,0,1,24.75,107.55Zm90.61-64.44c-5.65-3.26-15.5-1.83-22.77,0A77,77,0,0,0,72.45,51L3.85,90.39a2.28,2.28,0,0,0-1.25,2,3.58,3.58,0,0,0,1.91,2.93L25,107.16a9.5,9.5,0,0,0,8.18-.11l68.59-39.42A44,44,0,0,0,115.43,56c2.59-3.53,3.65-6.53,3.15-8.92a6.14,6.14,0,0,0-3.22-4Z"/><polygon class="cls-2" points="41.84 86.33 50.03 91.06 58.23 86.33 50.03 81.6 41.84 86.33"/><polygon class="cls-2" points="41.84 86.33 41.84 88.44 50.03 93.17 50.03 91.06 41.84 86.33"/><polygon class="cls-2" points="42.31 95.65 42.31 88.71 50.03 93.17 50.03 100.11 42.31 95.65"/><polygon class="cls-4" points="41.84 87.42 50.03 92.15 58.23 87.42 50.03 82.69 41.84 87.42"/><path class="cls-3" d="M41.62,86.2v2.37l.47.27v6.94L50,100.37,58,95.78V88.84l.47-.27V86.2L50,81.35Zm16.16.13L50,90.8l-7.74-4.47L50,81.86ZM42.53,89.1l7.28,4.2v6.42l-7.28-4.2Zm-.46-2.38,7.74,4.47v1.59l-1.68-1-6.06-3.5Z"/><polygon class="cls-5" points="50.36 93.19 57.59 89 57.59 88.53 50.36 92.71 50.36 93.19"/><path class="cls-3" d="M119.61,32l-.18-.65,9.24-6.95,1.92-.72a.24.24,0,0,1,.23,0l.11.09V25c0,.18-.06.8-.33,1L118.7,36.55l-3.48-1.45Z"/><path class="cls-2" d="M118.67,34.46l11.79-10.28a.41.41,0,0,0,0-.78h0a1.58,1.58,0,0,0-1.36,0L115.7,32.74Z"/><path class="cls-4" d="M130.36,24.09a.71.71,0,0,1,.14.1l-.09.06L118.62,34.53l-2.5-1.45,12.88-9A1.55,1.55,0,0,1,130.36,24.09Z"/><path class="cls-3" d="M115.28,32.76,129,23.19a1.73,1.73,0,0,1,1.58,0,.71.71,0,0,1,.4.58.66.66,0,0,1-.34.56L118.7,34.73Zm13.93-9.19-13.09,9.15,2.52,1.46L130.34,24c.1-.06.16-.13.16-.19s-.07-.14-.18-.21a1.25,1.25,0,0,0-.59-.13A1.08,1.08,0,0,0,129.21,23.57Z"/><path class="cls-2" d="M2.13,88.92,68.6,50.69a88.72,88.72,0,0,1,23.23-9.13c9.21-2.25,20-3.58,26.38.09s4.05,9.91.15,15.23c-3.69,5-9.12,9.55-15.8,13.41L36.09,108.52a10.17,10.17,0,0,1-9.21,0l-3-1.71h0l2.25-1.41h0l1.17.68a8.83,8.83,0,0,0,8,0l66.58-38.25a44.54,44.54,0,0,0,13.75-11.67c3.39-4.62,5.4-10-.14-13.24s-14.93-2-22.93-.08A77,77,0,0,0,72.4,50.78L5.82,89c-2.21,1.28-2.21,3.35,0,4.62l1.94,1.12L5.51,96.19l-3.38-2C-.41,92.77-.41,90.39,2.13,88.92Z"/><path class="cls-4" d="M2.46,89.84,68.93,51.61a88.37,88.37,0,0,1,23.23-9.12c9.21-2.26,20-3.59,26.38.08A7.89,7.89,0,0,1,122,46.14c.85,3.31-1,7.23-3.61,10.74-3.69,5-9.12,9.55-15.8,13.41L36.1,108.52a10.17,10.17,0,0,1-9.21,0l-2-1.17,1.63-1h0l1.18.68a8.81,8.81,0,0,0,8,0l66.59-38.25A44.37,44.37,0,0,0,116,57.08c2.47-3.36,4.2-7.14,2.84-10.18a6.36,6.36,0,0,0-3.29-4c-5.54-3.2-14.93-2-22.93-.08a77,77,0,0,0-20.21,7.94L5.83,89c-1.6.92-2,2.26-1.33,3.41a2.92,2.92,0,0,0,1.64,2.14l1,.58-1.63,1-3.38-2A4.09,4.09,0,0,1,.57,92.76C.45,91.72,1.07,90.64,2.46,89.84Z"/><path class="cls-3" d="M26.77,108.72l-3.28-1.9,2.67-1.68,1.3.75a8.63,8.63,0,0,0,7.78,0l66.58-38.26A44,44,0,0,0,115.5,56c2.59-3.53,3.65-6.53,3.15-8.92a6.14,6.14,0,0,0-3.22-4c-5.66-3.26-15.5-1.83-22.77,0A77.05,77.05,0,0,0,72.51,51L5.93,89.23a2.59,2.59,0,0,0-1.55,2.11,2.61,2.61,0,0,0,1.55,2.12l2.26,1.3L5.52,96.45l-3.5-2a3,3,0,0,1,0-5.7L68.49,50.49a88.88,88.88,0,0,1,23.29-9.15c12.28-3,21.21-3,26.54.12a7.48,7.48,0,0,1,3.93,4.92c.61,2.87-.64,6.45-3.71,10.63-3.64,5-9,9.5-15.87,13.48L36.2,108.72a9.65,9.65,0,0,1-4.71,1.12A9.66,9.66,0,0,1,26.77,108.72ZM91.89,41.78a88.38,88.38,0,0,0-23.18,9.1L2.24,89.11a2.59,2.59,0,0,0,0,4.93l3.27,1.88,1.81-1.14-1.61-.93a2.66,2.66,0,0,1,0-5L72.29,50.58a77.55,77.55,0,0,1,20.26-8C103.24,40,111,40,115.66,42.72a6.57,6.57,0,0,1,3.43,4.3c.53,2.51-.56,5.63-3.23,9.27A44.32,44.32,0,0,1,102,68L35.46,106.28a9.11,9.11,0,0,1-8.23,0l-1.06-.62-1.81,1.15L27,108.33a9.91,9.91,0,0,0,9,0L102.44,70.1c6.84-3.95,12.13-8.44,15.74-13.35,3-4.08,4.21-7.53,3.63-10.28a7,7,0,0,0-3.71-4.62c-2.84-1.64-6.59-2.25-10.61-2.25A68.74,68.74,0,0,0,91.89,41.78Z"/><path class="cls-2" d="M110.15,50c-5.54-3.19-14.93-2-22.94-.07A77.38,77.38,0,0,0,67,57.84L5.29,93.3C3.59,92,3.72,90.2,5.75,89L72.33,50.78a77,77,0,0,1,20.21-7.94c8-2,17.4-3.12,22.93.08s3.53,8.62.14,13.24a33.27,33.27,0,0,1-3.3,3.82C114.2,56.25,114.43,52.45,110.15,50Z"/><path class="cls-3" d="M3.89,91.18a2.76,2.76,0,0,0,1.26,2.3l.12.09L67.12,58a76.72,76.72,0,0,1,20.15-7.92c7.26-1.77,17.11-3.21,22.77.06,3.58,2.07,4.28,5.33,2.07,9.7l-.64,1.26,1-1a34.18,34.18,0,0,0,3.32-3.85c2.67-3.64,3.76-6.76,3.23-9.27a6.57,6.57,0,0,0-3.43-4.3c-4.65-2.68-12.42-2.71-23.11-.1a77.55,77.55,0,0,0-20.26,8L5.64,88.84A3.09,3.09,0,0,0,3.89,91.18ZM87.16,49.69a80.87,80.87,0,0,0-13.93,4.74V50.54a77.35,77.35,0,0,1,19.36-7.48c10.42-2.55,18.29-2.53,22.77,0a6.14,6.14,0,0,1,3.22,4c.5,2.39-.56,5.39-3.15,8.92a33.74,33.74,0,0,1-2.37,2.85c1.63-4,.69-7.08-2.8-9.09-2.35-1.36-5.5-2-9.43-2A58.87,58.87,0,0,0,87.16,49.69Z"/><path class="cls-3" d="M97.64,62.51l0,0L104,57.21c6.2-5.32,15.53-13.38,16-14,.22-.59,2.39-5,2.84-5.92l1.43-1.26v.49a52.26,52.26,0,0,1-2,13c-.07.4-.16.83-.28,1.26l-.22-.06h0l.22.06a13,13,0,0,1-.44,1.28.22.22,0,0,1,0,.1,24.2,24.2,0,0,1-3,5.17c-3.64,5-9,9.49-15.88,13.48l-10.84,5.9Z"/><path class="cls-2" d="M65,44.35a31.39,31.39,0,0,1,4.09-3.42c2.84-1.62,1.77-.57,13.42-6S100,29.47,100,29.47l14.2-.47,7.37,4.2-.88,8.7-.87,1L119,44.54l-1.32.45a7.54,7.54,0,0,0-2.21-2.07c-5.53-3.2-14.92-2-22.93-.08a77,77,0,0,0-20.21,7.94L60.69,57.47h0l.24-2.41.57-4.35Z"/><path class="cls-3" d="M60.71,55l.57-4.35,3.49-6.44,0-.05a31.29,31.29,0,0,1,4.12-3.46,18.7,18.7,0,0,1,2.94-1.38c1.5-.59,4-1.57,10.51-4.58C93.94,29.43,100,29.25,100,29.25l14.26-.48,7.55,4.31L120.94,42l-.89,1-.9,1.69-1.56.54-.1-.14a7.42,7.42,0,0,0-2.14-2c-5.65-3.26-15.5-1.83-22.77,0A77.05,77.05,0,0,0,72.43,51l-12,6.91Zm54.87-12.31a7.7,7.7,0,0,1,2.17,2l1.09-.37.83-1.56.84-1,.87-8.48-7.2-4.09-14.13.47c-.06,0-6,.18-17.48,5.48-6.52,3-9,4-10.53,4.59a18.4,18.4,0,0,0-2.88,1.35,32.42,32.42,0,0,0-4,3.37l-3.42,6.29-.57,4.3-.19,2,11.25-6.47a77.55,77.55,0,0,1,20.26-8,58.87,58.87,0,0,1,13.67-1.93A19,19,0,0,1,115.58,42.72Z"/><path class="cls-2" d="M94.94,61a4.55,4.55,0,0,0,.7-.34l8.83-5.11a42.51,42.51,0,0,0,13.21-11.21c3.26-4.44,5.19-9.65-.13-12.72s-14.34-2-22-.07a73.92,73.92,0,0,0-19.43,7.23S68,43.08,65.91,44.32l-2.17-1.25h0l7.61-4a82.94,82.94,0,0,1,22.43-9c9.21-2.26,20-3.59,26.37.08s4.06,9.92.16,15.23c-3.69,5-9.13,9.56-15.81,13.42l-6.65,3.78Z"/><path class="cls-4" d="M64.71,43.59l6.43-3.35a83.19,83.19,0,0,1,22.42-9c9.21-2.25,20-3.58,26.38.09,3.5,2,4.37,4.83,3.8,7.82a21.36,21.36,0,0,1-3.37,6.27c-3.69,5-9.12,9.56-15.8,13.42l-6.66,3.78-2-1.1,8.33-4.82a42.74,42.74,0,0,0,13.21-11.21,16.11,16.11,0,0,0,3.06-6.28c.91-2.89.42-5.65-2.91-7.58-5.32-3.07-14.35-2-22-.07-7.27,1.78-13.85,4-19.43,7.23,0,0-8.1,4.32-10.17,5.56Z"/><path class="cls-3" d="M94.43,61l.43-.18a6.07,6.07,0,0,0,.67-.32l8.83-5.11A42.26,42.26,0,0,0,117.5,44.19c2.49-3.39,3.51-6.27,3-8.56a5.92,5.92,0,0,0-3.09-3.84C112,28.66,102.55,30,95.57,31.74c-8.15,2-14.3,4.29-19.38,7.22-.08,0-8.12,4.33-10.16,5.55l-.12.07-2.45-1.41.1-.25,7.68-4a83.23,83.23,0,0,1,22.48-9.06c12.28-3,21.21-3,26.54.11a7.52,7.52,0,0,1,3.94,4.92c.6,2.88-.65,6.46-3.71,10.64-3.65,5-9,9.49-15.88,13.47l-6.76,3.85Zm-.6-30.66a82.78,82.78,0,0,0-22.37,9l-7.25,3.76,1.7,1c2.22-1.31,10-5.45,10.06-5.49,5.11-3,11.3-5.26,19.49-7.26,10.27-2.51,17.74-2.48,22.2.1A6.29,6.29,0,0,1,121,35.54c.51,2.42-.54,5.42-3.11,8.92a42.66,42.66,0,0,1-13.28,11.27l-8.82,5.11-.31.16,2.39,1.34,6.55-3.73c6.83-3.94,12.13-8.44,15.73-13.35,3-4.07,4.22-7.53,3.64-10.28A7.08,7.08,0,0,0,120,30.36c-2.84-1.64-6.59-2.25-10.61-2.25A68.74,68.74,0,0,0,93.83,30.29Z"/><polygon class="cls-2" points="63.74 43.07 58.73 56.36 60.69 57.47 65.91 44.32 63.74 43.07"/><path class="cls-3" d="M60.51,57.62l-2-1.16,5.1-13.54.18-.11,2.45,1.41L60.93,57.47A.29.29,0,0,1,60.51,57.62ZM63.86,43.4,59,56.26l1.57.88,5-12.72Z"/><path class="cls-2" d="M57.68,90.5l17.8-10.27a1.1,1.1,0,0,1,1,0h0a1.91,1.91,0,0,1,.29.2l2,1.42-5.59,4.34-14.5,9.35-2.2-1.58V92.51A2.32,2.32,0,0,1,57.68,90.5Z"/><path class="cls-4" d="M57.76,91.42,75.55,81.15a1.09,1.09,0,0,1,1,0h0a1.91,1.91,0,0,1,.29.2l2,1.42-5.6,4.34L59,94.08l-2.21-1.57h0C56.75,92.06,57,91.75,57.76,91.42Z"/><path class="cls-3" d="M56.3,94.05V92.51a2.55,2.55,0,0,1,1.27-2.2L75.36,80A1.31,1.31,0,0,1,76.5,80h0l.12.06a2.25,2.25,0,0,1,.3.22l2.26,1.59-5.85,4.54L58.86,95.7l-.13.08ZM76.66,80.56a1.51,1.51,0,0,0-.21-.14l0,0a.9.9,0,0,0-.83,0L57.8,90.69a2.11,2.11,0,0,0-1,1.82v1.3l2,1.43L73.09,86l5.35-4.16Z"/><path class="cls-3" d="M58.73,95.51,79.35,83.6v-.83a1.1,1.1,0,0,0-1.66-1L59.89,92.08a2.33,2.33,0,0,0-1.16,2Z"/><path class="cls-3" d="M58.51,94.08a2.57,2.57,0,0,1,1.27-2.2L77.57,81.61a1.34,1.34,0,0,1,1.34,0,1.32,1.32,0,0,1,.67,1.16v1L58.51,95.9ZM79.13,82.77a.88.88,0,0,0-.45-.77.87.87,0,0,0-.88,0L60,92.27a2.1,2.1,0,0,0-1,1.81v1L79.13,83.47Z"/><polygon class="cls-2" points="5.51 96.19 7.29 99.84 9.45 98.55 7.76 94.77 5.51 96.19"/><path class="cls-3" d="M5.22,96.1l2.64-1.65,1.88,4.19-2.55,1.52Zm2.44-1L5.8,96.27l1.58,3.25,1.78-1.06Z"/><polygon class="cls-2" points="23.92 106.81 22.37 108.62 7.29 99.84 9.45 98.55 23.92 106.81"/><polygon class="cls-4" points="23.35 107.24 21.8 109.06 6.72 100.27 8.88 98.98 23.35 107.24"/><path class="cls-3" d="M6.85,99.84l2.6-1.55,14.82,8.46-1.85,2.16Zm2.6-1-1.72,1,14.59,8.5,1.25-1.47Z"/><path class="cls-2" d="M73.12,58.83l.1-22.25L95,30.19l16.43-1.91-.12,22.59a52.52,52.52,0,0,1-6.84,4.66l-8.83,5.11a4.55,4.55,0,0,1-.7.34l-.75,2L89,66a7.19,7.19,0,0,1-6.48-.27l-7.86-4.54a2.85,2.85,0,0,1-1.56-1.86h0A1.34,1.34,0,0,1,73.12,58.83Z"/><path class="cls-3" d="M82.43,65.92l-7.86-4.53A3.3,3.3,0,0,1,73,59.61l-.06,0v-.27a1.69,1.69,0,0,1,0-.55l.1-22.4L95,30,111.66,28l-.13,22.85V51l-.08.07a54,54,0,0,1-6.87,4.68l-8.82,5.11c-.19.1-.4.21-.64.31l-.75,2-5.24,3a6,6,0,0,1-2.92.68A7.69,7.69,0,0,1,82.43,65.92Zm12.34-5.11.09,0a6.07,6.07,0,0,0,.67-.32l8.83-5.11a53.12,53.12,0,0,0,6.73-4.57l.11-22.24L95.06,30.41,73.45,36.74l-.1,22.09v0a1.34,1.34,0,0,0,0,.4v0A2.66,2.66,0,0,0,74.8,61l7.85,4.53a6.92,6.92,0,0,0,6.26.27L94,62.86Z"/><path class="cls-2" d="M89.14,43.42,109,31.93c3.54-2,3.1-5.61-1-8h0c-4.09-2.36-10.27-2.62-13.81-.58L74.34,34.87c-1.66,1-1.46,2.64.46,3.74l7.86,4.54A7.19,7.19,0,0,0,89.14,43.42Z"/><path class="cls-4" d="M73.44,37.93a2.39,2.39,0,0,1,.84-.75l19.9-11.49c3.54-2.05,9.72-1.79,13.81.57h0a6.69,6.69,0,0,1,3.19,3.41v2.17a4.62,4.62,0,0,1-2.2,2.39L89.08,45.72a7.19,7.19,0,0,1-6.48-.27l-7.85-4.53a3.57,3.57,0,0,1-1.31-1.19Z"/><path class="cls-3" d="M73,36.5a2.89,2.89,0,0,0,1.7,2.31l7.86,4.53a7.45,7.45,0,0,0,3,.91V66.69h0l9.13-5,.23-.64a4.55,4.55,0,0,0,.7-.34l8.83-5.11a52.52,52.52,0,0,0,6.84-4.66l.06-11.55V29.8a3.38,3.38,0,0,0,.29-1.33c0-1.71-1.28-3.43-3.5-4.71-4.14-2.39-10.44-2.65-14-.57L74.23,34.68A2.14,2.14,0,0,0,73,36.5Zm.45,0a1.72,1.72,0,0,1,1-1.43l19.9-11.49a12,12,0,0,1,5.88-1.35,15.88,15.88,0,0,1,7.71,1.92c2.07,1.2,3.27,2.77,3.27,4.32a3.92,3.92,0,0,1-2.28,3.27L89,43.22A7,7,0,0,1,82.77,43l-7.85-4.54A2.47,2.47,0,0,1,73.44,36.5Z"/><path class="cls-2" d="M106.5,54.31c-.66.41-1.34.82-2,1.22l-8.83,5.11a4.55,4.55,0,0,1-.7.34l2,1.11-4.81,2.76-5.61-3.24,16.3-9.36Z"/><path class="cls-4" d="M105.25,55.08c-.66.41-9.61,5.5-10.31,5.9l.71.94a5.66,5.66,0,0,1-.7.34l2,1.11-4.81,2.76-5.6-3.23,16.29-9.37Z"/><polygon class="cls-2" points="94.94 60.98 89.83 74.75 92.27 76.21 97.85 62.59 94.94 60.98"/><path class="cls-3" d="M92,76.31l-2.44-1.47,5.22-14,.19-.08,3.17,1.76L92.54,76.12A.38.38,0,0,1,92,76.31Zm3.07-15-5,13.35,2.06,1.23,5.4-13.19Z"/><polygon class="cls-2" points="84.63 65.16 90.25 68.4 92.13 67.35 86.51 64.11 84.63 65.16"/><polygon class="cls-4" points="84.63 66.03 90.25 69.27 92.13 68.23 86.51 64.98 84.63 66.03"/><polygon class="cls-2" points="82.77 68.76 88.39 72.01 90.27 70.96 84.65 67.72 82.77 68.76"/><polygon class="cls-4" points="82.77 69.58 88.39 72.83 90.27 71.78 84.65 68.53 82.77 69.58"/><polygon class="cls-2" points="80.88 72.3 86.5 75.54 88.38 74.49 82.76 71.25 80.88 72.3"/><polygon class="cls-4" points="80.92 73.08 86.54 76.32 88.42 75.27 82.8 72.03 80.92 73.08"/><polygon class="cls-2" points="92.13 64.85 92.13 67.35 90.27 68.46 90.27 70.96 88.38 71.99 88.38 74.49 86.52 75.6 86.52 76.64 89.83 74.75 93.88 63.84 92.13 64.85"/><path class="cls-3" d="M86.3,75.47l1.85-1.11v-2.5l1.9-1v-2.5l1.85-1.1V64.72l2.41-1.38L90,74.9,86.3,77Zm6-7.94-1.77,1v2.57l-1.9,1v2.5l-1.85,1.1v.53l2.9-1.66ZM92.35,65v2.33l1.1-3Z"/><polygon class="cls-2" points="93.43 57.65 98.29 54.84 98.29 42.89 93.43 45.7 93.43 57.65"/><polygon class="cls-2" points="50.53 71.59 57.16 75.42 66.94 69.77 60.31 65.94 50.53 71.59"/><path class="cls-3" d="M50.08,70.35l10.23-5.9,7.07,4.08-10.22,5.9ZM60.31,65,51,70.35l6.18,3.57,9.33-5.39Z"/><polygon class="cls-4" points="58.92 67.84 62.79 70.08 64.26 69.23 60.39 66.99 58.92 67.84"/><path class="cls-3" d="M58.47,67.1,60.39,66l4.32,2.5-1.92,1.1Zm1.92-.59-1,.59,3.42,2,1-.59Z"/><polygon class="cls-2" points="76.02 52.82 81.51 55.98 81.51 46.63 76.02 43.47 76.02 52.82"/><path class="cls-3" d="M75.79,43.08V53l5.94,3.42V46.51Zm5.49,10.84-3.62-2.09V44.67l3.62,2.09Zm-5-10.06,1,.55v7.68l4.07,2.35V55.6l-5-2.91Z"/><path class="cls-3" d="M93.2,45.57V58L98.52,55V42.5ZM93.65,56,97,54.09V43.89l1-.61V54.71l-4.42,2.55Zm0-.52V45.83l2.92-1.69v9.7Z"/><path class="cls-2" d="M101.94,41l7-4.06a4.07,4.07,0,0,0,2.38-3.5h0v9.11h0A4.14,4.14,0,0,1,109,45.89l-7,4.06Z"/><path class="cls-3" d="M114.11,35.67a3.39,3.39,0,0,0,1.53,2.65c.85.49,1.53.09,1.53-.88a3.37,3.37,0,0,0-1.53-2.65C114.8,34.3,114.11,34.7,114.11,35.67Z"/><path class="cls-2" d="M117.17,37.37a1.48,1.48,0,0,1-.11.59,1.41,1.41,0,0,1-.31-.14,3.37,3.37,0,0,1-1.53-2.65,1.2,1.2,0,0,1,.09-.53,1.61,1.61,0,0,1,.33.15A3.26,3.26,0,0,1,117.17,37.37Z"/><path class="cls-3" d="M113.89,35.67a3.58,3.58,0,0,0,1.64,2.84,1.63,1.63,0,0,0,.8.24,1,1,0,0,0,.51-.13,1.29,1.29,0,0,0,.56-1.18s0,0,0,0,0,0,0,0a3.49,3.49,0,0,0-1.64-2.78l-.32-.14,0,0h0l-.2-.07v0a1.1,1.1,0,0,0-.72.11A1.29,1.29,0,0,0,113.89,35.67Zm1.56-.72.08,0a3.14,3.14,0,0,1,1.41,2.42,1.1,1.1,0,0,1,0,.26l-.06,0a3.14,3.14,0,0,1-1.42-2.45C115.44,35.08,115.45,35,115.45,35Zm-1.11.72a.86.86,0,0,1,.33-.79.6.6,0,0,1,.29-.08H115a2,2,0,0,0,0,.36A3.59,3.59,0,0,0,116.64,38l.13.07a.46.46,0,0,1-.16.15.85.85,0,0,1-.85-.11A3.11,3.11,0,0,1,114.34,35.67Z"/><polygon class="cls-2" points="67.87 62.5 73.02 65.47 73.02 62.18 67.87 59.21 67.87 62.5"/><polygon class="cls-2" points="70.87 57.48 67.87 59.21 73.02 62.18 76.02 60.45 70.87 57.48"/><polygon class="cls-4" points="70.87 58.58 67.87 60.3 73.02 63.27 76.02 61.55 70.87 58.58"/><path class="cls-3" d="M67.64,59.08v3.55L73,65.73l3.22-1.86V60.32l-5.37-3.1Zm.68.13,2.55-1.47,4.7,2.71L73,61.92Zm-.23.39,4.7,2.71v2.77l-4.7-2.71Z"/><path class="cls-2" d="M82.74,32.69c0-.07,0-4.95,0-4.95l24.57-5.11v4.55a2.67,2.67,0,0,1-1.53,2.46L93,37a4.63,4.63,0,0,1-4.17-.17l-5-2.92a1.81,1.81,0,0,1-1-1.24h0Z"/><path class="cls-3" d="M88.69,37.05l-5-2.91a2,2,0,0,1-1.12-1.42h0v0h0c0-.28,0-2.82,0-4.95v-.18l25-5.21v4.82a2.86,2.86,0,0,1-1.64,2.66l-12.8,7.4a4,4,0,0,1-1.93.44A5.06,5.06,0,0,1,88.69,37.05ZM83,27.92c0,1.89,0,4.56,0,4.75a1.67,1.67,0,0,0,.9,1.08l5.06,2.91a4.37,4.37,0,0,0,3.94.18l12.8-7.39a2.46,2.46,0,0,0,1.43-2.27V22.91Z"/><path class="cls-2" d="M93,32.08l12.8-7.4c2.28-1.31,2-3.61-.64-5.13h0c-2.63-1.51-6.6-1.68-8.88-.36l-12.8,7.39c-1.07.61-.94,1.69.3,2.41l5,2.91A4.63,4.63,0,0,0,93,32.08Z"/><path class="cls-4" d="M83,28.55a1.51,1.51,0,0,1,.5-.42l12.8-7.4c2.28-1.31,6.26-1.15,8.88.37h0c2.63,1.52,2.92,3.82.64,5.13L93,33.62a4.63,4.63,0,0,1-4.17-.17l-5-2.92a2.34,2.34,0,0,1-.8-.7Z"/><polygon class="cls-2" points="86.88 28.38 91.41 31 95.46 28.68 90.93 26.07 86.88 28.38"/><path class="cls-3" d="M86.41,27.42l4.51-2.57,5,2.88-4.5,2.57Zm4.5-2.05-3.6,2.06,4.08,2.35L95,27.72Z"/><path class="cls-3" d="M82.51,27.62a1.93,1.93,0,0,0,1.14,1.56l5,2.92a5.14,5.14,0,0,0,2.47.61l0,4.74,2.24-.59L106.66,29l.6-1.34.25-4.82a2.43,2.43,0,0,0,0-.38,3.89,3.89,0,0,0-2.28-3.1c-2.69-1.55-6.78-1.72-9.11-.37l-12.8,7.39A1.46,1.46,0,0,0,82.51,27.62Zm.45,0a1,1,0,0,1,.61-.85l12.8-7.39c2.21-1.28,6.1-1.11,8.66.37,1.31.76,2.07,1.74,2.07,2.71a2.44,2.44,0,0,1-1.43,2l-12.8,7.39a4.42,4.42,0,0,1-4-.17l-5-2.92A1.51,1.51,0,0,1,83,27.62Z"/><polygon class="cls-2" points="101.82 3.23 98.84 1.43 100.86 0.26 103.85 2.06 101.82 3.23"/><polygon class="cls-2" points="98.25 25.28 95.27 23.48 98.84 1.43 101.82 3.23 98.25 25.28"/><polygon class="cls-4" points="101.82 3.88 98.84 2.08 100.86 0.91 103.85 2.71 101.82 3.88"/><path class="cls-3" d="M98.25,25.54l5.82-3.37V1.94L100.87,0,98.64,1.29,95,23.59ZM99,1.8,101,3l.59.36-3.5,21.57-2.57-1.55Zm4.4.26L101.83,3l-.42-.26L99.28,1.44l1.58-.92Z"/><path class="cls-3" d="M80.69,75l4.57,2.64,1.49-.86V75.66l1.85-1V72.15l1.9-1.06V68.52l1.85-1V65l1.1-.63.2-.63-1.52.87-5.16-3,15.85-9.1,3.24,1.81c-.56.34-1.13.69-1.7,1l-8.83,5.11a6.07,6.07,0,0,1-.67.32V61l.59,0,.31-.16,8.82-5.11q1-.6,2-1.23l.32-.2L102.82,52,86.3,61.48V64l-1.86,1v2.57l-1.89,1.06v2.48l-1.86,1Zm9.56-6.85-5.17-3,1.42-.79,3.9,2.25,1.27.73Zm-7,.62L84.65,68l5,2.91.14.08-1.42.78ZM81.33,72.3l1.43-.79,4.7,2.71.46.27-1.42.79Z"/><path class="cls-4" d="M102,48.51l5.74-3.31A4.64,4.64,0,0,0,110,42.78l1.3.76A4.67,4.67,0,0,1,109,46L102,50Z"/><path class="cls-3" d="M101.72,40.83v9.51l7.37-4.26a4.44,4.44,0,0,0,2.49-3.39h0V33.13l-.46.08v.19a3,3,0,0,1,0,.43s0,.08,0,.12,0,.21-.08.31a.35.35,0,0,1,0,.11,2,2,0,0,1-.16.4l0,.07c0,.11-.12.21-.18.32a1,1,0,0,0-.08.11,3.25,3.25,0,0,1-.23.29l-.07.08a5.29,5.29,0,0,1-1.35,1.06Zm.45,7.75,5.62-3.25a4.44,4.44,0,0,0,2.49-3.4h0V36.21h0a1.88,1.88,0,0,0,.24-.25h0a4.26,4.26,0,0,0,.6-.83v7.39a4,4,0,0,1-2.27,3.19l-6.7,3.87Zm0-.52v-7l6.92-4a5.15,5.15,0,0,0,.75-.5v5.17A4,4,0,0,1,107.57,45Z"/><polygon class="cls-4" points="98.07 54.71 97.02 54.09 93.65 56.04 93.65 57.26 98.07 54.71"/><polygon class="cls-4" points="77.21 52.09 76.24 52.69 81.28 55.6 81.28 54.44 77.21 52.09"/><polygon class="cls-2" points="86.3 63.84 86.75 64.11 86.75 61.88 86.3 61.61 86.3 63.84"/><polygon class="cls-2" points="11.78 81.81 19.98 86.54 28.17 81.81 19.98 77.08 11.78 81.81"/><polygon class="cls-2" points="11.78 81.81 11.78 83.92 19.98 88.65 19.98 86.54 11.78 81.81"/><polygon class="cls-2" points="12.25 91.13 12.25 84.19 19.98 88.65 19.98 95.59 12.25 91.13"/><polygon class="cls-4" points="11.78 82.9 19.98 87.63 28.17 82.9 19.98 78.17 11.78 82.9"/><path class="cls-3" d="M11.56,81.68v2.37l.47.27v6.94l8,4.58,8-4.58V84.32l.46-.27V81.68L20,76.82Zm16.16.13L20,86.28l-7.75-4.47L20,77.34ZM12.48,84.58l7.27,4.2V95.2L12.48,91ZM12,82.2l7.74,4.47v1.59l-1.68-1L12,83.79Z"/><polygon class="cls-5" points="20.3 88.67 27.54 84.48 27.54 84 20.3 88.19 20.3 88.67"/><polygon class="cls-2" points="36.16 96.4 41.31 99.37 41.31 96.08 36.16 93.11 36.16 96.4"/><polygon class="cls-2" points="39.16 91.38 36.16 93.11 41.31 96.08 44.31 94.36 39.16 91.38"/><polygon class="cls-4" points="39.16 92.48 36.16 94.2 41.31 97.18 44.31 95.45 39.16 92.48"/><path class="cls-3" d="M35.94,93v3.55l5.37,3.1,3.22-1.85V94.23l-5.37-3.11Zm.67.13,2.55-1.47,4.7,2.72-2.55,1.46Zm-.23.39,4.7,2.71V99l-4.7-2.71Z"/><path class="cls-2" d="M10.07,98.39h0a2.68,2.68,0,0,0,.17-1,5.74,5.74,0,0,0-2.48-4.46,2.22,2.22,0,0,0-.92-.34h0s-2.3-.1-2.91,1.68,2.3,3.06,2.3,3.06L7.77,100a3.22,3.22,0,0,0,2.28-1.58l0,0Z"/><path class="cls-4" d="M9.45,99.25v-.13c.11-.27.8-.47.8-.86A5.74,5.74,0,0,0,7.77,93.8a2.22,2.22,0,0,0-.92-.34h0s-2.3-.11-2.91,1.68,2.3,3.06,2.3,3.06l1,2a4,4,0,0,0,2.26-.91Z"/><path class="cls-3" d="M6.08,97.49c-.46-.22-3-1.49-2.35-3.3s3-1.84,3.13-1.84H7v0a2.62,2.62,0,0,1,.89.35,6,6,0,0,1,2.59,4.65,2.75,2.75,0,0,1-.19,1.06v0a.17.17,0,0,1,0,0,3.36,3.36,0,0,1-2.45,1.72l-.15,0Zm3.79.81a2.36,2.36,0,0,0,.16-.92,5.5,5.5,0,0,0-2.37-4.27,2.16,2.16,0,0,0-.84-.31h0c-.24,0-2.14,0-2.65,1.53s2.15,2.77,2.17,2.78l.07,0,1.49,2.62a2.81,2.81,0,0,0,2-1.41v0Z"/><path class="cls-2" d="M8.72,98.25c0,1.64-1.11,2.31-2.48,1.49a5.74,5.74,0,0,1-2.48-4.47c0-1.64,1.11-2.31,2.48-1.49A5.76,5.76,0,0,1,8.72,98.25Z"/><path class="cls-3" d="M6.13,99.93a6,6,0,0,1-2.59-4.66,2,2,0,0,1,.86-1.88,2,2,0,0,1,2,.2A6,6,0,0,1,9,98.25a2,2,0,0,1-.87,1.88,1.52,1.52,0,0,1-.73.18A2.34,2.34,0,0,1,6.13,99.93ZM4.62,93.78A1.63,1.63,0,0,0,4,95.27a5.49,5.49,0,0,0,2.37,4.27,1.49,1.49,0,0,0,1.5.2,1.62,1.62,0,0,0,.64-1.49A5.51,5.51,0,0,0,6.13,94a1.94,1.94,0,0,0-1-.32A1.14,1.14,0,0,0,4.62,93.78Z"/><path class="cls-3" d="M5.11,94.86A1.15,1.15,0,0,1,6.27,95a3.3,3.3,0,0,1,1.44,2.59,1.2,1.2,0,0,1-.52,1.1.87.87,0,0,1-.44.11A1.39,1.39,0,0,1,6,98.55,3.3,3.3,0,0,1,4.59,96,1.2,1.2,0,0,1,5.11,94.86Z"/><path class="cls-2" d="M6.15,95.2,6,95.11a1.09,1.09,0,0,0,0,.18,3.09,3.09,0,0,0,1.33,2.4.56.56,0,0,0,.13.07c0-.06.07-.09.07-.16A3.09,3.09,0,0,0,6.15,95.2Z"/><path class="cls-3" d="M7.32,98l-.15-.08a3.31,3.31,0,0,1-1.44-2.6,1.48,1.48,0,0,1,0-.21l0-.3.28.12.22.11h0A3.33,3.33,0,0,1,7.71,97.6a.34.34,0,0,1-.08.22l0,.27Zm-.07-.58A3,3,0,0,0,6.19,95.5,3,3,0,0,0,7.25,97.39Z"/><polygon class="cls-3" points="9.93 95.5 8.39 96.45 8.72 97.66 8.72 98.72 8.5 99.77 9.96 98.73 10.26 97.38 9.93 95.5"/><polygon class="cls-3" points="73.22 40.42 73.22 50.34 60.69 57.47 65.91 44.32 73.22 40.42"/><path class="cls-2" d="M60.87,57.64l.27-.67L72.21,50.6l.67-.36v.51l-.45.24Z"/><path class="cls-2" d="M26,72.31,43.78,62a1.07,1.07,0,0,1,1,0h0a1.07,1.07,0,0,1,.28.19l1.76,1.1-5.6,4.34L26.79,77l-2-1.25V74.31A2.31,2.31,0,0,1,26,72.31Z"/><path class="cls-4" d="M26.07,73,43.86,62.74a1.1,1.1,0,0,1,1,0h0a1.35,1.35,0,0,1,.27.2L47,64l-5.59,4.35L26.79,75.57l-2-1.26v.17C24.83,73.65,25.35,73.43,26.07,73Z"/><path class="cls-3" d="M24.6,75.86V74.31a2.57,2.57,0,0,1,1.27-2.2L43.66,61.84a1.32,1.32,0,0,1,1.28,0,1.05,1.05,0,0,1,.31.21l2,1.26L41.4,67.84,26.79,77.26ZM45,62.4l0,0a.77.77,0,0,0-.24-.16.85.85,0,0,0-.83,0L26.1,72.5a2.09,2.09,0,0,0-1.05,1.81v1.3l1.74,1.12,14.35-9.26,5.34-4.14Z"/><path class="cls-3" d="M26.79,77l20.62-11.9v-.84a1.11,1.11,0,0,0-1.67-1L28,73.56a2.32,2.32,0,0,0-1.16,2Z"/><path class="cls-3" d="M26.57,75.57a2.52,2.52,0,0,1,1.27-2.2L45.63,63.1a1.27,1.27,0,0,1,1.33,0,1.31,1.31,0,0,1,.67,1.15v1L26.57,77.38ZM47.18,64.25a.86.86,0,0,0-.44-.76.89.89,0,0,0-.89,0L28.06,73.76a2.09,2.09,0,0,0-1,1.81v1L47.18,65Z"/><polygon class="cls-2" points="27.02 77.15 27.02 76.63 47.41 64.85 47.41 65.37 27.02 77.15"/><polygon class="cls-2" points="59.03 95.65 59.03 95.13 79.35 83.39 79.35 83.91 59.03 95.65"/><path class="cls-5" d="M93.2,75.9l.27-.66,9-4.92c6.83-3.95,12.13-8.44,15.73-13.35a23.73,23.73,0,0,0,3-5.11l0-.07s-.13.83-.38,1.9a26.31,26.31,0,0,1-2.24,3.54c-3.64,5-9,9.5-15.87,13.48Z"/><path class="cls-2" d="M98.52,71.07h0a2.58,2.58,0,0,1-.19-1,5.81,5.81,0,0,1,2.62-4.54,2.71,2.71,0,0,1,1-.35h0s2.43-.1,3.07,1.71S102.56,70,102.56,70l-1.62,2.75s-1.87-.3-2.4-1.61l0,0Z"/><path class="cls-4" d="M98.8,71.57c.19-.37,0,0,0,0-.12-.28-.37-.26-.37-.66a5.78,5.78,0,0,1,2.62-4.54,2.71,2.71,0,0,1,1-.35h0s2.43-.1,3.07,1.71-2.43,3.11-2.43,3.11l-.61,1.49s-2.48.81-3-.5l-.25-.26Z"/><path class="cls-3" d="M100.91,72.94a3.56,3.56,0,0,1-2.59-1.76l0,0h0a2.92,2.92,0,0,1-.2-1.1,6.07,6.07,0,0,1,2.73-4.74,3,3,0,0,1,1-.35l.12,0c.11,0,2.6-.09,3.29,1.86s-2,3.14-2.48,3.36L101.06,73Zm1-7.56h0a2.43,2.43,0,0,0-.89.31A5.54,5.54,0,0,0,98.55,70a2.24,2.24,0,0,0,.17.93l0,.06a3,3,0,0,0,2.09,1.44l1.58-2.68.07,0s2.87-1.24,2.3-2.83-2.44-1.56-2.79-1.56Z"/><path class="cls-3" d="M102.45,66.18a1.82,1.82,0,0,1,3,1.71,6.08,6.08,0,0,1-2.73,4.74,2.61,2.61,0,0,1-1.29.39,1.53,1.53,0,0,1-.79-.21,2,2,0,0,1-.88-1.89A6.07,6.07,0,0,1,102.45,66.18Z"/><path class="cls-2" d="M101.25,70.22c0,.9.63,1.26,1.41.81a3.11,3.11,0,0,0,1.41-2.44c0-.89-.63-1.26-1.41-.81A3.11,3.11,0,0,0,101.25,70.22Z"/><path class="cls-3" d="M101.55,71.33a1.2,1.2,0,0,1-.52-1.11,3.32,3.32,0,0,1,1.52-2.63,1.07,1.07,0,0,1,1.74,1,3.3,3.3,0,0,1-1.52,2.64,1.46,1.46,0,0,1-.74.22A1,1,0,0,1,101.55,71.33ZM102.77,68a2.93,2.93,0,0,0-1.29,2.25.77.77,0,0,0,.3.72.8.8,0,0,0,.77-.1,2.94,2.94,0,0,0,1.3-2.25.77.77,0,0,0-.3-.71.48.48,0,0,0-.26-.07A1.18,1.18,0,0,0,102.77,68Z"/><path class="cls-2" d="M102.66,67.82l.2-.09a1.15,1.15,0,0,1,0,.19,3.09,3.09,0,0,1-1.41,2.43.57.57,0,0,1-.13.08c0-.07-.08-.1-.08-.17A3.12,3.12,0,0,1,102.66,67.82Z"/><path class="cls-3" d="M101.11,70.48a.35.35,0,0,1-.08-.22,3.32,3.32,0,0,1,1.52-2.63,1.2,1.2,0,0,1,.23-.11l.27-.11,0,.29c0,.07,0,.14,0,.22a3.32,3.32,0,0,1-1.56,2.65.32.32,0,0,1-.13.06l-.27.12Zm.38-.41a3,3,0,0,0,1.15-2A3,3,0,0,0,101.49,70.07Z"/><path class="cls-5" d="M101,72.75h0a2,2,0,0,0,1.53-.31,5.79,5.79,0,0,0,2.63-4.54,2.76,2.76,0,0,0,0-.51v0a2.85,2.85,0,0,0-.43-1.29,3.63,3.63,0,0,0-.23-.34l.16.08a2.27,2.27,0,0,1,1,2.08,6.28,6.28,0,0,1-2.85,4.93,2.78,2.78,0,0,1-1.4.42,1.72,1.72,0,0,1-1.54-.88A2.21,2.21,0,0,0,101,72.75Z"/><rect class="cls-3" x="115.79" y="-3.19" width="0.34" height="33.83" transform="translate(34.79 97.66) rotate(-52.71)"/><rect class="cls-3" x="54.63" y="64.95" width="0.34" height="27.16" transform="matrix(0.5, -0.87, 0.87, 0.5, -40.61, 86.79)"/><rect class="cls-3" x="32.91" y="87.41" width="0.34" height="19.76" transform="matrix(0.5, -0.87, 0.87, 0.5, -67.73, 77.35)"/></g></g></g></svg>