<svg xmlns="http://www.w3.org/2000/svg" viewBox="0 0 27.34 52.29"><defs><style>.cls-1{fill:#ffb000;}.cls-2{fill:#150035;}.cls-3{fill:#fff;}</style></defs><g id="Layer_2" data-name="Layer 2"><g id="content"><path class="cls-1" d="M23.41,48s-1.24-.2-1.7.2-.3,1.37.71,2,1.39,1.54,2.07,1.77,1.73-.14,1.83-.57a5.9,5.9,0,0,0-.53-2.68,3.15,3.15,0,0,0-1.32-.61Z"/><path class="cls-2" d="M25,52.29a1.79,1.79,0,0,1-.57-.09,2.79,2.79,0,0,1-1-.83,5.18,5.18,0,0,0-1.08-1,2.18,2.18,0,0,1-1.13-1.54,1.1,1.1,0,0,1,.38-.92,2.9,2.9,0,0,1,1.93-.26l1,.1a3.32,3.32,0,0,1,1.52.71,5.88,5.88,0,0,1,.6,2.93.94.94,0,0,1-.52.59A2.37,2.37,0,0,1,25,52.29ZM22.74,48.2a1.47,1.47,0,0,0-.84.17.52.52,0,0,0-.19.45,1.64,1.64,0,0,0,.86,1.1A5.58,5.58,0,0,1,23.77,51a2.28,2.28,0,0,0,.81.68,1.7,1.7,0,0,0,1.22-.15c.18-.1.24-.19.24-.21a6,6,0,0,0-.46-2.43,3,3,0,0,0-1.15-.52s-.59-.06-1.05-.1h0A5.54,5.54,0,0,0,22.74,48.2Z"/><path class="cls-2" d="M26.32,51.34a6,6,0,0,0-.53-2.69,3,3,0,0,0-1.14-.56l-.3,1.26s.11,1,.11,1.3c0,.74-1.71-.61-1.71-.61l.44.76c.6.5.74.91,1.3,1.11S26.22,51.77,26.32,51.34Z"/><path class="cls-3" d="M22.93,46.56a10,10,0,0,1,.4,2.06c0,.8,1.63,1.12,2.15.19,0,0,.15-.35-.24-1a12.86,12.86,0,0,1-.79-2.08l-.94-.4Z"/><path class="cls-2" d="M24.43,49.66a1.49,1.49,0,0,1-.43,0,1.11,1.11,0,0,1-.95-1,10.22,10.22,0,0,0-.39-2l0-.1.73-1.62,1.33.56,0,.13a12,12,0,0,0,.76,2,1.52,1.52,0,0,1,.25,1.3A1.44,1.44,0,0,1,24.43,49.66Zm-1.19-3.08a10.1,10.1,0,0,1,.38,2c0,.24.28.39.51.45a1,1,0,0,0,1.09-.38h0a1.2,1.2,0,0,0-.23-.77,11.26,11.26,0,0,1-.77-2l-.56-.24Z"/><polygon class="cls-3" points="8.65 40.8 8.96 43.15 10.33 43.47 10.75 43.02 10.59 40.13 9.7 39.01 8.65 40.8"/><path class="cls-2" d="M10.42,43.79l-1.71-.41-.36-2.64L9.66,38.5,10.87,40,11,43.12Zm-1.2-.87,1,.23.22-.24-.14-2.67-.58-.73-.79,1.35Z"/><path class="cls-2" d="M9.65,23.37S7.53,27,7.34,29.5A7.94,7.94,0,0,0,7.59,33a6.16,6.16,0,0,0,0,4,27.18,27.18,0,0,1,.9,3.74,2.45,2.45,0,0,0,2.3,0,30.37,30.37,0,0,0,0-5.51c-.32-2-.35-3.14.14-3.65s3-2.84,3.47-4.09A25.35,25.35,0,0,1,16.27,32a10.47,10.47,0,0,0,1.91,4.29l.51.39a15.64,15.64,0,0,0,1.89,5.11,24.28,24.28,0,0,1,2.2,4.76,2,2,0,0,0,1.88-.47s-1-4.6-1.37-6.37a20.68,20.68,0,0,0-2.12-4.6,47.37,47.37,0,0,1-.91-6.1A17.25,17.25,0,0,0,18.18,22l-7-.65Z"/><path class="cls-2" d="M23.35,46.81a2.43,2.43,0,0,1-.62-.07l-.12,0,0-.11a24.24,24.24,0,0,0-2.18-4.72,15.73,15.73,0,0,1-1.91-5.1l-.44-.34c-.86-.8-1.55-2.84-2-4.4a24.57,24.57,0,0,0-1.66-4.11,21.68,21.68,0,0,1-3,3.41l-.35.36c-.48.5-.32,2-.08,3.47a30.33,30.33,0,0,1,0,5.56v.13l-.13,0a2.61,2.61,0,0,1-2.5,0l-.07-.05,0-.09A26,26,0,0,0,7.38,37a6.43,6.43,0,0,1,0-4.08,8.81,8.81,0,0,1-.24-3.47c.19-2.5,2.25-6.08,2.34-6.23v0L11,21.16l7.27.68.06.09A17.63,17.63,0,0,1,20.48,29a47.31,47.31,0,0,0,.89,6,20.45,20.45,0,0,1,2.13,4.63c.4,1.77,1.37,6.38,1.37,6.38l0,.1-.07.08A1.9,1.9,0,0,1,23.35,46.81Zm-.4-.46A1.8,1.8,0,0,0,24.43,46c-.15-.71-1-4.66-1.35-6.27A21.19,21.19,0,0,0,21,35.2l0-.07A45.76,45.76,0,0,1,20.05,29a17.22,17.22,0,0,0-2-6.76l-6.81-.63L9.82,23.48c-.12.23-2.09,3.7-2.27,6a8.19,8.19,0,0,0,.23,3.36l0,.08,0,.09a6.13,6.13,0,0,0,0,3.86,26.78,26.78,0,0,1,.89,3.67,2.33,2.33,0,0,0,1.9,0,27.37,27.37,0,0,0,0-5.32c-.3-1.92-.38-3.24.2-3.84l.36-.36a17.46,17.46,0,0,0,3.08-3.66l.17-.43.21.4a25.48,25.48,0,0,1,1.89,4.57,10.34,10.34,0,0,0,1.85,4.19l.56.43v.09a16,16,0,0,0,1.86,5A24.93,24.93,0,0,1,23,46.35Z"/><path class="cls-3" d="M24.36,22.18A3.73,3.73,0,0,0,24,23.6a10.12,10.12,0,0,1,.07,1.51s.46.34.74-.49h.09l.18.88s1.17.5,1.74-.31l0,0a1.4,1.4,0,0,0-.11-1.69A3.88,3.88,0,0,1,26,22l-1.4-.36Z"/><path class="cls-2" d="M25.82,26a2.5,2.5,0,0,1-.87-.17l-.14-.06-.09-.44a.67.67,0,0,1-.84.06l-.12-.09v-.14a8.82,8.82,0,0,0-.06-1.44,3.57,3.57,0,0,1,.4-1.6l.31-.79,1.8.46,0,.16a3.86,3.86,0,0,0,.68,1.41,1.67,1.67,0,0,1,.13,2A1.45,1.45,0,0,1,25.82,26Zm-.51-.65c.28.08.93.21,1.26-.26a1.11,1.11,0,0,0-.08-1.36,4.39,4.39,0,0,1-.74-1.47l-1-.25-.13.34a3.48,3.48,0,0,0-.38,1.24,6.85,6.85,0,0,1,.09,1.32.76.76,0,0,0,.17-.33l.08-.22.52.06Z"/><path class="cls-3" d="M.64,12.8.28,11.22A1.72,1.72,0,0,1,.79,9.93c.56-.49.91-.39.91-.39s.5-.6.76.09a2.21,2.21,0,0,1-.26,1.59,3.08,3.08,0,0,0,.07,1.67C2.57,13.86.64,12.8.64,12.8Z"/><path class="cls-2" d="M2,13.58A3.84,3.84,0,0,1,.5,13.05L.39,13,0,11.28A2,2,0,0,1,.6,9.71a1.55,1.55,0,0,1,1-.46A.78.78,0,0,1,2.21,9a.71.71,0,0,1,.52.51,2.47,2.47,0,0,1-.26,1.8,2.83,2.83,0,0,0,.08,1.48.54.54,0,0,1-.53.77Zm-1.13-1A3.71,3.71,0,0,0,2,13s0,0,0,0a3.29,3.29,0,0,1-.07-1.84l0-.05a1.85,1.85,0,0,0,.24-1.35.32.32,0,0,0-.08-.15.67.67,0,0,0-.19.15l-.12.14-.18,0h0a1,1,0,0,0-.63.32A1.41,1.41,0,0,0,.57,11.2Z"/><path class="cls-1" d="M10,10.91A6.28,6.28,0,0,0,7.16,12c-.79.82-2.63,3.45-2.63,3.45s-.94-1-1.65-1.71-.63-1.15-.63-1.15-.47-.84-1.76,0a25.64,25.64,0,0,0,1.6,3.78c1,1.73,1.16,2.28,2,2.38s4.56-1.54,4.56-1.54a7.13,7.13,0,0,1,.68,3,14.64,14.64,0,0,1-.23,4s.83,1,3.69.84a7.89,7.89,0,0,0,5.71-2.6.47.47,0,0,0,0-.51,6.44,6.44,0,0,1-.28-1.23,23.49,23.49,0,0,1-.2-2.88A6.15,6.15,0,0,1,19.35,15s1.26,1.29,2.2,2.4a4.84,4.84,0,0,0,1.21,2A6.83,6.83,0,0,1,24.15,22,2.65,2.65,0,0,0,26,21.86a50.2,50.2,0,0,0-2.34-5.51c-1.15-2.17-2.78-6-3.75-6.79s-2.2-1-4.3-.36-4.51,1-4.51,1Z"/><path class="cls-2" d="M12.2,25.31c-2.49,0-3.28-.91-3.32-1l-.09-.1,0-.14a15.06,15.06,0,0,0,.22-3.91,9.11,9.11,0,0,0-.54-2.61c-1,.43-3.67,1.55-4.46,1.46S2.84,18.37,2.11,17l-.27-.49A26.29,26.29,0,0,1,.22,12.69l-.07-.21.19-.12A1.91,1.91,0,0,1,1.82,12a1.11,1.11,0,0,1,.68.49l0,.09,0,.1h0s0,.34.55.9S4.17,14.69,4.5,15A39.44,39.44,0,0,1,7,11.84a6.16,6.16,0,0,1,3-1.2L11.06,10a43.82,43.82,0,0,0,4.48-1c2-.6,3.44-.48,4.56.4.74.59,1.76,2.68,2.74,4.71.39.8.76,1.56,1.09,2.18a53.72,53.72,0,0,1,2.35,5.54l.09.25-.25.11a3,3,0,0,1-2.07.19l-.15-.06,0-.15a6.86,6.86,0,0,0-1.33-2.52,5.79,5.79,0,0,1-1.25-2c-.68-.8-1.52-1.68-1.92-2.1a5.34,5.34,0,0,0-1.05,2.35,24.06,24.06,0,0,0,.21,2.84,7.18,7.18,0,0,0,.24,1.13.74.74,0,0,1,0,.81,8.12,8.12,0,0,1-5.92,2.72ZM9.42,24.07c.27.22,1.21.77,3.36.66a7.67,7.67,0,0,0,5.49-2.49.18.18,0,0,0,0-.2A6.49,6.49,0,0,1,18,20.7a24.86,24.86,0,0,1-.21-2.91,6.48,6.48,0,0,1,1.37-3l.21-.25.22.23s1.28,1.31,2.22,2.42l.05.06v.08A5.07,5.07,0,0,0,23,19.21a7.22,7.22,0,0,1,1.41,2.6,2.52,2.52,0,0,0,1.26-.12,47.19,47.19,0,0,0-2.22-5.2c-.33-.64-.7-1.39-1.09-2.2-.91-1.88-1.94-4-2.58-4.5-1-.77-2.19-.86-4.05-.31s-4.11,1-4.48,1l-1.14.68a5.81,5.81,0,0,0-2.71,1c-.77.81-2.59,3.39-2.6,3.42l-.2.29-.25-.26s-.94-1-1.64-1.7A2.11,2.11,0,0,1,2,12.72a.63.63,0,0,0-.29-.17,1.25,1.25,0,0,0-.83.18,24.05,24.05,0,0,0,1.5,3.51l.27.49c.75,1.38.92,1.68,1.51,1.75A18.87,18.87,0,0,0,8.53,17l.23-.1.13.2a7.6,7.6,0,0,1,.73,3.1A15.58,15.58,0,0,1,9.42,24.07Z"/><path class="cls-3" d="M9.65,2C10.4.81,12.4,1,13.58,2.05a3.45,3.45,0,0,1,1.14,3.48c-.24,1.2-.38,1.83.09,2.7a12.35,12.35,0,0,1,.81,2.2l-4.21,1a12.61,12.61,0,0,0-.47-2.8c-.31-.66-.35-.77-.35-.77A1.93,1.93,0,0,1,9.45,6.45C9.17,5.35,8.75,3.37,9.65,2Z"/><path class="cls-2" d="M11.15,11.77l0-.34a11.91,11.91,0,0,0-.45-2.7l-.31-.67a2.3,2.3,0,0,1-1.2-1.54c-.21-.85-.78-3.13.24-4.71h0A2.05,2.05,0,0,1,10.89.93a3.84,3.84,0,0,1,2.88.9A3.72,3.72,0,0,1,15,5.58l0,.08a3.16,3.16,0,0,0,.08,2.43,12.51,12.51,0,0,1,.84,2.26l.08.29ZM9.89,2.13C9,3.5,9.53,5.59,9.73,6.38a1.64,1.64,0,0,0,.95,1.19l.13,0,0,.13s.06.15.34.75a10.54,10.54,0,0,1,.47,2.57l3.6-.84a10.73,10.73,0,0,0-.72-1.86,3.69,3.69,0,0,1-.13-2.81l0-.08a3.13,3.13,0,0,0-1-3.21A3.25,3.25,0,0,0,11,1.5a1.46,1.46,0,0,0-1.08.63Z"/><path class="cls-2" d="M11.07,8.19A1.36,1.36,0,0,1,10.2,8l.36-.45-.18.23.17-.23a1.2,1.2,0,0,0,.86.08l.39-.13L12,8l-.43.14A2.71,2.71,0,0,1,11.07,8.19Z"/><path class="cls-1" d="M10,10.91a1.28,1.28,0,0,1,.34-.85,1.59,1.59,0,0,1,.82-.43,2.64,2.64,0,0,0,2.61.47c1.61-.51,1.11-1.65,1.11-1.65s.94.08,1.21.75c0,0,.91,1.89-1.88,2.66A4.32,4.32,0,0,1,10,10.91Z"/><path class="cls-2" d="M12.93,12.32a4.48,4.48,0,0,1-3.1-1.21L9.76,11v-.11a1.56,1.56,0,0,1,.42-1.05,1.9,1.9,0,0,1,1-.53h.14l.1.09a2.32,2.32,0,0,0,2.32.41,1.41,1.41,0,0,0,.91-.65.8.8,0,0,0,0-.62l-.18-.44.47,0a1.85,1.85,0,0,1,1.46.93,2,2,0,0,1,0,1.59,3,3,0,0,1-2.07,1.45A5.09,5.09,0,0,1,12.93,12.32Zm-2.6-1.52a4.08,4.08,0,0,0,3.84.78,2.44,2.44,0,0,0,1.7-1.13,1.51,1.51,0,0,0,0-1.13,1,1,0,0,0-.6-.5,1.33,1.33,0,0,1-.12.59,1.94,1.94,0,0,1-1.26,1,3,3,0,0,1-2.77-.44,1.33,1.33,0,0,0-.54.31A1.07,1.07,0,0,0,10.33,10.8Z"/><rect class="cls-2" x="3.76" y="15.38" width="1.33" height="0.57" transform="matrix(0.55, -0.83, 0.83, 0.55, -11.07, 10.69)"/><path class="cls-2" d="M21.42,17.91a4.37,4.37,0,0,1-.13-1.17l.06-.4.56.08-.05.37a3.88,3.88,0,0,0,.09.9Z"/><path class="cls-2" d="M8.55,17.69a4.3,4.3,0,0,0-.62-1.13l.45-.36a5.24,5.24,0,0,1,.72,1.32Z"/><path class="cls-2" d="M19.29,15.57l-.47-.31a9.75,9.75,0,0,0,.67-2.13l.56.1A8.72,8.72,0,0,1,19.29,15.57Z"/><rect class="cls-2" x="7.3" y="15.3" width="0.57" height="0.69" transform="translate(-8.95 10.29) rotate(-46.2)"/><rect class="cls-2" x="19.48" y="12.04" width="0.57" height="0.64"/><path class="cls-2" d="M15.71,10.87a1.79,1.79,0,0,0-.93-1.2L15,9.15a2.35,2.35,0,0,1,1.26,1.59Z"/><path class="cls-2" d="M24.42,21.15a2.91,2.91,0,0,1-.73-.09l.15-.55s1,.26,1.52-.25l.41.4A1.88,1.88,0,0,1,24.42,21.15Z"/><path class="cls-2" d="M1.16,14l-.33-.47a2.13,2.13,0,0,1,2.05-.17l-.25.52A1.53,1.53,0,0,0,1.16,14Z"/><rect class="cls-2" x="24.59" y="23.92" width="0.57" height="0.71"/><rect class="cls-2" x="1.1" y="9.61" width="0.8" height="0.57" transform="translate(-7.85 6.33) rotate(-60.5)"/><path class="cls-2" d="M10.38,3.58s-.24,1.49.75,2a1.61,1.61,0,0,1,1,1.28s1.89.27,2.73-.51S16.25,2,14,.75,9.22.59,8.82,2.48h0a1,1,0,0,0,.82,1Z"/><path class="cls-2" d="M12.91,7.07A6.8,6.8,0,0,1,12.13,7L12,7V6.82A1.41,1.41,0,0,0,11,5.72a2,2,0,0,1-.9-2l-.53-.09a1.2,1.2,0,0,1-1-1.19A3,3,0,0,1,10.4.34a4.15,4.15,0,0,1,3.72.22A3.53,3.53,0,0,1,15.8,3.32,4.15,4.15,0,0,1,15,6.46,3.3,3.3,0,0,1,12.91,7.07Zm-.56-.46a3.55,3.55,0,0,0,2.4-.47,3.77,3.77,0,0,0,.62-2.77A3.06,3.06,0,0,0,13.91.94,3.7,3.7,0,0,0,10.57.73,2.63,2.63,0,0,0,9,2.52a.77.77,0,0,0,.65.72l.94.17,0,.21s-.2,1.33.63,1.71A1.91,1.91,0,0,1,12.35,6.61Z"/><path class="cls-2" d="M13.31,22.87a4.76,4.76,0,0,1-1-.08l.11-.56a5.18,5.18,0,0,0,5.51-2.57l.5.27A5.55,5.55,0,0,1,13.31,22.87Z"/><rect class="cls-2" x="11.22" y="21.95" width="0.57" height="0.74" transform="translate(-12.75 28.84) rotate(-77.79)"/><path class="cls-1" d="M11.27,42.86h0a1.54,1.54,0,0,0-.34-.58h0s-.11.55-1,.66a1.1,1.1,0,0,1-1.13-.81l-.1-.48-.57-.15a13.76,13.76,0,0,1-1.64-.11,1.22,1.22,0,0,0-1.44.84c-.13.52.21.84.87,1.18s1.84,1.09,3,1.7l.4.2.07,0,.06,0a1.72,1.72,0,0,0,1.73,0C12,44.94,11.27,42.86,11.27,42.86Z"/><path class="cls-2" d="M10.35,45.88a2.5,2.5,0,0,1-1-.24l-.08,0,.06-.3-.13.26-.41-.21c-.64-.34-1.31-.73-1.9-1.08s-.83-.48-1.08-.61c-.4-.21-1.23-.64-1-1.51a1.49,1.49,0,0,1,1.75-1,14.16,14.16,0,0,0,1.6.1h.07l.74.2.14.64a.8.8,0,0,0,.82.6c.62-.08.72-.42.72-.44l.13-.5.36.37a1.88,1.88,0,0,1,.41.69c.13.4.69,2.32-.21,2.82A2,2,0,0,1,10.35,45.88ZM6.29,41.66a.89.89,0,0,0-.93.63c-.07.29,0,.51.72.87.26.13.65.36,1.11.63s1.25.73,1.89,1.07l.38.2.08,0,.05,0a1.43,1.43,0,0,0,1.47,0c.35-.19.19-1.38-.06-2.16v0a.56.56,0,0,0,0-.12,1.54,1.54,0,0,1-1,.42,1.35,1.35,0,0,1-1.43-1l-.07-.32-.37-.11a14.57,14.57,0,0,1-1.63-.1Z"/><path class="cls-2" d="M8.16,44.62l.78.43.39.21.07,0,.07,0a1.68,1.68,0,0,0,1.72,0c.75-.41.08-2.49.08-2.49h0a1.61,1.61,0,0,0-.34-.57s-.11.55-1,.65a.94.94,0,0,1-.38,0h0a4.67,4.67,0,0,1,.12,1.58C9.56,45,8.77,45,8.16,44.62Z"/><path class="cls-2" d="M6.69,43a1.88,1.88,0,0,1,.41-1.35,1.37,1.37,0,0,1,1.06-.42v.57a.83.83,0,0,0-.64.24,1.4,1.4,0,0,0-.26.91Z"/><path class="cls-2" d="M23,49l-.67-.31a1,1,0,0,1,1-.64l-.15.73C23.19,48.73,23.08,48.9,23,49Z"/><path class="cls-2" d="M15.78,20.6l-.31-.48s2-1.24,2.29-2.41l.55.16C17.91,19.25,15.86,20.55,15.78,20.6Z"/><rect class="cls-2" x="14.28" y="20.64" width="0.92" height="0.57" transform="translate(-9.38 12.35) rotate(-35.26)"/><path class="cls-1" d="M14.92,27.72l-.36-.24a2.47,2.47,0,0,0,.34-1.19h.43A2.87,2.87,0,0,1,14.92,27.72Z"/><path class="cls-1" d="M8.73,33.75H8.46l0-.43a2.12,2.12,0,0,0,1.75-.62l.34.26A2.34,2.34,0,0,1,8.73,33.75Z"/><path class="cls-1" d="M20.36,36.72,20,36.47a3.61,3.61,0,0,0,.62-1.92h.43A4,4,0,0,1,20.36,36.72Z"/><path class="cls-1" d="M9.4,40a2,2,0,0,1-1-.25l.22-.37a1.85,1.85,0,0,0,1.88-.13l.22.37A2.49,2.49,0,0,1,9.4,40Z"/><path class="cls-1" d="M23.09,45.47a1.85,1.85,0,0,1-.57-.1l.16-.4a1.28,1.28,0,0,0,1.38-.39l.32.29A1.71,1.71,0,0,1,23.09,45.47Z"/><path class="cls-1" d="M10.51,44.47h-.09l0-.42a1.41,1.41,0,0,0,1-.31l.31.3A1.71,1.71,0,0,1,10.51,44.47Z"/><path class="cls-1" d="M25.12,50.68H25l0-.43a1.24,1.24,0,0,0,1-.35l.32.29A1.6,1.6,0,0,1,25.12,50.68Z"/><path class="cls-1" d="M15.79,25.86l-.18-.39A5.13,5.13,0,0,0,18,23l.4.14A5.46,5.46,0,0,1,15.79,25.86Z"/><path class="cls-1" d="M8.88,26.5l-.11-.42a3.23,3.23,0,0,0,2.16-1.87l.41.13A3.62,3.62,0,0,1,8.88,26.5Z"/><path class="cls-1" d="M14.76,2.28a1.56,1.56,0,0,0-2.13,0L12.33,2a2,2,0,0,1,2.69,0Z"/><rect class="cls-1" x="11.49" y="2.53" width="0.67" height="0.43" transform="translate(2.3 10.26) rotate(-51.34)"/><path class="cls-3" d="M8.32,30.73,6.11,30A.12.12,0,0,1,6,29.83l1.13-3.37s0-.05,0-.06l1.61-1.16A.12.12,0,0,1,9,25.3l.59,1.9v.08L8.47,30.65A.12.12,0,0,1,8.32,30.73Z"/><path class="cls-2" d="M8.36,31l-.13,0L6,30.26a.43.43,0,0,1-.23-.21.37.37,0,0,1,0-.31L6.9,26.37a.43.43,0,0,1,.15-.2L8.67,25A.39.39,0,0,1,9,25a.37.37,0,0,1,.26.27l.59,1.9a.43.43,0,0,1,0,.25L8.74,30.74a.4.4,0,0,1-.2.24A.58.58,0,0,1,8.36,31Zm-2-1.25,1.89.63,1.07-3.16L8.81,25.6l-1.38,1Z"/><rect class="cls-2" x="7.66" y="27.07" width="0.87" height="1.18" rx="0.21" transform="translate(9.24 -1.14) rotate(18.59)"/><rect class="cls-2" x="7.36" y="28.64" width="0.57" height="0.87" transform="translate(-22.35 27.05) rotate(-71.4)"/><path class="cls-3" d="M10,24.28a.76.76,0,1,1-.76-.76A.76.76,0,0,1,10,24.28Z"/><path class="cls-2" d="M9.25,25.32a1,1,0,1,1,1-1A1,1,0,0,1,9.25,25.32Zm0-1.52a.48.48,0,1,0,0,.95.48.48,0,0,0,0-.95Z"/><polygon class="cls-1" points="18.23 25.65 17.84 25.45 18.49 24.18 18.88 24.37 18.23 25.65"/><path class="cls-1" d="M14.1,6.26l-.17-.4a1.38,1.38,0,0,0,.6-.44l.37.21A1.93,1.93,0,0,1,14.1,6.26Z"/><path class="cls-2" d="M11.54,11.71l-.57,0a2.33,2.33,0,0,1,.34-1l.48.31A1.89,1.89,0,0,0,11.54,11.71Z"/><path class="cls-2" d="M6.31,42l-.56-.12A1.42,1.42,0,0,1,6.39,41a1.8,1.8,0,0,1,1.52,0l-.18.54a1.29,1.29,0,0,0-1.06,0A.77.77,0,0,0,6.31,42Z"/><rect class="cls-1" x="19.27" y="37.1" width="0.79" height="0.43" transform="translate(-21.53 28.25) rotate(-49.8)"/><path class="cls-2" d="M8.44,12.48,8,12.07a4.3,4.3,0,0,1,2.31-1.16l.05.57A3.88,3.88,0,0,0,8.44,12.48Z"/><path class="cls-2" d="M16.42,9.77l-.36-.45a3.14,3.14,0,0,1,2-.75L18,9.13A2.56,2.56,0,0,0,16.42,9.77Z"/></g></g></svg>