<svg xmlns="http://www.w3.org/2000/svg" viewBox="0 0 21.76 50.19"><defs><style>.cls-1{fill:#fff;}.cls-2{fill:#150035;}.cls-3{fill:#ffb000;}</style></defs><g id="Layer_2" data-name="Layer 2"><g id="content"><path class="cls-1" d="M21.4,28.27l-2.11.88a.12.12,0,0,1-.16-.06l-1.31-3.33a.22.22,0,0,1,0-.08l.46-1.95a.12.12,0,0,1,.18-.08l1.65,1.07,0,.06,1.31,3.33A.12.12,0,0,1,21.4,28.27Z"/><path class="cls-2" d="M19.24,29.45a.4.4,0,0,1-.15,0,.41.41,0,0,1-.22-.23l-1.32-3.33a.39.39,0,0,1,0-.24l.45-2a.43.43,0,0,1,.25-.29.44.44,0,0,1,.37,0l1.65,1.07a.53.53,0,0,1,.16.2L21.73,28a.41.41,0,0,1-.22.53h0l-2.11.89A.41.41,0,0,1,19.24,29.45ZM18.1,25.7l1.24,3.12,1.8-.75L19.9,24.93,18.5,24Z"/><path class="cls-2" d="M19.69,26.54l-.41.17a.21.21,0,0,1-.27-.12l-.27-.71a.21.21,0,0,1,.11-.28l.4-.17a.21.21,0,0,1,.27.12l.28.71A.22.22,0,0,1,19.69,26.54Z"/><rect class="cls-2" x="19.42" y="27.16" width="0.85" height="0.57" transform="translate(-9.07 9.82) rotate(-22.76)"/><path class="cls-1" d="M18.73,22.21a.79.79,0,0,1-.07,1.09.73.73,0,0,1-1.05-.09.78.78,0,0,1,.07-1.08A.73.73,0,0,1,18.73,22.21Z"/><path class="cls-2" d="M18.17,23.77H18.1a1.06,1.06,0,0,1-.61-1.85,1,1,0,0,1,.76-.26A1,1,0,0,1,19,22a1.07,1.07,0,0,1-.1,1.48A1,1,0,0,1,18.17,23.77Zm0-1.54a.44.44,0,0,0-.3.12.5.5,0,0,0,0,.68.4.4,0,0,0,.31.16.42.42,0,0,0,.33-.11.5.5,0,0,0,.05-.68.48.48,0,0,0-.32-.17Z"/><path class="cls-3" d="M15.64,44.22a3.21,3.21,0,0,1-1-.1c-.8-.26-2.15,0-1.86.82S14.11,46,14.9,46.4s1.11,1.17,1.64,1.27A1.47,1.47,0,0,0,18.11,47a4.22,4.22,0,0,0-.8-2.48A2.4,2.4,0,0,0,16.18,44C16.12,44,15.64,44.22,15.64,44.22Z"/><path class="cls-2" d="M16.83,48a2,2,0,0,1-.34,0,1.69,1.69,0,0,1-.87-.62,2.65,2.65,0,0,0-.84-.67l-.4-.18c-.75-.31-1.6-.66-1.88-1.44a.78.78,0,0,1,.17-.86,2.19,2.19,0,0,1,2-.33,3,3,0,0,0,.85.09,2.25,2.25,0,0,1,.57-.25,2.33,2.33,0,0,1,1.39.67c.37.4,1.11,2.1.85,2.78A1.63,1.63,0,0,1,16.83,48ZM14,44.31a1.33,1.33,0,0,0-.89.27.21.21,0,0,0-.05.26c.2.55.9.84,1.57,1.12l.42.18a3.11,3.11,0,0,1,1,.8,1.43,1.43,0,0,0,.57.45c.46.08,1.1-.1,1.24-.46a4.22,4.22,0,0,0-.74-2.19,2.31,2.31,0,0,0-.89-.48l-.45.22-.1,0a3.67,3.67,0,0,1-1.13-.11A1.69,1.69,0,0,0,14,44.31Z"/><path class="cls-2" d="M16.55,47.69A1.24,1.24,0,0,0,17.91,47a3.77,3.77,0,0,0-.6-2.41,2.16,2.16,0,0,0-.77-.48l-.2,1.27a2.12,2.12,0,0,1,.07,1.29c-.21.51-.54.32-1.11,0h0C15.82,47.05,16.11,47.61,16.55,47.69Z"/><path class="cls-3" d="M10.29,46.65a1.62,1.62,0,0,1-1,.34c-.77-.07-1.86,0-2,.4-.34.78,1,1.33,2.36,1.66s1.65,1.08,2.53.79c.34-.11,1-.39,1.08-.73a3.22,3.22,0,0,0-.66-2.4,1.17,1.17,0,0,0-1.65-.09Z"/><path class="cls-2" d="M11.79,50.19a2,2,0,0,1-1-.34,4,4,0,0,0-1.25-.52C8.15,49,7.3,48.56,7,48a.89.89,0,0,1,0-.75c.27-.62,1.75-.62,2.3-.57a1.34,1.34,0,0,0,.81-.28l.08-.06.63,0a1.43,1.43,0,0,1,2,.17,3.49,3.49,0,0,1,.74,2.69c-.17.52-1,.83-1.27.91A1.35,1.35,0,0,1,11.79,50.19Zm-3-2.93a2.36,2.36,0,0,0-1.29.25.3.3,0,0,0,0,.26c.18.36,1,.73,2.16,1a4.74,4.74,0,0,1,1.4.58c.4.23.6.34,1,.22A1.76,1.76,0,0,0,13,49a3,3,0,0,0-.59-2.1.87.87,0,0,0-1.25-.09l-.08.07-.66,0a1.85,1.85,0,0,1-1.14.35A3.1,3.1,0,0,0,8.82,47.26Z"/><path class="cls-2" d="M12.16,49.81c.34-.12.8-.29.91-.63a3.52,3.52,0,0,0-.49-2.5,1.22,1.22,0,0,0-.91-.4l0,0-.46,1.21s.68,1.25.4,1.73-.8.16-1.12,0C11.18,49.64,11.49,50,12.16,49.81Z"/><path class="cls-1" d="M10.4,45.33,10.56,47a1.32,1.32,0,0,0,1.42.72c1-.17,0-1.62,0-2.57a1.28,1.28,0,0,0-1.06-1.23A13.74,13.74,0,0,0,10.4,45.33Z"/><path class="cls-2" d="M11.73,48a1.6,1.6,0,0,1-1.43-.92l0-.08-.16-1.68,0,0c.42-1.5.49-1.55.58-1.61s.2-.14.62.07a1.57,1.57,0,0,1,.9,1.39,4.35,4.35,0,0,0,.24,1c.19.57.37,1.11.13,1.5A.74.74,0,0,1,12,48Zm-.89-1.11a1,1,0,0,0,1.09.52q.15,0,.18-.09c.1-.16,0-.64-.18-1a4,4,0,0,1-.27-1.17A1,1,0,0,0,11,44.2c-.09.26-.23.73-.35,1.15Z"/><path class="cls-1" d="M15.61,42.27a8,8,0,0,1,0,1.95c-.15.62.79,1.23,1.47,1s-.15-2.12,0-3.18S15.61,42.27,15.61,42.27Z"/><path class="cls-2" d="M16.76,45.54a1.66,1.66,0,0,1-1-.4,1,1,0,0,1-.37-1,7,7,0,0,0,0-1.84l0-.16.12-.1c.43-.36,1.21-.92,1.66-.68.15.08.31.26.27.67a5.39,5.39,0,0,0,.16,1.41c.17.91.34,1.76-.3,2A1.42,1.42,0,0,1,16.76,45.54Zm-.85-3.15a7.09,7.09,0,0,1,0,1.9.49.49,0,0,0,.2.42,1,1,0,0,0,.9.21c.19-.07,0-.91-.06-1.37A5.54,5.54,0,0,1,16.78,42a.34.34,0,0,0,0-.09A2.56,2.56,0,0,0,15.91,42.39Z"/><path class="cls-2" d="M8.09,23a26.77,26.77,0,0,0-.88,6.35,26.14,26.14,0,0,0,.49,6,2.34,2.34,0,0,0,.2.58A4.8,4.8,0,0,1,8.28,37a17,17,0,0,0,.6,3.58C9.47,42.38,10,44,10.27,45.27a1.61,1.61,0,0,0,1.82-.18s0-1.79-.05-3.62A21.51,21.51,0,0,0,10.92,36c-.44-1.22.27-2.76.83-3.93a16.2,16.2,0,0,0,.93-3.24,26.8,26.8,0,0,0,.5,4.52l.45,1.14A23.77,23.77,0,0,0,14.46,38a22,22,0,0,1,1.07,5.08,2.06,2.06,0,0,0,1.83-.18,40.2,40.2,0,0,1,0-4.11,9,9,0,0,0-.77-4.32c-.6-1.34-.94-1.53-.47-3.05s1.78-3.79,1.76-6.91c0-2.43-.35-3.54-1.3-4.75S8.09,23,8.09,23Z"/><path class="cls-2" d="M11.15,45.62a2.3,2.3,0,0,1-.94-.22l-.06,0,0-.07c-.22-1.09-.69-2.56-1.19-4.11l-.19-.59a11.17,11.17,0,0,1-.52-2.75A6.37,6.37,0,0,0,8.14,37a4.17,4.17,0,0,0-.37-1.07,2.39,2.39,0,0,1-.21-.62,26.14,26.14,0,0,1-.5-6A27.64,27.64,0,0,1,8,22.94v-.06l0,0c.78-.46,7.65-4.47,8.65-3.2S18,22.08,18,24.49a14.74,14.74,0,0,1-1.31,5.75c-.18.46-.34.85-.45,1.2a2.41,2.41,0,0,0,.17,2.34c.09.18.19.38.29.62a9.17,9.17,0,0,1,.78,4.39,39.93,39.93,0,0,0,0,4.08V43l-.06,0a2.17,2.17,0,0,1-2,.19l-.08,0v-.09a21.74,21.74,0,0,0-1.05-5,23.33,23.33,0,0,1-.84-3.51l-.44-1.11a19.67,19.67,0,0,1-.46-3.46,11.68,11.68,0,0,1-.71,2.19c-.5,1-1.26,2.62-.82,3.82a22.37,22.37,0,0,1,1.13,5.52c.07,1.8.05,3.6.05,3.62v0l0,0A1.38,1.38,0,0,1,11.15,45.62Zm-.75-.45A1.42,1.42,0,0,0,12,45c0-.32,0-1.93,0-3.55a21.4,21.4,0,0,0-1.11-5.43c-.48-1.31.31-3,.83-4a15.65,15.65,0,0,0,.92-3.21l.25-1.39,0,1.41a25.52,25.52,0,0,0,.49,4.49l.45,1.13a24,24,0,0,0,.83,3.5,22.19,22.19,0,0,1,1.06,5,1.92,1.92,0,0,0,1.55-.15c0-.46-.13-2.76,0-4.05a8.84,8.84,0,0,0-.75-4.25c-.1-.23-.2-.43-.28-.6A2.66,2.66,0,0,1,16,31.36c.11-.37.28-.78.45-1.22a14.71,14.71,0,0,0,1.3-5.65c0-2.36-.32-3.45-1.27-4.67-.64-.8-5.36,1.56-8.23,3.25a28,28,0,0,0-.86,6.27,25.7,25.7,0,0,0,.49,5.92,2.24,2.24,0,0,0,.19.55A4.61,4.61,0,0,1,8.42,37c.05.27.07.55.1.87a10.56,10.56,0,0,0,.5,2.7l.19.58C9.7,42.63,10.17,44.08,10.4,45.17Z"/><path class="cls-1" d="M1.84,12.61a.25.25,0,0,1-.15-.23,1.79,1.79,0,0,0-.48-1.2,5.3,5.3,0,0,1-.9-1.31.28.28,0,0,1,0-.22,1.66,1.66,0,0,1,.94-.91c.51-.17,1-.29,1.23-.35a.27.27,0,0,1,.28.11h0a1.7,1.7,0,0,1,.79,1l.1.35A.26.26,0,0,0,4,10a2.56,2.56,0,0,1,.8-.17A7,7,0,0,1,6,9.92l.5,0,.64-.23a.25.25,0,0,1,.25.19l.28.91a.27.27,0,0,1-.07.27,6.69,6.69,0,0,0-1.08,1.05,4.31,4.31,0,0,1-1.26,1.2c-.16.09-.25-.17-.25-.17l0-.52a.27.27,0,0,0-.22-.28,2.83,2.83,0,0,0-1.7.19A1.26,1.26,0,0,1,1.84,12.61Z"/><path class="cls-2" d="M5.23,13.59a.3.3,0,0,1-.13,0,.56.56,0,0,1-.32-.35l0-.05,0-.58a2.61,2.61,0,0,0-1.49.16,1.57,1.57,0,0,1-1.58.12h0a.56.56,0,0,1-.31-.48,1.44,1.44,0,0,0-.39-1A5.19,5.19,0,0,1,.06,10a.52.52,0,0,1,0-.47A2,2,0,0,1,1.16,8.47c.53-.17,1-.3,1.26-.36A.59.59,0,0,1,3,8.28a2,2,0,0,1,.88,1.15l.07.27a2.23,2.23,0,0,1,.88-.21,6,6,0,0,1,1.16.13l.12,0,.42,0,.7-.23a.57.57,0,0,1,.53.4l.27.91a.55.55,0,0,1-.13.55l-.27.24a3.34,3.34,0,0,0-.78.77,4.75,4.75,0,0,1-1.36,1.29A.5.5,0,0,1,5.23,13.59ZM4.2,12a4.47,4.47,0,0,1,.69.06.55.55,0,0,1,.46.57v.31a4.19,4.19,0,0,0,1-1,4.5,4.5,0,0,1,.9-.9l.22-.19L7.17,10l-.62.21-.53,0-.19,0a5.85,5.85,0,0,0-1-.12,2.47,2.47,0,0,0-.68.15.56.56,0,0,1-.7-.19l0-.08-.1-.35a1.5,1.5,0,0,0-.66-.84l-.06,0,0-.06c-.2.07-.67.18-1.18.35a1.42,1.42,0,0,0-.77.75A5,5,0,0,0,1.4,11,2,2,0,0,1,2,12.36a1,1,0,0,0,1-.1A2.39,2.39,0,0,1,4.2,12Z"/><path class="cls-3" d="M7.31,10.76l.34.91a.19.19,0,0,0,.19.11,10,10,0,0,1,2.61-.17c.88.16,1.91-.95,1.91-.95l-.48-1.47L8.47,9.6l-.68-.82L7.14,9h0A3.07,3.07,0,0,0,7.31,10.76Z"/><path class="cls-2" d="M7.81,12.06a.45.45,0,0,1-.42-.29L7,10.87a3.31,3.31,0,0,1-.18-1.94l0-.17,1-.31.7.85,3.48-.43.61,1.86-.11.12c-.12.13-1.17,1.22-2.17,1a9.19,9.19,0,0,0-2.51.17ZM7.39,9.21a2.77,2.77,0,0,0,.18,1.45l.32.82a9.69,9.69,0,0,1,2.61-.15c.52.09,1.2-.43,1.53-.75L11.68,9.5l-3.33.41-.66-.8Z"/><path class="cls-3" d="M10,11.05a7.85,7.85,0,0,0-2.17,1.42,18.58,18.58,0,0,0-1.94,2.17A7.78,7.78,0,0,1,4.5,16.06l0,0A10.85,10.85,0,0,0,4,13.92a18.57,18.57,0,0,1-.65-2.54,2.29,2.29,0,0,0-2.22,1.18l0,.87L2,13.24a13.82,13.82,0,0,0,.36,4.06c.53,1.85,1,2.28,1.61,2.23S8.18,17,8.18,17a23,23,0,0,1,.42,2.67c.11,1.35-1.11,3.83-1.11,3.83s.26,1.53,2.93,2a7.57,7.57,0,0,0,5.76-1.62,5.08,5.08,0,0,0,1.18-1.2,1.54,1.54,0,0,0,.09-1.55c-.26-.5-.6-1.18-.83-1.67-.42-.93.56-3.37,1.2-5.6.86-3,.8-4.45.5-5.46-.25-.82-1.87-1.37-4.26.46s-1.35,1.36-1.35,1.36Z"/><path class="cls-2" d="M11.52,25.88a6.62,6.62,0,0,1-1.15-.1c-2.83-.51-3.15-2.17-3.16-2.24l0-.09,0-.08s1.19-2.43,1.08-3.68A19.69,19.69,0,0,0,8,17.47c-1.11.76-3.4,2.3-4,2.34-.87.08-1.38-.59-1.9-2.43a13.45,13.45,0,0,1-.4-3.78l-.89.18,0-1.31,0-.08A2.56,2.56,0,0,1,3.37,11.1l.18,0,0,.19a19.76,19.76,0,0,0,.64,2.49,10.55,10.55,0,0,1,.44,1.74,8.24,8.24,0,0,0,1-1.1,18.06,18.06,0,0,1,2-2.19,7.9,7.9,0,0,1,2.26-1.49h0l2.33-.71a8.18,8.18,0,0,1,1.64-1.43c1.4-1.07,2.77-1.5,3.77-1.17a1.33,1.33,0,0,1,.93.86c.28.92.44,2.31-.5,5.62-.15.53-.32,1.07-.49,1.6-.49,1.57-1,3.19-.72,3.8s.57,1.16.82,1.67a1.77,1.77,0,0,1-.11,1.83,5,5,0,0,1-1.24,1.27A8.35,8.35,0,0,1,11.52,25.88ZM7.79,23.52c.1.3.58,1.32,2.68,1.7A7.32,7.32,0,0,0,16,23.64a4.42,4.42,0,0,0,1.11-1.13,1.2,1.2,0,0,0,.07-1.24c-.26-.52-.6-1.2-.83-1.7-.37-.8.13-2.38.7-4.2.16-.53.33-1.06.48-1.59.9-3.16.76-4.45.51-5.3A.84.84,0,0,0,17.49,8c-.81-.26-2,.15-3.26,1.09a9.76,9.76,0,0,0-1.47,1.23l.06.17-.2.06-2.52.77A7.43,7.43,0,0,0,8,12.67a18.81,18.81,0,0,0-1.91,2.14,8,8,0,0,1-1.44,1.47l-.46.37-.06-.52A10.05,10.05,0,0,0,3.69,14a17.25,17.25,0,0,1-.63-2.39,2.17,2.17,0,0,0-1.69,1v.42l1-.2,0,.38a13.45,13.45,0,0,0,.36,4c.54,1.92,1,2.05,1.31,2a25.36,25.36,0,0,0,4-2.48l.35-.25.09.42a21.49,21.49,0,0,1,.42,2.71A10,10,0,0,1,7.79,23.52ZM12.65,10l.11.3a.23.23,0,0,0,0-.22A.2.2,0,0,0,12.65,10Z"/><path class="cls-1" d="M7.49,4A10.48,10.48,0,0,0,9.37,8.51a.67.67,0,0,0,.53.26l1.1,0s.24.07.14,1.2A2.45,2.45,0,0,1,10,11.05a3.12,3.12,0,0,0,3.82.28c1.64-.93,2-2.18,1.43-3.12-.11-.18-1,.44-1.07.31a3,3,0,0,1-.77-1.61,3.93,3.93,0,0,1,.07-2,3.34,3.34,0,0,0-.88-3.49,3.24,3.24,0,0,0-4.26-.27A3,3,0,0,0,7.49,4Z"/><path class="cls-2" d="M12,12.12a3.34,3.34,0,0,1-2.25-.88L9.53,11l.33-.18a2.41,2.41,0,0,0,1-.92,2.66,2.66,0,0,0,0-.84H9.91a1,1,0,0,1-.77-.36A10.67,10.67,0,0,1,7.21,4.06h0A3.26,3.26,0,0,1,8.14,1a3.51,3.51,0,0,1,4.66.26A3.66,3.66,0,0,1,13.75,5a3.74,3.74,0,0,0-.06,1.87,2.79,2.79,0,0,0,.6,1.34l.21-.1c.4-.19.8-.38,1-.06a2,2,0,0,1,.22,1.55,3.43,3.43,0,0,1-1.76,2A3.88,3.88,0,0,1,12,12.12Zm-1.55-1a2.91,2.91,0,0,0,3.19,0,2.89,2.89,0,0,0,1.49-1.62,1.47,1.47,0,0,0-.09-1l-.33.15c-.31.15-.48.23-.66.16l-.11,0,0-.07A3.28,3.28,0,0,1,13.12,7a4.27,4.27,0,0,1,.09-2.13,3.07,3.07,0,0,0-.81-3.19,3,3,0,0,0-3.86-.28A2.68,2.68,0,0,0,7.77,4,10.43,10.43,0,0,0,9.6,8.34a.35.35,0,0,0,.3.14h1.17c.47.12.38,1.15.35,1.5v.07A2.5,2.5,0,0,1,10.49,11.08Z"/><path class="cls-2" d="M8,1.38A4.17,4.17,0,0,0,6.88,4a4.51,4.51,0,0,0,.28,2.26,2.62,2.62,0,0,0,.74-1s.34.82,1.45.35,1.17,1.17.9,1.69a1.41,1.41,0,0,0,1.16-.16s.32,0,.68.65a2.64,2.64,0,0,0,1-1.57,2.35,2.35,0,0,0,.41,1.15A3.49,3.49,0,0,0,14,2.61l.31-.36A3.1,3.1,0,0,0,12.43.3c-1.3-.39-1.69.07-1.69.07A10.38,10.38,0,0,0,8.9.22a.61.61,0,0,0-.53.37Z"/><path class="cls-2" d="M12,8,12,7.85c-.24-.46-.44-.55-.51-.57a1.53,1.53,0,0,1-1.24.15l-.16,0,.08-.15A1.61,1.61,0,0,0,10,5.8a.51.51,0,0,0-.61-.06,1.39,1.39,0,0,1-1.1.08,1,1,0,0,1-.39-.28,2.93,2.93,0,0,1-.66.8l-.14.1L7,6.29A4.84,4.84,0,0,1,6.73,4,4.36,4.36,0,0,1,7.91,1.3L8.24.54A.76.76,0,0,1,8.89.07a10.51,10.51,0,0,1,1.8.15c.17-.13.68-.39,1.78-.06a3.22,3.22,0,0,1,1.95,2.05l0,.08-.28.32a3.66,3.66,0,0,1-.56,4.87l-.12.11-.09-.15a3,3,0,0,1-.33-.7,2.31,2.31,0,0,1-.91,1.17Zm-.6-1c.1,0,.4,0,.72.59A3.11,3.11,0,0,0,13,6.17l.34-1-.06,1.11a2.1,2.1,0,0,0,.29.91,3.28,3.28,0,0,0,.32-4.45l-.07-.09.33-.38A2.92,2.92,0,0,0,12.39.44c-1.17-.36-1.54,0-1.55,0l-.05.06-.08,0A10.25,10.25,0,0,0,8.9.36a.48.48,0,0,0-.4.29l-.37.83A4.12,4.12,0,0,0,7,4a5.38,5.38,0,0,0,.2,2,2.66,2.66,0,0,0,.55-.78l.13-.31L8,5.2c0,.07.32.68,1.26.28a.75.75,0,0,1,.93.12,1.86,1.86,0,0,1,.23,1.59A1.23,1.23,0,0,0,11.33,7l.06,0Z"/><path class="cls-3" d="M13.18,3.4c-.7-1.71-2-1.48-2.06-1.47L11,1.51a2.38,2.38,0,0,1,2.54,1.72Z"/><path class="cls-3" d="M13.25,5.18l-.43,0A1.77,1.77,0,0,0,12.46,4l.32-.29A2.2,2.2,0,0,1,13.25,5.18Z"/><path class="cls-3" d="M7.91,5.38l-.36-.24a2.17,2.17,0,0,0,.2-1.47l.42-.07A2.64,2.64,0,0,1,7.91,5.38Z"/><path class="cls-3" d="M8.44,1.34,8.24,1A2.6,2.6,0,0,1,9.49.66l0,.43A2.12,2.12,0,0,0,8.44,1.34Z"/><rect class="cls-2" x="3.5" y="16.1" width="1.35" height="0.57" transform="translate(-10.15 7.39) rotate(-43.57)"/><rect class="cls-2" x="2" y="12.87" width="0.49" height="0.57" transform="matrix(0.94, -0.33, 0.33, 0.94, -4.22, 1.48)"/><path class="cls-2" d="M13,21.1l-.31-.49a13.42,13.42,0,0,0,3.93-3.81l.5.27A13.87,13.87,0,0,1,13,21.1Z"/><path class="cls-2" d="M15.36,20.73l-.52-.24a17.62,17.62,0,0,1,1.59-2.84l.45.35A18.05,18.05,0,0,0,15.36,20.73Z"/><path class="cls-2" d="M11.4,21.81l-.1-.56A2.68,2.68,0,0,0,12,21l.3.49A3,3,0,0,1,11.4,21.81Z"/><path class="cls-2" d="M13.45,24.72a8.18,8.18,0,0,1-2.64-.4l.2-.54a8.38,8.38,0,0,0,3.36.32,4.53,4.53,0,0,0,2.5-1.16l.4.42a5.13,5.13,0,0,1-2.84,1.3A8.44,8.44,0,0,1,13.45,24.72Z"/><path class="cls-2" d="M12.12,13.82a4.77,4.77,0,0,1-.66-.05l.08-.57a4.15,4.15,0,0,0,1.06,0l.07.56A3.48,3.48,0,0,1,12.12,13.82Zm1.15-.14-.14-.56a5.23,5.23,0,0,0,1-.37l.25.52A5.94,5.94,0,0,1,13.27,13.68Zm-2.41,0a5.4,5.4,0,0,1-1.12-.46l.28-.5a5.6,5.6,0,0,0,1,.41ZM14.92,13l-.29-.49a4.89,4.89,0,0,0,.87-.64l.39.42A5.17,5.17,0,0,1,14.92,13Zm-5.69-.11a5.61,5.61,0,0,1-.92-.8l.44-.37a5.09,5.09,0,0,0,.81.7Zm7.08-1-.44-.36a3.18,3.18,0,0,0,.53-.9l.54.21A3.91,3.91,0,0,1,16.31,11.82Zm.81-1.64-.56-.12a3.54,3.54,0,0,0,.07-.73c0-.12,0-.22,0-.33l.57,0c0,.11,0,.24,0,.37A4,4,0,0,1,17.12,10.18Zm-.58-1.7a3.6,3.6,0,0,0-.2-.63l.51-.25a3.86,3.86,0,0,1,.25.75Z"/><rect class="cls-2" x="7.7" y="16.49" width="1.56" height="0.57" transform="translate(-8.12 7.96) rotate(-35.22)"/><rect class="cls-2" x="9.46" y="15.59" width="0.66" height="0.57" transform="translate(-6.95 7.66) rotate(-32.19)"/><path class="cls-2" d="M17.91,12.23l-.47-.33a5,5,0,0,0,.78-2.4l.58,0A5.51,5.51,0,0,1,17.91,12.23Z"/><path class="cls-2" d="M3.37,10.93l-.49-.3A2.59,2.59,0,0,1,4.37,9.54l.11.56A2,2,0,0,0,3.37,10.93Z"/><path class="cls-2" d="M1.69,9.42,1.29,9c.22-.21,1-.89,1.52-.79l-.1.57C2.53,8.75,2,9.1,1.69,9.42Z"/><path class="cls-2" d="M5.33,12.84l-.54-.2a7.57,7.57,0,0,0,.27-.8l.55.17C5.44,12.56,5.33,12.84,5.33,12.84Z"/><path class="cls-2" d="M8.18,10.26A5.14,5.14,0,0,0,8,9.44l.54-.17a5.55,5.55,0,0,1,.21.91Z"/><path class="cls-3" d="M9.9,36.18l-.22-.36a3.15,3.15,0,0,0,.94-1.17l.38.2A3.34,3.34,0,0,1,9.9,36.18Z"/><path class="cls-3" d="M15.29,33.87l-.31-.3a3,3,0,0,0,.64-1.15l.41.1A3.47,3.47,0,0,1,15.29,33.87Z"/><path class="cls-3" d="M13.13,29.18l-.29-.32a4.83,4.83,0,0,0,1.25-2.17l.42.1A5.15,5.15,0,0,1,13.13,29.18Z"/><path class="cls-3" d="M13.5,25.17a13.9,13.9,0,0,1-4.26-.73l.14-.4a13,13,0,0,0,5.28.63l.05.42A8.29,8.29,0,0,1,13.5,25.17Z"/><rect class="cls-3" x="15.26" y="24.5" width="0.73" height="0.43" transform="translate(-5.09 4.08) rotate(-12.81)"/><path class="cls-3" d="M7.74,26.57H7.58l0-.43c.09,0,2.14.19,2.55-2.39l.42.07A2.86,2.86,0,0,1,7.74,26.57Z"/><path class="cls-3" d="M10.82,44.3a1.69,1.69,0,0,1-.86-.24l.24-.36a1.25,1.25,0,0,0,1.55-.24l.3.31A1.73,1.73,0,0,1,10.82,44.3Z"/><path class="cls-3" d="M16.3,42.15a1.44,1.44,0,0,1-.84-.26l.25-.34-.13.17.13-.17A1.06,1.06,0,0,0,17,41.43l.28.33A1.54,1.54,0,0,1,16.3,42.15Z"/><path class="cls-2" d="M8.71,47.86a1.34,1.34,0,0,1,.52-1.43,1,1,0,0,1,1.26,0l-.39.42s-.22-.16-.58.06-.26.79-.26.81Z"/><path class="cls-2" d="M13.94,45a1.22,1.22,0,0,1,.69-1.38,1,1,0,0,1,1.27.47l-.53.24c0-.1-.19-.31-.54-.17s-.33.73-.33.74Z"/><path class="cls-3" d="M11.66,48.45a1.7,1.7,0,0,1-.71-.14l.2-.38-.1.19.09-.19a1.64,1.64,0,0,0,1.44-.16l.21.38A2.41,2.41,0,0,1,11.66,48.45Z"/><path class="cls-3" d="M16.66,46a2.34,2.34,0,0,1-1-.25l.2-.37a1.71,1.71,0,0,0,1.56,0l.24.36A1.74,1.74,0,0,1,16.66,46Z"/><path class="cls-2" d="M13.79,8.87h-.18l.07-.57a1.51,1.51,0,0,0,.83-.17l.29.49A2,2,0,0,1,13.79,8.87Z"/></g></g></svg>