<svg xmlns="http://www.w3.org/2000/svg" viewBox="0 0 22.81 53.73"><defs><style>.cls-1{fill:#fff;}.cls-2{fill:#150035;}.cls-3{fill:#ffb000;}</style></defs><g id="Layer_2" data-name="Layer 2"><g id="content"><path class="cls-1" d="M17.58,42.34a4.71,4.71,0,0,1,.1,1.61.88.88,0,0,0,1.65.49l.14-.24a9,9,0,0,1-.72-2.61C18.61,40.19,17.58,42.34,17.58,42.34Z"/><path class="cls-2" d="M18.51,45.16a1.32,1.32,0,0,1-.39-.06,1.08,1.08,0,0,1-.72-1.17,4.59,4.59,0,0,0-.1-1.51l0-.1.05-.1c.47-1,.9-1.45,1.27-1.38s.43.56.44.72a9.34,9.34,0,0,0,.69,2.52l.07.13-.2.37A1.31,1.31,0,0,1,18.51,45.16Zm-.63-2.79A5.57,5.57,0,0,1,18,44a.52.52,0,0,0,.33.59.72.72,0,0,0,.8-.28l0-.09a9.09,9.09,0,0,1-.69-2.57.52.52,0,0,0,0-.14A4.2,4.2,0,0,0,17.88,42.37Z"/><path class="cls-3" d="M17.66,43.76s-.34-.45-.51.82.25,1.72,1.16,2.06,1.44,1.49,2.49,2.08,1.39.23,1.63-.1,0-1.17-.71-1.84a6.53,6.53,0,0,1-1.65-3c-.24-.71-1.29.15-1.33.49a6.38,6.38,0,0,0,.11,1.18l-.09,0-.35-.8S17.66,44.36,17.66,43.76Z"/><path class="cls-2" d="M21.74,49.31A2.26,2.26,0,0,1,20.66,49a5.43,5.43,0,0,1-1.31-1.14,3.38,3.38,0,0,0-1.13-.92,1.85,1.85,0,0,1-1.35-2.36c.09-.72.26-1.06.54-1.14a.45.45,0,0,1,.48.18l.06.07v.1c0,.3.33.54.5.64a.53.53,0,0,1,0-.13,1.56,1.56,0,0,1,1.18-1,.64.64,0,0,1,.7.47l.07.19a5.65,5.65,0,0,0,1.5,2.64c.87.77,1.09,1.78.75,2.23A1.08,1.08,0,0,1,21.74,49.31ZM17.5,44.25c0,.09,0,.21-.06.37-.15,1.13.18,1.46,1,1.75a3.76,3.76,0,0,1,1.36,1.07,4.77,4.77,0,0,0,1.16,1c.89.49,1.11.21,1.27,0s0-.84-.67-1.46a6.35,6.35,0,0,1-1.67-2.89l-.06-.19c0-.08-.05-.08-.08-.08a1.14,1.14,0,0,0-.7.52,6.79,6.79,0,0,0,.11,1.09l.05.27-.59.13-.4-.93A1.75,1.75,0,0,1,17.5,44.25Z"/><path class="cls-2" d="M20.36,47.91a4.29,4.29,0,0,1-1.51-2.42l-.09,0-.35-.8s-.75-.35-.75-1c0,0-.34-.45-.51.82s.25,1.72,1.17,2.06,1.43,1.49,2.48,2.08,1.39.23,1.63-.1a1.11,1.11,0,0,0-.11-1.08h0C22.61,48.14,21.59,48.82,20.36,47.91Z"/><path class="cls-2" d="M21.75,49.32A2.3,2.3,0,0,1,20.66,49a5.43,5.43,0,0,1-1.31-1.14,3.38,3.38,0,0,0-1.13-.92,1.85,1.85,0,0,1-1.35-2.36c.09-.72.26-1.06.55-1.14a.44.44,0,0,1,.47.18l.06.07v.1c0,.34.43.62.58.69l.1,0,.3.69.15,0,.05.29a4.07,4.07,0,0,0,1.4,2.24h0c.64.47,1.2.46,1.45.25a.21.21,0,0,0,.08-.27l.51-.26a1.38,1.38,0,0,1,.09,1.39A1.09,1.09,0,0,1,21.75,49.32Zm-.52-.71c.62.28.8.07.95-.13A1.38,1.38,0,0,1,21.23,48.61ZM17.5,44.25c0,.09,0,.21-.06.37-.15,1.13.18,1.46,1,1.75a2.45,2.45,0,0,1,.57.32,5.35,5.35,0,0,1-.35-.86h-.05l-.4-.93A1.75,1.75,0,0,1,17.5,44.25Z"/><path class="cls-1" d="M5,45.33a11.06,11.06,0,0,1-.39,2.55c-.33.85,1.6,1.6,1.8.35a29.37,29.37,0,0,0,0-3C6.48,44.05,5,45.33,5,45.33Z"/><path class="cls-2" d="M5.63,49.17a1.59,1.59,0,0,1-1.1-.46.89.89,0,0,1-.21-.93,11,11,0,0,0,.38-2.46V45.2l.1-.08c.3-.27,1.08-.85,1.56-.6.16.08.34.28.3.76a6,6,0,0,0,0,1.3,5.66,5.66,0,0,1,0,1.69,1,1,0,0,1-.7.86A1.27,1.27,0,0,1,5.63,49.17Zm-.37-3.7A10,10,0,0,1,4.85,48a.34.34,0,0,0,.1.34,1,1,0,0,0,.86.26.43.43,0,0,0,.3-.4,5.3,5.3,0,0,0,0-1.54,7,7,0,0,1,0-1.41.4.4,0,0,0,0-.22A2.34,2.34,0,0,0,5.26,45.47Z"/><path class="cls-3" d="M7.2,51.9A22.4,22.4,0,0,1,7,48.73c0-.09,0-.17,0-.25-.07-.82-.62-.92-1.16-.83s-.89.52-.73,1.49l-.18.13a14.26,14.26,0,0,1-.08-2.36s-.62.06-.74,1a26,26,0,0,0,.48,3.64S5,54,6.72,53.34C7.23,53.16,7.29,52.53,7.2,51.9Z"/><path class="cls-2" d="M6.18,53.73a1.45,1.45,0,0,1-.73-.19,3,3,0,0,1-1.15-1.9,23.5,23.5,0,0,1-.48-3.73c.14-1.19,1-1.28,1-1.29l.36,0,0,.36a4.48,4.48,0,0,0,0,.77,1.16,1.16,0,0,1,.68-.36,1.34,1.34,0,0,1,1.07.2,1.17,1.17,0,0,1,.42.89,2.53,2.53,0,0,1,0,.28,24.11,24.11,0,0,0,.2,3.13h0c.17,1.19-.27,1.61-.66,1.75A1.9,1.9,0,0,1,6.18,53.73ZM4.52,47.5a1.21,1.21,0,0,0-.13.48,23.51,23.51,0,0,0,.47,3.55A2.5,2.5,0,0,0,5.74,53a1,1,0,0,0,.88,0c.36-.12.36-.68.3-1.13a23.57,23.57,0,0,1-.21-3.21,1.69,1.69,0,0,0,0-.23A.68.68,0,0,0,6.5,48a.81.81,0,0,0-.63-.08.59.59,0,0,0-.39.22,1.3,1.3,0,0,0-.09.94l0,.18-.73.51-.05-.48A16.85,16.85,0,0,1,4.52,47.5Z"/><path class="cls-2" d="M7,50.68s.15,1.85-.38,2c-.72.25-1.25,0-1.51-1.25a1.48,1.48,0,0,0,0-.21c.06-1,.37-1.33.34-2l-.49.06A10.25,10.25,0,0,1,4.78,48c-.06-.18-.12-.85-.17-1a2.51,2.51,0,0,0-.36,1.11,28,28,0,0,0,.35,3.54A2.52,2.52,0,0,0,5.24,53h0a.88.88,0,0,0,.42.18l.5.23.56-.11.43-.45Z"/><path class="cls-2" d="M6.28,26.05a53.27,53.27,0,0,0-.54,7c0,2.93-.79,2.84-1.25,4.92s.06,7.39.06,7.39a2.4,2.4,0,0,0,2.14,0,19.84,19.84,0,0,1,.46-4,31.69,31.69,0,0,0,.74-3.64,24.41,24.41,0,0,0,1.65-5.11c.46-2.43.75-4.05,1.76-4s1.54,2.61,2.63,4.53a9.88,9.88,0,0,1,1.14,2.36,5.48,5.48,0,0,0,.78,3.15,10.76,10.76,0,0,1,1.43,3.58s1.24.51,1.87-.29a25.53,25.53,0,0,1-.5-3.3c-.19-2.38-.31-3-1-4.28-.81-1.54-.46-4-1.16-6.13a16.56,16.56,0,0,0-1.66-3.84C14.32,23.44,6.28,26.05,6.28,26.05Z"/><path class="cls-2" d="M5.48,45.7a1.7,1.7,0,0,1-1-.26l0,0v-.06c0-.22-.51-5.35,0-7.43A7.08,7.08,0,0,1,5,36.17,6,6,0,0,0,5.6,33a53,53,0,0,1,.54-7v-.09l.09,0c1.36-.44,8.17-2.6,8.75-1.63a16.13,16.13,0,0,1,1.67,3.87,13.69,13.69,0,0,1,.53,3.1,8.66,8.66,0,0,0,.62,3c.68,1.3.8,2,1,4.34a27.82,27.82,0,0,0,.49,3.28l0,.06,0,.06c-.69.88-2,.36-2,.34l-.07,0,0-.07a10.33,10.33,0,0,0-1.42-3.55,5.84,5.84,0,0,1-.8-3.22,11.25,11.25,0,0,0-1.12-2.29,22.39,22.39,0,0,1-1-2.12c-.49-1.18-1-2.29-1.53-2.34-.85-.09-1.16,1.53-1.58,3.77v.07A24.91,24.91,0,0,1,8,37.68a31.17,31.17,0,0,1-.73,3.63,19.28,19.28,0,0,0-.46,4v.1l-.1,0A3.71,3.71,0,0,1,5.48,45.7Zm-.79-.46a2.38,2.38,0,0,0,1.85,0,20.48,20.48,0,0,1,.47-4,31.17,31.17,0,0,0,.73-3.63l0,0A24.76,24.76,0,0,0,9.4,32.51l0-.08c.46-2.47.77-4.1,1.89-4,.74.08,1.19,1.15,1.77,2.52a19.81,19.81,0,0,0,1,2.09,9.67,9.67,0,0,1,1.16,2.41v0A5.5,5.5,0,0,0,16,38.55,10.78,10.78,0,0,1,17.4,42.1,1.56,1.56,0,0,0,19,41.87a25.8,25.8,0,0,1-.48-3.25c-.19-2.44-.33-3-1-4.23a8.45,8.45,0,0,1-.65-3.11,14.13,14.13,0,0,0-.52-3,17,17,0,0,0-1.64-3.82c-.31-.51-4.47.48-8.34,1.73A52.41,52.41,0,0,0,5.88,33a6.18,6.18,0,0,1-.64,3.27A6.75,6.75,0,0,0,4.63,38C4.22,39.88,4.63,44.61,4.69,45.24Z"/><path class="cls-1" d="M6.22,24.12a12.21,12.21,0,0,0-.51,2.26.1.1,0,0,0,.07.11,9.48,9.48,0,0,0,9.37-2.7.11.11,0,0,0-.07-.19l-6.8.19h0l-2,.26A.1.1,0,0,0,6.22,24.12Z"/><path class="cls-2" d="M8.13,27.09a8.5,8.5,0,0,1-2.44-.33.4.4,0,0,1-.27-.41A13,13,0,0,1,6,24H6a.37.37,0,0,1,.31-.26l2-.26,6.84-.19a.37.37,0,0,1,.36.23.39.39,0,0,1-.08.44A10.13,10.13,0,0,1,8.13,27.09ZM6,26.25a9.17,9.17,0,0,0,8.6-2.35l-6.32.17-1.83.25A11.89,11.89,0,0,0,6,26.25Z"/><path class="cls-1" d="M3.28,27.77a13,13,0,0,0,.5,2.69,6.27,6.27,0,0,0,.65.94.8.8,0,0,0,.83.27h0a.85.85,0,0,0,.61-.82,1.38,1.38,0,0,0-.11-.51,2.19,2.19,0,0,1-.15-1.44c.12-.3.67.16.92,0s-.48-1-1.24-1.43a8.27,8.27,0,0,1-1.8-2.08L3,26.66Z"/><path class="cls-2" d="M5.05,32a1.08,1.08,0,0,1-.84-.4,6.09,6.09,0,0,1-.68-1A12.33,12.33,0,0,1,3,27.82l-.27-1.18.69-1.88.31.49a7.86,7.86,0,0,0,1.7,2c.66.36,1.43,1.13,1.44,1.58a.39.39,0,0,1-.19.34.83.83,0,0,1-.69,0l-.14,0A2.12,2.12,0,0,0,6,30.23a1.54,1.54,0,0,1,.12.61,1.11,1.11,0,0,1-.82,1.1A.9.9,0,0,1,5.05,32Zm-1.72-5.3.24,1.06A11.56,11.56,0,0,0,4,30.33a5.07,5.07,0,0,0,.61.88.5.5,0,0,0,.53.18.54.54,0,0,0,.4-.53,1.07,1.07,0,0,0-.08-.41,2.49,2.49,0,0,1-.16-1.66c.17-.41.61-.27.82-.2a3.59,3.59,0,0,0-1-.86A6.64,6.64,0,0,1,3.56,26Z"/><path class="cls-3" d="M20.29,17a2.1,2.1,0,0,0-.76-.3.63.63,0,0,1-.41-.44c-.31-1.18-.6-2.41-.79-3.37a4.16,4.16,0,0,0-2.47-3.42c-1.07-.41-4.64,0-4.64,0l-3.35.74a6.59,6.59,0,0,0-3.15,2.25A46.86,46.86,0,0,0,.35,21.3c-.51,1.75,2,5.66,2,5.66l-.24.91.79.24A2.69,2.69,0,0,1,4.4,26.67a.11.11,0,0,0,.06-.17,7,7,0,0,1-1.12-2.17C3.07,23.21,2.71,22,2.71,22s1.46-2.06,2.36-3.67,1.26-2.15,1.26-2.15a5,5,0,0,1,.76,3.31,8.28,8.28,0,0,1-.22,1.41,10,10,0,0,1-.54,1.47l-.78,1.73a.16.16,0,0,0,0,.19A9.38,9.38,0,0,0,9.21,25.6a7.67,7.67,0,0,0,4.89-.08,5.22,5.22,0,0,0,2-1.28h0a28.34,28.34,0,0,1-.63-5.55c.15-1.68.44-3.63.44-3.63a32,32,0,0,1,1.6,3.44c.36,1.09.4,2.32,1.46,3.27.77.69,1.22-1,1.3-1.08A2.47,2.47,0,0,0,20.29,17Z"/><path class="cls-2" d="M3,28.46l-1.29-.4L2,27c-.4-.66-2.43-4.09-1.93-5.79a47.5,47.5,0,0,1,4.41-8.94,6.88,6.88,0,0,1,3.3-2.36l3.37-.74c.4,0,3.7-.41,4.81,0a4.45,4.45,0,0,1,2.64,3.63c.17.87.45,2.06.79,3.36a.35.35,0,0,0,.22.24l.12,0a1.83,1.83,0,0,1,.74.32h0a2.76,2.76,0,0,1,.9,2.09,2.68,2.68,0,0,1-.93,2,.58.58,0,0,0-.05.11c-.16.38-.45,1.09-1,1.21a.74.74,0,0,1-.7-.22,4.61,4.61,0,0,1-1.32-2.6c-.07-.27-.14-.53-.22-.79A23.55,23.55,0,0,0,16,16c-.1.72-.23,1.77-.32,2.73a28.13,28.13,0,0,0,.63,5.46l0,.15-.1.11a5.77,5.77,0,0,1-2.05,1.35,7.74,7.74,0,0,1-4.86.13l-.2,0a9.26,9.26,0,0,1-3.73-1.42.45.45,0,0,1-.13-.53l.78-1.73a8.74,8.74,0,0,0,.52-1.42,6.73,6.73,0,0,0,.21-1.35,5.55,5.55,0,0,0-.47-2.75c-.2.33-.53.88-1,1.74-.78,1.39-2,3.13-2.3,3.59.1.35.38,1.35.6,2.25a6.76,6.76,0,0,0,1.07,2.07.39.39,0,0,1,.06.36.38.38,0,0,1-.27.25,2.47,2.47,0,0,0-1.35,1.28Zm-.6-.79.29.1a3,3,0,0,1,1.37-1.29,7.07,7.07,0,0,1-1-2.08C2.79,23.3,2.44,22,2.44,22l0-.13.08-.11s1.46-2.07,2.34-3.65S6.08,16,6.09,16l.22-.32.24.3a5.19,5.19,0,0,1,.82,3.51,7,7,0,0,1-.23,1.46,8.89,8.89,0,0,1-.55,1.51l-.73,1.64a9,9,0,0,0,3.41,1.25l.2,0A7.06,7.06,0,0,0,14,25.25a4.93,4.93,0,0,0,1.74-1.1,27.4,27.4,0,0,1-.61-5.48c.16-1.68.45-3.64.45-3.66l.13-.86.4.77a30,30,0,0,1,1.62,3.49c.09.27.16.55.23.83a4.1,4.1,0,0,0,1.15,2.32c.08.07.15.1.19.09.24-.06.49-.67.57-.88a.71.71,0,0,1,.17-.3,2.07,2.07,0,0,0,.77-1.61,2.25,2.25,0,0,0-.7-1.66h0a1.55,1.55,0,0,0-.51-.2l-.16,0a.89.89,0,0,1-.59-.64c-.35-1.3-.63-2.51-.8-3.39a3.9,3.9,0,0,0-2.29-3.2,15.78,15.78,0,0,0-4.5,0l-3.33.74a6.31,6.31,0,0,0-3,2.14A46.5,46.5,0,0,0,.63,21.38c-.39,1.33,1.26,4.37,1.93,5.43l.07.1Z"/><path class="cls-1" d="M13.13,10.11l.15.78a.28.28,0,0,1,0,.09v0a7.76,7.76,0,0,1-.15,1.36,4.23,4.23,0,0,1-.74,1.77.53.53,0,0,1-.68.15c-2.25-1.19-4.16-3.73-3.85-4.08h0A2.22,2.22,0,0,0,9,8.45l0-.31A1.15,1.15,0,0,1,8,6.82c.13-.43.3-.1.47-.06a.06.06,0,0,0,.07-.07,3.58,3.58,0,0,1-.3-1.57,5.23,5.23,0,0,1,.4-1.65L9.75,3s5.46-.82,4.93,2.78a10.1,10.1,0,0,1-2.13,5.09.58.58,0,0,1-.63.19A4.91,4.91,0,0,1,10.14,9.7L9.9,9.33Z"/><path class="cls-2" d="M12,14.63a.75.75,0,0,1-.38-.1c-2-1-3.87-3.23-4-4.1A.49.49,0,0,1,7.65,10L7.72,10a1.93,1.93,0,0,0,1-1.53V8.35a1.52,1.52,0,0,1-.78-.64,1.13,1.13,0,0,1-.15-1,.53.53,0,0,1,.32-.4l.06,0A3.42,3.42,0,0,1,8,5.1a5,5,0,0,1,.42-1.75l0-.1,1.25-.53c.13,0,3.24-.47,4.63.92A2.43,2.43,0,0,1,15,5.83a11.06,11.06,0,0,1-1.54,4.33l.13.68a.39.39,0,0,1,0,.15,7.76,7.76,0,0,1-.16,1.43,4.71,4.71,0,0,1-.79,1.89A.83.83,0,0,1,12,14.63ZM8.13,10.37A9.37,9.37,0,0,0,11.85,14a.27.27,0,0,0,.33-.08,3.92,3.92,0,0,0,.68-1.65A6.74,6.74,0,0,0,13,11l0-.17a3.11,3.11,0,0,1-.2.25.93.93,0,0,1-.93.28A5.11,5.11,0,0,1,9.92,9.88l-.26-.39.48-.31.24.36A4.59,4.59,0,0,0,12,10.8a.37.37,0,0,0,.35-.1A10,10,0,0,0,14.4,5.75a1.84,1.84,0,0,0-.46-1.7c-1.12-1.12-3.77-.81-4.11-.77l-.93.41a4.84,4.84,0,0,0-.33,1.45,3.3,3.3,0,0,0,.27,1.43l.07.16-.12.19A.34.34,0,0,1,8.45,7,.52.52,0,0,1,8.3,7a.66.66,0,0,0,.1.43,1,1,0,0,0,.65.45l.26,0-.05.57A2.45,2.45,0,0,1,8.13,10.37Z"/><path class="cls-3" d="M9.15,1.55A.91.91,0,0,1,10,.78s.24-.47,1.37-.49A4.82,4.82,0,0,1,15,2l-.3.41a4.75,4.75,0,0,1,1.09,3.84l-.47.25a2.25,2.25,0,0,1-.76,1.87L14,8l-.66.36L12.51,8l-.42.36A14.1,14.1,0,0,0,10.23,5.7l-.42.35a9.74,9.74,0,0,0-1.16-2c-.52-.58-.47-1.21,0-1.48l-.1-.83Z"/><path class="cls-2" d="M12,8.83l-.16-.31a16.3,16.3,0,0,0-1.63-2.44l-.51.44-.16-.35a9.28,9.28,0,0,0-1.1-1.93A1.47,1.47,0,0,1,8,3.05a1,1,0,0,1,.35-.62l-.12-.89.68-.21a1.17,1.17,0,0,1,1-.82A2,2,0,0,1,11.4,0a5.12,5.12,0,0,1,3.85,1.84l.14.17-.31.41a5,5,0,0,1,1,3.89l0,.15-.44.23a2.47,2.47,0,0,1-.87,1.92l-.15.12L14,8.36l-.65.35-.75-.35Zm.46-1.14.82.38L14,7.7l.59.34a2,2,0,0,0,.51-1.49l0-.19.52-.27a4.43,4.43,0,0,0-1-3.46l-.17-.18L14.66,2A4.52,4.52,0,0,0,11.41.57c-.9,0-1.12.35-1.12.35L10.21,1l-.15,0a.59.59,0,0,0-.62.51l0,.19-.56.17.1.78-.16.09a.46.46,0,0,0-.23.33,1,1,0,0,0,.29.72A8.42,8.42,0,0,1,9.91,5.59l.32-.27.18.16a11.71,11.71,0,0,1,1.76,2.46Z"/><path class="cls-2" d="M11.44,4.64l.28-.58A8.24,8.24,0,0,0,10.3,3l-.07-1.21S9,2.09,9.48,1a.92.92,0,0,0-.33.56l-.6.19.1.83c-.47.27-.52.9,0,1.48a9.74,9.74,0,0,1,1.16,2l.42-.35a14.1,14.1,0,0,1,1.86,2.69L12.51,8S12.7,5.71,11.44,4.64Z"/><path class="cls-2" d="M14.53,2.64A2.17,2.17,0,0,0,13.17,2V1.43a2.55,2.55,0,0,1,1.75.79Z"/><path class="cls-2" d="M12.28,2.37,11.86,2a1.76,1.76,0,0,1,.68-.44l.2.53A1.48,1.48,0,0,0,12.28,2.37Z"/><path class="cls-2" d="M15.05,6.54c-.13-1.52-1-1.74-1-1.74l.12-.57s1.31.29,1.48,2.26Z"/><path class="cls-2" d="M13.45,8.63l-.31-.49a1,1,0,0,0,.51-.61A.82.82,0,0,0,13.53,7L14,6.65a1.36,1.36,0,0,1,.21,1A1.55,1.55,0,0,1,13.45,8.63Z"/><rect class="cls-2" x="12.97" y="5.84" width="0.57" height="0.64" transform="translate(0.35 13.03) rotate(-52.95)"/><rect class="cls-2" x="13.03" y="3.94" width="0.57" height="0.63" transform="translate(6 16.17) rotate(-76.2)"/><path class="cls-3" d="M12.45,6.26a3.85,3.85,0,0,0-2.16-1.82l.15-.4a4.23,4.23,0,0,1,2.39,2Z"/><path class="cls-3" d="M10.78,3.23a2,2,0,0,0-1-.23V2.57A2.41,2.41,0,0,1,11,2.89Z"/><path class="cls-2" d="M6.34,16.65l-.47-.31a10.11,10.11,0,0,0,.59-1.07L7,15.5A8.6,8.6,0,0,1,6.34,16.65Z"/><rect class="cls-2" x="6.69" y="14.17" width="0.7" height="0.57" transform="translate(-8.94 16.2) rotate(-70.26)"/><path class="cls-2" d="M15.87,15.69a13.85,13.85,0,0,1-.62-1.9l.57-.1a13.86,13.86,0,0,0,.58,1.79Z"/><polygon class="cls-2" points="15.96 13.78 14.89 13.67 14.95 13.1 15.11 13.12 14.91 12.54 15.45 12.35 15.96 13.78"/><path class="cls-2" d="M18.43,17.47l-.53-.22a1.34,1.34,0,0,1,1.74-.83l-.21.54C18.77,16.7,18.47,17.39,18.43,17.47Z"/><path class="cls-1" d="M19.28,14.32l-1.12,7.54a.47.47,0,0,1-.5.41l-4.37-.46a.47.47,0,0,1-.4-.56l1.24-7.49a.47.47,0,0,1,.5-.4l4.23.41A.47.47,0,0,1,19.28,14.32Z"/><path class="cls-2" d="M17.7,22.56h-.07l-4.37-.46a.75.75,0,0,1-.51-.28.82.82,0,0,1-.15-.61l1.25-7.49a.76.76,0,0,1,.8-.63l4.24.4a.73.73,0,0,1,.51.28.81.81,0,0,1,.16.6l-1.12,7.55A.76.76,0,0,1,17.7,22.56Zm-3.12-8.92a.17.17,0,0,0-.16.16l-1.25,7.5a.19.19,0,0,0,0,.16.16.16,0,0,0,.11.07l4.37.45a.17.17,0,0,0,.18-.16L19,14.28a.18.18,0,0,0,0-.16.13.13,0,0,0-.11-.07l-4.24-.4Z"/><path class="cls-1" d="M19.47,14.64l-1.12,7.55a.46.46,0,0,1-.5.4l-4.37-.46a.47.47,0,0,1-.4-.56l1.25-7.49a.46.46,0,0,1,.49-.4l4.24.41A.48.48,0,0,1,19.47,14.64Z"/><path class="cls-2" d="M17.9,22.88h-.08l-4.37-.46a.75.75,0,0,1-.65-.89L14,14a.76.76,0,0,1,.81-.63l4.23.4a.73.73,0,0,1,.52.29.77.77,0,0,1,.15.59l-1.12,7.55A.74.74,0,0,1,17.9,22.88ZM14.78,14a.17.17,0,0,0-.17.16l-1.25,7.49a.18.18,0,0,0,0,.16.19.19,0,0,0,.11.07l4.37.46a.19.19,0,0,0,.19-.16l1.12-7.55a.27.27,0,0,0,0-.16.22.22,0,0,0-.12-.07L14.79,14Z"/><path class="cls-2" d="M2.58,27.07l-.53-.22a7,7,0,0,1,.63-1l.46.35A5.44,5.44,0,0,0,2.58,27.07Z"/><path class="cls-2" d="M19.3,20.64a1.86,1.86,0,0,1-.61-.09l.2-.54a1.83,1.83,0,0,0,1.89-.66l.42.4A2.6,2.6,0,0,1,19.3,20.64Z"/><path class="cls-2" d="M2.55,22.45a5.44,5.44,0,0,0-.68-1.35l.46-.34a5.81,5.81,0,0,1,.78,1.54Z"/><rect class="cls-2" x="15.44" y="20.01" width="0.57" height="2.02" transform="translate(-6.6 34.83) rotate(-84.94)"/><path class="cls-2" d="M5.34,29.93a9,9,0,0,0-.68-1.32l.48-.31a8,8,0,0,1,.74,1.43Z"/><path class="cls-1" d="M19.1,17.14a1.67,1.67,0,0,1-1.72.67c-1.26-.14-1.2,1.61-.27,2a7.49,7.49,0,0,0,1.45.45,1,1,0,0,0,1.06-.71C19.85,18.84,20,17.14,19.1,17.14Z"/><path class="cls-2" d="M18.71,20.58a.75.75,0,0,1-.21,0A8.71,8.71,0,0,1,17,20.1a1.57,1.57,0,0,1-.8-1.78,1.07,1.07,0,0,1,1.23-.79A1.39,1.39,0,0,0,18.85,17l.08-.14h.17a.84.84,0,0,1,.71.36,3.22,3.22,0,0,1,.08,2.44A1.28,1.28,0,0,1,18.71,20.58Zm-1.47-2.49a.48.48,0,0,0-.5.38,1,1,0,0,0,.49,1.1,7,7,0,0,0,1.39.43.71.71,0,0,0,.73-.51,2.92,2.92,0,0,0,0-1.94.53.53,0,0,0-.12-.1,2,2,0,0,1-1.88.65Z"/><path class="cls-2" d="M18.22,18.42A2,2,0,0,1,17,18l.37-.44a1.73,1.73,0,0,0,2.14-.22l.33.46A2.76,2.76,0,0,1,18.22,18.42Z"/><path class="cls-2" d="M8.39,24.27A6.53,6.53,0,0,1,6.05,22.6l.46-.34a6.13,6.13,0,0,0,2.13,1.5Z"/><path class="cls-2" d="M12.79,25.5a8.82,8.82,0,0,1-3.94-1l.28-.5s3.75,2.05,6.76,0l.32.48A6,6,0,0,1,12.79,25.5Z"/><path class="cls-2" d="M8.37,22.83a4.21,4.21,0,0,1-1.74-2l.54-.2a3.66,3.66,0,0,0,1.49,1.71Z"/><rect class="cls-2" x="9.23" y="22.67" width="0.57" height="0.8" transform="translate(-15.4 21.59) rotate(-64.19)"/><path class="cls-2" d="M12.27,16.21a10.23,10.23,0,0,1-4-2.57l.43-.39a9.73,9.73,0,0,0,3.77,2.42Z"/><path class="cls-2" d="M7.31,12.6a16.65,16.65,0,0,1-1-1.68l.51-.26a17.8,17.8,0,0,0,1,1.63Z"/><path class="cls-3" d="M10.64,20.44S9.33,19.88,9.22,19s.61-1.17,1.06-.54c0,0,.39-.84,1-.43s-.66,2.41-.66,2.41Z"/><path class="cls-1" d="M10.73,20.79l-.21-.09c-.06,0-1.45-.64-1.58-1.67a1,1,0,0,1,.55-1.11.8.8,0,0,1,.74.09,1.06,1.06,0,0,1,.51-.35.83.83,0,0,1,.72.14.75.75,0,0,1,.31.49c.15.81-.79,2.16-.9,2.31Zm-1-2.35H9.7a.47.47,0,0,0-.2.51c.07.49.65.9,1,1.11a3.3,3.3,0,0,0,.67-1.67.19.19,0,0,0-.07-.13.29.29,0,0,0-.24-.06c-.17.05-.32.29-.36.37l-.21.44-.28-.39A.39.39,0,0,0,9.77,18.44Z"/><rect class="cls-2" x="13.94" y="8.42" width="0.57" height="0.72" transform="translate(2.68 20.87) rotate(-78)"/><path class="cls-2" d="M17.28,11a2.41,2.41,0,0,0-2.18-.77L15,9.61a3,3,0,0,1,2.75,1Z"/><path class="cls-3" d="M6.64,30.29l-.13-.41A3,3,0,0,0,8.3,27.06l.43,0A3.41,3.41,0,0,1,6.64,30.29Z"/><path class="cls-3" d="M5.54,38.83a3.53,3.53,0,0,1-.49-2.6l.42.08a3.23,3.23,0,0,0,.4,2.25Z"/><path class="cls-3" d="M16.23,36.74a2.29,2.29,0,0,1-1.18-.83l.35-.25a1.9,1.9,0,0,0,.92.66Z"/><path class="cls-3" d="M16,28.62a3.63,3.63,0,0,1-2.05-2.52l.42-.09a3.25,3.25,0,0,0,1.77,2.2Z"/><path class="cls-3" d="M5.59,44.24a1.54,1.54,0,0,1-.93-.32l.28-.33a1.12,1.12,0,0,0,1.35,0l.24.35A1.61,1.61,0,0,1,5.59,44.24Z"/><path class="cls-3" d="M17.78,41.21A1.9,1.9,0,0,1,17,41l.2-.38a1.29,1.29,0,0,0,1.38-.18l.28.32A1.61,1.61,0,0,1,17.78,41.21Z"/><rect class="cls-2" x="5.9" y="49.45" width="1" height="0.57"/><rect class="cls-2" x="19.75" y="45.23" width="0.94" height="0.57" transform="translate(-18.71 14.46) rotate(-27.47)"/><path class="cls-1" d="M20.59,29.74l-1.72,1.63a.12.12,0,0,1-.17,0l-2.39-2.72a.09.09,0,0,1,0-.07l-.23-2a.13.13,0,0,1,.15-.14l1.95.42s0,0,.06,0l2.39,2.71A.13.13,0,0,1,20.59,29.74Z"/><path class="cls-2" d="M18.79,31.69h0a.39.39,0,0,1-.29-.13L16.1,28.84a.43.43,0,0,1-.1-.23l-.23-2.05a.39.39,0,0,1,.13-.35.4.4,0,0,1,.36-.1l1.95.42a.42.42,0,0,1,.22.13l2.39,2.71a.43.43,0,0,1,0,.58h0l-1.72,1.63A.39.39,0,0,1,18.79,31.69ZM16.56,28.5l2.24,2.55,1.49-1.41L18,27.08l-1.67-.36Z"/><path class="cls-2" d="M18.37,28.71,18,29a.21.21,0,0,1-.3,0l-.51-.58a.23.23,0,0,1,0-.31l.33-.31a.21.21,0,0,1,.3,0l.51.58A.23.23,0,0,1,18.37,28.71Z"/><polygon class="cls-2" points="18.7 30.04 18.31 29.62 18.95 29.01 19.34 29.43 18.7 30.04"/><path class="cls-1" d="M15.79,25a.81.81,0,0,1,.29,1.07.75.75,0,0,1-1,.31.8.8,0,0,1-.3-1.07A.76.76,0,0,1,15.79,25Z"/><path class="cls-2" d="M15.41,26.75a1.06,1.06,0,0,1-.51-.14,1.09,1.09,0,0,1-.4-1.45,1,1,0,0,1,.64-.52,1,1,0,0,1,.79.09,1.09,1.09,0,0,1,.4,1.46,1.07,1.07,0,0,1-.64.52A1.26,1.26,0,0,1,15.41,26.75Zm0-1.58-.12,0a.48.48,0,0,0-.3.24.53.53,0,0,0,.19.69.47.47,0,0,0,.35,0,.52.52,0,0,0,.29-.24.51.51,0,0,0-.19-.69h0A.43.43,0,0,0,15.42,25.17Z"/></g></g></svg>