<svg xmlns="http://www.w3.org/2000/svg" viewBox="0 0 32.51 43.19"><defs><style>.cls-1{fill:#150035;}.cls-2{fill:#fff;}.cls-3{fill:#ffb000;}</style></defs><g id="Layer_2" data-name="Layer 2"><g id="content"><path class="cls-1" d="M14.05,10.61l-.31-.48a2.66,2.66,0,0,0,1.35-1.71,2.12,2.12,0,0,0-.23-1.33A12.73,12.73,0,0,1,10,10.21a3.91,3.91,0,0,1-.66.1A2,2,0,0,1,7.35,9,2.17,2.17,0,0,1,9.74,6l1.34.29a.31.31,0,0,0,.12-.21.26.26,0,0,0-.15-.24,9,9,0,0,1-1-.58,5.36,5.36,0,0,1-3.43-.71,3.44,3.44,0,0,0-3.94.31,2.35,2.35,0,0,1-2.56.23L0,5.06l.28-.5.08.05A1.79,1.79,0,0,0,2.3,4.43a4,4,0,0,1,4.55-.36,5.41,5.41,0,0,0,2.49.69,2.33,2.33,0,0,1-.85-1.63,1.91,1.91,0,0,1,1.9-1.86,1.73,1.73,0,0,1,2,1.42,2.23,2.23,0,0,1-1,2.08,3.6,3.6,0,0,1-.55.29l.53.28a.82.82,0,0,1,.48.79.84.84,0,0,1-.57.75l-.07,0-1.5-.31A1.58,1.58,0,0,0,8.24,7,1.62,1.62,0,0,0,7.87,8.8a1.5,1.5,0,0,0,1.47.94,2.74,2.74,0,0,0,.55-.09c2.3-.58,4.8-3.19,4.82-3.22l.23-.24.2.26a2.86,2.86,0,0,1,.52,2.06A3.19,3.19,0,0,1,14.05,10.61Zm-3.5-8.77h-.12A1.34,1.34,0,0,0,9.06,3.12a2.16,2.16,0,0,0,1.07,1.54A2.51,2.51,0,0,0,11,4.29a1.64,1.64,0,0,0,.79-1.53A1.12,1.12,0,0,0,10.55,1.84Z"/><path class="cls-2" d="M14.73,10.2a2,2,0,0,1-.93,1.62c-.51.29-.93,0-.93-.54a2.08,2.08,0,0,1,.93-1.62C14.32,9.36,14.73,9.61,14.73,10.2Z"/><path class="cls-1" d="M13.38,12.23a.75.75,0,0,1-.38-.1.94.94,0,0,1-.42-.85,2.37,2.37,0,0,1,1.08-1.87.94.94,0,0,1,.94-.06.92.92,0,0,1,.42.85A2.33,2.33,0,0,1,14,12.06,1.17,1.17,0,0,1,13.38,12.23Zm.84-2.41a.54.54,0,0,0-.27.09,1.77,1.77,0,0,0-.79,1.37c0,.17,0,.31.13.35a.41.41,0,0,0,.37-.06,1.77,1.77,0,0,0,.79-1.37.42.42,0,0,0-.13-.36Z"/><path class="cls-1" d="M9.13,4.54a3,3,0,0,1-1.06-2A2.54,2.54,0,0,1,9,.61a2.16,2.16,0,0,1,3,0c.83.8,1.06,2.28-.28,3.76L11.31,4c1.16-1.28.89-2.4.31-3A1.59,1.59,0,0,0,9.38,1a2,2,0,0,0-.74,1.52A2.42,2.42,0,0,0,9.49,4.1Z"/><path class="cls-1" d="M26.5,22.68c0-.05-.84-5.46-2.51-7.48l.45-.37C26.21,17,27,22.37,27.06,22.6Z"/><path class="cls-2" d="M10.1,33.56a15.78,15.78,0,0,0,0,2.27c.07.55-.73.78-1.34.88a1.12,1.12,0,0,1-1-.39c-.71-.83-2.14-2.51-2.24-2.61s-1-1.21-.57-1.85a1,1,0,0,1,1.61-.2,9.45,9.45,0,0,0,2,1l1,.33Z"/><path class="cls-1" d="M8.59,37a1.39,1.39,0,0,1-1.08-.51L5.29,33.91c-.2-.2-1.12-1.39-.61-2.2a1.29,1.29,0,0,1,.93-.62,1.38,1.38,0,0,1,1.11.36,8.71,8.71,0,0,0,1.93.92l1.07.35.68.74v.12a15.19,15.19,0,0,0,0,2.22c0,.42-.19,1-1.58,1.19ZM5.78,31.65H5.69a.74.74,0,0,0-.53.35c-.27.44.38,1.35.53,1.5s1.76,2,2.25,2.62a.85.85,0,0,0,.78.3c.55-.09,1.13-.28,1.1-.56a14.81,14.81,0,0,1,0-2.21l-.41-.44-.94-.31a9.62,9.62,0,0,1-2.13-1A.82.82,0,0,0,5.78,31.65Z"/><path class="cls-2" d="M13.91,6.06a.8.8,0,0,0-.22.64s-.76.4-.52.94,1.14.41,1.14.41l3.3,1.66V7.41a1.74,1.74,0,0,1-1.28-1C16,5.59,15.08,5.22,13.91,6.06Z"/><path class="cls-1" d="M17.9,10.18,14.26,8.34a1.3,1.3,0,0,1-1.36-.59,1,1,0,0,1,.5-1.21,1.12,1.12,0,0,1,.31-.69l0,0a2.13,2.13,0,0,1,1.85-.47,1.54,1.54,0,0,1,1,1,1.46,1.46,0,0,0,1.06.8l.25,0ZM14.36,7.75l3,1.5V7.63a1.94,1.94,0,0,1-1.27-1.09,1,1,0,0,0-.63-.63,1.61,1.61,0,0,0-1.33.37.51.51,0,0,0-.12.4v.19L13.82,7s-.52.28-.39.57.69.26.84.23Z"/><path class="cls-2" d="M9,11.76a3,3,0,0,0-.27-1.38c-.29-.45-.41-.83-.14-1.18a1.8,1.8,0,0,0,.32-.85L9.26,8a2.45,2.45,0,0,1,1.89.63c.81.78-.16,2.87-.16,2.87s-.67,1.09-.82,1S9,11.76,9,11.76Z"/><path class="cls-1" d="M10.2,12.88l-.12,0A7.56,7.56,0,0,1,8.84,12l-.12-.09v-.14a2.81,2.81,0,0,0-.23-1.21A1.28,1.28,0,0,1,8.38,9a1.44,1.44,0,0,0,.25-.7V8.21l.49-.44.09,0a2.76,2.76,0,0,1,2.13.71c.93.9,0,3-.1,3.2C10.61,12.7,10.37,12.88,10.2,12.88Zm-.9-1.27c.32.25.67.51.85.63a6.71,6.71,0,0,0,.59-.85c.22-.47.75-2,.21-2.52a2.18,2.18,0,0,0-1.57-.56l-.19.18a2,2,0,0,1-.36.88c-.14.18-.16.37.15.86A3,3,0,0,1,9.3,11.61Z"/><path class="cls-1" d="M13.05,20.51,17,24.93l3.32.33,3.77-.48a9.29,9.29,0,0,1,.63,4.41l-.16.7a.42.42,0,0,0,.18.45A20.11,20.11,0,0,1,28,33.11c1.2,1.31,2.59,2.91,3.17,3.59A.2.2,0,0,1,31,37a1.71,1.71,0,0,0-1.73,1.56S26,36.44,24.78,35.7a17.25,17.25,0,0,1-3.5-2.53l-.1-.37s-.91,1.49-3.5.78S13.4,29,13.4,29l-1.51-2.95a9.75,9.75,0,0,1-.81,4.44,7,7,0,0,0-1,3,2,2,0,0,1-2.12-1,47.68,47.68,0,0,1,.34-4.88,36.81,36.81,0,0,1,1-4.45,7.22,7.22,0,0,1,1.83-3.15h1.44Z"/><path class="cls-1" d="M29.51,39.08l-.38-.25s-3.31-2.15-4.5-2.89l-.2-.12a16.84,16.84,0,0,1-3.36-2.45h0a3.56,3.56,0,0,1-3.46.49c-2.69-.73-4.39-4.53-4.46-4.7l-1-1.89a8.34,8.34,0,0,1-.83,3.41,6.9,6.9,0,0,0-.94,2.89v.24l-.24,0a2.29,2.29,0,0,1-2.43-1.18l0-.06v-.07s0-2.57.34-4.91a36,36,0,0,1,1-4.49,7.58,7.58,0,0,1,1.89-3.28l.08-.09h1.69l.56.56,3.86,4.33,3.18.33,4-.51.08.21A9.38,9.38,0,0,1,25,29.25l-.16.71a.15.15,0,0,0,.06.15,20.5,20.5,0,0,1,3.3,2.8c1.23,1.34,2.63,3,3.18,3.61a.48.48,0,0,1,.08.5.47.47,0,0,1-.42.29,1.43,1.43,0,0,0-1.46,1.33Zm-8-6a17.23,17.23,0,0,0,3.2,2.3l.2.13c1,.59,3.29,2.1,4.17,2.67a1.94,1.94,0,0,1,1.72-1.37c-.61-.71-1.91-2.22-3.05-3.46a20.05,20.05,0,0,0-3.2-2.72.71.71,0,0,1-.3-.75l.16-.71a8.43,8.43,0,0,0-.54-4l-3.57.45-3.47-.35-4-4.49-.38-.38h-1.2a7,7,0,0,0-1.67,3,36,36,0,0,0-1,4.41c-.27,2.1-.32,4.36-.33,4.78a1.66,1.66,0,0,0,1.56.83,8,8,0,0,1,1-2.91,9.47,9.47,0,0,0,.77-4.28l-.09-1.37,2.14,4.17c0,.05,1.67,3.73,4.1,4.39s3.18-.63,3.18-.65l.35-.56Z"/><path class="cls-3" d="M8.86,12.2a18.09,18.09,0,0,0,0,3.94c.14.95.38,2,.55,2.7a1.41,1.41,0,0,0,1,1l5.31.59a.65.65,0,0,1,.53.7c-.11,1.19-.58,4.17-2,5h0a5.94,5.94,0,0,0,3.84,3.89c2.92,1,5.46.12,7.78-1.75,0,0-1.57-5.12-1.12-6.74A22.35,22.35,0,0,0,25.5,16a7.52,7.52,0,0,0-.69-3.8l-.4-.5a1.55,1.55,0,0,0-1.26-.56,2.45,2.45,0,0,1-2,1.83,6,6,0,0,1-1.93.19,1,1,0,0,0-.81.27l-.36.34.39.61a7.71,7.71,0,0,0-.75,1.16,1.45,1.45,0,0,1-1.28.72l-4.47.59a10.48,10.48,0,0,0-.46-2.78,4.25,4.25,0,0,1-.17-1.61,1.23,1.23,0,0,0-1.23-1.32h0A1.23,1.23,0,0,0,8.86,12.2Z"/><path class="cls-1" d="M20.56,30.79a7.72,7.72,0,0,1-2.51-.44,6.2,6.2,0,0,1-4-4.1l0-.2.18-.1c1.08-.66,1.66-3,1.83-4.81a.37.37,0,0,0-.29-.39l-5.29-.59a1.68,1.68,0,0,1-1.28-1.25c-.17-.72-.41-1.78-.56-2.72a19.07,19.07,0,0,1,0-4h0a1.54,1.54,0,0,1,1.51-1.31,1.49,1.49,0,0,1,1.1.48,1.54,1.54,0,0,1,.42,1.14,3.82,3.82,0,0,0,.15,1.5,10.23,10.23,0,0,1,.46,2.55L16.37,16a1.19,1.19,0,0,0,1.07-.58,10.16,10.16,0,0,1,.65-1l-.41-.65.53-.5a1.33,1.33,0,0,1,1-.35,5.61,5.61,0,0,0,1.83-.18,2.16,2.16,0,0,0,1.78-1.59l0-.23h.23a1.87,1.87,0,0,1,1.51.67L25,12a7.83,7.83,0,0,1,.74,4,23.09,23.09,0,0,1-.69,5.67c-.36,1.26.69,5.17,1.12,6.58l.05.18-.15.12A8.8,8.8,0,0,1,20.56,30.79Zm-5.92-4.48a5.69,5.69,0,0,0,3.6,3.5c2.48.87,4.89.35,7.36-1.58-.28-1-1.49-5.2-1.06-6.71A22.35,22.35,0,0,0,25.21,16a7.49,7.49,0,0,0-.62-3.62l-.4-.5a1.23,1.23,0,0,0-.83-.45,2.75,2.75,0,0,1-2.15,1.82,6.24,6.24,0,0,1-2,.19.76.76,0,0,0-.59.2l-.18.17.38.59-.14.17a6.62,6.62,0,0,0-.72,1.11,1.72,1.72,0,0,1-1.53.87l-4.75.62v-.31a10.37,10.37,0,0,0-.43-2.69A4.19,4.19,0,0,1,11,12.44a1,1,0,0,0-.26-.72,1,1,0,0,0-1.63.51,18.36,18.36,0,0,0,0,3.87c.14.93.38,2,.54,2.67a1.13,1.13,0,0,0,.83.83l5.27.59a.93.93,0,0,1,.78,1C16.47,22.14,16.07,25.21,14.64,26.31Z"/><path class="cls-2" d="M19.31,13a4,4,0,0,0-.46-1.27l-1.06-.81a7.54,7.54,0,0,1,0-4.19c.71-1.92,2.88.5,2.88.5L21.08,9l1.66-.1a6.68,6.68,0,0,0,.41,2.27s-.77,2.22-3.84,1.83Z"/><path class="cls-1" d="M20,13.3a4.84,4.84,0,0,1-.74-.05l-.2,0L19,13a3.86,3.86,0,0,0-.4-1.13l-1.08-.83,0-.09a7.61,7.61,0,0,1,0-4.37,1.26,1.26,0,0,1,.92-.91c1-.19,2.3,1.17,2.43,1.32l.05.06.37,1.6L23,8.56v.32a6.59,6.59,0,0,0,.39,2.17l0,.09,0,.1A3.49,3.49,0,0,1,20,13.3Zm-.46-.59a3,3,0,0,0,3.29-1.58,8.07,8.07,0,0,1-.38-2l-1.61.1-.44-1.93c-.35-.37-1.27-1.2-1.85-1.08-.08,0-.32.06-.5.54a7.15,7.15,0,0,0,0,3.92l1.06.84A4.16,4.16,0,0,1,19.55,12.71Z"/><path class="cls-1" d="M18.05,4.27A3.47,3.47,0,0,0,17,6.3a.57.57,0,0,0,.59.63c.78,0,2.08.13,2.32.93v.61s1-.05,1.17.5a2.5,2.5,0,0,1-.28,1.44.44.44,0,0,0,.27.59,2,2,0,0,0,2.08-.67,4.57,4.57,0,0,0,.5-5.07A3.83,3.83,0,0,0,18.05,4.27Z"/><path class="cls-1" d="M21.58,11.36a1.88,1.88,0,0,1-.59-.09.72.72,0,0,1-.44-.38.72.72,0,0,1,0-.59,2.21,2.21,0,0,0,.28-1.23c-.11-.3-.72-.33-.88-.32l-.3,0V7.91c-.24-.62-1.5-.69-2-.7a.92.92,0,0,1-.68-.3.81.81,0,0,1-.2-.65,3.77,3.77,0,0,1,1.15-2.2h0a3.88,3.88,0,0,1,3.25-.82A4,4,0,0,1,23.9,5.12a4.9,4.9,0,0,1-.54,5.4A2.51,2.51,0,0,1,21.58,11.36ZM20.2,8.19a1.23,1.23,0,0,1,1.14.68,2.43,2.43,0,0,1-.28,1.65.16.16,0,0,0,0,.12.12.12,0,0,0,.1.08,1.71,1.71,0,0,0,1.78-.59A4.23,4.23,0,0,0,23.4,5.4,3.4,3.4,0,0,0,21,3.8a3.32,3.32,0,0,0-2.78.69,3.3,3.3,0,0,0-.95,1.84.28.28,0,0,0,.06.2.34.34,0,0,0,.25.11c1,0,2.31.21,2.6,1.14v.41Z"/><path class="cls-2" d="M29.22,41.32l.24-.71a4,4,0,0,0-.17-2s0-2,1.72-1.73,1.11,4.26,1.11,4.26L32,41.9a1.14,1.14,0,0,1-1.28,1,3.28,3.28,0,0,1-1.92-.33,2.48,2.48,0,0,1-.72-1.16.83.83,0,0,1,.45-1l1-.48Z"/><path class="cls-1" d="M30.74,43.19h-.29a2.86,2.86,0,0,1-1.86-.41,2.74,2.74,0,0,1-.81-1.29,1.12,1.12,0,0,1,.61-1.32l.84-.4A4,4,0,0,0,29,38.7l0-.05v-.06a2.5,2.5,0,0,1,.72-1.7,1.6,1.6,0,0,1,1.34-.31c1.9.3,1.4,4.14,1.34,4.58l-.14.79A1.42,1.42,0,0,1,30.74,43.19ZM29.2,40.42l-.57.27a.53.53,0,0,0-.29.64,2.05,2.05,0,0,0,.63,1,2.5,2.5,0,0,0,1.48.27h.26c.6,0,.89-.24,1-.77l.15-.78c.13-1,.27-3.74-.87-3.93a1.08,1.08,0,0,0-.89.19,1.88,1.88,0,0,0-.5,1.22,4.32,4.32,0,0,1,.16,2.12l-.24.74L29,41.23l.24-.71S29.2,40.45,29.2,40.42Z"/><path class="cls-1" d="M7.32,33.61a2.2,2.2,0,0,1-.7-.11L6.81,33a1.38,1.38,0,0,0,1,0,.89.89,0,0,0,.36-.66l.56.09a1.39,1.39,0,0,1-.63,1.06A1.5,1.5,0,0,1,7.32,33.61Z"/><path class="cls-3" d="M12.24,26.5l-.43-.06A4.38,4.38,0,0,0,11.75,25l.42-.11A4.94,4.94,0,0,1,12.24,26.5Z"/><path class="cls-3" d="M21.36,32.92,21,32.69a2.93,2.93,0,0,0,.45-1.25h.43A3.21,3.21,0,0,1,21.36,32.92Z"/><path class="cls-3" d="M10.1,32.34a2.12,2.12,0,0,1-2-1.36l.41-.13a1.64,1.64,0,0,0,1.64,1.06h0v.43Z"/><path class="cls-3" d="M28.16,37.64a2.39,2.39,0,0,1,1.69-2.56l.14.4a1.94,1.94,0,0,0-1.41,2.09Z"/><path class="cls-1" d="M18.94,19.77c-.08-.16-1.77-3.9-.74-5.54l.16-.26.25.18a2.66,2.66,0,0,0,1.72.25l.06.57a3.59,3.59,0,0,1-1.82-.2c-.48,1.26.46,3.82.89,4.76Z"/><path class="cls-3" d="M26.93,24.37h0a.8.8,0,0,1-.89-.68l-.1-.77a.79.79,0,0,1,.68-.89h0a.78.78,0,0,1,.89.68l.11.77A.8.8,0,0,1,26.93,24.37Z"/><path class="cls-1" d="M26.83,24.66a1.08,1.08,0,0,1-1.07-.94l-.1-.76a1,1,0,0,1,.21-.8,1.08,1.08,0,0,1,1.93.51l.1.77a1.09,1.09,0,0,1-.21.8,1,1,0,0,1-.72.41h-.14Zm-.1-2.35h-.07a.58.58,0,0,0-.34.19.58.58,0,0,0-.1.38l.11.77a.5.5,0,0,0,.57.44h0a.52.52,0,0,0,.43-.57l-.1-.77a.53.53,0,0,0-.19-.34A.5.5,0,0,0,26.73,22.31Z"/><path class="cls-2" d="M18.82,21.39l0,.91a4,4,0,0,0,2.28,3.79h0a4,4,0,0,0,4.82-1.15l.3-.38a.88.88,0,0,0-.33-1.34l-5.8-2.59A.88.88,0,0,0,18.82,21.39Z"/><path class="cls-1" d="M22.76,26.76a4.28,4.28,0,0,1-4.27-4.47l.05-.92a1.16,1.16,0,0,1,1.63-1L26,23a1.17,1.17,0,0,1,.44,1.78l-.3.38A4.28,4.28,0,0,1,22.76,26.76ZM19.11,21.4l-.05.91a3.7,3.7,0,0,0,6.6,2.46l.3-.39a.56.56,0,0,0,.1-.5.54.54,0,0,0-.33-.39l-5.8-2.6a.55.55,0,0,0-.54,0,.56.56,0,0,0-.28.47Z"/><path class="cls-3" d="M19.35,21.45h0a.8.8,0,0,1-.89-.68l-.1-.77a.8.8,0,0,1,.68-.89h0a.79.79,0,0,1,.89.68l.1.77A.78.78,0,0,1,19.35,21.45Z"/><path class="cls-1" d="M19.24,21.75a1.05,1.05,0,0,1-.65-.23,1,1,0,0,1-.41-.71L18.07,20a1.09,1.09,0,0,1,.22-.8,1.07,1.07,0,0,1,.71-.42,1.1,1.1,0,0,1,1.22.93l.1.77a1,1,0,0,1-.22.8,1.07,1.07,0,0,1-.71.42Zm-.09-2.36h-.07a.5.5,0,0,0-.34.2.49.49,0,0,0-.1.37l.1.77a.51.51,0,0,0,.91.24.49.49,0,0,0,.1-.37l-.1-.77A.51.51,0,0,0,19.15,19.39Z"/><path class="cls-1" d="M10.94,17.29l-.12-.56a14.78,14.78,0,0,1,1.79-.26l0,.57A15.65,15.65,0,0,0,10.94,17.29Z"/><path class="cls-1" d="M21.73,29.07l-.13-.56a8.23,8.23,0,0,0,3.68-1.93l.43.38A8.66,8.66,0,0,1,21.73,29.07Z"/><path class="cls-1" d="M20.83,29.24a4.93,4.93,0,0,1-1.69-.35l.22-.53a4.14,4.14,0,0,0,1.47.31Z"/><rect class="cls-1" x="21.98" y="21.19" width="0.57" height="4.86" transform="translate(-8.34 34.44) rotate(-66.16)"/><path class="cls-3" d="M22.46,23.44a.8.8,0,0,1-.8.79.8.8,0,0,1,0-1.59A.8.8,0,0,1,22.46,23.44Z"/><path class="cls-1" d="M21.66,24.52a1.09,1.09,0,1,1,1.09-1.08A1.09,1.09,0,0,1,21.66,24.52Zm0-1.59a.51.51,0,0,0,0,1,.51.51,0,1,0,0-1Z"/><path class="cls-1" d="M24.15,13.18l-.45-.35a1.76,1.76,0,0,0,.42-1.1l.57-.07A2.38,2.38,0,0,1,24.15,13.18Z"/><path class="cls-3" d="M17.93,6.36a2.15,2.15,0,0,1,.73-1.73l.23.36c-.55.35-.53,1.35-.53,1.36Z"/><path class="cls-1" d="M11.13,13.45a1.51,1.51,0,0,0-2.15,0L8.57,13a2.06,2.06,0,0,1,2.94,0Z"/><path class="cls-1" d="M20.18,10.31a1.48,1.48,0,0,1-.39-.05L20,9.71a.78.78,0,0,0,.94-.42l.52.23A1.29,1.29,0,0,1,20.18,10.31Z"/><path class="cls-2" d="M16.09,35.75l-2.16-1a.13.13,0,0,1-.07-.16l1.45-3.31a.12.12,0,0,1,0,0l1.74-1a.13.13,0,0,1,.19.08l.42,2a.06.06,0,0,1,0,.07l-1.44,3.31A.13.13,0,0,1,16.09,35.75Z"/><path class="cls-1" d="M16.14,36.05A.32.32,0,0,1,16,36h0l-2.17-1a.41.41,0,0,1-.21-.54l1.45-3.3a.42.42,0,0,1,.16-.19L17,30a.4.4,0,0,1,.37,0,.42.42,0,0,1,.24.29l.42,2a.43.43,0,0,1,0,.25l-1.45,3.3a.39.39,0,0,1-.23.22A.37.37,0,0,1,16.14,36.05Zm-2-1.46,1.87.83,1.36-3.1-.37-1.72-1.5.88Z"/><path class="cls-1" d="M16.1,33.26l-.41-.19a.21.21,0,0,1-.11-.28l.3-.7a.22.22,0,0,1,.29-.11l.41.18a.22.22,0,0,1,.11.29l-.3.7A.22.22,0,0,1,16.1,33.26Z"/><rect class="cls-1" x="15.28" y="33.57" width="0.57" height="0.89" transform="translate(-21.84 34.32) rotate(-65.89)"/><path class="cls-2" d="M18.38,29.38a.76.76,0,0,1-.84.69.77.77,0,0,1-.7-.84.76.76,0,0,1,.83-.7A.79.79,0,0,1,18.38,29.38Z"/><path class="cls-1" d="M17.62,30.36h-.11a1.08,1.08,0,0,1-1-1.16,1.09,1.09,0,0,1,.38-.72,1,1,0,0,1,.77-.23,1.06,1.06,0,0,1,1,1.15h0a1,1,0,0,1-1,1Zm0-1.55a.51.51,0,0,0-.31.11.49.49,0,0,0-.17.33.51.51,0,0,0,.45.54.49.49,0,0,0,.35-.11.47.47,0,0,0,.17-.33.48.48,0,0,0-.44-.53Z"/><rect class="cls-3" x="23.77" y="30.37" width="0.88" height="0.43" transform="translate(-14.79 29.73) rotate(-50.39)"/><path class="cls-3" d="M22.39,9.46l-.26-.34a2.55,2.55,0,0,0,1-2.46l.42-.1A3,3,0,0,1,22.39,9.46Z"/><path class="cls-3" d="M22.94,6a1.37,1.37,0,0,0-.58-.59l.2-.38a1.82,1.82,0,0,1,.79.83Z"/><path class="cls-1" d="M20.91,14.84l-.08-.56a3.76,3.76,0,0,0,1.28-.44l.31.48A4.19,4.19,0,0,1,20.91,14.84Z"/><path class="cls-1" d="M16.48,28a3.7,3.7,0,0,1-1.4-3.11l.57.08a3.12,3.12,0,0,0,1.21,2.6Z"/><rect class="cls-1" x="13.78" y="6.43" width="0.57" height="0.79" transform="translate(3.37 18.22) rotate(-72.69)"/><path class="cls-1" d="M8.8,35.75a1,1,0,0,1-.7-.3l-.33-.34.42-.4.33.35a.39.39,0,0,0,.34.11,1.78,1.78,0,0,0,1-.45l.43.38a2.37,2.37,0,0,1-1.38.64Z"/><path class="cls-1" d="M30.7,38.92l-.5-.29a1.89,1.89,0,0,1,1-.81,1.28,1.28,0,0,1,1,.21l-.31.48a.75.75,0,0,0-.58-.13A1.19,1.19,0,0,0,30.7,38.92Z"/><path class="cls-1" d="M31.43,39.71,31,39.37a1.23,1.23,0,0,1,.78-.48.88.88,0,0,1,.66.26l-.4.41a.29.29,0,0,0-.21-.1A.73.73,0,0,0,31.43,39.71Z"/><path class="cls-1" d="M30.78,42.66a2.57,2.57,0,0,1-.74-.11l.17-.55c.05,0,1.27.38,1.56-.54l.54.18A1.48,1.48,0,0,1,30.78,42.66Z"/><path class="cls-1" d="M10.85,11.3c-.21-.32-.8-.31-1-.28l-.09-.56a1.72,1.72,0,0,1,1.57.52Z"/><path class="cls-1" d="M15.93,17l-.09-.57a2.33,2.33,0,0,0,1.38-.75l.47.32A2.89,2.89,0,0,1,15.93,17Z"/><path class="cls-1" d="M19.57,12a2.38,2.38,0,0,1-.37-.06,4,4,0,0,1-1.48-.73l-.1-.07.35-.46.1.08a3.29,3.29,0,0,0,1.26.62,1.6,1.6,0,0,0,.29.05Z"/><path class="cls-1" d="M16.55,21.51a.91.91,0,0,0-.83-.75l0-.57a1.5,1.5,0,0,1,1.35,1.22Z"/><path class="cls-1" d="M24.11,21.51a2.68,2.68,0,0,1-1.1-.29l.27-.5a1.69,1.69,0,0,0,1.1.18.72.72,0,0,0,.41-.41l.52.22a1.21,1.21,0,0,1-.74.73A1.47,1.47,0,0,1,24.11,21.51Z"/><rect class="cls-1" x="21.92" y="19.93" width="0.57" height="0.87" transform="translate(-6.9 28.18) rotate(-57.55)"/><path class="cls-1" d="M16.42,25.69A7,7,0,0,1,16,21.4l.56.12a6.5,6.5,0,0,0,.36,3.92Z"/><rect class="cls-3" x="11.32" y="23.45" width="0.43" height="0.84" transform="translate(-10.63 9.33) rotate(-30.95)"/><polygon class="cls-3" points="21.88 30.84 21.45 30.84 21.45 30.61 21.22 29.88 21.63 29.75 21.88 30.58 21.88 30.84"/><path class="cls-1" d="M24.53,20.31l-.23-.53.12.27-.12-.26a1.67,1.67,0,0,0,.79-1.44l.57,0A2.19,2.19,0,0,1,24.53,20.31Z"/><path class="cls-1" d="M12,20.34a1.72,1.72,0,0,1-1.67-1.5l.57,0-.28,0,.28,0c0,.09.1.84,1.16,1Z"/></g></g></svg>