<svg xmlns="http://www.w3.org/2000/svg" viewBox="0 0 20.68 52.71"><defs><style>.cls-1{fill:#fff;}.cls-2{fill:#150035;}.cls-3{fill:#ffb000;}</style></defs><g id="Layer_2" data-name="Layer 2"><g id="content"><path class="cls-1" d="M16.3,42.72a7.94,7.94,0,0,0,.15,2.15c.23.92-1.12,1-1.46.3s0-1.36,0-2.79S16.3,42.72,16.3,42.72Z"/><path class="cls-2" d="M15.81,45.92a1.19,1.19,0,0,1-1.08-.62,2.45,2.45,0,0,1-.13-1.48,8.7,8.7,0,0,0,.06-1.43c0-.17,0-.68.35-.83s1.16.54,1.51,1l.07.09v.11a7.75,7.75,0,0,0,.13,2.06.83.83,0,0,1-.51,1.05A1.05,1.05,0,0,1,15.81,45.92Zm-.57-3.8c0,.05,0,.12,0,.25a9.58,9.58,0,0,1-.06,1.51,2.1,2.1,0,0,0,.07,1.17.65.65,0,0,0,.77.26c.11,0,.22-.11.16-.37A8,8,0,0,1,16,42.82,3,3,0,0,0,15.24,42.12Z"/><path class="cls-1" d="M4.84,45.18a7.07,7.07,0,0,0-.32,2.39c.1,1-1.74,1-1.71-.39s.6-1.8.56-2.54S4.84,45.18,4.84,45.18Z"/><path class="cls-2" d="M3.8,48.6a1.21,1.21,0,0,1-.61-.16,1.33,1.33,0,0,1-.66-1.26,4.56,4.56,0,0,1,.37-1.76,1.75,1.75,0,0,0,.19-.77.46.46,0,0,1,.24-.48c.33-.16.9.11,1.7.8l.14.12-.06.18a7,7,0,0,0-.31,2.27.92.92,0,0,1-.4.89A1.13,1.13,0,0,1,3.8,48.6Zm-.14-3.88a2.35,2.35,0,0,1-.23.91,4.3,4.3,0,0,0-.33,1.56.78.78,0,0,0,.36.75.6.6,0,0,0,.62,0,.32.32,0,0,0,.15-.35,7.13,7.13,0,0,1,.28-2.32A4.3,4.3,0,0,0,3.66,44.72Z"/><path class="cls-2" d="M16.54,23.27s.44.46.86,3a37,37,0,0,1,.53,8.32,2,2,0,0,1-.48,1L17,39.07,16.42,43a1.25,1.25,0,0,1-1.77-.28s-.15-2.15-.42-3.59-.49-2.43.16-3.79a6.32,6.32,0,0,0-.05-3.2c-.49-1.58-1.11-3.82-1.11-3.82h0a1.43,1.43,0,0,0-.92,1c-.38,1.42-1.22,4.53-1.74,5.93-.69,1.86-1.06,2.69-2.06,3.38a18.41,18.41,0,0,0-2.34,4A29.1,29.1,0,0,1,5,45.32a1.38,1.38,0,0,1-1.91-.39,24.72,24.72,0,0,0,.62-3.28,5,5,0,0,1,2-4,6.09,6.09,0,0,0,1.18-3.28,38.83,38.83,0,0,1,1.45-9.69c1-2.86,7.22-1.8,7.22-1.8Z"/><path class="cls-2" d="M4.19,45.7A1.45,1.45,0,0,1,3,45l0-.06V44.9a24.52,24.52,0,0,0,.62-3.27,5.19,5.19,0,0,1,2.06-4.11,6.08,6.08,0,0,0,1.14-3.19c0-1.71.39-6.79,1.46-9.72s7.12-1.95,7.37-1.91l1,.48c.05.05.47.56.9,3.08a36.79,36.79,0,0,1,.52,8.35,2.16,2.16,0,0,1-.48,1l-.46,3.44-.58,4-.05,0a1.39,1.39,0,0,1-2-.31l0,0v0s-.16-2.16-.42-3.58l0-.14a5.31,5.31,0,0,1,.2-3.74h0a6.22,6.22,0,0,0-.06-3.09c-.41-1.32-.92-3.13-1.07-3.67a1.33,1.33,0,0,0-.69.83c-.34,1.32-1.21,4.52-1.74,6C10,37.21,9.61,38,8.61,38.71a18.5,18.5,0,0,0-2.31,4c-.86,2.15-1.16,2.69-1.17,2.71l0,0A1.71,1.71,0,0,1,4.19,45.7Zm-.94-.8a1.21,1.21,0,0,0,1.64.32c.08-.14.4-.8,1.14-2.64A18.63,18.63,0,0,1,8.4,38.52l0,0c1-.66,1.3-1.43,2-3.32.53-1.41,1.39-4.61,1.74-5.92a1.54,1.54,0,0,1,1-1.08l.14-.05,0,.14s.63,2.26,1.12,3.81a6.44,6.44,0,0,1,0,3.28,5,5,0,0,0-.19,3.58l0,.15c.25,1.32.4,3.26.42,3.57a1.08,1.08,0,0,0,1.49.25l.56-3.85.48-3.52,0,0a1.93,1.93,0,0,0,.45-.92,36.7,36.7,0,0,0-.53-8.27,8.05,8.05,0,0,0-.81-2.92L15.52,23s-6-1-7,1.72c-1,2.91-1.4,7.94-1.45,9.64a6.28,6.28,0,0,1-1.2,3.37l0,0a4.86,4.86,0,0,0-2,3.92A25.87,25.87,0,0,1,3.25,44.9Z"/><rect class="cls-2" x="15.67" y="1.32" width="0.57" height="6" transform="translate(-0.13 0.53) rotate(-1.9)"/><path class="cls-3" d="M2.65,21.69c2.33,1.37,4.26,2.8,4.26,2.8l-.24.59a.37.37,0,0,0,.32.51l.59,0h0a4.92,4.92,0,0,1,.57-1.06h0s3.35,2,6.17.79S17,22.75,17,22.74h0a17.9,17.9,0,0,1-.71-3.61,8.2,8.2,0,0,1,.31-2.58h0a14,14,0,0,1,1,2.61c.3,1.24.55,2.22,1.29,2.39s1.64-.75,1.5-1.83-1.47-5.56-1.47-5.56l.39-.32,0-1.16h0l-2,.75h0l0-1.27h0l-1-1.31a5.18,5.18,0,0,0-1.51-1.05,21.36,21.36,0,0,0-4.88-1S8.23,8.63,8,10.08l-.33.36a4.66,4.66,0,0,0-2.49,1.88c-1.34,1.83-4,5-4.66,6.13S.32,20.32,2.65,21.69Zm.52-2.44h0A26.33,26.33,0,0,0,6.7,16h0a39.79,39.79,0,0,0,1.36,4.2c.52,1.08-.42,1.57-.19,3.07h0c-.23-.15-.26-.18-.53-.37a24.06,24.06,0,0,1-2.44-2.14C4.1,20,3.24,19.31,3.17,19.25Z"/><path class="cls-2" d="M12.33,26a9.5,9.5,0,0,1-4.09-1.08,4.28,4.28,0,0,0-.39.78l-.07.19h-.2l-.6,0a.66.66,0,0,1-.53-.3.67.67,0,0,1,0-.6l.16-.38C6,24.21,4.39,23.05,2.5,21.94h0c-2.11-1.25-3-2.15-2.19-3.63a40.46,40.46,0,0,1,2.63-3.52c.75-.94,1.51-1.91,2.05-2.64a5,5,0,0,1,2.56-2L7.77,10A2,2,0,0,1,9.9,8.45a21.12,21.12,0,0,1,5,1.09,5.08,5.08,0,0,1,1.6,1.13l1.08,1.48V13l1.75-.66.24.18,0,1.44-.35.29c.25.86,1.29,4.43,1.42,5.42A2,2,0,0,1,20,21.45a1.35,1.35,0,0,1-1.21.38c-.91-.21-1.18-1.32-1.5-2.61a11.74,11.74,0,0,0-.65-1.8,9.61,9.61,0,0,0-.12,1.7,17.39,17.39,0,0,0,.69,3.54c0,.11.2,1.68-2.79,2.95A5.25,5.25,0,0,1,12.33,26ZM8.06,24.18l.23.13c.13.08,3.28,1.91,5.92.78,2.4-1,2.46-2.16,2.46-2.3a18.08,18.08,0,0,1-.7-3.66,8.33,8.33,0,0,1,.32-2.68l.22-.6.3.57a13.08,13.08,0,0,1,1.06,2.67c.27,1.1.5,2.05,1.07,2.18a.8.8,0,0,0,.69-.24,1.48,1.48,0,0,0,.46-1.28c-.14-1.05-1.44-5.47-1.46-5.51l-.05-.19L19,13.7v-.62l-1.73.66L17,13.58V12.24L16,11a5,5,0,0,0-1.42-1A20.91,20.91,0,0,0,9.85,9S8.47,9,8.33,10.12l0,.09-.45.49-.08,0a4.38,4.38,0,0,0-2.33,1.76c-.54.75-1.31,1.72-2.06,2.66A43,43,0,0,0,.81,18.59c-.45.79-.54,1.37,2,2.86h0c2.32,1.36,4.27,2.8,4.29,2.81l.18.13-.33.8a.08.08,0,0,0,0,.07.07.07,0,0,0,.07,0l.36,0h0a6,6,0,0,1,.52-.93Zm.21-.33-.54-.37-.42-.29-.12-.08a26.14,26.14,0,0,1-2.47-2.17A19.47,19.47,0,0,0,3,19.48l-.12-.08v-.3L3,19a26.78,26.78,0,0,0,3.47-3.22l.09-.11h.35l.07.21A36.24,36.24,0,0,0,8.34,20a2,2,0,0,1,0,1.66,3,3,0,0,0-.17,1.5ZM3.63,19.24c.34.27.92.74,1.49,1.28a23.92,23.92,0,0,0,2.41,2.12l0,0a4.21,4.21,0,0,1,.24-1.15,1.47,1.47,0,0,0,0-1.23,34.32,34.32,0,0,1-1.24-3.75A27.54,27.54,0,0,1,3.63,19.24Z"/><path class="cls-2" d="M17.21,16.59a27.71,27.71,0,0,1-.2-3.18l.57,0a26.51,26.51,0,0,0,.2,3.1Z"/><polygon class="cls-2" points="8.16 25.07 7.66 24.8 8.22 23.77 7.74 23.49 8.03 23 8.99 23.56 8.16 25.07"/><path class="cls-2" d="M18.14,21.36c-.59-2.07-.91-3.9-.91-3.92l.56-.1s.32,1.82.9,3.87Z"/><path class="cls-2" d="M15.34,13l-.56-.15a5.25,5.25,0,0,0-.28-2.95L15,9.68A5.69,5.69,0,0,1,15.34,13Z"/><path class="cls-2" d="M8.74,12.56a6,6,0,0,1-1-2.47l.57,0a5.38,5.38,0,0,0,.88,2.17Z"/><rect class="cls-2" x="9.46" y="12.86" width="0.57" height="1.1" transform="translate(-6.57 10.45) rotate(-43.72)"/><rect class="cls-2" x="14.15" y="13.56" width="0.9" height="0.57" transform="translate(-4.52 20.12) rotate(-61.65)"/><rect class="cls-2" x="11.52" y="17.85" width="3.64" height="0.57" transform="translate(-5.1 31.04) rotate(-88.65)"/><path class="cls-1" d="M12.73,16.32a.66.66,0,0,0,.66.64.65.65,0,1,0,0-1.29A.65.65,0,0,0,12.73,16.32Z"/><path class="cls-2" d="M13.38,17.24a.93.93,0,0,1-.67-1.58,1,1,0,0,1,.66-.28h0a.93.93,0,1,1,0,1.86Zm0-1.28h0a.36.36,0,0,0-.26.11.32.32,0,0,0-.1.25h0a.36.36,0,0,0,.36.35h0a.36.36,0,0,0,.36-.36A.37.37,0,0,0,13.38,16Z"/><rect class="cls-2" x="11.49" y="16.36" width="0.57" height="1.98" transform="translate(-1.13 0.82) rotate(-3.83)"/><path class="cls-1" d="M11,15.94a.65.65,0,1,0,.64-.65A.65.65,0,0,0,11,15.94Z"/><path class="cls-2" d="M11.66,16.86a.93.93,0,0,1-.94-.91h0a.94.94,0,0,1,.92-.94.93.93,0,0,1,.67.26.88.88,0,0,1,.28.65.92.92,0,0,1-.92.94Zm-.37-.92a.34.34,0,0,0,.37.35.36.36,0,0,0,.26-.11.33.33,0,0,0,.1-.25.36.36,0,0,0-.11-.25.4.4,0,0,0-.26-.1.33.33,0,0,0-.25.11.36.36,0,0,0-.11.25Z"/><path class="cls-1" d="M15.2.94a.65.65,0,0,0,.66.63A.64.64,0,1,0,15.2.94Z"/><path class="cls-2" d="M15.85,1.86a.94.94,0,0,1-.94-.92h0a.94.94,0,0,1,1.88,0,1,1,0,0,1-.27.66.91.91,0,0,1-.66.28ZM15.49.93a.36.36,0,0,0,.36.36h0a.36.36,0,0,0,.25-.11.32.32,0,0,0,.1-.26.36.36,0,0,0-.36-.35h0a.36.36,0,0,0-.35.36Z"/><rect class="cls-2" x="13.37" y="15.02" width="0.91" height="0.57" transform="translate(-5.82 21.6) rotate(-65.67)"/><rect class="cls-2" x="10.72" y="14.16" width="0.57" height="1.33" transform="translate(-6.76 9.8) rotate(-37.64)"/><path class="cls-2" d="M11,22.69a11.65,11.65,0,0,1-3.4-3.08l.5-.27a11.52,11.52,0,0,0,3.2,2.87Z"/><rect class="cls-2" x="11.58" y="22.47" width="0.57" height="0.84" transform="translate(-13.87 21.38) rotate(-59.24)"/><path class="cls-2" d="M13,24.85A6.66,6.66,0,0,1,9.5,23.13l.39-.42a6.14,6.14,0,0,0,3.18,1.57Z"/><path class="cls-2" d="M8.91,22.68a3.71,3.71,0,0,1-1-2.15l.57,0a3.14,3.14,0,0,0,.83,1.78Z"/><rect class="cls-2" x="6.7" y="23.86" width="0.78" height="0.57" transform="translate(-17.62 19.37) rotate(-62.69)"/><rect class="cls-2" x="18.28" y="14.04" width="0.68" height="0.57" transform="translate(-4.64 11.01) rotate(-29.47)"/><path class="cls-2" d="M6.29,16.85l-.42-.39a11,11,0,0,0,1.4-2.25l.52.25A11.65,11.65,0,0,1,6.29,16.85Z"/><path class="cls-2" d="M8,13.91l-.55-.13a2.75,2.75,0,0,0,0-1L8,12.62A3.36,3.36,0,0,1,8,13.91Z"/><path class="cls-2" d="M3,19.49a5,5,0,0,0-.65-.36l.24-.52a5.69,5.69,0,0,1,.73.4Z"/><path class="cls-1" d="M19,12.74a4.71,4.71,0,0,0-.58-1.56,9.79,9.79,0,0,1-1.28-3.26c-.2-1.35-.62-1.07-.62-1.07s-.52.3-.37,1.48a15.52,15.52,0,0,0,.4,2.06l-.12.68a.75.75,0,0,0,.31.74,2,2,0,0,1,.6.61,2.39,2.39,0,0,1,.24,1Z"/><path class="cls-2" d="M17.3,13.86v-.45a2.22,2.22,0,0,0-.21-.86,1.85,1.85,0,0,0-.51-.5,1,1,0,0,1-.43-1l.11-.62a17.17,17.17,0,0,1-.4-2c-.17-1.34.45-1.73.52-1.77a.49.49,0,0,1,.44,0c.3.14.5.55.61,1.3a8.19,8.19,0,0,0,1,2.76l.22.41a5,5,0,0,1,.61,1.67v.2Zm-.68-6.71a1.42,1.42,0,0,0-.19,1.14,16.93,16.93,0,0,0,.39,2l0,.06-.13.74a.49.49,0,0,0,.2.47,2.21,2.21,0,0,1,.68.7,2.12,2.12,0,0,1,.23.7l.86-.4a6.12,6.12,0,0,0-.51-1.27l-.21-.4A8.59,8.59,0,0,1,16.86,8,1.83,1.83,0,0,0,16.62,7.15Z"/><path class="cls-2" d="M16,10.74h0a.57.57,0,0,0,.54-.6l-.24-4.46a.57.57,0,0,0-.61-.54h0a.57.57,0,0,0-.54.6l.24,4.46A.59.59,0,0,0,16,10.74Z"/><path class="cls-2" d="M16,11a.85.85,0,0,1-.86-.81l-.25-4.45a.88.88,0,0,1,.22-.62.85.85,0,0,1,.6-.28.83.83,0,0,1,.9.8l.25,4.46a.88.88,0,0,1-.22.62A.83.83,0,0,1,16,11Zm-.25-5.59h0a.29.29,0,0,0-.21.09.31.31,0,0,0-.07.21l.25,4.45a.29.29,0,0,0,.3.27.33.33,0,0,0,.21-.09.31.31,0,0,0,.07-.21L16,5.7A.28.28,0,0,0,15.74,5.43Z"/><path class="cls-1" d="M11.45,10.41a3.71,3.71,0,0,0,1.74,1s1.16-.25,1.78-2.15a10,10,0,0,0,.41-3,3.49,3.49,0,0,0-.51-1.83A2.4,2.4,0,0,0,12.1,3.34,2.61,2.61,0,0,0,9.8,5.71c0,.38-.4.55-.15,1.11,0,.09.25.16.28.25s0,.11,0,.17,0,.11-.09.11a.5.5,0,0,0-.62.49c0,.44.57.87.88,1.09a.51.51,0,0,1,.16.34l-1,.61a.31.31,0,0,0-.14.37,7.1,7.1,0,0,0,2.51,3.32,1.3,1.3,0,0,0,.9.2h0a1.34,1.34,0,0,0,1.13-1,5.36,5.36,0,0,0,.12-1.36l0-.45Z"/><path class="cls-2" d="M12.38,14.07a1.54,1.54,0,0,1-.87-.26,7.32,7.32,0,0,1-2.62-3.47.6.6,0,0,1,.26-.71l.8-.49c-.46-.32-1-.77-1-1.31a.7.7,0,0,1,.54-.73.65.65,0,0,1-.13-.16,1.07,1.07,0,0,1,0-1,.69.69,0,0,0,.09-.25A2.89,2.89,0,0,1,12,3.06a2.69,2.69,0,0,1,3.08,1.21,3.66,3.66,0,0,1,.55,2,10.59,10.59,0,0,1-.41,3.08A4.2,4.2,0,0,1,14.1,11.2v.16A6.13,6.13,0,0,1,14,12.8a1.63,1.63,0,0,1-1.37,1.25ZM9.8,7.63a.32.32,0,0,0-.2,0,.22.22,0,0,0,0,.16c0,.15.13.41.76.85a.75.75,0,0,1,.27.56v.18l-1.14.69a6.45,6.45,0,0,0,2.39,3.22.94.94,0,0,0,.69.14,1,1,0,0,0,.89-.8,5,5,0,0,0,.12-1.11,1.31,1.31,0,0,1-.29.1l-.05,0-.06,0a3.94,3.94,0,0,1-1.89-1.06l.4-.4a3.62,3.62,0,0,0,1.54.89A2.81,2.81,0,0,0,14.7,9.15a10,10,0,0,0,.39-2.9,3.1,3.1,0,0,0-.46-1.67,2.12,2.12,0,0,0-2.47-1,2.35,2.35,0,0,0-2.08,2.12,1.52,1.52,0,0,1-.14.44.48.48,0,0,0,0,.52s0,0,0,0A.52.52,0,0,1,10.2,7s0,.1.05.15a.41.41,0,0,1-.06.34.38.38,0,0,1-.33.14Z"/><path class="cls-3" d="M13.72,7.75l-1.42.1-2-.81a3,3,0,0,1-.76-.69A2.86,2.86,0,0,1,12,3.12a2.59,2.59,0,0,1,3,1.17,3.71,3.71,0,0,1,.54,2l-.48,1.32Z"/><path class="cls-2" d="M12.26,8.14,10.2,7.3a3.25,3.25,0,0,1-.89-.79l0-.06V6.37A3.17,3.17,0,0,1,12,2.84a2.86,2.86,0,0,1,3.3,1.3,3.92,3.92,0,0,1,.59,2.13l0,.09-.54,1.5L13.74,8ZM9.83,6.25a2.49,2.49,0,0,0,.63.54l1.89.77,1.34-.1,1.19-.13.41-1.11a3.36,3.36,0,0,0-.5-1.77A2.3,2.3,0,0,0,12.1,3.4,2.56,2.56,0,0,0,9.83,6.25Z"/><path class="cls-3" d="M15.57,6.27s2,2.67-.78,3.13S10.31,7,10.31,7,14.38,7.9,15.57,6.27Z"/><path class="cls-2" d="M14.17,9.74c-2.52,0-4-2.44-4.11-2.56l-.34-.56.64.14c1.09.22,4.09.55,5-.66l.24-.32.23.32c0,.06,1.06,1.46.62,2.55a1.9,1.9,0,0,1-1.6,1A3.68,3.68,0,0,1,14.17,9.74ZM11,7.43a4.2,4.2,0,0,0,3.78,1.69c.62-.11,1-.34,1.16-.69a2.22,2.22,0,0,0-.36-1.7C14.41,7.74,12.13,7.59,11,7.43Z"/><path class="cls-3" d="M11.72,3.15a.59.59,0,0,0,1.16,0,.59.59,0,0,0-1.16,0Z"/><path class="cls-2" d="M12.3,3.91a.94.94,0,0,1-.59-.2.75.75,0,0,1-.28-.56.71.71,0,0,1,.27-.56.9.9,0,0,1,.59-.22.82.82,0,0,1,.88.76.83.83,0,0,1-.86.78Zm0-1h0a.36.36,0,0,0-.23.08.16.16,0,0,0-.07.12h0a.18.18,0,0,0,.07.12.36.36,0,0,0,.23.08c.18,0,.3-.11.3-.2S12.48,2.94,12.3,2.94Z"/><path class="cls-1" d="M12.37,6.38a.82.82,0,0,0,1,.58c.49,0,.86-.38.82-.75s-.46-.62-1-.57S12.34,6,12.37,6.38Z"/><path class="cls-2" d="M13.21,7.25a1,1,0,0,1-1.12-.84.85.85,0,0,1,.2-.62,1.33,1.33,0,0,1,.88-.44,1.08,1.08,0,0,1,1.27.83.85.85,0,0,1-.2.62,1.25,1.25,0,0,1-.88.44Zm.11-1.33h-.09a.76.76,0,0,0-.5.23.27.27,0,0,0-.07.2h0c0,.18.28.36.64.32a.74.74,0,0,0,.5-.23.32.32,0,0,0,.07-.2C13.85,6.08,13.63,5.92,13.32,5.92Z"/><path class="cls-2" d="M9.55,6.32c-.09-1.08.47-2.94,2.34-2.84-2.22.68-1.42,3.59-1.42,3.59A3.63,3.63,0,0,1,9.55,6.32Z"/><path class="cls-2" d="M13.09,8.87a3.3,3.3,0,0,1-2.33-.8l.4-.41c1.15,1.1,3.39.44,3.41.43l.17.55A6.54,6.54,0,0,1,13.09,8.87Z"/><rect class="cls-2" x="9.91" y="8.18" width="0.57" height="1.1" transform="translate(-1.32 15.62) rotate(-71.44)"/><path class="cls-1" d="M8.41,24l2.42,1.75v.64l1.1,1.33s0,.81-1.12.22a4.45,4.45,0,0,1-1.71-1.19,12.46,12.46,0,0,1-1.32-1.6h0Z"/><path class="cls-2" d="M11.5,28.45a1.73,1.73,0,0,1-.81-.25l-.29-.14a4.18,4.18,0,0,1-1.52-1.12c-.15-.2-.33-.39-.51-.59a5.12,5.12,0,0,1-.83-1.06l-.08-.13.86-1.57,2.8,2v.69l1.1,1.33v.11a.75.75,0,0,1-.35.61A.7.7,0,0,1,11.5,28.45Zm-3.38-3.3a5.53,5.53,0,0,0,.67.81c.18.2.37.4.55.63a3.53,3.53,0,0,0,1.32,1l.29.15c.46.24.62.18.64.16a.12.12,0,0,0,.05-.05l-1.08-1.3v-.6l-2-1.48Z"/><path class="cls-3" d="M13.37,25.3a8.94,8.94,0,0,1-1.14-.07l0-.43a10.37,10.37,0,0,0,3.6-.23L16,25A11.7,11.7,0,0,1,13.37,25.3Z"/><path class="cls-3" d="M17.36,27.07a3.3,3.3,0,0,1-2.46-2.51l.41-.11a2.91,2.91,0,0,0,2.13,2.2Z"/><path class="cls-3" d="M8.22,28a2.52,2.52,0,0,1-.52-.06l.1-.42a1.24,1.24,0,0,0,1.56-.72l.41.14A1.62,1.62,0,0,1,8.22,28Z"/><path class="cls-3" d="M15.67,42.23a1.49,1.49,0,0,1-1.1-.51l.3-.29a1.08,1.08,0,0,0,1.47.14l.26.34A1.55,1.55,0,0,1,15.67,42.23Z"/><path class="cls-3" d="M4.63,44.52a.86.86,0,0,1-.22,0,1.5,1.5,0,0,1-1-.69l.35-.25a1.11,1.11,0,0,0,.71.52,1,1,0,0,0,.73-.17l.25.35A1.59,1.59,0,0,1,4.63,44.52Z"/><path class="cls-3" d="M15.34,36.08a4.6,4.6,0,0,1-.71-1.67l.42-.06a4.43,4.43,0,0,0,.64,1.49Z"/><path class="cls-3" d="M5.5,39a5.64,5.64,0,0,1,.08-1.32l.42.07A5.09,5.09,0,0,0,5.93,39Z"/><path class="cls-3" d="M16.72,36.25l-.14-.4a4.77,4.77,0,0,0,.64-.3l.21.37A4.76,4.76,0,0,1,16.72,36.25Z"/><path class="cls-3" d="M7.62,39H7.49l0-.43a1.9,1.9,0,0,0,.66-.09l.14.4A2.41,2.41,0,0,1,7.62,39Z"/><path class="cls-1" d="M3.34,33.3l2.08,1a.12.12,0,0,0,.16,0l1.58-3.15a.11.11,0,0,0,0-.08L6.85,29.1A.12.12,0,0,0,6.67,29l-1.76.92a.1.1,0,0,0,0,.06L3.28,33.14A.12.12,0,0,0,3.34,33.3Z"/><path class="cls-2" d="M5.47,34.62a.39.39,0,0,1-.18,0l-2.08-1A.45.45,0,0,1,3,33.32.42.42,0,0,1,3,33L4.6,29.86a.39.39,0,0,1,.18-.18l1.76-.92a.38.38,0,0,1,.37,0,.4.4,0,0,1,.22.3L7.46,31a.4.4,0,0,1,0,.24L5.84,34.4A.41.41,0,0,1,5.47,34.62Zm-1.86-1.5L5.4,34l1.48-3-.27-1.67-1.52.79Z"/><path class="cls-2" d="M5.2,31.74l.4.19a.22.22,0,0,0,.29-.09l.33-.67a.21.21,0,0,0-.09-.28l-.4-.2a.22.22,0,0,0-.29.09l-.33.68A.21.21,0,0,0,5.2,31.74Z"/><rect class="cls-2" x="4.69" y="32.18" width="0.57" height="0.87" transform="translate(-26.49 22.71) rotate(-63.86)"/><path class="cls-1" d="M6.7,27.6a.75.75,0,0,0,0,1.07.77.77,0,0,0,1.07,0,.75.75,0,0,0,0-1.07A.77.77,0,0,0,6.7,27.6Z"/><path class="cls-2" d="M7.24,29.17a1,1,0,0,1-1-1,1,1,0,0,1,.31-.73h0A1,1,0,0,1,8,27.4a1,1,0,0,1,.31.73,1,1,0,0,1-1,1ZM6.9,27.8a.47.47,0,0,0-.14.33.45.45,0,0,0,.14.33.46.46,0,0,0,.67,0,.45.45,0,0,0,.14-.33.47.47,0,0,0-.14-.33.48.48,0,0,0-.67,0Z"/><path class="cls-3" d="M18.21,47.59a9.31,9.31,0,0,1-.82-1.52,4.42,4.42,0,0,1-.28-.82.94.94,0,0,0-1.46-.63c-.28.31,0,1.38,0,1.38s0,.08-.08,0a2.3,2.3,0,0,1-.73-1.78c.09-1.06-.66-.4-.84.28A2.82,2.82,0,0,0,14,46.22c.16.38.73.49,1.22.79s.87,1.3,1.4,1.81,1.53,1,2.19.51C19.22,49,18.54,48.08,18.21,47.59Z"/><path class="cls-2" d="M18.12,49.8A2.7,2.7,0,0,1,16.37,49a4.51,4.51,0,0,1-.7-.94,3,3,0,0,0-.65-.83c-.16-.09-.32-.16-.47-.23a1.49,1.49,0,0,1-.86-.69,3.1,3.1,0,0,1,0-1.88c.13-.47.57-1.11,1-1,.2,0,.44.22.38.87a1.63,1.63,0,0,0,.12.74.93.93,0,0,1,.19-.59,1,1,0,0,1,1-.22,1.24,1.24,0,0,1,.92,1,5,5,0,0,0,.26.77,8.71,8.71,0,0,0,.8,1.47l.09.13c.38.57,1,1.53.38,2A1.33,1.33,0,0,1,18.12,49.8Zm-3.55-5.72a1.34,1.34,0,0,0-.29.52,2.64,2.64,0,0,0-.06,1.51c.06.15.3.26.57.39a5.31,5.31,0,0,1,.53.27,3.08,3.08,0,0,1,.83,1,4.72,4.72,0,0,0,.62.83c.44.43,1.3.86,1.82.48.13-.09-.05-.5-.53-1.21L18,47.74a10.2,10.2,0,0,1-.85-1.56,5,5,0,0,1-.28-.86.7.7,0,0,0-.52-.56.53.53,0,0,0-.45.05,2.11,2.11,0,0,0,.06,1.12L16,46l0,.08a.32.32,0,0,1-.23.22l-.15,0-.15-.11a2.65,2.65,0,0,1-.83-2A.86.86,0,0,0,14.57,44.08Z"/><path class="cls-2" d="M16.68,47.14l-.49-.3a1.39,1.39,0,0,1,1-.73,1.19,1.19,0,0,1,.88.26l.08.08.06.58-.57,0,0-.33a.48.48,0,0,0-.33-.07A.86.86,0,0,0,16.68,47.14Z"/><path class="cls-3" d="M5.26,50.87A16.24,16.24,0,0,1,5,47.61c0-.17,0-.31,0-.43,0-.68-1.38-.62-1.71,0a1.9,1.9,0,0,0-.23,1.11l0-.08a2.6,2.6,0,0,1-.17-1.88L2.76,46S2.37,46,2,47A2.58,2.58,0,0,0,2.2,49a16.46,16.46,0,0,1,.63,1.86c.28,1,1,1.75,2,1.46C5.36,52.21,5.37,51.51,5.26,50.87Z"/><path class="cls-2" d="M4.39,52.71a1.59,1.59,0,0,1-.8-.21,2.4,2.4,0,0,1-1-1.52,16.4,16.4,0,0,0-.61-1.83,2.82,2.82,0,0,1-.24-2.27c.44-1.12.92-1.22,1.06-1.22H3l.18.7,0,.07a3.17,3.17,0,0,0-.09.64,1.49,1.49,0,0,1,1.61-.62.75.75,0,0,1,.64.74v.43a15.53,15.53,0,0,0,.25,3.2h0c.23,1.29-.21,1.7-.63,1.81A1.93,1.93,0,0,1,4.39,52.71ZM2.54,46.47a3.43,3.43,0,0,0-.3.61,2.29,2.29,0,0,0,.21,1.81,16,16,0,0,1,.66,1.94A1.87,1.87,0,0,0,3.88,52a1.1,1.1,0,0,0,.88.07c.35-.1.29-.77.22-1.17a16.6,16.6,0,0,1-.27-3.31v-.42s0-.13-.2-.18a1,1,0,0,0-1,.34,1.65,1.65,0,0,0-.21.92L3.65,50l-.87-1.64A2.94,2.94,0,0,1,2.54,46.47Z"/><path class="cls-2" d="M4.79,49.58a.52.52,0,0,0-.45-.49c-.46,0-.52.07-.66.36l-.27-.1-.26-.13a1.07,1.07,0,0,1,1.24-.7,1.1,1.1,0,0,1,1,1Z"/><path class="cls-2" d="M14.81,47.12a2.85,2.85,0,0,1-.58-.81,2.74,2.74,0,0,1,.15-2.25l.52.23a2.24,2.24,0,0,0-.14,1.83,2.73,2.73,0,0,0,.46.6Z"/><path class="cls-2" d="M1.93,49.12a3.17,3.17,0,0,1-.13-1.21A4.1,4.1,0,0,1,2.53,46l.47.33A3.56,3.56,0,0,0,2.37,48a2.87,2.87,0,0,0,.11,1Z"/><rect class="cls-2" x="16.46" y="6.97" width="0.57" height="1.58" transform="translate(-1.26 3.71) rotate(-12.17)"/><path class="cls-2" d="M13.59,24.85h-.1v-.57a9,9,0,0,0,2.64-.37l.18.54A9.07,9.07,0,0,1,13.59,24.85Z"/></g></g></svg>