<svg xmlns="http://www.w3.org/2000/svg" viewBox="0 0 30.2 51.06"><defs><style>.cls-1{fill:#ffb000;}.cls-2{fill:#150035;}.cls-3{fill:#fff;}</style></defs><g id="Layer_2" data-name="Layer 2"><g id="content"><path class="cls-1" d="M25.67,43.28v-6.9a.07.07,0,0,0,0-.05l-6.3.57h0l-.57-3.48h-.06l-5.8,3.33h0l-1.11-.31a.05.05,0,0,0-.07.05c0,.28,0,6.81,0,6.84h0a.58.58,0,0,0,.3.47l5.85,3.4a1.62,1.62,0,0,0,1.61,0l5.93-3.41a.61.61,0,0,0,.31-.51Z"/><path class="cls-2" d="M18.62,47.71a1.89,1.89,0,0,1-.95-.26l-5.85-3.39a.89.89,0,0,1-.44-.69v-7l.14-.13a.33.33,0,0,1,.29-.06l1,.29,5.86-3.37.32.15.55,3.36L25.66,36h0a.35.35,0,0,1,.26.33c0,.07,0,6.89,0,6.91v0a.87.87,0,0,1-.45.73l-5.93,3.41A2,2,0,0,1,18.62,47.71ZM12,36.8v6.52a.36.36,0,0,0,.16.25L18,47a1.3,1.3,0,0,0,1.32,0l5.94-3.41a.32.32,0,0,0,.16-.27h0V36.64l-6.08.55-.13,0-.12-.07-.53-3.23-5.6,3.21-.16,0Z"/><path class="cls-2" d="M25.63,36.33l-6.3.57h0L18.58,39v8.38a1.63,1.63,0,0,0,.85-.21l5.93-3.4a.64.64,0,0,0,.31-.52h0v-6.9A.07.07,0,0,0,25.63,36.33Z"/><path class="cls-2" d="M18.63,47.71h-.34l0-8.75.85-2.48.23.14L25.66,36l.05,0a.33.33,0,0,1,.25.32c0,.07,0,6.89,0,6.91a.88.88,0,0,1-.45.76l-5.93,3.41A1.94,1.94,0,0,1,18.63,47.71Zm.23-8.62v8a1.26,1.26,0,0,0,.42-.16l5.94-3.4a.32.32,0,0,0,.16-.28V36.64l-5.86.53Z"/><path class="cls-2" d="M12.56,37.23s.09-.23.19-.53l-1-.29a.05.05,0,0,0-.07.05c0,.28,0,6.81,0,6.84h0a.61.61,0,0,0,.3.48l.59.34v-6.9Z"/><path class="cls-2" d="M12.84,44.63l-1-.6a.87.87,0,0,1-.44-.69v-7l.14-.13a.36.36,0,0,1,.3,0l1.32.36-.11.29-.17.5ZM12,36.77V43.3a.35.35,0,0,0,.16.24l.16.09,0-6.5s0-.09.09-.24Z"/><path class="cls-3" d="M17.84,40.33,12,36.92a.63.63,0,0,1,0-1.08l6-3.42a1.58,1.58,0,0,1,1.56,0l5.87,3.4a.62.62,0,0,1,0,1.08l-6,3.42A1.55,1.55,0,0,1,17.84,40.33Z"/><path class="cls-2" d="M18.63,40.82a1.83,1.83,0,0,1-.93-.25l-5.87-3.4a.9.9,0,0,1-.46-.79.88.88,0,0,1,.46-.78l6-3.42a1.83,1.83,0,0,1,1.84,0l5.88,3.41a.89.89,0,0,1,.45.78.9.9,0,0,1-.46.79l-6,3.42A1.85,1.85,0,0,1,18.63,40.82Zm.08-8.32a1.33,1.33,0,0,0-.64.17l-6,3.42a.32.32,0,0,0-.16.29.31.31,0,0,0,.16.29L18,40.08a1.26,1.26,0,0,0,1.27,0l6-3.42a.33.33,0,0,0,0-.58l-5.88-3.41A1.27,1.27,0,0,0,18.71,32.5Z"/><rect class="cls-1" x="24.24" y="38.33" width="0.43" height="5.14"/><rect class="cls-2" x="13.7" y="38.09" width="0.57" height="6.89"/><path class="cls-3" d="M2.85,31.89,1.28,30.06a.13.13,0,0,1,0-.18l2.77-2.41a.09.09,0,0,1,.07,0l2-.18a.12.12,0,0,1,.13.16l-.47,2a.25.25,0,0,1,0,.07L3,31.9A.12.12,0,0,1,2.85,31.89Z"/><path class="cls-2" d="M2.94,32.22h0a.39.39,0,0,1-.28-.15L1.06,30.24a.41.41,0,0,1,0-.58l2.77-2.41a.52.52,0,0,1,.23-.1l2-.17a.39.39,0,0,1,.35.14.39.39,0,0,1,.09.36l-.47,2a.45.45,0,0,1-.13.22L3.21,32.12A.43.43,0,0,1,2.94,32.22ZM1.6,30,3,31.58l2.6-2.27L6,27.56l-1.77.16Z"/><path class="cls-2" d="M3.94,29.6l-.3-.35a.22.22,0,0,1,0-.31l.59-.51a.22.22,0,0,1,.31,0l.3.36a.22.22,0,0,1,0,.31l-.58.51A.21.21,0,0,1,3.94,29.6Z"/><rect class="cls-2" x="2.83" y="29.6" width="0.57" height="0.9" transform="translate(-18.8 9.25) rotate(-40.56)"/><path class="cls-3" d="M7.71,27a.77.77,0,0,1-1.07.27.8.8,0,0,1-.28-1.08.78.78,0,0,1,1.08-.28A.8.8,0,0,1,7.71,27Z"/><path class="cls-2" d="M7,27.7a1,1,0,0,1-.54-.15,1.09,1.09,0,0,1-.38-1.48,1.07,1.07,0,0,1,.65-.49,1,1,0,0,1,.81.12A1.08,1.08,0,0,1,8,27.17a1.09,1.09,0,0,1-.65.5A1.24,1.24,0,0,1,7,27.7Zm0-1.58H6.91a.57.57,0,0,0-.3.23.52.52,0,0,0,.18.7.5.5,0,0,0,.38.05.49.49,0,0,0,.3-.23.51.51,0,0,0-.18-.69A.47.47,0,0,0,7,26.12Z"/><path class="cls-3" d="M22.73,15l2.7,1.39a.9.9,0,0,0,1.08-.27L29.71,12c.26-.32.31-1.12,0-1.3l-2.82-1a.9.9,0,0,0-1.08.27l-3.36,3.68A1.12,1.12,0,0,0,22.73,15Z"/><path class="cls-2" d="M25.78,16.71a1,1,0,0,1-.48-.11l-2.7-1.4a1.23,1.23,0,0,1-.53-.84,1.09,1.09,0,0,1,.13-.91l3.37-3.69A1.18,1.18,0,0,1,27,9.42l2.78,1a.75.75,0,0,1,.4.55,1.58,1.58,0,0,1-.23,1.2l-3.2,4.09A1.26,1.26,0,0,1,25.78,16.71Zm.73-6.82a.67.67,0,0,0-.51.24l-3.36,3.69a.62.62,0,0,0,0,.42.79.79,0,0,0,.24.45h0l2.7,1.4a.64.64,0,0,0,.73-.2l3.2-4.08a1.05,1.05,0,0,0,.12-.73.27.27,0,0,0-.07-.15l-2.78-1A.54.54,0,0,0,26.51,9.89Z"/><path class="cls-3" d="M22.73,14.45l2.7,1.4a.91.91,0,0,0,1.08-.27l3.2-4.09a.58.58,0,0,0-.15-.91l-2.7-1.4a.92.92,0,0,0-1.08.28l-3.2,4.08A.57.57,0,0,0,22.73,14.45Z"/><path class="cls-2" d="M25.78,16.22a1.13,1.13,0,0,1-.48-.11l-2.7-1.4a.82.82,0,0,1-.44-.57.89.89,0,0,1,.2-.77l3.19-4.09A1.21,1.21,0,0,1,27,8.93l2.7,1.4a.82.82,0,0,1,.44.56.94.94,0,0,1-.19.78l-3.2,4.08A1.24,1.24,0,0,1,25.78,16.22Zm.73-6.83a.7.7,0,0,0-.51.24l-3.19,4.09a.37.37,0,0,0-.09.3.23.23,0,0,0,.14.18h0l2.7,1.4a.64.64,0,0,0,.73-.2l3.2-4.08a.41.41,0,0,0,.09-.3.27.27,0,0,0-.15-.18l-2.7-1.4A.42.42,0,0,0,26.51,9.39Z"/><rect class="cls-2" x="27.04" y="10.05" width="0.57" height="2.01" transform="translate(4.95 30.23) rotate(-62.63)"/><rect class="cls-3" x="21.09" y="10.76" width="5.19" height="0.57" transform="translate(0.38 22.86) rotate(-51.9)"/><rect class="cls-2" x="24.29" y="9.55" width="0.57" height="1.1" transform="translate(2.58 25.01) rotate(-56.47)"/><polygon class="cls-3" points="2.77 45.95 2.45 47.47 2.61 48.67 4.61 48.46 4.95 46.17 2.77 45.95"/><path class="cls-2" d="M2.37,49l-.21-1.52.39-1.82,2.73.28-.43,2.81Zm.37-1.5.12.88,1.5-.16.26-1.77L3,46.26Z"/><polygon class="cls-3" points="16.13 34.2 15.72 35.65 16.33 36.22 17.52 35.94 18.08 34.52 16.13 34.2"/><path class="cls-2" d="M16.25,36.54l-.86-.8.54-1.86,2.55.42-.75,1.88Zm-.21-1,.37.35.9-.22.37-.94-1.34-.22Z"/><path class="cls-3" d="M25.43,15.12h0A2,2,0,0,1,25.86,14l.14-.13.72.12h0c.45-.35,1.41-.81,1.78-.39a1.27,1.27,0,0,1,.29.54c.23.88-1.2,2.32-2,2.46a1.34,1.34,0,0,1-1.34-.92C25.42,15.59,25.43,15.18,25.43,15.12Z"/><path class="cls-2" d="M26.62,16.87a1.64,1.64,0,0,1-1.47-1.17,3.92,3.92,0,0,1,0-.5v-.08a2.28,2.28,0,0,1,.53-1.37l.24-.21.74.12c.59-.42,1.58-.82,2.07-.28a1.62,1.62,0,0,1,.35.66,1.73,1.73,0,0,1-.34,1.32,3.51,3.51,0,0,1-1.92,1.49Zm-.53-2.72,0,0a1.77,1.77,0,0,0-.35.94v.5a1.11,1.11,0,0,0,1,.67,3,3,0,0,0,1.53-1.24,1.2,1.2,0,0,0,.26-.87.91.91,0,0,0-.22-.41c-.19-.22-.93.06-1.39.42l-.1.07Z"/><path class="cls-3" d="M4.67,20.87,5.53,22a.57.57,0,0,0,.38.22l1.4.5a8.36,8.36,0,0,0,.29-1.11v-.12a.65.65,0,0,0-.36-.55l-.53-.24a.59.59,0,0,1-.34-.45l0-.07.66.06a.48.48,0,0,1,.47.23h0l.39-.13-.34-.45a.55.55,0,0,0-.39-.23L6.2,19.5h0l-.73,0a.6.6,0,0,0-.51.27l-.28.4A.62.62,0,0,0,4.67,20.87Z"/><path class="cls-2" d="M7.5,23l-1.69-.59a.85.85,0,0,1-.51-.31l-.85-1.08a.89.89,0,0,1,0-1.07l.27-.4a.9.9,0,0,1,.75-.39l.8,0,.94.1a.89.89,0,0,1,.59.34l.58.79-.84.26a.92.92,0,0,1,.38.73.19.19,0,0,0,0,.08,3.83,3.83,0,0,1-.3,1.23ZM5.42,19.76a.35.35,0,0,0-.27.14l-.27.4a.35.35,0,0,0,0,.4h0l.86,1.07a.3.3,0,0,0,.21.12l1.17.41a7.32,7.32,0,0,0,.19-.73.84.84,0,0,1,0-.12.35.35,0,0,0-.19-.3l-.53-.24a.9.9,0,0,1-.5-.65L6,19.82l1,.08h.15l-.08,0-.94-.1Zm1.6.72.22.1h0C7.19,20.5,7.16,20.48,7,20.48Z"/><path class="cls-2" d="M8.68,23.11s-1.33,5.78-1.75,9.27-1.7,2.78-2.84,6.3a36.2,36.2,0,0,0-1.34,7,.83.83,0,0,0,.72.89l.91.11a.81.81,0,0,0,.89-.64c.36-1.63,1.3-5.59,2.57-7.69,1.63-2.69,1.94-2.33,2.82-4.92.75-2.21,1.64-4.76,1.88-5.46a.13.13,0,0,1,.19,0c.29.25,1.43.53,3.49-.46a17.15,17.15,0,0,1,3.29-1.32.09.09,0,0,1,.09.14A7.79,7.79,0,0,0,18,29.75a13.18,13.18,0,0,1-1.75,4,.61.61,0,0,0,.45.92l.85.1a.6.6,0,0,0,.57-.27c.89-1.33,4.12-6,5.07-8.33,1.08-2.64.76-3.86-.84-4.38S14.21,23,14.21,23Z"/><path class="cls-2" d="M4.48,47H4.35l-.91-.11a1.09,1.09,0,0,1-1-1.19,34.93,34.93,0,0,1,1.35-7.09,9.12,9.12,0,0,1,1.58-3,5.35,5.35,0,0,0,1.25-3.2c.41-3.47,1.74-9.24,1.75-9.3l0-.21,5.72-.18c.55-.14,6.6-1.65,8.22-1.12a2.2,2.2,0,0,1,1.48,1.16c.37.8.22,1.94-.46,3.6a62.16,62.16,0,0,1-4.74,7.85l-.35.53a.89.89,0,0,1-.85.39l-.85-.1A.88.88,0,0,1,16,33.62a13.24,13.24,0,0,0,1.71-3.92A8.05,8.05,0,0,1,19,26.6a23.8,23.8,0,0,0-2.67,1.14c-1.87.9-3.06.8-3.6.55-.31.89-1.12,3.22-1.81,5.25a8.66,8.66,0,0,1-1.51,3c-.33.46-.74,1-1.33,2-1.25,2.07-2.19,6-2.54,7.6A1.1,1.1,0,0,1,4.48,47Zm4.43-23.6c-.24,1.08-1.33,6-1.69,9A6,6,0,0,1,5.86,35.9a8.4,8.4,0,0,0-1.5,2.87,34.59,34.59,0,0,0-1.32,7,.52.52,0,0,0,.46.57l.91.11A.52.52,0,0,0,5,46c.36-1.63,1.31-5.64,2.61-7.78.6-1,1-1.57,1.36-2a8.4,8.4,0,0,0,1.43-2.82c.75-2.21,1.64-4.76,1.88-5.46a.41.41,0,0,1,.27-.26.45.45,0,0,1,.37.08c.2.17,1.23.45,3.18-.5a18.28,18.28,0,0,1,3.35-1.34.39.39,0,0,1,.41.16.39.39,0,0,1,0,.44,7.6,7.6,0,0,0-1.58,3.32,13.16,13.16,0,0,1-1.79,4.12.34.34,0,0,0,0,.31.34.34,0,0,0,.25.18l.85.1a.32.32,0,0,0,.3-.14l.36-.54a62.26,62.26,0,0,0,4.68-7.75c.61-1.48.76-2.51.47-3.14a1.68,1.68,0,0,0-1.13-.86c-1.26-.4-6.16.69-7.94,1.14h-.06Z"/><path class="cls-1" d="M27.3,15.94c-.28-1.25-1.19-.88-1.19-.88A31.26,31.26,0,0,0,23.3,17.3s-.85,0-2.95-2.13a27.88,27.88,0,0,0-4.44-3.55l-2.5-1.46S11.28,9.33,9.9,8.87s-2.17-.62-4.67,1.68C3.58,12.07,3,12.63,2.13,13.37A8.63,8.63,0,0,0,.3,15.65c.65,2.24,3.43,4.63,3.43,4.63a1.17,1.17,0,0,0,.94.22,1.34,1.34,0,0,0,1-1.19L3.07,15.92a.18.18,0,0,1,.05-.25c1.89-1.09,4.19-2.5,4.19-2.5h0c-.13,2.65.22,7.11.22,7.11A41.26,41.26,0,0,1,6,24.87l1.91,1.06a9.94,9.94,0,0,0,9.2,0c1.23-.64,1.5-1.16,1.69-1.7l-1.92-5.52-.29-2.11a.13.13,0,0,1,.22-.07c1.57,1.39,6,3.68,6.51,3.54C24.23,19.84,27.59,17.18,27.3,15.94Z"/><path class="cls-2" d="M12.46,27.37a9.88,9.88,0,0,1-4.73-1.19L5.6,25l.09-.24a35.8,35.8,0,0,0,1.55-4.51c0-.12-.3-3.94-.23-6.56-.75.46-2.28,1.39-3.63,2.16l2.54,3.37v.11a1.61,1.61,0,0,1-1.19,1.45,1.43,1.43,0,0,1-1.18-.28C3.43,20.39.69,18,0,15.73l0-.08,0-.08a8.75,8.75,0,0,1,1.92-2.41L5,10.34C7.61,8,8.51,8.11,10,8.6s3.5,1.29,3.52,1.3l2.55,1.48A28.3,28.3,0,0,1,20.56,15a7.93,7.93,0,0,0,2.66,2A30.57,30.57,0,0,1,26,14.82l.06,0a1.08,1.08,0,0,1,.89.05,1.4,1.4,0,0,1,.68,1c.34,1.5-3.21,4.23-4.23,4.51-.68.19-4.78-2-6.45-3.34l.22,1.64,1.94,5.59,0,.09a3.06,3.06,0,0,1-1.83,1.86A10.39,10.39,0,0,1,12.46,27.37ZM6.32,24.74,8,25.68a9.62,9.62,0,0,0,8.93,0c1.07-.55,1.34-1,1.52-1.44l-1.91-5.49-.29-2.15v-.05a.44.44,0,0,1,.28-.31.39.39,0,0,1,.41.09,23,23,0,0,0,6.25,3.47h0c.92-.26,4-2.86,3.81-3.83h0a1,1,0,0,0-.39-.65.52.52,0,0,0-.4,0,29.32,29.32,0,0,0-2.74,2.19l-.09.08h-.12c-.09,0-1-.09-3.14-2.21a26.83,26.83,0,0,0-4.39-3.5l-2.49-1.46h0s-2.12-.82-3.46-1.27-1.94-.63-4.38,1.62L2.32,13.59A9.37,9.37,0,0,0,.6,15.66c.67,2.11,3.29,4.38,3.32,4.4h0a.91.91,0,0,0,.68.17,1,1,0,0,0,.73-.84l-2.49-3.3a.49.49,0,0,1-.08-.37A.46.46,0,0,1,3,15.43c1.86-1.08,4.16-2.49,4.18-2.5l.46-.29,0,.54c-.13,2.57.2,6.9.21,7.08A32.21,32.21,0,0,1,6.32,24.74Z"/><path class="cls-3" d="M14.71,10.54a9.91,9.91,0,0,1-.06-1.14.44.44,0,0,1,.49-.33,1.54,1.54,0,0,0,1.14-.18,1.22,1.22,0,0,0,.34-.34A5.09,5.09,0,0,0,17.45,5a3.73,3.73,0,0,0-1.37-2.13L12.51,4.59l-.43,1v.61c0,.53.06,1.05.09,1.57S12,8.86,10.89,9.65c-1.74,1.24,2.17,2.43,2.17,2.43l1.62-.64Z"/><path class="cls-2" d="M13.08,12.38l-.1,0c-.44-.13-2.64-.85-2.81-1.9a1,1,0,0,1,.56-1c1-.73,1.17-1.35,1.15-1.65l0-.54c0-.35,0-.7,0-1.05l0-.73.47-1.07,3.82-1.87.14.1a4,4,0,0,1,1.48,2.32,5.31,5.31,0,0,1-.87,3.78,1.57,1.57,0,0,1-.43.42,1.69,1.69,0,0,1-1.24.23H15.1a.15.15,0,0,0-.17.11,2.29,2.29,0,0,0,0,.42c0,.18,0,.4.05.66h0l0,1.09Zm-.71-6.75v.55c0,.34,0,.67.05,1l0,.55c0,.51-.19,1.3-1.39,2.15-.24.16-.35.32-.33.47.09.5,1.38,1.11,2.32,1.41l1.35-.53,0-.7a4.73,4.73,0,0,0,0-.6,2.45,2.45,0,0,1,0-.6.72.72,0,0,1,.8-.56l.1,0a1.15,1.15,0,0,0,.87-.16.91.91,0,0,0,.24-.24A4.72,4.72,0,0,0,17.16,5a3.26,3.26,0,0,0-1.11-1.83L12.73,4.8Z"/><path class="cls-2" d="M16.73.3a.1.1,0,0,0-.15.11v0a.7.7,0,0,1-1,.75A3.33,3.33,0,0,0,14.15.85c-1.06.06-2.68.25-2.94,2.23a3.19,3.19,0,0,0-.39,2.21c.27,1.53,1.55,2.5,3.51,2.25h0A2,2,0,0,0,15.47,6.4a1.6,1.6,0,0,1,1.14-1,3.91,3.91,0,0,0,1.25-.9A2.8,2.8,0,0,0,16.73.3Z"/><path class="cls-2" d="M13.72,7.86a3,3,0,0,1-3.18-2.52A3.51,3.51,0,0,1,10.93,3C11.27.72,13.27.61,14.13.56a3.46,3.46,0,0,1,1.59.38.44.44,0,0,0,.44-.06A.38.38,0,0,0,16.3.5a.4.4,0,0,1,.15-.42.38.38,0,0,1,.42,0h0a3.14,3.14,0,0,1,1.73,2.1,3.35,3.35,0,0,1-.51,2.5,4.24,4.24,0,0,1-1.37,1l-.07,0a1.32,1.32,0,0,0-.92.84,2.23,2.23,0,0,1-1.32,1.31h-.06A4.64,4.64,0,0,1,13.72,7.86Zm.52-6.73h-.08c-1.26.07-2.45.36-2.67,2l0,.11a2.87,2.87,0,0,0-.36,2c.26,1.46,1.47,2.23,3.16,2a1.7,1.7,0,0,0,.94-1A1.92,1.92,0,0,1,16.52,5.1a3.51,3.51,0,0,0,1.11-.8,2.76,2.76,0,0,0,.41-2A2.47,2.47,0,0,0,16.87.71a1,1,0,0,1-.35.62,1,1,0,0,1-1,.13A3.42,3.42,0,0,0,14.24,1.13Z"/><path class="cls-2" d="M15.84,7.41a.67.67,0,0,1-.51-.2,1.07,1.07,0,0,1-.28-.79l.57,0-.28,0h.28a.59.59,0,0,0,.1.35s0,0,.17,0l0,.57Z"/><path class="cls-1" d="M13.61,4.52a1.54,1.54,0,0,0-1.94-1.1L11.54,3A2,2,0,0,1,14,4.38Z"/><path class="cls-1" d="M11.77,10.27a3.16,3.16,0,0,0,2.93.66l.64-.13.89,1s-.49,1.57-3,1.21-3.46-1.79-3.32-2.75v0A1.52,1.52,0,0,1,11.22,9l.29,0h0A1.07,1.07,0,0,0,11.77,10.27Z"/><path class="cls-2" d="M14,13.38a5.52,5.52,0,0,1-.77-.06,4.63,4.63,0,0,1-3.13-1.59,2,2,0,0,1-.43-1.48,1.81,1.81,0,0,1,1.55-1.5L12,8.64l-.23.48a.77.77,0,0,0,.18.93h0a2.87,2.87,0,0,0,2.67.6l.82-.16,1.11,1.27,0,.15A2.46,2.46,0,0,1,14,13.38Zm-2.84-4a1.24,1.24,0,0,0-.92,1,1.52,1.52,0,0,0,.32,1.08,3.93,3.93,0,0,0,2.75,1.36c1.81.27,2.44-.54,2.63-.87l-.67-.77-.48.1a3.43,3.43,0,0,1-3.17-.72h0A1.36,1.36,0,0,1,11.12,9.35Z"/><path class="cls-2" d="M7.59,13.44,7,13.37a6.14,6.14,0,0,1,.44-1.68l.52.25A5.74,5.74,0,0,0,7.59,13.44Z"/><path class="cls-1" d="M2.22,47.47s1.13.09,1.48.57a1.33,1.33,0,0,0,.16.17.54.54,0,0,0,.84-.38l.1-.69h.06a7.38,7.38,0,0,1,2.73.09l.42.09s.73.38.38.78-2.54.88-4,1.81-2.73.56-2.68-.93S1.84,47.31,2.22,47.47Z"/><path class="cls-2" d="M2.85,50.69a1.54,1.54,0,0,1-.77-.19A1.61,1.61,0,0,1,1.39,49c0-1.14.11-1.57.39-1.75a.58.58,0,0,1,.51,0,2.64,2.64,0,0,1,1.64.68A.57.57,0,0,0,4,48a.2.2,0,0,0,.21,0,.29.29,0,0,0,.17-.21l.13-.9.21,0a7.56,7.56,0,0,1,2.89.08l.49.11a1.21,1.21,0,0,1,.62.7.6.6,0,0,1-.15.53A4.18,4.18,0,0,1,7.08,49,13.92,13.92,0,0,0,4.5,50.14,3.29,3.29,0,0,1,2.85,50.69Zm-.77-3A6.73,6.73,0,0,0,2,49a1.09,1.09,0,0,0,.41,1,1.91,1.91,0,0,0,1.83-.35,15.22,15.22,0,0,1,2.68-1.18,5.65,5.65,0,0,0,1.29-.56c0-.12-.13-.25-.26-.33l-.38-.08a7.09,7.09,0,0,0-2.47-.11L5,47.87a.83.83,0,0,1-.52.66.76.76,0,0,1-.77-.1.92.92,0,0,1-.22-.22,2.18,2.18,0,0,0-1.27-.45l-.09,0Z"/><path class="cls-1" d="M15.88,35.1s.76,0,.9.51.74.33.74.33l.29-.73.19-.47a10.76,10.76,0,0,1,2.86,0c.9.23,1,.6.71.93a32.94,32.94,0,0,1-4.32,1.92c-.21.07-1.59.66-1.92-.24a3.38,3.38,0,0,1,.24-2.14Z"/><path class="cls-2" d="M16.12,38.13a1,1,0,0,1-1.06-.68,3.73,3.73,0,0,1,.25-2.36l0-.1.47-.18h.06c.1,0,1,.07,1.17.72,0,.12.15.14.25.14h0l.47-1.2.17,0a11,11,0,0,1,3,0c.63.17,1,.41,1.07.74a.69.69,0,0,1-.23.67,32.63,32.63,0,0,1-4.43,2l-.07,0A3.52,3.52,0,0,1,16.12,38.13Zm-.33-2.69a2.83,2.83,0,0,0-.19,1.81c.13.37.62.41,1.48.1l.09,0a37.5,37.5,0,0,0,4.2-1.85.27.27,0,0,0,.08-.12c0-.05-.16-.2-.67-.34a9.69,9.69,0,0,0-2.58,0l-.47,1.18-.14,0a.85.85,0,0,1-1.08-.52c-.06-.19-.4-.28-.59-.3Z"/><path class="cls-2" d="M3,19.71a1,1,0,0,1-.3,0l.11-.56-.06.28.06-.28a1.19,1.19,0,0,0,1.08-.36l.43.37A1.71,1.71,0,0,1,3,19.71Z"/><path class="cls-2" d="M25.69,17.06a1,1,0,0,0-1-.6l-.11-.56a1.57,1.57,0,0,1,1.61.88Z"/><path class="cls-2" d="M16.59,16.79a2.51,2.51,0,0,1-.68-1l-.08-.17.52-.24.08.18a2,2,0,0,0,.53.8Z"/><rect class="cls-2" x="16.2" y="16.01" width="0.57" height="1.07" transform="translate(-3.45 4.38) rotate(-13.72)"/><path class="cls-2" d="M15,13.21,14.48,13l.25.13L14.47,13s.18-.43-.32-1l.41-.39A1.46,1.46,0,0,1,15,13.21Z"/><path class="cls-2" d="M10.67,11.56l-.56-.1A1.81,1.81,0,0,1,11.74,10l0,.57A1.24,1.24,0,0,0,10.67,11.56Z"/><path class="cls-2" d="M13.41,23.11A13.57,13.57,0,0,1,12,23l.06-.57a6,6,0,0,0,2.62-.07l.26.51A3.62,3.62,0,0,1,13.41,23.11Z"/><path class="cls-2" d="M11.25,22.93a8.72,8.72,0,0,1-4.12-1.48L7.5,21a8.33,8.33,0,0,0,3.83,1.36Z"/><path class="cls-1" d="M17.24,2.89a1.62,1.62,0,0,0-.72-1.15l.17-.39a2,2,0,0,1,1,1.45Z"/><path class="cls-1" d="M12.22,28c-.33-.34-.54-.6-.54-.6l.33-.27s.21.25.52.58Z"/><path class="cls-1" d="M22.49,23c-.42-.54-1.54-.41-1.93-.31l-.1-.41c.06,0,1.69-.42,2.37.46Z"/><rect class="cls-1" x="19.56" y="25.87" width="1.2" height="0.43" transform="translate(-7.86 8.71) rotate(-20.49)"/><path class="cls-1" d="M4.32,45.63a2.72,2.72,0,0,1-1.52-.46l.26-.34A2.33,2.33,0,0,0,5.25,45l.16.4A2.71,2.71,0,0,1,4.32,45.63Z"/><path class="cls-1" d="M18.08,33.71a2.85,2.85,0,0,1-1.43-.39l.24-.36a2.38,2.38,0,0,0,1.55.29l.08.43Z"/><path class="cls-1" d="M8.18,35.34l-.28-.06a6.89,6.89,0,0,1-1.38-.52l.21-.38A5.76,5.76,0,0,0,8,34.86l.25.06Z"/><path class="cls-3" d="M16.84,19.18a.61.61,0,1,1-.61-.6A.61.61,0,0,1,16.84,19.18Z"/><path class="cls-2" d="M16.23,20.08a.9.9,0,1,1,.89-.9A.89.89,0,0,1,16.23,20.08Zm0-1.22a.33.33,0,0,0-.32.32.32.32,0,0,0,.32.32.32.32,0,0,0,.32-.32A.32.32,0,0,0,16.23,18.86Z"/><path class="cls-3" d="M17.7,21.48a.6.6,0,0,1-.61.6.61.61,0,1,1,.61-.6Z"/><path class="cls-2" d="M17.09,22.37a.9.9,0,1,1,.89-.89A.89.89,0,0,1,17.09,22.37Zm0-1.22a.33.33,0,1,0,.32.33A.32.32,0,0,0,17.09,21.15Z"/><path class="cls-2" d="M6.69,48.08,6.12,48c0-.51-.5-.69-.52-.7l.17-.54A1.27,1.27,0,0,1,6.69,48.08Z"/><path class="cls-2" d="M19.87,35.57H19.3c0-.57-.42-.61-.5-.61v-.57A1.09,1.09,0,0,1,19.87,35.57Z"/><path class="cls-2" d="M13,21.8a16.25,16.25,0,0,1-2.65-.29L10.5,21a16.23,16.23,0,0,0,2.54.28h0v.57Z"/><path class="cls-2" d="M16.22,48.75V47.34a.09.09,0,0,1,.09-.09h1.1a5.48,5.48,0,0,1,4.55,0h1.1a.09.09,0,0,1,.09.09v1.41c0,.71-.65,1.42-1.95,1.8a5.21,5.21,0,0,1-3,0C16.87,50.17,16.22,49.46,16.22,48.75Z"/><path class="cls-2" d="M19.68,51.06a5.66,5.66,0,0,1-1.59-.23c-1.35-.4-2.16-1.18-2.16-2.08V47.34a.38.38,0,0,1,.38-.38h1A5.8,5.8,0,0,1,22,47h1a.38.38,0,0,1,.38.38v1.41c0,.9-.81,1.68-2.16,2.08A5.68,5.68,0,0,1,19.68,51.06Zm-3.17-3.52v1.21c0,.62.66,1.21,1.74,1.53a5.19,5.19,0,0,0,2.87,0c1.08-.32,1.74-.91,1.74-1.53V47.54h-1l-.06,0a5.11,5.11,0,0,0-4.29,0l-.06,0Z"/><path class="cls-3" d="M17.23,45.84c-1.35.78-1.35,2,0,2.83a5.42,5.42,0,0,0,4.9,0c1.36-.79,1.36-2.05,0-2.83A5.36,5.36,0,0,0,17.23,45.84Z"/><path class="cls-2" d="M19.68,49.53a5.25,5.25,0,0,1-2.59-.62,1.77,1.77,0,0,1,0-3.32,5.72,5.72,0,0,1,5.19,0,1.77,1.77,0,0,1,0,3.32A5.26,5.26,0,0,1,19.68,49.53Zm0-4a4.77,4.77,0,0,0-2.3.55h0a1.22,1.22,0,0,0,0,2.34,5.13,5.13,0,0,0,4.61,0,1.22,1.22,0,0,0,0-2.34A4.78,4.78,0,0,0,19.68,45.53Z"/><path class="cls-1" d="M18.71,46.69a.59.59,0,0,0,0,1.12,2.1,2.1,0,0,0,1.95,0,.59.59,0,0,0,0-1.12A2.1,2.1,0,0,0,18.71,46.69Z"/><path class="cls-2" d="M19.68,48.33a2.32,2.32,0,0,1-1.12-.27,1,1,0,0,1-.54-.81,1,1,0,0,1,.54-.81,2.46,2.46,0,0,1,2.24,0,1,1,0,0,1,.55.81,1,1,0,0,1-.55.81A2.26,2.26,0,0,1,19.68,48.33Zm0-1.59a1.72,1.72,0,0,0-.83.19c-.17.1-.26.22-.26.32s.09.22.26.32a1.89,1.89,0,0,0,1.67,0c.16-.1.26-.21.26-.32s-.1-.22-.26-.32A1.74,1.74,0,0,0,19.68,46.74Z"/><rect class="cls-1" x="13.73" y="5.19" width="0.43" height="0.65"/><path class="cls-2" d="M24,17.73a2.55,2.55,0,0,1-1.24-.33l.29-.5a1.93,1.93,0,0,0,1,.26l0,.57Z"/><path class="cls-2" d="M2.39,16.42l-.28-.5C3,15.43,4,14.85,4,14.85l.29.5S3.27,15.93,2.39,16.42Z"/><path class="cls-2" d="M8.5,23.55a11.14,11.14,0,0,1-1.77-.9L7,22.17A9.84,9.84,0,0,0,8.71,23Z"/><path class="cls-2" d="M17.71,37.64a1.35,1.35,0,0,1-.82-.24.89.89,0,0,1-.34-.66l.57,0a.35.35,0,0,0,.12.25,1,1,0,0,0,.63.11l.08.57Z"/><path class="cls-2" d="M4.06,50.15A.93.93,0,0,1,3.48,50a.83.83,0,0,1-.34-.74h.57c0,.21.07.26.1.27a.86.86,0,0,0,.63,0l.19.54A2.14,2.14,0,0,1,4.06,50.15Z"/><path class="cls-2" d="M10,9.79a6.51,6.51,0,0,0-1.81-.9l.19-.55a7.08,7.08,0,0,1,2,1.06Z"/><path class="cls-2" d="M18.48,13.86a5.47,5.47,0,0,0-2.6-1.23l.07-.57a5.9,5.9,0,0,1,2.9,1.36Z"/></g></g></svg>